<svg width="60" height="60" viewBox="0 0 60 60" fill="none" xmlns="http://www.w3.org/2000/svg">
<circle cx="30" cy="30" r="27" fill="#EC732E"/>
<path d="M33.9601 17.1054V17.1053C33.9621 14.9188 32.1765 13.133 29.9936 13.14C27.805 13.1469 26.0322 14.9306 26.0401 17.1172C26.0481 19.3048 27.8329 21.0718 30.0244 21.0599C32.1982 21.048 33.9571 19.28 33.9601 17.1054ZM30.0092 14.8316L30.0092 14.8316C31.2776 14.8354 32.2932 15.858 32.2846 17.1205C32.276 18.358 31.2515 19.3772 30.0081 19.3848C28.7586 19.3924 27.7156 18.3534 27.7156 17.1014C27.7156 15.84 28.7386 14.8269 30.0092 14.8316Z" fill="white" stroke="white" stroke-width="0.12"/>
<path d="M34.73 36.8662C34.7103 36.8662 34.6903 36.8662 34.67 36.8662V37.1967C34.67 37.8462 34.669 38.4957 34.668 39.1451C34.6656 40.7143 34.6631 42.2831 34.6748 43.8519C34.6836 45.0396 34.2374 45.9712 33.1457 46.4998C32.0404 47.0341 31.0002 46.8384 30.0728 46.045C30.0623 46.0359 30.0475 46.0314 30.0268 46.0251C30.015 46.0215 30.0012 46.0174 29.9853 46.0114M34.73 36.8662V37.1967C34.73 37.8464 34.729 38.496 34.728 39.1455C34.7256 40.7145 34.7232 42.2829 34.7348 43.8514C34.7393 44.4528 34.6286 44.9933 34.3755 45.452C34.122 45.9112 33.7278 46.2846 33.1718 46.5538L33.1718 46.5538C32.6095 46.8256 32.0608 46.913 31.5332 46.8296C31.006 46.7462 30.5044 46.4931 30.0342 46.0909M34.73 36.8662V36.8062L33.1162 22.1579C35.7471 22.1871 37.8004 24.1808 37.8378 26.7808C37.8741 29.29 37.8588 31.8 37.8435 34.3084L37.8427 34.4446C37.8382 35.1566 37.5767 35.761 37.1328 36.1883C36.689 36.6154 36.0663 36.8623 35.345 36.8662H35.3449C35.211 36.8668 35.0769 36.8667 34.9276 36.8665C34.8648 36.8664 34.7993 36.8663 34.73 36.8662ZM30.0342 46.0909C30.0343 46.091 30.0343 46.091 30.0343 46.091C30.0343 46.091 30.0341 46.0909 30.0338 46.0906C30.0339 46.0907 30.0341 46.0908 30.0342 46.0909ZM30.0342 46.0909C30.0335 46.0906 30.0302 46.089 30.0211 46.0861C30.0156 46.0844 30.0077 46.0821 29.9983 46.0792M29.9983 46.0792C30.007 46.0718 30.0157 46.0644 30.0243 46.057L29.9853 46.0114M29.9983 46.0792C29.9883 46.076 29.9766 46.0722 29.9644 46.0677L29.9853 46.0114M29.9983 46.0792C29.5525 46.455 29.0443 46.7373 28.4289 46.8173L28.4288 46.8174C26.7642 47.0309 25.2915 45.7873 25.2815 44.1113L25.3415 44.1109L28.4212 46.7578C29.0336 46.6782 29.5391 46.3933 29.9853 46.0114M26.9392 27.5484L26.9392 27.5486C26.9479 27.6641 26.9472 27.7813 26.9466 27.8954C26.9464 27.9254 26.9462 27.9552 26.9462 27.9848C26.9462 33.2508 26.9462 38.5178 26.9472 43.7838L26.9472 43.7979C26.9472 43.9612 26.9471 44.1217 26.9735 44.2754L26.9144 44.2855M26.9392 27.5484L29.1603 37.1257C29.1599 37.9589 29.1601 38.7921 29.1602 39.6254C29.1605 41.0835 29.1608 42.5417 29.1583 43.9995C29.1579 44.3466 29.0514 44.635 28.8715 44.8398C28.6919 45.0442 28.436 45.1689 28.1286 45.184C27.5424 45.2123 27.0731 44.8469 26.9735 44.2752L26.9144 44.2855M26.9392 27.5484C26.9049 27.1013 26.5585 26.771 26.1219 26.7668M26.9392 27.5484L26.1219 26.7668M26.9144 44.2855C27.0194 44.888 27.5161 45.2737 28.1315 45.2439L26.8794 27.553C26.8878 27.6659 26.8872 27.78 26.8866 27.8938C26.8864 27.9241 26.8862 27.9545 26.8862 27.9848C26.8862 33.2508 26.8862 38.5178 26.8872 43.7838L26.8872 43.7999C26.8871 43.9617 26.8871 44.1268 26.9144 44.2855ZM26.1219 26.7668C25.6873 26.7616 25.3267 27.0902 25.2828 27.5325C25.2828 27.5326 25.2828 27.5327 25.2828 27.5327L26.1219 26.7668ZM29.1754 36.722L29.1755 36.7218C29.2388 36.2883 29.5774 35.9848 29.9964 35.9806C30.4137 35.9765 30.7606 36.2779 30.8281 36.7096C30.8281 36.7096 30.8281 36.7096 30.8281 36.7097L30.7689 36.7189C30.787 36.8341 30.7867 36.9522 30.7864 37.0694L29.1754 36.722ZM29.1754 36.722C29.159 36.8379 29.1596 36.9561 29.1601 37.0683M29.1754 36.722L29.1601 37.0683M29.1601 37.0683C29.1602 37.0876 29.1603 37.1068 29.1603 37.1257L29.1601 37.0683ZM34.729 35.2078V35.2088V35.2097V35.2106V35.2116V35.2125V35.2135V35.2144V35.2153V35.2163V35.2172V35.2182V35.2189V35.2078ZM34.729 35.2078V35.2069M34.729 35.2078V35.2069M34.729 35.2069V35.2059M34.729 35.2069V35.2059M34.729 35.2059V35.205M34.729 35.2059V35.205M34.729 35.205V35.2041M34.729 35.205V35.2041M34.729 35.2041V35.2031M34.729 35.2041V35.2031M34.729 35.2031V35.2022M34.729 35.2031V35.2022M34.729 35.2022V35.2013M34.729 35.2022V35.2013M34.729 35.2013V35.2003M34.729 35.2013V35.2003M34.729 35.2003V35.1994M34.729 35.2003V35.1994M34.729 35.1994V35.1985M34.729 35.1994V35.1985M34.729 35.1985V35.1975M34.729 35.1985V35.1975M34.729 35.1975V35.1966M34.729 35.1975V35.1966M34.729 35.1966V35.1957M34.729 35.1966V35.1957M34.729 35.1957V35.1947M34.729 35.1957V35.1947M34.729 35.1947V35.1938M34.729 35.1947V35.1938M34.729 35.1938V35.1929M34.729 35.1938V35.1929M34.729 35.1929V35.1919M34.729 35.1929V35.1919M34.729 35.1919V35.191M34.729 35.1919V35.191M34.729 35.191V35.1901M34.729 35.191V35.1901M34.729 35.1901V35.1892M34.729 35.1901V35.1892M34.729 35.1892V35.1882M34.729 35.1892V35.1882M34.729 35.1882V35.1873M34.729 35.1882V35.1873M34.729 35.1873V35.1864M34.729 35.1873V35.1864M34.729 35.1864V35.1855M34.729 35.1864V35.1855M34.729 35.1855V35.1845M34.729 35.1855V35.1845M34.729 35.1845V35.1836M34.729 35.1845V35.1836M34.729 35.1836V35.1827M34.729 35.1836V35.1827M34.729 35.1827V35.1818M34.729 35.1827V35.1818M34.729 35.1818V35.1808M34.729 35.1818V35.1808M34.729 35.1808V35.1799M34.729 35.1808V35.1799M34.729 35.1799V35.179M34.729 35.1799V35.179M34.729 35.179V35.1781M34.729 35.179V35.1781M34.729 35.1781V35.1771M34.729 35.1781V35.1771M34.729 35.1771V35.1762M34.729 35.1771V35.1762M34.729 35.1762V35.1753M34.729 35.1762V35.1753M34.729 35.1753V35.1744M34.729 35.1753V35.1744M34.729 35.1744V35.1735M34.729 35.1744V35.1735M34.729 35.1735V35.1726M34.729 35.1735V35.1726M34.729 35.1726V35.1716M34.729 35.1726V35.1716M34.729 35.1716V35.1707M34.729 35.1716V35.1707M34.729 35.1707V35.1698M34.729 35.1707V35.1698M34.729 35.1698V35.1689M34.729 35.1698V35.1689M34.729 35.1689V35.168M34.729 35.1689V35.168M34.729 35.168V35.1671M34.729 35.168V35.1671M34.729 35.1671V35.1661M34.729 35.1671V35.1661M34.729 35.1661V35.1652M34.729 35.1661V35.1652M34.729 35.1652V35.1643M34.729 35.1652V35.1643M34.729 35.1643V35.1634M34.729 35.1643V35.1634M34.729 35.1634V35.1625M34.729 35.1634V35.1625M34.729 35.1625V35.1616M34.729 35.1625V35.1616M34.729 35.1616V35.1607M34.729 35.1616V35.1607M34.729 35.1607V35.1597M34.729 35.1607V35.1597M34.729 35.1597V35.1588M34.729 35.1597V35.1588M34.729 35.1588V35.1579M34.729 35.1588V35.1579M34.729 35.1579V35.157M34.729 35.1579V35.157M34.729 35.157V35.1561M34.729 35.157V35.1561M34.729 35.1561V35.1552M34.729 35.1561V35.1552M34.729 35.1552V35.1543M34.729 35.1552V35.1543M34.729 35.1543V35.1534M34.729 35.1543V35.1534M34.729 35.1534V35.1525M34.729 35.1534V35.1525M34.729 35.1525V35.1516M34.729 35.1525V35.1516M34.729 35.1516V35.1507M34.729 35.1516V35.1507M34.729 35.1507V35.1498M34.729 35.1507V35.1498M34.729 35.1498V35.1489M34.729 35.1498V35.1489M34.729 35.1489V35.1479M34.729 35.1489V35.1479M34.729 35.1479V35.147M34.729 35.1479V35.147M34.729 35.147V35.1461M34.729 35.147V35.1461M34.729 35.1461V35.1452M34.729 35.1461V35.1452M34.729 35.1452V35.1443M34.729 35.1452V35.1443M34.729 35.1443V35.1434M34.729 35.1443V35.1434M34.729 35.1434V35.1425M34.729 35.1434V35.1425M34.729 35.1425V35.1416M34.729 35.1425V35.1416M34.729 35.1416V35.1407M34.729 35.1416V35.1407M34.729 35.1407V35.1398M34.729 35.1407V35.1398M34.729 35.1398V35.1389M34.729 35.1398V35.1389M34.729 35.1389V35.138M34.729 35.1389V35.138M34.729 35.138V35.1371M34.729 35.138V35.1371M34.729 35.1371V35.1362M34.729 35.1371V35.1362M34.729 35.1362V35.1353M34.729 35.1362V35.1353M34.729 35.1353V35.1344M34.729 35.1353V35.1344M34.729 35.1344V35.1335M34.729 35.1344V35.1335M34.729 35.1335V35.1326M34.729 35.1335V35.1326M34.729 35.1326V35.1317M34.729 35.1326V35.1317M34.729 35.1317V35.1308M34.729 35.1317V35.1308M34.729 35.1308V35.1299M34.729 35.1308V35.1299M34.729 35.1299V35.1291M34.729 35.1299V35.1291M34.729 35.1291V35.1282M34.729 35.1291V35.1282M34.729 35.1282V35.1273M34.729 35.1282V35.1273M34.729 35.1273V35.1264M34.729 35.1273V35.1264M34.729 35.1264V35.1255M34.729 35.1264V35.1255M34.729 35.1255V35.1246M34.729 35.1255V35.1246M34.729 35.1246V35.1237M34.729 35.1246V35.1237M34.729 35.1237V35.1228V35.1237ZM24.9635 36.8545C25.0658 36.851 25.1698 36.8474 25.2776 36.8464L33.1162 22.1579C31.0383 22.134 28.9605 22.134 26.8826 22.1579L26.8826 22.1579C24.2994 22.188 22.2396 24.1261 22.1775 26.6795L22.1775 26.6795C22.1191 29.095 22.1413 31.512 22.1634 33.9272C22.1652 34.1263 22.167 34.3253 22.1688 34.5244L22.1688 34.5244C22.1798 35.7363 23.035 36.6688 24.2248 36.8378C24.4018 36.863 24.581 36.8648 24.7645 36.8606C24.8305 36.8591 24.8966 36.8568 24.9635 36.8545ZM33.1331 27.4926C33.17 27.175 33.3547 26.9669 33.6599 26.87L33.1212 43.7976C33.1208 43.7607 33.1204 43.7238 33.1204 43.6869V27.9598C33.1204 27.9321 33.1203 27.9043 33.1201 27.8765C33.1194 27.7484 33.1187 27.6195 33.1331 27.4926ZM30.8465 39.4167C30.8466 38.6489 30.8467 37.8811 30.8464 37.1132L34.729 34.8328C34.729 34.1203 34.7293 33.4077 34.7295 32.6951C34.7301 31.0323 34.7308 29.3693 34.728 27.7064C34.7275 27.3772 34.606 27.1066 34.406 26.9412C34.2053 26.7752 33.9319 26.7207 33.6418 26.8128L33.6418 26.8128C33.4806 26.8639 33.3478 26.9456 33.2503 27.0595C33.1526 27.1736 33.0931 27.3166 33.0735 27.4857L33.0734 27.4858C33.0586 27.6166 33.0594 27.7498 33.0601 27.8781C33.0603 27.9056 33.0604 27.9328 33.0604 27.9598V27.9905V28.0212V28.052V28.0827V28.1134V28.1441V28.1748V28.2055V28.2362V28.267V28.2977V28.3284V28.3591V28.3898V28.4205V28.4513V28.482V28.5127V28.5434V28.5741V28.6048V28.6355V28.6663V28.697V28.7277V28.7584V28.7891V28.8198V28.8506V28.8813V28.912V28.9427V28.9734V29.0041V29.0349V29.0656V29.0963V29.127V29.1577V29.1884V29.2191V29.2499V29.2806V29.3113V29.342V29.3727V29.4034V29.4342V29.4649V29.4956V29.5263V29.557V29.5877V29.6185V29.6492V29.6799V29.7106V29.7413V29.772V29.8028V29.8335V29.8642V29.8949V29.9256V29.9563V29.987V30.0178V30.0485V30.0792V30.1099V30.1406V30.1713V30.2021V30.2328V30.2635V30.2942V30.3249V30.3556V30.3864V30.4171V30.4478V30.4785V30.5092V30.5399V30.5707V30.6014V30.6321V30.6628V30.6935V30.7242V30.755V30.7857V30.8164V30.8471V30.8778V30.9085V30.9393V30.97V31.0007V31.0314V31.0621V31.0928V31.1236V31.1543V31.185V31.2157V31.2464V31.2771V31.3079V31.3386V31.3693V31.4V31.4307V31.4614V31.4922V31.5229V31.5536V31.5843V31.615V31.6458V31.6765V31.7072V31.7379V31.7686V31.7993V31.8301V31.8608V31.8915V31.9222V31.9529V31.9836V32.0144V32.0451V32.0758V32.1065V32.1372V32.1679V32.1987V32.2294V32.2601V32.2908V32.3215V32.3522V32.383V32.4137V32.4444V32.4751V32.5058V32.5366V32.5673V32.598V32.6287V32.6594V32.6901V32.7209V32.7516V32.7823V32.813V32.8437V32.8744V32.9052V32.9359V32.9666V32.9973V33.028V33.0587V33.0895V33.1202V33.1509V33.1816V33.2123V33.2431V33.2738V33.3045V33.3352V33.3659V33.3966V33.4274V33.4581V33.4888V33.5195V33.5502V33.5809V33.6117V33.6424V33.6731V33.7038V33.7345V33.7653V33.796V33.8267V33.8574V33.8881V33.9188V33.9496V33.9803V34.011V34.0417V34.0724V34.1031V34.1339V34.1646V34.1953V34.226V34.2567V34.2875V34.3182V34.3489V34.3796V34.4103V34.441V34.4718V34.5025V34.5332V34.5639V34.5946V34.6253V34.6561V34.6868V34.7175V34.7482V34.7789V34.8097V34.8404V34.8711V34.9018V34.9325V34.9632V34.994V35.0247V35.0554V35.0861V35.1168V35.1476V35.1783V35.209V35.2397V35.2704V35.3011V35.3319V35.3626V35.3933V35.424V35.4547V35.4854V35.5162V35.5469V35.5776V35.6083V35.639V35.6698V35.7005V35.7312V35.7619V35.7926V35.8233V35.8541V35.8848V35.9155V35.9462V35.9769V36.0077V36.0384V36.0691V36.0998V36.1305V36.1612V36.192V36.2227V36.2534V36.2841V36.3148V36.3455V36.3763V36.407V36.4377V36.4684V36.4991V36.5299V36.5606V36.5913V36.622V36.6527V36.6834V36.7142V36.7449V36.7756V36.8063V36.837V36.8678V36.8985V36.9292V36.9599V36.9906V37.0213V37.0521V37.0828V37.1135V37.1442V37.1749V37.2056V37.2364V37.2671V37.2978V37.3285V37.3592V37.39V37.4207V37.4514V37.4821V37.5128V37.5435V37.5743V37.605V37.6357V37.6664V37.6971V37.7278V37.7586V37.7893V37.82V37.8507V37.8814V37.9122V37.9429V37.9736V38.0043V38.035V38.0657V38.0965V38.1272V38.1579V38.1886V38.2193V38.25V38.2808V38.3115V38.3422V38.3729V38.4036V38.4344V38.4651V38.4958V38.5265V38.5572V38.5879V38.6187V38.6494V38.6801V38.7108V38.7415V38.7722V38.803V38.8337V38.8644V38.8951V38.9258V38.9566V38.9873V39.018V39.0487V39.0794V39.1101V39.1409V39.1716V39.2023V39.233V39.2637V39.2944V39.3252V39.3559V39.3866V39.4173V39.448V39.4787V39.5095V39.5402V39.5709V39.6016V39.6323V39.663V39.6938V39.7245V39.7552V39.7859V39.8166V39.8474V39.8781V39.9088V39.9395V39.9702V40.0009V40.0317V40.0624V40.0931V40.1238V40.1545V40.1852V40.216V40.2467V40.2774V40.3081V40.3388V40.3695V40.4003V40.431V40.4617V40.4924V40.5231V40.5538V40.5846V40.6153V40.646V40.6767V40.7074V40.7381V40.7689V40.7996V40.8303V40.861V40.8917V40.9224V40.9532V40.9839V41.0146V41.0453V41.076V41.1067V41.1375V41.1682V41.1989V41.2296V41.2603V41.291V41.3218V41.3525V41.3832V41.4139V41.4446V41.4753V41.5061V41.5368V41.5675V41.5982V41.6289V41.6596V41.6904V41.7211V41.7518V41.7825V41.8132V41.8439V41.8747V41.9054V41.9361V41.9668V41.9975V42.0282V42.059V42.0897V42.1204V42.1511V42.1818V42.2125V42.2432V42.274V42.3047V42.3354V42.3661V42.3968V42.4275V42.4583V42.489V42.5197V42.5504V42.5811V42.6118V42.6426V42.6733V42.704V42.7347V42.7654V42.7961V42.8268V42.8576V42.8883V42.919V42.9497V42.9804V43.0111V43.0419V43.0726V43.1033V43.134V43.1647V43.1954V43.2262V43.2569V43.2876V43.3183V43.349V43.3797V43.4104V43.4412V43.4719V43.5026V43.5333V43.564V43.5947V43.6254V43.6562V43.6869C33.0604 43.7251 33.0608 43.7627 33.0612 43.8C33.062 43.8822 33.0628 43.9627 33.0595 44.0442L33.0595 44.0444C33.0343 44.7261 32.5711 45.1894 31.9368 45.1849C31.6172 45.1826 31.3469 45.0635 31.156 44.8613C30.9649 44.659 30.8502 44.3699 30.8493 44.0225C30.846 42.4876 30.8462 40.9523 30.8465 39.4167ZM27.0555 23.8235L27.0554 23.7635V23.8235L27.0555 23.8235ZM26.306 23.877L26.3061 23.877L26.2942 23.8182L26.306 23.877Z" fill="white" stroke="white" stroke-width="0.12"/>
</svg>
