<svg width="60" height="60" viewBox="0 0 60 60" fill="none" xmlns="http://www.w3.org/2000/svg">
<circle cx="30" cy="30" r="27" fill="#F3CA45"/>
<path d="M12.6001 29.7931C12.7678 29.5061 12.9056 29.1945 13.1065 28.9354C15.5577 25.7756 18.4012 23.0675 21.8192 21.0421C24.0695 19.7082 26.4713 18.8119 29.0842 18.6316C31.4775 18.4661 33.7678 18.9502 35.9636 19.9156C39.1102 21.2994 41.8013 23.3677 44.1946 25.85C45.1887 26.8811 46.0968 28.0023 47.0152 29.1078C47.5369 29.7354 47.5182 30.2518 47.0203 30.9004C44.5495 34.1197 41.6788 36.882 38.2097 38.9389C35.4862 40.5547 32.5797 41.5307 29.3897 41.3854C27.1999 41.2856 25.1334 40.6781 23.1725 39.6882C19.0557 37.6085 15.7602 34.517 12.9405 30.8487C12.7959 30.6623 12.7124 30.426 12.6001 30.2124C12.6001 30.0724 12.6001 29.9332 12.6001 29.7931ZM15.1934 30.0268C15.8675 30.7752 16.5015 31.5192 17.1765 32.2212C19.4123 34.5485 21.883 36.5486 24.8253 37.8597C26.2977 38.5162 27.8288 38.9477 29.4442 39.0265C31.9133 39.1464 34.184 38.4392 36.3466 37.289C38.7629 36.0041 40.8549 34.2693 42.758 32.2886C43.4559 31.5621 44.1104 30.7918 44.7981 30.026C44.6721 29.8719 44.5853 29.7511 44.4849 29.6452C43.4184 28.5205 42.3997 27.3424 41.272 26.2876C39.1638 24.3183 36.8216 22.7077 34.1099 21.7196C31.3711 20.7217 28.6382 20.72 25.8994 21.7099C23.5418 22.5625 21.4703 23.9148 19.551 25.534C17.9714 26.8671 16.5475 28.3603 15.1934 30.0251V30.0268Z" fill="white"/>
<path d="M30.0203 23.4005C33.6785 23.421 36.6347 26.5389 36.5996 30.3393C36.5645 34.1584 33.6082 37.2208 29.9787 37.2003C26.3197 37.1789 23.3651 34.0628 23.4002 30.2615C23.4353 26.4415 26.3892 23.38 30.0203 23.4005ZM30.0105 34.9025C32.4438 34.8862 34.4016 32.8301 34.3983 30.2965C34.3942 27.7587 32.4308 25.7043 30.004 25.6975C27.5764 25.6906 25.5704 27.7954 25.5974 30.3205C25.6244 32.8703 27.5976 34.9187 30.0113 34.9025H30.0105Z" fill="white"/>
</svg>
