<svg width="60" height="60" viewBox="0 0 60 60" fill="none" xmlns="http://www.w3.org/2000/svg">
<g clip-path="url(#clip0_1057_7938)">
<path d="M30 58C45.464 58 58 45.464 58 30C58 14.536 45.464 2 30 2C14.536 2 2 14.536 2 30C2 45.464 14.536 58 30 58Z" fill="#4A27A5"/>
<path d="M30.4 30.7V44.8H31V30.7H30.4ZM44.8 30.4H30.7V31H44.8V30.4ZM45.2 42.6V31.1H44.6V42.6H45.2ZM42.6 45.2C43.4 45.2 44 45 44.5 44.5C45 44 45.2 43.4 45.2 42.6H44.6C44.6 43.2 44.4 43.7 44.1 44C43.8 44.3 43.3 44.5 42.7 44.5L42.6 45.2ZM31 45.2H42.6V44.6H31V45.2ZM30.7 45.2H31V44.6H30.6V45.2H30.7ZM28.9 45.2H29.3V44.6H28.9V45.2ZM17.4 45.2H28.9V44.6H17.4V45.2ZM14.8 42.6C14.8 43.4 15 44 15.5 44.5C16 45 16.6 45.2 17.4 45.2V44.6C16.8 44.6 16.3 44.4 16 44.1C15.7 43.8 15.5 43.3 15.5 42.7C15.5 42.6 14.8 42.6 14.8 42.6ZM14.8 31.1V42.7H15.4V31.1H14.8ZM14.8 30.7V31H15.4V30.7H14.8ZM29.3 30.4H15.1V31H29.2V30.4H29.3ZM29.6 44.9V30.7H29V44.8H29.6V44.9ZM15.1 29.6H29.2V29H15.1V29.6ZM14.8 29V29.1H15.4L14.8 29ZM14.8 17.4V29H15.4V17.4H14.8ZM17.4 14.9C16.6 14.9 16 15.1 15.6 15.6C15.2 16.1 14.9 16.7 14.9 17.5H15.5C15.5 16.9 15.7 16.4 16 16.1C16.3 15.8 16.8 15.6 17.4 15.6V14.9ZM29 14.9H17.4V15.5H29V14.9ZM29.3 14.9H29V15.5H29.3V14.9ZM29.6 29.3V15.2H29V29.3H29.6ZM31.1 14.9H30.7V15.5H31.1V14.9ZM42.6 14.9H31.1V15.5H42.6V14.9ZM45.2 17.4C45.2 16.6 45 16 44.5 15.5C44 15 43.4 14.8 42.6 14.8V15.4C43.2 15.4 43.7 15.6 44 15.9C44.3 16.2 44.5 16.7 44.5 17.3H45.2V17.4ZM45.2 29V17.4H44.6V29H45.2ZM45.2 29.3V29H44.6V29.3H45.2ZM30.7 29.6H44.8V29H30.7V29.6ZM30.4 15.2V29.3H31V15.2H30.4ZM14.3 43.7C14.2 43.5 14.2 43.4 14.1 43.2L13.5 43.4C13.5 43.6 13.6 43.8 13.7 44L14.3 43.7ZM16.6 45.8C15.4 45.5 14.7 44.8 14.3 43.7L13.7 44C14.2 45.3 15.1 46.2 16.5 46.5C16.4 46.4 16.6 45.8 16.6 45.8ZM16.8 45.9C16.8 45.9 16.7 45.8 16.6 45.8L16.5 46.4C16.5 46.4 16.6 46.4 16.7 46.5L16.8 45.9ZM43.3 45.9H16.7V46.5H43.3V45.9ZM43.7 45.7C43.5 45.8 43.4 45.8 43.2 45.9L43.4 46.5C43.6 46.5 43.8 46.4 44 46.3L43.7 45.7ZM45.8 43.4C45.5 44.6 44.8 45.3 43.7 45.7L43.9 46.3C45.2 45.8 46.1 44.9 46.4 43.5C46.4 43.6 45.8 43.4 45.8 43.4ZM45.9 43.2C45.9 43.2 45.8 43.3 45.8 43.4L46.4 43.5C46.4 43.5 46.4 43.4 46.5 43.3L45.9 43.2ZM45.9 16.7V43.3H46.5V16.7H45.9ZM45.7 16.3C45.8 16.5 45.8 16.6 45.9 16.8L46.5 16.6C46.5 16.4 46.4 16.2 46.3 16L45.7 16.3ZM43.4 14.2C44.6 14.5 45.3 15.2 45.7 16.3L46.3 16.1C45.8 14.8 44.9 13.9 43.5 13.6L43.4 14.2ZM43.2 14.1C43.2 14.1 43.3 14.1 43.4 14.2L43.5 13.6C43.4333 13.6 43.3667 13.5667 43.3 13.5C43.4 13.5 43.2 14.1 43.2 14.1ZM16.7 14.1H43.3V13.5H16.7V14.1ZM16.2 14.3C16.4 14.2 16.5 14.2 16.7 14.1L16.5 13.5C16.3 13.5 16.1 13.6 15.9 13.7L16.2 14.3ZM14.2 16.6C14.5 15.4 15.2 14.7 16.3 14.3L16 13.7C14.7 14.2 13.8 15.1 13.5 16.5L14.2 16.6ZM14.1 16.8C14.1 16.8 14.1 16.7 14.2 16.6L13.6 16.5C13.6 16.5667 13.5667 16.6333 13.5 16.7C13.5 16.6 14.1 16.8 14.1 16.8ZM14.1 43.3V16.7H13.5V43.3H14.1ZM30.7 44.9V45.2H31V44.9H30.7ZM30.7 30.7V30.4H30.4V30.7H30.7ZM44.8 30.7H45.1V30.4H44.8V30.7ZM15.1 30.7V30.4H14.8V30.7H15.1ZM29.3 30.7H29.6V30.4H29.3V30.7ZM29.3 44.9V45.2H29.6V44.9H29.3ZM15.1 29.3H14.8V29.6H15.1V29.3ZM29.3 15.2H29.6V14.9H29.3V15.2ZM29.3 29.3V29.6H29.6V29.3H29.3ZM44.8 29.3V29.6H45.1V29.3H44.8ZM30.7 29.3H30.4V29.6H30.7V29.3ZM30.7 15.2V14.9H30.4V15.2H30.7ZM16.7 46.2L16.6 46.5V46.2H16.7ZM46.2 43.3L46.5 43.4H46.2V43.3ZM43.3 13.8L43.4 13.5V13.8H43.3Z" fill="white"/>
<path d="M30.7001 44.8H42.6C44 44.8 44.8 44 44.8 42.6V30.7001H30.7001V44.8ZM29.3 44.8V30.7001H15.2V42.6C15.2 44 16 44.8 17.4 44.8H29.3ZM29.3 29.3V15.2H17.4C16 15.2 15.2 16 15.2 17.4V29.3H29.3ZM30.7001 15.2V29.3H44.8V17.4C44.8 16 44 15.2 42.6 15.2H30.7001ZM13.8 43.3V16.7C13.8 16.6334 13.8334 16.5667 13.9 16.5C14.2 15.2 15 14.4 16.2 14C16.4 13.9 16.6 13.9 16.8 13.8H43.4001C43.4667 13.8 43.5334 13.8334 43.6 13.9C44.9 14.2 45.7 15 46.1 16.2C46.2 16.4 46.2 16.6 46.3 16.8V43.4001C46.3 43.4667 46.2667 43.5334 46.2001 43.6C45.9001 44.9 45.1001 45.7 43.9001 46.1C43.7001 46.2 43.5 46.2 43.3 46.3H16.7C16.6334 46.3 16.5667 46.2667 16.5 46.2001C15.2 45.9001 14.4 45.1001 14 43.9001C13.9 43.7001 13.9 43.5 13.8 43.3Z" fill="white"/>
<path d="M21.1 22.2H21.5V21.6H21.1V22.2ZM19.5 22.2H21.2V21.6H19.5V22.2ZM19.1 22.5C19.1 22.4 19.2 22.2 19.5 22.2V21.6C19 21.6 18.5 22 18.5 22.5H19.1ZM19.5 22.8C19.4 22.8 19.3 22.8 19.2 22.7C19.2 22.7 19.1 22.6 19.1 22.5H18.5C18.5 22.8 18.6 23 18.8 23.2C19 23.4 19.2 23.5 19.5 23.5V22.8ZM20.6 22.8H19.5V23.4H20.6V22.8ZM21.5 22.8H20.6V23.4H21.5V22.8ZM21.8 24.9V23.5H21.2V24.9H21.8ZM22.2 25.3C22.1 25.3 22 25.3 21.9 25.2C21.9 25.1 21.8 25 21.8 24.9H21.2C21.2 25.2 21.3 25.5 21.5 25.7C21.7 25.9 21.9 26 22.2 26V25.3ZM22.6 24.9C22.6 25.1 22.5 25.2 22.5 25.2C22.5 25.3 22.4 25.3 22.2 25.3V25.9C22.5 25.9 22.7 25.8 22.9 25.6C23.1 25.4 23.2 25.1 23.2 24.8C23.2 24.9 22.6 24.9 22.6 24.9ZM22.6 24.3V24.9H23.2V24.3H22.6ZM22.6 23.1V23.2H23.2L22.6 23.1ZM23.3 22.8H22.9V23.4H23.3V22.8ZM25 22.8H23.3V23.4H25V22.8ZM25.3 22.5C25.3 22.6 25.3 22.7 25.2 22.7C25.2 22.8 25.1 22.8 24.9 22.8V23.4C25.2 23.4 25.5 23.3 25.7 23.1C25.9 22.9 26 22.6 25.9 22.3L25.3 22.5ZM24.9 22.2C25.2 22.2 25.3 22.3 25.3 22.4L25.9 22.3C25.8 21.8 25.4 21.6 24.9 21.6V22.2ZM22.9 22.2H24.9V21.6H22.9V22.2ZM22.6 20.1V21.6H23.2V20.1H22.6ZM22.4 19.7C22.5 19.7 22.6 19.8 22.6 19.8C22.6 19.8 22.7 19.9 22.7 20H23.3C23.3 19.8 23.3 19.6 23.2 19.4C23.1 19.2 22.9 19.1 22.7 19C22.6 19.2 22.4 19.7 22.4 19.7ZM21.8 20.1C21.8 19.9 21.9 19.8 22 19.8C22.1 19.7 22.2 19.7 22.4 19.8L22.6 19.2C22.3 19.1 21.9 19.1 21.7 19.3C21.5 19.5 21.3 19.8 21.3 20.1C21.2 20.1 21.8 20.1 21.8 20.1ZM21.8 21.9V20.1H21.2V21.9H21.8ZM21.5 21.9V22.2H22.3L21.7 21.7L21.5 21.9ZM21.5 23.1H21.8V22.8H21.5V23.1ZM22.9 23.1V22.8H22.6V23.1H22.9ZM22.9 21.9H22.6V22.2H22.9V21.9ZM21.5 21.9H21.2V22L21.3 22.1L21.5 21.9Z" fill="white"/>
<path d="M21.5001 21.8999V20.0999C21.5001 19.5999 22.0001 19.2999 22.4001 19.4999C22.7001 19.5999 22.8001 19.7999 22.8001 20.0999V21.8999H24.8001C25.2001 21.8999 25.5001 22.0999 25.5001 22.3999C25.6001 22.7999 25.3001 23.0999 24.8001 23.0999H22.7001V24.7999C22.7001 25.2999 22.4001 25.4999 22.0001 25.4999C21.6001 25.4999 21.3001 25.1999 21.3001 24.7999V22.9999H19.3001C18.9001 22.9999 18.6001 22.6999 18.6001 22.3999C18.6001 22.0999 18.9001 21.7999 19.3001 21.7999H21.0001L21.5001 21.8999Z" fill="white"/>
<path d="M23.2001 37.2999C23.1001 37.3999 23.0001 37.4999 22.9001 37.5999L23.4001 38C23.5001 37.9 23.6001 37.8 23.6001 37.7L23.2001 37.2999ZM24.6001 36C24.2001 36.5 23.7001 36.8999 23.3001 37.2999L23.7001 37.7C24.1001 37.3 24.6001 36.7999 25.0001 36.2999L24.6001 36ZM24.6001 35.5C24.7001 35.6 24.7001 35.7 24.7001 35.7C24.7001 35.8 24.7001 35.9 24.6001 36L25.0001 36.4C25.2001 36.2 25.3001 35.9999 25.3001 35.7999C25.3001 35.5999 25.3001 35.4 25.2001 35.2L24.6001 35.5ZM24.0001 35.4C24.1001 35.3 24.2001 35.2999 24.3001 35.2999C24.4001 35.2999 24.5001 35.4 24.6001 35.5L25.1001 35.2C24.9001 34.9 24.7001 34.8 24.4001 34.7C24.1001 34.7 23.8001 34.8 23.6001 35L24.0001 35.4ZM22.5001 37C23.0001 36.5 23.5001 35.9 24.1001 35.4L23.6001 35C23.1001 35.5 22.6001 36.0999 22.0001 36.5999L22.5001 37ZM21.7001 36.7999C21.8001 36.8999 21.9001 36.9999 22.0001 37.0999L22.4001 36.5999C22.3001 36.4999 22.2001 36.3999 22.1001 36.2999C22.2001 36.2999 21.7001 36.7999 21.7001 36.7999ZM20.4001 35.4C20.9001 35.8 21.3001 36.3 21.7001 36.7L22.1001 36.2999C21.7001 35.8999 21.2001 35.4 20.7001 35C20.8001 35 20.4001 35.4 20.4001 35.4ZM19.9001 35.4C20.0001 35.3 20.1001 35.2999 20.1001 35.2999C20.2001 35.2999 20.3001 35.3 20.4001 35.4L20.8001 35C20.6001 34.8 20.4001 34.7 20.1001 34.7C19.8001 34.7 19.6001 34.8 19.4001 34.9L19.9001 35.4ZM19.9001 36C19.8001 35.9 19.8001 35.8 19.8001 35.7C19.8001 35.6 19.8001 35.5 19.9001 35.4L19.5001 34.9C19.3001 35.1 19.1001 35.2999 19.1001 35.5999C19.1001 35.8999 19.2001 36.1 19.4001 36.4L19.9001 36ZM21.5001 37.5C21.0001 37 20.4001 36.4 19.9001 35.9L19.5001 36.2999C20.0001 36.7999 20.6001 37.4 21.1001 37.9C21.0001 38 21.5001 37.5 21.5001 37.5ZM21.2001 38.2999C21.3001 38.1999 21.4001 38.1 21.4001 38L21.0001 37.5999C20.9001 37.6999 20.8001 37.8 20.8001 37.9L21.2001 38.2999ZM19.9001 39.5999C20.3001 39.0999 20.8001 38.6999 21.2001 38.2999L20.8001 37.9C20.4001 38.3 19.9001 38.7999 19.5001 39.2999L19.9001 39.5999ZM19.8001 40.0999C19.7001 39.9999 19.7001 39.9 19.7001 39.9C19.7001 39.8 19.7001 39.6999 19.8001 39.5999L19.4001 39.2C19.2001 39.4 19.1001 39.6 19.1001 39.9C19.1001 40.1 19.2001 40.3999 19.3001 40.5999L19.8001 40.0999ZM20.4001 40.0999C20.3001 40.1999 20.2001 40.2 20.1001 40.2C20.0001 40.2 19.9001 40.2 19.8001 40L19.3001 40.4C19.5001 40.6 19.7001 40.7999 20.0001 40.7999C20.3001 40.7999 20.6001 40.7 20.8001 40.5L20.4001 40.0999ZM22.0001 38.5C21.5001 39 21.0001 39.5999 20.4001 40.0999L20.8001 40.5C21.3001 40 21.9001 39.4 22.4001 38.9C22.4001 39 22.0001 38.5 22.0001 38.5ZM22.7001 38.7999C22.6001 38.6999 22.5001 38.5999 22.4001 38.5999L22.0001 39C22.1001 39.1 22.2001 39.2 22.2001 39.2L22.7001 38.7999ZM24.0001 40.0999C23.5001 39.6999 23.1001 39.1999 22.7001 38.7999L22.3001 39.2C22.7001 39.6 23.2001 40.1 23.6001 40.5L24.0001 40.0999ZM24.3001 40.2H24.2001C24.1001 40.2 24.1001 40.0999 24.0001 40.0999L23.6001 40.5999C23.7001 40.6999 23.8001 40.7999 24.0001 40.7999C24.1001 40.8999 24.3001 40.9 24.5001 40.9L24.3001 40.2ZM24.7001 40C24.7001 40.1 24.6001 40.1 24.5001 40.2C24.4334 40.2666 24.3668 40.2999 24.3001 40.2999L24.4001 40.9C24.6001 40.9 24.7001 40.8 24.8001 40.7C24.9001 40.6 25.0001 40.5 25.1001 40.4L24.7001 40ZM24.6001 39.5999C24.7001 39.6999 24.7001 39.7999 24.7001 39.7999V39.9L25.2001 40.2C25.5001 39.8 25.2001 39.2999 25.0001 39.0999L24.6001 39.5999ZM23.0001 38C23.5001 38.5 24.1001 39.0999 24.6001 39.5999L25.0001 39.2C24.5001 38.7 23.9001 38.1999 23.4001 37.5999L23.0001 38ZM23.2001 37.7999L22.9001 37.7L23.4001 38L23.2001 37.7999ZM22.2001 36.7999L22.0001 37L22.2001 37.2L22.4001 37C22.5001 37 22.2001 36.7999 22.2001 36.7999ZM21.2001 37.7999L21.4001 38L21.6001 37.7999L21.4001 37.5999L21.2001 37.7999ZM22.2001 38.7999L22.4001 38.5999L22.2001 38.4L22.0001 38.5L22.2001 38.7999ZM23.2001 37.7999L23.4001 37.5999L23.1001 37.2999L22.9001 37.7L23.2001 37.7999Z" fill="white"/>
<path d="M23.1999 37.8001C23.6999 38.3001 24.2999 38.9001 24.7999 39.4001C24.9999 39.6001 25.0999 39.9001 24.9999 40.1001C24.8999 40.3001 24.6999 40.5001 24.3999 40.5001C24.1999 40.5001 23.9999 40.4001 23.7999 40.3001C23.2999 39.9001 22.8999 39.4001 22.4999 39.0001C22.3999 38.9001 22.2999 38.9001 22.1999 38.8001C21.6999 39.3001 21.0999 39.9001 20.5999 40.4001C20.2999 40.7001 19.7999 40.7001 19.4999 40.3001C19.2999 40.0001 19.2999 39.7001 19.5999 39.4001C19.9999 38.9001 20.4999 38.5001 20.8999 38.0001C20.9999 37.9001 20.9999 37.8001 21.0999 37.7001C20.5999 37.2001 19.9999 36.6001 19.4999 36.1001C19.1999 35.8001 19.1999 35.3001 19.4999 35.1001C19.7999 34.9001 20.0999 34.9001 20.3999 35.2001C20.8999 35.6001 21.2999 36.1001 21.6999 36.5001C21.7999 36.6001 21.8999 36.6001 21.9999 36.8001C22.4999 36.3001 22.9999 35.7001 23.5999 35.2001C23.9999 34.9001 24.3999 34.9001 24.6999 35.3001C24.8999 35.6001 24.7999 35.9001 24.5999 36.2001C24.1999 36.7001 23.6999 37.1001 23.2999 37.6001C23.2999 37.6001 23.2999 37.7001 23.1999 37.8001Z" fill="white"/>
<path d="M40.5 36.5H38.0999V37.0999H40.5V36.5ZM40.9 35.7999C40.9 36.0999 40.8999 36.3 40.7999 36.4C40.6999 36.5 40.6 36.5999 40.5 36.5999V37.2C40.9 37.2 41.1999 37 41.2999 36.7C41.4999 36.4 41.5 36.1 41.5 35.7L40.9 35.7999ZM40.5 35.2999C40.6 35.2999 40.6999 35.3 40.7999 35.4C40.8999 35.5 40.9 35.5999 40.9 35.7999L41.5 35.7C41.5 35.4 41.4 35.2 41.2 35C41 34.8 40.7 34.7 40.5 34.7V35.2999ZM35.7 35.2999H40.4V34.7H35.7V35.2999ZM35.5999 35.2999H35.7V34.7H35.5L35.5999 35.2999ZM35.2999 35.9C35.2999 35.5 35.4999 35.2999 35.5999 35.2999L35.5 34.7C34.9 34.8 34.7 35.3 34.7 35.9H35.2999ZM35.5999 36.5C35.4999 36.5 35.2999 36.3 35.2999 35.9H34.7C34.7 36.5 34.9 36.9999 35.5 37.0999L35.5999 36.5ZM35.7999 36.5H35.5999L35.5 37.0999H35.7999V36.5ZM38.0999 36.5H35.7999V37.0999H38.0999V36.5ZM38.0999 36.7999H37.7999V37.0999H38.0999V36.7999ZM38.0999 36.7999H38.4V36.5H38.0999V36.7999Z" fill="white"/>
<path d="M38.0999 36.8H35.4999C35.0999 36.7 34.8999 36.4 34.8999 35.9C34.8999 35.4 35.0999 35.1 35.4999 35H40.3999C40.7999 35 41.0999 35.3 41.0999 35.7C41.1999 36.3 40.8999 36.8 40.3999 36.8C39.6999 36.9 38.8999 36.8 38.0999 36.8Z" fill="white"/>
<path d="M40.5 23.5001H38.0999V24.1001H40.5V23.5001ZM40.9 22.7001C40.9 23.0001 40.8999 23.2001 40.7999 23.3001C40.6999 23.4001 40.6 23.5001 40.5 23.5001V24.1001C40.9 24.1001 41.1999 23.9001 41.2999 23.6001C41.4999 23.3001 41.5 23.0001 41.5 22.6001L40.9 22.7001ZM40.5 22.2001C40.6 22.2001 40.6999 22.2001 40.7999 22.3001C40.8999 22.4001 40.9 22.5001 40.9 22.7001L41.5 22.6001C41.5 22.3001 41.4 22.1001 41.2 21.9001C41 21.7001 40.7 21.6001 40.5 21.6001V22.2001ZM35.7 22.2001H40.4V21.6001H35.7V22.2001ZM35.5999 22.2001H35.7V21.6001H35.5L35.5999 22.2001ZM35.2999 22.8001C35.2999 22.4001 35.4999 22.2001 35.5999 22.2001L35.5 21.6001C34.9 21.7001 34.7 22.2001 34.7 22.8001H35.2999ZM35.5999 23.4001C35.4999 23.4001 35.2999 23.2001 35.2999 22.8001H34.7C34.7 23.4001 34.9 23.9001 35.5 24.0001L35.5999 23.4001ZM35.7999 23.5001H35.5999L35.5 24.1001H35.7999V23.5001ZM38.0999 23.5001H35.7999V24.1001H38.0999V23.5001ZM38.0999 23.8001H37.7999V24.1001H38.0999V23.8001ZM38.0999 23.8001H38.4V23.5001H38.0999V23.8001Z" fill="white"/>
<path d="M38.0999 23.8H35.4999C35.0999 23.7 34.8999 23.4 34.8999 22.9C34.8999 22.4 35.0999 22.1 35.4999 22H40.3999C40.7999 22 41.0999 22.3 41.0999 22.7C41.1999 23.3 40.8999 23.8 40.3999 23.8C39.6999 23.8 38.8999 23.8 38.0999 23.8Z" fill="white"/>
<path d="M40.5 40.2999H38.0999V40.8999H40.5V40.2999ZM40.9 39.4999C40.9 39.7999 40.8999 39.9999 40.7999 40.0999C40.6999 40.1999 40.6 40.2999 40.5 40.2999V40.8999C40.9 40.8999 41.1999 40.6999 41.2999 40.3999C41.4999 40.0999 41.5 39.7999 41.5 39.3999L40.9 39.4999ZM40.5 38.9999C40.6 38.9999 40.6999 38.9999 40.7999 39.0999C40.8999 39.1999 40.9 39.2999 40.9 39.4999L41.5 39.3999C41.5 39.0999 41.4 38.8999 41.2 38.6999C41 38.4999 40.7 38.3999 40.5 38.3999V38.9999ZM35.7 38.9999H40.4V38.3999H35.7V38.9999ZM35.5999 38.9999H35.7V38.3999H35.5L35.5999 38.9999ZM35.2999 39.5999C35.2999 39.1999 35.4999 38.9999 35.5999 38.9999L35.5 38.3999C34.9 38.4999 34.7 38.9999 34.7 39.5999H35.2999ZM35.5999 40.2999C35.4999 40.2999 35.2999 40.0999 35.2999 39.6999H34.7C34.7 40.2999 34.9 40.7999 35.5 40.8999L35.5999 40.2999ZM35.7999 40.2999H35.5999L35.5 40.8999H35.7999V40.2999ZM38.0999 40.2999H35.7999V40.8999H38.0999V40.2999ZM38.0999 40.5999H37.7999V40.8999H38.0999V40.5999ZM38.0999 40.5999H38.4V40.2999H38.0999V40.5999Z" fill="white"/>
<path d="M38.0999 40.6H35.4999C35.0999 40.5 34.8999 40.2001 34.8999 39.7001C34.8999 39.2001 35.0999 38.9 35.4999 38.8H40.3999C40.7999 38.8 41.0999 39.1 41.0999 39.5C41.1999 40.1 40.8999 40.6 40.3999 40.6C39.6999 40.6 38.8999 40.6 38.0999 40.6Z" fill="white"/>
</g>
<defs>
<clipPath id="clip0_1057_7938">
<rect width="56" height="56" fill="white" transform="translate(2 2)"/>
</clipPath>
</defs>
</svg>
