<svg width="60" height="60" viewBox="0 0 60 60" fill="none" xmlns="http://www.w3.org/2000/svg">
<circle cx="30" cy="30" r="27" fill="#F8D512"/>
<path d="M34.0953 47.4193L34.1199 47.4545C34.1478 47.4415 34.1763 47.4286 34.2052 47.4155C34.2756 47.3836 34.3479 47.3509 34.417 47.3147L34.4171 47.3147C34.8893 47.0662 35.0872 46.6517 35.0931 46.1418C35.0975 45.7622 35.0964 45.3824 35.0954 44.9897C35.0949 44.8338 35.0945 44.6758 35.0944 44.515C35.3487 44.5515 35.5906 44.5865 35.8302 44.6211L36.0255 44.6493L36.0255 44.6493C36.092 44.6589 36.1587 44.6692 36.2258 44.6797L34.0953 47.4193ZM34.0953 47.4193V47.4594H33.5705H33.5594L33.549 47.4554C33.5273 47.4471 33.501 47.4351 33.4837 47.4279C33.4638 47.4197 33.4469 47.4138 33.431 47.4108C32.6763 47.2754 31.9219 47.1392 31.1674 47.003C28.9836 46.6088 26.8001 46.2146 24.6126 45.8407C23.7941 45.7008 23.174 45.0489 23.191 44.1328C23.2154 42.8311 23.2072 41.5286 23.199 40.2255C23.1973 39.9512 23.1955 39.6769 23.1941 39.4026C23.1935 39.3012 23.1497 39.1758 23.0862 39.1081M34.0953 47.4193L37.4887 44.6989C38.6798 44.3979 39.4756 43.3723 39.4872 42.0897C39.492 41.5759 39.4908 41.0616 39.4896 40.5478C39.489 40.3168 39.4885 40.0859 39.4885 39.8552V39.8547V39.8542V39.8537V39.8532V39.8527V39.8522V39.8517V39.8512V39.8506V39.8501V39.8496V39.8491V39.8486V39.8481V39.8476V39.8471V39.8466V39.8461V39.8456V39.8451V39.8446V39.8441V39.8436V39.843V39.8425V39.842V39.8415V39.841V39.8405V39.84V39.8395V39.839V39.8385V39.838V39.8375V39.837V39.8365V39.836V39.8354V39.8349V39.8344V39.8339V39.8334V39.8329V39.8324V39.8319V39.8314V39.8309V39.8304V39.8299V39.8294V39.8289V39.8283V39.8278V39.8273V39.8268V39.8263V39.8258V39.8253V39.8248V39.8243V39.8238V39.8233V39.8228V39.8223V39.8218V39.8212V39.8207V39.8202V39.8197V39.8192V39.8187V39.8182V39.8177V39.8172V39.8167V39.8162V39.8157V39.8152V39.8146V39.8141V39.8136V39.8131V39.8126V39.8121V39.8116V39.8111V39.8106V39.8101V39.8096V39.8091V39.8086V39.808V39.8075V39.807V39.8065V39.806V39.8055V39.805V39.8045V39.804V39.8035V39.803V39.8025V39.8019V39.8014V39.8009V39.8004V39.7999V39.7994V39.7989V39.7984V39.7979V39.7974V39.7969V39.7963V39.7958V39.7953V39.7948V39.7943V39.7938V39.7933V39.7928V39.7923V39.7918V39.7913V39.7908V39.7902V39.7897V39.7892V39.7887V39.7882V39.7877V39.7872V39.7867V39.7862V39.7857V39.7851V39.7846V39.7841V39.7836V39.7831V39.7826V39.7821V39.7816V39.7811V39.7806V39.7801V39.7795V39.779V39.7785V39.778V39.7775V39.777V39.7765V39.776V39.7755V39.775V39.7744V39.7739V39.7734V39.7729V39.7724V39.7719V39.7714V39.7709V39.7704V39.7698V39.7693V39.7688V39.7683V39.7678V39.7673V39.7668V39.7663V39.7658V39.7652V39.7647V39.7642V39.7637V39.7632V39.7627V39.7622V39.7617V39.7612V39.7606V39.7601V39.7596V39.7591V39.7586V39.7581V39.7576V39.7571V39.7566V39.756V39.7555V39.755V39.7545V39.754V39.7535V39.753V39.7525V39.7519V39.7514V39.7509V39.7504V39.7499V39.7494V39.7489V39.7484V39.7479V39.7473V39.7468V39.7463V39.7458V39.7453V39.7448V39.7443V39.7437V39.7432V39.7427V39.7422V39.7417V39.7412V39.7407V39.7402V39.7396V39.7391V39.7386V39.7381V39.7376V39.7371V39.7366V39.7361V39.7355V39.735V39.7345V39.734V39.7335V39.733V39.7325V39.7319V39.7314V39.7309V39.7304V39.7299V39.7294V39.7289V39.7283V39.7278V39.7273V39.7268V39.7263V39.7258V39.7253V39.7247V39.7242V39.7237V39.7232V39.7227V39.7222V39.7217V39.7211V39.7206V39.7201V39.7196V39.7191V39.7186V39.7181V39.7175V39.717V39.7165V39.716V39.7155V39.715V39.7144V39.7139V39.7134V39.7129V39.7124V39.7119V39.7113V39.7108V39.7103V39.7098V39.7093V39.7088V39.7083V39.7077V39.7072V39.7067V39.7062V39.7057V39.7052V39.7046V39.7041V39.7036V39.7031V39.7026V39.7021V39.7015V39.701V39.7005V39.7V39.6995V39.699V39.6984V39.6979V39.6974V39.6969V39.6964V39.6958V39.6953V39.6948V39.6943V39.6938V39.6933V39.6927V39.6922V39.6917V39.6912V39.6907V39.6901V39.6896V39.6891V39.6886V39.6881V39.6876V39.687V39.6865V39.686V39.6855V39.685V39.6844V39.6839V39.6834V39.6829V39.6824V39.6819V39.6813V39.6808V39.6803V39.6798V39.6793V39.6787V39.6782V39.6777V39.6772V39.6767V39.6761V39.6756V39.6751V39.6746V39.6741V39.6735V39.673V39.6725V39.672V39.6715V39.6709V39.6704V39.6699V39.6694V39.6688V39.6683V39.6678V39.6673V39.6668V39.6662V39.6657V39.6652V39.6647V39.6642V39.6636V39.6631V39.6626V39.6621V39.6616V39.661V39.6605V39.66V39.6595V39.6589V39.6584V39.6579V39.6574V39.6569V39.6563V39.6558V39.6553V39.6548V39.6542V39.6537V39.6532V39.6527V39.6521V39.6516V39.6511V39.6506V39.6501V39.6495V39.649V39.6485V39.648V39.6474V39.6469V39.6464V39.6459V39.6453V39.6448V39.6443V39.644C39.5457 39.6372 39.603 39.6313 39.6602 39.6254C39.8227 39.6087 39.984 39.5921 40.1375 39.5553L40.1375 39.5553C40.7078 39.4183 41.1209 39.0769 41.3223 38.6257C41.5235 38.1748 41.5101 37.6214 41.2422 37.0654L41.2422 37.0654C40.7736 36.0936 40.2711 35.138 39.7555 34.1911L39.7555 34.191C39.5581 33.8286 39.4711 33.4714 39.4834 33.0604C39.5233 31.7265 39.3911 30.4112 38.9267 29.143L38.8703 29.1636L38.9267 29.143C38.081 26.8339 36.5867 25.0833 34.4414 23.9062L34.4414 23.9062C32.912 23.0677 31.2682 22.6737 29.5289 22.7492L29.5289 22.7492C27.2787 22.8476 25.2947 23.6475 23.596 25.1429C22.2702 26.31 21.3403 27.7453 20.8003 29.4279L20.8003 29.4279C20.3466 30.8435 20.2227 32.2923 20.4532 33.7691C20.7742 35.8287 21.6628 37.6011 23.0862 39.1081M23.0862 39.1081L23.1299 39.0669M23.0862 39.1081C23.0862 39.1081 23.0862 39.108 23.0861 39.108L23.1299 39.0669M23.1299 39.0669C21.7146 37.5685 20.8316 35.8071 20.5124 33.7599L31.1783 46.944C28.9944 46.5497 26.8105 46.1555 24.6227 45.7816C23.8312 45.6463 23.2346 45.0181 23.251 44.1339C23.2754 42.8314 23.2672 41.5281 23.259 40.225C23.2573 39.9507 23.2555 39.6765 23.2541 39.4023C23.2535 39.2886 23.2055 39.1476 23.1299 39.0669ZM33.6146 45.9081C33.5999 45.9066 33.5861 45.9053 33.5731 45.9041C33.5154 45.8985 33.4724 45.8944 33.4286 45.8864L33.4284 45.8864C32.6954 45.7556 31.9624 45.6245 31.2294 45.4935C29.132 45.1184 27.0344 44.7433 24.9358 44.3752C24.8192 44.3548 24.7591 44.3266 24.7253 44.287C24.6918 44.2478 24.6736 44.185 24.6745 44.067L24.6745 44.0669C24.6798 43.1926 24.6797 42.3166 24.6796 41.4407C24.6796 40.6499 24.6795 39.8591 24.6834 39.0698C24.6834 39.0698 24.6834 39.0698 24.6834 39.0698L33.6146 45.9081ZM33.6146 45.9081V45.9064V45.9028V45.8992V45.8956V45.892V45.8884V45.8849V45.8813V45.8777V45.8741V45.8705V45.8669V45.8634V45.8598V45.8562V45.8526V45.849V45.8454V45.8419V45.8383V45.8347V45.8311V45.8276V45.824V45.8204V45.8168V45.8132V45.8097V45.8061V45.8025V45.7989V45.7954V45.7918V45.7882V45.7847V45.7811V45.7775V45.7739V45.7704V45.7668V45.7632V45.7597V45.7561V45.7525V45.749V45.7454V45.7418V45.7383V45.7347V45.7311V45.7276V45.724V45.7204V45.7169V45.7133V45.7097V45.7062V45.7026V45.6991V45.6955V45.6919V45.6884V45.6848V45.6813V45.6777V45.6741V45.6706V45.667V45.6635V45.6599V45.6564V45.6528V45.6493V45.6457V45.6421V45.6386V45.635V45.6315V45.6279V45.6244V45.6208V45.6173V45.6137V45.6102V45.6066V45.6031V45.5995V45.596V45.5924V45.5889V45.5853V45.5818V45.5782V45.5747V45.5712V45.5676V45.5641V45.5605V45.557V45.5534V45.5499V45.5464V45.5428V45.5393V45.5357V45.5322V45.5286V45.5251V45.5216V45.518V45.5145V45.5109V45.5074V45.5039V45.5003V45.4968V45.4933V45.4897V45.4862V45.4827V45.4791V45.4756V45.4721V45.4685V45.465V45.4615V45.4579V45.4544V45.4509V45.4473V45.4438V45.4403V45.4367V45.4332V45.4297V45.4261V45.4226V45.4191V45.4156V45.412V45.4085V45.405V45.4014V45.3979V45.3944V45.3909V45.3873V45.3838V45.3803V45.3768V45.3732V45.3697V45.3662V45.3627V45.3592V45.3556V45.3521V45.3486V45.3451V45.3416V45.338V45.3345V45.331V45.3275V45.324V45.3204V45.3169V45.3134V45.3099V45.3064V45.3028V45.2993V45.2958V45.2923V45.2888V45.2853V45.2818V45.2782V45.2747V45.2712V45.2677V45.2642V45.2607V45.2572V45.2536V45.2501V45.2466V45.2431V45.2396V45.2361V45.2326V45.2291V45.2256V45.2221V45.2185V45.215V45.2115V45.208V45.2045V45.201V45.1975V45.194V45.1905V45.187V45.1835V45.18V45.1765V45.173V45.1694V45.1659V45.1624V45.1589V45.1554V45.1519V45.1484V45.1449V45.1414V45.1379V45.1344V45.1309V45.1274V45.1239V45.1204V45.1169V45.1134V45.1099V45.1064V45.1029V45.0994V45.0959V45.0924V45.0889V45.0854V45.0819V45.0784V45.0749V45.0714V45.0679V45.0644V45.0609V45.0574V45.0539V45.0504V45.047V45.0435V45.04V45.0365V45.033V45.0295V45.026V45.0225V45.019V45.0155V45.012V45.0085V45.005V45.0015V44.998V44.9946V44.9911V44.9876V44.9841V44.9806V44.9771V44.9736V44.9701V44.9666V44.9631V44.9597V44.9562V44.9527V44.9492V44.9457V44.9422V44.9387V44.9352V44.9317V44.9283V44.9248V44.9213V44.9178V44.9143V44.9108V44.9073V44.9039V44.9004V44.8969V44.8934V44.8899V44.8864V44.8829V44.8795V44.876V44.8725V44.869V44.8655V44.862V44.8586V44.8551V44.8516V44.8481V44.8446V44.8411V44.8377V44.8342V44.8307V44.8272V44.8237V44.8203V44.8168V44.8133V44.8098V44.8063V44.8029V44.7994V44.7959V44.7924V44.7889V44.7855V44.782V44.7785V44.775V44.7715V44.7681V44.7646V44.7611V44.7576V44.7542V44.7507V44.7472V44.7437V44.7402V44.7368V44.7333V44.7298V44.7263V44.7229V44.7194V44.7159V44.7124V44.709V44.7055V44.702V44.6985V44.6951V44.6916V44.6881V44.6846V44.6812V44.6777V44.6742V44.6707V44.6673V44.6638V44.6603V44.6568V44.6534V44.6499V44.6464V44.643V44.6395V44.636V44.6325V44.6291V44.6256V44.6221V44.6187V44.6152V44.6117V44.6082V44.6048V44.6013V44.5978V44.5943V44.5909V44.5874V44.5839V44.5805V44.577V44.5735V44.5701V44.5666V44.5631V44.5596V44.5562V44.5527V44.5492V44.5458V44.5423V44.5388V44.5354V44.5319V44.5284V44.525V44.5215V44.518V44.5145V44.5111V44.5076V44.5041V44.5007V44.4972V44.4937V44.4903V44.4868V44.4833V44.4799V44.4764V44.4729V44.4695V44.466V44.4625V44.4591V44.4556V44.4521V44.4487V44.4452V44.4417V44.4383V44.4348V44.4313V44.4279V44.4244V44.4209V44.4175V44.414V44.4105V44.4071V44.4036V44.4001V44.3967V44.3932V44.3897V44.3863V44.3828V44.3793V44.3759V44.3724V44.3689V44.3655V44.362V44.3585V44.3551V44.3516V44.3481V44.3447V44.3412V44.3377V44.3343V44.3308V44.3273V44.3239V44.3204V44.3169V44.3135V44.31V44.3065V44.3031V44.2996V44.2961V44.2927V44.2892V44.2858V44.2823V44.2788V44.2754V44.2719V44.2684V44.265V44.2615V44.258V44.2546V44.2511V44.2476V44.2442V44.2407V44.2372V44.2338V44.2303V44.2268V44.2234V44.2199V44.2165V44.213V44.2095V44.2061V44.2026V44.1991V44.1957V44.1922V44.1887V44.1853V44.1818L33.6146 44.1783L33.6146 44.1781C33.6148 44.1259 33.6143 44.073 33.6139 44.0196C33.6128 43.8964 33.6118 43.7708 33.6185 43.6466C33.6322 43.3903 33.7339 43.1818 33.9011 43.0477C34.0682 42.9136 34.2943 42.8589 34.5471 42.8975C35.3165 43.0151 36.0864 43.1319 36.8563 43.2443C37.1236 43.2832 37.4043 43.1821 37.6215 42.9931C37.8384 42.8044 37.9865 42.5324 37.9936 42.2376C38.0103 41.5403 38.0095 40.8429 38.0087 40.1444C38.0083 39.818 38.0079 39.4914 38.0093 39.1645C38.0094 39.1506 38.0094 39.1366 38.0095 39.1225C38.0098 39.0009 38.0101 38.873 38.0289 38.7487M33.6146 45.9081L39.2227 38.1124C39.0616 38.1116 38.8992 38.1107 38.7385 38.1158L38.7384 38.1158C38.36 38.1282 38.0849 38.3733 38.0289 38.7487M38.0289 38.7487C38.0289 38.7487 38.0289 38.7487 38.0289 38.7487L38.0882 38.7576L38.0289 38.7486C38.0289 38.7486 38.0289 38.7487 38.0289 38.7487ZM39.5269 38.1126C39.6556 38.1112 39.7536 38.1005 39.825 38.0801C39.8964 38.0597 39.9343 38.0316 39.9535 38.0005C39.9726 37.9696 39.9804 37.9239 39.9658 37.8522C39.9512 37.7803 39.9153 37.6893 39.8564 37.5751C39.3103 36.5182 38.7617 35.4627 38.2049 34.4117L38.2048 34.4116C38.0622 34.1408 37.9928 33.8668 37.9955 33.558C37.9955 33.558 37.9955 33.558 37.9955 33.558L38.0555 33.5585C38.056 33.4934 38.0566 33.4284 38.0572 33.3633C38.0659 32.4363 38.0746 31.5105 37.8713 30.5941L39.5269 38.1126ZM39.5269 38.1126C39.5269 38.1126 39.5269 38.1126 39.5269 38.1126L39.5275 38.1726L39.5269 38.1126Z" fill="white" stroke="white" stroke-width="0.12"/>
<path d="M13.2002 30.0648C13.4628 29.5494 13.9144 29.3866 14.5271 29.4007C15.7441 29.4284 16.9628 29.4015 18.1807 29.4127C18.9139 29.4194 19.3878 30.0327 19.1286 30.6228C18.9725 30.9783 18.6678 31.1882 18.2459 31.192C16.8852 31.2039 15.5253 31.2002 14.1646 31.195C13.6741 31.1927 13.4083 30.8977 13.2002 30.5429V30.0655V30.0648Z" fill="white"/>
<path d="M31.1977 16.2181C31.1977 16.8561 31.2014 17.4933 31.1969 18.1313C31.1924 18.7527 30.825 19.1916 30.3136 19.1998C29.7902 19.2089 29.4055 18.7643 29.4033 18.128C29.3988 16.8412 29.3988 15.5554 29.4033 14.2686C29.4055 13.6472 29.7745 13.2084 30.2866 13.2001C30.81 13.191 31.1924 13.6356 31.1977 14.2719C31.2022 14.9207 31.1984 15.5694 31.1984 16.2181H31.1977Z" fill="white"/>
<path d="M43.8209 29.4012C44.4588 29.4012 45.0967 29.3974 45.7346 29.4027C46.3552 29.4079 46.7931 29.7769 46.7997 30.2891C46.8063 30.8126 46.3626 31.1943 45.7247 31.1965C44.4381 31.201 43.1516 31.201 41.865 31.1965C41.2453 31.1943 40.8065 30.8223 40.7999 30.3101C40.7933 29.7867 41.237 29.4072 41.8749 29.4027C42.5236 29.3982 43.1722 29.4019 43.8209 29.4019V29.4012Z" fill="white"/>
<path d="M22.8 21.6781C22.7611 22.212 22.5823 22.5273 22.2056 22.6992C21.8298 22.871 21.4639 22.8251 21.1592 22.5465C20.7925 22.2112 20.4489 21.8499 20.0987 21.4971C19.4977 20.8939 18.895 20.2925 18.3015 19.6818C18.0167 19.389 17.9248 19.0311 18.0639 18.6382C18.1972 18.2611 18.4786 17.9975 18.8686 18C19.1417 18.0017 19.4853 18.0901 19.6749 18.2703C20.6426 19.193 21.5789 20.1506 22.5053 21.115C22.6692 21.286 22.7363 21.5505 22.8 21.6773V21.6781Z" fill="white"/>
<path d="M38.3344 22.8C37.8194 22.7727 37.5075 22.6103 37.3243 22.2549C37.1352 21.8887 37.1584 21.5208 37.4205 21.2019C37.6294 20.9467 37.8749 20.7214 38.108 20.4877C38.8245 19.7695 39.5411 19.0512 40.2618 18.3362C40.5578 18.0421 40.9111 17.9178 41.32 18.057C41.6957 18.1854 41.9205 18.4563 41.986 18.849C42.0407 19.1779 41.9354 19.4646 41.7065 19.6949C40.7735 20.6336 39.8413 21.5739 38.8909 22.4943C38.72 22.6592 38.4613 22.7329 38.3344 22.8Z" fill="white"/>
</svg>
