<svg width="50" height="50" viewBox="0 0 50 50" fill="none" xmlns="http://www.w3.org/2000/svg">
<g clip-path="url(#clip0_551_8606)">
<path d="M40.4636 22.2339C40.4636 15.2208 33.9763 9.59278 26.1901 10.0891C19.575 10.5108 14.241 15.4414 13.8471 21.4943C13.6342 24.79 14.8585 27.823 16.9985 30.1196C19.9831 33.3212 21.7327 37.3338 21.7327 41.541C21.7327 42.352 22.4496 43.0072 23.3368 43.0072H30.8994C31.815 43.0072 32.5567 42.3293 32.5567 41.4924C32.5567 37.3046 34.3063 33.3147 37.2838 30.1293C39.2677 28.0046 40.4636 25.2474 40.4636 22.2371V22.2339Z" fill="#FCF1B0"/>
<path d="M28.7525 43.8729H21.1898C19.7845 43.8729 18.6382 42.8284 18.6382 41.5406C18.6382 37.6545 17.0376 33.7976 14.1311 30.6803C11.7356 28.1112 10.5361 24.8285 10.7562 21.442C11.1785 14.9316 16.8602 9.67993 23.9757 9.2258C24.3128 9.20309 24.6571 9.19336 24.9942 9.19336C32.8621 9.19336 39.2607 15.0419 39.2607 22.2335C39.2607 25.3313 38.0505 28.335 35.8537 30.6868C32.9508 33.7944 31.3538 37.6318 31.3538 41.4887C31.3538 42.8024 30.1862 43.8696 28.7489 43.8696L28.7525 43.8729ZM24.9978 10.9256C24.7032 10.9256 24.4051 10.9353 24.1105 10.9547C17.9391 11.3472 13.0132 15.9015 12.6477 21.5458C12.4561 24.4847 13.4959 27.3327 15.5755 29.5612C18.773 32.9932 20.5333 37.2458 20.5333 41.5438C20.5333 41.8747 20.8278 42.1439 21.1898 42.1439H28.7525C29.1464 42.1439 29.4658 41.852 29.4658 41.4919C29.4658 37.2231 31.226 32.9867 34.42 29.5677C36.3257 27.5273 37.3762 24.9226 37.3762 22.2367C37.3762 15.9989 31.8258 10.9256 25.0013 10.9256H24.9978Z" fill="black"/>
<path d="M27.358 50H23.1917C21.5663 50 20.2461 48.7934 20.2461 47.3077V42.1436H30.3036V47.3077C30.3036 48.7934 28.9834 50 27.358 50ZM22.1376 43.8725V47.3077C22.1376 47.8397 22.6096 48.2711 23.1917 48.2711H27.358C27.94 48.2711 28.412 47.8397 28.412 47.3077V43.8725H22.1376Z" fill="black"/>
<path d="M24.998 31.9515L18.248 27.2188L19.4014 25.8467L24.998 29.7717L30.5981 25.8467L31.7479 27.2188L24.998 31.9515Z" fill="black"/>
<path d="M25.9453 30.8613H24.0537V43.0061H25.9453V30.8613Z" fill="black"/>
<path d="M8.06658 21.9863H0V23.7153H8.06658V21.9863Z" fill="black"/>
<path d="M50.0002 21.9863H41.9336V23.7153H50.0002V21.9863Z" fill="black"/>
<path d="M7.99085 6.08214L6.65332 7.30469L12.3573 12.5183L13.6948 11.2958L7.99085 6.08214Z" fill="black"/>
<path d="M37.6412 33.1808L36.3037 34.4033L42.0076 39.6169L43.3452 38.3944L37.6412 33.1808Z" fill="black"/>
<path d="M25.9462 0H24.0547V7.37317H25.9462V0Z" fill="black"/>
<path d="M42.0037 6.07942L36.3008 11.2939L37.6385 12.5163L43.3415 7.30176L42.0037 6.07942Z" fill="black"/>
<path d="M12.3563 33.18L6.65332 38.3945L7.99108 39.6169L13.694 34.4023L12.3563 33.18Z" fill="black"/>
</g>
<defs>
<clipPath id="clip0_551_8606">
<rect width="50" height="50" fill="white"/>
</clipPath>
</defs>
</svg>
