<svg width="61" height="60" viewBox="0 0 61 60" fill="none" xmlns="http://www.w3.org/2000/svg">
<circle cx="30.4375" cy="29.979" r="26.4" fill="white" stroke="black" stroke-width="1.2"/>
<path d="M19.2334 13.2009C19.8851 13.2871 20.5397 13.3557 21.1877 13.4614C23.6946 13.8693 25.9892 14.7705 27.9482 16.4272C28.9281 17.257 29.7829 18.2036 30.3958 19.3374C30.9372 20.3387 30.939 21.3817 30.4393 22.4071C30.2725 22.7492 30.2539 23.0774 30.291 23.4538C30.3781 24.3364 30.4226 25.2255 30.4356 26.1118C30.4421 26.5475 30.5283 26.9239 30.7685 27.2883C31.4935 28.3897 32.2073 29.4976 32.9101 30.6129C33.5071 31.5595 33.3644 32.6896 32.5198 33.3701C32.1999 33.6279 31.7725 33.7521 31.347 33.9598C31.3627 34.0441 31.4267 34.2138 31.4165 34.3798C31.3933 34.758 31.4211 35.1743 31.2672 35.4988C31.0967 35.8576 31.0586 36.1728 31.1004 36.5529C31.1699 37.1824 30.953 37.7387 30.533 38.218C30.4542 38.307 30.3902 38.4423 30.3856 38.5582C30.2725 41.2506 27.9445 42.9203 25.356 42.1591C25.1984 42.1128 25.0426 42.0553 24.8832 42.0191C24.415 41.9125 23.9885 42.1517 23.9227 42.6245C23.842 43.1975 23.829 43.7806 23.8003 44.361C23.7836 44.7003 23.8142 45.0424 23.7855 45.3799C23.6853 46.5648 22.7267 47.2174 21.5929 46.8651C19.8008 46.3089 18.0133 45.7378 16.2258 45.1685C15.6881 44.9979 15.448 44.5937 15.587 44.1209C15.7196 43.6685 16.1656 43.4719 16.7172 43.6434C17.8279 43.9883 18.9358 44.3443 20.0446 44.6948C20.6407 44.8839 21.2369 45.073 21.8339 45.2603C21.935 45.2918 22.0388 45.3159 22.1871 45.3558C22.1871 44.9469 22.1686 44.577 22.1908 44.2108C22.2307 43.5442 22.2177 42.8609 22.3661 42.2157C22.6952 40.7796 24.084 40.0648 25.5507 40.5321C26.1542 40.724 26.7392 40.8102 27.353 40.5923C28.0919 40.3299 28.6992 39.5734 28.7362 38.7872C28.7668 38.1457 28.8716 37.5514 29.3574 37.0712C29.5781 36.8533 29.541 36.5761 29.3852 36.3109C29.0431 35.7268 29.1154 35.4413 29.6337 35.0158C29.7477 34.9221 29.8293 34.6931 29.807 34.5448C29.7403 34.1127 29.6031 33.6918 29.5113 33.2626C29.388 32.6869 29.7347 32.2641 30.3207 32.2548C30.5738 32.2511 30.8269 32.2641 31.0781 32.2428C31.639 32.1955 31.8077 31.8571 31.5064 31.3852C30.8148 30.3023 30.126 29.2167 29.4167 28.1449C28.9875 27.496 28.8243 26.8071 28.8391 26.0274C28.8549 25.2088 28.7742 24.3855 28.6908 23.5687C28.6315 22.9865 28.6343 22.4321 28.9189 21.9037C29.3379 21.1277 29.248 20.4092 28.7464 19.6823C27.0851 17.2783 24.7599 15.9034 21.9637 15.2479C20.1744 14.828 18.3637 14.6917 16.5308 14.8975C16.3158 14.9216 16.0858 14.929 15.8772 14.8817C15.5481 14.8094 15.3349 14.4859 15.333 14.1447C15.3312 13.7877 15.5175 13.4911 15.8624 13.4011C16.1572 13.3242 16.4678 13.3084 16.771 13.2639C16.91 13.2435 17.0491 13.2213 17.1891 13.2C17.8705 13.2 18.5519 13.2 19.2343 13.2L19.2334 13.2009Z" fill="black"/>
<path d="M43.9278 25.9867C43.9343 26.3473 43.7164 26.5661 43.4494 26.7617C41.0677 28.5084 38.6887 30.2579 36.3079 32.0055C36.1577 32.1158 36.0094 32.2326 35.8471 32.3216C35.4921 32.5172 35.061 32.4273 34.8394 32.1288C34.5918 31.7941 34.6141 31.3834 34.9052 31.0793C34.9877 30.9931 35.0841 30.918 35.1815 30.8466C37.6133 29.0573 40.0442 27.2661 42.4815 25.4851C42.6595 25.3544 42.8839 25.2413 43.0981 25.2153C43.5607 25.1588 43.9204 25.5194 43.9269 25.9867H43.9278Z" fill="black"/>
<path d="M34.6709 39.9387C34.6728 39.2731 35.2513 38.8994 35.7825 39.1423C35.9012 39.1961 36.0115 39.2721 36.1172 39.35C38.5351 41.1579 40.9521 42.9676 43.37 44.7755C43.6611 44.9933 43.9105 45.2297 43.8706 45.6386C43.8168 46.1949 43.2708 46.5175 42.7618 46.2885C42.6626 46.244 42.5708 46.18 42.4836 46.1151C40.0129 44.2674 37.544 42.4169 35.0723 40.571C34.8276 40.3884 34.6802 40.164 34.6709 39.9378V39.9387Z" fill="black"/>
<path d="M40.7018 34.9557C41.932 34.9557 43.1623 34.9575 44.3926 34.9547C44.73 34.9547 45.0239 35.0308 45.214 35.3386C45.4801 35.7678 45.2826 36.3371 44.8033 36.4928C44.6707 36.5364 44.5233 36.5512 44.3824 36.5512C41.9218 36.5549 39.4613 36.554 37.0007 36.5512C36.8709 36.5512 36.7365 36.5373 36.6113 36.503C36.2479 36.4038 36.0291 36.0904 36.0458 35.715C36.0616 35.3469 36.3165 35.0428 36.6827 34.9798C36.8441 34.9529 37.0109 34.9557 37.175 34.9557C38.3506 34.9538 39.5253 34.9547 40.7008 34.9557H40.7018Z" fill="black"/>
</svg>
