<svg width="60" height="60" viewBox="0 0 60 60" fill="none" xmlns="http://www.w3.org/2000/svg">
<circle cx="30" cy="30" r="27" fill="#A72D18"/>
<path d="M20.1179 44.0401H20.1171V43.9529L20.0946 44.037C19.9667 44.0029 19.8358 43.9711 19.7037 43.9391C19.4054 43.8667 19.1011 43.7929 18.8123 43.6863C16.5385 42.8505 15.11 40.5749 15.3023 38.135C15.4908 35.7411 17.2875 33.6934 19.6441 33.2438C21.255 32.9364 22.7308 33.2972 24.0335 34.3172L24.0336 34.3173C24.0614 34.3391 24.0892 34.3607 24.1225 34.3863V34.1769C24.1225 33.2642 24.1225 32.3514 24.1226 31.4386C24.1229 27.1799 24.1233 22.9212 24.1165 18.6625V18.6624C24.1165 18.5245 24.1302 18.4023 24.196 18.3052C24.2637 18.2052 24.374 18.1493 24.5226 18.1116C29.4389 16.8602 34.3538 15.6024 39.2685 14.3445C40.6004 14.0037 41.9323 13.6628 43.2642 13.3221L43.2643 13.322C43.3261 13.3063 43.3901 13.2941 43.4611 13.2804C43.4915 13.2746 43.5232 13.2686 43.5566 13.2619L43.6643 13.2402V13.3501V13.3508V13.3514V13.3521V13.3527V13.3534V13.354V13.3547V13.3553V13.356V13.3566V13.3573V13.3579V13.3586V13.3592V13.3599V13.3605V13.3612V13.3618V13.3625V13.3631V13.3638V13.3644V13.365V13.3657V13.3663V13.367V13.3676V13.3683V13.3689V13.3696V13.3702V13.3709V13.3715V13.3721V13.3728V13.3734V13.3741V13.3747V13.3754V13.376V13.3766V13.3773V13.3779V13.3786V13.3792V13.3798V13.3805V13.3811V13.3818V13.3824V13.383V13.3837V13.3843V13.3849V13.3856V13.3862V13.3869V13.3875V13.3881V13.3888V13.3894V13.39V13.3907V13.3913V13.3919V13.3926V13.3932V13.3938V13.3945V13.3951V13.3957V13.3964V13.397V13.3976V13.3983V13.3989V13.3995V13.4002V13.4008V13.4014V13.402V13.4027V13.4033V13.4039V13.4046V13.4052V13.4058V13.4064V13.4071V13.4077V13.4083V13.4089V13.4096V13.4102V13.4108V13.4115V13.4121V13.4127V13.4133V13.414V13.4146V13.4152V13.4158V13.4164V13.4171V13.4177V13.4183V13.4189V13.4196V13.4202V13.4208V13.4214V13.422V13.4227V13.4233V13.4239V13.4245V13.4252V13.4258V13.4264V13.427V13.4276V13.4282V13.4289V13.4295V13.4301V13.4307V13.4313V13.432V13.4326V13.4332V13.4338V13.4344V13.435V13.4357V13.4363V13.4369V13.4375V13.4381V13.4387V13.4393V13.44V13.4406V13.4412V13.4418V13.4424V13.443V13.4436V13.4442V13.4449V13.4455V13.4461V13.4467V13.4473V13.4479V13.4485V13.4491V13.4497V13.4504V13.451V13.4516V13.4522V13.4528V13.4534V13.454V13.4546V13.4552V13.4558V13.4564V13.4571V13.4577V13.4583V13.4589V13.4595V13.4601V13.4607V13.4613V13.4619V13.4625V13.4631V13.4637V13.4643V13.4649V13.4655V13.4661V13.4667V13.4674V13.468V13.4686V13.4692V13.4698V13.4704V13.471V13.4716V13.4722V13.4728V13.4734V13.474V13.4746V13.4752V13.4758V13.4764V13.477V13.4776V13.4782V13.4788V13.4794V13.48V13.4806V13.4812V13.4818V13.4824V13.483V13.4836V13.4842V13.4848V13.4854V13.486V13.4866V13.4872V13.4878V13.4884V13.489V13.4896V13.4902V13.4908V13.4914V13.492V13.4925V13.4931V13.4937V13.4943V13.4949V13.4955V13.4961V13.4967V13.4973V13.4979V13.4985V13.4991V13.4997V13.5003V13.5009V13.5015V13.5021V13.5027V13.5032V13.5038V13.5044V13.505V13.5056V13.5062V13.5068V13.5074V13.508V13.5086V13.5092V13.5098V13.5103V13.5109V13.5115V13.5121V13.5127V13.5133V13.5139V13.5145V13.5151V13.5157V13.5162V13.5168V13.5174V13.518V13.5186V13.5192V13.5198V13.5204V13.521V13.5215V13.5221V13.5227V13.5233V13.5239V13.5245V13.5251V13.5257V13.5262V13.5268V13.5274V13.528V13.5286V13.5292V13.5298V13.5303V13.5309V13.5315V13.5321V13.5327V13.5333V13.5339V13.5344V13.535V13.5356V13.5362V13.5368V13.5374V13.5379V13.5385V13.5391V13.5397V13.5403V13.5409V13.5414V13.542V13.5426V13.5432V13.5438V13.5444V13.5449V13.5455V13.5461V13.5467V13.5473V13.5479V13.5484V13.549V13.5496V13.5502V13.5508V13.5513V13.5519V13.5525V13.5531V13.5537V13.5542V13.5548V13.5554V13.556V13.5566V13.5571V13.5577V13.5583V13.5589V13.5595V13.56V13.5606V13.5612V13.5618V13.5624V13.5629V13.5635V13.5641V13.5647V13.5653V13.5658V13.5664V13.567V13.5676V13.5681V13.5687V13.5693V13.5699V13.5705V13.571V13.5716V13.5722V13.5728V13.5733V13.5739V13.5745V13.5751V13.5757V13.5762V13.5768V13.5774V13.578V13.5785V13.5791V13.5797V13.5803V13.5808V13.5814V13.582V13.5826V13.5831V13.5837V13.5843V13.5849V13.5854V13.586V13.5866V13.5872V13.5877V13.5883V13.5889V13.5895V13.59V13.5906V13.5912V13.5918V13.5923V13.5929V13.5935V13.5941V13.5946V13.5952V13.5958V13.5964V13.5969V13.5975V13.5981V13.5987V13.5992V13.5998V13.6004V13.6009V13.6015V13.6021V13.6027V13.6032V13.6038V13.6044V13.605V13.6055V13.6061V13.6067V13.6073V13.6078V13.6084V13.609V13.6095V13.6101V13.6107V13.6113V13.6118V13.6124V13.613V13.6135V13.6141V13.6147V13.6153V13.6158V13.6164V13.617V13.6176V13.6181V13.6187V13.6193V13.6198V13.6204V13.621V13.6216V13.6221V13.6227V13.6233V13.6238V13.6244V13.625V13.6256V13.6261V13.6267V13.6273V13.6278V13.6284V13.629V13.6296V13.6301V13.6307V13.6313V13.6318V13.6324V13.633V13.6336V13.6341V13.6347V13.6353V13.6358V13.6364V13.637V13.6375V13.6381V13.6387V13.6393V13.6398V13.6404V13.641V13.6415V13.6421V13.6427V13.6433V13.6438V13.6444V13.645V13.6455V13.6461V13.6467V13.6472V13.6478V13.6484V13.649V13.6495V13.6501V13.6507V13.6512V13.6518V13.6524V13.653V13.6535V13.6541V13.6547V13.6552V13.6558V13.6564C43.6643 15.5184 43.6645 17.3803 43.6647 19.2423C43.6651 24.2061 43.6656 29.1698 43.6629 34.1336C43.6614 36.5974 42.2759 38.5961 40.0127 39.4181C40.0126 39.4181 40.0126 39.4181 40.0126 39.4181M20.1179 44.0401L37.0994 29.0429C34.3155 29.7026 32.6398 32.2217 33.0255 35.0928C33.4595 38.3225 36.9347 40.441 39.9819 39.3335L40.0126 39.4181M20.1179 44.0401H21.2424H21.255L21.2671 44.0366C21.2965 44.0283 21.3223 44.0199 21.3464 44.0121C21.3928 43.9972 21.4324 43.9844 21.4774 43.9777L21.4778 43.9777C22.1476 43.8751 22.787 43.6672 23.3694 43.3094L23.3695 43.3094C25.1683 42.2034 26.0782 40.5755 26.0805 38.45C26.0857 34.2548 26.085 30.0597 26.0753 25.8646V25.8645C26.075 25.7287 26.0938 25.6574 26.1282 25.6117C26.1622 25.5666 26.2242 25.5293 26.3554 25.4959C29.9788 24.5781 33.6007 23.651 37.2222 22.7241C37.9943 22.5265 38.7663 22.3289 39.5383 22.1314C40.2525 21.9492 40.9659 21.7663 41.6818 21.5828M20.1179 44.0401L41.6818 21.5828M40.0126 39.4181C36.9109 40.5454 33.3778 38.3909 32.9363 35.1048C32.5447 32.1897 34.2479 29.6261 37.0786 28.9553L37.0786 28.9553C38.7173 28.5674 40.2236 28.9383 41.5673 29.9558C41.6047 29.9842 41.6418 30.0135 41.6818 30.0456M40.0126 39.4181L41.6818 30.0456M41.6818 30.0456V21.5828M41.6818 30.0456V21.5828M17.2467 38.5517L17.2467 38.5517C17.2619 36.6441 18.8137 35.1067 20.7069 35.1199C22.6183 35.1337 24.1383 36.6925 24.1202 38.6242C24.1029 40.5337 22.5529 42.0738 20.6643 42.0629C18.7702 42.0519 17.2308 40.4732 17.2467 38.5517ZM38.2355 37.7368V37.7368H38.2337C36.2825 37.6939 34.7893 36.1236 34.832 34.1572C34.8725 32.2855 36.4549 30.7477 38.2947 30.7855C40.2384 30.825 41.7475 32.4097 41.7026 34.3666L41.7926 34.3686L41.7026 34.3666C41.66 36.2346 40.0708 37.7769 38.2355 37.7368ZM26.0968 23.5308V19.7582C27.8532 19.3086 29.6102 18.8589 31.369 18.4087C34.8007 17.5303 38.2396 16.6501 41.6952 15.7657V19.5391C39.748 20.0374 37.7998 20.5359 35.8498 21.0349C32.6053 21.8651 29.3555 22.6967 26.0968 23.5308Z" fill="white" stroke="white" stroke-width="0.18"/>
</svg>
