<svg width="60" height="60" viewBox="0 0 60 60" fill="none" xmlns="http://www.w3.org/2000/svg">
<circle cx="30" cy="30" r="27" fill="#5185F7"/>
<path d="M29.9012 45.1478C29.8424 45.1272 29.7854 45.0988 29.7257 45.0859C27.9273 44.6906 26.9169 42.8559 27.5754 41.1183C28.1445 39.6162 28.7511 38.1286 29.3568 36.6411C29.4497 36.4134 29.4344 36.2896 29.235 36.1375C28.5901 35.6468 27.9605 35.1355 27.302 34.6139C27.0362 35.065 26.7772 35.4938 26.5293 35.9304C25.9065 37.0261 24.9745 37.5537 23.7196 37.5486C21.0999 37.5374 18.4802 37.5511 15.8605 37.5425C14.1498 37.5365 12.86 36.1839 12.9008 34.4643C12.9383 32.9141 14.2248 31.6336 15.8034 31.619C17.848 31.601 19.8927 31.613 21.9373 31.6147C22.1026 31.6147 22.2253 31.6044 22.3267 31.4257C23.7894 28.8339 25.2616 26.2472 26.7312 23.6597C26.7516 23.6236 26.7661 23.5841 26.8095 23.4895C26.3171 23.4895 25.8571 23.4784 25.3987 23.5007C25.3195 23.5042 25.2275 23.6399 25.1755 23.7336C24.6405 24.6978 24.1396 25.6826 23.5756 26.6288C22.9264 27.7176 21.9228 28.2091 20.6824 28.0484C19.4556 27.8894 18.6267 27.1641 18.2484 25.9662C18.0167 25.2306 18.0627 24.4898 18.4265 23.8084C19.2938 22.1842 20.1619 20.5592 21.0794 18.9633C21.6204 18.0223 22.4945 17.5609 23.5799 17.5583C25.8051 17.5523 28.0312 17.5566 30.2573 17.5566C30.3826 17.5566 30.5078 17.5566 30.656 17.5566C30.4592 16.6448 30.4643 15.7708 30.8017 14.9295C31.3964 13.4437 32.4843 12.5414 34.0408 12.2157C34.1106 12.2011 34.1788 12.1727 34.2469 12.1504C34.609 12.1504 34.9711 12.1504 35.3332 12.1504C35.3911 12.1719 35.4473 12.202 35.5069 12.2123C37.4289 12.5586 38.913 14.1888 39.0357 16.0914C39.1686 18.1461 37.958 19.9507 36.0377 20.5549C35.8818 20.6038 35.7233 20.6442 35.5334 20.6984C36.151 21.6505 36.7482 22.5726 37.3531 23.5059C37.4664 23.4483 37.561 23.4028 37.653 23.3521C38.3984 22.9387 39.1277 22.4918 39.8927 22.1189C40.9781 21.5895 42.0362 21.7236 42.981 22.4669C44.5903 23.7327 44.4412 26.2567 42.6785 27.3042C41.1127 28.2349 39.5093 29.1028 37.9171 29.9897C36.4245 30.8207 34.8067 30.4108 33.8704 28.9774C33.608 28.5752 33.3464 28.1713 33.0636 27.7373C32.5388 28.6414 32.0311 29.5162 31.5165 30.4013C31.6392 30.501 31.7371 30.5826 31.8368 30.6617C32.8395 31.4592 33.8482 32.2498 34.8441 33.0559C35.8401 33.8611 36.2439 35.1673 35.7872 36.3549C34.8765 38.7233 33.9317 41.0779 32.9716 43.4265C32.6283 44.267 31.9637 44.7912 31.0931 45.0395C30.9721 45.0739 30.852 45.1134 30.7318 45.1504H29.9012V45.1478ZM27.578 19.4884C26.2575 19.4884 24.9361 19.491 23.6156 19.4867C23.2059 19.485 22.883 19.6474 22.6862 20.0032C21.8317 21.55 20.9832 23.0994 20.1466 24.6557C19.9557 25.0115 19.9941 25.3879 20.2352 25.7213C20.4763 26.0556 20.8136 26.1871 21.2149 26.1312C21.594 26.0779 21.8376 25.839 22.0166 25.509C22.6231 24.3884 23.2374 23.2721 23.8448 22.1515C24.0442 21.7846 24.3219 21.5543 24.7547 21.5543C26.0011 21.5543 27.2474 21.544 28.493 21.5646C28.6991 21.568 28.9343 21.6643 29.103 21.7897C29.5068 22.0922 29.5468 22.5958 29.2486 23.1217C27.3931 26.3907 25.5342 29.6571 23.6829 32.9278C23.4418 33.3532 23.1121 33.5534 22.6206 33.5508C20.4047 33.5405 18.1897 33.5457 15.9738 33.5466C15.2752 33.5466 14.81 33.9702 14.8169 34.5932C14.8228 35.1999 15.2854 35.6099 15.9695 35.6107C18.5688 35.6107 21.1672 35.6064 23.7664 35.615C24.2682 35.6167 24.6141 35.4131 24.8612 34.98C25.2692 34.2633 25.6927 33.556 26.1101 32.8453C26.5446 32.1054 27.1069 31.9954 27.7731 32.5239C28.8533 33.3798 29.9319 34.2375 31.0104 35.0951C31.6323 35.5892 31.7133 35.9055 31.4134 36.6565C30.7421 38.3374 30.069 40.0175 29.4011 41.7001C29.1285 42.3876 29.4378 43.0329 30.1006 43.1893C30.6134 43.3097 31.0786 43.0261 31.3129 42.4391C32.1708 40.2908 33.0261 38.1415 33.8823 35.9923C34.1762 35.2541 34.0885 34.9121 33.4751 34.424C32.2551 33.4529 31.0326 32.4835 29.8126 31.5116C29.2444 31.0587 29.1626 30.6256 29.5255 30C30.3851 28.5185 31.2464 27.037 32.1094 25.5571C32.5967 24.721 33.3933 24.7081 33.9258 25.5262C34.4574 26.3426 34.9813 27.1641 35.5189 27.9771C35.8477 28.4755 36.3776 28.6293 36.8837 28.35C38.4793 27.4692 40.0674 26.5738 41.6562 25.68C41.9646 25.5064 42.1401 25.2297 42.1708 24.874C42.2057 24.4778 42.0541 24.1555 41.7295 23.9321C41.3819 23.6924 41.0096 23.6838 40.6424 23.8883C39.6644 24.4323 38.6898 24.9831 37.7126 25.5297C37.0038 25.9258 36.5616 25.8167 36.1203 25.1378C35.1994 23.719 34.2742 22.3028 33.3635 20.8771C33.1573 20.5549 32.935 20.2824 32.5805 20.1114C32.3548 20.0023 32.1742 19.8012 31.9569 19.6671C31.8223 19.5838 31.6596 19.4987 31.5088 19.497C30.1985 19.4841 28.8883 19.4893 27.5788 19.4893L27.578 19.4884ZM34.7794 18.8078C36.0718 18.8121 37.1188 17.7706 37.1273 16.4712C37.1358 15.1538 36.0922 14.0865 34.793 14.0831C33.5049 14.0805 32.4562 15.1272 32.4468 16.4248C32.4374 17.7482 33.47 18.8026 34.7785 18.8069L34.7794 18.8078Z" fill="white"/>
</svg>
