<svg width="60" height="60" viewBox="0 0 60 60" fill="none" xmlns="http://www.w3.org/2000/svg">
<circle cx="30.1045" cy="29.979" r="26.4" fill="white" stroke="black" stroke-width="1.2"/>
<path d="M51.4954 37.2964C51.4146 37.7136 51.3416 38.133 51.2508 38.548C50.2316 43.2059 46.0452 46.4495 41.1958 46.3421C36.5523 46.2392 32.5152 42.7256 31.7339 38.0887C31.6244 37.4369 31.5934 36.7729 31.5215 36.0735C30.6948 36.4774 29.8316 36.5062 28.9939 36.0757C28.8898 36.8935 28.8478 37.7058 28.6774 38.4904C27.6482 43.2313 23.4816 46.4628 18.5947 46.3421C13.9523 46.227 9.96279 42.7311 9.14829 38.0655C9.10292 37.8065 9.0498 37.552 9 37.2964C9 36.6877 9 36.079 9 35.4704C9.1328 34.8518 9.2169 34.2166 9.40946 33.6179C9.63743 32.9118 9.90413 32.208 10.2494 31.5528C12.258 27.7404 14.2898 23.9402 16.3227 20.1399C17.3076 18.2974 18.8027 17.1011 20.8511 16.6097C21.0038 16.5732 21.1798 16.415 21.2451 16.2689C22.0518 14.4562 23.869 13.4967 25.7835 13.894C27.6106 14.2725 28.9153 15.9192 28.9197 17.8569C28.9219 18.8109 28.9197 19.7648 28.9197 20.7818C29.8039 20.3458 30.6671 20.3292 31.5757 20.7873C31.5757 19.746 31.5635 18.7577 31.579 17.7695C31.6 16.4393 32.1467 15.357 33.218 14.5713C35.2774 13.0607 38.1835 13.8553 39.2038 16.2036C39.3156 16.4614 39.4528 16.5765 39.7262 16.6429C41.7558 17.1332 43.2188 18.3483 44.1937 20.1798C46.1802 23.9103 48.1655 27.6419 50.1619 31.3669C50.8148 32.5853 51.2719 33.8602 51.4246 35.2391C51.4334 35.3177 51.4711 35.3929 51.4954 35.4704V37.2964ZM32.9158 31.3625C34.4331 28.9577 36.4527 27.4007 39.1109 26.7301C41.7823 26.0561 44.3066 26.4866 46.7645 27.8876C46.6616 27.6807 46.6062 27.56 46.5431 27.4427C45.3347 25.1763 44.1196 22.9132 42.9167 20.6424C41.914 18.7489 39.8745 17.6135 37.7818 17.8016C35.5906 17.9986 33.7735 19.4627 33.1449 21.5598C33.0343 21.9272 32.928 22.3156 32.9258 22.6941C32.907 25.5415 32.9158 28.3889 32.9158 31.3614V31.3625ZM27.5917 31.368C27.5917 31.1633 27.5917 31.0836 27.5917 31.0039C27.5917 28.3756 27.594 25.7485 27.5884 23.1202C27.5884 22.818 27.5541 22.5126 27.5098 22.2127C27.1967 20.0802 25.405 18.2586 23.257 17.8791C21.0083 17.4818 18.7164 18.5309 17.6828 20.452C16.4135 22.8114 15.1585 25.1785 13.898 27.5434C13.8527 27.6287 13.8228 27.7227 13.7663 27.8577C18.8237 24.9317 24.7941 26.7267 27.5917 31.3669V31.368ZM41.5632 45.0142C46.2742 45.0319 50.1442 41.1553 50.1663 36.3978C50.1873 31.6768 46.3085 27.7659 41.5898 27.7526C36.8312 27.7382 32.9192 31.5838 32.9037 36.2882C32.8882 41.1409 36.7139 44.9964 41.5621 45.0153L41.5632 45.0142ZM19.0008 45.0142C23.7074 45.0285 27.5762 41.142 27.5917 36.3845C27.6061 31.6624 23.7229 27.7581 19.0019 27.7515C14.2444 27.7437 10.3379 31.5949 10.3291 36.3004C10.3202 41.153 14.1481 44.9987 19.0008 45.0142ZM31.558 31.4079C31.5668 31.2961 31.5757 31.2308 31.5757 31.1655C31.5757 28.4963 31.5757 25.827 31.5757 23.1578C31.5757 23.0349 31.5657 22.9077 31.5358 22.7882C31.371 22.1352 30.7656 21.7114 30.1083 21.7789C29.4399 21.8475 28.9286 22.4019 28.9253 23.1058C28.9153 24.9174 28.9219 26.7289 28.9219 28.5405C28.9219 29.479 28.9219 30.4174 28.9219 31.4123C29.8128 30.9652 30.6782 30.9575 31.5591 31.4068L31.558 31.4079ZM32.8705 18.9713C32.9081 18.9846 32.9446 18.9979 32.9822 19.0112C34.2228 17.4696 35.8485 16.6451 37.8172 16.4581C37.3247 15.5385 36.269 15.0173 35.2442 15.1478C34.1553 15.2862 33.2113 16.0774 33.0044 17.1321C32.8871 17.7308 32.9114 18.3571 32.8716 18.9713H32.8705ZM22.6948 16.4636C24.6613 16.6374 26.2759 17.4829 27.5895 19.0986C27.5895 18.5641 27.5984 18.1424 27.5873 17.7208C27.5574 16.5876 26.8282 15.616 25.7525 15.264C24.5651 14.8756 23.1563 15.4145 22.6937 16.4636H22.6948ZM31.5735 33.7263C31.5757 33.0092 30.9737 32.4028 30.2566 32.4005C29.5295 32.3983 28.9319 32.9837 28.9219 33.7075C28.9109 34.4478 29.5195 35.0587 30.2588 35.0521C30.9836 35.0454 31.5724 34.4512 31.5735 33.7252V33.7263Z" fill="black"/>
<path d="M41.5365 29.7445C45.2006 29.7412 48.1742 32.7236 48.1742 36.4043C48.1742 40.0231 45.1863 43.0199 41.5742 43.0221C37.8857 43.0243 34.8944 40.0596 34.8955 36.4021C34.8977 32.7192 37.8613 29.7467 41.5354 29.7434L41.5365 29.7445ZM46.8462 36.4165C46.8662 33.516 44.5001 31.0968 41.6195 31.0714C38.657 31.0459 36.239 33.4009 36.2235 36.3291C36.208 39.2839 38.5674 41.6786 41.5111 41.6941C44.4326 41.7096 46.8263 39.3414 46.8462 36.4165Z" fill="black"/>
<path d="M18.9434 43.0231C15.2627 43.0021 12.3035 40.0174 12.3224 36.3467C12.3412 32.6626 15.3502 29.7134 19.0596 29.7444C22.6873 29.7743 25.6243 32.7921 25.5989 36.4618C25.5734 40.0761 22.5633 43.043 18.9423 43.0231H18.9434ZM18.9412 41.6951C21.8617 41.7095 24.2543 39.3391 24.272 36.4131C24.2897 33.497 21.9026 31.079 18.9999 31.0713C16.0617 31.0635 13.6636 33.4229 13.6492 36.3345C13.6348 39.2893 15.9964 41.6807 18.9412 41.6951Z" fill="black"/>
</svg>
