<svg width="60" height="60" viewBox="0 0 60 60" fill="none" xmlns="http://www.w3.org/2000/svg">
<circle cx="30" cy="30" r="27" fill="#5185F7"/>
<path d="M29.9012 45.1473C29.8424 45.1267 29.7854 45.0983 29.7257 45.0854C27.9273 44.6901 26.9169 42.8554 27.5754 41.1178C28.1445 39.6157 28.7511 38.1281 29.3568 36.6406C29.4497 36.4129 29.4344 36.2891 29.235 36.137C28.5901 35.6463 27.9605 35.135 27.302 34.6134C27.0362 35.0645 26.7772 35.4934 26.5293 35.9299C25.9065 37.0256 24.9745 37.5532 23.7196 37.5481C21.0999 37.5369 18.4802 37.5506 15.8605 37.5421C14.1498 37.536 12.86 36.1834 12.9008 34.4639C12.9383 32.9136 14.2248 31.6331 15.8034 31.6185C17.848 31.6005 19.8927 31.6125 21.9373 31.6142C22.1026 31.6142 22.2253 31.6039 22.3267 31.4252C23.7894 28.8334 25.2616 26.2467 26.7312 23.6592C26.7516 23.6231 26.7661 23.5836 26.8095 23.4891C26.3171 23.4891 25.8571 23.4779 25.3987 23.5002C25.3195 23.5037 25.2275 23.6394 25.1755 23.7331C24.6405 24.6973 24.1396 25.6821 23.5756 26.6283C22.9264 27.7171 21.9228 28.2086 20.6824 28.0479C19.4556 27.8889 18.6267 27.1637 18.2484 25.9657C18.0167 25.2301 18.0627 24.4893 18.4265 23.8079C19.2938 22.1837 20.1619 20.5587 21.0794 18.9629C21.6204 18.0219 22.4945 17.5604 23.5799 17.5578C25.8051 17.5518 28.0312 17.5561 30.2573 17.5561C30.3826 17.5561 30.5078 17.5561 30.656 17.5561C30.4592 16.6443 30.4643 15.7704 30.8017 14.929C31.3964 13.4432 32.4843 12.5409 34.0408 12.2152C34.1106 12.2006 34.1788 12.1722 34.2469 12.1499C34.609 12.1499 34.9711 12.1499 35.3332 12.1499C35.3911 12.1714 35.4473 12.2015 35.5069 12.2118C37.4289 12.5581 38.913 14.1883 39.0357 16.0909C39.1686 18.1456 37.958 19.9502 36.0377 20.5544C35.8818 20.6034 35.7233 20.6437 35.5334 20.6979C36.151 21.65 36.7482 22.5721 37.3531 23.5054C37.4664 23.4478 37.561 23.4023 37.653 23.3516C38.3984 22.9382 39.1277 22.4914 39.8927 22.1184C40.9781 21.589 42.0362 21.7231 42.981 22.4664C44.5903 23.7323 44.4412 26.2562 42.6785 27.3037C41.1127 28.2344 39.5093 29.1024 37.9171 29.9892C36.4245 30.8202 34.8067 30.4103 33.8704 28.9769C33.608 28.5747 33.3464 28.1708 33.0636 27.7368C32.5388 28.6409 32.0311 29.5157 31.5165 30.4008C31.6392 30.5005 31.7371 30.5822 31.8368 30.6612C32.8395 31.4587 33.8482 32.2493 34.8441 33.0554C35.8401 33.8606 36.2439 35.1668 35.7872 36.3544C34.8765 38.7228 33.9317 41.0774 32.9716 43.426C32.6283 44.2665 31.9637 44.7907 31.0931 45.039C30.9721 45.0734 30.852 45.1129 30.7318 45.1499H29.9012V45.1473ZM27.578 19.4879C26.2575 19.4879 24.9361 19.4905 23.6156 19.4862C23.2059 19.4845 22.883 19.6469 22.6862 20.0027C21.8317 21.5495 20.9832 23.0989 20.1466 24.6552C19.9557 25.011 19.9941 25.3874 20.2352 25.7208C20.4763 26.0551 20.8136 26.1866 21.2149 26.1307C21.594 26.0774 21.8376 25.8385 22.0166 25.5085C22.6231 24.3879 23.2374 23.2716 23.8448 22.151C24.0442 21.7841 24.3219 21.5538 24.7547 21.5538C26.0011 21.5538 27.2474 21.5435 28.493 21.5641C28.6991 21.5675 28.9343 21.6638 29.103 21.7893C29.5068 22.0918 29.5468 22.5953 29.2486 23.1213C27.3931 26.3902 25.5342 29.6566 23.6829 32.9273C23.4418 33.3527 23.1121 33.5529 22.6206 33.5504C20.4047 33.54 18.1897 33.5452 15.9738 33.5461C15.2752 33.5461 14.81 33.9697 14.8169 34.5928C14.8228 35.1995 15.2854 35.6094 15.9695 35.6102C18.5688 35.6102 21.1672 35.6059 23.7664 35.6145C24.2682 35.6162 24.6141 35.4126 24.8612 34.9795C25.2692 34.2628 25.6927 33.5555 26.1101 32.8448C26.5446 32.1049 27.1069 31.9949 27.7731 32.5234C28.8533 33.3793 29.9319 34.237 31.0104 35.0946C31.6323 35.5887 31.7133 35.905 31.4134 36.6561C30.7421 38.337 30.069 40.017 29.4011 41.6996C29.1285 42.3871 29.4378 43.0325 30.1006 43.1889C30.6134 43.3092 31.0786 43.0256 31.3129 42.4386C32.1708 40.2903 33.0261 38.141 33.8823 35.9918C34.1762 35.2536 34.0885 34.9116 33.4751 34.4235C32.2551 33.4524 31.0326 32.483 29.8126 31.5111C29.2444 31.0582 29.1626 30.6251 29.5255 29.9995C30.3851 28.518 31.2464 27.0365 32.1094 25.5567C32.5967 24.7205 33.3933 24.7076 33.9258 25.5257C34.4574 26.3421 34.9813 27.1637 35.5189 27.9766C35.8477 28.475 36.3776 28.6288 36.8837 28.3496C38.4793 27.4687 40.0674 26.5733 41.6562 25.6795C41.9646 25.506 42.1401 25.2292 42.1708 24.8735C42.2057 24.4773 42.0541 24.1551 41.7295 23.9316C41.3819 23.6919 41.0096 23.6833 40.6424 23.8878C39.6644 24.4318 38.6898 24.9826 37.7126 25.5292C37.0038 25.9253 36.5616 25.8162 36.1203 25.1373C35.1994 23.7185 34.2742 22.3023 33.3635 20.8766C33.1573 20.5544 32.935 20.282 32.5805 20.1109C32.3548 20.0018 32.1742 19.8007 31.9569 19.6667C31.8223 19.5833 31.6596 19.4982 31.5088 19.4965C30.1985 19.4836 28.8883 19.4888 27.5788 19.4888L27.578 19.4879ZM34.7794 18.8073C36.0718 18.8116 37.1188 17.7701 37.1273 16.4707C37.1358 15.1533 36.0922 14.086 34.793 14.0826C33.5049 14.08 32.4562 15.1267 32.4468 16.4243C32.4374 17.7477 33.47 18.8022 34.7785 18.8064L34.7794 18.8073Z" fill="white"/>
</svg>
