<svg width="60" height="60" viewBox="0 0 60 60" fill="none" xmlns="http://www.w3.org/2000/svg">
<circle cx="30" cy="30" r="27" fill="#CE4C7A"/>
<mask id="path-2-outside-1_442_8278" maskUnits="userSpaceOnUse" x="11.6001" y="12.2" width="36" height="36" fill="black">
<rect fill="white" x="11.6001" y="12.2" width="36" height="36"/>
<path fill-rule="evenodd" clip-rule="evenodd" d="M29.7046 21C31.8607 20.998 33.6075 19.2444 33.6007 17.0894C33.5929 14.9353 31.8197 13.1768 29.6782 13.2002C27.5289 13.2245 25.8046 14.9567 25.8007 17.0972C25.7978 19.2512 27.5485 21.0019 29.7046 21ZM27.357 17.1001C27.357 15.8063 28.4082 14.7668 29.7114 14.7716C31.0127 14.7765 32.0542 15.8258 32.0454 17.1215C32.0366 18.3909 30.9834 19.4373 29.7085 19.4441C28.4248 19.4509 27.357 18.3861 27.357 17.1001ZM34.1931 37.816V37.3867H34.194H34.8045C36.2294 37.3809 37.1858 36.4179 37.1905 34.9575V34.9569C37.1989 32.4532 37.2073 29.9494 37.1886 27.4456C37.169 24.8334 35.2112 22.8335 32.6645 22.8124C30.6899 22.7961 28.7144 22.7951 26.7399 22.8124C24.2651 22.8344 22.2971 24.7414 22.2372 27.2741C22.1755 29.8844 22.2027 32.4976 22.2298 35.1089C22.2438 36.4418 23.2348 37.3752 24.5437 37.3857C24.6873 37.387 24.8309 37.3866 24.9802 37.3862H24.9803H24.9805H24.9807H24.9809C25.0578 37.3859 25.1362 37.3857 25.2169 37.3857V37.8227C25.2169 38.4733 25.2167 39.1239 25.2164 39.7745L25.2164 39.7833V39.7834V39.7835V39.7836V39.7837C25.2159 41.5263 25.2153 43.2687 25.2187 45.0116C25.2206 46.0255 25.7769 46.9243 26.6847 47.1974C27.657 47.4897 28.6434 47.5261 29.5456 46.8956C29.6129 46.8486 29.7597 46.8208 29.8102 46.8611C30.3935 47.3335 31.0704 47.3747 31.7716 47.3661C33.26 47.3479 34.1931 46.3934 34.1931 44.8612V37.816ZM25.2159 35.427V35.8161H25.215C25.1853 35.8269 25.1665 35.8345 25.1539 35.8396C25.1376 35.8462 25.1316 35.8487 25.1252 35.8487C24.1753 35.8994 23.6864 35.8937 23.7126 34.5138C23.741 33.0337 23.7356 31.5528 23.7303 30.0719C23.7272 29.2162 23.7241 28.3606 23.7275 27.505C23.7341 25.9268 24.6821 24.7145 26.1368 24.4117C26.3743 24.3619 26.6249 24.3571 26.8689 24.3571C28.7509 24.3523 30.632 24.3514 32.514 24.3552C34.4427 24.359 35.6796 25.6354 35.6824 27.6238C35.6837 29.2133 35.6833 30.8027 35.6828 32.3922C35.6826 33.1869 35.6824 33.9816 35.6824 34.7764C35.6824 35.634 35.4618 35.8582 34.6213 35.8582H34.1922V35.4155L34.1924 33.0553C34.1926 31.4818 34.1928 29.9084 34.1922 28.3349C34.1912 27.8395 34.0098 27.5558 33.6368 27.4514C33.2011 27.3297 32.7692 27.6191 32.715 28.079C32.7006 28.2035 32.7015 28.3298 32.7024 28.4555V28.4556C32.7026 28.4857 32.7028 28.5157 32.7028 28.5457C32.7028 33.9369 32.7028 39.3291 32.7009 44.7203C32.7009 44.8985 32.6953 45.0816 32.6579 45.254C32.5944 45.5492 32.399 45.7591 32.111 45.7888C31.7529 45.8261 31.3855 45.8242 31.0274 45.7878C30.7077 45.7552 30.487 45.4572 30.4665 45.1026C30.455 44.9014 30.4562 44.699 30.4573 44.4968V44.4967V44.4967V44.4966V44.4966V44.4965V44.4965V44.4965V44.4964C30.4577 44.4349 30.4581 44.3735 30.4581 44.3121C30.4577 43.4892 30.4577 42.6665 30.4577 41.8438C30.4577 40.1984 30.4577 38.5532 30.4553 36.9075C30.4553 36.7303 30.4468 36.5453 30.401 36.3757C30.3131 36.0508 30.0186 35.8534 29.6811 35.8649C29.338 35.8764 29.1015 36.0547 29.0042 36.3862C28.9547 36.5539 28.9519 36.7398 28.9519 36.9181C28.9491 39.5428 28.9491 42.1665 28.9491 44.7902C28.9491 45.5894 28.7275 45.8156 27.9506 45.8175C26.8483 45.8194 26.7053 45.6719 26.7053 44.5296V28.5706C26.7053 28.538 26.7055 28.5053 26.7057 28.4727V28.4726V28.4726V28.4725C26.7066 28.3612 26.7074 28.2497 26.6987 28.1394C26.6669 27.7235 26.3547 27.4188 25.9667 27.4169C25.5796 27.414 25.2589 27.7178 25.2206 28.1308C25.213 28.2186 25.2141 28.3074 25.2152 28.3962V28.3962V28.3962V28.3962V28.3963V28.3963V28.3964V28.3964V28.3964C25.2155 28.4277 25.2159 28.4589 25.2159 28.4901V35.427ZM15.6862 45.5391C16.5625 46.368 17.7148 46.3995 18.8868 45.6099L18.8829 45.6127L18.9212 45.638C18.9576 45.662 18.9876 45.6817 19.017 45.7026C19.7983 46.2618 20.6374 46.3641 21.5019 45.9349C22.3635 45.5076 22.7914 44.7868 22.7953 43.8442C22.8031 42.0985 22.8002 40.3529 22.7953 38.6082C22.7943 38.113 22.4781 37.788 22.0238 37.7841C21.5607 37.7794 21.2552 38.09 21.2395 38.59C21.2347 38.7337 21.2357 38.8769 21.2367 39.0202V39.0203V39.0203V39.0203V39.0204L21.2367 39.0207C21.2372 39.0804 21.2376 39.1401 21.2376 39.2V43.5746C21.2376 43.6001 21.2379 43.6256 21.2381 43.6511V43.6511C21.2389 43.7212 21.2397 43.7913 21.2346 43.8614C21.2004 44.3308 20.8861 44.6529 20.4572 44.6587C20.0167 44.6644 19.672 44.3317 19.6642 43.8432C19.6554 43.2879 19.6564 42.7323 19.6574 42.1767V42.1767V42.1767V42.1766V42.1766C19.6581 41.7997 19.6587 41.4227 19.6564 41.046C19.6554 40.8806 19.6515 40.7056 19.5996 40.5517C19.485 40.2143 19.1228 40.0317 18.7439 40.0881C18.3757 40.1435 18.1055 40.4437 18.1016 40.8481C18.0967 41.35 18.0972 41.8521 18.0977 42.3542C18.0982 42.8564 18.0986 43.3585 18.0937 43.8604C18.0898 44.3231 17.7579 44.6529 17.3252 44.6596C16.8954 44.6663 16.5634 44.3384 16.5399 43.8795C16.5355 43.7899 16.5361 43.7003 16.5366 43.6106C16.5368 43.5808 16.537 43.5509 16.537 43.521L16.5371 41.2045V41.2045V41.2044V41.2043V41.2043C16.5372 38.1156 16.5374 35.0272 16.5351 31.9383C16.5341 31.7614 16.5262 31.5769 16.4773 31.4077C16.3843 31.0836 16.0759 30.8867 15.7224 30.8991C15.3641 30.9115 15.1193 31.0903 15.0136 31.4201C14.9675 31.5654 14.9607 31.726 14.9607 31.8799C14.9578 32.6772 14.9581 33.4749 14.9585 34.2728V34.2729V34.2729V34.2729V34.273L14.9587 35.071V35.4525C14.3997 35.3798 14.1892 35.1389 14.1892 34.5911L14.1875 33.7843C14.1837 32.081 14.18 30.3778 14.1902 28.6745C14.2019 26.8237 15.5432 25.5379 17.4485 25.5322C17.8205 25.5311 18.1924 25.5316 18.5643 25.5322C19.1841 25.5331 19.8037 25.534 20.423 25.5274C20.8949 25.5217 21.2307 25.1909 21.2327 24.7683C21.2346 24.3477 20.8998 24.015 20.4269 24.0121C20.1976 24.0108 19.9682 24.0088 19.7388 24.0068L19.7384 24.0068L19.7381 24.0068L19.7377 24.0068L19.7374 24.0068H19.7374H19.7374H19.7374H19.7374C18.8045 23.9987 17.871 23.9906 16.9394 24.0274C14.8266 24.1106 12.8028 25.8964 12.6892 27.9518C12.5619 30.2519 12.5962 32.5635 12.6383 34.8684C12.6589 36.0012 13.5175 36.8071 14.6679 36.9907C14.7139 36.9979 14.76 37.0054 14.8084 37.0132C14.856 37.0209 14.9058 37.029 14.9597 37.0375V37.4859C14.9597 38.11 14.96 38.734 14.9602 39.358V39.3581V39.3582V39.3583V39.3584C14.9609 40.8141 14.9615 42.2696 14.9587 43.7256C14.9578 44.4254 15.1614 45.043 15.6862 45.5391ZM44.4393 35.4477C44.9392 35.4037 45.1896 35.1645 45.2033 34.714C45.214 34.3579 45.2122 34.0012 45.2105 33.6444C45.2098 33.5106 45.2092 33.3768 45.2092 33.2429C45.2092 32.7446 45.2096 32.2462 45.21 31.7479C45.2109 30.7512 45.2118 29.7546 45.2092 28.7579C45.2033 26.8124 43.8837 25.5316 41.8912 25.5287C41.5691 25.5284 41.247 25.5287 40.9251 25.5291H40.925H40.9249H40.9249C40.2809 25.5297 39.6371 25.5303 38.9929 25.5259C38.5791 25.523 38.3013 25.3088 38.2054 24.9548C38.1174 24.6306 38.2455 24.2738 38.5468 24.1227C38.7023 24.0452 38.896 24.0117 39.0731 24.0098C40.0757 23.9993 41.0783 23.9955 42.081 24.007C44.6976 24.0366 46.7331 25.9821 46.7781 28.5465C46.8143 30.5905 46.8006 32.6365 46.7811 34.6815C46.7684 35.9881 45.9056 36.8451 44.4393 37.0335V37.4448C44.4393 38.072 44.44 38.6992 44.4407 39.3264C44.4423 40.816 44.444 42.3055 44.4364 43.795C44.4296 45.2202 43.3379 46.2963 41.9577 46.1777C41.6185 46.1485 41.2874 46.0241 40.9314 45.8904C40.7628 45.8271 40.5886 45.7617 40.4053 45.7032C39.882 46.1107 39.1846 46.3192 38.3864 46.1289C37.3906 45.8907 36.6257 45.0127 36.6139 44.0074C36.5948 42.4022 36.6004 40.797 36.606 39.1918L36.6081 38.5898C36.61 38.101 36.9407 37.7834 37.4023 37.7901C37.8504 37.7968 38.1585 38.101 38.1604 38.5831C38.1658 39.7284 38.1652 40.8741 38.1646 42.0197V42.0198V42.0198V42.0199C38.1643 42.5485 38.164 43.0771 38.1643 43.6056C38.1643 44.2991 38.4519 44.6788 38.9664 44.6674C39.4712 44.6568 39.7412 44.2905 39.7412 43.6133L39.7409 42.7525C39.7407 42.1785 39.7405 41.6044 39.7412 41.0298C39.7431 40.4061 40.0199 40.0781 40.5315 40.0848C41.0196 40.0915 41.2984 40.4291 41.3004 41.0212C41.301 41.351 41.3006 41.6809 41.3001 42.0108V42.0109V42.0109V42.0109C41.2991 42.6379 41.2982 43.265 41.3053 43.8916C41.3102 44.3221 41.6124 44.6272 42.0223 44.6635C42.3764 44.6951 42.7471 44.4531 42.8263 44.1135C42.8596 43.9696 42.8592 43.8164 42.8587 43.6663V43.6663L42.8586 43.6143C42.8601 41.7658 42.8599 39.9179 42.8597 38.0697V38.0697V38.0696V38.0695L42.8596 36.2234C42.8596 35.8028 42.8594 35.3822 42.8593 34.9616C42.8589 33.9111 42.8585 32.8606 42.8606 31.8101C42.8615 31.2917 43.1022 30.9684 43.513 30.9081C44.0432 30.8297 44.4295 31.174 44.4344 31.7603C44.4414 32.5395 44.44 33.3192 44.4385 34.0987V34.0988V34.0989V34.099C44.438 34.4198 44.4374 34.7405 44.4374 35.0612V35.4486L44.4393 35.4477ZM40.5028 22.8C38.6762 22.8041 37.2079 21.3453 37.2007 19.5191C37.1935 17.6938 38.6545 16.2103 40.4708 16.2C42.3035 16.1897 43.8017 17.6784 43.8007 19.5057C43.7997 21.3247 42.3273 22.7958 40.5038 22.8H40.5028ZM40.4966 21.1554C41.399 21.1554 42.1528 20.4018 42.1517 19.5026C42.1517 18.6044 41.3928 17.8466 40.4945 17.8477C39.5931 17.8477 38.8445 18.6003 38.8445 19.5046C38.8445 20.4131 39.589 21.1554 40.4966 21.1554ZM15.5998 19.5211C15.6071 21.3371 17.088 22.8031 18.9117 22.8C20.7396 22.7969 22.1998 21.334 22.1998 19.5046C22.2009 17.6804 20.7324 16.2041 18.9148 16.2C17.0828 16.1969 15.5926 17.6897 15.5998 19.5211ZM18.9024 17.8466C19.8017 17.8445 20.5555 18.5979 20.5558 19.501C20.5555 20.4093 19.8131 21.1543 18.9055 21.1543C18.0019 21.1554 17.2491 20.4069 17.248 19.5046C17.247 18.6064 18.0029 17.8487 18.9024 17.8466Z"/>
</mask>
<path fill-rule="evenodd" clip-rule="evenodd" d="M29.7046 21C31.8607 20.998 33.6075 19.2444 33.6007 17.0894C33.5929 14.9353 31.8197 13.1768 29.6782 13.2002C27.5289 13.2245 25.8046 14.9567 25.8007 17.0972C25.7978 19.2512 27.5485 21.0019 29.7046 21ZM27.357 17.1001C27.357 15.8063 28.4082 14.7668 29.7114 14.7716C31.0127 14.7765 32.0542 15.8258 32.0454 17.1215C32.0366 18.3909 30.9834 19.4373 29.7085 19.4441C28.4248 19.4509 27.357 18.3861 27.357 17.1001ZM34.1931 37.816V37.3867H34.194H34.8045C36.2294 37.3809 37.1858 36.4179 37.1905 34.9575V34.9569C37.1989 32.4532 37.2073 29.9494 37.1886 27.4456C37.169 24.8334 35.2112 22.8335 32.6645 22.8124C30.6899 22.7961 28.7144 22.7951 26.7399 22.8124C24.2651 22.8344 22.2971 24.7414 22.2372 27.2741C22.1755 29.8844 22.2027 32.4976 22.2298 35.1089C22.2438 36.4418 23.2348 37.3752 24.5437 37.3857C24.6873 37.387 24.8309 37.3866 24.9802 37.3862H24.9803H24.9805H24.9807H24.9809C25.0578 37.3859 25.1362 37.3857 25.2169 37.3857V37.8227C25.2169 38.4733 25.2167 39.1239 25.2164 39.7745L25.2164 39.7833V39.7834V39.7835V39.7836V39.7837C25.2159 41.5263 25.2153 43.2687 25.2187 45.0116C25.2206 46.0255 25.7769 46.9243 26.6847 47.1974C27.657 47.4897 28.6434 47.5261 29.5456 46.8956C29.6129 46.8486 29.7597 46.8208 29.8102 46.8611C30.3935 47.3335 31.0704 47.3747 31.7716 47.3661C33.26 47.3479 34.1931 46.3934 34.1931 44.8612V37.816ZM25.2159 35.427V35.8161H25.215C25.1853 35.8269 25.1665 35.8345 25.1539 35.8396C25.1376 35.8462 25.1316 35.8487 25.1252 35.8487C24.1753 35.8994 23.6864 35.8937 23.7126 34.5138C23.741 33.0337 23.7356 31.5528 23.7303 30.0719C23.7272 29.2162 23.7241 28.3606 23.7275 27.505C23.7341 25.9268 24.6821 24.7145 26.1368 24.4117C26.3743 24.3619 26.6249 24.3571 26.8689 24.3571C28.7509 24.3523 30.632 24.3514 32.514 24.3552C34.4427 24.359 35.6796 25.6354 35.6824 27.6238C35.6837 29.2133 35.6833 30.8027 35.6828 32.3922C35.6826 33.1869 35.6824 33.9816 35.6824 34.7764C35.6824 35.634 35.4618 35.8582 34.6213 35.8582H34.1922V35.4155L34.1924 33.0553C34.1926 31.4818 34.1928 29.9084 34.1922 28.3349C34.1912 27.8395 34.0098 27.5558 33.6368 27.4514C33.2011 27.3297 32.7692 27.6191 32.715 28.079C32.7006 28.2035 32.7015 28.3298 32.7024 28.4555V28.4556C32.7026 28.4857 32.7028 28.5157 32.7028 28.5457C32.7028 33.9369 32.7028 39.3291 32.7009 44.7203C32.7009 44.8985 32.6953 45.0816 32.6579 45.254C32.5944 45.5492 32.399 45.7591 32.111 45.7888C31.7529 45.8261 31.3855 45.8242 31.0274 45.7878C30.7077 45.7552 30.487 45.4572 30.4665 45.1026C30.455 44.9014 30.4562 44.699 30.4573 44.4968V44.4967V44.4967V44.4966V44.4966V44.4965V44.4965V44.4965V44.4964C30.4577 44.4349 30.4581 44.3735 30.4581 44.3121C30.4577 43.4892 30.4577 42.6665 30.4577 41.8438C30.4577 40.1984 30.4577 38.5532 30.4553 36.9075C30.4553 36.7303 30.4468 36.5453 30.401 36.3757C30.3131 36.0508 30.0186 35.8534 29.6811 35.8649C29.338 35.8764 29.1015 36.0547 29.0042 36.3862C28.9547 36.5539 28.9519 36.7398 28.9519 36.9181C28.9491 39.5428 28.9491 42.1665 28.9491 44.7902C28.9491 45.5894 28.7275 45.8156 27.9506 45.8175C26.8483 45.8194 26.7053 45.6719 26.7053 44.5296V28.5706C26.7053 28.538 26.7055 28.5053 26.7057 28.4727V28.4726V28.4726V28.4725C26.7066 28.3612 26.7074 28.2497 26.6987 28.1394C26.6669 27.7235 26.3547 27.4188 25.9667 27.4169C25.5796 27.414 25.2589 27.7178 25.2206 28.1308C25.213 28.2186 25.2141 28.3074 25.2152 28.3962V28.3962V28.3962V28.3962V28.3963V28.3963V28.3964V28.3964V28.3964C25.2155 28.4277 25.2159 28.4589 25.2159 28.4901V35.427ZM15.6862 45.5391C16.5625 46.368 17.7148 46.3995 18.8868 45.6099L18.8829 45.6127L18.9212 45.638C18.9576 45.662 18.9876 45.6817 19.017 45.7026C19.7983 46.2618 20.6374 46.3641 21.5019 45.9349C22.3635 45.5076 22.7914 44.7868 22.7953 43.8442C22.8031 42.0985 22.8002 40.3529 22.7953 38.6082C22.7943 38.113 22.4781 37.788 22.0238 37.7841C21.5607 37.7794 21.2552 38.09 21.2395 38.59C21.2347 38.7337 21.2357 38.8769 21.2367 39.0202V39.0203V39.0203V39.0203V39.0204L21.2367 39.0207C21.2372 39.0804 21.2376 39.1401 21.2376 39.2V43.5746C21.2376 43.6001 21.2379 43.6256 21.2381 43.6511V43.6511C21.2389 43.7212 21.2397 43.7913 21.2346 43.8614C21.2004 44.3308 20.8861 44.6529 20.4572 44.6587C20.0167 44.6644 19.672 44.3317 19.6642 43.8432C19.6554 43.2879 19.6564 42.7323 19.6574 42.1767V42.1767V42.1767V42.1766V42.1766C19.6581 41.7997 19.6587 41.4227 19.6564 41.046C19.6554 40.8806 19.6515 40.7056 19.5996 40.5517C19.485 40.2143 19.1228 40.0317 18.7439 40.0881C18.3757 40.1435 18.1055 40.4437 18.1016 40.8481C18.0967 41.35 18.0972 41.8521 18.0977 42.3542C18.0982 42.8564 18.0986 43.3585 18.0937 43.8604C18.0898 44.3231 17.7579 44.6529 17.3252 44.6596C16.8954 44.6663 16.5634 44.3384 16.5399 43.8795C16.5355 43.7899 16.5361 43.7003 16.5366 43.6106C16.5368 43.5808 16.537 43.5509 16.537 43.521L16.5371 41.2045V41.2045V41.2044V41.2043V41.2043C16.5372 38.1156 16.5374 35.0272 16.5351 31.9383C16.5341 31.7614 16.5262 31.5769 16.4773 31.4077C16.3843 31.0836 16.0759 30.8867 15.7224 30.8991C15.3641 30.9115 15.1193 31.0903 15.0136 31.4201C14.9675 31.5654 14.9607 31.726 14.9607 31.8799C14.9578 32.6772 14.9581 33.4749 14.9585 34.2728V34.2729V34.2729V34.2729V34.273L14.9587 35.071V35.4525C14.3997 35.3798 14.1892 35.1389 14.1892 34.5911L14.1875 33.7843C14.1837 32.081 14.18 30.3778 14.1902 28.6745C14.2019 26.8237 15.5432 25.5379 17.4485 25.5322C17.8205 25.5311 18.1924 25.5316 18.5643 25.5322C19.1841 25.5331 19.8037 25.534 20.423 25.5274C20.8949 25.5217 21.2307 25.1909 21.2327 24.7683C21.2346 24.3477 20.8998 24.015 20.4269 24.0121C20.1976 24.0108 19.9682 24.0088 19.7388 24.0068L19.7384 24.0068L19.7381 24.0068L19.7377 24.0068L19.7374 24.0068H19.7374H19.7374H19.7374H19.7374C18.8045 23.9987 17.871 23.9906 16.9394 24.0274C14.8266 24.1106 12.8028 25.8964 12.6892 27.9518C12.5619 30.2519 12.5962 32.5635 12.6383 34.8684C12.6589 36.0012 13.5175 36.8071 14.6679 36.9907C14.7139 36.9979 14.76 37.0054 14.8084 37.0132C14.856 37.0209 14.9058 37.029 14.9597 37.0375V37.4859C14.9597 38.11 14.96 38.734 14.9602 39.358V39.3581V39.3582V39.3583V39.3584C14.9609 40.8141 14.9615 42.2696 14.9587 43.7256C14.9578 44.4254 15.1614 45.043 15.6862 45.5391ZM44.4393 35.4477C44.9392 35.4037 45.1896 35.1645 45.2033 34.714C45.214 34.3579 45.2122 34.0012 45.2105 33.6444C45.2098 33.5106 45.2092 33.3768 45.2092 33.2429C45.2092 32.7446 45.2096 32.2462 45.21 31.7479C45.2109 30.7512 45.2118 29.7546 45.2092 28.7579C45.2033 26.8124 43.8837 25.5316 41.8912 25.5287C41.5691 25.5284 41.247 25.5287 40.9251 25.5291H40.925H40.9249H40.9249C40.2809 25.5297 39.6371 25.5303 38.9929 25.5259C38.5791 25.523 38.3013 25.3088 38.2054 24.9548C38.1174 24.6306 38.2455 24.2738 38.5468 24.1227C38.7023 24.0452 38.896 24.0117 39.0731 24.0098C40.0757 23.9993 41.0783 23.9955 42.081 24.007C44.6976 24.0366 46.7331 25.9821 46.7781 28.5465C46.8143 30.5905 46.8006 32.6365 46.7811 34.6815C46.7684 35.9881 45.9056 36.8451 44.4393 37.0335V37.4448C44.4393 38.072 44.44 38.6992 44.4407 39.3264C44.4423 40.816 44.444 42.3055 44.4364 43.795C44.4296 45.2202 43.3379 46.2963 41.9577 46.1777C41.6185 46.1485 41.2874 46.0241 40.9314 45.8904C40.7628 45.8271 40.5886 45.7617 40.4053 45.7032C39.882 46.1107 39.1846 46.3192 38.3864 46.1289C37.3906 45.8907 36.6257 45.0127 36.6139 44.0074C36.5948 42.4022 36.6004 40.797 36.606 39.1918L36.6081 38.5898C36.61 38.101 36.9407 37.7834 37.4023 37.7901C37.8504 37.7968 38.1585 38.101 38.1604 38.5831C38.1658 39.7284 38.1652 40.8741 38.1646 42.0197V42.0198V42.0198V42.0199C38.1643 42.5485 38.164 43.0771 38.1643 43.6056C38.1643 44.2991 38.4519 44.6788 38.9664 44.6674C39.4712 44.6568 39.7412 44.2905 39.7412 43.6133L39.7409 42.7525C39.7407 42.1785 39.7405 41.6044 39.7412 41.0298C39.7431 40.4061 40.0199 40.0781 40.5315 40.0848C41.0196 40.0915 41.2984 40.4291 41.3004 41.0212C41.301 41.351 41.3006 41.6809 41.3001 42.0108V42.0109V42.0109V42.0109C41.2991 42.6379 41.2982 43.265 41.3053 43.8916C41.3102 44.3221 41.6124 44.6272 42.0223 44.6635C42.3764 44.6951 42.7471 44.4531 42.8263 44.1135C42.8596 43.9696 42.8592 43.8164 42.8587 43.6663V43.6663L42.8586 43.6143C42.8601 41.7658 42.8599 39.9179 42.8597 38.0697V38.0697V38.0696V38.0695L42.8596 36.2234C42.8596 35.8028 42.8594 35.3822 42.8593 34.9616C42.8589 33.9111 42.8585 32.8606 42.8606 31.8101C42.8615 31.2917 43.1022 30.9684 43.513 30.9081C44.0432 30.8297 44.4295 31.174 44.4344 31.7603C44.4414 32.5395 44.44 33.3192 44.4385 34.0987V34.0988V34.0989V34.099C44.438 34.4198 44.4374 34.7405 44.4374 35.0612V35.4486L44.4393 35.4477ZM40.5028 22.8C38.6762 22.8041 37.2079 21.3453 37.2007 19.5191C37.1935 17.6938 38.6545 16.2103 40.4708 16.2C42.3035 16.1897 43.8017 17.6784 43.8007 19.5057C43.7997 21.3247 42.3273 22.7958 40.5038 22.8H40.5028ZM40.4966 21.1554C41.399 21.1554 42.1528 20.4018 42.1517 19.5026C42.1517 18.6044 41.3928 17.8466 40.4945 17.8477C39.5931 17.8477 38.8445 18.6003 38.8445 19.5046C38.8445 20.4131 39.589 21.1554 40.4966 21.1554ZM15.5998 19.5211C15.6071 21.3371 17.088 22.8031 18.9117 22.8C20.7396 22.7969 22.1998 21.334 22.1998 19.5046C22.2009 17.6804 20.7324 16.2041 18.9148 16.2C17.0828 16.1969 15.5926 17.6897 15.5998 19.5211ZM18.9024 17.8466C19.8017 17.8445 20.5555 18.5979 20.5558 19.501C20.5555 20.4093 19.8131 21.1543 18.9055 21.1543C18.0019 21.1554 17.2491 20.4069 17.248 19.5046C17.247 18.6064 18.0029 17.8487 18.9024 17.8466Z" fill="white"/>
<path d="M33.6007 17.0894L33.7207 17.089V17.0889L33.6007 17.0894ZM29.7046 21L29.7047 21.12L29.7046 21ZM29.6782 13.2002L29.6769 13.0802L29.6769 13.0802L29.6782 13.2002ZM25.8007 17.0972L25.6807 17.0969V17.097L25.8007 17.0972ZM29.7114 14.7716L29.7119 14.6516L29.7114 14.7716ZM32.0454 17.1215L32.1654 17.1223V17.1223L32.0454 17.1215ZM29.7085 19.4441L29.7091 19.5641H29.7091L29.7085 19.4441ZM34.1931 37.3867V37.2667H34.0731V37.3867H34.1931ZM34.8045 37.3867V37.5067L34.805 37.5067L34.8045 37.3867ZM37.1905 34.9575L37.3105 34.9579V34.9575H37.1905ZM37.1905 34.9569L37.0705 34.9565V34.9569H37.1905ZM37.1886 27.4456L37.3086 27.4447V27.4447L37.1886 27.4456ZM32.6645 22.8124L32.6655 22.6924H32.6655L32.6645 22.8124ZM26.7399 22.8124L26.7388 22.6924H26.7388L26.7399 22.8124ZM22.2372 27.2741L22.3572 27.2769V27.2769L22.2372 27.2741ZM22.2298 35.1089L22.1098 35.1101V35.1101L22.2298 35.1089ZM24.5437 37.3857L24.5448 37.2657H24.5447L24.5437 37.3857ZM24.9802 37.3862V37.2662L24.9798 37.2662L24.9802 37.3862ZM24.9809 37.3862V37.5062L24.9812 37.5062L24.9809 37.3862ZM25.2169 37.3857H25.3369V37.2657H25.2169V37.3857ZM25.2164 39.7745L25.3364 39.7745V39.7745L25.2164 39.7745ZM25.2164 39.7833L25.0964 39.7833V39.7833H25.2164ZM25.2164 39.7837L25.3364 39.7837V39.7837H25.2164ZM25.2187 45.0116L25.3387 45.0114V45.0114L25.2187 45.0116ZM26.6847 47.1974L26.6501 47.3123L26.6501 47.3123L26.6847 47.1974ZM29.5456 46.8956L29.4769 46.7971L29.4768 46.7972L29.5456 46.8956ZM29.8102 46.8611L29.8857 46.7678L29.885 46.7672L29.8102 46.8611ZM31.7716 47.3661L31.7702 47.2461H31.7702L31.7716 47.3661ZM25.2159 35.8161V35.9361H25.3359V35.8161H25.2159ZM25.215 35.8161V35.6961H25.1938L25.1738 35.7033L25.215 35.8161ZM25.1539 35.8396L25.1989 35.9508L25.199 35.9508L25.1539 35.8396ZM25.1252 35.8487V35.7285L25.1188 35.7288L25.1252 35.8487ZM23.7126 34.5138L23.5926 34.5115L23.5926 34.5115L23.7126 34.5138ZM23.7303 30.0719L23.6103 30.0723L23.7303 30.0719ZM23.7275 27.505L23.6075 27.5045V27.5045L23.7275 27.505ZM26.1368 24.4117L26.1613 24.5292L26.1615 24.5292L26.1368 24.4117ZM26.8689 24.3571V24.4771L26.8692 24.4771L26.8689 24.3571ZM32.514 24.3552L32.5137 24.4752H32.5137L32.514 24.3552ZM35.6824 27.6238L35.8024 27.6237V27.6237L35.6824 27.6238ZM34.1922 35.8582H34.0722V35.9782H34.1922V35.8582ZM34.1922 35.4155L34.0722 35.4155V35.4155H34.1922ZM34.1924 33.0553L34.0724 33.0553V33.0553L34.1924 33.0553ZM34.1922 28.3349L34.3122 28.3348L34.3122 28.3347L34.1922 28.3349ZM33.6368 27.4514L33.6692 27.3358L33.6691 27.3358L33.6368 27.4514ZM32.715 28.079L32.5958 28.065L32.5958 28.0653L32.715 28.079ZM32.7024 28.4555H32.8224L32.8224 28.4547L32.7024 28.4555ZM32.7024 28.4556H32.5824L32.5824 28.4564L32.7024 28.4556ZM32.7009 44.7203L32.5809 44.7203V44.7203H32.7009ZM32.6579 45.254L32.5407 45.2286L32.5406 45.2288L32.6579 45.254ZM32.111 45.7888L32.0987 45.6694L32.0986 45.6694L32.111 45.7888ZM31.0274 45.7878L31.0153 45.9072L31.0153 45.9072L31.0274 45.7878ZM30.4665 45.1026L30.3467 45.1095L30.3467 45.1096L30.4665 45.1026ZM30.4573 44.4968L30.5773 44.4975V44.4968H30.4573ZM30.4573 44.4964L30.3373 44.4957V44.4964H30.4573ZM30.4581 44.3121H30.5781L30.5781 44.312L30.4581 44.3121ZM30.4553 36.9075H30.3353V36.9077L30.4553 36.9075ZM30.401 36.3757L30.5169 36.3444L30.5169 36.3444L30.401 36.3757ZM29.6811 35.8649L29.6852 35.9849L29.6852 35.9849L29.6811 35.8649ZM29.0042 36.3862L29.1193 36.4202L29.1194 36.42L29.0042 36.3862ZM28.9519 36.9181L29.0719 36.9182V36.9181H28.9519ZM27.9506 45.8175L27.9508 45.9375H27.9509L27.9506 45.8175ZM26.7057 28.4727L26.8257 28.4736V28.4727H26.7057ZM26.7057 28.4725L26.5857 28.4717V28.4725H26.7057ZM26.6987 28.1394L26.5791 28.1485L26.5791 28.1488L26.6987 28.1394ZM25.9667 27.4169L25.9658 27.5369L25.9661 27.5369L25.9667 27.4169ZM25.2206 28.1308L25.1011 28.1197L25.101 28.1204L25.2206 28.1308ZM25.2152 28.3962H25.3352L25.3352 28.3947L25.2152 28.3962ZM25.2152 28.3964H25.0951L25.0952 28.3979L25.2152 28.3964ZM18.8868 45.6099L18.9577 45.7067L18.8197 45.5103L18.8868 45.6099ZM15.6862 45.5391L15.7687 45.4519L15.7686 45.4519L15.6862 45.5391ZM18.8829 45.6127L18.812 45.5159L18.6728 45.6179L18.8168 45.7129L18.8829 45.6127ZM18.9212 45.638L18.8551 45.7382L18.8551 45.7382L18.9212 45.638ZM19.017 45.7026L19.0869 45.605L19.0863 45.6046L19.017 45.7026ZM21.5019 45.9349L21.4486 45.8274L21.4486 45.8274L21.5019 45.9349ZM22.7953 43.8442L22.6753 43.8436V43.8437L22.7953 43.8442ZM22.7953 38.6082L22.6753 38.6084V38.6085L22.7953 38.6082ZM22.0238 37.7841L22.0225 37.9041L22.0228 37.9041L22.0238 37.7841ZM21.2395 38.59L21.3595 38.5941L21.3595 38.5938L21.2395 38.59ZM21.2367 39.0202H21.3567L21.3567 39.0194L21.2367 39.0202ZM21.2367 39.0204H21.1167L21.1167 39.0215L21.2367 39.0204ZM21.2367 39.0207L21.3567 39.0198L21.3567 39.0196L21.2367 39.0207ZM21.2381 43.6511H21.3581L21.3581 43.6497L21.2381 43.6511ZM21.2381 43.6511H21.1181L21.1181 43.6524L21.2381 43.6511ZM21.2346 43.8614L21.3543 43.8701L21.3543 43.8699L21.2346 43.8614ZM20.4572 44.6587L20.4588 44.7786H20.4589L20.4572 44.6587ZM19.6642 43.8432L19.5442 43.8451L19.5442 43.8451L19.6642 43.8432ZM19.6574 42.1767L19.7774 42.1769V42.1767H19.6574ZM19.6574 42.1766L19.5374 42.1764V42.1766H19.6574ZM19.6564 41.046L19.5364 41.0467V41.0467L19.6564 41.046ZM19.5996 40.5517L19.7133 40.5134L19.7132 40.5132L19.5996 40.5517ZM18.7439 40.0881L18.7262 39.9694L18.726 39.9694L18.7439 40.0881ZM18.1016 40.8481L18.2216 40.8493V40.8492L18.1016 40.8481ZM18.0937 43.8604L17.9738 43.8592L17.9738 43.8594L18.0937 43.8604ZM17.3252 44.6596L17.3233 44.5396H17.3233L17.3252 44.6596ZM16.5399 43.8795L16.4201 43.8854L16.4201 43.8857L16.5399 43.8795ZM16.5366 43.6106L16.4166 43.6099V43.6099L16.5366 43.6106ZM16.537 43.521L16.417 43.521V43.521H16.537ZM16.5371 41.2045L16.6571 41.2045V41.2045H16.5371ZM16.5371 41.2043L16.4171 41.2043V41.2043H16.5371ZM16.5351 31.9383L16.6551 31.9382L16.6551 31.9376L16.5351 31.9383ZM16.4773 31.4077L16.3619 31.4408L16.362 31.441L16.4773 31.4077ZM15.7224 30.8991L15.7266 31.019L15.7266 31.019L15.7224 30.8991ZM15.0136 31.4201L14.8993 31.3835L14.8992 31.3839L15.0136 31.4201ZM14.9607 31.8799L15.0807 31.8804V31.8799H14.9607ZM14.9585 34.2728H15.0785V34.2728L14.9585 34.2728ZM14.9585 34.273H14.8385V34.273L14.9585 34.273ZM14.9587 35.071H15.0787V35.071L14.9587 35.071ZM14.9587 35.4525L14.9433 35.5715L15.0787 35.5891V35.4525H14.9587ZM14.1892 34.5911H14.3092L14.3092 34.5909L14.1892 34.5911ZM14.1875 33.7843L14.3075 33.784V33.784L14.1875 33.7843ZM14.1902 28.6745L14.0702 28.6737L14.0702 28.6738L14.1902 28.6745ZM17.4485 25.5322L17.4482 25.4122H17.4482L17.4485 25.5322ZM18.5643 25.5322L18.5645 25.4122L18.5643 25.5322ZM20.423 25.5274L20.4243 25.6474L20.4244 25.6474L20.423 25.5274ZM21.2327 24.7683L21.1127 24.7678V24.7678L21.2327 24.7683ZM20.4269 24.0121L20.4276 23.8921H20.4276L20.4269 24.0121ZM19.7388 24.0068L19.7398 23.8868L19.7398 23.8868L19.7388 24.0068ZM19.7374 24.0068L19.7384 23.8868H19.7374V24.0068ZM19.7374 24.0068L19.7363 24.1268H19.7374V24.0068ZM16.9394 24.0274L16.9441 24.1474L16.9442 24.1473L16.9394 24.0274ZM12.6892 27.9518L12.809 27.9584L12.809 27.9584L12.6892 27.9518ZM12.6383 34.8684L12.7583 34.8662L12.7583 34.8662L12.6383 34.8684ZM14.6679 36.9907L14.649 37.1092L14.6493 37.1092L14.6679 36.9907ZM14.8084 37.0132L14.8276 36.8948L14.8276 36.8947L14.8084 37.0132ZM14.9597 37.0375H15.0797V36.935L14.9785 36.919L14.9597 37.0375ZM14.9602 39.358H15.0802V39.358L14.9602 39.358ZM14.9602 39.3584H14.8402V39.3585L14.9602 39.3584ZM14.9587 43.7256L14.8387 43.7254L14.8387 43.7254L14.9587 43.7256ZM45.2033 34.714L45.3232 34.7177L45.3232 34.7176L45.2033 34.714ZM44.4393 35.4477L44.4288 35.3281L44.4066 35.3301L44.3866 35.3399L44.4393 35.4477ZM45.2105 33.6444L45.3305 33.6438L45.2105 33.6444ZM45.2092 28.7579L45.3292 28.7576V28.7575L45.2092 28.7579ZM41.8912 25.5287L41.8914 25.4087H41.8913L41.8912 25.5287ZM40.9251 25.5291V25.6491H40.9252L40.9251 25.5291ZM40.9249 25.5291V25.4091H40.9248L40.9249 25.5291ZM38.9929 25.5259L38.992 25.6459L38.9929 25.5259ZM38.2054 24.9548L38.3213 24.9235L38.3212 24.9234L38.2054 24.9548ZM38.5468 24.1227L38.4933 24.0153L38.493 24.0154L38.5468 24.1227ZM39.0731 24.0098L39.0718 23.8898H39.0718L39.0731 24.0098ZM42.081 24.007L42.0796 24.1269H42.0796L42.081 24.007ZM46.7781 28.5465L46.6582 28.5486V28.5486L46.7781 28.5465ZM46.7811 34.6815L46.9011 34.6827V34.6826L46.7811 34.6815ZM44.4393 37.0335L44.424 36.9145L44.3193 36.928V37.0335H44.4393ZM44.4407 39.3264L44.3207 39.3266L44.4407 39.3264ZM44.4364 43.795L44.3164 43.7944V43.7945L44.4364 43.795ZM41.9577 46.1777L41.9474 46.2972L41.9474 46.2972L41.9577 46.1777ZM40.9314 45.8904L40.8892 46.0027L40.9314 45.8904ZM40.4053 45.7032L40.4418 45.5889L40.3815 45.5697L40.3316 45.6086L40.4053 45.7032ZM38.3864 46.1289L38.3585 46.2456L38.3586 46.2456L38.3864 46.1289ZM36.6139 44.0074L36.7339 44.006V44.0059L36.6139 44.0074ZM36.606 39.1918L36.726 39.1923V39.1923L36.606 39.1918ZM36.6081 38.5898L36.4881 38.5893V38.5893L36.6081 38.5898ZM37.4023 37.7901L37.4041 37.6701L37.4041 37.6701L37.4023 37.7901ZM38.1604 38.5831L38.0404 38.5835V38.5836L38.1604 38.5831ZM38.1646 42.0197L38.0446 42.0197V42.0197H38.1646ZM38.1646 42.0199L38.2846 42.0199V42.0199H38.1646ZM38.1643 43.6056H38.2843L38.2843 43.6056L38.1643 43.6056ZM38.9664 44.6674L38.9639 44.5474L38.9638 44.5474L38.9664 44.6674ZM39.7412 43.6133H39.8612L39.8612 43.6133L39.7412 43.6133ZM39.7409 42.7525L39.8609 42.7525V42.7525L39.7409 42.7525ZM39.7412 41.0298L39.6212 41.0294L39.6212 41.0296L39.7412 41.0298ZM40.5315 40.0848L40.5332 39.9648H40.5331L40.5315 40.0848ZM41.3004 41.0212L41.4204 41.0209V41.0208L41.3004 41.0212ZM41.3001 42.0108L41.1801 42.0106V42.0108H41.3001ZM41.3001 42.0109L41.4201 42.0111V42.0109H41.3001ZM41.3053 43.8916L41.1853 43.893V43.893L41.3053 43.8916ZM42.0223 44.6635L42.0329 44.544L42.0329 44.544L42.0223 44.6635ZM42.8263 44.1135L42.9432 44.1408L42.9432 44.1406L42.8263 44.1135ZM42.8587 43.6663H42.7387L42.7387 43.6667L42.8587 43.6663ZM42.8587 43.6663H42.9787L42.9787 43.666L42.8587 43.6663ZM42.8586 43.6143L42.7386 43.6142L42.7386 43.6145L42.8586 43.6143ZM42.8597 38.0697H42.7397V38.0698L42.8597 38.0697ZM42.8597 38.0695H42.9797V38.0695L42.8597 38.0695ZM42.8596 36.2234H42.7396V36.2234L42.8596 36.2234ZM42.8593 34.9616L42.9793 34.9615L42.8593 34.9616ZM42.8606 31.8101L42.9806 31.8103V31.8103L42.8606 31.8101ZM43.513 30.9081L43.5304 31.0268L43.5306 31.0268L43.513 30.9081ZM44.4344 31.7603L44.3144 31.7613V31.7614L44.4344 31.7603ZM44.4385 34.0987L44.3185 34.0985V34.0987H44.4385ZM44.4385 34.099L44.5585 34.0992V34.099H44.4385ZM44.4374 35.4486H44.3174V35.6409L44.4901 35.5564L44.4374 35.4486ZM37.2007 19.5191L37.3207 19.5186V19.5186L37.2007 19.5191ZM40.5028 22.8V22.68H40.5025L40.5028 22.8ZM40.4708 16.2L40.4701 16.08L40.4701 16.08L40.4708 16.2ZM43.8007 19.5057L43.9207 19.5057V19.5057L43.8007 19.5057ZM40.5038 22.8V22.92L40.5041 22.92L40.5038 22.8ZM42.1517 19.5026H42.0317V19.5027L42.1517 19.5026ZM40.4945 17.8477V17.9677H40.4946L40.4945 17.8477ZM18.9117 22.8L18.9115 22.68H18.9115L18.9117 22.8ZM15.5998 19.5211L15.4798 19.5216V19.5216L15.5998 19.5211ZM22.1998 19.5046L22.0798 19.5045V19.5046H22.1998ZM18.9148 16.2L18.9151 16.08L18.915 16.08L18.9148 16.2ZM20.5558 19.501L20.6758 19.501V19.501L20.5558 19.501ZM18.9024 17.8466L18.9021 17.7266L18.9024 17.8466ZM18.9055 21.1543V21.0343H18.9054L18.9055 21.1543ZM17.248 19.5046L17.368 19.5045V19.5045L17.248 19.5046ZM33.4807 17.0897C33.4873 19.1784 31.7943 20.8781 29.7045 20.88L29.7047 21.12C31.9272 21.118 33.7277 19.3104 33.7207 17.089L33.4807 17.0897ZM29.6795 13.3202C31.7537 13.2975 33.4731 15.0017 33.4807 17.0898L33.7207 17.0889C33.7126 14.8689 31.8857 13.0561 29.6769 13.0802L29.6795 13.3202ZM25.9207 17.0974C25.9245 15.0231 27.5954 13.3438 29.6796 13.3202L29.6769 13.0802C27.4624 13.1053 25.6847 14.8903 25.6807 17.0969L25.9207 17.0974ZM29.7045 20.88C27.6147 20.8819 25.9178 19.1849 25.9207 17.0973L25.6807 17.097C25.6777 19.3175 27.4823 21.122 29.7047 21.12L29.7045 20.88ZM29.7119 14.6516C28.343 14.6465 27.237 15.739 27.237 17.1001H27.477C27.477 15.8736 28.4733 14.887 29.711 14.8916L29.7119 14.6516ZM32.1654 17.1223C32.1746 15.7598 31.0792 14.6568 29.7119 14.6516L29.711 14.8916C30.9463 14.8963 31.9337 15.8918 31.9254 17.1207L32.1654 17.1223ZM29.7091 19.5641C31.0492 19.5569 32.1561 18.458 32.1654 17.1223L31.9254 17.1207C31.917 18.3239 30.9176 19.3176 29.7079 19.3241L29.7091 19.5641ZM27.237 17.1001C27.237 18.4523 28.3586 19.5713 29.7091 19.5641L29.7079 19.3241C28.4909 19.3306 27.477 18.3198 27.477 17.1001H27.237ZM34.0731 37.3867V37.816H34.3131V37.3867H34.0731ZM34.194 37.2667H34.1931V37.5067H34.194V37.2667ZM34.8045 37.2667H34.194V37.5067H34.8045V37.2667ZM37.0705 34.9571C37.0682 35.6607 36.8372 36.2349 36.4446 36.6333C36.0521 37.0317 35.4888 37.2639 34.8041 37.2667L34.805 37.5067C35.5451 37.5037 36.1724 37.2515 36.6155 36.8018C37.0585 36.3522 37.308 35.7146 37.3105 34.9579L37.0705 34.9571ZM37.0705 34.9569V34.9575H37.3105V34.9569H37.0705ZM37.0686 27.4465C37.0873 29.9495 37.0789 32.4526 37.0705 34.9565L37.3105 34.9573C37.3189 32.4537 37.3273 29.9492 37.3086 27.4447L37.0686 27.4465ZM32.6635 22.9324C35.1422 22.9529 37.0494 24.8973 37.0686 27.4465L37.3086 27.4447C37.2885 24.7695 35.2802 22.714 32.6655 22.6924L32.6635 22.9324ZM26.7409 22.9324C28.7147 22.9151 30.6896 22.9161 32.6635 22.9324L32.6655 22.6924C30.6903 22.6761 28.7141 22.6751 26.7388 22.6924L26.7409 22.9324ZM22.3572 27.2769C22.4155 24.8091 24.3308 22.9538 26.7409 22.9324L26.7388 22.6924C24.1994 22.715 22.1786 24.6737 22.1173 27.2712L22.3572 27.2769ZM22.3498 35.1076C22.3226 32.496 22.2956 29.8849 22.3572 27.2769L22.1173 27.2712C22.0555 29.8839 22.0827 32.4992 22.1098 35.1101L22.3498 35.1076ZM24.5447 37.2657C23.2982 37.2557 22.3631 36.3722 22.3498 35.1076L22.1098 35.1101C22.1245 36.5114 23.1714 37.4947 24.5427 37.5057L24.5447 37.2657ZM24.9798 37.2662C24.8305 37.2666 24.6876 37.267 24.5448 37.2657L24.5427 37.5057C24.6871 37.507 24.8314 37.5066 24.9805 37.5062L24.9798 37.2662ZM24.9803 37.2662H24.9802V37.5062H24.9803V37.2662ZM24.9805 37.2662H24.9803V37.5062H24.9805V37.2662ZM24.9807 37.2662H24.9805V37.5062H24.9807V37.2662ZM24.9809 37.2662H24.9807V37.5062H24.9809V37.2662ZM25.2169 37.2657C25.136 37.2657 25.0574 37.2659 24.9805 37.2662L24.9812 37.5062C25.0582 37.5059 25.1364 37.5057 25.2169 37.5057V37.2657ZM25.3369 37.8227V37.3857H25.0969V37.8227H25.3369ZM25.3364 39.7745C25.3366 39.124 25.3369 38.4734 25.3369 37.8227H25.0969C25.0969 38.4733 25.0967 39.1239 25.0964 39.7745L25.3364 39.7745ZM25.3364 39.7833L25.3364 39.7745L25.0964 39.7745L25.0964 39.7833L25.3364 39.7833ZM25.3364 39.7834V39.7833H25.0964V39.7834H25.3364ZM25.3364 39.7835V39.7834H25.0964V39.7835H25.3364ZM25.3364 39.7836V39.7835H25.0964V39.7836H25.3364ZM25.3364 39.7837V39.7836H25.0964V39.7837H25.3364ZM25.3387 45.0114C25.3353 43.2686 25.3359 41.5264 25.3364 39.7837L25.0964 39.7837C25.0959 41.5263 25.0953 43.2688 25.0987 45.0118L25.3387 45.0114ZM26.7193 47.0825C25.873 46.8279 25.3405 45.9848 25.3387 45.0114L25.0987 45.0118C25.1007 46.0661 25.6807 47.0207 26.6501 47.3123L26.7193 47.0825ZM29.4768 46.7972C28.6166 47.3984 27.6732 47.3692 26.7192 47.0825L26.6501 47.3123C27.6409 47.6101 28.6701 47.6538 29.6143 46.9939L29.4768 46.7972ZM29.885 46.7672C29.8468 46.7368 29.8019 46.727 29.7696 46.7235C29.7349 46.7199 29.6991 46.722 29.6662 46.727C29.603 46.7365 29.5302 46.7599 29.4769 46.7971L29.6142 46.994C29.6282 46.9842 29.6625 46.9703 29.7021 46.9643C29.7207 46.9614 29.7352 46.9612 29.7443 46.9622C29.7558 46.9634 29.7483 46.9652 29.7353 46.9549L29.885 46.7672ZM31.7702 47.2461C31.0709 47.2547 30.4333 47.2112 29.8857 46.7678L29.7346 46.9543C30.3538 47.4557 31.07 47.4947 31.7731 47.4861L31.7702 47.2461ZM34.0731 44.8612C34.0731 45.6028 33.8477 46.1922 33.4544 46.5979C33.0612 47.0033 32.4885 47.2373 31.7702 47.2461L31.7731 47.4861C32.5431 47.4766 33.1812 47.2243 33.6267 46.7649C34.0719 46.3057 34.3131 45.6518 34.3131 44.8612H34.0731ZM34.0731 37.816V44.8612H34.3131V37.816H34.0731ZM25.3359 35.8161V35.427H25.0959V35.8161H25.3359ZM25.215 35.9361H25.2159V35.6961H25.215V35.9361ZM25.199 35.9508C25.211 35.946 25.2283 35.939 25.2561 35.9288L25.1738 35.7033C25.1422 35.7149 25.122 35.7231 25.1089 35.7284L25.199 35.9508ZM25.1252 35.9687C25.1459 35.9687 25.1624 35.9642 25.1735 35.9605C25.1825 35.9576 25.1924 35.9535 25.1989 35.9508L25.1089 35.7284C25.1046 35.7301 25.1019 35.7312 25.0997 35.7321C25.0975 35.7329 25.0973 35.733 25.0981 35.7327C25.099 35.7324 25.1024 35.7313 25.1072 35.7304C25.1126 35.7293 25.1187 35.7287 25.1252 35.7287V35.9687ZM23.5926 34.5115C23.5795 35.2027 23.6912 35.6096 23.9837 35.8158C24.1273 35.917 24.3009 35.9593 24.4901 35.9751C24.6787 35.9909 24.8956 35.9811 25.1316 35.9685L25.1188 35.7288C24.88 35.7416 24.6795 35.7501 24.5101 35.736C24.3413 35.7219 24.2161 35.686 24.122 35.6197C23.9391 35.4907 23.8195 35.2048 23.8325 34.5161L23.5926 34.5115ZM23.6103 30.0723C23.6156 31.5535 23.621 33.033 23.5926 34.5115L23.8325 34.5161C23.861 33.0344 23.8556 31.5521 23.8503 30.0714L23.6103 30.0723ZM23.6075 27.5045C23.6041 28.3606 23.6072 29.2167 23.6103 30.0723L23.8503 30.0714C23.8472 29.2157 23.8441 28.3605 23.8475 27.5055L23.6075 27.5045ZM26.1124 24.2943C24.5977 24.6095 23.6143 25.8743 23.6075 27.5045L23.8475 27.5055C23.8538 25.9792 24.7665 24.8195 26.1613 24.5292L26.1124 24.2943ZM26.8689 24.2371C26.6249 24.2371 26.3631 24.2416 26.1122 24.2943L26.1615 24.5292C26.3855 24.4822 26.6248 24.4771 26.8689 24.4771V24.2371ZM32.5142 24.2352C30.632 24.2314 28.7507 24.2323 26.8686 24.2371L26.8692 24.4771C28.751 24.4723 30.6319 24.4714 32.5137 24.4752L32.5142 24.2352ZM35.8024 27.6237C35.801 26.6045 35.4828 25.7563 34.9066 25.1618C34.33 24.5669 33.5057 24.2372 32.5142 24.2352L32.5137 24.4752C33.4509 24.4771 34.2095 24.7875 34.7343 25.3288C35.2594 25.8706 35.5611 26.6548 35.5624 27.624L35.8024 27.6237ZM35.8028 32.3922C35.8033 30.8028 35.8037 29.2133 35.8024 27.6237L35.5624 27.6239C35.5637 29.2133 35.5633 30.8027 35.5628 32.3922L35.8028 32.3922ZM35.8024 34.7764C35.8024 33.9816 35.8026 33.1869 35.8028 32.3922L35.5628 32.3922C35.5626 33.1869 35.5624 33.9816 35.5624 34.7764H35.8024ZM34.6213 35.9782C35.0421 35.9782 35.3547 35.9248 35.5527 35.723C35.75 35.5219 35.8024 35.2052 35.8024 34.7764H35.5624C35.5624 35.2052 35.5046 35.4294 35.3814 35.5549C35.259 35.6796 35.0409 35.7382 34.6213 35.7382V35.9782ZM34.1922 35.9782H34.6213V35.7382H34.1922V35.9782ZM34.0722 35.4155V35.8582H34.3122V35.4155H34.0722ZM34.0724 33.0553L34.0722 35.4155L34.3122 35.4155L34.3124 33.0553L34.0724 33.0553ZM34.0722 28.3349C34.0728 29.9084 34.0726 31.4818 34.0724 33.0553L34.3124 33.0553C34.3126 31.4819 34.3128 29.9083 34.3122 28.3348L34.0722 28.3349ZM33.6045 27.5669C33.7668 27.6124 33.8786 27.6934 33.9525 27.8106C34.0284 27.9307 34.0717 28.1005 34.0722 28.3351L34.3122 28.3347C34.3117 28.0738 34.2639 27.8541 34.1555 27.6825C34.0452 27.5078 33.8799 27.3948 33.6692 27.3358L33.6045 27.5669ZM32.8341 28.0931C32.8799 27.7051 33.2409 27.4654 33.6045 27.5669L33.6691 27.3358C33.1613 27.1939 32.6585 27.533 32.5958 28.065L32.8341 28.0931ZM32.8224 28.4547C32.8215 28.3277 32.8208 28.2087 32.8342 28.0927L32.5958 28.0653C32.5805 28.1982 32.5815 28.3319 32.5824 28.4563L32.8224 28.4547ZM32.8224 28.4556V28.4555H32.5824V28.4556H32.8224ZM32.8228 28.5457C32.8228 28.5152 32.8226 28.4848 32.8224 28.4548L32.5824 28.4564C32.5826 28.4866 32.5828 28.5162 32.5828 28.5457H32.8228ZM32.8209 44.7203C32.8228 39.3291 32.8228 33.9369 32.8228 28.5457H32.5828C32.5828 33.9369 32.5828 39.3291 32.5809 44.7203L32.8209 44.7203ZM32.7752 45.2795C32.8155 45.0936 32.8209 44.8997 32.8209 44.7203H32.5809C32.5809 44.8974 32.5752 45.0695 32.5407 45.2286L32.7752 45.2795ZM32.1233 45.9081C32.4736 45.872 32.7032 45.614 32.7753 45.2793L32.5406 45.2288C32.4856 45.4844 32.3244 45.6461 32.0987 45.6694L32.1233 45.9081ZM31.0153 45.9072C31.381 45.9444 31.7567 45.9464 32.1235 45.9081L32.0986 45.6694C31.7492 45.7059 31.39 45.7041 31.0396 45.6684L31.0153 45.9072ZM30.3467 45.1096C30.3695 45.5027 30.6187 45.8668 31.0153 45.9072L31.0396 45.6684C30.7966 45.6437 30.6046 45.4117 30.5863 45.0957L30.3467 45.1096ZM30.3373 44.4961C30.3362 44.6977 30.3349 44.9038 30.3467 45.1095L30.5863 45.0958C30.5751 44.8989 30.5762 44.7003 30.5773 44.4975L30.3373 44.4961ZM30.3373 44.4967V44.4968H30.5773V44.4967H30.3373ZM30.3373 44.4967V44.4967H30.5773V44.4967H30.3373ZM30.3373 44.4966V44.4967H30.5773V44.4966H30.3373ZM30.3373 44.4966V44.4966H30.5773V44.4966H30.3373ZM30.3373 44.4965V44.4966H30.5773V44.4965H30.3373ZM30.3373 44.4965V44.4965H30.5773V44.4965H30.3373ZM30.3373 44.4965V44.4965H30.5773V44.4965H30.3373ZM30.3373 44.4964V44.4965H30.5773V44.4964H30.3373ZM30.3381 44.3121C30.3381 44.3731 30.3377 44.4342 30.3373 44.4957L30.5773 44.4971C30.5777 44.4357 30.5781 44.3739 30.5781 44.3121H30.3381ZM30.3377 41.8438C30.3377 42.6665 30.3377 43.4893 30.3381 44.3121L30.5781 44.312C30.5777 43.4892 30.5777 42.6665 30.5777 41.8438H30.3377ZM30.3353 36.9077C30.3377 38.5533 30.3377 40.1984 30.3377 41.8438H30.5777C30.5777 40.1985 30.5777 38.5531 30.5753 36.9074L30.3353 36.9077ZM30.2852 36.407C30.3267 36.5606 30.3353 36.7324 30.3353 36.9075H30.5753C30.5753 36.7281 30.567 36.53 30.5169 36.3444L30.2852 36.407ZM29.6852 35.9849C29.9726 35.9751 30.2133 36.1412 30.2852 36.407L30.5169 36.3444C30.413 35.9605 30.0647 35.7318 29.677 35.745L29.6852 35.9849ZM29.1194 36.42C29.1621 36.2744 29.2328 36.1703 29.3234 36.1008C29.4142 36.0313 29.5337 35.99 29.6852 35.9849L29.6771 35.745C29.4854 35.7514 29.3151 35.8049 29.1775 35.9103C29.0398 36.0158 28.9436 36.1665 28.8891 36.3525L29.1194 36.42ZM29.0719 36.9181C29.0719 36.738 29.0754 36.5689 29.1193 36.4202L28.8892 36.3522C28.834 36.5389 28.8319 36.7416 28.8319 36.9181H29.0719ZM29.0691 44.7902C29.0691 42.1665 29.0691 39.5428 29.0719 36.9182L28.8319 36.918C28.8291 39.5427 28.8291 42.1665 28.8291 44.7902H29.0691ZM27.9509 45.9375C28.3422 45.9365 28.6377 45.8813 28.8272 45.6866C29.0157 45.4928 29.0691 45.1918 29.0691 44.7902H28.8291C28.8291 45.1879 28.7716 45.3995 28.6552 45.5192C28.5397 45.6378 28.3359 45.6966 27.9503 45.6975L27.9509 45.9375ZM26.5853 44.5296C26.5853 44.8157 26.5941 45.0482 26.6266 45.2337C26.6594 45.4201 26.7182 45.5722 26.8283 45.686C26.9389 45.8004 27.0873 45.8618 27.269 45.8957C27.4493 45.9293 27.6746 45.938 27.9508 45.9375L27.9504 45.6975C27.6754 45.698 27.4695 45.6889 27.313 45.6597C27.1579 45.6308 27.0638 45.5843 27.0008 45.5192C26.9374 45.4536 26.8916 45.3548 26.863 45.1922C26.8343 45.0289 26.8253 44.8146 26.8253 44.5296H26.5853ZM26.5853 28.5706V44.5296H26.8253V28.5706H26.5853ZM26.5857 28.4718C26.5855 28.5044 26.5853 28.5375 26.5853 28.5706H26.8253C26.8253 28.5385 26.8255 28.5063 26.8257 28.4736L26.5857 28.4718ZM26.5857 28.4726V28.4727H26.8257V28.4726H26.5857ZM26.5857 28.4726V28.4726H26.8257V28.4726H26.5857ZM26.5857 28.4725V28.4726H26.8257V28.4725H26.5857ZM26.5791 28.1488C26.5873 28.2531 26.5866 28.3595 26.5857 28.4717L26.8257 28.4734C26.8266 28.363 26.8275 28.2463 26.8183 28.13L26.5791 28.1488ZM25.9661 27.5369C26.2857 27.5384 26.5516 27.7889 26.5791 28.1485L26.8184 28.1302C26.7823 27.6581 26.4236 27.2991 25.9673 27.2969L25.9661 27.5369ZM25.3401 28.1419C25.3732 27.7851 25.6467 27.5345 25.9658 27.5369L25.9676 27.2969C25.5125 27.2935 25.1447 27.6504 25.1011 28.1197L25.3401 28.1419ZM25.3352 28.3947C25.3341 28.3049 25.3331 28.222 25.3401 28.1411L25.101 28.1204C25.0928 28.2151 25.0941 28.3099 25.0952 28.3976L25.3352 28.3947ZM25.3352 28.3962V28.3962H25.0952V28.3962H25.3352ZM25.3352 28.3962V28.3962H25.0952V28.3962H25.3352ZM25.3352 28.3962V28.3962H25.0952V28.3962H25.3352ZM25.3352 28.3963V28.3962H25.0952V28.3963H25.3352ZM25.3352 28.3963V28.3963H25.0952V28.3963H25.3352ZM25.3352 28.3964V28.3963H25.0952V28.3964H25.3352ZM25.3352 28.3964V28.3964H25.0952V28.3964H25.3352ZM25.3352 28.3964V28.3964H25.0952V28.3964H25.3352ZM25.3359 28.4901C25.3359 28.4581 25.3355 28.4261 25.3352 28.395L25.0952 28.3979C25.0956 28.4293 25.0959 28.4598 25.0959 28.4901H25.3359ZM25.3359 35.427V28.4901H25.0959V35.427H25.3359ZM18.8197 45.5103C18.2491 45.8948 17.692 46.0735 17.1784 46.0615C16.6665 46.0494 16.1871 45.8478 15.7687 45.4519L15.6037 45.6263C16.0615 46.0593 16.5964 46.2879 17.1728 46.3014C17.7474 46.3149 18.3525 46.1145 18.9539 45.7094L18.8197 45.5103ZM18.9538 45.7095L18.9577 45.7067L18.8159 45.5131L18.812 45.5159L18.9538 45.7095ZM18.9873 45.5378L18.949 45.5126L18.8168 45.7129L18.8551 45.7382L18.9873 45.5378ZM19.0863 45.6046C19.055 45.5824 19.0232 45.5615 18.9872 45.5378L18.8551 45.7382C18.8919 45.7624 18.9202 45.7811 18.9477 45.8005L19.0863 45.6046ZM21.4486 45.8274C20.6271 46.2353 19.8352 46.1407 19.0869 45.605L18.9472 45.8002C19.7615 46.383 20.6477 46.493 21.5553 46.0424L21.4486 45.8274ZM22.6753 43.8437C22.6716 44.7423 22.2682 45.4209 21.4486 45.8274L21.5552 46.0424C22.4588 45.5942 22.9112 44.8312 22.9153 43.8447L22.6753 43.8437ZM22.6753 38.6085C22.6802 40.3532 22.6831 42.0984 22.6753 43.8436L22.9153 43.8447C22.9231 42.0986 22.9202 40.3526 22.9153 38.6079L22.6753 38.6085ZM22.0228 37.9041C22.2205 37.9058 22.3809 37.9767 22.4924 38.0944C22.6042 38.2125 22.6749 38.3866 22.6753 38.6084L22.9153 38.608C22.9147 38.3346 22.8268 38.0985 22.6667 37.9294C22.5062 37.7599 22.2814 37.6663 22.0248 37.6641L22.0228 37.9041ZM21.3595 38.5938C21.3666 38.3673 21.4386 38.1954 21.5497 38.0816C21.6601 37.9686 21.8192 37.902 22.0225 37.9041L22.025 37.6641C21.7653 37.6615 21.5401 37.7479 21.378 37.914C21.2166 38.0793 21.1282 38.3128 21.1196 38.5863L21.3595 38.5938ZM21.3567 39.0194C21.3557 38.8756 21.3547 38.7349 21.3595 38.5941L21.1196 38.586C21.1147 38.7325 21.1157 38.8781 21.1167 39.0211L21.3567 39.0194ZM21.3567 39.0203V39.0202H21.1167V39.0203H21.3567ZM21.3567 39.0203V39.0203H21.1167V39.0203H21.3567ZM21.3567 39.0203V39.0203H21.1167V39.0203H21.3567ZM21.3567 39.0204V39.0203H21.1167V39.0204H21.3567ZM21.3567 39.0196L21.3567 39.0192L21.1167 39.0215L21.1167 39.0218L21.3567 39.0196ZM21.3576 39.2C21.3576 39.1396 21.3571 39.0795 21.3567 39.0198L21.1167 39.0215C21.1172 39.0813 21.1176 39.1406 21.1176 39.2H21.3576ZM21.3576 43.5746V39.2H21.1176V43.5746H21.3576ZM21.3581 43.6497C21.3578 43.6241 21.3576 43.5993 21.3576 43.5746H21.1176C21.1176 43.6008 21.1179 43.627 21.1181 43.6524L21.3581 43.6497ZM21.3581 43.6511V43.6511H21.1181V43.6511H21.3581ZM21.3543 43.8699C21.3598 43.7941 21.3589 43.719 21.3581 43.6498L21.1181 43.6524C21.1189 43.7233 21.1196 43.7884 21.1149 43.8528L21.3543 43.8699ZM20.4589 44.7786C20.9589 44.772 21.3162 44.3922 21.3543 43.8701L21.115 43.8526C21.0845 44.2693 20.8132 44.5339 20.4556 44.5387L20.4589 44.7786ZM19.5442 43.8451C19.553 44.3954 19.9478 44.7853 20.4588 44.7786L20.4557 44.5387C20.0855 44.5435 19.791 44.268 19.7842 43.8413L19.5442 43.8451ZM19.5374 42.1765C19.5364 42.7319 19.5354 43.2886 19.5442 43.8451L19.7842 43.8413C19.7754 43.2872 19.7764 42.7327 19.7774 42.1769L19.5374 42.1765ZM19.5374 42.1767V42.1767H19.7774V42.1767H19.5374ZM19.5374 42.1767V42.1767H19.7774V42.1767H19.5374ZM19.5374 42.1766V42.1767H19.7774V42.1766H19.5374ZM19.5374 42.1766V42.1766H19.7774V42.1766H19.5374ZM19.5364 41.0467C19.5387 41.4229 19.5381 41.7994 19.5374 42.1764L19.7774 42.1768C19.7781 41.8 19.7787 41.4226 19.7764 41.0452L19.5364 41.0467ZM19.4859 40.5901C19.5307 40.723 19.5354 40.8791 19.5364 41.0467L19.7764 41.0453C19.7754 40.8821 19.7722 40.6883 19.7133 40.5134L19.4859 40.5901ZM18.7615 40.2068C19.0959 40.157 19.3939 40.3192 19.4859 40.5903L19.7132 40.5132C19.5761 40.1093 19.1496 39.9063 18.7262 39.9694L18.7615 40.2068ZM18.2216 40.8492C18.2249 40.5028 18.4529 40.2533 18.7617 40.2067L18.726 39.9694C18.2986 40.0338 17.9861 40.3846 17.9816 40.8469L18.2216 40.8492ZM18.2177 42.3541C18.2172 41.8519 18.2167 41.3504 18.2216 40.8493L17.9816 40.8469C17.9767 41.3496 17.9772 41.8523 17.9777 42.3544L18.2177 42.3541ZM18.2137 43.8616C18.2186 43.3589 18.2182 42.8562 18.2177 42.3541L17.9777 42.3544C17.9782 42.8566 17.9786 43.3581 17.9738 43.8592L18.2137 43.8616ZM17.327 44.7796C17.827 44.7719 18.2093 44.3872 18.2137 43.8614L17.9738 43.8594C17.9704 44.259 17.6888 44.534 17.3233 44.5396L17.327 44.7796ZM16.4201 43.8857C16.4466 44.4025 16.8262 44.7874 17.327 44.7796L17.3233 44.5396C16.9645 44.5452 16.6803 44.2743 16.6598 43.8734L16.4201 43.8857ZM16.4166 43.6099C16.4161 43.699 16.4155 43.7919 16.4201 43.8854L16.6598 43.8736C16.6556 43.7879 16.6561 43.7016 16.6566 43.6114L16.4166 43.6099ZM16.417 43.521C16.417 43.5505 16.4168 43.58 16.4166 43.6099L16.6566 43.6114C16.6568 43.5816 16.657 43.5513 16.657 43.521H16.417ZM16.4171 41.2045L16.417 43.521L16.657 43.521L16.6571 41.2045L16.4171 41.2045ZM16.4171 41.2045V41.2045H16.6571V41.2045H16.4171ZM16.4171 41.2044V41.2045H16.6571V41.2044H16.4171ZM16.4171 41.2043V41.2044H16.6571V41.2043H16.4171ZM16.4171 41.2043V41.2043H16.6571V41.2043H16.4171ZM16.4151 31.9384C16.4174 35.0272 16.4172 38.1155 16.4171 41.2043L16.6571 41.2043C16.6572 38.1156 16.6574 35.0272 16.6551 31.9382L16.4151 31.9384ZM16.362 31.441C16.406 31.5931 16.4141 31.7631 16.4151 31.9389L16.6551 31.9376C16.6541 31.7597 16.6465 31.5607 16.5926 31.3743L16.362 31.441ZM15.7266 31.019C16.0338 31.0082 16.2864 31.1777 16.3619 31.4408L16.5926 31.3746C16.4821 30.9895 16.1179 30.7651 15.7182 30.7792L15.7266 31.019ZM15.1278 31.4567C15.1742 31.3121 15.2485 31.2076 15.3443 31.1373C15.4404 31.0668 15.5666 31.0246 15.7266 31.019L15.7183 30.7792C15.5199 30.786 15.3446 30.8394 15.2023 30.9438C15.0596 31.0485 14.9587 31.1983 14.8993 31.3835L15.1278 31.4567ZM15.0807 31.8799C15.0807 31.7273 15.0879 31.5827 15.128 31.4563L14.8992 31.3839C14.8472 31.5481 14.8407 31.7247 14.8407 31.8799H15.0807ZM15.0785 34.2728C15.0781 33.4748 15.0778 32.6773 15.0807 31.8804L14.8407 31.8795C14.8378 32.677 14.8381 33.475 14.8385 34.2729L15.0785 34.2728ZM15.0785 34.2729V34.2728H14.8385V34.2729H15.0785ZM15.0785 34.2729V34.2729H14.8385V34.2729H15.0785ZM15.0785 34.2729V34.2729H14.8385V34.2729H15.0785ZM15.0785 34.273V34.2729H14.8385V34.273H15.0785ZM15.0787 35.071L15.0785 34.273L14.8385 34.273L14.8387 35.0711L15.0787 35.071ZM15.0787 35.4525V35.071H14.8387V35.4525H15.0787ZM14.0692 34.5911C14.0692 34.8776 14.1238 35.11 14.2746 35.2797C14.4252 35.449 14.6518 35.5336 14.9433 35.5715L14.9742 35.3335C14.7066 35.2987 14.5484 35.2265 14.454 35.1202C14.3599 35.0144 14.3092 34.8524 14.3092 34.5911H14.0692ZM14.0675 33.7846L14.0692 34.5914L14.3092 34.5909L14.3075 33.784L14.0675 33.7846ZM14.0702 28.6738C14.06 30.3776 14.0637 32.0814 14.0675 33.7846L14.3075 33.784C14.3037 32.0807 14.3 30.3779 14.3102 28.6752L14.0702 28.6738ZM17.4482 25.4122C16.4682 25.4151 15.6257 25.7477 15.026 26.325C14.426 26.9026 14.0762 27.7185 14.0702 28.6737L14.3102 28.6753C14.3158 27.7797 14.6426 27.0273 15.1925 26.4979C15.7427 25.9682 16.5236 25.655 17.4489 25.6522L17.4482 25.4122ZM18.5645 25.4122C18.1926 25.4116 17.8204 25.4111 17.4482 25.4122L17.4489 25.6522C17.8205 25.6511 18.1922 25.6516 18.5641 25.6522L18.5645 25.4122ZM20.4217 25.4074C19.8033 25.414 19.1844 25.4131 18.5645 25.4122L18.5641 25.6522C19.1838 25.6531 19.8042 25.654 20.4243 25.6474L20.4217 25.4074ZM21.1127 24.7678C21.1111 25.1185 20.8345 25.4024 20.4215 25.4074L20.4244 25.6474C20.9553 25.6409 21.3504 25.2633 21.3527 24.7689L21.1127 24.7678ZM20.4262 24.1321C20.8394 24.1347 21.1143 24.4197 21.1127 24.7678L21.3527 24.7689C21.355 24.2757 20.9602 23.8954 20.4276 23.8921L20.4262 24.1321ZM19.7377 24.1268C19.9671 24.1288 20.1967 24.1308 20.4262 24.1321L20.4276 23.8921C20.1985 23.8908 19.9693 23.8888 19.7398 23.8868L19.7377 24.1268ZM19.7375 24.1268L19.7378 24.1268L19.7398 23.8868L19.7394 23.8868L19.7375 24.1268ZM19.7371 24.1268L19.7375 24.1268L19.7394 23.8868L19.7391 23.8868L19.7371 24.1268ZM19.7368 24.1268L19.7371 24.1268L19.7391 23.8868L19.7387 23.8868L19.7368 24.1268ZM19.7364 24.1268L19.7368 24.1268L19.7387 23.8868L19.7384 23.8868L19.7364 24.1268ZM19.7374 24.1268H19.7374V23.8868H19.7374V24.1268ZM19.7374 24.1268H19.7374V23.8868H19.7374V24.1268ZM19.7374 24.1268H19.7374V23.8868H19.7374V24.1268ZM19.7374 24.1268H19.7374V23.8868H19.7374V24.1268ZM16.9442 24.1473C17.8724 24.1107 18.803 24.1187 19.7363 24.1268L19.7384 23.8868C18.806 23.8787 17.8696 23.8706 16.9347 23.9075L16.9442 24.1473ZM12.809 27.9584C12.8638 26.9682 13.3795 26.0358 14.1454 25.3388C14.9112 24.6418 15.9191 24.1877 16.9441 24.1474L16.9347 23.9075C15.8469 23.9504 14.7865 24.4308 13.9838 25.1613C13.1812 25.8918 12.6283 26.88 12.5694 27.9452L12.809 27.9584ZM12.7583 34.8662C12.7162 32.5609 12.682 30.2535 12.809 27.9584L12.5694 27.9452C12.4419 30.2503 12.4762 32.566 12.5183 34.8706L12.7583 34.8662ZM14.6869 36.8722C13.5804 36.6956 12.7776 35.9282 12.7583 34.8662L12.5183 34.8705C12.5402 36.0742 13.4547 36.9186 14.649 37.1092L14.6869 36.8722ZM14.8276 36.8947C14.7792 36.8869 14.7328 36.8794 14.6866 36.8721L14.6493 37.1092C14.6949 37.1164 14.7408 37.1238 14.7893 37.1317L14.8276 36.8947ZM14.9785 36.919C14.9248 36.9105 14.8752 36.9025 14.8276 36.8948L14.7893 37.1317C14.8368 37.1394 14.8868 37.1475 14.9409 37.156L14.9785 36.919ZM15.0797 37.4859V37.0375H14.8397V37.4859H15.0797ZM15.0802 39.358C15.08 38.734 15.0797 38.11 15.0797 37.4859H14.8397C14.8397 38.11 14.84 38.7341 14.8402 39.3581L15.0802 39.358ZM15.0802 39.3581V39.358H14.8402V39.3581H15.0802ZM15.0802 39.3582V39.3581H14.8402V39.3582H15.0802ZM15.0802 39.3583V39.3582H14.8402V39.3583H15.0802ZM15.0802 39.3584V39.3583H14.8402V39.3584H15.0802ZM15.0787 43.7258C15.0815 42.2697 15.0809 40.814 15.0802 39.3584L14.8402 39.3585C14.8409 40.8142 14.8415 42.2696 14.8387 43.7254L15.0787 43.7258ZM15.7686 45.4519C15.2727 44.9831 15.0778 44.3998 15.0787 43.7258L14.8387 43.7254C14.8377 44.4509 15.0501 45.1029 15.6037 45.6263L15.7686 45.4519ZM45.0833 34.7104C45.0772 34.9137 45.0186 35.0526 44.9206 35.1467C44.8206 35.2426 44.6632 35.3075 44.4288 35.3281L44.4499 35.5672C44.7153 35.5438 44.9331 35.4672 45.0867 35.3199C45.2422 35.1708 45.3157 34.9649 45.3232 34.7177L45.0833 34.7104ZM45.0905 33.645C45.0922 34.0021 45.0939 34.3567 45.0833 34.7104L45.3232 34.7176C45.334 34.359 45.3322 34.0003 45.3305 33.6438L45.0905 33.645ZM45.0892 33.2429C45.0892 33.3771 45.0898 33.5112 45.0905 33.645L45.3305 33.6438C45.3298 33.51 45.3292 33.3764 45.3292 33.2429H45.0892ZM45.09 31.7478C45.0896 32.2461 45.0892 32.7445 45.0892 33.2429H45.3292C45.3292 32.7446 45.3296 32.2464 45.33 31.748L45.09 31.7478ZM45.0892 28.7582C45.0918 29.7546 45.0909 30.7511 45.09 31.7478L45.33 31.748C45.3309 30.7514 45.3318 29.7545 45.3292 28.7576L45.0892 28.7582ZM41.891 25.6487C42.8613 25.6501 43.6576 25.9622 44.2115 26.5009C44.7651 27.0392 45.0863 27.8134 45.0892 28.7583L45.3292 28.7575C45.3261 27.7569 44.9846 26.9179 44.3788 26.3288C43.7733 25.7399 42.9136 25.4102 41.8914 25.4087L41.891 25.6487ZM40.9252 25.6491C41.2472 25.6487 41.5691 25.6484 41.8911 25.6487L41.8913 25.4087C41.569 25.4084 41.2469 25.4087 40.9249 25.4091L40.9252 25.6491ZM40.925 25.6491H40.9251V25.4091H40.925V25.6491ZM40.9249 25.6491H40.925V25.4091H40.9249V25.6491ZM40.9249 25.6491H40.9249V25.4091H40.9249V25.6491ZM38.992 25.6459C39.6368 25.6503 40.2811 25.6497 40.925 25.6491L40.9248 25.4091C40.2807 25.4097 39.6374 25.4103 38.9937 25.4059L38.992 25.6459ZM38.0896 24.9862C38.1438 25.1863 38.2514 25.3526 38.4087 25.4686C38.5657 25.5843 38.7644 25.6443 38.992 25.6459L38.9937 25.4059C38.8075 25.4046 38.6605 25.356 38.5511 25.2754C38.4422 25.1951 38.3629 25.0773 38.3213 24.9235L38.0896 24.9862ZM38.493 24.0154C38.1327 24.1961 37.9891 24.616 38.0896 24.9863L38.3212 24.9234C38.2457 24.6452 38.3583 24.3515 38.6006 24.23L38.493 24.0154ZM39.0718 23.8898C38.883 23.8919 38.6699 23.9273 38.4933 24.0153L38.6003 24.2301C38.7348 24.1631 38.9091 24.1316 39.0744 24.1298L39.0718 23.8898ZM42.0823 23.887C41.0785 23.8755 40.0749 23.8793 39.0718 23.8898L39.0743 24.1298C40.0765 24.1193 41.0781 24.1155 42.0796 24.1269L42.0823 23.887ZM46.8981 28.5444C46.8519 25.9116 44.7603 23.9173 42.0823 23.887L42.0796 24.1269C44.6348 24.1559 46.6144 26.0526 46.6582 28.5486L46.8981 28.5444ZM46.9011 34.6826C46.9206 32.6376 46.9343 30.5902 46.8981 28.5444L46.6582 28.5486C46.6943 30.5909 46.6806 32.6354 46.6611 34.6803L46.9011 34.6826ZM44.4546 37.1525C45.207 37.0559 45.8164 36.786 46.2402 36.3616C46.6654 35.9358 46.8944 35.3637 46.9011 34.6827L46.6611 34.6803C46.655 35.3059 46.4463 35.8156 46.0704 36.192C45.6931 36.5699 45.1379 36.8228 44.424 36.9145L44.4546 37.1525ZM44.5593 37.4448V37.0335H44.3193V37.4448H44.5593ZM44.5607 39.3263C44.56 38.6991 44.5593 38.072 44.5593 37.4448H44.3193C44.3193 38.0721 44.32 38.6994 44.3207 39.3266L44.5607 39.3263ZM44.5564 43.7956C44.564 42.3057 44.5623 40.8158 44.5607 39.3263L44.3207 39.3266C44.3223 40.8162 44.324 42.3053 44.3164 43.7944L44.5564 43.7956ZM41.9474 46.2972C43.4043 46.4224 44.5492 45.2839 44.5564 43.7956L44.3164 43.7945C44.3099 45.1566 43.2715 46.1701 41.968 46.0581L41.9474 46.2972ZM40.8892 46.0027C41.2418 46.1352 41.5888 46.2663 41.9474 46.2972L41.968 46.0581C41.6482 46.0306 41.333 45.9131 40.9736 45.7781L40.8892 46.0027ZM40.3689 45.8176C40.5488 45.8749 40.7202 45.9393 40.8892 46.0027L40.9736 45.7781C40.8054 45.7149 40.6284 45.6484 40.4418 45.5889L40.3689 45.8176ZM38.3586 46.2456C39.1948 46.445 39.9292 46.2261 40.4791 45.7979L40.3316 45.6086C39.8348 45.9954 39.1743 46.1934 38.4142 46.0122L38.3586 46.2456ZM36.4939 44.0088C36.5064 45.0747 37.3149 45.996 38.3585 46.2456L38.4143 46.0122C37.4663 45.7854 36.745 44.9506 36.7339 44.006L36.4939 44.0088ZM36.486 39.1914C36.4804 40.7964 36.4748 42.4025 36.4939 44.0088L36.7339 44.0059C36.7148 42.4018 36.7204 40.7976 36.726 39.1923L36.486 39.1914ZM36.4881 38.5893L36.486 39.1914L36.726 39.1923L36.7281 38.5902L36.4881 38.5893ZM37.4041 37.6701C37.1446 37.6664 36.9142 37.7541 36.7482 37.919C36.5823 38.0839 36.4892 38.3173 36.4881 38.5893L36.7281 38.5902C36.7289 38.3734 36.8021 38.2037 36.9174 38.0893C37.0326 37.9748 37.1984 37.9072 37.4006 37.9101L37.4041 37.6701ZM38.2804 38.5826C38.2794 38.3156 38.193 38.0875 38.0347 37.9247C37.8764 37.7618 37.6555 37.6739 37.4041 37.6701L37.4006 37.9101C37.5972 37.913 37.7544 37.9806 37.8626 38.092C37.9709 38.2034 38.0396 38.3684 38.0404 38.5835L38.2804 38.5826ZM38.2846 42.0198C38.2852 40.8742 38.2858 39.7282 38.2804 38.5825L38.0404 38.5836C38.0458 39.7286 38.0452 40.874 38.0446 42.0197L38.2846 42.0198ZM38.2846 42.0198V42.0197H38.0446V42.0198H38.2846ZM38.2846 42.0198V42.0198H38.0446V42.0198H38.2846ZM38.2846 42.0199V42.0198H38.0446V42.0199H38.2846ZM38.2843 43.6056C38.284 43.0771 38.2843 42.5486 38.2846 42.0199L38.0446 42.0198C38.0443 42.5484 38.044 43.0771 38.0443 43.6057L38.2843 43.6056ZM38.9638 44.5474C38.7401 44.5524 38.5783 44.4742 38.4682 44.3285C38.3538 44.1772 38.2843 43.9385 38.2843 43.6056H38.0443C38.0443 43.9662 38.1187 44.2642 38.2767 44.4732C38.439 44.6879 38.6782 44.7938 38.9691 44.7873L38.9638 44.5474ZM39.6212 43.6133C39.6212 43.9387 39.5559 44.1704 39.4464 44.3192C39.341 44.4626 39.1845 44.5428 38.9639 44.5474L38.969 44.7873C39.2532 44.7814 39.484 44.6731 39.6398 44.4614C39.7915 44.2552 39.8612 43.9651 39.8612 43.6133H39.6212ZM39.6209 42.7525L39.6212 43.6133L39.8612 43.6133L39.8609 42.7525L39.6209 42.7525ZM39.6212 41.0296C39.6205 41.6043 39.6207 42.1786 39.6209 42.7526L39.8609 42.7525C39.8607 42.1784 39.8605 41.6044 39.8612 41.0299L39.6212 41.0296ZM40.5331 39.9648C40.2498 39.9611 40.0148 40.0511 39.8533 40.2438C39.695 40.4326 39.6222 40.7024 39.6212 41.0294L39.8612 41.0302C39.8621 40.7336 39.9286 40.5275 40.0372 40.398C40.1425 40.2724 40.3016 40.2018 40.53 40.2048L40.5331 39.9648ZM41.4204 41.0208C41.4193 40.7077 41.3452 40.4449 41.1909 40.2572C41.0341 40.0664 40.8066 39.9685 40.5332 39.9648L40.5299 40.2048C40.7446 40.2077 40.9006 40.282 41.0056 40.4097C41.1132 40.5406 41.1795 40.7425 41.1804 41.0216L41.4204 41.0208ZM41.4201 42.011C41.4206 41.6811 41.421 41.351 41.4204 41.0209L41.1804 41.0214C41.181 41.351 41.1806 41.6807 41.1801 42.0106L41.4201 42.011ZM41.4201 42.0109V42.0108H41.1801V42.0109H41.4201ZM41.4201 42.0109V42.0109H41.1801V42.0109H41.4201ZM41.4201 42.0109V42.0109H41.1801V42.0109H41.4201ZM41.4253 43.8903C41.4182 43.2645 41.4191 42.6382 41.4201 42.0111L41.1801 42.0108C41.1791 42.6376 41.1782 43.2654 41.1853 43.893L41.4253 43.8903ZM42.0329 44.544C41.682 44.5129 41.4294 44.2567 41.4253 43.8903L41.1853 43.893C41.1909 44.3874 41.5428 44.7415 42.0117 44.7831L42.0329 44.544ZM42.7095 44.0863C42.6454 44.3609 42.3346 44.5709 42.0329 44.544L42.0116 44.7831C42.4181 44.8193 42.8488 44.5453 42.9432 44.1408L42.7095 44.0863ZM42.7387 43.6667C42.7392 43.8194 42.739 43.9584 42.7094 44.0865L42.9432 44.1406C42.9802 43.9807 42.9792 43.8133 42.9787 43.666L42.7387 43.6667ZM42.7387 43.6663V43.6663H42.9787V43.6663H42.7387ZM42.7386 43.6145L42.7387 43.6665L42.9787 43.666L42.9786 43.614L42.7386 43.6145ZM42.7397 38.0698C42.7399 39.9179 42.7401 41.7658 42.7386 43.6142L42.9786 43.6143C42.9801 41.7658 42.9799 39.9179 42.9797 38.0697L42.7397 38.0698ZM42.7397 38.0697V38.0697H42.9797V38.0697H42.7397ZM42.7397 38.0696V38.0697H42.9797V38.0696H42.7397ZM42.7397 38.0695V38.0696H42.9797V38.0695H42.7397ZM42.7396 36.2234L42.7397 38.0695L42.9797 38.0695L42.9796 36.2234L42.7396 36.2234ZM42.7393 34.9616C42.7394 35.3822 42.7396 35.8028 42.7396 36.2234H42.9796C42.9796 35.8027 42.9794 35.3821 42.9793 34.9615L42.7393 34.9616ZM42.7406 31.8098C42.7385 32.8605 42.7389 33.9111 42.7393 34.9616L42.9793 34.9615C42.9789 33.911 42.9785 32.8606 42.9806 31.8103L42.7406 31.8098ZM43.4956 30.7894C43.2609 30.8238 43.0682 30.9353 42.9361 31.1166C42.8056 31.2957 42.7411 31.5331 42.7406 31.8099L42.9806 31.8103C42.981 31.5687 43.0373 31.3852 43.1301 31.258C43.2212 31.1329 43.3543 31.0527 43.5304 31.0268L43.4956 30.7894ZM44.5544 31.7593C44.5518 31.4402 44.4447 31.173 44.2517 30.9964C44.0579 30.8191 43.791 30.7457 43.4954 30.7894L43.5306 31.0268C43.7652 30.9921 43.9566 31.0517 44.0897 31.1735C44.2237 31.296 44.3122 31.4942 44.3144 31.7613L44.5544 31.7593ZM44.5585 34.0989C44.56 33.3195 44.5614 32.5392 44.5544 31.7593L44.3144 31.7614C44.3214 32.5399 44.32 33.3189 44.3185 34.0985L44.5585 34.0989ZM44.5585 34.0988V34.0987H44.3185V34.0988H44.5585ZM44.5585 34.0989V34.0988H44.3185V34.0989H44.5585ZM44.5585 34.099V34.0989H44.3185V34.099H44.5585ZM44.5574 35.0612C44.5574 34.7407 44.558 34.42 44.5585 34.0992L44.3185 34.0988C44.318 34.4196 44.3174 34.7404 44.3174 35.0612H44.5574ZM44.5574 35.4486V35.0612H44.3174V35.4486H44.5574ZM44.3866 35.3399L44.3846 35.3408L44.4901 35.5564L44.4921 35.5554L44.3866 35.3399ZM37.0807 19.5196C37.0882 21.412 38.6103 22.9242 40.503 22.92L40.5025 22.68C38.7421 22.6839 37.3277 21.2787 37.3207 19.5186L37.0807 19.5196ZM40.4701 16.08C38.587 16.0907 37.0732 17.6287 37.0807 19.5196L37.3207 19.5186C37.3137 17.759 38.722 16.3299 40.4714 16.32L40.4701 16.08ZM43.9207 19.5057C43.9218 17.6116 42.3692 16.0693 40.4701 16.08L40.4714 16.32C42.2379 16.3101 43.6817 17.7451 43.6807 19.5056L43.9207 19.5057ZM40.5041 22.92C42.3934 22.9157 43.9196 21.3912 43.9207 19.5057L43.6807 19.5056C43.6797 21.2582 42.2611 22.676 40.5035 22.68L40.5041 22.92ZM40.5028 22.92H40.5038V22.68H40.5028V22.92ZM42.0317 19.5027C42.0327 20.3353 41.3329 21.0354 40.4966 21.0354V21.2754C41.4651 21.2754 42.2728 20.4682 42.2717 19.5024L42.0317 19.5027ZM40.4946 17.9677C41.3267 17.9667 42.0317 18.6708 42.0317 19.5026H42.2717C42.2717 18.538 41.459 17.7266 40.4944 17.7277L40.4946 17.9677ZM38.9645 19.5046C38.9645 18.666 39.6599 17.9677 40.4945 17.9677V17.7277C39.5263 17.7277 38.7245 18.5345 38.7245 19.5046H38.9645ZM40.4966 21.0354C39.6551 21.0354 38.9645 20.3467 38.9645 19.5046H38.7245C38.7245 20.4796 39.5229 21.2754 40.4966 21.2754V21.0354ZM18.9115 22.68C17.1534 22.6829 15.7268 21.2699 15.7198 19.5206L15.4798 19.5216C15.4873 21.4042 17.0225 22.9232 18.9119 22.92L18.9115 22.68ZM22.0798 19.5046C22.0798 21.2678 20.6731 22.677 18.9115 22.68L18.9119 22.92C20.806 22.9168 22.3198 21.4001 22.3198 19.5046H22.0798ZM18.9145 16.32C20.6656 16.3239 22.0808 17.7462 22.0798 19.5045L22.3198 19.5047C22.3209 17.6146 20.7991 16.0842 18.9151 16.08L18.9145 16.32ZM15.7198 19.5206C15.7129 17.7558 17.1491 16.317 18.9146 16.32L18.915 16.08C17.0165 16.0767 15.4723 17.6236 15.4798 19.5216L15.7198 19.5206ZM20.6758 19.501C20.6755 18.5318 19.8681 17.7244 18.9021 17.7266L18.9027 17.9666C19.7353 17.9647 20.4355 18.664 20.4358 19.501L20.6758 19.501ZM18.9055 21.2743C19.8796 21.2743 20.6755 20.4752 20.6758 19.501L20.4358 19.501C20.4355 20.3433 19.7465 21.0343 18.9055 21.0343V21.2743ZM17.128 19.5047C17.1291 20.4736 17.9361 21.2755 18.9056 21.2743L18.9054 21.0343C18.0677 21.0353 17.369 20.3402 17.368 19.5045L17.128 19.5047ZM18.9021 17.7266C17.9366 17.7288 17.1269 18.5402 17.128 19.5047L17.368 19.5045C17.3671 18.6727 18.0693 17.9685 18.9027 17.9666L18.9021 17.7266Z" fill="white" mask="url(#path-2-outside-1_442_8278)"/>
</svg>
