<svg width="60" height="60" viewBox="0 0 60 60" fill="none" xmlns="http://www.w3.org/2000/svg">
<circle cx="30" cy="30" r="27" fill="#82B958"/>
<path d="M14.25 29.7801C14.25 29.1914 14.25 28.6019 14.25 28.0133C14.2874 27.7226 14.3278 27.4327 14.3622 27.142C14.6755 24.5342 15.7137 22.268 17.5251 20.3699C19.379 18.4283 21.6695 17.1948 24.1559 16.2963C26.9731 15.2775 29.899 14.7604 32.8681 14.4808C35.8181 14.2034 38.7748 14.1909 41.7314 14.3642C42.3059 14.3982 42.8833 14.4343 43.4497 14.5288C44.1327 14.6424 44.4783 15.428 44.0835 15.9806C43.3873 16.9543 43.0007 18.0609 42.661 19.1874C41.6441 22.5609 41.1496 26.0347 40.7307 29.5219C40.5077 31.3824 40.1005 33.1912 39.3133 34.899C38.383 36.9181 37.0485 38.6001 35.2033 39.8527C32.8989 41.4181 30.3164 42.0237 27.5784 42.0112C24.8529 41.9987 22.2447 41.3746 19.7319 40.3307C19.1215 40.0769 18.5206 39.8003 17.9036 39.5281C17.8574 39.6233 17.8083 39.7081 17.7738 39.7981C17.3226 40.9769 16.8728 42.1565 16.4238 43.3369C16.3996 43.401 16.3827 43.4674 16.3593 43.5324C16.1538 44.0989 15.6381 44.3733 15.1091 44.197C14.5912 44.0251 14.3124 43.4719 14.5215 42.906C15.0372 41.511 15.5588 40.1175 16.1296 38.7446C16.3079 38.3153 16.3431 37.9745 16.1605 37.5355C15.4026 35.7134 14.8289 33.8315 14.5156 31.8774C14.4033 31.1824 14.3373 30.4794 14.25 29.7801ZM18.7664 37.7325C18.8456 37.7812 18.8691 37.7982 18.8948 37.8107C21.0745 38.8789 23.3459 39.6446 25.7648 39.9294C27.866 40.1765 29.9312 40.0615 31.9385 39.3341C33.6905 38.6989 35.1476 37.6565 36.2869 36.1715C37.5122 34.5744 38.2165 32.7456 38.5562 30.7811C38.8415 29.1301 39.0162 27.46 39.2649 25.8024C39.6456 23.2713 40.1174 20.7587 40.8929 18.3132C40.9215 18.2232 40.9369 18.1295 40.9662 18.0019C37.6149 19.6079 34.4513 21.4499 31.4382 23.6615C31.5468 23.691 31.5835 23.7021 31.6201 23.711C32.7302 23.9824 33.8549 24.0304 34.992 23.9566C35.5973 23.9175 36.0324 24.3321 36.0463 24.8928C36.061 25.4645 35.6685 25.854 35.0595 25.9056C33.232 26.0591 31.4595 25.8238 29.7383 25.1849C29.6444 25.1502 29.4837 25.1701 29.4081 25.2314C27.1631 27.0542 25.0656 29.0328 23.2021 31.254C23.1478 31.3189 23.1009 31.389 23.0414 31.4687C24.9013 32.0212 26.7714 32.3362 28.6884 32.3067C29.3018 32.2971 29.9144 32.2189 30.5284 32.1975C31.0479 32.1798 31.4595 32.576 31.5057 33.0975C31.5497 33.5962 31.1777 34.0691 30.6656 34.1318C30.2108 34.1871 29.753 34.2321 29.2959 34.2498C26.7934 34.3487 24.3569 33.9739 21.9828 33.1801C21.7935 33.1167 21.6856 33.1374 21.5712 33.3092C21.04 34.1082 20.4802 34.8887 19.9637 35.6965C19.5434 36.3537 19.1699 37.0413 18.7657 37.731L18.7664 37.7325ZM30.3575 21.908C30.392 21.922 30.4265 21.9368 30.461 21.9508C33.4616 19.7775 36.6369 17.9008 39.967 16.2719C39.8621 16.2358 39.7682 16.2343 39.675 16.2358C37.8408 16.2727 36.0052 16.2705 34.1733 16.3575C31.8109 16.4704 29.4771 16.8326 27.183 17.4161C24.6005 18.0734 22.153 19.0391 20.0349 20.7166C18.8926 21.621 17.9623 22.7069 17.3013 24.0142C16.2023 26.1867 16.0379 28.4979 16.3314 30.8682C16.528 32.4601 16.9462 34.0005 17.4744 35.5113C17.5075 35.605 17.5449 35.6972 17.5918 35.8211C17.6468 35.7474 17.6718 35.7178 17.6931 35.6854C18.5294 34.4202 19.3687 33.1558 20.1963 31.8847C20.2616 31.7851 20.2814 31.6243 20.2601 31.5033C19.7803 28.8174 20.1229 26.2096 21.0033 23.6564C21.0694 23.4653 21.2198 23.2787 21.3782 23.1488C21.7003 22.8869 22.1633 22.9076 22.4963 23.151C22.8514 23.4107 22.9908 23.8371 22.8309 24.307C22.4641 25.3878 22.1889 26.4892 22.076 27.6245C22.0121 28.2626 22.0019 28.9059 21.9666 29.5469C22.0855 29.53 22.1317 29.4997 22.1669 29.4599C24.029 27.3316 26.0751 25.3988 28.2666 23.6173C28.3473 23.5516 28.3972 23.4085 28.406 23.2978C28.461 22.5557 28.4617 21.8069 28.5571 21.07C28.6363 20.4614 28.7985 19.8601 28.9665 19.2685C29.0868 18.8436 29.4933 18.5935 29.907 18.6119C30.323 18.6304 30.7141 18.8974 30.7918 19.2995C30.8395 19.5466 30.794 19.8218 30.7463 20.0763C30.6312 20.6893 30.4896 21.2972 30.359 21.9073L30.3575 21.908Z" fill="white"/>
</svg>
