<svg width="60" height="60" viewBox="0 0 60 60" fill="none" xmlns="http://www.w3.org/2000/svg">
<circle cx="30.1045" cy="29.9785" r="26.4" fill="white" stroke="black" stroke-width="1.2"/>
<path d="M18.9004 13.2011C19.5521 13.2873 20.2067 13.3559 20.8547 13.4616C23.3616 13.8696 25.6562 14.7707 27.6152 16.4275C28.5951 17.2572 29.4499 18.2038 30.0628 19.3377C30.6042 20.3389 30.606 21.3819 30.1063 22.4073C29.9394 22.7494 29.9209 23.0776 29.958 23.454C30.0451 24.3366 30.0896 25.2257 30.1026 26.112C30.1091 26.5478 30.1953 26.9242 30.4355 27.2885C31.1605 28.3899 31.8743 29.4978 32.5771 30.6132C33.1741 31.5597 33.0314 32.6899 32.1868 33.3704C31.8669 33.6281 31.4395 33.7523 31.014 33.96C31.0297 34.0444 31.0937 34.214 31.0835 34.38C31.0603 34.7583 31.0881 35.1745 30.9342 35.499C30.7636 35.8578 30.7256 36.173 30.7674 36.5531C30.8369 37.1826 30.6199 37.7389 30.2 38.2182C30.1212 38.3072 30.0572 38.4426 30.0526 38.5585C29.9394 41.2508 27.6115 42.9205 25.023 42.1594C24.8654 42.113 24.7096 42.0555 24.5502 42.0194C24.082 41.9128 23.6555 42.152 23.5897 42.6248C23.509 43.1977 23.496 43.7809 23.4673 44.3613C23.4506 44.7006 23.4812 45.0427 23.4525 45.3801C23.3523 46.565 22.3937 47.2177 21.2599 46.8654C19.4678 46.3091 17.6803 45.738 15.8928 45.1688C15.3551 44.9982 15.115 44.594 15.254 44.1211C15.3866 43.6687 15.8326 43.4722 16.3842 43.6437C17.4949 43.9886 18.6028 44.3446 19.7116 44.695C20.3077 44.8841 20.9038 45.0733 21.5009 45.2606C21.602 45.2921 21.7058 45.3162 21.8541 45.356C21.8541 44.9472 21.8356 44.5773 21.8578 44.2111C21.8977 43.5445 21.8847 42.8612 22.0331 42.2159C22.3622 40.7798 23.751 40.065 25.2177 40.5323C25.8212 40.7242 26.4062 40.8104 27.02 40.5926C27.7589 40.3302 28.3661 39.5737 28.4032 38.7875C28.4338 38.1459 28.5386 37.5516 29.0244 37.0714C29.245 36.8535 29.208 36.5763 29.0522 36.3112C28.7101 35.7271 28.7824 35.4415 29.3007 35.016C29.4147 34.9224 29.4963 34.6934 29.474 34.545C29.4073 34.113 29.2701 33.6921 29.1783 33.2628C29.055 32.6871 29.4017 32.2643 29.9877 32.2551C30.2408 32.2514 30.4939 32.2643 30.7451 32.243C31.306 32.1957 31.4747 31.8573 31.1734 31.3854C30.4818 30.3026 29.793 29.2169 29.0837 28.1452C28.6545 27.4962 28.4913 26.8074 28.5061 26.0277C28.5219 25.209 28.4412 24.3858 28.3578 23.569C28.2985 22.9868 28.3012 22.4323 28.5859 21.9039C29.0049 21.1279 28.915 20.4094 28.4134 19.6825C26.752 17.2785 24.4269 15.9036 21.6307 15.2482C19.8414 14.8282 18.0307 14.6919 16.1978 14.8977C15.9827 14.9218 15.7528 14.9293 15.5442 14.882C15.2151 14.8097 15.0019 14.4861 15 14.1449C14.9982 13.788 15.1845 13.4913 15.5294 13.4014C15.8242 13.3244 16.1348 13.3087 16.438 13.2642C16.577 13.2438 16.7161 13.2215 16.8561 13.2002C17.5375 13.2002 18.2189 13.2002 18.9013 13.2002L18.9004 13.2011Z" fill="black"/>
<path d="M43.5948 25.9862C43.6013 26.3468 43.3834 26.5656 43.1164 26.7613C40.7347 28.5079 38.3557 30.2574 35.9749 32.005C35.8247 32.1153 35.6764 32.2321 35.5141 32.3211C35.1591 32.5167 34.7279 32.4268 34.5064 32.1283C34.2588 31.7936 34.2811 31.3829 34.5722 31.0788C34.6547 30.9926 34.7511 30.9175 34.8485 30.8461C37.2803 29.0568 39.7112 27.2656 42.1485 25.4846C42.3265 25.3539 42.5509 25.2408 42.7651 25.2148C43.2277 25.1583 43.5874 25.5189 43.5939 25.9862H43.5948Z" fill="black"/>
<path d="M34.3379 39.9392C34.3397 39.2736 34.9183 38.8999 35.4495 39.1428C35.5682 39.1966 35.6785 39.2726 35.7842 39.3505C38.2021 41.1584 40.6191 42.9681 43.037 44.7759C43.3281 44.9938 43.5775 45.2302 43.5376 45.6391C43.4838 46.1953 42.9378 46.518 42.4288 46.289C42.3296 46.2445 42.2378 46.1805 42.1506 46.1156C39.6799 44.2679 37.211 42.4174 34.7393 40.5715C34.4946 40.3889 34.3472 40.1645 34.3379 39.9383V39.9392Z" fill="black"/>
<path d="M40.3687 34.9561C41.599 34.9561 42.8293 34.958 44.0596 34.9552C44.397 34.9552 44.6909 35.0312 44.881 35.339C45.1471 35.7683 44.9496 36.3375 44.4703 36.4933C44.3377 36.5369 44.1903 36.5517 44.0494 36.5517C41.5888 36.5554 39.1283 36.5545 36.6677 36.5517C36.5379 36.5517 36.4035 36.5378 36.2783 36.5035C35.9149 36.4043 35.6961 36.0909 35.7128 35.7155C35.7286 35.3474 35.9835 35.0433 36.3497 34.9803C36.511 34.9534 36.6779 34.9561 36.842 34.9561C38.0176 34.9543 39.1922 34.9552 40.3678 34.9561H40.3687Z" fill="black"/>
</svg>
