<svg width="60" height="60" viewBox="0 0 60 60" fill="none" xmlns="http://www.w3.org/2000/svg">
<circle cx="30.1045" cy="29.9785" r="26.4" fill="white" stroke="black" stroke-width="1.2"/>
<path d="M51.4954 37.2961C51.4146 37.7133 51.3416 38.1328 51.2508 38.5477C50.2316 43.2056 46.0452 46.4492 41.1958 46.3419C36.5523 46.239 32.5152 42.7254 31.7339 38.0885C31.6244 37.4367 31.5934 36.7727 31.5215 36.0733C30.6948 36.4772 29.8316 36.506 28.9939 36.0755C28.8898 36.8933 28.8478 37.7056 28.6774 38.4902C27.6482 43.2311 23.4816 46.4625 18.5947 46.3419C13.9523 46.2268 9.96279 42.7309 9.14829 38.0652C9.10292 37.8063 9.0498 37.5518 9 37.2961C9 36.6875 9 36.0788 9 35.4701C9.1328 34.8515 9.2169 34.2163 9.40946 33.6176C9.63743 32.9116 9.90413 32.2077 10.2494 31.5526C12.258 27.7402 14.2898 23.9399 16.3227 20.1397C17.3076 18.2971 18.8027 17.1008 20.8511 16.6095C21.0038 16.573 21.1798 16.4147 21.2451 16.2686C22.0518 14.4559 23.869 13.4965 25.7835 13.8938C27.6106 14.2722 28.9153 15.9189 28.9197 17.8567C28.9219 18.8106 28.9197 19.7645 28.9197 20.7816C29.8039 20.3455 30.6671 20.3289 31.5757 20.7871C31.5757 19.7457 31.5635 18.7575 31.579 17.7693C31.6 16.4391 32.1467 15.3568 33.218 14.571C35.2774 13.0605 38.1835 13.855 39.2038 16.2033C39.3156 16.4612 39.4528 16.5763 39.7262 16.6427C41.7558 17.1329 43.2188 18.348 44.1937 20.1795C46.1802 23.9101 48.1655 27.6417 50.1619 31.3667C50.8148 32.5851 51.2719 33.86 51.4246 35.2389C51.4334 35.3174 51.4711 35.3927 51.4954 35.4701V37.2961ZM32.9158 31.3623C34.4331 28.9575 36.4527 27.4004 39.1109 26.7298C41.7823 26.0559 44.3066 26.4863 46.7645 27.8874C46.6616 27.6804 46.6062 27.5598 46.5431 27.4425C45.3347 25.1761 44.1196 22.913 42.9167 20.6421C41.914 18.7486 39.8745 17.6132 37.7818 17.8013C35.5906 17.9983 33.7735 19.4624 33.1449 21.5595C33.0343 21.9269 32.928 22.3154 32.9258 22.6939C32.907 25.5413 32.9158 28.3887 32.9158 31.3611V31.3623ZM27.5917 31.3678C27.5917 31.1631 27.5917 31.0834 27.5917 31.0037C27.5917 28.3754 27.594 25.7482 27.5884 23.1199C27.5884 22.8178 27.5541 22.5124 27.5098 22.2125C27.1967 20.0799 25.405 18.2584 23.257 17.8788C21.0083 17.4815 18.7164 18.5306 17.6828 20.4518C16.4135 22.8112 15.1585 25.1783 13.898 27.5432C13.8527 27.6284 13.8228 27.7225 13.7663 27.8575C18.8237 24.9315 24.7941 26.7265 27.5917 31.3667V31.3678ZM41.5632 45.0139C46.2742 45.0316 50.1442 41.155 50.1663 36.3975C50.1873 31.6765 46.3085 27.7656 41.5898 27.7524C36.8312 27.738 32.9192 31.5836 32.9037 36.288C32.8882 41.1406 36.7139 44.9962 41.5621 45.015L41.5632 45.0139ZM19.0008 45.0139C23.7074 45.0283 27.5762 41.1417 27.5917 36.3842C27.6061 31.6622 23.7229 27.7579 19.0019 27.7513C14.2444 27.7435 10.3379 31.5947 10.3291 36.3001C10.3202 41.1528 14.1481 44.9984 19.0008 45.0139ZM31.558 31.4076C31.5668 31.2959 31.5757 31.2306 31.5757 31.1653C31.5757 28.496 31.5757 25.8268 31.5757 23.1575C31.5757 23.0347 31.5657 22.9074 31.5358 22.7879C31.371 22.135 30.7656 21.7111 30.1083 21.7787C29.4399 21.8473 28.9286 22.4017 28.9253 23.1055C28.9153 24.9171 28.9219 26.7287 28.9219 28.5403C28.9219 29.4787 28.9219 30.4172 28.9219 31.4121C29.8128 30.965 30.6782 30.9572 31.5591 31.4065L31.558 31.4076ZM32.8705 18.9711C32.9081 18.9844 32.9446 18.9976 32.9822 19.0109C34.2228 17.4694 35.8485 16.6449 37.8172 16.4579C37.3247 15.5382 36.269 15.017 35.2442 15.1476C34.1553 15.2859 33.2113 16.0772 33.0044 17.1318C32.8871 17.7305 32.9114 18.3569 32.8716 18.9711H32.8705ZM22.6948 16.4634C24.6613 16.6371 26.2759 17.4826 27.5895 19.0983C27.5895 18.5638 27.5984 18.1422 27.5873 17.7206C27.5574 16.5873 26.8282 15.6157 25.7525 15.2638C24.5651 14.8754 23.1563 15.4143 22.6937 16.4634H22.6948ZM31.5735 33.7261C31.5757 33.009 30.9737 32.4025 30.2566 32.4003C29.5295 32.3981 28.9319 32.9835 28.9219 33.7072C28.9109 34.4476 29.5195 35.0585 30.2588 35.0518C30.9836 35.0452 31.5724 34.4509 31.5735 33.725V33.7261Z" fill="black"/>
<path d="M41.5365 29.7443C45.2006 29.741 48.1742 32.7234 48.1742 36.4041C48.1742 40.0228 45.1863 43.0197 41.5742 43.0219C37.8857 43.0241 34.8944 40.0594 34.8955 36.4019C34.8977 32.719 37.8613 29.7465 41.5354 29.7432L41.5365 29.7443ZM46.8462 36.4163C46.8662 33.5157 44.5001 31.0966 41.6195 31.0711C38.657 31.0457 36.239 33.4006 36.2235 36.3288C36.208 39.2836 38.5674 41.6784 41.5111 41.6939C44.4326 41.7094 46.8263 39.3412 46.8462 36.4163Z" fill="black"/>
<path d="M18.9434 43.0231C15.2627 43.0021 12.3035 40.0174 12.3224 36.3467C12.3412 32.6626 15.3502 29.7134 19.0596 29.7444C22.6873 29.7743 25.6243 32.7921 25.5989 36.4618C25.5734 40.0761 22.5633 43.043 18.9423 43.0231H18.9434ZM18.9412 41.6951C21.8617 41.7095 24.2543 39.3391 24.272 36.4131C24.2897 33.497 21.9026 31.079 18.9999 31.0713C16.0617 31.0635 13.6636 33.4229 13.6492 36.3345C13.6348 39.2893 15.9964 41.6807 18.9412 41.6951Z" fill="black"/>
</svg>
