<svg width="60" height="60" viewBox="0 0 60 60" fill="none" xmlns="http://www.w3.org/2000/svg">
<g clip-path="url(#clip0_1057_7903)">
<path d="M30 57C44.9117 57 57 44.9117 57 30C57 15.0883 44.9117 3 30 3C15.0883 3 3 15.0883 3 30C3 44.9117 15.0883 57 30 57Z" fill="#F8D512"/>
<path d="M33.7999 44.2001V44.3001H33.5999L33.7999 44.2001ZM33.7999 43.7001V44.2001H33.5999V43.7001H33.7999ZM34.4999 43.1001C34.2999 43.1001 34.0999 43.1001 33.9999 43.2001C33.8999 43.3001 33.7999 43.5001 33.7999 43.7001H33.5999C33.5999 43.4001 33.6999 43.2001 33.8999 43.1001C34.0999 43.0001 34.2999 42.9001 34.5999 42.9001L34.4999 43.1001ZM36.7999 43.4001C35.9999 43.3001 35.2999 43.2001 34.4999 43.1001V42.9001C35.2999 43.0001 35.9999 43.1001 36.7999 43.2001V43.4001ZM38.1999 42.2001C38.1999 42.6001 37.9999 42.9001 37.7999 43.1001C37.5999 43.3001 37.1999 43.4001 36.8999 43.4001V43.2001C37.0999 43.2001 37.3999 43.1001 37.5999 43.0001C37.7999 42.8001 37.8999 42.6001 37.9999 42.3001L38.1999 42.2001ZM38.1999 39.2001V42.3001H37.9999V39.2001H38.1999ZM38.1999 38.8001V39.2001H37.9999V38.8001C37.9999 38.7001 38.1999 38.8001 38.1999 38.8001ZM38.6999 38.3001C38.3999 38.3001 38.1999 38.5001 38.1999 38.8001H37.9999C38.0999 38.4001 38.3999 38.1001 38.7999 38.1001L38.6999 38.3001ZM39.4999 38.3001H38.6999V38.1001H39.4999V38.3001ZM39.9999 37.5001C40.0999 37.6001 40.0999 37.7001 40.0999 37.8001V38.1001C40.0999 38.2001 39.9999 38.2001 39.8999 38.3001H39.5999V38.1001H39.8999C39.9666 38.1001 39.9999 38.0668 39.9999 38.0001V37.9001C39.9999 37.8001 39.9999 37.7001 39.8999 37.6001L39.9999 37.5001ZM38.3999 34.3001C38.9999 35.3001 39.4999 36.4001 39.9999 37.5001L39.7999 37.6001C39.2999 36.5001 38.6999 35.5001 38.1999 34.4001L38.3999 34.3001ZM38.1999 33.6001C38.1999 33.9001 38.2999 34.1001 38.3999 34.4001L38.1999 34.5001C37.9999 34.2001 37.9999 33.9001 37.9999 33.6001C37.8999 33.6001 38.1999 33.6001 38.1999 33.6001ZM37.9999 30.6001C38.1999 31.6001 38.1999 32.6001 38.1999 33.6001H37.9999C37.9999 32.6001 37.9999 31.6001 37.7999 30.7001C37.7999 30.6001 37.9999 30.6001 37.9999 30.6001ZM30.8999 24.1001C34.3999 24.5001 37.1999 27.1001 37.9999 30.6001L37.7999 30.7001C37.0999 27.4001 34.2999 24.8001 30.8999 24.4001V24.1001ZM22.6999 28.4001C24.2999 25.4001 27.5999 23.7001 30.8999 24.1001V24.3001C27.5999 23.9001 24.3999 25.5001 22.8999 28.5001L22.6999 28.4001ZM22.8999 36.8001C21.1999 34.1001 21.0999 31.2001 22.5999 28.4001L22.7999 28.5001C21.3999 31.2001 21.4999 34.0001 23.0999 36.6001C23.0999 36.7001 22.8999 36.8001 22.8999 36.8001ZM24.1999 38.4001C23.7999 37.9001 23.2999 37.4001 22.8999 36.8001L23.0999 36.7001C23.3999 37.3001 23.8999 37.7001 24.2999 38.2001L24.1999 38.4001ZM24.4999 39.1001C24.4999 38.8001 24.3999 38.6001 24.1999 38.4001L24.3999 38.2001C24.5999 38.5001 24.6999 38.7001 24.6999 39.1001H24.4999ZM24.4999 44.1001V39.1001H24.6999V44.1001H24.4999ZM24.8999 44.6001C24.7999 44.6001 24.6999 44.5001 24.5999 44.5001C24.4999 44.4001 24.4999 44.3001 24.4999 44.2001H24.6999V44.4001C24.6999 44.4001 24.7999 44.4001 24.8999 44.5001V44.6001ZM33.3999 46.1001C30.5999 45.6001 27.6999 45.1001 24.8999 44.6001V44.4001C27.6999 44.9001 30.5999 45.4001 33.3999 45.9001V46.1001ZM33.6999 46.1001H33.3999V45.9001H33.5999L33.6999 46.1001ZM33.5999 47.3001H34.0999V47.5001H33.5999V47.3001ZM33.4999 47.2001C33.5666 47.2001 33.5999 47.2334 33.5999 47.3001L33.4999 47.5001H33.3999L33.4999 47.2001ZM24.5999 45.7001C27.4999 46.2001 30.4999 46.7001 33.3999 47.3001V47.5001C30.4999 47.0001 27.4999 46.4001 24.5999 45.9001V45.7001ZM23.3999 44.1001C23.3999 44.9001 23.8999 45.5001 24.6999 45.6001V45.8001C23.8999 45.7001 23.1999 45.0001 23.1999 44.0001L23.3999 44.1001ZM23.3999 39.4001V44.1001H23.1999V39.4001H23.3999ZM23.1999 39.0001C23.2999 39.1001 23.3999 39.3001 23.3999 39.4001H23.1999C23.1999 39.3001 23.1999 39.2001 23.0999 39.1001C22.9999 39.1001 23.1999 39.0001 23.1999 39.0001ZM20.5999 33.7001C20.8999 35.7001 21.7999 37.5001 23.1999 38.9001L22.9999 39.1001C21.5999 37.6001 20.6999 35.8001 20.3999 33.7001H20.5999ZM20.9999 29.5001C20.5999 30.9001 20.3999 32.3001 20.6999 33.8001H20.4999C20.2999 32.3001 20.3999 30.9001 20.7999 29.4001L20.9999 29.5001ZM23.6999 25.3001C22.3999 26.4001 21.4999 27.8001 20.9999 29.5001L20.7999 29.4001C21.2999 27.7001 22.2999 26.3001 23.5999 25.1001C23.4999 25.1001 23.6999 25.3001 23.6999 25.3001ZM29.4999 22.9001C27.2999 23.0001 25.2999 23.8001 23.6999 25.2001L23.4999 25.0001C25.1999 23.5001 27.1999 22.7001 29.4999 22.6001V22.9001ZM34.2999 24.1001C32.7999 23.3001 31.1999 22.9001 29.4999 23.0001V22.8001C31.2999 22.7001 32.8999 23.1001 34.3999 24.0001C34.4999 23.9001 34.2999 24.1001 34.2999 24.1001ZM38.6999 29.2001C37.8999 26.9001 36.3999 25.2001 34.2999 24.1001L34.3999 23.9001C36.5999 25.1001 38.0999 26.8001 38.8999 29.2001H38.6999ZM39.2999 33.1001C39.2999 31.8001 39.1999 30.5001 38.7999 29.2001L38.9999 29.1001C39.4999 30.4001 39.5999 31.7001 39.5999 33.0001L39.2999 33.1001ZM39.5999 34.3001C39.3999 33.9001 39.2999 33.5001 39.2999 33.1001H39.4999C39.4999 33.5001 39.5999 33.9001 39.7999 34.2001L39.5999 34.3001ZM41.0999 37.2001C40.5999 36.2001 40.0999 35.3001 39.5999 34.3001L39.7999 34.2001C40.2999 35.1001 40.7999 36.1001 41.2999 37.1001L41.0999 37.2001ZM40.0999 39.4001C40.5999 39.3001 40.9999 39.0001 41.1999 38.6001C41.3999 38.2001 41.3999 37.7001 41.0999 37.2001L41.2999 37.1001C41.5999 37.7001 41.5999 38.2001 41.3999 38.7001C41.1999 39.2001 40.7999 39.5001 40.1999 39.7001C40.0999 39.6001 40.0999 39.4001 40.0999 39.4001ZM39.3999 39.5001C39.6999 39.5001 39.8999 39.5001 40.0999 39.4001L40.1999 39.6001C39.9999 39.7001 39.6999 39.7001 39.4999 39.7001C39.3999 39.7001 39.3999 39.5001 39.3999 39.5001ZM39.2999 42.1001V39.9001H39.4999V42.1001H39.2999ZM37.3999 44.5001C38.4999 44.2001 39.2999 43.3001 39.2999 42.1001H39.4999C39.4999 43.4001 38.6999 44.5001 37.4999 44.8001L37.3999 44.5001ZM35.9999 44.5001C36.4999 44.6001 36.8999 44.7001 37.3999 44.6001L37.4999 44.8001C36.9999 44.9001 36.4999 44.8001 35.9999 44.8001V44.5001ZM34.9999 44.3001C35.2999 44.3001 35.6999 44.4001 35.9999 44.4001V44.6001C35.6999 44.6001 35.3999 44.5001 34.9999 44.5001V44.3001ZM34.8999 46.1001V44.4001H35.0999V46.1001H34.8999ZM34.2999 47.2001C34.6999 47.0001 34.8999 46.6001 34.8999 46.2001H35.0999C35.0999 46.7001 34.8999 47.2001 34.3999 47.4001L34.2999 47.2001ZM33.9999 47.3001C34.0999 47.3001 34.1999 47.2001 34.2999 47.2001L34.3999 47.4001C34.2999 47.5001 34.1999 47.5001 34.0999 47.5001L33.9999 47.3001ZM33.6999 46.0001H33.7999V46.1001H33.6999V46.0001ZM34.0999 47.4001V47.3001H34.3999L34.0999 47.4001ZM39.3999 39.6001H39.2999V39.5001H39.3999V39.6001ZM34.9999 44.5001H34.8999V44.4001H34.9999C34.9999 44.3001 34.9999 44.5001 34.9999 44.5001Z" fill="white"/>
<path d="M33.7 46H33.4C30.6 45.5 27.7 45 24.9 44.5C24.7 44.5 24.6 44.3999 24.6 44.0999V39.0999C24.6 38.7999 24.5 38.4999 24.3 38.2999C23.9 37.7999 23.4 37.3 23 36.7C21.4 34 21.3 31.1999 22.7 28.4C24.3 25.4 27.5 23.8 30.8 24.2C34.2 24.6 36.9999 27.2 37.7999 30.6C37.9999 31.6 38 32.6 38 33.6C38 33.9 38.1 34.2 38.2 34.4C38.8 35.4 39.3 36.4999 39.9 37.5999C40.1 38.0999 40 38.2 39.5 38.2H38.7C38.4 38.2 38.1 38.3999 38 38.7999V42.2999C38 42.8999 37.3999 43.4 36.7999 43.4C35.9999 43.3 35.3 43.1999 34.5 43.0999C34 42.9999 33.7 43.2999 33.6 43.7999V44.2999L33.7 46ZM34.1 47.4C34.2 47.4 34.3 47.2999 34.4 47.2999C34.9 47.0999 35 46.7 35 46.2V44.5C35.3 44.5 35.7 44.5999 36 44.5999C36.5 44.6999 36.9 44.7999 37.4 44.5999C38.6 44.2999 39.3 43.2999 39.4 42.0999V39.5999C39.6 39.5999 39.8999 39.6 40.0999 39.5C41.1999 39.2 41.7 38.1999 41.2 37.0999C40.7 36.0999 40.2 35.2 39.7 34.2C39.5 33.8 39.4 33.5 39.4 33C39.4 31.7 39.2999 30.4 38.7999 29.1C37.9999 26.8 36.5 25.1 34.3 23.9C32.8 23.1 31.2 22.7 29.4 22.7C27.2 22.8 25.2 23.6 23.5 25.1C22.2 26.3 21.3 27.6999 20.7 29.4C20.2 30.8 20.1 32.2 20.4 33.7C20.7 35.7 21.6 37.5 23 39C23.1 39.1 23.1 39.1999 23.1 39.2999V44C23.1 44.9 23.7 45.5 24.5 45.7C27.4 46.2 30.4 46.6999 33.3 47.2999H34.1V47.4Z" fill="white"/>
<path d="M13.2001 30.0999C13.5001 29.5999 13.9001 29.3999 14.5001 29.3999H18.2001C18.9001 29.3999 19.4001 29.9999 19.1001 30.5999C18.9001 30.9999 18.6001 31.1999 18.2001 31.1999H14.1001C13.6001 31.1999 13.3001 30.8999 13.1001 30.4999V30.0999H13.2001Z" fill="white"/>
<path d="M31.1999 16.2001V18.1001C31.1999 18.7001 30.7999 19.2001 30.2999 19.2001C29.7999 19.2001 29.3999 18.8001 29.3999 18.1001V14.2001C29.3999 13.6001 29.7999 13.1001 30.2999 13.1001C30.7999 13.1001 31.1999 13.5001 31.1999 14.2001V16.2001Z" fill="white"/>
<path d="M43.7999 29.3999H45.7C46.3 29.3999 46.7999 29.7999 46.7999 30.2999C46.7999 30.7999 46.4 31.1999 45.7 31.1999H41.7999C41.1999 31.1999 40.7 30.7999 40.7 30.2999C40.7 29.7999 41.0999 29.3999 41.7999 29.3999H43.7999Z" fill="white"/>
<path d="M22.7999 21.7C22.7999 22.2 22.5999 22.6 22.1999 22.7C21.7999 22.9 21.4999 22.8 21.1999 22.6C20.7999 22.3 20.4999 21.9 20.0999 21.6L18.2999 19.8C17.9999 19.5 17.8999 19.2 18.0999 18.8C18.1999 18.4 18.4999 18.2 18.8999 18.2C19.1999 18.2 19.4999 18.3 19.6999 18.5C20.6999 19.4 21.5999 20.4 22.4999 21.3C22.6999 21.3 22.6999 21.6 22.7999 21.7Z" fill="white"/>
<path d="M38.3 22.8C37.8 22.8 37.5 22.6 37.3 22.3C37.1 21.9 37.1 21.6 37.4 21.3C37.6 21 37.9 20.8 38.1 20.6C38.8 19.9 39.5 19.2 40.3 18.4C40.6 18.1 40.9 18 41.4 18.1C41.8 18.2 42 18.5 42.1 18.9C42.2 19.2 42.1 19.5 41.8 19.7C40.9 20.6 39.9 21.6 39 22.5C38.7 22.7 38.5 22.7 38.3 22.8Z" fill="white"/>
</g>
<defs>
<clipPath id="clip0_1057_7903">
<rect width="54" height="54" fill="white" transform="translate(3 3)"/>
</clipPath>
</defs>
</svg>
