<svg width="60" height="60" viewBox="0 0 60 60" fill="none" xmlns="http://www.w3.org/2000/svg">
<g clip-path="url(#clip0_1057_7903)">
<path d="M30 58C45.464 58 58 45.464 58 30C58 14.536 45.464 2 30 2C14.536 2 2 14.536 2 30C2 45.464 14.536 58 30 58Z" fill="#A72D18"/>
<path d="M34.7001 34.3C34.7001 36.5 36.3001 38.3 38.5001 38.3V37.9C36.5001 37.9 35.0001 36.3 35.1001 34.3H34.7001ZM38.6001 30.5C36.5001 30.5 34.8001 32.2 34.7001 34.3H35.1001C35.1001 32.4 36.7001 30.9 38.6001 30.9V30.5ZM42.4001 34.5C42.4001 32.3 40.8001 30.5 38.6001 30.5V30.9C40.6001 30.9 42.1001 32.5 42.0001 34.5H42.4001ZM38.5001 38.3C40.6001 38.3 42.3001 36.6 42.4001 34.5H42.0001C42.0001 36.4 40.3001 37.9 38.5001 37.9V38.3ZM24.2001 38.9C24.2001 36.7 22.5001 35 20.4001 35V35.4C22.3001 35.4 23.9001 37 23.8001 38.9H24.2001ZM20.3001 42.8C22.4001 42.8 24.1001 41.1 24.2001 39H23.8001C23.8001 40.9 22.2001 42.5 20.3001 42.5V42.8ZM16.5001 38.9C16.5001 41 18.2001 42.8 20.3001 42.8V42.4C18.4001 42.4 16.8001 40.8 16.9001 38.9H16.5001ZM20.4001 35C18.3001 35 16.5001 36.7 16.5001 38.8H16.9001C16.9001 36.9 18.5001 35.3 20.4001 35.3C20.4001 35.4 20.4001 35 20.4001 35ZM42.4001 19.2V15.1H42.0001V19.2H42.4001ZM25.9001 23.6C31.4001 22.2 36.8001 20.8 42.3001 19.4L42.2001 19C36.8001 20.4 31.3001 21.8 25.8001 23.2L25.9001 23.6ZM25.7001 19.3V23.4H26.0001V19.3H25.7001ZM42.2001 14.9C36.7001 16.3 31.3001 17.7 25.8001 19.1L25.9001 19.5C31.3001 18.1 36.8001 16.7 42.3001 15.3L42.2001 14.9ZM20.9001 44.3H19.7001V44.7H20.9001V44.3ZM21.1001 44.2C21.0001 44.2 20.9001 44.3 20.8001 44.3L20.9001 44.7C20.9668 44.7 21.0334 44.6667 21.1001 44.6V44.2ZM23.0001 43.6C22.4001 43.9 21.8001 44.2 21.1001 44.3L21.2001 44.7C21.9001 44.6 22.6001 44.4 23.2001 44L23.0001 43.6ZM25.7001 38.8C25.7001 40.9 24.8001 42.5 23.0001 43.6L23.2001 43.9C25.1001 42.7 26.1001 41 26.1001 38.8H25.7001ZM25.7001 25.7V38.8H26.0001V25.7H25.7001ZM26.2001 25C26.0001 25 25.9001 25.1 25.8001 25.2C25.7001 25.3 25.7001 25.5 25.7001 25.6H26.0001V25.4C26.0001 25.4 26.1001 25.4 26.2001 25.3C26.3001 25.4 26.2001 25 26.2001 25ZM39.8001 21.6C35.2001 22.8 30.7001 23.9 26.1001 25.1L26.2001 25.5C30.8001 24.3 35.3001 23.2 39.9001 22C39.9001 21.9 39.8001 21.6 39.8001 21.6ZM42.2001 21C41.4001 21.2 40.6001 21.4 39.9001 21.6L40.0001 22C40.8001 21.8 41.6001 21.6 42.3001 21.4C42.3001 21.3 42.2001 21 42.2001 21ZM42.4001 30.2V21.1H42.0001V30.2H42.4001ZM41.8001 30.2C41.8668 30.2667 41.9668 30.3333 42.1001 30.4L42.3001 30.1C42.2001 30 42.1001 29.9 42.0001 29.9L41.8001 30.2ZM37.4001 29.2C39.0001 28.8 40.5001 29.2 41.8001 30.2L42.0001 29.9C40.6001 28.8 39.0001 28.4 37.3001 28.8L37.4001 29.2ZM33.3001 35.3C32.9001 32.4 34.6001 29.9 37.4001 29.2L37.3001 28.8C34.3001 29.5 32.5001 32.2 32.9001 35.3H33.3001ZM40.3001 39.5C37.2001 40.6 33.8001 38.5 33.3001 35.2H32.9001C33.4001 38.7 37.1001 40.9 40.4001 39.8L40.3001 39.5ZM43.9001 34.3C43.9001 36.7 42.5001 38.7 40.3001 39.5L40.4001 39.8C42.8001 38.9 44.2001 36.8 44.2001 34.2L43.9001 34.3ZM43.9001 13V34.3H44.3001V13H43.9001ZM43.8001 13C43.9001 13 44.0001 13 44.1001 12.9L44.0001 12.5C43.9001 12.5 43.8001 12.5 43.7001 12.6L43.8001 13ZM24.4001 17.9C30.9001 16.2 37.4001 14.6 43.9001 12.9L43.8001 12.5C37.3001 14.2 30.8001 15.8 24.3001 17.5L24.4001 17.9ZM24.2001 18.2V18C24.2001 18 24.2001 17.9 24.4001 17.9L24.3001 17.5C24.1001 17.5 24.0001 17.6 23.9001 17.7C23.8001 17.8 23.8001 18 23.8001 18.1C23.8001 18.2 24.2001 18.2 24.2001 18.2ZM24.2001 34.3V18.2H23.8001V34.3H24.2001ZM24.2001 34.7V34.3H23.8001V34.7H24.2001ZM23.6001 34.7C23.7001 34.7 23.7001 34.8 23.8001 34.9L24.0001 34.6C23.9001 34.5 23.8001 34.5 23.8001 34.4L23.6001 34.7ZM19.3001 33.6C20.9001 33.3 22.3001 33.6 23.6001 34.7L23.8001 34.4C22.4001 33.3 20.9001 32.9 19.2001 33.3L19.3001 33.6ZM15.0001 38.5C15.2001 36.1 17.0001 34.1 19.3001 33.7L19.2001 33.3C16.7001 33.8 14.8001 35.9 14.6001 38.5C14.6001 38.4 15.0001 38.5 15.0001 38.5ZM18.5001 43.9C16.3001 43.1 14.9001 40.8 15.0001 38.4H14.6001C14.4001 41 15.9001 43.4 18.3001 44.3L18.5001 43.9ZM19.8001 44.3C19.3001 44.2 18.9001 44.1 18.5001 43.9L18.4001 44.2C18.8001 44.4 19.3001 44.5 19.7001 44.6L19.8001 44.3ZM42.2001 19.2V19.4H42.3001V19.3C42.4001 19.2 42.2001 19.2 42.2001 19.2ZM25.8001 23.4H25.6001V23.6L25.8001 23.5V23.4ZM25.8001 19.3V19.1H25.7001V19.2C25.7001 19.3 25.8001 19.3 25.8001 19.3ZM42.2001 15.1H42.4001V14.9L42.2001 15C42.2001 14.9 42.2001 15.1 42.2001 15.1ZM42.2001 21.1H42.4001V20.9L42.2001 21V21.1ZM42.2001 30.2L42.1001 30.3L42.4001 30.5V30.1C42.4001 30.2 42.2001 30.2 42.2001 30.2ZM44.1001 12.7H44.3001V12.5H44.1001V12.7ZM24.0001 34.7L23.9001 34.8L24.2001 35V34.6H24.0001V34.7ZM19.7001 44.5V44.7V44.3C19.8001 44.3 19.7001 44.5 19.7001 44.5Z" fill="white"/>
<path d="M38.5001 38.1001C40.5001 38.1001 42.1001 36.5001 42.2001 34.5001C42.2001 32.4001 40.6001 30.7001 38.6001 30.7001C36.6001 30.7001 35.0001 32.3001 34.9001 34.3001C34.9001 36.4001 36.5001 38.1001 38.5001 38.1001ZM20.4001 35.2001C18.4001 35.2001 16.7001 36.8001 16.7001 38.9001C16.7001 41.0001 18.3001 42.6001 20.3001 42.6001C22.3001 42.6001 24.0001 41.0001 24.0001 38.9001C24.0001 36.8001 22.4001 35.2001 20.4001 35.2001ZM42.2001 15.1001C36.7001 16.5001 31.3001 17.9001 25.8001 19.3001V23.4001C31.3001 22.0001 36.7001 20.6001 42.2001 19.2001V15.1001ZM19.7001 44.5001C19.3001 44.4001 18.8001 44.3001 18.4001 44.1001C16.1001 43.2001 14.6001 40.9001 14.8001 38.4001C15.0001 36.0001 16.8001 33.9001 19.2001 33.4001C20.8001 33.1001 22.4001 33.5001 23.7001 34.5001C23.8001 34.5001 23.8001 34.6001 23.9001 34.7001V18.2001C23.9001 17.9001 24.0001 17.8001 24.2001 17.7001C30.7001 16.0001 37.2001 14.4001 43.7001 12.7001C43.8001 12.7001 43.9001 12.7001 44.0001 12.6001V34.3001C44.0001 36.8001 42.6001 38.9001 40.3001 39.7001C37.1001 40.9001 33.5001 38.7001 33.1001 35.3001C32.7001 32.3001 34.4001 29.7001 37.3001 29.0001C39.0001 28.6001 40.5001 29.0001 41.9001 30.0001C42.0001 30.1001 42.1001 30.1001 42.2001 30.2001V21.1001C41.4001 21.3001 40.6001 21.5001 39.9001 21.7001C35.3001 22.9001 30.8001 24.0001 26.2001 25.2001C25.9001 25.3001 25.8001 25.4001 25.8001 25.7001V38.8001C25.8001 41.0001 24.9001 42.6001 23.0001 43.8001C22.4001 44.2001 21.8001 44.4001 21.1001 44.5001C21.0001 44.5001 20.9001 44.5001 20.9001 44.6001L19.7001 44.5001Z" fill="white"/>
</g>
<defs>
<clipPath id="clip0_1057_7903">
<rect width="56" height="56" fill="white" transform="translate(2 2)"/>
</clipPath>
</defs>
</svg>
