<svg width="60" height="60" viewBox="0 0 60 60" fill="none" xmlns="http://www.w3.org/2000/svg">
<circle cx="30" cy="30" r="27" fill="#CE4C7A"/>
<path fill-rule="evenodd" clip-rule="evenodd" d="M29.7042 21.0002C31.8603 20.9983 33.6071 19.2446 33.6003 17.0896C33.5925 14.9356 31.8193 13.177 29.6778 13.2004C27.5285 13.2248 25.8042 14.957 25.8003 17.0974C25.7974 19.2514 27.5481 21.0022 29.7042 21.0002ZM27.3566 17.1003C27.3566 15.8065 28.4078 14.767 29.711 14.7719C31.0123 14.7768 32.0538 15.826 32.045 17.1218C32.0362 18.3912 30.983 19.4375 29.7081 19.4443C28.4244 19.4512 27.3566 18.3863 27.3566 17.1003ZM34.1927 37.8164V37.3871H34.1936H34.8041C36.229 37.3813 37.1854 36.4183 37.1901 34.9579C37.1985 32.4539 37.2069 29.95 37.1882 27.446C37.1686 24.8338 35.2108 22.8339 32.6641 22.8128C30.6895 22.7965 28.714 22.7955 26.7395 22.8128C24.2647 22.8348 22.2967 24.7418 22.2369 27.2745C22.1751 29.8848 22.2023 32.498 22.2294 35.1093C22.2434 36.4422 23.2344 37.3756 24.5433 37.3861C24.6869 37.3874 24.8305 37.387 24.9798 37.3865H24.98H24.9801H24.9803H24.9805C25.0574 37.3863 25.1358 37.3861 25.2165 37.3861V37.8231C25.2165 38.4737 25.2163 39.1243 25.2161 39.7749L25.216 39.7837V39.7838V39.7839V39.784V39.7841C25.2155 41.5267 25.2149 43.2691 25.2183 45.012C25.2202 46.0258 25.7765 46.9247 26.6843 47.1978C27.6566 47.4901 28.643 47.5265 29.5452 46.896C29.6125 46.849 29.7593 46.8212 29.8098 46.8615C30.3932 47.3339 31.07 47.3751 31.7712 47.3665C33.2596 47.3483 34.1927 46.3938 34.1927 44.8616V37.8164ZM25.2155 35.4274V35.8165H25.2146C25.1849 35.8273 25.1661 35.8349 25.1535 35.84C25.1372 35.8466 25.1312 35.849 25.1248 35.849C24.175 35.8998 23.686 35.8941 23.7122 34.5142C23.7406 33.0341 23.7353 31.5532 23.7299 30.0723C23.7268 29.2166 23.7237 28.3609 23.7271 27.5054C23.7337 25.9271 24.6817 24.7149 26.1364 24.4121C26.3739 24.3623 26.6245 24.3575 26.8685 24.3575C28.7505 24.3527 30.6316 24.3518 32.5136 24.3556C34.4423 24.3594 35.6792 25.6358 35.682 27.6242C35.6833 29.2137 35.6829 30.8031 35.6825 32.3926C35.6822 33.1873 35.682 33.982 35.682 34.7767C35.682 35.6344 35.4614 35.8586 34.6209 35.8586H34.1918V35.4159L34.192 33.0557C34.1922 31.4822 34.1924 29.9087 34.1918 28.3353C34.1908 27.8398 34.0095 27.5562 33.6364 27.4517C33.2007 27.33 32.7688 27.6194 32.7146 28.0794C32.7003 28.2039 32.7011 28.3302 32.702 28.4559V28.456V28.4561V28.4562V28.4563C32.7022 28.4863 32.7024 28.5162 32.7024 28.5461C32.7024 33.9373 32.7024 39.3295 32.7006 44.7207C32.7006 44.8989 32.6949 45.082 32.6576 45.2544C32.594 45.5496 32.3986 45.7594 32.1106 45.7892C31.7525 45.8265 31.3851 45.8246 31.027 45.7882C30.7073 45.7556 30.4867 45.4576 30.4661 45.103C30.4546 44.9018 30.4558 44.6995 30.457 44.4973V44.4972V44.4972V44.4971V44.497V44.4969C30.4573 44.4354 30.4577 44.3739 30.4577 44.3125C30.4574 43.4898 30.4574 42.6673 30.4574 41.8448C30.4574 40.1992 30.4574 38.5538 30.4549 36.9079C30.4549 36.7307 30.4464 36.5457 30.4006 36.3761C30.3128 36.0512 30.0183 35.8538 29.6807 35.8653C29.3376 35.8768 29.1011 36.0551 29.0039 36.3866C28.9543 36.5543 28.9515 36.7402 28.9515 36.9185C28.9487 39.5432 28.9487 42.1669 28.9487 44.7906C28.9487 45.5898 28.7271 45.816 27.9502 45.8179C26.8479 45.8198 26.7049 45.6722 26.7049 44.53V28.571C26.7049 28.5384 26.7051 28.5057 26.7054 28.473V28.4729C26.7062 28.3616 26.707 28.2501 26.6983 28.1398C26.6665 27.7239 26.3543 27.4192 25.9663 27.4173C25.5792 27.4144 25.2585 27.7181 25.2202 28.1312C25.2126 28.219 25.2137 28.3078 25.2148 28.3966V28.3966V28.3966V28.3966V28.3967V28.3967C25.2151 28.428 25.2155 28.4593 25.2155 28.4905V35.4274ZM15.6859 45.5394C16.5622 46.3682 17.7146 46.3998 18.8866 45.6101L18.8826 45.613L18.9209 45.6382C18.9573 45.6622 18.9873 45.682 19.0168 45.7028C19.7981 46.2621 20.6372 46.3644 21.5017 45.9351C22.3633 45.5078 22.7911 44.787 22.795 43.8444C22.8029 42.0988 22.7999 40.3531 22.795 38.6084C22.7941 38.1132 22.4778 37.7882 22.0235 37.7844C21.5604 37.7796 21.255 38.0903 21.2393 38.5903C21.2344 38.734 21.2355 38.8772 21.2365 39.0206L21.2365 39.0209C21.2369 39.0806 21.2373 39.1404 21.2373 39.2002V43.5748C21.2373 43.6003 21.2376 43.6258 21.2379 43.6513C21.2387 43.7214 21.2394 43.7915 21.2344 43.8616C21.2001 44.331 20.8858 44.6532 20.457 44.6589C20.0164 44.6646 19.6718 44.332 19.6639 43.8434C19.6552 43.2882 19.6562 42.7325 19.6572 42.177V42.1769V42.1769V42.1769V42.1769V42.1768C19.6578 41.7999 19.6585 41.423 19.6561 41.0462C19.6551 40.8808 19.6512 40.7059 19.5993 40.552C19.4848 40.2145 19.1225 40.0319 18.7436 40.0883C18.3755 40.1438 18.1053 40.4439 18.1013 40.8483C18.0964 41.3502 18.0969 41.8524 18.0974 42.3545C18.0979 42.8566 18.0984 43.3588 18.0935 43.8606C18.0896 44.3233 17.7577 44.6532 17.3249 44.6599C16.8951 44.6665 16.5632 44.3386 16.5397 43.8798C16.5353 43.7901 16.5358 43.7005 16.5364 43.6109C16.5366 43.581 16.5368 43.5511 16.5368 43.5213L16.5368 41.2044V41.2035V41.2034V41.2034V41.2033C16.537 38.115 16.5372 35.0271 16.5348 31.9385C16.5338 31.7616 16.526 31.5771 16.477 31.4079C16.384 31.0838 16.0756 30.8869 15.7222 30.8993C15.3638 30.9118 15.1191 31.0905 15.0133 31.4204C14.9673 31.5657 14.9604 31.7263 14.9604 31.8802C14.9575 32.6774 14.9579 33.4752 14.9582 34.2731V34.2731V34.2731V34.2732V34.2732L14.9585 35.0713V35.4527C14.3994 35.3801 14.1889 35.1392 14.1889 34.5914L14.1872 33.7845C14.1835 32.0813 14.1798 30.378 14.1899 28.6748C14.2017 26.824 15.543 25.5382 17.4483 25.5324C17.8202 25.5313 18.1922 25.5319 18.5641 25.5324C19.1839 25.5333 19.8035 25.5342 20.4227 25.5276C20.8947 25.5219 21.2305 25.1911 21.2324 24.7686C21.2344 24.3479 20.8995 24.0153 20.4267 24.0124C20.1973 24.0111 19.968 24.0091 19.7385 24.0071L19.7382 24.0071L19.7378 24.0071L19.7375 24.0071L19.7372 24.0071H19.7371H19.7371H19.7371H19.7371C18.8043 23.999 17.8708 23.9909 16.9392 24.0277C14.8263 24.1109 12.8026 25.8966 12.689 27.952C12.5617 30.2521 12.596 32.5637 12.6381 34.8686C12.6586 36.0015 13.5173 36.8074 14.6677 36.9909C14.7136 36.9981 14.7598 37.0056 14.8082 37.0135C14.8558 37.0212 14.9056 37.0292 14.9595 37.0378V37.4861C14.9595 38.1102 14.9597 38.7342 14.96 39.3582C14.9606 40.814 14.9612 42.2697 14.9585 43.7259C14.9575 44.4256 15.1612 45.0432 15.6859 45.5394ZM44.4391 35.4479C44.9389 35.4039 45.1893 35.1648 45.203 34.7143C45.2137 34.3581 45.212 34.0015 45.2102 33.6447C45.2096 33.5109 45.2089 33.377 45.2089 33.2432C45.2089 32.7448 45.2093 32.2465 45.2098 31.7482C45.2106 30.7515 45.2115 29.7548 45.2089 28.7581C45.203 26.8126 43.8835 25.5319 41.8909 25.529C41.5688 25.5287 41.2468 25.529 40.9248 25.5293H40.9248H40.9247H40.9246C40.2807 25.5299 39.6369 25.5306 38.9926 25.5261C38.5788 25.5233 38.301 25.309 38.2052 24.9551C38.1172 24.6308 38.2453 24.2741 38.5466 24.1229C38.7021 24.0455 38.8958 24.012 39.0728 24.0101C40.0755 23.9995 41.0781 23.9957 42.0807 24.0072C44.6973 24.0368 46.7329 25.9824 46.7779 28.5467C46.8141 30.5908 46.8004 32.6367 46.7808 34.6817C46.7681 35.9883 45.9054 36.8453 44.4391 37.0338V37.4451C44.4391 38.0723 44.4398 38.6995 44.4405 39.3267C44.4421 40.8162 44.4437 42.3057 44.4362 43.7953C44.4293 45.2205 43.3377 46.2965 41.9575 46.1779C41.6183 46.1487 41.2872 46.0244 40.9312 45.8906C40.7626 45.8273 40.5884 45.7619 40.4051 45.7035C39.8818 46.111 39.1843 46.3195 38.3861 46.1291C37.3904 45.891 36.6254 45.0129 36.6137 44.0076C36.5946 42.4024 36.6002 40.7973 36.6058 39.1921L36.6078 38.59C36.6098 38.1012 36.9404 37.7837 37.4021 37.7904C37.8501 37.7971 38.1582 38.1012 38.1602 38.5833C38.1655 39.7286 38.1649 40.8744 38.1643 42.02V42.02V42.0201V42.0201C38.1641 42.5488 38.1638 43.0774 38.1641 43.6059C38.1641 44.2993 38.4517 44.6791 38.9662 44.6676C39.4709 44.6571 39.7409 44.2907 39.7409 43.6135L39.7407 42.7528C39.7405 42.1788 39.7403 41.6046 39.7409 41.03C39.7429 40.4064 40.0197 40.0783 40.5313 40.085C41.0194 40.0917 41.2982 40.4293 41.3001 41.0214C41.3008 41.3512 41.3003 41.6811 41.2998 42.0111V42.0111V42.0111V42.0112C41.2989 42.6381 41.298 43.2652 41.305 43.8919C41.3099 44.3223 41.6122 44.6274 42.022 44.6638C42.3761 44.6953 42.7468 44.4533 42.8261 44.1138C42.8594 43.9698 42.8589 43.8166 42.8585 43.6666V43.6665L42.8584 43.6145C42.8598 41.7661 42.8596 39.9182 42.8595 38.07V38.0699V38.0698V38.0697L42.8593 36.2236C42.8593 35.803 42.8592 35.3824 42.859 34.9618C42.8586 33.9113 42.8582 32.8608 42.8603 31.8103C42.8613 31.2919 43.1019 30.9686 43.5128 30.9083C44.0429 30.8299 44.4293 31.1743 44.4342 31.7606C44.4411 32.5398 44.4397 33.3195 44.4383 34.0989V34.099V34.0991V34.0992C44.4377 34.42 44.4371 34.7408 44.4371 35.0615V35.4489L44.4391 35.4479ZM40.5024 22.8002C38.6758 22.8043 37.2075 21.3456 37.2003 19.5193C37.1931 17.6941 38.6541 16.2106 40.4704 16.2002C42.3031 16.1899 43.8013 17.6786 43.8003 19.5059C43.7993 21.3249 42.3269 22.7961 40.5034 22.8002H40.5024ZM40.4962 21.1556C41.3986 21.1556 42.1524 20.402 42.1513 19.5028C42.1513 18.6046 41.3924 17.8469 40.4941 17.8479C39.5927 17.8479 38.8441 18.6005 38.8441 19.5049C38.8441 20.4134 39.5886 21.1556 40.4962 21.1556ZM15.5996 19.5214C15.6068 21.3373 17.0877 22.8033 18.9115 22.8002C20.7393 22.7971 22.1996 21.3342 22.1996 19.5048C22.2006 17.6806 20.7321 16.2043 18.9146 16.2002C17.0825 16.1971 15.5924 17.6899 15.5996 19.5214ZM18.9022 17.8468C19.8015 17.8448 20.5552 18.5981 20.5555 19.5012C20.5552 20.4095 19.8128 21.1546 18.9053 21.1546C18.0016 21.1556 17.2488 20.4071 17.2478 19.5048C17.2467 18.6067 18.0027 17.8489 18.9022 17.8468Z" fill="white"/>
</svg>
