<svg width="60" height="60" viewBox="0 0 60 60" fill="none" xmlns="http://www.w3.org/2000/svg">
<circle cx="30" cy="30" r="27" fill="#F3CA45"/>
<path d="M12.6001 29.7936C12.7678 29.5065 12.9056 29.1949 13.1065 28.9359C15.5577 25.7761 18.4012 23.068 21.8192 21.0426C24.0695 19.7087 26.4713 18.8124 29.0842 18.6321C31.4775 18.4666 33.7678 18.9507 35.9636 19.9161C39.1102 21.2999 41.8013 23.3682 44.1946 25.8505C45.1887 26.8816 46.0968 28.0028 47.0152 29.1083C47.5369 29.7359 47.5182 30.2523 47.0203 30.9009C44.5495 34.1201 41.6788 36.8825 38.2097 38.9394C35.4862 40.5552 32.5797 41.5311 29.3897 41.3858C27.1999 41.2861 25.1334 40.6786 23.1725 39.6887C19.0557 37.609 15.7602 34.5175 12.9405 30.8492C12.7959 30.6628 12.7124 30.4265 12.6001 30.2129C12.6001 30.0728 12.6001 29.9337 12.6001 29.7936ZM15.1934 30.0273C15.8675 30.7757 16.5015 31.5197 17.1765 32.2217C19.4123 34.549 21.883 36.549 24.8253 37.8602C26.2977 38.5167 27.8288 38.9482 29.4442 39.027C31.9133 39.1469 34.184 38.4396 36.3466 37.2895C38.7629 36.0046 40.8549 34.2698 42.758 32.2891C43.4559 31.5626 44.1104 30.7923 44.7981 30.0265C44.6721 29.8724 44.5853 29.7516 44.4849 29.6457C43.4184 28.521 42.3997 27.3428 41.272 26.2881C39.1638 24.3188 36.8216 22.7082 34.1099 21.72C31.3711 20.7222 28.6382 20.7205 25.8994 21.7104C23.5418 22.5629 21.4703 23.9152 19.551 25.5345C17.9714 26.8676 16.5475 28.3608 15.1934 30.0256V30.0273Z" fill="white"/>
<path d="M30.0203 23.4C33.6785 23.4205 36.6347 26.5384 36.5996 30.3388C36.5645 34.158 33.6082 37.2203 29.9787 37.1998C26.3197 37.1784 23.3651 34.0623 23.4002 30.261C23.4353 26.441 26.3892 23.3795 30.0203 23.4ZM30.0105 34.902C32.4438 34.8857 34.4016 32.8297 34.3983 30.2961C34.3942 27.7582 32.4308 25.7038 30.004 25.697C27.5764 25.6901 25.5704 27.7949 25.5974 30.32C25.6244 32.8698 27.5976 34.9182 30.0113 34.902H30.0105Z" fill="white"/>
</svg>
