<svg width="60" height="60" viewBox="0 0 60 60" fill="none" xmlns="http://www.w3.org/2000/svg">
<g clip-path="url(#clip0_1057_7933)">
<path d="M30 58C45.464 58 58 45.464 58 30C58 14.536 45.464 2 30 2C14.536 2 2 14.536 2 30C2 45.464 14.536 58 30 58Z" fill="#EC732E"/>
<path d="M32.6 16.5999C32.6 15.1999 31.5 13.9999 30.1 13.9999V14.1999C31.4 14.1999 32.4 15.1999 32.4 16.4999L32.6 16.5999ZM30 19.1999C31.4 19.1999 32.5 18.0999 32.5 16.6999H32.3C32.3 17.8999 31.3 18.9999 30 18.9999V19.1999ZM27.4 16.5999C27.4 17.9999 28.6 19.1999 30 19.1999V18.9999C28.7 18.9999 27.7001 17.9999 27.7001 16.6999C27.7001 16.5999 27.4 16.5999 27.4 16.5999ZM30 14.0999C28.6 14.0999 27.4 15.1999 27.4 16.5999H27.6C27.6 15.2999 28.6 14.2999 29.9 14.2999C30 14.2999 30 14.0999 30 14.0999ZM30 20.4999C27.8 20.4999 26.1 18.7999 26.1 16.5999H25.9C25.9 18.8999 27.8001 20.7999 30.1 20.7999V20.4999H30ZM33.9 16.5999C33.9 18.7999 32.2 20.4999 30 20.4999V20.6999C32.3 20.6999 34.1 18.7999 34.1 16.4999C34.2 16.5999 33.9 16.5999 33.9 16.5999ZM30 12.6999C32.2 12.6999 33.9 14.4999 33.9 16.5999H34.1C34.1 14.2999 32.2 12.3999 29.9 12.3999C30 12.3999 30 12.6999 30 12.6999ZM26.1 16.5999C26.1 14.3999 27.8 12.6999 30 12.6999V12.4999C27.7 12.4999 25.8 14.3999 25.8 16.6999C25.8 16.5999 26.1 16.5999 26.1 16.5999Z" fill="white"/>
<path d="M30 14.2C28.6 14.2 27.6 15.3 27.6 16.6C27.6 17.9 28.7 19 30 19C31.3 19 32.4 17.9 32.4 16.6C32.4 15.3 31.4 14.2 30 14.2ZM26 16.6C26 14.4 27.8 12.5 30 12.5C32.2 12.5 34.1 14.3 34.1 16.6C34.1 18.9 32.3 20.6 30.1 20.6C27.8 20.7 26 18.9 26 16.6Z" fill="white"/>
<path d="M25.1 35.5999H25.2001L25.1 35.4H25L25.1 35.5999ZM23.4 34.0999C23.4 34.7999 23.5 35.2 23.8 35.5C24 35.6 24.1 35.6 24.3 35.7H25V35.5H24.3C24.1 35.5 24 35.5 23.9 35.4C23.7 35.3 23.6 34.9999 23.6 34.2999L23.4 34.0999ZM23.4 26.7999V34.0999H23.6V26.7999H23.4ZM26.1 23.5C24.5 23.8 23.4 25.0999 23.4 26.7999H23.6C23.6 25.1999 24.6 24 26.1 23.7V23.5ZM26.9 23.4C26.6 23.4 26.4 23.4 26.1 23.5V23.7C26.3 23.7 26.6 23.6 26.9 23.6V23.4ZM33 23.4C31 23.5 29 23.4 26.9 23.4V23.6H33V23.4ZM36.6 26.9C36.6 24.9 35.1 23.3 33 23.4V23.6C35 23.5 36.4001 25.1 36.4001 26.9H36.6ZM36.6 34.4V27H36.4001C36.3001 29.5 36.4001 32 36.4001 34.4H36.6ZM35.3 35.5999C35.8 35.5999 36.1 35.4999 36.3 35.2999C36.5 35.0999 36.6 34.7999 36.6 34.2999H36.4001C36.4001 34.6999 36.3001 34.9999 36.2001 35.0999C36.1001 35.1999 35.8001 35.2999 35.4001 35.2999C35.3001 35.2999 35.3 35.5999 35.3 35.5999ZM34.9001 35.5999H35.4001V35.4H34.9001V35.5999ZM34.7001 27.6V35H35V27.6H34.7001ZM33.8 26.9C34 26.8 34.3001 26.9 34.4001 27C34.5001 27.1 34.7001 27.4 34.7001 27.6H35C35 27.2 34.9 26.8999 34.6 26.7999C34.4 26.5999 34.1001 26.6 33.7001 26.7C33.8001 26.6 33.8 26.9 33.8 26.9ZM33.4 27.4C33.4 27.3 33.5 27.1 33.5 27.1C33.6 27 33.7 26.9 33.8 26.9L33.7001 26.7C33.5001 26.8 33.4 26.8 33.3 27C33.2 27.1 33.1 27.3 33.1 27.5C33.1 27.4 33.4 27.4 33.4 27.4ZM33.4 27.9V27.4H33.2001V27.9H33.4ZM33.4 44.2V27.9H33.2001V44.2H33.4ZM33.4 44.5999V44.2H33.2001V44.5999C33.1001 44.5999 33.4 44.5999 33.4 44.5999ZM32 45.9C32.8 45.9 33.3 45.3 33.4 44.5H33.2001C33.2001 45.2 32.7 45.5999 32.1 45.5999C32 45.6999 32 45.9 32 45.9ZM30.7001 44.5999C30.7001 44.9999 30.8 45.2999 31.1 45.5999C31.3 45.7999 31.7 46 32 46V45.7999C31.7 45.7999 31.4001 45.7 31.2001 45.5C31.0001 45.3 30.9 45 30.9 44.7L30.7001 44.5999ZM30.7001 37.4V44.5999H31V37.4H30.7001ZM30.7001 37V37.4H31V37C30.9 36.9 30.7001 37 30.7001 37ZM30 36.4C30.3 36.4 30.6001 36.6 30.7001 37H30.9C30.8 36.5 30.4 36.2 30 36.2V36.4ZM29.3 37C29.4 36.6 29.6 36.4 30 36.4V36.2C29.5 36.2 29.2 36.5 29.1 37H29.3ZM29.3 37.4V37H29.1V37.4H29.3ZM29.3 44.5V37.4H29.1V44.5H29.3ZM28.1 45.9C28.5 45.9 28.8 45.7 29 45.5C29.2 45.3 29.3 44.9 29.3 44.5H29.1C29.1 44.8 29 45.0999 28.8 45.2999C28.6 45.4999 28.4 45.5999 28.1 45.5999V45.9ZM26.7001 44.7999C26.8001 45.4999 27.4 45.9 28.1 45.9V45.7C27.5 45.7 27.1 45.3999 27 44.7999H26.7001ZM26.7001 44.2999V44.7999H26.9V44.2999H26.7001ZM26.7001 27.9V44.2999H26.9V27.9H26.7001ZM26.7001 27.5V27.9H26.9V27.4L26.7001 27.5ZM26 26.7999C26.4 26.7999 26.6001 27.1 26.7001 27.4H26.9C26.9 26.9 26.5 26.5 26 26.5V26.7999ZM25.3 27.5C25.3 27.1 25.6 26.9 26 26.9V26.7C25.5 26.7 25.1 27.1 25.1 27.6L25.3 27.5ZM25.3 27.7999V27.4H25.1V27.7999H25.3ZM25.3 35V27.7999H25.1V35H25.3ZM25.3 35.4V35H25.1V35.4H25.3ZM25.3 44.5999V37.5H25.1V44.5999H25.3ZM28.4 47.2999C26.8 47.4999 25.4 46.3 25.3 44.7H25.1C25.1 46.5 26.7 47.7999 28.4 47.5999V47.2999ZM29.9 46.5C29.5 46.9 28.9 47.2 28.3 47.2V47.4C29 47.3 29.5 46.9999 30 46.5999L29.9 46.5ZM30.2001 46.5999C30.1334 46.5999 30.1 46.5666 30.1 46.5L30 46.7H30.1L30.2001 46.5999ZM33.2001 47C32.6001 47.3 32.1 47.2999 31.6 47.2999C31.1 47.2999 30.6 46.9999 30.1 46.5999L30 46.7C30.5 47.1 31 47.4 31.6 47.5C32.2 47.6 32.7 47.5 33.3 47.2L33.2001 47ZM34.7001 44.4C34.7001 45 34.6001 45.5 34.4001 46C34.2001 46.4 33.8001 46.7999 33.2001 47.0999L33.3 47.2999C33.9 46.9999 34.3 46.5999 34.6 46.0999C34.9 45.5999 35 45 35 44.4H34.7001ZM34.7001 37.5V44.4H35V37.5H34.7001ZM34.7001 37.0999V37.5H35V37.0999H34.7001ZM35.6 36.9H34.9001V37.0999H35.6V36.9ZM38 34.5999C38 35.2999 37.7 35.8999 37.3 36.2999C36.9 36.6999 36.3 36.9 35.6 37V37.2C36.4 37.2 37 36.9 37.5 36.5C38 36 38.3 35.3999 38.3 34.5999H38ZM38 26.7V34.7H38.2001V26.7H38ZM33.3 22C35.9 22 38 24 38 26.6H38.2001C38.2001 23.9 36.0001 21.8 33.2001 21.7V22H33.3ZM26.8 22H33.3V21.7999H26.8V22ZM22.1 26.6C22.2 24.1 24.2 22.1 26.8 22.1V21.9C24.1 21.9 21.9 24 21.8 26.7L22.1 26.6ZM22.1 34.7C22.1 32 22 29.3 22.1 26.6H21.9C21.8 29.3 21.9 32 21.9 34.7H22.1ZM24.1 36.9C23 36.7 22.1 35.8 22.1 34.7H21.9C21.9 36 22.8001 37 24.1 37.2C24 37.2 24.1 36.9 24.1 36.9ZM25.2001 36.9H24.1V37.0999H25.3V36.9H25.2001ZM34.9001 35.5H34.8V35.5999H34.9001V35.5ZM25.2001 35.4V35.5H25.3V35.4H25.2001ZM25.2001 37H25.3V36.7L25.2001 37ZM30 46.5999V46.5H29.9L30 46.5999ZM34.9001 37.0999V37H34.8V37.0999H34.9001Z" fill="white"/>
<path d="M25.2 35.4V27.4C25.2 27 25.6 26.7 26 26.7C26.4 26.7 26.8 27 26.8 27.5V44.8C26.9 45.4 27.4 45.8 28.1 45.8C28.8 45.8 29.2 45.3 29.2 44.5V37C29.3 36.6 29.6 36.3 30 36.3C30.4 36.3 30.7 36.6 30.8 37V44.6C30.8 45.3 31.3 45.9 32 45.9C32.7 45.9 33.2 45.4 33.2 44.7V27.4C33.2 27.1 33.4 26.9 33.7 26.8C34.3 26.6 34.7 27 34.7 27.7V35.6H35.2C36.1 35.6 36.3 35.4 36.3 34.5V27.1C36.3 25.2 34.8 23.6 32.8 23.7C30.8 23.8 28.8 23.7 26.7 23.7C26.4 23.7 26.2 23.7 25.9 23.8C24.3 24.1 23.3 25.4 23.3 27V34.3C23.3 35.7 23.8 35.7 24.8 35.7C25.1 35.5 25.1 35.4 25.2 35.4ZM25.2 37H24.1C22.9 36.8 22 35.9 22 34.7C22 32 21.9 29.3 22 26.6C22.1 24 24.2 22 26.8 22H33.3C36 22 38.1 24.1 38.1 26.7V34.7C38.1 36.1 37 37.1 35.6 37.2H34.9V44.5C34.9 45.7 34.4 46.7 33.3 47.2C32.2 47.8 31.1 47.5 30.1 46.7H30C29.5 47.1 29 47.4 28.4 47.5C26.7 47.7 25.2 46.5 25.2 44.8V37Z" fill="white"/>
</g>
<defs>
<clipPath id="clip0_1057_7933">
<rect width="56" height="56" fill="white" transform="translate(2 2)"/>
</clipPath>
</defs>
</svg>
