<svg width="460" height="460" viewBox="0 0 460 460" fill="none" xmlns="http://www.w3.org/2000/svg">
<rect width="460" height="460" fill="white"/>
<path d="M50.8886 349.5C117.657 334.786 199.71 392.747 234.665 377.964C267.781 392.036 407.353 422.417 445.515 274.024C483.676 125.632 375.605 99.9045 334.736 125.632C313.842 143.825 271.2 186.893 260.62 155.481C246.219 112.724 102.288 78.7062 56.7035 125.631C7.03027 144.962 -15.8794 364.213 50.8886 349.5Z" fill="#FEFCEB"/>
<path d="M292.394 375.355C270.489 357.058 251.652 353.23 231.074 339.273C220.561 332.121 214.288 320.583 214.288 307.643C241.441 311.434 270.581 321.443 283.987 345.482C289.134 354.695 291.286 364.851 292.394 375.346V375.355Z" fill="#EC732E"/>
<path d="M250.104 416.097C247.732 414.833 248.511 415.401 218.043 384.265C211.239 377.314 204.6 369.466 195.231 365.931C189.48 363.77 183.72 361.389 177.768 359.805C162.383 355.739 148.207 350.189 136.65 338.907C134.965 337.259 133.335 335.464 132.529 333.257C131.796 331.233 131.796 328.541 133.261 326.791C136.192 323.348 142.575 325.39 145.13 328.266C143.6 326.013 142.346 323.577 141.421 321.022C140.395 318.238 140.148 314.868 142.831 312.863C145.459 310.903 148.179 311.983 150.414 313.833C149.278 312.24 148.051 310.61 147.383 308.659C117.684 314.548 87.5462 330.216 75.394 358.285C67.4359 376.664 66.1539 397.159 65 417.159L250.104 417.553V416.097Z" fill="#EC732E"/>
<path d="M120.102 383.734C119.607 383.698 119.149 383.972 118.975 384.439L106.997 416.885C106.878 417.215 106.924 417.59 107.125 417.874C107.327 418.167 107.656 418.341 108.013 418.341L124.827 418.378C125.138 418.378 125.441 418.24 125.642 418.002C125.843 417.764 125.944 417.444 125.889 417.132L121.063 384.65C120.99 384.165 120.596 383.78 120.102 383.734Z" fill="black"/>
<path d="M136.528 209.375C132.713 200.601 136.846 188.234 139.389 183.148C147.018 177.044 175.629 178.379 188.981 179.81L197.565 162.166L204.24 179.81H219.023C235.045 181.336 237.461 193.797 236.666 199.838C242.388 189.538 249.541 189.506 252.402 190.777C256.217 191.572 262.798 196.214 258.601 208.421C254.405 220.628 243.183 223.044 238.097 222.726C229.704 257.823 218.705 270.729 214.254 272.796C221.884 273.559 222.52 279.472 221.884 282.333C224.268 287.101 209.486 296.638 215.208 316.189C219.786 331.83 228.878 338.919 232.851 340.508C247.316 347.661 278.534 363.779 287.689 371.027C296.845 378.275 313.121 396.3 320.115 404.406L328.222 417.281H250.972L204.24 371.027L198.518 367.212L185.166 361.967C148.926 352.43 135.415 339.873 133.19 334.786C128.612 323.342 138.276 324.613 143.68 326.68C136.814 310.658 144.634 311.103 149.403 313.328C142.917 298.832 152.105 299.023 157.509 300.93C146.828 278.804 150.833 269.776 154.171 268.027C143.49 259.253 136.687 239.575 134.62 230.833C125.083 235.029 116.659 230.038 113.639 227.018C110.778 221.137 107.726 208.326 118.408 204.129C129.089 199.933 134.938 205.878 136.528 209.375Z" fill="#FFD7B1"/>
<path d="M358.33 416.766H329.529C329.502 416.702 329.511 416.629 329.465 416.565C319.63 400.731 307.295 386.5 293.082 374.531C271.103 356.133 252.275 352.351 231.68 338.386C221.359 331.362 215.37 320.107 215.37 307.652C215.37 295.198 220.397 292.762 222.76 284.081C226.524 281.443 229.537 277.698 231.451 273.128C237.128 276.177 245.517 278.971 251.799 277.524C262.275 275.124 261.753 266.901 257.77 257.02C261.534 258.054 265.847 256.8 268.484 253.915C274.446 247.441 269.95 236.58 262.642 235.719C274.254 230.746 277.248 222.284 275.105 216.268C273.677 212.257 269.217 209.143 265.069 210.013C268.979 207.66 271.534 203.209 271.589 198.63C271.717 188.273 260.316 181.936 252.266 185.809C252.294 183.117 250.984 180.443 248.832 178.813C246.68 177.183 243.942 176.002 241.359 176.752C237.678 164.793 233.832 152.512 225.929 142.823C218.026 133.116 204.985 126.513 192.933 129.847C189.618 130.772 188.364 131.358 185.003 130.653C158.867 125.167 132.767 142.631 128.784 170.296C128.28 173.657 128.711 173.254 126.256 174.756C123.857 176.212 105.459 182.256 110.899 200.929C103.774 198.951 97.025 210.031 94.5158 215.224C91.2465 222.001 90.4223 230.233 93.6366 237.047C96.8418 243.869 104.507 248.686 111.925 247.386C106.247 254.153 106.128 265.619 112.144 272.093C118.161 278.586 129.123 279.676 136.302 274.52C139.398 280.454 144.05 286.599 150.863 286.764C152.108 291.095 153.821 295.097 156.037 299.127C149.956 296.819 144.617 302.753 146.165 308.403C146.431 309.347 146.76 310.088 147.218 310.94C145.075 310.427 143.372 311.132 142.182 312.03C139.572 313.98 138.921 317.405 140.396 321.426C140.817 322.598 141.321 323.742 141.879 324.86C134.086 321.719 129.141 327.177 131.504 333.66C132.392 336.096 134.141 338.01 135.89 339.714C148.482 352.012 163.986 357.315 177.484 360.886C182.191 362.141 186.871 363.936 191.386 365.666C199.188 368.652 202.329 369.513 214.591 382.297C217.787 385.63 217.732 385.52 243.218 411.565C245.096 413.488 246.891 415.484 249.098 416.803H236.945C236.35 416.803 235.865 417.288 235.865 417.884C235.865 418.479 236.35 418.964 236.945 418.964H358.321C358.916 418.964 359.402 418.479 359.402 417.884C359.402 417.288 358.916 416.803 358.321 416.803L358.33 416.766ZM149.828 167.897C161.147 163.785 170.873 154.756 175.818 143.766C176.065 143.217 176.697 142.97 177.246 143.217C177.796 143.464 178.043 144.096 177.796 144.646C172.53 156.34 162.612 165.553 150.57 169.93C149.196 170.388 148.5 168.41 149.837 167.897H149.828ZM168.043 181.075C175.342 181.249 182.649 181.432 189.966 181.597C192.045 176.752 194.133 171.908 196.212 167.064C196.468 166.459 196.871 164.481 197.814 165.049C198.318 165.369 198.538 168.263 198.675 168.886C200.699 178.227 200.699 178.969 201.688 180.058C202.998 181.533 205.278 181.56 207.238 181.295C212.036 180.663 217 181.011 221.762 181.899C228.813 183.236 232.962 186.954 234.802 196.322C235.297 198.813 234.903 201.716 234.876 204.271C237.65 199.445 241.304 193.511 246.781 191.835C258.979 188.19 263.136 205.672 252.88 215.627C249.134 219.226 243.923 221.479 238.2 221.323C237.687 221.286 237.193 221.689 237.101 222.22C235.709 230.206 230.297 248.549 224.463 258.714C221.744 263.476 218.199 267.945 214.207 271.681C210.388 272.322 207.87 274.886 205.699 278.128C194.637 285.161 180.442 286.114 168.089 278.311C166.495 274.676 164.984 271.132 162.612 268.888C160.616 267.011 157.869 265.948 155.103 266.763C143.07 253.091 140.606 244.574 136.431 230.096C136.284 229.601 135.808 229.281 135.295 229.318C130.588 229.748 124.068 232.569 118.253 228.411C110.798 223.072 109.91 211.268 118.6 206.03C124.7 202.321 132.218 204.61 135.744 209.821C136.412 210.801 137.951 210.141 137.694 208.988C136.073 201.524 136.843 193.218 139.654 185.471C143.931 179.646 160.634 180.892 168.034 181.075H168.043ZM200.113 283.366L200.489 287.212C196.432 294.365 191.88 300.152 183.19 296.947C176.523 294.511 172.603 288.028 169.627 281.718C179.462 286.919 190.351 287.167 200.113 283.366ZM245.682 410.942C216.047 380.648 219.921 384.669 216.157 380.749C203.703 367.782 200.36 366.738 192.164 363.597C187.595 361.839 182.86 360.034 178.043 358.743C164.81 355.245 149.636 350.062 137.401 338.12C135.835 336.591 134.278 334.897 133.537 332.873C132.932 331.224 132.868 328.917 134.077 327.479C136.412 324.732 141.962 326.389 144.269 328.917C147.493 333.669 151.852 337.571 156.861 340.208C157.026 340.29 157.191 340.336 157.365 340.336C158.491 340.336 158.867 338.825 157.869 338.294C150.671 334.503 145.085 327.964 142.429 320.638C141.769 318.834 141.028 315.546 143.473 313.715C144.123 313.229 146.083 311.773 149.618 314.566C154.288 320.977 159.902 327.204 166.376 332.873C166.825 333.266 167.512 333.221 167.905 332.772C168.299 332.323 168.253 331.636 167.805 331.243C163.006 327.039 149.911 313.66 148.235 307.762C147.539 305.235 148.867 302.295 151.193 301.224C154.032 299.905 156.761 301.407 158.088 303.339C159.096 304.823 164.764 311.453 167.704 314.008C168.153 314.402 168.84 314.347 169.233 313.898C169.627 313.449 169.572 312.762 169.123 312.369C161.907 306.105 155.698 295.757 152.997 286.37C147.951 269.227 156.367 265.994 161.11 270.445C166.532 275.573 168.867 293.998 182.439 298.953C202.613 306.389 202.943 273.751 215.599 273.677C220.113 273.549 221.881 278.449 220.837 282.835C218.676 291.489 213.199 294.969 213.199 307.616C213.199 320.263 219.527 332.699 230.462 340.135C251.002 354.073 270.179 358.139 291.69 376.152C305.225 387.553 317.02 401.024 326.544 415.96C314.035 415.64 323.385 416.025 254.244 416.043C250.618 416.043 248.328 413.671 245.673 410.915L245.682 410.942Z" fill="black"/>
<circle cx="164.01" cy="211.192" r="3.8148" transform="rotate(2.6853 164.01 211.192)" fill="black"/>
<circle cx="209.966" cy="203.51" r="3.8148" transform="rotate(2.6853 209.966 203.51)" fill="black"/>
<path d="M208.757 241.103C208.199 241.323 207.924 241.946 208.144 242.505C208.702 243.933 209.27 245.408 209.389 246.882C209.618 249.812 207.97 251.781 204.801 251.58C203.4 251.488 201.99 250.994 200.625 250.508C200.067 250.307 199.444 250.6 199.242 251.168C199.041 251.736 199.334 252.349 199.902 252.551C201.605 253.155 203.363 253.759 205.195 253.759C209.426 253.759 211.862 250.756 211.55 246.717C211.404 244.913 210.744 243.219 210.158 241.717C209.939 241.158 209.316 240.893 208.757 241.103Z" fill="black"/>
<path d="M180.505 240.664C180.652 240.664 191.66 240.242 191.513 240.233C192.108 240.215 192.575 239.711 192.548 239.107C192.52 238.512 192.053 238.109 191.421 238.072L181.751 238.457L184.745 217.467C184.828 216.872 184.416 216.332 183.83 216.24C183.225 216.148 182.694 216.57 182.603 217.156L179.425 239.436C179.333 240.087 179.837 240.673 180.496 240.673L180.505 240.664Z" fill="black"/>
<path d="M197.524 205.231C201.275 200.319 207.902 198.585 213.582 201.025C214.13 201.252 214.765 201.007 215.002 200.459C215.238 199.91 214.984 199.275 214.436 199.039C207.758 196.177 200.114 198.294 195.807 203.922C195.445 204.4 195.533 205.074 196.011 205.435C196.489 205.797 197.162 205.709 197.524 205.231Z" fill="black"/>
<path d="M152.739 210.477C157.041 206.131 163.934 205.556 168.897 209.209C169.375 209.561 170.059 209.456 170.411 208.977C170.764 208.499 170.667 207.816 170.18 207.463C164.376 203.184 156.26 203.821 151.197 208.947C150.774 209.376 150.778 210.055 151.208 210.478C151.628 210.901 152.316 210.897 152.739 210.468L152.739 210.477Z" fill="black"/>
<path d="M241.56 208.676C245.086 207.302 248.154 204.61 249.976 201.285C250.26 200.763 250.068 200.104 249.546 199.82C249.024 199.527 248.364 199.729 248.08 200.251C246.505 203.126 243.84 205.471 240.782 206.661C240.223 206.881 239.948 207.504 240.168 208.062C240.388 208.621 241.011 208.895 241.569 208.676H241.56Z" fill="black"/>
<path d="M131.301 218.328C127.885 217.898 124.616 216.011 122.546 213.273C122.189 212.797 121.502 212.705 121.035 213.062C120.559 213.42 120.468 214.097 120.825 214.573C123.279 217.824 127.006 219.967 131.045 220.48C131.631 220.553 132.18 220.141 132.254 219.537C132.327 218.942 131.906 218.401 131.31 218.328H131.301Z" fill="black"/>
<path d="M252.905 68.5667C261.619 61.7472 271.69 61.621 275.636 62.4102C271.469 46.1193 283.687 35.4166 290.317 32.1017C305.85 27.9342 316.679 34.7853 320.152 38.7317L333.886 24.9979C342.094 19.4729 363.153 11.4537 381.717 23.5772C400.281 35.7006 403.343 57.9901 402.554 67.6194C428.316 67.2406 437.283 81.9845 438.545 89.4038C443.471 110.999 428.916 127.132 421.023 132.499C401.323 147.653 383.769 143.549 377.455 139.603C358.89 157.409 338.148 153.652 330.097 149.548C318.353 140.455 311.944 139.129 310.207 139.603C296.947 144.907 286.055 144.654 282.266 143.865C277.373 144.023 264.934 141.686 254.326 131.078C243.718 120.47 241.066 106.137 241.066 100.296C241.381 92.561 244.191 75.3861 252.905 68.5667Z" fill="#FFEBF1"/>
<path d="M433.894 78.5987C427.09 70.2744 415.652 65.8787 403.82 66.941C405.441 46.4827 392.51 25.823 373.288 18.4968C353.096 10.7952 331.419 21.9951 319.936 37.2793C311.758 29.0557 298.269 26.8944 287.966 32.325C277.764 37.7097 271.94 49.8894 273.955 61.19C259.999 59.1936 244.943 69.4685 240.96 89.1026C236.994 108.663 245.374 130.092 265.035 140.157C276.189 145.871 289.853 147.446 304.285 142.684C311.987 140.138 314.212 140.312 321.868 145.596C331.245 152.062 341.429 155.111 352.858 153.564C362.336 152.281 371.448 147.584 378.023 140.624C398.096 151.512 426.357 135.953 436.293 117.143C443.015 104.405 442.026 88.5531 433.885 78.5896L433.894 78.5987ZM434.388 116.145C424.709 134.47 397.144 149.003 378.984 138.765C378.728 137.986 377.711 137.767 377.153 138.389C370.871 145.413 361.914 150.166 352.574 151.421C342.628 152.767 332.756 150.459 323.104 143.811C314.936 138.179 312.023 137.84 303.607 140.624C289.834 145.157 276.812 143.756 266.024 138.234C247.526 128.755 239.247 108.462 243.084 89.5239C246.976 70.3568 261.977 60.6955 275.118 63.5893C275.896 63.7633 276.592 63.0582 276.4 62.2706C273.781 51.6477 279.303 39.3306 288.983 34.2206C298.662 29.1106 311.95 31.5099 319.24 39.6694C319.725 40.2189 320.549 40.109 320.925 39.5778C331.703 24.431 352.894 13.0205 372.519 20.5024C391.265 27.6545 403.747 48.0762 401.549 68.0216C401.467 68.7359 402.108 69.3128 402.758 69.2121C414.168 67.7927 425.734 72.0052 432.227 79.9449C439.837 89.2583 440.726 104.14 434.398 116.127L434.388 116.145Z" fill="black"/>
<path d="M323.303 78.7654C323.48 82.876 323.458 87.053 323.237 91.2962L323.038 112.446C322.375 112.358 321.645 112.313 320.85 112.313C320.054 112.313 319.259 112.313 318.463 112.313C317.667 112.313 316.894 112.335 316.142 112.38C315.435 112.38 314.816 112.38 314.286 112.38C314.198 110.479 314.131 108.424 314.087 106.214C314.087 104.004 314.065 101.75 314.021 99.4511C314.021 97.1527 313.955 94.8985 313.822 92.6885C313.734 90.4785 313.579 88.4453 313.358 86.5889C313.048 87.0751 312.695 87.8486 312.297 88.9094C311.899 89.926 311.501 90.9868 311.104 92.0918C310.706 93.1968 310.33 94.1692 309.977 95.009C309.623 95.8488 309.358 96.2687 309.181 96.2687C308.96 96.2687 308.695 96.0477 308.385 95.6057C308.12 95.1195 307.833 94.5228 307.523 93.8156C307.258 93.1084 306.971 92.357 306.661 91.5614C306.352 90.7658 306.087 90.0365 305.866 89.3735C305.645 88.7105 305.446 88.158 305.269 87.716C305.137 87.274 305.07 87.053 305.07 87.053C304.717 91.2078 304.584 95.4068 304.672 99.65C304.805 103.893 305.004 108.07 305.269 112.181C303.855 112.402 302.308 112.49 300.628 112.446C298.949 112.402 297.402 112.38 295.987 112.38C295.899 112.38 295.832 112.313 295.788 112.181C295.744 112.004 295.7 111.584 295.656 110.921C295.611 110.258 295.567 109.264 295.523 107.938C295.523 106.567 295.523 104.777 295.523 102.567C295.523 100.357 295.523 97.6168 295.523 94.346C295.567 91.0752 295.589 87.1856 295.589 82.6771C295.634 78.1687 295.678 72.9089 295.722 66.8977C296.297 66.7209 296.96 66.6104 297.711 66.5662C298.462 66.522 299.236 66.522 300.031 66.5662C300.827 66.5662 301.623 66.5883 302.418 66.6325C303.214 66.6325 303.987 66.6104 304.739 66.5662H304.805C305.203 67.0082 305.601 67.6933 305.998 68.6215C306.396 69.5055 306.772 70.4558 307.126 71.4724C307.479 72.489 307.811 73.4614 308.12 74.3896C308.474 75.3178 308.827 76.0471 309.181 76.5775C309.314 76.7101 309.446 76.7764 309.579 76.7764C309.711 76.8206 309.91 76.4007 310.175 75.5167C310.485 74.6327 310.794 73.6161 311.104 72.4669C311.457 71.2735 311.833 70.1022 312.231 68.953C312.673 67.8038 313.093 66.964 313.49 66.4336C313.8 66.4778 314.352 66.4778 315.148 66.4336C315.988 66.3894 316.872 66.3452 317.8 66.301C318.772 66.2568 319.745 66.2347 320.717 66.2347C321.734 66.1905 322.596 66.1684 323.303 66.1684C323.126 70.4116 323.126 74.6106 323.303 78.7654ZM341.202 65.7706C342.263 65.8148 343.788 65.8148 345.777 65.7706H347.368V66.0358C347.368 69.837 347.302 73.6603 347.169 77.5057C347.081 81.3511 346.993 85.2187 346.904 89.1083C346.86 92.9537 346.86 96.7991 346.904 100.645C346.948 104.49 347.081 108.291 347.302 112.048C346.948 112.402 346.197 112.601 345.048 112.645C343.943 112.733 342.727 112.755 341.401 112.711C340.119 112.667 338.882 112.601 337.688 112.512C336.495 112.468 335.677 112.512 335.235 112.645C335.545 108.667 335.677 104.667 335.633 100.645C335.589 96.6223 335.501 92.6443 335.368 88.7105C335.28 84.7324 335.213 80.8207 335.169 76.9753C335.169 73.0857 335.368 69.2845 335.766 65.5717V65.4391C335.987 65.3949 336.407 65.417 337.025 65.5054C337.688 65.5496 338.175 65.5717 338.484 65.5717C339.28 65.6159 340.186 65.6822 341.202 65.7706ZM365.917 99.9815C365.917 99.6721 365.917 99.4069 365.917 99.1859L366.049 96.6665C366.27 95.2521 366.536 93.904 366.845 92.6222C367.199 91.2962 367.795 90.0144 368.635 88.7768C369.121 87.8486 369.851 86.7657 370.823 85.5281C371.84 84.2462 372.702 82.9865 373.409 81.7489C374.116 80.5113 374.447 79.3621 374.403 78.3013C374.359 77.2405 373.541 76.4228 371.95 75.8482C370.934 75.4062 370.138 75.3178 369.563 75.583C369.033 75.804 368.569 76.1797 368.171 76.7101C367.773 77.1963 367.397 77.7267 367.044 78.3013C366.69 78.8759 366.226 79.2737 365.652 79.4947C364.281 79.6273 362.911 79.6494 361.541 79.561C360.215 79.4726 358.889 79.4063 357.563 79.3621V79.2958C357.651 77.6162 358.027 75.9808 358.69 74.3896C359.353 72.7542 360.259 71.2956 361.408 70.0138C362.558 68.732 363.906 67.6933 365.453 66.8977C367 66.0579 368.723 65.5938 370.624 65.5054C372.657 65.3286 374.58 65.5275 376.392 66.1021C378.249 66.6767 379.84 67.5607 381.166 68.7541C382.536 69.9475 383.575 71.384 384.282 73.0636C384.989 74.7432 385.232 76.5554 385.011 78.5002C384.834 79.9146 384.459 81.1964 383.884 82.3456C383.31 83.4948 382.647 84.5556 381.895 85.5281C381.188 86.5005 380.503 87.2961 379.84 87.9149C379.221 88.4895 378.58 89.2188 377.917 90.1028C376.989 91.3846 376.282 92.6664 375.796 93.9482C375.354 95.23 374.978 96.6444 374.668 98.1914C374.58 98.545 374.492 98.9207 374.403 99.3185C374.315 99.7163 374.315 100.092 374.403 100.446V100.512C373.033 100.689 371.663 100.733 370.293 100.645C368.967 100.556 367.618 100.556 366.248 100.645H366.182C366.005 100.468 365.917 100.247 365.917 99.9815ZM373.807 112.38H373.674L366.182 112.313H365.983C365.895 111.827 365.828 111.208 365.784 110.457C365.784 109.706 365.784 108.954 365.784 108.203C365.828 107.451 365.85 106.744 365.85 106.081C365.895 105.418 365.917 104.932 365.917 104.623C366.359 104.446 366.978 104.313 367.773 104.225C368.613 104.136 369.453 104.092 370.293 104.092C371.132 104.092 371.906 104.136 372.613 104.225C373.365 104.269 373.895 104.357 374.204 104.49C374.204 104.534 374.182 104.91 374.138 105.617C374.094 106.28 374.05 107.054 374.005 107.938C373.961 108.822 373.917 109.683 373.873 110.523C373.829 111.363 373.807 111.938 373.807 112.247V112.313V112.38Z" fill="black"/>
<circle cx="310.207" cy="169.438" r="12.3129" fill="#FFEBF1" stroke="black" stroke-width="1.89429"/>
<circle cx="296" cy="195.958" r="9.47146" fill="#FFEBF1" stroke="black" stroke-width="1.89429"/>
<path d="M80.3344 292.899C88.2412 276.242 81.0155 270.319 66.5957 282.618C54.9066 268.12 46.6797 272.576 51.6234 291.023C49.3132 291.312 47.1537 291.715 45.2107 292.236C39.4478 293.778 36.1803 296.181 36.0076 298.996C35.7314 303.475 43.0324 306.553 47.2604 307.921C39.1496 325.264 47.7061 330.694 63.4035 315.885C75.9463 333.707 86.2605 330.806 80.6891 310.384C99.067 307.464 99.0921 297.822 80.3344 292.899ZM79.0883 277.102C79.9577 277.102 80.6828 277.318 81.2384 277.753C83.6773 279.679 82.7074 285.519 79.2954 292.636C77.1924 292.124 74.9293 291.69 72.5344 291.35C70.8457 288.446 69.0534 285.77 67.2329 283.425C70.1363 280.946 75.2965 277.102 79.0883 277.102ZM67.5436 310.092C65.246 310.029 62.9609 309.87 60.6256 309.613C58.3154 305.639 56.3003 301.399 54.7434 297.327C56.1433 295.359 57.5652 293.518 59.2319 291.55C63.5259 291.483 67.7319 291.74 71.9066 292.318C73.2751 294.705 74.4491 296.997 75.5445 299.383C73.1559 303.183 70.4376 306.791 67.5436 310.092ZM76.0499 300.526C77.4058 303.598 78.5358 306.63 79.3833 309.502C76.2005 309.94 72.6411 310.162 68.8776 310.118C71.5299 307.029 73.9625 303.76 76.0467 300.526H76.0499ZM66.6553 311.089C65.6352 312.216 64.6056 313.288 63.573 314.295C62.8008 313.158 62.0318 311.965 61.2816 310.718C63.6891 310.962 65.1298 311.029 66.6553 311.089ZM59.3544 309.461C55.5155 308.978 51.909 308.242 48.7231 307.299C50.1356 304.443 51.9278 301.396 54.0434 298.326C55.5658 302.215 57.3235 305.877 59.3512 309.464L59.3544 309.461ZM54.3196 296.152C53.7955 294.711 53.3246 293.293 52.926 291.912C54.5111 291.744 56.1653 291.633 57.8697 291.575C56.5482 293.172 55.4559 294.587 54.3196 296.152ZM60.1359 290.496C62.2201 288.116 64.3514 285.961 66.4576 284.098C68.096 286.208 69.7063 288.595 71.2412 291.175C67.5405 290.709 63.7833 290.48 60.1359 290.496ZM73.1935 292.502C75.1616 292.81 77.048 293.178 78.8183 293.607C78.0462 295.143 77.1642 296.73 76.1848 298.342C75.3687 296.597 74.515 294.857 73.1935 292.502ZM51.4821 285.488C50.8889 281.441 50.7822 275.03 54.8062 275.03C58.5728 275.03 63.4348 280.33 65.8172 283.288C63.4631 285.37 61.0776 287.811 58.7611 290.512C56.6424 290.557 54.5959 290.69 52.6435 290.899C52.1319 289.011 51.7301 287.189 51.479 285.488H51.4821ZM44.6897 305.893C31.4155 300.491 36.3874 293.927 51.8965 292.026C52.3736 293.692 52.9417 295.41 53.5977 297.158C51.2122 300.545 49.2284 303.871 47.703 306.979C46.6452 306.639 45.6376 306.277 44.6897 305.893ZM56.3944 320.252C51.8933 323.28 48.2805 324.204 46.4819 322.785C44.0807 320.89 44.9816 315.199 48.2679 308.232C51.7615 309.28 55.751 310.076 59.9978 310.575C60.9175 312.146 61.8592 313.634 62.8102 315.028C60.6381 317.088 58.4723 318.856 56.3976 320.252H56.3944ZM77.5377 326.632C74.1885 326.632 69.0722 322.128 64.1631 315.145C65.4469 313.898 66.7275 312.552 67.9925 311.127C71.9223 311.222 75.7988 311.07 79.6658 310.53C81.1379 315.875 82.9302 326.632 77.5377 326.632ZM80.4003 309.35C79.4775 306.195 78.2282 302.856 76.7059 299.479C77.9018 297.555 78.9564 295.673 79.8573 293.864C88.0748 295.994 93.6054 299.301 93.4045 302.592C93.2162 305.684 88.0057 308.159 80.4003 309.35Z" fill="black"/>
<path d="M50.5247 286.05C51.9601 286.05 53.1237 284.873 53.1237 283.421C53.1237 281.97 51.9601 280.793 50.5247 280.793C49.0894 280.793 47.9258 281.97 47.9258 283.421C47.9258 284.873 49.0894 286.05 50.5247 286.05Z" fill="#F8D512"/>
<path d="M73.1774 327.473C74.7359 327.473 75.9992 326.196 75.9992 324.62C75.9992 323.044 74.7359 321.766 73.1774 321.766C71.619 321.766 70.3556 323.044 70.3556 324.62C70.3556 326.196 71.619 327.473 73.1774 327.473Z" fill="#F8D512"/>
<path d="M81.3136 291.131C83.0402 291.131 84.4398 289.716 84.4398 287.97C84.4398 286.224 83.0402 284.809 81.3136 284.809C79.587 284.809 78.1873 286.224 78.1873 287.97C78.1873 289.716 79.587 291.131 81.3136 291.131Z" fill="#87AB99"/>
<path d="M54.2098 324.235C55.7197 324.235 56.9437 322.998 56.9437 321.471C56.9437 319.944 55.7197 318.706 54.2098 318.706C52.6999 318.706 51.4758 319.944 51.4758 321.471C51.4758 322.998 52.6999 324.235 54.2098 324.235Z" fill="#87AB99"/>
<path d="M414.532 202.361C426.397 177.364 415.554 168.477 393.914 186.934C376.373 165.176 364.027 171.863 371.446 199.546C367.979 199.98 364.738 200.585 361.822 201.366C353.174 203.681 348.271 207.286 348.011 211.511C347.597 218.232 358.553 222.852 364.898 224.905C352.727 250.931 365.567 259.08 389.124 236.856C407.947 263.6 423.425 259.247 415.064 228.601C442.643 224.219 442.681 209.749 414.532 202.361ZM412.662 178.655C413.966 178.655 415.055 178.979 415.888 179.632C419.548 182.523 418.093 191.287 412.973 201.966C409.817 201.199 406.42 200.546 402.826 200.037C400.292 195.679 397.602 191.663 394.87 188.143C399.228 184.423 406.971 178.655 412.662 178.655ZM395.337 228.163C391.889 228.068 388.46 227.83 384.955 227.444C381.488 221.48 378.464 215.117 376.128 209.006C378.229 206.053 380.362 203.29 382.864 200.337C389.307 200.237 395.619 200.623 401.884 201.49C403.938 205.071 405.7 208.51 407.344 212.092C403.759 217.794 399.68 223.209 395.337 228.163ZM408.102 213.807C410.137 218.418 411.833 222.966 413.104 227.277C408.328 227.934 402.986 228.268 397.339 228.201C401.319 223.567 404.97 218.661 408.097 213.807H408.102ZM394.004 229.659C392.473 231.349 390.928 232.959 389.378 234.469C388.219 232.764 387.065 230.973 385.94 229.101C389.552 229.468 391.714 229.568 394.004 229.659ZM383.047 227.215C377.287 226.491 371.874 225.386 367.093 223.971C369.213 219.685 371.903 215.112 375.077 210.506C377.362 216.341 380 221.838 383.043 227.22L383.047 227.215ZM375.492 207.243C374.705 205.081 373.999 202.952 373.4 200.88C375.779 200.627 378.262 200.461 380.819 200.375C378.836 202.771 377.197 204.895 375.492 207.243ZM384.22 198.756C387.348 195.183 390.546 191.949 393.707 189.153C396.166 192.321 398.582 195.902 400.886 199.775C395.332 199.075 389.694 198.732 384.22 198.756ZM403.815 201.766C406.769 202.228 409.6 202.78 412.257 203.423C411.098 205.729 409.774 208.11 408.305 210.53C407.08 207.91 405.799 205.3 403.815 201.766ZM371.234 191.239C370.343 185.166 370.183 175.545 376.222 175.545C381.874 175.545 389.171 183.499 392.746 187.939C389.213 191.063 385.633 194.726 382.157 198.779C378.978 198.846 375.906 199.046 372.977 199.36C372.209 196.526 371.606 193.792 371.229 191.239H371.234ZM361.04 221.861C341.12 213.755 348.581 203.904 371.855 201.051C372.571 203.552 373.424 206.129 374.408 208.753C370.829 213.836 367.852 218.827 365.562 223.49C363.975 222.981 362.463 222.438 361.04 221.861ZM378.605 243.41C371.851 247.954 366.429 249.34 363.73 247.211C360.127 244.367 361.478 235.827 366.41 225.372C371.653 226.944 377.64 228.139 384.013 228.887C385.393 231.245 386.806 233.479 388.234 235.57C384.974 238.661 381.724 241.314 378.61 243.41H378.605ZM410.335 252.983C405.309 252.983 397.631 246.225 390.264 235.746C392.19 233.874 394.112 231.854 396.01 229.716C401.908 229.859 407.725 229.63 413.528 228.82C415.738 236.841 418.427 252.983 410.335 252.983ZM414.631 227.048C413.246 222.314 411.371 217.303 409.086 212.235C410.881 209.349 412.464 206.524 413.816 203.809C426.147 207.005 434.447 211.968 434.146 216.908C433.863 221.547 426.044 225.262 414.631 227.048Z" fill="black"/>
<path d="M369.797 192.083C371.951 192.083 373.697 190.317 373.697 188.139C373.697 185.961 371.951 184.195 369.797 184.195C367.643 184.195 365.897 185.961 365.897 188.139C365.897 190.317 367.643 192.083 369.797 192.083Z" fill="#F8D512"/>
<path d="M403.791 254.246C406.13 254.246 408.026 252.329 408.026 249.964C408.026 247.599 406.13 245.682 403.791 245.682C401.453 245.682 399.557 247.599 399.557 249.964C399.557 252.329 401.453 254.246 403.791 254.246Z" fill="#F8D512"/>
<path d="M416.001 199.709C418.592 199.709 420.692 197.585 420.692 194.965C420.692 192.345 418.592 190.221 416.001 190.221C413.41 190.221 411.309 192.345 411.309 194.965C411.309 197.585 413.41 199.709 416.001 199.709Z" fill="#87AB99"/>
<path d="M375.327 249.387C377.593 249.387 379.43 247.529 379.43 245.238C379.43 242.947 377.593 241.09 375.327 241.09C373.061 241.09 371.224 242.947 371.224 245.238C371.224 247.529 373.061 249.387 375.327 249.387Z" fill="#87AB99"/>
</svg>
