<?xml version="1.0" encoding="utf-8"?>
<!-- Generator: Adobe Illustrator 27.0.0, SVG Export Plug-In . SVG Version: 6.00 Build 0)  -->
<svg version="1.1" id="Layer_1" xmlns="http://www.w3.org/2000/svg" xmlns:xlink="http://www.w3.org/1999/xlink" x="0px" y="0px"
	 viewBox="0 0 460 460" style="enable-background:new 0 0 460 460;" xml:space="preserve">
<style type="text/css">
	.st0{fill:#FFFFFF;}
	.st1{filter:url(#Adobe_OpacityMaskFilter);}
	.st2{fill:#0563C1;}
	.st3{mask:url(#SVGID_1_);}
	.st4{fill:#FEFCEB;}
	.st5{fill:#A72D18;}
	.st6{clip-path:url(#SVGID_00000127024787921696838470000009442428467510924438_);}
	.st7{fill:#FAEC39;}
	.st8{fill:#F8D512;}
	.st9{fill:#486758;}
	.st10{fill-rule:evenodd;clip-rule:evenodd;fill:#FFD7B1;}
	.st11{fill-rule:evenodd;clip-rule:evenodd;fill:#87AB99;}
	.st12{fill-rule:evenodd;clip-rule:evenodd;}
	.st13{fill:#FFEBF1;}
	.st14{clip-path:url(#SVGID_00000036954981260568022370000011889944185723261827_);fill:#18292D;}
	.st15{fill-rule:evenodd;clip-rule:evenodd;fill:#F8D512;}
	.st16{clip-path:url(#SVGID_00000152258830140213541290000012582350772574887101_);fill:#18292D;}
	.st17{fill:#CE4C7A;}
	.st18{clip-path:url(#SVGID_00000080201558234208995740000011225456465852056198_);}
	.st19{fill:#87AB99;}
</style>
<rect class="st0" width="460" height="460"/>
<defs>
	<filter id="Adobe_OpacityMaskFilter" filterUnits="userSpaceOnUse" x="0" y="0" width="460" height="460">
		<feColorMatrix  type="matrix" values="1 0 0 0 0  0 1 0 0 0  0 0 1 0 0  0 0 0 1 0"/>
	</filter>
</defs>
<mask maskUnits="userSpaceOnUse" x="0" y="0" width="460" height="460" id="SVGID_1_">
	<g class="st1">
		<path class="st2" d="M0,20C0,8.95,8.95,0,20,0h420c11.05,0,20,8.95,20,20v420c0,11.05-8.95,20-20,20H20c-11.05,0-20-8.95-20-20V20
			z"/>
	</g>
</mask>
<g class="st3">
	<g>
		<defs>
			<rect id="SVGID_00000183963605506462532560000007438727919861907380_" width="460" height="460"/>
		</defs>
		<clipPath id="SVGID_00000178173715905341307880000012194123183742961565_">
			<use xlink:href="#SVGID_00000183963605506462532560000007438727919861907380_"  style="overflow:visible;"/>
		</clipPath>
	</g>
</g>
<g>
	<path class="st4" d="M119.6,393.19c96.89-19.05,125.45-23.31,126.42-15.37c15.5,18.05,78.38,31.62,142.92,8.83
		s62.42-94.12,61.17-135.36c-0.28-34.08-11.34-113.36-53.37-157.81S299.73,62.2,277.5,74.34c-23.97,15.25-99.44,21.29-172.49,0
		s-90.8,72.83-95.18,112.99C6.84,258.76,22.71,412.24,119.6,393.19z"/>
	<path class="st5" d="M343.17,362.06l-25.02-14.99c-51.49,6.21-84.77,24.29-84.77,24.29s-17.31-17.76-76.2-31.84l-39.87,15.65
		c0.85-6.54,1.84-12.27,3.05-15.65c7.26-20.67,21.57-34.41,41.11-42.69c35.04-14.87,38.76-12.59,43.25-13.8
		c2.76-0.74,4.97,0.17,4.63,3.09c-0.07,0.77-0.31,1.57-0.48,2.33c-0.96,4.11,0.07,9.46,3.8,11.74c8.97,5.53,18.42,6.79,26.8,0.39
		c2.23-1.7,4.86-2.48,3.63-8.62c-0.29-1.44-0.87-3-0.22-4.32c0.56-1.21,2.17-1.76,3.48-1.99c5.55-1.04,7.64,0.39,10.21,0.59
		c9.92,0.73,20.99,3.13,30.48,5.83c11.31,3.23,20.36,7.96,30.25,13.89c8.25,4.94,12.86,13.05,16.97,21.74
		C339.43,338.67,342.4,350.26,343.17,362.06L343.17,362.06z"/>
	<g>
		<defs>
			<path id="SVGID_00000001624765058386082530000013111679502507851412_" d="M343.17,362.06l-25.02-14.99
				c-51.49,6.21-84.77,24.29-84.77,24.29s-17.31-17.76-76.2-31.84l-39.87,15.65c0.85-6.54,1.84-12.27,3.05-15.65
				c7.26-20.67,21.57-34.41,41.11-42.69c35.04-14.87,38.76-12.59,43.25-13.8c2.76-0.74,4.97,0.17,4.63,3.09
				c-0.07,0.77-0.31,1.57-0.48,2.33c-0.96,4.11,0.07,9.46,3.8,11.74c8.97,5.53,18.42,6.79,26.8,0.39c2.23-1.7,4.86-2.48,3.63-8.62
				c-0.29-1.44-0.87-3-0.22-4.32c0.56-1.21,2.17-1.76,3.48-1.99c5.55-1.04,7.64,0.39,10.21,0.59c9.92,0.73,20.99,3.13,30.48,5.83
				c11.31,3.23,20.36,7.96,30.25,13.89c8.25,4.94,12.86,13.05,16.97,21.74C339.43,338.67,342.4,350.26,343.17,362.06L343.17,362.06z
				"/>
		</defs>
		<clipPath id="SVGID_00000034802514095017568350000007024341386596410269_">
			<use xlink:href="#SVGID_00000001624765058386082530000013111679502507851412_"  style="overflow:visible;"/>
		</clipPath>
		<path style="clip-path:url(#SVGID_00000034802514095017568350000007024341386596410269_);" d="M342.2,361.08L342.2,361.08
			l1.94,1.95l0.01-0.01L342.2,361.08z M333.03,328.31c5.09,10.79,8.01,22.22,8.78,33.84l2.74-0.18c-0.79-11.96-3.8-23.73-9.03-34.83
			L333.03,328.31z M316.59,307.16c7.87,4.71,12.34,12.48,16.44,21.15l2.49-1.18c-4.12-8.71-8.88-17.16-17.51-22.33L316.59,307.16z
			 M286.67,293.41c11.15,3.18,20.07,7.85,29.92,13.75l1.41-2.36c-9.94-5.96-19.1-10.76-30.58-14.04L286.67,293.41z M256.46,287.63
			c9.79,0.72,20.77,3.1,30.21,5.78l0.75-2.65c-9.54-2.71-20.72-5.13-30.76-5.88L256.46,287.63z M246.61,287.02
			c5.36-1,6.68,0.37,9.85,0.61l0.21-2.74c-1.96-0.15-4.83-1.64-10.57-0.57L246.61,287.02z M244.12,288.23
			c0.1-0.21,0.34-0.47,0.82-0.71c0.47-0.24,1.06-0.4,1.64-0.5l-0.47-2.71c-0.73,0.13-1.6,0.35-2.4,0.75
			c-0.79,0.39-1.63,1.02-2.09,2.02L244.12,288.23z M244.44,291.7c-0.18-0.89-0.36-1.42-0.45-2.11c-0.08-0.61-0.04-1.01,0.11-1.32
			l-2.46-1.22c-0.5,1.01-0.49,2.05-0.38,2.91c0.11,0.78,0.37,1.75,0.48,2.29L244.44,291.7z M240.3,301.69
			c0.25-0.19,0.51-0.37,0.8-0.57c0.28-0.19,0.58-0.4,0.88-0.63c0.6-0.45,1.24-1.01,1.75-1.78c1.07-1.6,1.37-3.76,0.72-7.01
			l-2.7,0.54c0.58,2.89,0.19,4.19-0.31,4.94c-0.27,0.4-0.63,0.74-1.12,1.11c-0.24,0.18-0.5,0.36-0.79,0.56
			c-0.28,0.19-0.59,0.41-0.9,0.64L240.3,301.69z M211.95,301.37c9.27,5.71,19.37,7.17,28.35,0.32l-1.67-2.19
			c-7.77,5.93-16.56,4.88-25.24-0.47L211.95,301.37z M207.53,288.14c-0.53,2.27-0.51,4.87,0.16,7.24c0.67,2.37,2.03,4.61,4.26,5.98
			l1.44-2.34c-1.49-0.91-2.51-2.49-3.05-4.39c-0.54-1.9-0.56-4.03-0.13-5.87L207.53,288.14z M207.98,285.99
			c-0.06,0.66-0.25,1.27-0.45,2.17l2.68,0.6c0.14-0.63,0.42-1.62,0.51-2.5L207.98,285.99z M205.07,284.36
			c1.21-0.33,2.02-0.2,2.42,0.03c0.27,0.16,0.61,0.51,0.49,1.57l2.73,0.31c0.21-1.85-0.39-3.41-1.83-4.26
			c-1.31-0.77-2.98-0.73-4.53-0.31L205.07,284.36z M162,298.1c17.49-7.42,27.11-10.54,32.87-11.95c2.87-0.7,4.8-0.99,6.28-1.17
			c1.45-0.18,2.67-0.28,3.91-0.61l-0.71-2.66c-1,0.27-1.93,0.34-3.53,0.54c-1.57,0.19-3.6,0.5-6.6,1.23
			c-5.97,1.47-15.74,4.65-33.29,12.09L162,298.1z M121.65,339.97c7.12-20.26,21.13-33.74,40.35-41.88l-1.07-2.53
			c-19.85,8.41-34.47,22.42-41.87,43.5L121.65,339.97z M118.67,355.35c0.85-6.56,1.83-12.14,2.98-15.37l-2.59-0.92
			c-1.26,3.54-2.27,9.41-3.12,15.94L118.67,355.35z M156.67,338.24l-39.87,15.65l1.01,2.56l39.87-15.65L156.67,338.24z
			 M233.37,371.36c0.98-0.96,0.98-0.96,0.98-0.96c0,0,0,0,0,0c0,0,0,0,0,0c0,0-0.01-0.01-0.01-0.01c-0.01-0.01-0.03-0.03-0.05-0.05
			c-0.04-0.04-0.1-0.1-0.18-0.17c-0.15-0.15-0.38-0.36-0.69-0.63c-0.62-0.54-1.55-1.31-2.85-2.27c-2.6-1.93-6.66-4.62-12.56-7.76
			c-11.8-6.26-30.97-14.26-60.51-21.32l-0.64,2.67c29.35,7.02,48.29,14.94,59.86,21.08c5.79,3.07,9.73,5.69,12.22,7.54
			c1.24,0.92,2.12,1.65,2.68,2.14c0.28,0.24,0.48,0.43,0.61,0.55c0.06,0.06,0.11,0.1,0.14,0.13c0.01,0.01,0.02,0.02,0.03,0.03
			c0,0,0,0,0,0c0,0,0,0,0,0c0,0,0,0,0,0C232.39,372.32,232.39,372.32,233.37,371.36z M317.98,345.71
			c-25.87,3.12-47.16,9.22-62,14.54c-7.42,2.66-13.22,5.13-17.18,6.94c-1.98,0.9-3.49,1.64-4.52,2.15c-0.51,0.26-0.9,0.46-1.16,0.59
			c-0.13,0.07-0.23,0.12-0.3,0.16c-0.03,0.02-0.06,0.03-0.08,0.04c-0.01,0-0.02,0.01-0.02,0.01c0,0,0,0-0.01,0c0,0,0,0,0,0
			c0,0,0,0,0.66,1.21c0.66,1.21,0.66,1.21,0.66,1.21c0,0,0,0,0,0c0,0,0,0,0,0c0,0,0.01,0,0.02-0.01c0.01-0.01,0.04-0.02,0.07-0.04
			c0.06-0.03,0.15-0.08,0.28-0.15c0.25-0.13,0.63-0.32,1.12-0.57c1-0.5,2.48-1.22,4.43-2.11c3.89-1.78,9.63-4.22,16.97-6.85
			c14.68-5.27,35.77-11.31,61.4-14.4L317.98,345.71z M343.88,360.88l-25.02-14.99l-1.41,2.36l25.02,14.99L343.88,360.88z
			 M343.18,362.05l0.97,0.97l0.44-0.44l-0.04-0.62L343.18,362.05z M334.27,327.72l1.24-0.59l0,0L334.27,327.72z M317.3,305.98
			l-0.71,1.18l0,0L317.3,305.98z M287.04,292.09l0.38-1.32l0,0L287.04,292.09z M256.56,286.26l-0.11,1.37l0,0L256.56,286.26z
			 M246.35,285.66l0.23,1.36l0.01,0l0.01,0L246.35,285.66z M242.87,287.65l1.23,0.61l0.01-0.02l0.01-0.02L242.87,287.65z
			 M243.09,291.97l1.35-0.27l0,0L243.09,291.97z M239.46,300.59l-0.83-1.09l0,0L239.46,300.59z M212.67,300.2l0.72-1.17l0,0
			L212.67,300.2z M208.87,288.46l1.34,0.31l0-0.01l0-0.01L208.87,288.46z M209.35,286.12l-1.37-0.16l0,0.01l0,0.01L209.35,286.12z
			 M204.71,283.03l0.36,1.33l0,0L204.71,283.03z M161.46,296.83l0.54,1.27l0,0L161.46,296.83z M120.35,339.52l1.3,0.46l0-0.01
			L120.35,339.52z M117.3,355.17l-1.36-0.18l-0.3,2.31l2.17-0.85L117.3,355.17z M157.17,339.52l0.32-1.34l-0.42-0.1l-0.4,0.16
			L157.17,339.52z M233.37,371.36l-0.98,0.96l0.73,0.75l0.91-0.5L233.37,371.36z M318.15,347.07l0.71-1.18l-0.4-0.24l-0.47,0.06
			L318.15,347.07z M343.17,362.06l-0.71,1.18l0.92,0.55l0.76-0.76L343.17,362.06z"/>
	</g>
	<path class="st7" d="M102.99,385.11l9.86,2.79c-1.49,2.26-2.6,5.04-3.48,7.5c-11.31-3.18-18.87-5.38-18.87-5.6
		c0-0.86,16.69-17.83,17.22-18.35l-5.06,12.99c-0.11,0.28,0.05,0.6,0.34,0.68H102.99z"/>
	<path class="st8" d="M287.55,414.51l-55.92,8.47c0,0-8.79,11.04-21.51,0c0,0-19.53-5.28-42.8-11.63c0.77-3.29,0.86-6.04,0.64-7.89
		l49.76,13.99l69.29-10.29C286.85,409.57,287.15,412.16,287.55,414.51L287.55,414.51z"/>
	<path class="st7" d="M369.5,402.08l-22.43,3.4c-0.43-2.42-0.95-4.77-1.8-7.03l9.75-1.64v-9.41L369.5,402.08z"/>
	<path class="st9" d="M103.84,384.22l10.95-28.1c11.59,4.13,41.43,14.48,68.1,22.86s35.88,23.18,37.15,29.53
		c5.33-20.57,91.76-34.61,134.3-39.05v26.67l-9.05,1.43l-3.33-5.24c-8.38-6.48-11.11,0.48-11.43,4.76c-1.52-6.1-5.4-9.21-7.14-10
		c-8.38-4.19-9.84,4.92-9.52,10l-4.29-4.76c-8.38-4.95-10.16,4.6-10,10c-8.76-8-11.91-0.48-12.38,4.29l-69.53,10l-49.53-13.81
		l-0.95-1.9c-3.43-7.62-9.37-3.49-11.91-0.48c0.95-2.54,1.62-8.76-3.33-13.33s-9.37,1.9-10.95,5.71l-1.43-6.67
		c-4.57-7.62-10.79-0.64-13.33,3.81c-3.43-10.67-10.32-6.03-13.33-2.38L103.84,384.22z"/>
	<path class="st10" d="M348.92,415.94l-4.42-20.32c-7.98-10.81-13.55-4.43-14.07,0.95l-3.23-6.17c-9.91-9.75-14.64-0.23-13.34,7.14
		l-3.81-5.24c-11.08-4.21-9.67,6.04-9.15,12.71c-1.21-4.01-6.94-9.92-11.81-4.14c-4.7,5.59-0.51,19.4,1.43,27.15
		c6.24,7.78,10.64,5.39,13.33,0.95c9.13,8.15,14.59-3.14,13.33-5.51c6.42,9.86,14.75,4.06,16.67-1.64
		C343.26,428.92,349.2,422.67,348.92,415.94z M105.75,407.08l7.14-19.53c8.38-9.14,12.7-1.9,13.81,2.86l2.86-5.72
		c9.52-6.1,11.59,2.86,11.43,8.1l4.29-6.67c12.19-3.05,11.43,9.84,9.52,16.67c1.75-3.81,6.48-10,11.43-4.29
		c4.95,5.71-1.43,22.7-5.24,30.48c-7.24,6.86-13.18-0.95-15.24-5.71c-8.38,8.38-13.65,0.63-15.24-4.29
		c-6.86,6.48-12.38,0.79-14.29-2.86C107.08,418.42,105.43,411.05,105.75,407.08z"/>
	<path class="st11" d="M201.95,387.55c-4.57-4.19-59.69-22.7-86.68-31.43l41.43-17.14c44.2,9.14,69.53,24.76,76.68,31.43
		c22.1-12.95,65.72-21.91,84.77-24.76l35.72,23.81c-16,0-63.82,9.84-85.72,14.76c-30.86,6.1-45.24,18.73-48.58,24.29
		C217.66,398.22,207.03,390.25,201.95,387.55z"/>
	<path class="st12" d="M345.54,396.65c-2.11-4.85-5.67-9.02-10.77-7.66c-2.82,0.77-4.37,2.37-4.72,5.17c-0.53-1.45-1.16-2.75-2.02-4
		c-4.06-5.9-11.11-5.66-13.78-1.88c-1.18,1.69-1.39,3.84-1.29,5.89c-2.32-2.98-6.02-5.08-9.49-3.56c-2.03,0.89-3.56,2.98-4.09,5.61
		c-0.22,1.13-0.26,2.46-0.2,3.6c-3.47-3.76-11.71-2.69-12.94,5.63l-68.43,10.15l-49.21-13.82c-0.91-4.14-3.82-6.24-7.53-6.24
		c-1.88,0-3.36,0.93-4.48,2.46c0.68-4.21,0.15-8.61-3.09-11.43c-2.9-2.52-6.8-2.84-9.5-0.26c-0.95,0.91-1.7,2.1-2.29,3.29
		c-1.09-7.36-6.92-9.68-11.42-6.25c-1.48,1.13-2.52,2.7-3.36,4.37c-0.41-1.74-1.65-3.43-3.68-4.43c-3.46-1.69-7.22-1-10.27,2.85
		l-8.25-2.32l10.64-26.54c70.88,23.91,65.76,21.92,72.83,24.78c13.59,5.48,27.41,12.74,30.52,27.08c0.2,0.91,1.44,0.83,1.77,0.1
		c8.15-23.38,108.25-36.28,132.86-39.03v25.29l-7.82,1.16L345.54,396.65z M348.11,417.66c0.41,3.12-2.48,5.81-5.43,6.36
		c-3.11,0.57-6.5-0.79-8.35-3.34c-0.11-0.92-2.18-17.27-2.34-21.01c-0.36-5.4-0.59-7.7,3.03-8.83c6.58-2.06,10.26,8.47,11.26,15.32
		C346.28,406.15,347.55,413.36,348.11,417.66z M326.82,427.84c-2.87,0.78-6.22-0.59-8.15-3.34c-0.07-0.11-0.17-0.19-0.28-0.25
		c-2.9-27.1-4.9-31.7-2.65-34.91c1.62-2.29,5.12-2.39,7.43-1.17c4.1,2.14,5.6,7.27,6.57,11.81c0.02,0.19,0.52,1.29,2.76,21.03
		C332.24,424.14,329.85,427,326.82,427.84L326.82,427.84z M311.88,430.57c-2.32,0.76-5.07,0.21-6.95-1.34
		c-3.15-25.04-4.47-28.96-3.75-32.65c0.68-3.39,3.35-5.56,6.61-4.26c2.25,0.9,4.76,3.46,5.68,6.99c0.21,0.85,3.08,24.78,3.26,26.53
		C316.02,427.8,314.1,429.84,311.88,430.57L311.88,430.57z M295.62,431.5c-5.24-1.7-5.61-8.66-6.69-14.41
		c-1.21-6.53-2.71-15.6,3.76-17.3c2.69-0.72,5.24,0.48,6.07,2.83c0.68,1.93,1.07,3.61,1.38,5.36c0.02,0.12,2.26,15.89,2.96,21.53
		C301.25,431.48,298.19,432.33,295.62,431.5L295.62,431.5z M166.43,411.14c-0.88,3.75-4.22,12.62-5.66,16.19
		c-1.19,2.92-5.03,3.83-7.87,2.86c-2.98-1.02-5.28-3.88-5.63-7.01c2.9-6.77,6.47-16.31,9.9-22.59c0.83-1.67,2.13-3.35,3.97-3.22
		C167.63,397.47,167.89,404.86,166.43,411.14L166.43,411.14z M137.21,425.71c-2.89-0.73-5.13-3.57-5.45-6.91
		c0-0.04-0.02-0.08-0.03-0.12c1.05-3.66,8.99-21.44,9.66-23.85c1.39-3.12,2.61-6.86,5.15-8.07c2.3-1.09,5.5,0.24,7.05,2.64
		c3.04,4.68,0.69,11.17-1.04,16.49c-2.38,5.24-4.79,11.5-7.01,16.69c-1.79,2.59-5.26,3.91-8.32,3.13V425.71z M122.87,420.75
		c-2.44-0.5-4.53-2.3-5.4-4.61c2.47-5.98,7.81-19.61,8.02-20.2c1.6-4,3.07-8.04,4.81-10.06c1.32-1.54,3.12-2.4,4.72-2.23
		c4.36,0.44,5.86,7.1,4.53,10.92c-0.36,1.32,0.73-1.75-10.12,24.4C127.64,420.46,125.03,421.18,122.87,420.75L122.87,420.75z
		 M108.25,413.55c-3.19-3.49-1.34-8.57,0.29-13.05c2.55-7.01,5.54-17.9,12.77-15.99c3.06,0.81,4.52,3.46,3.77,5.99
		c-0.03,0.12-0.29,1.84-1.3,4.72c-0.04,0.12-5.39,13.87-8.04,20.28C113.17,416.31,110.08,415.53,108.25,413.55L108.25,413.55z
		 M157.74,340.06c52.79,12.65,71.86,28.05,74.82,30.68l-12.81,35.22c-4.54-13.47-17.68-20.27-30.84-25.58
		c-10.39-4.21-13.79-4.66-71.38-24.3L157.74,340.06L157.74,340.06z M351.6,368.56c-28.31,3.16-108.19,14.14-128.64,33.94
		c0.94-2.58,9.85-27.06,11.41-31.37c3.4-1.8,35.66-18.31,83.64-24.15L351.6,368.56L351.6,368.56z M354.78,368.42l-36.05-23.17
		c-0.18-0.11-0.39-0.17-0.6-0.14c-47.42,5.72-79.69,21.83-84.34,24.25c-3.2-2.91-22.05-18.28-75.9-31.15
		c-0.19-0.05-0.38-0.03-0.55,0.04c-45.88,18.27-42.68,16.97-42.92,17.11c-0.18,0.1-0.33,0.28-0.4,0.45l-11.35,28.3
		c-0.2,0.51,0.08,1.08,0.6,1.22l8.62,2.42c-2.33,3.69-3.56,8-5.06,12.12c-1.72,4.73-3.87,10.61,0.08,14.92
		c2.26,2.45,5.88,3.44,9.08,2.58c1.2,2.61,3.68,4.61,6.53,5.19c2.41,0.48,5.28-0.19,7.43-1.67c0.02,0,0.03,0.01,0.05,0.01
		c0.11,0,0.2-0.02,0.3-0.06c2.11,7.37,10.43,9.02,15.51,4.21c1.2,4.01,4.89,7.37,9.42,7.37c2.97,0,6.02-1.39,7.24-4.39
		c1.49-3.68,4.84-12.59,5.76-16.46c0.74-3.17,0.87-5.78,0.68-7.8l48.62,13.65c0.12,0.03,0.25,0.05,0.38,0.02l68.18-10.12
		c-0.17,3.35,0.45,6.82,1.06,10.1c1.2,6.46,1.67,13.78,7.92,15.82c3.18,1.03,6.83,0.1,9.18-2.23c4.52,3.25,11.09,1.92,13.89-3.83
		c0.1-0.05,0.19-0.12,0.26-0.21c2.42,2.38,5.86,3.46,8.92,2.63c3.14-0.86,5.7-3.49,6.66-6.6c1.93,1.87,4.61,2.97,7.3,2.97
		c4.78,0,9.28-3.88,8.68-8.57c-0.55-4.24-1.12-7.47-1.73-10.88c-0.11-0.59-0.68-4.55-1.97-8.13l8.18-1.21
		c0.45-0.07,0.78-0.45,0.78-0.91c0-0.12-0.01-27.25-0.01-27.12c-0.01-0.3-0.19-0.6-0.42-0.74L354.78,368.42z"/>
	<path class="st10" d="M159.56,204.2c7.62-12.95,18.41-6.98,22.86-2.38c-0.95-8.1,3.81-17.14,19.53-21.43
		c12.57-3.43,22.7-14.45,26.19-19.53c12.86,12.86,18.57,10.48,32.38,17.14c11.05,5.33,13.49,13.97,13.33,17.62l4.76-6.19
		c12.95-9.91,18.1,0,19.05,6.19c0,14.48-13.65,19.05-20.48,19.53c-5.71,38.48-26.51,53.5-36.19,56.2l3.33,25.24
		c-14.86,15.24-30,6.35-35.72,0l3.81-26.67c-19.05-8.76-28.89-35.4-31.43-47.62C174.8,228.96,150.04,220.39,159.56,204.2z"/>
	<path class="st12" d="M185.98,169.47c11.74-3.66,21.71-12.04,27.35-22.97c0.08-0.17,0.23-0.31,0.39-0.38v-0.01
		c0.78-0.41,1.64,0.45,1.23,1.23c-5.3,10.61-15.68,19.91-28.42,23.88c-0.47,0.14-0.99-0.1-1.14-0.59
		C185.24,170.13,185.51,169.61,185.98,169.47z M235.21,147.2c0.39-0.31,0.96-0.26,1.29,0.11c6,7.13,14.75,11.74,24.02,12.69
		c0.5,0.05,0.87,0.49,0.82,1c-0.05,0.47-0.45,0.82-0.91,0.82c-0.13-0.04-14.71-0.72-25.33-13.32
		C234.79,148.1,234.84,147.53,235.21,147.2L235.21,147.2z M272.54,196.13c-0.06,0.93,1.16,1.34,1.69,0.54
		c0.79-1.23,4.62-5.92,5.65-7.06c6.93-6.29,14.95-2.97,16.98,4.45c1.09,10.62-8.35,19.93-19.24,19.57c-0.43-0.01-0.85,0.3-0.93,0.76
		c-2.19,12.14-8.15,30.73-16.9,41.31c-16.38,19.75-39.09,23.36-58.71,2.16c-12.86-13.88-15.35-23.59-18.99-36.08
		c-0.12-0.42-0.52-0.69-0.96-0.66c-4.94,0.45-9.82,1.93-15.61-0.6c-4.92-3.17-7.29-9.87-5.28-15.28c3.48-9.36,14.55-9.75,21.27-2.56
		c0.1,0.11,0.21,0.17,0.34,0.23c0.68,0.51,1.62-0.11,1.44-0.93c-0.09-0.42-0.16-0.85-0.23-1.27c0.02-4.07,2.03-8.37,5.55-11.75
		c7.35-7.01,18.3-8.59,27.29-13.7c4.45-2.55,8.94-7.47,12.23-13.12c7.35,7.03,8.48,8.05,20.3,11.94c4.34,1.44,8.83,2.94,12.81,5.2
		C266.93,182.51,272.91,188.62,272.54,196.13L272.54,196.13z M122.47,334.2c7.78-17.71,20.97-29.73,39-37.36
		c35.02-14.86,38.78-12.6,43.25-13.8c1.66-0.45,3.59-0.39,4.36,1.13l-1.44,10.49c-0.07,0.55,0.35,1.04,0.91,1.04
		c0.45,0,0.85-0.33,0.91-0.79c4.54-33.05,3.3-23.21,3.45-25.1c8.73,4.8,18.15,5.5,27.44,2.3c1.09,3.53,0.71,4.8,2.81,24.57
		c0.05,0.47,0.45,0.83,0.91,0.83c0.54,0,0.97-0.47,0.91-1.01l-0.99-9.99c0.69-0.43,1.54-0.69,2.36-0.84
		c5.55-1.04,7.64,0.39,10.21,0.59c9.92,0.73,20.99,3.13,30.48,5.83c7.66,2.19,14.4,5.12,21.06,8.66
		c-3.35-11.3-12.24-19.09-14.97-29.85c-3.77-15.1,5.87-30.33,9.93-44.76c9.8-35.27-11.46-82.6-62.74-94.04
		c-6.03-1.31-12.73-2.45-18.26-0.16h-0.01c-7.32-1.92-13.86-0.13-20.88,2.86c-16.97,7.24-31.97,19.2-43.38,34.58
		c-7.84,10.56-17.12,24.76-19.38,40.75c-0.95,6.77-0.34,13.73-0.16,20.01c0.56,18.45-15.2,31.62-23.03,46.78
		C106.3,294.23,104.78,326.93,122.47,334.2L122.47,334.2z"/>
	<path d="M232.28,231.12c0.06-0.5-0.3-0.96-0.8-1.02l-7.15-0.86c-1.03-0.12-1.7-1.15-1.39-2.14l5.33-17.2c0.15-0.48-0.12-1-0.6-1.14
		c-0.48-0.16-1,0.12-1.15,0.6l-5.33,17.2c-0.65,2.09,0.76,4.25,2.93,4.5l7.15,0.86C231.75,231.99,232.21,231.63,232.28,231.12z"/>
	<path d="M280.74,201.56c3.29-1.29,6.14-3.79,7.84-6.88c0.24-0.45,0.08-1-0.36-1.25c-0.45-0.24-1-0.08-1.25,0.36
		c-1.49,2.72-4.01,4.93-6.9,6.05C278.96,200.29,279.61,202.01,280.74,201.56L280.74,201.56z"/>
	<path d="M177.37,210.81c-3.22-0.4-6.32-2.19-8.28-4.79c-0.3-0.41-0.88-0.48-1.29-0.18c-0.41,0.3-0.48,0.88-0.18,1.29
		c2.28,3.02,5.76,5.03,9.51,5.5c0.5,0.06,0.96-0.29,1.03-0.79C178.22,211.33,177.87,210.86,177.37,210.81L177.37,210.81z"/>
	<path d="M244.62,237.12c-0.44-0.25-1-0.11-1.25,0.33c-3.23,5.6-10.04,8.08-16.1,5.91c-0.48-0.17-1,0.08-1.17,0.55
		c-0.17,0.48,0.08,1,0.55,1.17c6.85,2.45,14.6-0.3,18.31-6.71C245.21,237.93,245.06,237.37,244.62,237.12z"/>
	<path d="M243.58,195.49c3.51-4.26,9.77-4.99,14.16-1.65c0.41,0.31,0.98,0.23,1.29-0.17s0.23-0.98-0.17-1.29
		c-5.17-3.93-12.55-3.08-16.68,1.94c-0.32,0.39-0.26,0.97,0.12,1.29C242.68,195.94,243.26,195.88,243.58,195.49z"/>
	<path d="M212.02,194.79c0.41,0.31,0.98,0.23,1.29-0.17s0.23-0.98-0.17-1.29c-5.12-3.9-12.52-3.12-16.68,1.94
		c-0.32,0.39-0.26,0.97,0.12,1.29c0.39,0.32,0.97,0.26,1.29-0.12C201.36,192.18,207.63,191.45,212.02,194.79z"/>
	<circle cx="205.76" cy="198.49" r="3.81"/>
	<circle cx="251.48" cy="198.49" r="3.81"/>
	<path d="M292.51,178.78c0.17-0.15,0.35-0.32,0.55-0.5c0.02-0.01,0.06-0.05,0.08-0.07c0.01-0.01,0,0,0.01-0.01c0,0,0,0,0,0
		c0,0,0,0,0,0s0,0,0,0c0,0,0,0,0,0c0.01-0.01-0.01,0,0.01-0.01c0.01-0.01,0,0,0.01-0.01c0.02-0.02,0.02-0.02,0.04-0.04
		c0.01-0.01,0.07-0.06,0.08-0.07c0.01-0.01,0,0,0.01-0.01c0,0,0.01-0.01,0.01-0.01c0,0,0.02-0.02,0.02-0.02c0,0,0.04-0.04,0.04-0.04
		c0.04-0.04,0,0,0.04-0.04c0.01-0.01,0.01-0.01,0.02-0.02c0.03-0.02,0,0,0.02-0.02c0.03-0.02,0,0,0.02-0.02c0,0,0.02-0.02,0.02-0.02
		c0.01-0.01,0,0,0.01-0.01c0.01-0.01,0,0,0.01-0.01c0.01-0.01,0,0,0.01-0.01c0,0,0.01-0.01,0.01-0.01c0.01-0.01,0.01-0.01,0.02-0.02
		c0.01-0.01,0,0,0.01-0.01c0.01-0.01,0,0,0.01-0.01c0.01-0.01,0.03-0.03,0.04-0.04c0.01-0.01,0,0,0.01,0c0.02-0.02-0.02,0.02,0.01,0
		c0,0,0,0,0.01,0c0,0,0,0,0,0c0,0,0,0,0,0c0.03-0.03-0.01,0.01,0.02-0.02c0.01-0.01,0.01-0.01,0.02-0.02c0.01-0.01,0,0,0.01-0.01
		c0,0,0,0,0.01-0.01c0.01-0.01,0,0,0.01-0.01l0.81,0.89c-0.08,0.07-0.09,0.09-0.17,0.16c-0.06,0.06-0.11,0.1-0.17,0.15
		c-0.05,0.04-0.03,0.03-0.08,0.07c-0.02,0.02,0,0-0.02,0.02c0,0-0.02,0.02-0.02,0.02c-0.02,0.02-0.02,0.02-0.04,0.04
		c-0.05,0.04-0.03,0.03-0.08,0.07c-0.01,0.01,0.01-0.01,0,0c-0.01,0.01,0,0,0,0c-0.01,0,0,0-0.01,0.01
		c-0.01,0.01-0.01,0.01-0.02,0.02c0,0,0,0-0.01,0.01c-0.03,0.02,0.02-0.01-0.01,0.01c-0.01,0.01,0,0-0.01,0.01
		c-0.04,0.03,0.03-0.02-0.01,0.01c-0.2,0.18-0.39,0.35-0.55,0.5L292.51,178.78z M294.53,178.57c-0.08,0.07-0.09,0.09-0.17,0.16
		c-0.06,0.06-0.11,0.1-0.17,0.15c-0.05,0.04-0.03,0.03-0.08,0.07c-0.02,0.02,0,0-0.02,0.02c0,0-0.02,0.02-0.02,0.02
		c-0.02,0.02-0.02,0.02-0.04,0.04c-0.05,0.04-0.03,0.03-0.08,0.07c-0.01,0.01,0.01-0.01,0,0c-0.01,0.01,0,0,0,0
		c-0.01,0,0,0-0.01,0.01c-0.01,0.01-0.01,0.01-0.02,0.02c0,0,0,0-0.01,0.01c-0.03,0.02,0.02-0.01-0.01,0.01
		c-0.01,0.01,0,0-0.01,0.01c-0.04,0.03,0.03-0.02-0.01,0.01c-0.2,0.18-0.39,0.35-0.55,0.5l-0.81-0.89c0.17-0.15,0.35-0.32,0.55-0.5
		c0.02-0.01,0.06-0.05,0.08-0.07c0.01-0.01,0,0,0.01-0.01c0,0,0,0,0,0c0,0,0,0,0,0s0,0,0,0c0,0,0,0,0,0c0.01-0.01-0.01,0,0.01-0.01
		c0.01-0.01,0,0,0.01-0.01c0.02-0.02,0.02-0.02,0.04-0.04c0.01-0.01,0.07-0.06,0.08-0.07c0.01-0.01,0,0,0.01-0.01
		c0,0,0.01-0.01,0.01-0.01c0,0,0.02-0.02,0.02-0.02c0,0,0.04-0.04,0.04-0.04c0.04-0.04,0,0,0.04-0.04c0.01-0.01,0.01-0.01,0.02-0.02
		c0.03-0.02,0,0,0.02-0.02c0.03-0.02,0,0,0.02-0.02c0,0,0.02-0.02,0.02-0.02c0.01-0.01,0,0,0.01-0.01c0.01-0.01,0,0,0.01-0.01
		c0.01-0.01,0,0,0.01-0.01c0,0,0.01-0.01,0.01-0.01c0.01-0.01,0.01-0.01,0.02-0.02c0.01-0.01,0,0,0.01-0.01c0.01-0.01,0,0,0.01-0.01
		c0.01-0.01,0.03-0.03,0.04-0.04c0.01-0.01,0,0,0.01,0c0.02-0.02-0.02,0.02,0.01,0c0,0,0,0,0.01,0c0,0,0,0,0,0c0,0,0,0,0,0
		c0.03-0.03-0.01,0.01,0.02-0.02c0.01-0.01,0.01-0.01,0.02-0.02c0.01-0.01,0,0,0.01-0.01c0,0,0,0,0.01-0.01c0.01-0.01,0,0,0.01-0.01
		L294.53,178.57z M401.13,95.36c0.32-0.15,0.63-0.34,0.93-0.59l0.76,0.93c-0.38,0.31-0.77,0.55-1.17,0.74L401.13,95.36z
		 M397.67,96.15c0.21-0.03,0.42-0.07,0.63-0.1c0.21-0.03,0.41-0.06,0.6-0.09l0.19,1.19c-0.2,0.03-0.41,0.06-0.62,0.09
		c-0.21,0.03-0.41,0.06-0.62,0.09L397.67,96.15z M395.4,96.57c0.75-0.15,1.51-0.29,2.27-0.42l0.19,1.19
		c-0.74,0.12-1.48,0.25-2.22,0.41L395.4,96.57z M386.55,99.01c1.45-0.48,2.91-0.94,4.38-1.35l0.32,1.16
		c-1.45,0.41-2.89,0.85-4.33,1.33L386.55,99.01z M380.09,101.29c0.71-0.26,1.43-0.52,2.14-0.78l0.41,1.13
		c-0.71,0.26-1.43,0.52-2.14,0.78L380.09,101.29z M378.22,102c0.62-0.24,1.24-0.48,1.87-0.71l0.42,1.13
		c-0.62,0.23-1.24,0.46-1.85,0.7L378.22,102z M370.89,105.2c1.19-0.58,2.4-1.14,3.63-1.68l0.48,1.1c-1.21,0.53-2.41,1.08-3.58,1.66
		L370.89,105.2z M363.87,109.04c1.14-0.69,2.29-1.36,3.47-2l0.58,1.06c-1.16,0.63-2.3,1.29-3.42,1.97L363.87,109.04z M357.24,113.51
		c1.07-0.8,2.15-1.57,3.26-2.32l0.67,1c-1.09,0.74-2.16,1.5-3.21,2.28L357.24,113.51z M351.08,118.63c0.98-0.91,1.99-1.78,3.01-2.64
		l0.77,0.93c-1.01,0.84-2,1.7-2.97,2.6L351.08,118.63z M345.49,124.36c0.89-1.01,1.79-1.98,2.72-2.94l0.86,0.84
		c-0.92,0.94-1.81,1.9-2.68,2.89L345.49,124.36z M340.52,130.63c0.78-1.09,1.58-2.16,2.4-3.2l0.94,0.75
		c-0.81,1.02-1.6,2.08-2.37,3.15L340.52,130.63z M337.22,135.65c0.35-0.57,0.7-1.14,1.06-1.7l1.02,0.65
		c-0.35,0.55-0.7,1.11-1.04,1.68L337.22,135.65z M336.19,137.44c0.34-0.62,0.69-1.22,1.04-1.79l1.03,0.62
		c-0.34,0.56-0.68,1.15-1.01,1.75L336.19,137.44z M332.67,144.95c0.52-1.31,1.07-2.59,1.64-3.81l1.09,0.51
		c-0.56,1.2-1.1,2.45-1.61,3.74L332.67,144.95z M330.14,152.83c0.33-1.35,0.71-2.68,1.14-3.99l1.15,0.37
		c-0.41,1.28-0.79,2.59-1.11,3.91L330.14,152.83z M328.8,161.03c0.1-1.37,0.27-2.75,0.49-4.13l1.19,0.2
		c-0.22,1.34-0.38,2.69-0.48,4.02L328.8,161.03z M329.2,169.36c-0.25-1.36-0.4-2.75-0.46-4.16l1.2-0.05c0.06,1.36,0.2,2.7,0.44,3.99
		L329.2,169.36z M332.17,177.2c-0.76-1.2-1.37-2.47-1.86-3.79l1.13-0.42c0.47,1.25,1.05,2.44,1.75,3.56L332.17,177.2z
		 M336.38,181.92c-0.56-0.45-1.08-0.93-1.58-1.42l0.85-0.85c0.46,0.46,0.95,0.91,1.48,1.33L336.38,181.92z M337.84,183.03
		c-0.48-0.34-0.97-0.71-1.46-1.11l0.76-0.94c0.47,0.38,0.94,0.73,1.4,1.06L337.84,183.03z M344.52,186.07
		c-1.15-0.23-2.32-0.62-3.52-1.18l0.51-1.09c1.12,0.53,2.2,0.89,3.24,1.09L344.52,186.07z M351.86,185.24
		c-1.16,0.51-2.36,0.85-3.6,0.99l-0.14-1.2c1.12-0.13,2.2-0.44,3.26-0.9L351.86,185.24z M357.79,180.93
		c-0.89,0.91-1.8,1.72-2.74,2.42l-0.72-0.97c0.89-0.66,1.75-1.43,2.6-2.3L357.79,180.93z M361.28,176.74
		c-0.36,0.5-0.72,0.98-1.09,1.45l-0.95-0.75c0.36-0.45,0.71-0.92,1.06-1.41L361.28,176.74z M362.36,175.03
		c-0.31,0.57-0.67,1.13-1.08,1.71l-0.98-0.71c0.39-0.53,0.72-1.06,1-1.58L362.36,175.03z M363.36,167.07c0.4,1.3,0.53,2.68,0.33,4.1
		l-1.19-0.17c0.17-1.24,0.06-2.44-0.28-3.58L363.36,167.07z M358.73,160.54c1.05,0.91,1.98,1.88,2.75,2.92l-0.97,0.72
		c-0.71-0.95-1.58-1.86-2.57-2.72L358.73,160.54z M353.83,157.18c0.58,0.32,1.15,0.66,1.7,1.01l-0.64,1.02
		c-0.53-0.34-1.08-0.66-1.64-0.97L353.83,157.18z M351.66,156.04c0.7,0.34,1.42,0.71,2.18,1.13l-0.58,1.05
		c-0.74-0.41-1.44-0.78-2.12-1.1L351.66,156.04z M342.05,153.83c1.69-0.08,3.3,0.07,4.97,0.48l-0.29,1.17
		c-1.55-0.38-3.04-0.52-4.62-0.45L342.05,153.83z M334.8,155.13c0.83-0.22,1.62-0.42,2.37-0.59l0.26,1.18
		c-0.74,0.17-1.51,0.36-2.33,0.58L334.8,155.13z M332.9,155.66c0.63-0.18,1.26-0.35,1.9-0.52l0.31,1.16
		c-0.63,0.17-1.26,0.34-1.88,0.52L332.9,155.66z M325.39,158.09c1.22-0.45,2.46-0.88,3.73-1.28l0.37,1.15
		c-1.25,0.4-2.48,0.83-3.69,1.27L325.39,158.09z M318.1,161.11c1.19-0.55,2.39-1.08,3.61-1.59l0.46,1.11
		c-1.21,0.5-2.4,1.02-3.57,1.57L318.1,161.11z M311.1,164.76c1.14-0.66,2.29-1.3,3.46-1.9l0.56,1.07c-1.15,0.6-2.29,1.23-3.41,1.88
		L311.1,164.76z M304.46,169.02c1.08-0.76,2.18-1.49,3.28-2.2l0.65,1.01c-1.09,0.7-2.16,1.42-3.23,2.17L304.46,169.02z
		 M298.19,173.81c1.03-0.85,2.05-1.66,3.09-2.45l0.73,0.96c-1.02,0.78-2.04,1.59-3.05,2.43L298.19,173.81z M293.72,177.68
		c0.49-0.45,0.98-0.88,1.47-1.32l0.8,0.9c-0.48,0.43-0.97,0.86-1.45,1.3L293.72,177.68z M293.32,179.67
		c-0.25,0.22-0.63,0.21-0.85-0.04s-0.21-0.63,0.04-0.85L293.32,179.67z M293.32,179.67c-0.25,0.22-0.63,0.21-0.85-0.04
		s-0.21-0.63,0.04-0.85L293.32,179.67z M401.65,96.45c-0.3,0.14-0.66,0.01-0.8-0.29s-0.01-0.66,0.29-0.8L401.65,96.45z M398.9,95.97
		c0.33-0.05,0.64,0.17,0.69,0.5c0.05,0.33-0.17,0.64-0.5,0.69L398.9,95.97z M395.64,97.75c-0.33,0.07-0.64-0.14-0.71-0.47
		c-0.07-0.33,0.14-0.64,0.47-0.71L395.64,97.75z M390.93,97.66c0.32-0.09,0.65,0.1,0.74,0.42s-0.1,0.65-0.42,0.74L390.93,97.66z
		 M386.93,100.15c-0.32,0.1-0.66-0.07-0.76-0.38c-0.1-0.32,0.07-0.66,0.38-0.76L386.93,100.15z M382.23,100.51
		c0.31-0.11,0.66,0.05,0.77,0.36c0.11,0.31-0.05,0.66-0.36,0.77L382.23,100.51z M378.66,103.12c-0.31,0.12-0.66-0.03-0.78-0.34
		c-0.12-0.31,0.03-0.66,0.34-0.78L378.66,103.12z M374.52,103.53c0.3-0.13,0.66,0.01,0.79,0.31c0.13,0.3-0.01,0.66-0.31,0.79
		L374.52,103.53z M371.42,106.29c-0.3,0.15-0.66,0.02-0.81-0.28c-0.15-0.3-0.02-0.66,0.28-0.81L371.42,106.29z M367.34,107.04
		c0.29-0.16,0.66-0.05,0.82,0.24c0.16,0.29,0.05,0.66-0.24,0.82L367.34,107.04z M364.5,110.07c-0.28,0.17-0.65,0.08-0.83-0.2
		c-0.17-0.28-0.08-0.65,0.2-0.83L364.5,110.07z M360.5,111.19c0.28-0.19,0.65-0.11,0.84,0.16c0.19,0.28,0.11,0.65-0.16,0.84
		L360.5,111.19z M357.96,114.48c-0.27,0.2-0.64,0.15-0.84-0.12c-0.2-0.27-0.15-0.64,0.12-0.84L357.96,114.48z M354.1,115.99
		c0.26-0.21,0.64-0.18,0.85,0.08c0.21,0.26,0.18,0.64-0.08,0.85L354.1,115.99z M351.9,119.52c-0.24,0.23-0.63,0.21-0.85-0.03
		s-0.21-0.63,0.03-0.85L351.9,119.52z M348.21,121.42c0.23-0.24,0.61-0.24,0.85-0.01s0.24,0.61,0.01,0.85L348.21,121.42z
		 M346.39,125.15c-0.22,0.25-0.6,0.27-0.85,0.05c-0.25-0.22-0.27-0.6-0.05-0.85L346.39,125.15z M342.92,127.43
		c0.21-0.26,0.59-0.3,0.85-0.1c0.26,0.21,0.3,0.59,0.1,0.85L342.92,127.43z M341.5,131.33c-0.19,0.27-0.57,0.33-0.84,0.14
		s-0.33-0.57-0.14-0.84L341.5,131.33z M338.28,133.95c0.18-0.28,0.55-0.36,0.83-0.18s0.36,0.55,0.18,0.83L338.28,133.95z
		 M337.24,138.03c-0.16,0.29-0.53,0.4-0.82,0.24c-0.29-0.16-0.4-0.53-0.24-0.82L337.24,138.03z M334.31,141.14
		c0.14-0.3,0.5-0.43,0.8-0.29s0.43,0.5,0.29,0.8L334.31,141.14z M333.79,145.39c-0.12,0.31-0.47,0.46-0.78,0.34
		c-0.31-0.12-0.46-0.47-0.34-0.78L333.79,145.39z M331.27,148.84c0.1-0.32,0.44-0.49,0.76-0.39c0.32,0.1,0.49,0.44,0.39,0.76
		L331.27,148.84z M331.31,153.12c-0.08,0.32-0.41,0.52-0.73,0.44c-0.32-0.08-0.52-0.41-0.44-0.73L331.31,153.12z M329.3,156.9
		c0.05-0.33,0.36-0.55,0.69-0.5c0.33,0.05,0.55,0.36,0.5,0.69L329.3,156.9z M330.01,161.11c-0.02,0.33-0.31,0.58-0.64,0.56
		c-0.33-0.02-0.58-0.31-0.56-0.64L330.01,161.11z M328.74,165.2c-0.01-0.33,0.24-0.61,0.58-0.63c0.33-0.01,0.61,0.24,0.63,0.58
		L328.74,165.2z M330.38,169.14c0.06,0.33-0.16,0.64-0.48,0.7c-0.33,0.06-0.64-0.16-0.7-0.48L330.38,169.14z M330.31,173.41
		c-0.12-0.31,0.04-0.66,0.35-0.77c0.31-0.12,0.66,0.04,0.77,0.35L330.31,173.41z M333.19,176.55c0.18,0.28,0.09,0.65-0.19,0.83
		c-0.28,0.18-0.65,0.09-0.83-0.19L333.19,176.55z M334.8,180.5c-0.23-0.24-0.23-0.62,0-0.85c0.24-0.23,0.62-0.23,0.85,0L334.8,180.5
		z M338.53,182.04c0.27,0.19,0.34,0.57,0.15,0.84c-0.19,0.27-0.57,0.34-0.84,0.15L338.53,182.04z M341,184.89
		c-0.3-0.14-0.43-0.5-0.29-0.8s0.5-0.43,0.8-0.29L341,184.89z M344.75,184.89c0.33,0.06,0.54,0.38,0.47,0.71s-0.38,0.54-0.71,0.47
		L344.75,184.89z M348.26,186.23c-0.33,0.04-0.63-0.2-0.67-0.53c-0.04-0.33,0.2-0.63,0.53-0.67L348.26,186.23z M351.38,184.13
		c0.3-0.13,0.66,0,0.79,0.31c0.13,0.3,0,0.66-0.31,0.79L351.38,184.13z M355.05,183.35c-0.27,0.2-0.64,0.14-0.84-0.12
		c-0.2-0.27-0.14-0.64,0.12-0.84L355.05,183.35z M356.93,180.08c0.23-0.24,0.61-0.24,0.85-0.01c0.24,0.23,0.24,0.61,0.01,0.85
		L356.93,180.08z M360.18,178.19c-0.21,0.26-0.58,0.31-0.85,0.1c-0.26-0.21-0.31-0.58-0.1-0.85L360.18,178.19z M361.3,174.46
		c0.16-0.29,0.52-0.4,0.82-0.24c0.29,0.16,0.4,0.52,0.24,0.82L361.3,174.46z M363.68,171.17c-0.05,0.33-0.35,0.56-0.68,0.51
		c-0.33-0.05-0.56-0.35-0.51-0.68L363.68,171.17z M362.21,167.43c-0.1-0.32,0.08-0.65,0.4-0.75s0.65,0.08,0.75,0.4L362.21,167.43z
		 M361.49,163.46c0.2,0.27,0.14,0.64-0.12,0.84c-0.27,0.2-0.64,0.14-0.84-0.12L361.49,163.46z M357.95,161.45
		c-0.25-0.22-0.28-0.6-0.06-0.85c0.22-0.25,0.6-0.28,0.85-0.06L357.95,161.45z M355.53,158.19c0.28,0.18,0.36,0.55,0.19,0.83
		s-0.55,0.36-0.83,0.19L355.53,158.19z M351.13,157.13c-0.3-0.14-0.43-0.5-0.28-0.8c0.14-0.3,0.5-0.43,0.8-0.28L351.13,157.13z
		 M347.02,154.31c0.32,0.08,0.52,0.41,0.44,0.73s-0.41,0.52-0.73,0.44L347.02,154.31z M342.11,155.03
		c-0.33,0.01-0.61-0.24-0.63-0.57s0.24-0.61,0.57-0.63L342.11,155.03z M337.17,154.54c0.32-0.07,0.65,0.13,0.72,0.46
		c0.07,0.32-0.13,0.65-0.46,0.72L337.17,154.54z M333.23,156.82c-0.32,0.09-0.65-0.09-0.74-0.41s0.09-0.65,0.41-0.74L333.23,156.82z
		 M329.13,156.8c0.32-0.1,0.66,0.07,0.76,0.39c0.1,0.32-0.07,0.66-0.39,0.76L329.13,156.8z M325.81,159.22
		c-0.31,0.11-0.66-0.05-0.77-0.36c-0.11-0.31,0.05-0.66,0.36-0.77L325.81,159.22z M321.72,159.52c0.31-0.13,0.66,0.02,0.79,0.33
		c0.13,0.31-0.02,0.66-0.33,0.79L321.72,159.52z M318.61,162.2c-0.3,0.14-0.66,0.01-0.8-0.29s-0.01-0.66,0.29-0.8L318.61,162.2z
		 M314.56,162.86c0.29-0.15,0.66-0.04,0.81,0.26s0.04,0.66-0.26,0.81L314.56,162.86z M311.71,165.8c-0.29,0.17-0.66,0.07-0.82-0.22
		c-0.17-0.29-0.07-0.66,0.22-0.82L311.71,165.8z M307.73,166.82c0.28-0.18,0.65-0.1,0.83,0.18c0.18,0.28,0.1,0.65-0.18,0.83
		L307.73,166.82z M305.15,170c-0.27,0.19-0.65,0.13-0.84-0.15c-0.19-0.27-0.13-0.65,0.15-0.84L305.15,170z M301.28,171.35
		c0.26-0.2,0.64-0.15,0.84,0.11c0.2,0.26,0.15,0.64-0.11,0.84L301.28,171.35z M298.95,174.73c-0.26,0.21-0.64,0.18-0.85-0.08
		c-0.21-0.26-0.18-0.64,0.08-0.85L298.95,174.73z M295.19,176.36c0.25-0.22,0.63-0.2,0.85,0.05s0.2,0.63-0.05,0.85L295.19,176.36z
		 M294.13,178.13l0.41,0.45L294.13,178.13z M334.95,155.71l0.16,0.58L334.95,155.71z M353.54,157.7l-0.29,0.53L353.54,157.7z
		 M360.79,176.39l-0.49-0.35L360.79,176.39z M336.76,181.45l0.38-0.47L336.76,181.45z M337.74,135.96l0.52,0.31L337.74,135.96z
		 M380.29,101.86l-0.21-0.57L380.29,101.86z M397.76,96.75l-0.1-0.59L397.76,96.75z M402.06,94.78c0.26-0.21,0.64-0.17,0.85,0.08
		c0.21,0.26,0.17,0.64-0.08,0.85L402.06,94.78z"/>
	<ellipse class="st13" cx="381.92" cy="78.39" rx="48.38" ry="48.62"/>
	<g>
		<defs>
			<ellipse id="SVGID_00000109009023647255727190000016923525725199976084_" cx="381.92" cy="78.39" rx="48.38" ry="48.62"/>
		</defs>
		<clipPath id="SVGID_00000024721281281495874880000002435735630206786216_">
			<use xlink:href="#SVGID_00000109009023647255727190000016923525725199976084_"  style="overflow:visible;"/>
		</clipPath>
		<path style="clip-path:url(#SVGID_00000024721281281495874880000002435735630206786216_);fill:#18292D;" d="M348.18,44.76
			c18.48-18.73,48.57-18.85,67.21-0.28l1.21-1.22c-19.31-19.24-50.48-19.12-69.63,0.29L348.18,44.76z M348.45,112.3
			c-18.64-18.57-18.76-48.81-0.28-67.54l-1.22-1.21c-19.15,19.4-19.02,50.73,0.29,69.98L348.45,112.3z M415.66,112.02
			c-18.48,18.73-48.57,18.85-67.21,0.28l-1.21,1.22c19.31,19.24,50.48,19.12,69.63-0.29L415.66,112.02z M415.38,44.48
			c18.64,18.57,18.76,48.81,0.28,67.54l1.22,1.21c19.15-19.4,19.02-50.73-0.29-69.98L415.38,44.48z"/>
	</g>
	<polygon class="st15" points="353.9,81.77 362.64,46.68 378.19,68.65 396.26,62.75 392.91,81.45 417.53,94.45 383.59,107.6 	"/>
	<path class="st12" d="M372.67,69.99l-7.31-18.48l11.74,17.02L372.67,69.99L372.67,69.99z M391.18,86.93l-13.04-3.14l-4.95-12.53
		l22-7.25L391.18,86.93L391.18,86.93z M411.75,91.87l-19.25-4.63l0.8-4.62L411.75,91.87z M384.39,106.65l-5.73-21.21l36.81,8.85
		L384.39,106.65L384.39,106.65z M356.15,82.49l20.89,2.57l5.52,20.41L356.15,82.49z M362.45,48.16l13.98,35.35l-21.7-2.67
		L362.45,48.16z M353.1,81.86l30.51,26.55l0.43-0.16l33.92-13.49l1.65-0.65l-26.03-13.05L396.91,62l-18.3,6.03l-16.57-24.02
		l-0.39,1.69l-8.44,35.72L353.1,81.86z"/>
	<path d="M382.84,105.15l-26.41-22.98l-0.56,0.65l26.41,22.98L382.84,105.15z M372.35,69.71L372.35,69.71l0.65,0.56l0,0
		L372.35,69.71z M376.97,68.12l-4.43,1.46l0.27,0.82l4.43-1.46L376.97,68.12z M365.01,51.75l11.74,17.02l0.7-0.49l-11.74-17.02
		L365.01,51.75z M373.07,69.83l-7.31-18.48l-0.8,0.32l7.31,18.48L373.07,69.83z M391.46,86.6L391.46,86.6l-0.56,0.65l0,0
		L391.46,86.6z M394.75,63.94l-4,22.91L391.6,87l4-22.91L394.75,63.94z M373.31,71.67l22-7.25l-0.27-0.82l-22,7.25L373.31,71.67z
		 M378.53,83.63l-4.95-12.53l-0.8,0.32l4.95,12.53L378.53,83.63z M391.27,86.51l-13.04-3.14l-0.2,0.84l13.04,3.14L391.27,86.51z
		 M393.12,83.01l18.44,9.24l0.38-0.77l-18.44-9.24L393.12,83.01z M392.92,87.32l0.8-4.62l-0.84-0.15l-0.8,4.62L392.92,87.32z
		 M411.85,91.45l-19.25-4.63l-0.2,0.84l19.25,4.63L411.85,91.45z M384.06,106.37L384.06,106.37l0.65,0.56l0,0L384.06,106.37z
		 M415.31,93.89l-31.08,12.36l0.32,0.8l31.08-12.36L415.31,93.89z M378.56,85.86l36.81,8.85l0.2-0.84l-36.81-8.85L378.56,85.86z
		 M384.8,106.54l-5.73-21.21l-0.83,0.23l5.73,21.21L384.8,106.54z M376.63,85.17l5.52,20.41l0.83-0.23l-5.52-20.41L376.63,85.17z
		 M356.1,82.92l20.89,2.57l0.1-0.85l-20.89-2.57L356.1,82.92z M355.14,80.94l7.72-32.68l-0.83-0.2l-7.72,32.68L355.14,80.94z
		 M376.48,83.08l-21.7-2.67l-0.1,0.85l21.7,2.67L376.48,83.08z M362.05,48.32l13.98,35.35l0.8-0.32L362.85,48L362.05,48.32z
		 M352.78,81.33l-0.1,0.44l0.84,0.18l0.1-0.44L352.78,81.33z M361.22,45.6l-8.44,35.72l0.83,0.2l8.44-35.72L361.22,45.6z
		 M361.61,43.91l-0.39,1.69l0.83,0.2l0.39-1.69L361.61,43.91z M378.95,67.79l-16.57-24.02l-0.7,0.49l16.57,24.02L378.95,67.79z
		 M396.77,61.59l-18.3,6.03l0.27,0.82l18.3-6.03L396.77,61.59z M394,81.14l3.33-19.07l-0.84-0.15l-3.33,19.07L394,81.14z
		 M419.8,93.73l-26.03-13.05l-0.38,0.77l26.03,13.05L419.8,93.73z M418.12,95.16l1.65-0.65l-0.31-0.8l-1.65,0.65L418.12,95.16z
		 M384.2,108.65l33.92-13.49l-0.32-0.8l-33.92,13.49L384.2,108.65z M383.76,108.81l0.43-0.16l-0.3-0.81l-0.43,0.16L383.76,108.81z
		 M352.82,82.19l30.51,26.55l0.56-0.65l-30.51-26.55L352.82,82.19z M378.54,68.4l-15.55-21.97l-0.7,0.5l15.55,21.97L378.54,68.4z
		 M396.12,62.34l-18.06,5.89l0.26,0.82l18.06-5.89L396.12,62.34z M393.33,81.53l3.35-18.7l-0.84-0.15l-3.35,18.7L393.33,81.53z
		 M417.73,94.07l-24.62-12.99l-0.4,0.76l24.62,12.99L417.73,94.07z M383.74,108l33.95-13.15l-0.31-0.8l-33.95,13.15L383.74,108z
		 M353.62,82.1l29.68,25.83l0.56-0.65l-29.68-25.83L353.62,82.1z M362.23,46.58l-8.74,35.09l0.83,0.21l8.74-35.09L362.23,46.58z
		 M372.67,69.99l-0.13-0.41c-0.07,0.02-0.14,0.07-0.19,0.13L372.67,69.99z M377.1,68.53l0.13,0.41c0.13-0.04,0.23-0.14,0.27-0.27
		c0.04-0.13,0.02-0.27-0.05-0.38L377.1,68.53z M365.36,51.51l0.35-0.24c-0.12-0.18-0.36-0.24-0.55-0.13s-0.28,0.33-0.2,0.54
		L365.36,51.51z M372.67,69.99l-0.4,0.16c0.06,0.14,0.18,0.24,0.33,0.27c0.15,0.03,0.3-0.03,0.4-0.14L372.67,69.99z M391.18,86.93
		l-0.28,0.33c0.12,0.1,0.28,0.13,0.42,0.08c0.15-0.05,0.25-0.18,0.28-0.33L391.18,86.93z M395.17,64.01l0.42,0.07
		c0.03-0.15-0.03-0.3-0.14-0.4c-0.11-0.1-0.27-0.13-0.41-0.08L395.17,64.01z M373.18,71.26l-0.13-0.41
		c-0.11,0.04-0.2,0.12-0.25,0.23c-0.05,0.11-0.05,0.23-0.01,0.34L373.18,71.26z M378.13,83.79l-0.4,0.16
		c0.05,0.13,0.16,0.23,0.3,0.26L378.13,83.79z M391.18,86.93l0.28-0.33c-0.05-0.05-0.11-0.08-0.18-0.09L391.18,86.93z M393.31,82.63
		l0.19-0.38c-0.12-0.06-0.26-0.06-0.38,0c-0.12,0.06-0.21,0.18-0.23,0.31L393.31,82.63z M392.5,87.25l-0.42-0.07
		c-0.04,0.22,0.1,0.44,0.32,0.49L392.5,87.25z M411.75,91.87l-0.1,0.42c0.21,0.05,0.43-0.07,0.5-0.27c0.07-0.21-0.02-0.43-0.21-0.53
		L411.75,91.87z M384.39,106.65l-0.16-0.4c-0.06,0.03-0.12,0.07-0.17,0.12L384.39,106.65z M415.46,94.29l0.16,0.4
		c0.17-0.07,0.28-0.24,0.27-0.43s-0.15-0.34-0.33-0.39L415.46,94.29z M378.66,85.44l0.1-0.42c-0.15-0.04-0.3,0.01-0.41,0.12
		c-0.11,0.11-0.15,0.27-0.11,0.41L378.66,85.44z M384.39,106.65l-0.41,0.11c0.04,0.15,0.16,0.27,0.32,0.31s0.32-0.02,0.42-0.14
		L384.39,106.65z M382.56,105.47l-0.28,0.33c0.14,0.12,0.35,0.14,0.51,0.04c0.16-0.1,0.23-0.29,0.19-0.48L382.56,105.47z
		 M377.04,85.06l0.41-0.11c-0.05-0.17-0.19-0.29-0.36-0.31L377.04,85.06z M356.15,82.49l0.05-0.43c-0.19-0.02-0.37,0.08-0.44,0.25
		c-0.08,0.17-0.03,0.38,0.11,0.5L356.15,82.49z M354.72,80.84l-0.42-0.1c-0.03,0.12,0,0.24,0.07,0.35c0.07,0.1,0.18,0.17,0.3,0.18
		L354.72,80.84z M376.43,83.51l-0.05,0.43c0.15,0.02,0.3-0.04,0.39-0.16c0.09-0.12,0.11-0.28,0.06-0.42L376.43,83.51z M362.45,48.16
		l0.4-0.16c-0.07-0.17-0.24-0.28-0.43-0.27c-0.19,0.01-0.34,0.15-0.39,0.33L362.45,48.16z M353.2,81.42l-0.42-0.1l0,0.01
		L353.2,81.42z M361.64,45.7l0.42,0.1l0,0L361.64,45.7z M362.03,44.01l0.35-0.24c-0.1-0.14-0.27-0.21-0.43-0.18
		c-0.17,0.03-0.3,0.16-0.34,0.32L362.03,44.01z M378.6,68.04l-0.35,0.24c0.11,0.16,0.31,0.22,0.49,0.16L378.6,68.04z M396.91,62
		l0.42,0.07c0.03-0.15-0.03-0.3-0.14-0.4s-0.27-0.13-0.41-0.08L396.91,62z M393.58,81.07l-0.42-0.07c-0.03,0.19,0.06,0.37,0.23,0.46
		L393.58,81.07z M419.61,94.12l0.16,0.4c0.16-0.06,0.26-0.21,0.27-0.38c0.01-0.17-0.09-0.33-0.24-0.4L419.61,94.12z M417.96,94.76
		l-0.16-0.4l0,0L417.96,94.76z M384.04,108.25l0.15,0.4l0.01,0L384.04,108.25z M383.61,108.41l-0.28,0.33
		c0.12,0.1,0.28,0.13,0.43,0.08L383.61,108.41z M353.1,81.86l-0.42-0.09c-0.03,0.15,0.02,0.31,0.14,0.42L353.1,81.86z M378.19,68.65
		l-0.35,0.25c0.11,0.15,0.3,0.22,0.48,0.16L378.19,68.65z M396.26,62.75l0.42,0.08c0.03-0.15-0.03-0.3-0.14-0.4
		c-0.11-0.1-0.27-0.13-0.41-0.09L396.26,62.75z M392.91,81.45l-0.42-0.08c-0.03,0.18,0.06,0.37,0.22,0.46L392.91,81.45z
		 M417.53,94.45l0.15,0.4c0.16-0.06,0.26-0.21,0.27-0.38s-0.08-0.33-0.23-0.41L417.53,94.45z M383.59,107.6l-0.28,0.33
		c0.12,0.1,0.29,0.13,0.43,0.08L383.59,107.6z M353.9,81.77l-0.42-0.1c-0.04,0.16,0.01,0.32,0.14,0.43L353.9,81.77z M362.64,46.68
		l0.35-0.25c-0.1-0.14-0.26-0.2-0.43-0.17c-0.16,0.03-0.3,0.16-0.34,0.32L362.64,46.68z"/>
	<path d="M102.93,95.38c-0.22-0.15-0.42-0.33-0.61-0.55l-0.91,0.79c0.26,0.29,0.53,0.53,0.82,0.74L102.93,95.38z M105.43,96.43
		c-0.16-0.05-0.32-0.11-0.47-0.16c-0.15-0.05-0.3-0.1-0.45-0.15l-0.39,1.14c0.15,0.05,0.31,0.1,0.46,0.15
		c0.15,0.05,0.3,0.1,0.46,0.15L105.43,96.43z M107.1,97.05c-0.55-0.22-1.11-0.43-1.68-0.62l-0.39,1.14c0.55,0.19,1.09,0.39,1.63,0.6
		L107.1,97.05z M113.53,100.09c-1.04-0.56-2.1-1.1-3.16-1.61l-0.52,1.09c1.05,0.5,2.09,1.03,3.11,1.58L113.53,100.09z
		 M118.16,102.68c-0.51-0.29-1.02-0.59-1.53-0.88l-0.6,1.05c0.51,0.29,1.02,0.58,1.52,0.88L118.16,102.68z M120.02,103.8
		c-0.62-0.38-1.24-0.75-1.87-1.11l-0.6,1.04c0.62,0.36,1.23,0.72,1.84,1.1L120.02,103.8z M127.16,108.77
		c-1.13-0.89-2.3-1.76-3.5-2.59l-0.69,0.99c1.18,0.82,2.32,1.67,3.44,2.55L127.16,108.77z M133.63,114.59
		c-1.01-1.04-2.06-2.05-3.14-3.02l-0.81,0.9c1.06,0.96,2.09,1.94,3.08,2.96L133.63,114.59z M139.26,121.24
		c-0.86-1.18-1.76-2.32-2.7-3.42l-0.92,0.78c0.92,1.09,1.8,2.21,2.64,3.36L139.26,121.24z M143.88,128.62
		c-0.69-1.29-1.41-2.55-2.18-3.77l-1.02,0.64c0.75,1.2,1.47,2.43,2.14,3.7L143.88,128.62z M146.65,134.55
		c-0.27-0.68-0.56-1.35-0.85-2.01l-1.1,0.49c0.29,0.65,0.57,1.3,0.84,1.97L146.65,134.55z M147.33,136.34
		c-0.22-0.62-0.45-1.22-0.68-1.79l-1.12,0.45c0.23,0.56,0.45,1.14,0.66,1.74L147.33,136.34z M149.33,143.73
		c-0.25-1.28-0.54-2.53-0.86-3.73l-1.16,0.31c0.32,1.18,0.6,2.4,0.84,3.65L149.33,143.73z M150.17,151.35
		c-0.03-1.28-0.12-2.56-0.26-3.83l-1.2,0.13c0.14,1.24,0.23,2.49,0.25,3.72L150.17,151.35z M149.45,159.03
		c0.29-1.24,0.48-2.52,0.6-3.82l-1.2-0.11c-0.11,1.25-0.3,2.48-0.57,3.66L149.45,159.03z M146.26,166.11
		c0.79-1.04,1.45-2.18,1.98-3.39l-1.1-0.48c-0.5,1.13-1.1,2.18-1.83,3.14L146.26,166.11z M141.83,169.98
		c0.59-0.33,1.14-0.69,1.65-1.08l-0.73-0.96c-0.47,0.36-0.98,0.69-1.52,1L141.83,169.98z M140.14,170.84
		c0.55-0.25,1.11-0.53,1.69-0.86l-0.59-1.05c-0.54,0.31-1.07,0.58-1.59,0.81L140.14,170.84z M132.61,171.8
		c1.21,0.3,2.5,0.37,3.88,0.16l-0.18-1.19c-1.23,0.19-2.36,0.13-3.41-0.13L132.61,171.8z M126.38,167.45
		c0.84,1.04,1.74,1.94,2.73,2.67l0.71-0.97c-0.89-0.65-1.72-1.48-2.5-2.45L126.38,167.45z M123.4,162.69
		c0.29,0.57,0.58,1.12,0.89,1.65l1.04-0.6c-0.29-0.51-0.58-1.04-0.85-1.59L123.4,162.69z M122.54,160.5
		c0.2,0.71,0.48,1.44,0.86,2.19l1.08-0.54c-0.35-0.69-0.6-1.34-0.77-1.96L122.54,160.5z M125.36,151.91
		c-1.25,1.08-2.23,2.35-2.74,3.84l1.14,0.39c0.43-1.24,1.26-2.35,2.39-3.32L125.36,151.91z M131.4,148.62
		c-0.73,0.26-1.44,0.54-2.12,0.85l0.5,1.09c0.65-0.3,1.32-0.57,2.02-0.81L131.4,148.62z M133.2,148.04
		c-0.57,0.16-1.17,0.36-1.8,0.58l0.4,1.14c0.61-0.21,1.18-0.4,1.73-0.56L133.2,148.04z M140.81,147.64
		c-1.29-0.29-2.53-0.4-3.85-0.31l0.08,1.2c1.2-0.08,2.33,0.02,3.51,0.28L140.81,147.64z M146.15,149.6
		c-0.6-0.28-1.17-0.53-1.72-0.76l-0.46,1.11c0.53,0.22,1.09,0.47,1.68,0.74L146.15,149.6z M147.81,150.39
		c-0.55-0.27-1.1-0.53-1.66-0.79l-0.51,1.09c0.55,0.26,1.1,0.52,1.64,0.78L147.81,150.39z M154.27,153.89
		c-1.04-0.63-2.1-1.23-3.19-1.82l-0.57,1.06c1.07,0.58,2.12,1.18,3.14,1.8L154.27,153.89z M160.36,158c-0.98-0.74-1.97-1.45-3-2.14
		l-0.67,1c1,0.68,1.98,1.38,2.94,2.1L160.36,158z M165.99,162.73c-0.9-0.84-1.82-1.65-2.75-2.44l-0.77,0.92
		c0.92,0.77,1.82,1.57,2.71,2.4L165.99,162.73z M171.12,168c-0.82-0.93-1.66-1.82-2.5-2.69l-0.86,0.84
		c0.83,0.85,1.65,1.74,2.46,2.65L171.12,168z M174.65,172.22c-0.38-0.48-0.77-0.96-1.15-1.43l-0.93,0.76
		c0.38,0.46,0.76,0.94,1.14,1.41L174.65,172.22z M176.26,174.12c-0.7-0.81-1.26-1.46-1.6-1.89l-0.95,0.75
		c0.36,0.46,0.94,1.13,1.64,1.93L176.26,174.12z M182.55,182.04c-0.92-1.37-1.98-2.76-3.04-4.07l-0.94,0.76
		c1.04,1.29,2.08,2.65,2.97,3.98L182.55,182.04z M184.84,189.55c0.45-0.84,0.38-1.87,0.08-2.9l-1.16,0.34
		c0.27,0.91,0.24,1.57,0.01,2L184.84,189.55z M102.23,96.37c0.27,0.19,0.65,0.13,0.84-0.15s0.13-0.65-0.15-0.84L102.23,96.37z
		 M104.51,96.13c-0.31-0.11-0.66,0.06-0.77,0.37c-0.11,0.31,0.06,0.66,0.37,0.77L104.51,96.13z M106.66,98.17
		c0.31,0.12,0.66-0.03,0.78-0.34c0.12-0.31-0.03-0.66-0.34-0.78L106.66,98.17z M110.37,98.48c-0.3-0.14-0.66-0.02-0.8,0.28
		c-0.14,0.3-0.02,0.66,0.28,0.8L110.37,98.48z M112.96,101.15c0.29,0.16,0.66,0.05,0.82-0.25s0.05-0.66-0.25-0.82L112.96,101.15z
		 M116.63,101.8c-0.29-0.16-0.66-0.06-0.82,0.22c-0.16,0.29-0.06,0.66,0.22,0.82L116.63,101.8z M119.39,104.82
		c0.28,0.17,0.65,0.09,0.83-0.2c0.17-0.28,0.09-0.65-0.2-0.83L119.39,104.82z M123.67,106.18c-0.27-0.19-0.65-0.12-0.84,0.15
		c-0.19,0.27-0.12,0.65,0.15,0.84L123.67,106.18z M126.42,109.71c0.26,0.21,0.64,0.16,0.85-0.1s0.16-0.64-0.1-0.85L126.42,109.71z
		 M130.49,111.57c-0.25-0.22-0.63-0.2-0.85,0.05c-0.22,0.25-0.2,0.63,0.05,0.85L130.49,111.57z M132.77,115.43
		c0.23,0.24,0.61,0.24,0.85,0.01c0.24-0.23,0.24-0.61,0.01-0.85L132.77,115.43z M136.56,117.82c-0.21-0.25-0.59-0.29-0.85-0.07
		c-0.25,0.21-0.29,0.59-0.07,0.85L136.56,117.82z M138.28,121.95c0.2,0.27,0.57,0.33,0.84,0.13c0.27-0.2,0.33-0.57,0.13-0.84
		L138.28,121.95z M141.7,124.85c-0.18-0.28-0.55-0.37-0.83-0.19c-0.28,0.18-0.37,0.55-0.19,0.83L141.7,124.85z M142.82,129.19
		c0.16,0.29,0.52,0.4,0.81,0.25c0.29-0.16,0.4-0.52,0.25-0.81L142.82,129.19z M145.79,132.54c-0.14-0.3-0.49-0.44-0.8-0.3
		c-0.3,0.14-0.44,0.49-0.3,0.8L145.79,132.54z M146.19,136.74c0.11,0.31,0.46,0.48,0.77,0.37c0.31-0.11,0.48-0.46,0.37-0.77
		L146.19,136.74z M148.47,140c-0.09-0.32-0.42-0.51-0.74-0.42c-0.32,0.09-0.51,0.42-0.42,0.74L148.47,140z M148.15,143.96
		c0.06,0.33,0.38,0.54,0.71,0.48s0.54-0.38,0.48-0.71L148.15,143.96z M149.91,147.52c-0.04-0.33-0.34-0.57-0.67-0.53
		s-0.57,0.34-0.53,0.67L149.91,147.52z M148.97,151.38c0.01,0.33,0.28,0.6,0.62,0.59s0.6-0.28,0.59-0.62L148.97,151.38z
		 M150.05,155.2c0.03-0.33-0.22-0.62-0.55-0.65c-0.33-0.03-0.62,0.22-0.65,0.55L150.05,155.2z M148.28,158.75
		c-0.08,0.32,0.13,0.65,0.45,0.72c0.32,0.08,0.65-0.13,0.72-0.45L148.28,158.75z M148.24,162.73c0.13-0.3,0-0.66-0.31-0.79
		c-0.3-0.13-0.66,0-0.79,0.31L148.24,162.73z M145.3,165.38c-0.2,0.26-0.15,0.64,0.11,0.84c0.26,0.2,0.64,0.15,0.84-0.11
		L145.3,165.38z M143.48,168.9c0.27-0.2,0.32-0.58,0.12-0.84c-0.2-0.27-0.58-0.32-0.84-0.12L143.48,168.9z M139.65,169.74
		c-0.3,0.14-0.44,0.49-0.3,0.8c0.14,0.3,0.49,0.44,0.8,0.3L139.65,169.74z M136.49,171.95c0.33-0.05,0.55-0.36,0.51-0.69
		s-0.36-0.55-0.69-0.51L136.49,171.95z M132.9,170.63c-0.32-0.08-0.65,0.12-0.73,0.44c-0.08,0.32,0.12,0.65,0.44,0.73L132.9,170.63z
		 M129.11,170.11c0.27,0.2,0.64,0.14,0.84-0.13c0.2-0.27,0.14-0.64-0.13-0.84L129.11,170.11z M127.32,166.69
		c-0.21-0.26-0.59-0.3-0.85-0.09c-0.26,0.21-0.3,0.59-0.09,0.85L127.32,166.69z M124.28,164.33c0.17,0.29,0.53,0.39,0.82,0.22
		c0.29-0.17,0.39-0.53,0.22-0.82L124.28,164.33z M123.7,160.18c-0.09-0.32-0.42-0.51-0.74-0.42c-0.32,0.09-0.51,0.42-0.42,0.74
		L123.7,160.18z M122.61,155.75c-0.11,0.31,0.06,0.66,0.37,0.77c0.31,0.11,0.66-0.06,0.77-0.37L122.61,155.75z M126.14,152.82
		c0.25-0.22,0.28-0.6,0.06-0.85c-0.22-0.25-0.6-0.28-0.85-0.06L126.14,152.82z M129.28,149.47c-0.3,0.14-0.43,0.5-0.3,0.8
		c0.14,0.3,0.5,0.43,0.8,0.3L129.28,149.47z M133.53,149.2c0.32-0.09,0.5-0.43,0.41-0.74c-0.09-0.32-0.43-0.5-0.74-0.41
		L133.53,149.2z M136.96,147.34c-0.33,0.02-0.58,0.31-0.56,0.64c0.02,0.33,0.31,0.58,0.64,0.56L136.96,147.34z M140.55,148.82
		c0.32,0.07,0.65-0.13,0.72-0.46c0.07-0.32-0.13-0.65-0.46-0.72L140.55,148.82z M144.43,148.84c-0.31-0.13-0.66,0.02-0.79,0.32
		c-0.13,0.31,0.02,0.66,0.32,0.79L144.43,148.84z M147.28,151.47c0.3,0.15,0.66,0.02,0.8-0.28c0.15-0.3,0.02-0.66-0.28-0.8
		L147.28,151.47z M151.07,152.06c-0.29-0.16-0.66-0.05-0.82,0.24c-0.16,0.29-0.05,0.66,0.24,0.82L151.07,152.06z M153.64,154.92
		c0.28,0.17,0.65,0.08,0.83-0.2c0.17-0.28,0.08-0.65-0.2-0.83L153.64,154.92z M157.37,155.87c-0.28-0.19-0.65-0.11-0.84,0.16
		s-0.11,0.65,0.16,0.84L157.37,155.87z M159.64,158.96c0.27,0.2,0.64,0.15,0.84-0.12c0.2-0.27,0.15-0.64-0.12-0.84L159.64,158.96z
		 M163.24,160.29c-0.25-0.21-0.63-0.18-0.85,0.07s-0.18,0.63,0.07,0.85L163.24,160.29z M165.17,163.61
		c0.24,0.23,0.62,0.21,0.85-0.03c0.23-0.24,0.21-0.62-0.03-0.85L165.17,163.61z M168.62,165.31c-0.23-0.24-0.61-0.24-0.85-0.01
		c-0.24,0.23-0.24,0.61-0.01,0.85L168.62,165.31z M170.22,168.8c0.22,0.25,0.6,0.27,0.85,0.05s0.27-0.6,0.05-0.85L170.22,168.8z
		 M173.5,170.79c-0.21-0.26-0.59-0.29-0.85-0.08c-0.26,0.21-0.29,0.59-0.08,0.85L173.5,170.79z M175.35,174.9
		c0.22,0.25,0.6,0.28,0.85,0.06c0.25-0.22,0.28-0.6,0.06-0.85L175.35,174.9z M179.51,177.97c-0.21-0.26-0.59-0.3-0.85-0.09
		c-0.26,0.21-0.3,0.59-0.09,0.85L179.51,177.97z M181.54,182.71c0.18,0.28,0.56,0.35,0.84,0.17s0.35-0.56,0.17-0.84L181.54,182.71z
		 M184.92,186.66c-0.09-0.32-0.43-0.5-0.75-0.41s-0.5,0.43-0.41,0.75L184.92,186.66z M183.78,188.99c-0.16,0.29-0.04,0.66,0.25,0.81
		c0.29,0.16,0.66,0.04,0.81-0.25L183.78,188.99z M174.18,172.6l-0.47,0.37L174.18,172.6z M145.89,150.15l-0.25,0.55L145.89,150.15z
		 M131.6,149.19l0.2,0.57L131.6,149.19z M123.93,162.41l0.54-0.27L123.93,162.41z M141.53,169.46l-0.3-0.52L141.53,169.46z
		 M146.09,134.77l-0.56,0.23L146.09,134.77z M117.85,103.2l0.3-0.52L117.85,103.2z M105.23,97l-0.2,0.57L105.23,97z M102.32,94.84
		c-0.22-0.25-0.6-0.28-0.85-0.06c-0.25,0.22-0.28,0.6-0.06,0.85L102.32,94.84z"/>
	
		<ellipse transform="matrix(0.2028 -0.9792 0.9792 0.2028 -6.0812 142.4259)" class="st13" cx="84.43" cy="74.95" rx="48.61" ry="48.39"/>
	<g>
		<defs>
			
				<ellipse id="SVGID_00000051373074675467211320000007117510433844751289_" transform="matrix(0.2028 -0.9792 0.9792 0.2028 -6.0793 142.4283)" cx="84.43" cy="74.95" rx="48.61" ry="48.39"/>
		</defs>
		<clipPath id="SVGID_00000082361347076538017880000003181905459230888579_">
			<use xlink:href="#SVGID_00000051373074675467211320000007117510433844751289_"  style="overflow:visible;"/>
		</clipPath>
		<path style="clip-path:url(#SVGID_00000082361347076538017880000003181905459230888579_);fill:#18292D;" d="M124.19,48.7
			c14.4,22.02,8.27,51.63-13.69,66.13l0.94,1.44c22.75-15.02,29.1-45.69,14.19-68.51L124.19,48.7z M58.37,35.07
			c21.96-14.5,51.43-8.39,65.82,13.63l1.43-0.95c-14.91-22.82-45.45-29.14-68.2-14.12L58.37,35.07z M44.67,101.2
			c-14.4-22.02-8.27-51.63,13.69-66.13l-0.94-1.44c-22.75,15.02-29.1,45.69-14.19,68.51L44.67,101.2z M110.5,114.83
			c-21.96,14.5-51.43,8.39-65.82-13.63l-1.43,0.95c14.91,22.82,45.45,29.14,68.2,14.12L110.5,114.83z"/>
	</g>
	<polygon class="st17" points="106.66,45.24 70.83,84.52 54.34,53.88 	"/>
	<g>
		<defs>
			<polygon id="SVGID_00000125566600197733930770000013697389116997383824_" points="106.66,45.24 70.83,84.52 54.34,53.88 			"/>
		</defs>
		<clipPath id="SVGID_00000018231292779290587560000010131853806390079620_">
			<use xlink:href="#SVGID_00000125566600197733930770000013697389116997383824_"  style="overflow:visible;"/>
		</clipPath>
		<path style="clip-path:url(#SVGID_00000018231292779290587560000010131853806390079620_);" d="M54.61,55.58l52.32-8.64l-0.55-3.39
			l-52.32,8.64L54.61,55.58z M72.34,83.7L55.85,53.06l-3.02,1.64l16.49,30.64L72.34,83.7z M105.4,44.08L69.57,83.36l2.53,2.32
			l35.83-39.28L105.4,44.08z M54.34,53.88l-0.27-1.7c-0.55,0.09-1.02,0.44-1.26,0.94c-0.24,0.5-0.23,1.09,0.03,1.58L54.34,53.88z
			 M70.83,84.52l-1.51,0.82c0.26,0.49,0.75,0.82,1.3,0.89c0.55,0.07,1.1-0.14,1.47-0.55L70.83,84.52z M106.66,45.24l1.26,1.16
			c0.49-0.54,0.59-1.34,0.25-1.98c-0.35-0.64-1.06-1-1.78-0.88L106.66,45.24z"/>
	</g>
	<path d="M52.8,54.43c-0.45-0.83-0.15-1.88,0.68-2.33c0.83-0.46,1.87-0.15,2.32,0.68l33.04,60.67c0.45,0.83,0.15,1.88-0.68,2.33
		s-1.87,0.15-2.32-0.68L52.8,54.43z"/>
	<path d="M76.67,213.41c-0.86-2.93-2.01-6.02-3.43-9.15c1.11-1.78,2.09-3.53,2.92-5.21c7.62,1.97,12.75,5.04,12.56,8.09
		C88.56,210.01,83.73,212.31,76.67,213.41z M74.02,229.44c-3.11,0-7.85-4.18-12.4-10.65c1.19-1.16,2.38-2.4,3.55-3.73
		c3.64,0.09,7.24-0.05,10.82-0.55C77.36,219.46,79.02,229.44,74.02,229.44z M54.41,223.52c-4.17,2.81-7.52,3.66-9.19,2.35
		c-2.23-1.76-1.39-7.03,1.66-13.49c3.24,0.97,6.94,1.71,10.88,2.17c0.85,1.46,1.73,2.84,2.61,4.13
		C58.35,220.59,56.34,222.23,54.41,223.52L54.41,223.52z M43.56,210.21c-12.31-5.01-7.7-11.1,6.68-12.86
		c0.44,1.55,0.97,3.14,1.58,4.76c-2.21,3.14-4.05,6.22-5.47,9.11C45.37,210.9,44.44,210.56,43.56,210.21z M49.86,191.28
		c-0.55-3.75-0.65-9.7,3.08-9.7c3.49,0,8,4.92,10.21,7.66c-2.18,1.93-4.4,4.19-6.54,6.7c-1.96,0.04-3.86,0.16-5.67,0.36
		C50.46,194.55,50.09,192.86,49.86,191.28L49.86,191.28z M69.99,197.79c1.83,0.29,3.57,0.63,5.22,1.02
		c-0.72,1.42-1.53,2.9-2.44,4.39C72.01,201.58,71.22,199.97,69.99,197.79z M57.88,195.93c1.93-2.21,3.91-4.21,5.86-5.93
		c1.52,1.96,3.01,4.17,4.44,6.56C64.75,196.12,61.26,195.91,57.88,195.93z M52.49,201.17c-0.49-1.34-0.92-2.65-1.29-3.93
		c1.47-0.16,3-0.26,4.58-0.31C54.56,198.41,53.54,199.72,52.49,201.17z M57.16,213.51c-3.56-0.45-6.9-1.13-9.86-2
		c1.31-2.65,2.97-5.47,4.93-8.32C53.64,206.79,55.27,210.19,57.16,213.51L57.16,213.51z M63.93,215.02
		c-0.95,1.04-1.9,2.04-2.86,2.97c-0.72-1.05-1.43-2.16-2.12-3.32C61.18,214.91,62.51,214.97,63.93,215.02z M72.64,205.23
		c1.26,2.85,2.31,5.66,3.09,8.32c-2.95,0.41-6.25,0.61-9.74,0.57C68.45,211.26,70.7,208.23,72.64,205.23L72.64,205.23z M64.75,214.1
		c-2.13-0.06-4.25-0.21-6.42-0.44c-2.14-3.68-4.01-7.62-5.45-11.39c1.3-1.82,2.62-3.53,4.16-5.36c3.98-0.06,7.88,0.18,11.75,0.71
		c1.27,2.21,2.36,4.34,3.37,6.55C69.96,207.69,67.44,211.04,64.75,214.1z M75.46,183.51c0.81,0,1.48,0.2,1.99,0.6
		c2.26,1.79,1.36,7.2-1.8,13.8c-1.95-0.47-4.05-0.88-6.27-1.19c-1.57-2.69-3.23-5.17-4.92-7.35
		C67.16,187.07,71.94,183.51,75.46,183.51z M76.61,198.16c7.33-15.45,0.63-20.94-12.74-9.53c-10.84-13.44-18.47-9.31-13.88,7.79
		c-2.14,0.27-4.14,0.64-5.95,1.12c-5.34,1.43-8.37,3.66-8.53,6.27c-0.26,4.15,6.51,7.01,10.43,8.28
		c-7.52,16.08,0.41,21.12,14.97,7.38c11.63,16.53,21.2,13.84,16.03-5.1C93.98,211.66,94.01,202.72,76.61,198.16z"/>
	<ellipse class="st8" cx="48.97" cy="189.37" rx="2.41" ry="2.44"/>
	<ellipse class="st8" cx="69.97" cy="227.57" rx="2.62" ry="2.65"/>
	<ellipse class="st19" cx="77.52" cy="193.58" rx="2.9" ry="2.93"/>
	<ellipse class="st19" cx="52.39" cy="224.65" rx="2.54" ry="2.56"/>
	<g>
		<path d="M389.65,281.92c-1.06-3.61-2.49-7.43-4.23-11.3c1.37-2.2,2.58-4.35,3.61-6.43c9.4,2.44,15.73,6.22,15.5,9.99
			C404.31,277.72,398.35,280.56,389.65,281.92z M386.37,301.69c-3.83,0-9.69-5.15-15.31-13.14c1.47-1.43,2.93-2.97,4.38-4.6
			c4.5,0.11,8.93-0.07,13.36-0.68C390.49,289.39,392.54,301.69,386.37,301.69z M362.18,294.39c-5.15,3.47-9.29,4.52-11.34,2.9
			c-2.75-2.17-1.72-8.68,2.04-16.65c4,1.2,8.56,2.11,13.42,2.68c1.05,1.8,2.13,3.5,3.22,5.1
			C367.03,290.77,364.55,292.8,362.18,294.39L362.18,294.39z M348.78,277.96c-15.19-6.18-9.5-13.69,8.25-15.87
			c0.55,1.91,1.2,3.87,1.95,5.87c-2.73,3.88-5,7.68-6.75,11.24C351.02,278.82,349.87,278.4,348.78,277.96z M356.56,254.61
			c-0.68-4.63-0.8-11.97,3.8-11.97c4.31,0,9.87,6.07,12.6,9.45c-2.69,2.38-5.42,5.18-8.07,8.27c-2.42,0.05-4.77,0.2-7,0.44
			C357.3,258.64,356.84,256.56,356.56,254.61L356.56,254.61z M381.4,262.64c2.25,0.35,4.41,0.77,6.44,1.26
			c-0.88,1.76-1.89,3.57-3.01,5.42C383.89,267.32,382.91,265.33,381.4,262.64z M366.46,260.34c2.39-2.72,4.82-5.19,7.23-7.32
			c1.87,2.42,3.72,5.15,5.47,8.1C374.93,260.59,370.63,260.33,366.46,260.34z M359.8,266.82c-0.6-1.65-1.14-3.27-1.59-4.85
			c1.81-0.19,3.71-0.32,5.66-0.39C362.35,263.41,361.1,265.03,359.8,266.82z M365.56,282.05c-4.39-0.55-8.52-1.39-12.17-2.47
			c1.62-3.27,3.67-6.76,6.09-10.27C361.23,273.75,363.24,277.94,365.56,282.05L365.56,282.05z M373.92,283.91
			c-1.17,1.29-2.35,2.52-3.53,3.67c-0.88-1.3-1.76-2.67-2.62-4.09C370.52,283.76,372.17,283.84,373.92,283.91z M384.67,271.82
			c1.55,3.52,2.84,6.98,3.81,10.27c-3.64,0.5-7.72,0.76-12.02,0.7C379.5,279.26,382.28,275.52,384.67,271.82L384.67,271.82z
			 M374.93,282.77c-2.63-0.07-5.24-0.25-7.92-0.55c-2.64-4.55-4.95-9.4-6.73-14.06c1.6-2.25,3.23-4.36,5.14-6.61
			c4.91-0.08,9.73,0.22,14.5,0.88c1.57,2.73,2.91,5.35,4.16,8.09C381.36,274.86,378.25,278.99,374.93,282.77z M388.15,245.02
			c0.99,0,1.82,0.25,2.46,0.74c2.79,2.2,1.68,8.89-2.22,17.03c-2.41-0.58-5-1.08-7.74-1.47c-1.93-3.32-3.98-6.39-6.07-9.07
			C377.9,249.41,383.81,245.02,388.15,245.02z M389.57,263.09c9.05-19.06,0.78-25.84-15.72-11.76
			c-13.38-16.59-22.79-11.49-17.13,9.62c-2.64,0.33-5.11,0.79-7.34,1.39c-6.59,1.77-10.33,4.51-10.53,7.74
			c-0.32,5.12,8.04,8.65,12.88,10.21c-9.28,19.85,0.51,26.06,18.47,9.11c14.35,20.39,26.16,17.07,19.78-6.29
			C411.01,279.76,411.04,268.73,389.57,263.09z"/>
		<ellipse class="st8" cx="355.46" cy="252.25" rx="2.97" ry="3.01"/>
		<ellipse class="st8" cx="381.39" cy="299.39" rx="3.23" ry="3.27"/>
		<ellipse class="st19" cx="390.7" cy="257.45" rx="3.58" ry="3.62"/>
		<ellipse class="st19" cx="359.68" cy="295.79" rx="3.13" ry="3.16"/>
	</g>
</g>
</svg>
