<svg width="460" height="460" viewBox="0 0 460 460" fill="none" xmlns="http://www.w3.org/2000/svg">
<rect width="460" height="460" fill="white"/>
<path d="M213.624 108.034C99.5643 50.8536 44.5375 108.034 20.0228 151.825C-4.49194 195.615 6.67236 284.406 44.5375 317.838C82.4026 351.27 129.014 370.289 183.798 354.553C238.582 338.818 278.816 392.337 338.531 370.289C434.843 334.727 444.275 254.563 449.353 232.168C454.432 209.773 459.733 81.1136 387.879 108.034C316.024 134.955 300.678 151.676 213.624 108.034Z" fill="#FEFCEB"/>
<mask id="mask0_525_15919" style="mask-type:alpha" maskUnits="userSpaceOnUse" x="7" y="84" width="445" height="292">
<path d="M213.624 108.034C99.5643 50.8536 44.5375 108.034 20.0228 151.825C-4.49194 195.615 6.67236 284.406 44.5375 317.838C82.4026 351.27 129.014 370.289 183.798 354.553C238.582 338.818 278.816 392.337 338.531 370.289C434.843 334.727 444.275 254.563 449.353 232.168C454.432 209.773 459.733 81.1136 387.879 108.034C316.024 134.955 300.678 151.676 213.624 108.034Z" fill="#FEFCEB"/>
</mask>
<g mask="url(#mask0_525_15919)">
</g>
<path d="M35.7325 48.2424C35.7325 42.5857 40.3182 38 45.9749 38H213.95C219.606 38 224.192 42.5857 224.192 48.2424V237.726C224.192 243.383 219.606 247.969 213.95 247.969H45.9749C40.3182 247.969 35.7325 243.383 35.7325 237.726V48.2424Z" fill="#FFC2D6"/>
<path d="M124.672 249.252L123.43 247.03H43.8104C40.0939 247.03 37.076 244.012 37.076 240.296V47.1313C37.076 43.4147 40.0939 40.3774 43.8104 40.3774H216.131C219.847 40.3774 222.865 43.4147 222.865 47.1313C222.885 234.376 222.817 225.963 222.924 226.264C223.69 226.011 224.466 225.769 225.243 225.517V47.1313C225.243 42.1047 221.157 38 216.131 38H43.8104C38.7839 38 34.7083 42.1047 34.7083 47.1313V240.286C34.7083 245.312 38.7839 249.398 43.8104 249.398C129.049 249.33 124.129 249.543 124.672 249.242V249.252Z" fill="black"/>
<path d="M209.406 63.3561H123.421C119.042 63.3561 115.493 66.9056 115.493 71.2841V144.655C115.493 149.033 119.042 152.583 123.421 152.583H209.406C213.785 152.583 217.334 149.033 217.334 144.655V71.2841C217.334 66.9056 213.785 63.3561 209.406 63.3561Z" fill="white" stroke="black" stroke-width="1.42857"/>
<path d="M154.585 99.2501C154.68 101.464 154.668 103.714 154.549 106L154.442 117.393C154.085 117.345 153.692 117.322 153.263 117.322C152.835 117.322 152.406 117.322 151.977 117.322C151.549 117.322 151.132 117.333 150.727 117.357C150.346 117.357 150.013 117.357 149.727 117.357C149.68 116.333 149.644 115.226 149.62 114.036C149.62 112.845 149.608 111.631 149.585 110.393C149.585 109.155 149.549 107.941 149.477 106.75C149.43 105.56 149.346 104.464 149.227 103.464C149.061 103.726 148.87 104.143 148.656 104.714C148.442 105.262 148.227 105.833 148.013 106.429C147.799 107.024 147.596 107.548 147.406 108C147.216 108.453 147.073 108.679 146.977 108.679C146.858 108.679 146.716 108.56 146.549 108.322C146.406 108.06 146.251 107.738 146.085 107.357C145.942 106.976 145.787 106.572 145.62 106.143C145.454 105.714 145.311 105.322 145.192 104.964C145.073 104.607 144.966 104.31 144.87 104.072C144.799 103.833 144.763 103.714 144.763 103.714C144.573 105.953 144.501 108.214 144.549 110.5C144.62 112.786 144.727 115.036 144.87 117.25C144.108 117.369 143.275 117.417 142.37 117.393C141.466 117.369 140.632 117.357 139.87 117.357C139.823 117.357 139.787 117.322 139.763 117.25C139.739 117.155 139.716 116.929 139.692 116.572C139.668 116.214 139.644 115.679 139.62 114.964C139.62 114.226 139.62 113.262 139.62 112.072C139.62 110.881 139.62 109.405 139.62 107.643C139.644 105.881 139.656 103.786 139.656 101.357C139.68 98.9287 139.704 96.0954 139.727 92.8573C140.037 92.762 140.394 92.7025 140.799 92.6787C141.204 92.6549 141.62 92.6549 142.049 92.6787C142.477 92.6787 142.906 92.6906 143.335 92.7144C143.763 92.7144 144.18 92.7025 144.585 92.6787H144.62C144.835 92.9168 145.049 93.2858 145.263 93.7858C145.477 94.262 145.68 94.7739 145.87 95.3216C146.061 95.8692 146.239 96.393 146.406 96.893C146.596 97.393 146.787 97.7858 146.977 98.0716C147.049 98.143 147.12 98.1787 147.192 98.1787C147.263 98.2025 147.37 97.9763 147.513 97.5001C147.68 97.0239 147.846 96.4763 148.013 95.8573C148.204 95.2144 148.406 94.5835 148.62 93.9644C148.858 93.3454 149.085 92.893 149.299 92.6073C149.466 92.6311 149.763 92.6311 150.192 92.6073C150.644 92.5835 151.12 92.5596 151.62 92.5358C152.144 92.512 152.668 92.5001 153.192 92.5001C153.739 92.4763 154.204 92.4644 154.585 92.4644C154.489 94.7501 154.489 97.012 154.585 99.2501ZM168.155 92.2501C168.727 92.2739 169.548 92.2739 170.619 92.2501H171.477V92.393C171.477 94.4406 171.441 96.5001 171.369 98.5716C171.322 100.643 171.274 102.726 171.227 104.822C171.203 106.893 171.203 108.964 171.227 111.036C171.25 113.107 171.322 115.155 171.441 117.179C171.25 117.369 170.846 117.476 170.227 117.5C169.631 117.548 168.977 117.56 168.262 117.536C167.572 117.512 166.905 117.476 166.262 117.429C165.619 117.405 165.179 117.429 164.941 117.5C165.108 115.357 165.179 113.203 165.155 111.036C165.131 108.869 165.084 106.726 165.012 104.607C164.965 102.464 164.929 100.357 164.905 98.2858C164.905 96.1906 165.012 94.143 165.227 92.143V92.0716C165.346 92.0477 165.572 92.0596 165.905 92.1073C166.262 92.1311 166.524 92.143 166.691 92.143C167.119 92.1668 167.608 92.2025 168.155 92.2501Z" fill="black"/>
<path d="M199.641 76.6293C199.685 76.5393 199.722 76.4621 199.753 76.3977L200.146 75.6831C200.409 75.3025 200.675 74.9474 200.946 74.6178C201.235 74.2816 201.589 73.9923 202.007 73.7502C202.279 73.5483 202.643 73.3356 203.1 73.1121C203.576 72.8819 204.004 72.6364 204.384 72.3756C204.764 72.1147 205.022 71.8268 205.158 71.5119C205.294 71.1969 205.171 70.844 204.789 70.4532C204.555 70.1816 204.336 70.0441 204.131 70.0405C203.946 70.0303 203.758 70.0744 203.568 70.1729C203.384 70.2585 203.2 70.3601 203.016 70.4776C202.832 70.5952 202.641 70.6457 202.443 70.6293C202.026 70.4754 201.624 70.2892 201.237 70.0709C200.864 69.8589 200.487 69.6532 200.108 69.454L200.117 69.4347C200.379 68.9583 200.718 68.5351 201.134 68.1651C201.557 67.7823 202.026 67.4851 202.541 67.2735C203.055 67.062 203.593 66.9491 204.156 66.935C204.724 66.9079 205.291 67.0151 205.856 67.2565C206.473 67.4908 207.005 67.8189 207.451 68.2408C207.911 68.6689 208.25 69.1498 208.468 69.6835C208.699 70.2234 208.8 70.7875 208.769 71.3757C208.739 71.964 208.555 72.5256 208.218 73.0606C207.967 73.4474 207.678 73.7677 207.349 74.0214C207.02 74.2751 206.678 74.4907 206.323 74.6681C205.98 74.8518 205.669 74.987 205.389 75.074C205.128 75.1542 204.839 75.2764 204.522 75.4405C204.072 75.6832 203.686 75.9569 203.364 76.2616C203.056 76.5726 202.747 76.9314 202.44 77.3382C202.365 77.4287 202.286 77.5256 202.204 77.629C202.123 77.7323 202.07 77.8417 202.046 77.957L202.037 77.9763C201.613 77.8352 201.208 77.6555 200.822 77.4372C200.448 77.2252 200.056 77.0357 199.644 76.8689L199.625 76.8595C199.599 76.7832 199.604 76.7065 199.641 76.6293ZM200.195 81.3466L200.157 81.328L197.985 80.2558L197.927 80.2278C197.97 80.0739 198.038 79.8845 198.13 79.6596C198.236 79.4409 198.342 79.2222 198.447 79.0035C198.566 78.791 198.671 78.5883 198.765 78.3953C198.871 78.2085 198.945 78.0701 198.989 77.9801C199.142 77.9907 199.341 78.0391 199.585 78.1252C199.842 78.2175 200.093 78.3226 200.337 78.4407C200.582 78.5587 200.8 78.6803 200.994 78.8054C201.206 78.9238 201.348 79.0241 201.42 79.1062C201.413 79.119 201.354 79.2253 201.242 79.4249C201.136 79.6117 201.014 79.8306 200.877 80.0817C200.74 80.3327 200.606 80.5774 200.475 80.8156C200.344 81.0538 200.257 81.218 200.214 81.308L200.204 81.3273L200.195 81.3466Z" fill="black"/>
<path d="M264.786 339.207C262.447 337.683 260.167 335.946 257.77 334.442C257.139 333.617 256.411 332.841 255.596 332.181C258.148 331.133 259.701 329.677 259.856 329.571C260.914 333.307 262.709 337.848 264.776 339.216L264.786 339.207Z" fill="#FBEA88"/>
<path d="M433.331 330.425C412.119 322.099 390.003 326.609 367.073 331.956C369.286 331.432 366.966 336.492 367.073 346.807C366.86 346.885 367.141 346.575 367.073 346.807C365.288 355.162 360.698 362.884 357.729 364.728C356.739 365.349 355.39 365.834 354.265 365.552C354.245 365.552 354.236 365.533 354.207 365.533C350.403 364.359 317.914 358.061 286.212 350.182C282.534 349.298 279.972 348.221 279.866 344.456C279.817 342.826 279.419 340.973 279.089 339.352C276.372 329.726 277.818 308.562 264.475 315.015C262.874 310.26 258.721 305.078 253.84 303.691C258.09 298.965 259.623 291.949 257.731 285.884C255.849 279.8 250.589 274.909 244.408 273.424C247.387 262.323 239.566 251.164 228.076 250.271C229.027 243.44 225.107 236.23 218.887 233.289C215.452 231.688 211.473 231.436 207.815 232.387C218.353 226.788 247.474 217.967 267.901 215.997C272.704 215.473 277.498 215.628 282.321 215.89C282.097 215.89 281.384 225.993 281.549 229.02C281.675 231.107 282.219 232.523 283.606 234.076C285.77 236.521 286.803 236.792 289.743 238.238C301.679 244.148 321.452 238.725 324.567 226.46C325.246 223.743 323.581 213.377 324.163 212.348C324.455 211.863 325.017 211.621 325.58 211.572C326.25 211.514 326.696 211.727 327.308 211.931C328.064 212.193 330.18 212.465 333.906 213.319C347.045 216.288 359.592 221.567 372.178 226.846C390.353 234.493 405.365 247.408 413.468 265.322C422.842 286.039 429.576 307.98 433.37 330.415L433.331 330.425Z" fill="#76E15C"/>
<path d="M367.073 346.807C366.966 336.492 369.286 331.432 367.073 331.956C390.003 326.609 412.119 322.099 433.331 330.425L433.37 330.415C429.576 307.98 422.842 286.039 413.468 265.322C405.365 247.408 390.353 234.493 372.178 226.846C359.592 221.567 347.045 216.288 333.906 213.319C330.18 212.465 328.064 212.193 327.308 211.931C326.696 211.727 326.25 211.514 325.58 211.572C325.017 211.621 324.455 211.863 324.163 212.348C323.581 213.377 325.246 223.743 324.567 226.46C321.452 238.725 301.679 244.148 289.743 238.238C286.803 236.792 285.77 236.521 283.606 234.076C282.219 232.523 281.675 231.107 281.549 229.02C281.384 225.993 282.097 215.89 282.321 215.89C277.498 215.628 272.704 215.473 267.901 215.997C247.474 217.967 218.353 226.788 207.815 232.387C211.473 231.436 215.452 231.688 218.887 233.289C225.107 236.23 229.027 243.44 228.076 250.271C239.566 251.164 247.387 262.323 244.408 273.424C250.589 274.909 255.849 279.8 257.731 285.884C259.623 291.949 258.09 298.965 253.84 303.691C258.721 305.078 262.874 310.26 264.475 315.015C277.818 308.562 276.372 329.726 279.089 339.352C279.419 340.973 279.817 342.826 279.866 344.456C279.972 348.221 282.534 349.298 286.212 350.182C317.914 358.061 350.403 364.359 354.207 365.533C354.236 365.533 354.245 365.552 354.265 365.552C355.39 365.834 356.739 365.349 357.729 364.728C360.698 362.884 365.288 355.162 367.073 346.807ZM367.073 346.807C366.86 346.885 367.141 346.575 367.073 346.807Z" stroke="black" stroke-width="1.42857" stroke-linejoin="round"/>
<path d="M181.507 229.98C175.966 231.785 171.435 236.249 168.611 241.431C165.467 247.166 163.759 250.921 162.934 257.432V258.238L162.264 256.85C156.665 253.444 152.667 252.445 146.205 251.348C139.907 250.261 132.998 251.271 128.01 255.201C109.912 222.897 116.162 234.037 114.803 231.62C114.444 231.019 114.415 230.223 114.648 229.689C121.751 211.844 141.877 199.326 162.623 202.79C163.312 202.916 163.788 203.275 164.147 203.829C169.183 211.989 175.481 221.063 181.507 229.971V229.98Z" fill="#FADF4F" stroke="black" stroke-width="1.42857" stroke-linejoin="round"/>
<path d="M110.515 362.593C110.466 361.943 109.874 361.457 109.253 361.486L79.511 363.505C78.8609 363.553 78.366 364.116 78.4048 364.766C78.4436 365.387 78.9773 365.911 79.6663 365.873L109.408 363.854C110.059 363.806 110.554 363.243 110.515 362.593Z" fill="black"/>
<path d="M123.285 378.691L83.9067 403.64C83.3535 403.989 83.1886 404.727 83.5379 405.28C83.8873 405.833 84.6247 405.998 85.1779 405.648L124.556 380.7C125.109 380.351 125.274 379.613 124.925 379.06C124.575 378.507 123.838 378.342 123.285 378.691Z" fill="black"/>
<path d="M137.297 391.044C136.667 390.841 136.007 391.18 135.803 391.801L126.769 419.447C126.517 420.214 127.089 421 127.894 421C128.389 421 128.855 420.68 129.02 420.185L138.054 392.539C138.258 391.918 137.918 391.248 137.297 391.044Z" fill="black"/>
<path d="M348.637 364.219L370.658 323.25L369.634 332.468C372.383 331.681 374.037 331.237 377.828 330.42C383.67 329.167 386.971 328.599 393.192 327.859C397.086 327.263 399.601 327.057 404.458 326.835C408.314 326.675 410.74 326.686 416.749 327.347C420.234 327.788 422.137 328.139 425.455 328.883L424.943 332.98L423.919 345.783L422.382 356.025L419.822 369.341L418.285 379.071L412.652 391.362L407.019 400.58L395.752 410.822H352.734L220.095 385.216L215.486 383.68L213.95 381.631L212.926 377.534L215.486 373.95L218.559 371.389L215.486 369.341L212.414 365.756L211.389 362.171L212.414 358.074L217.023 355.513L213.95 352.953L211.389 349.88L210.877 345.271L212.414 342.198L215.486 340.15L220.095 339.638L225.729 341.174L222.656 338.101L220.608 334.516L219.583 331.444L221.632 327.347L227.777 324.274L234.435 325.298L251.335 331.444L264.138 340.15L262.089 336.565L260.041 331.444L259.016 325.298L260.553 319.665L263.113 316.08L270.283 314.544L274.892 318.129L276.429 324.274L277.965 332.98L278.989 340.15L281.55 348.856L348.637 364.219Z" fill="#FFD7B1"/>
<path d="M148.399 251.553L162.226 256.674L164.275 252.065L166.835 243.872L170.42 238.75L175.541 233.117L182.711 229.532H189.368L196.026 232.093L200.123 237.214L202.171 234.653L209.853 231.581L217.023 232.605L223.68 236.702L227.777 243.872L228.289 250.529L235.971 252.578L242.117 258.211L244.677 265.381L244.165 273.574L248.774 275.111L254.92 280.744L258.504 287.914L257.48 297.132L253.895 303.277L261.065 308.398L264.65 314.544L259.529 321.201V329.907L255.432 333.492L253.383 332.468L235.459 325.298L226.753 324.786L221.12 327.347L219.583 334.004L224.192 340.15L217.023 339.638L211.389 343.223L210.877 349.88L217.023 355.513L212.414 358.586L211.389 363.195L213.95 367.804L219.583 371.389L213.95 374.462L212.414 379.583L216.511 384.192L213.95 387.777L209.341 392.898L203.196 396.483L198.074 396.995L190.905 394.434L185.784 388.801L178.102 390.85L170.932 388.801L165.299 383.68L163.25 376.51L157.617 378.047L151.472 377.534L145.326 373.437L142.253 369.853L141.229 363.195L141.741 357.05H139.181L130.987 353.977L125.866 349.368L122.793 342.71L122.281 335.541L123.817 330.42L122.281 329.395L116.135 324.274L113.063 317.104V310.447L116.135 303.277L111.014 298.156L108.454 293.547V285.865L112.038 278.183L116.135 275.111L123.305 273.062L122.281 270.502V264.868L123.817 259.747L129.451 253.602L138.157 251.041L148.399 251.553Z" fill="#87AB99"/>
<path d="M434.001 409.249H399C409.917 401.748 415.875 390.617 419.135 378.293C424.754 357.091 423.56 351.307 426.957 328.144C426.19 327.892 425.452 327.649 424.686 327.426C424.637 327.523 424.628 327.61 424.608 327.707C421.105 354.519 421.668 359.478 416.835 377.692C412.546 393.868 404.318 403.824 394.478 409.258C350.723 409.287 354.469 409.21 353.945 409.297C353.605 409.22 218.683 383.592 218.218 383.495C216.617 382.738 214.307 381.195 213.919 379.565C213.599 378.002 214.85 375.217 217.373 373.975C218.897 373.218 221.614 373.015 223.196 373.548C223.37 373.607 223.545 373.616 223.72 373.587C226.873 374.519 236.412 377.634 240.41 377.634C241.012 377.634 241.536 377.168 241.594 376.556C241.652 375.906 241.167 375.324 240.517 375.266C234.85 374.742 229.27 372.733 223.788 371.132C221.022 370.327 218.169 369.492 215.908 367.784C213.57 366.028 212.308 363.427 212.677 361.157C213.016 359.07 216.015 356.237 218.431 357.042C222.138 358.342 243.506 365.601 247.416 365.601C248.028 365.601 248.542 365.135 248.6 364.514C248.659 363.864 248.173 363.282 247.513 363.233C239.692 362.573 231.764 358.41 222.623 355.849C219.518 354.975 216.587 354.15 214.443 352.132C212.192 350.017 210.872 346.106 212.648 343.476C213.647 342.011 215.559 341.031 217.791 340.846C219.984 340.672 222.225 341.196 224.331 341.749C224.467 341.788 224.603 341.788 224.739 341.768C225.379 342.205 226.039 342.603 226.747 342.952C235.5 347.261 244.069 350.89 252.23 353.723C252.851 353.937 253.53 353.607 253.743 352.996C253.957 352.375 253.637 351.695 253.016 351.482C244.952 348.677 236.471 345.087 227.805 340.827C225.039 339.459 222.827 337.275 221.74 334.811C220.663 332.385 220.799 330.337 222.128 328.726C224.011 326.465 228.281 325.349 231.842 326.194C241.691 328.513 255.189 333.035 263.602 341.361C264.612 342.36 266.213 341.041 265.427 339.857C263.777 337.382 255.946 324.69 263.36 317.79C265.378 315.908 268.328 315.267 270.541 316.228C276.402 318.761 275.509 328.561 276.693 334.316C276.761 334.646 276.877 335.383 277.033 336.354C278.993 348.532 279.817 350.017 281.118 350.356C296.954 354.471 313.111 358.216 329.123 361.477C334.324 362.534 350.52 366.202 354.886 366.202C361.514 366.202 364.58 359.119 366.327 353.655C370.383 340.992 371.286 326.174 371.616 314.685C371.635 314.025 371.121 313.482 370.461 313.462C369.753 313.462 369.258 313.957 369.238 314.617C369.209 315.587 369.17 316.606 369.131 317.615C367.433 321.351 364.542 325.806 362.29 330.667C352.014 352.869 354.925 345.97 347.87 362.864C340.301 361.564 307.91 354.868 281.972 348.134C280.875 346.281 279.264 335.092 279.002 333.84C278.071 329.299 278.459 324.03 276.508 319.488C274.51 314.84 270.405 312.346 265.572 313.841C263.864 308.62 260.148 304.933 255.83 303.167C259.507 298.198 260.701 291.473 258.848 285.573C256.955 279.47 251.9 274.492 245.806 272.619C248.057 261.566 240.595 250.873 229.367 249.252C229.814 242.265 225.758 235.259 219.382 232.251C213.065 229.291 205.273 230.65 200.246 235.114C196.491 229.02 187.893 226.438 181.159 228.855C176.967 230.223 173.076 233.144 170.048 237.083C163.488 226.477 155.647 213.785 149.126 203.217C148.787 202.664 148.049 202.489 147.496 202.829C146.943 203.178 146.768 203.906 147.108 204.459C153.202 214.338 161.363 227.545 168.573 239.199C168.233 239.742 167.894 240.276 167.583 240.849C164.594 246.322 162.974 249.97 162.071 255.356C156.928 252.367 152.959 251.29 146.419 250.174C145.701 250.048 145.002 249.97 144.294 249.902C137.074 237.549 131.291 227.506 124.915 216.822C124.586 216.259 123.858 216.075 123.285 216.414C122.722 216.754 122.538 217.482 122.878 218.045C128.962 228.243 134.425 237.714 141.46 249.757C135.211 249.757 129.913 251.901 126.876 254.599C121.655 258.975 119.53 266.399 121.636 272.192C114.882 273.366 109.089 278.703 107.517 285.409C105.896 292.259 108.865 299.79 114.61 303.797C108.846 313.734 112.757 326.155 122.703 331.201C120.384 337.14 121.141 344.185 124.741 349.473C128.244 354.587 134.251 357.828 140.422 358.022C138.685 364.039 140.587 371.035 145.255 375.237C149.786 379.303 156.433 380.215 162.256 377.721C163.799 388.842 175.705 395.013 185.623 390.093C187.864 394.819 193.211 398.041 198.878 398.041C205.447 398.041 212.725 393.752 216.675 385.358C217.888 385.979 353.392 411.694 353.926 411.578C354.44 411.675 349.316 411.587 434.001 411.616C434.661 411.616 435.185 411.083 435.185 410.432C435.185 409.782 434.652 409.249 434.001 409.249ZM259.672 335.092C259.08 334.151 258.391 333.258 257.673 332.501C258.081 332.278 258.479 332.035 258.877 331.773C259.255 333.025 259.731 334.277 260.284 335.5C260.09 335.354 259.866 335.238 259.672 335.102V335.092ZM169.65 241.984C172.61 236.54 177.51 231.95 183.662 230.611C189.883 229.32 196.549 232.367 198.829 237.54C199.169 238.316 200.207 238.5 200.79 237.86C205.088 233.173 212.541 231.649 218.344 234.376C224.079 237.074 227.747 243.837 226.873 250.106C226.776 250.776 227.262 251.397 227.951 251.455C238.101 252.26 245.515 261.741 243.448 272.056C237.208 270.193 230.095 271.396 224.836 275.229C224.302 275.617 224.186 276.355 224.574 276.889C224.962 277.422 225.709 277.539 226.233 277.151C235.84 270.144 252.666 273.677 256.567 286.253C258.343 291.929 256.916 298.47 252.938 302.914C252.356 303.564 252.647 304.612 253.501 304.845C257.867 306.078 261.827 309.658 263.36 314.801C259.342 317.237 256.829 322.186 258.246 329.27C255.529 331.278 254.704 330.813 254.461 331.9C247.116 327.94 238.945 325.398 232.366 323.845C228.494 322.933 223.099 323.777 220.275 327.174C217.47 330.551 218.538 335.15 221.323 338.615C208.232 336.557 205.884 349.667 214.656 355.237C213.657 355.761 212.871 356.382 212.124 357.226L172.387 275.025C180.518 282.294 191.823 282.915 200.382 278.043C200.955 277.723 201.149 276.995 200.828 276.423C200.508 275.85 199.78 275.656 199.208 275.976C188.805 281.905 175.511 278.276 169.572 267.864C169.378 267.515 169.019 267.33 168.651 267.291L164.129 257.927V257.549C164.895 251.445 166.39 247.961 169.66 241.965L169.65 241.984ZM199.858 395.624C194.725 396.042 189.708 393.247 187.738 389.026C191.193 386.775 193.521 382.951 193.871 378.827C193.929 378.177 193.444 377.604 192.784 377.546C192.153 377.488 191.561 377.973 191.503 378.633C190.766 387.464 179.664 392.092 171.688 387.726C167.738 385.571 165.05 381.437 164.575 376.983C179.131 375.12 187.369 360.05 181.896 347.076C181.644 346.475 180.936 346.193 180.344 346.446C179.742 346.698 179.461 347.396 179.713 347.998C182.119 353.704 181.576 360.506 178.286 365.756C172.784 374.528 163.226 374.713 162.974 374.781C162.722 374.79 162.498 374.868 162.265 375.052C157.054 377.721 150.922 377.119 146.836 373.461C142.45 369.512 140.917 362.699 143.197 357.265C143.527 356.499 142.955 355.577 142.033 355.625C136.075 356.004 130.068 353.054 126.701 348.134C119.316 337.285 127.011 321.875 138.433 318.712C139.064 318.537 139.432 317.887 139.258 317.247C139.083 316.616 138.433 316.247 137.792 316.422C131.524 318.159 126.148 322.991 123.741 329.037C114.377 324.243 111.553 312.579 117.22 304.088C117.599 303.526 117.424 302.749 116.842 302.41C111.388 299.188 108.37 292.114 109.826 285.952C111.262 279.8 117.123 274.812 123.45 274.356C124.304 274.298 124.818 273.376 124.421 272.619C121.781 267.621 123.538 260.499 128.428 256.394C132.087 253.202 138.598 251.222 146.031 252.513C152.62 253.648 156.268 254.628 161.382 257.685L166.331 267.913C166.302 268.116 166.302 268.33 166.38 268.534C170.844 279.644 165.448 292.327 154.318 296.801C152.872 297.383 153.736 299.595 155.201 299.004C164.129 295.413 170.504 286.612 170.271 276.083L210.658 359.633C209.397 362.884 210.94 367.726 215.966 370.637L216.51 371.753C214.249 372.801 212.648 374.703 211.9 376.838C210.823 379.895 212.007 382.117 214.656 384.096C211.386 391.287 205.438 395.178 199.877 395.624H199.858Z" fill="black"/>
<path d="M116.135 224.411L117.159 202.902L135.596 190.611L157.617 201.366C131.778 201.672 121.211 215.775 116.135 224.411Z" fill="#FFD7B1"/>
<path d="M113.575 229.709C113.555 229.922 114.425 230.184 114.522 230.378C114.522 230.145 114.571 229.932 114.658 229.709C115.357 227.952 115.175 226.573 116.135 224.923C116.543 219.411 117.601 212.803 118.184 204.438C122.841 199.295 129.524 195.532 136.142 191.776C142.324 194.523 154.469 199.807 160.689 202.902C162.863 202.922 160.489 202.441 162.634 202.8C162.964 202.858 163.274 202.984 163.536 203.169C163.4 202.955 163.502 201.965 163.25 201.878C154.876 198.685 143.585 192.106 135.075 188.739C134.91 188.671 123.256 184.091 123.411 184.149C122.382 183.78 121.286 183.402 120.208 183.625C120.199 183.518 120.199 183.421 120.16 183.315C119.122 180.607 117.938 177.531 115.599 175.27C113.27 173.009 109.263 171.67 106.128 173.523C103.45 175.096 102.557 178.172 101.432 180.782C99.3162 185.741 95.5996 189.224 91.4852 190.107C87.2058 191.029 81.9075 188.312 81.3544 183.936C81.1215 182.111 81.3544 179.394 79.2099 178.133C77.502 177.124 74.8334 177.356 72.3784 181.655C70.1562 185.547 66.3135 188.681 62.005 188.264C58.2981 187.914 54.8727 183.761 56.2603 180.306C56.5029 179.695 56.2118 179.006 55.6005 178.764C54.9988 178.521 54.3002 178.812 54.0576 179.423C52.078 184.353 56.4447 190.127 61.7818 190.631C66.0612 191.029 71.0684 188.72 74.4356 182.839C75.1245 181.626 76.5413 179.326 77.9969 180.19C78.909 180.733 78.7829 182.597 78.9867 184.246C79.7145 189.991 86.2742 193.659 91.9704 192.436C96.832 191.398 101.179 187.39 103.596 181.723C104.566 179.443 105.362 176.726 107.312 175.571C109.398 174.339 112.28 175.377 113.93 176.978C115.89 178.88 116.967 181.694 117.918 184.169C118.015 184.421 118.2 184.605 118.413 184.731C117.171 186.245 117.087 184.188 113.575 229.709Z" fill="black"/>
<path d="M272.842 116.866C274.071 114.818 281.548 106.453 285.133 102.527C288.82 116.866 312.275 112.599 323.542 108.672C326.41 129.976 339.076 142.472 345.051 146.057C342.183 150.564 339.076 156.47 337.881 158.86L334.808 170.639L337.881 166.542C339.929 165.347 344.641 163.469 347.099 165.517C349.557 167.566 351.196 170.127 351.708 171.151C352.391 172.687 353.142 176.784 350.684 180.881C348.226 184.978 345.221 187.026 344.026 187.539C343.173 188.563 339.929 190.406 333.784 189.587C327.639 188.768 324.395 185.831 323.542 184.466L323.03 200.854C323.712 206.316 323.696 220.007 323.696 224.923C323.696 231.069 317.837 234.53 316.884 235.166C315.348 236.19 307.666 240.799 296.399 239.262C287.386 238.033 283.543 233.123 282.348 230.221L284.109 198.805C283.255 198.464 278.885 197.883 272.33 196.245C265.775 194.606 260.039 183.954 257.99 178.833C256.795 173.541 254.61 161.318 255.43 154.763C256.454 146.569 262.087 136.327 262.599 133.766C263.112 131.206 271.305 119.427 272.842 116.866Z" fill="#FFD7B1"/>
<path d="M281.572 104.461C260.223 126.382 245.338 160.093 260.213 185.973C262.416 189.806 265.104 193.698 269.801 196.153C273.595 198.142 277.739 199.501 282.105 200.267C281.96 204.964 280.203 226.254 279.98 228.437C279.912 229.088 280.378 229.67 281.038 229.747C281.688 229.815 282.28 229.35 282.348 228.69C282.542 226.865 284.26 206.458 284.473 200.646C293.653 201.781 302.736 200.442 311.799 198.53C312.439 198.394 312.847 197.764 312.721 197.123C312.585 196.483 311.945 196.075 311.314 196.201C297.389 199.132 283.474 200.607 270.926 194.047C266.764 191.864 264.318 188.312 262.29 184.78C248.035 159.967 262.572 127.392 283.289 106.101C283.425 105.966 283.503 105.791 283.561 105.616C289.917 115.252 306.957 115.698 317.864 112.331C319.581 111.798 321.134 111.031 322.725 110.361C326.743 131.302 337.534 143.529 344.074 146.586C338.892 152.418 335.428 160.239 333.516 170.428C333.4 171.068 333.807 171.68 334.448 171.806C335.078 171.932 335.699 171.534 335.845 170.903C336.67 167.216 341.066 164.887 344.705 165.751C348.382 166.624 351.294 170.234 351.623 174.348C352.468 185.023 338.184 193.882 327.073 186.041C326.432 185.595 325.986 184.993 324.938 184.751C324.957 183.266 322.842 183.13 322.599 184.537C321.124 193.319 322.881 215.269 323.696 224.304C323.754 224.925 324.268 225.381 324.88 225.381C325.578 225.381 326.132 224.779 326.064 224.08C325.763 220.791 325.171 213.833 324.773 206.487C329.858 211.242 350.983 214.852 361.842 207.089C363.113 206.177 367.334 202.907 368.246 199.025C368.508 197.929 367.683 192.659 367.499 189.836C378.193 187.478 388.605 177.948 392.108 160.123C396.29 138.823 388.954 116.523 371.953 101.832C366.781 97.3582 361.075 95.9706 355.942 92.516C350.828 89.0906 347.907 80.6288 344.307 75.2626C325.646 47.3933 300.737 53.4096 289.587 64.3653C280.921 72.8852 277.768 87.3536 281.572 101.23C281.853 102.249 282.231 103.219 282.688 104.141C282.299 104.054 281.882 104.141 281.581 104.452L281.572 104.461ZM319.95 64.8116C320.6 64.9087 321.047 65.5103 320.959 66.1605C320.862 66.8106 320.261 67.2376 319.611 67.1599C309.082 65.6656 299.194 72.6329 297.069 83.0257C296.962 83.5982 296.448 83.9767 295.894 83.9767C295.089 83.9767 294.604 83.2489 294.74 82.5502C297.127 70.925 308.189 63.1329 319.94 64.8213L319.95 64.8116Z" fill="black"/>
<path d="M281.572 104.461C260.223 126.382 245.338 160.093 260.213 185.973C262.416 189.806 265.104 193.698 269.801 196.153C273.595 198.142 277.739 199.501 282.105 200.267C281.96 204.964 280.203 226.254 279.98 228.437C279.912 229.088 280.378 229.67 281.038 229.747C281.688 229.815 282.28 229.35 282.348 228.69C282.542 226.865 284.26 206.458 284.473 200.646C293.653 201.781 302.736 200.442 311.799 198.53C312.439 198.394 312.847 197.764 312.721 197.123C312.585 196.483 311.945 196.075 311.314 196.201C297.389 199.132 283.474 200.607 270.926 194.047C266.764 191.864 264.318 188.312 262.29 184.78C248.035 159.967 262.572 127.392 283.289 106.101C283.425 105.966 283.503 105.791 283.561 105.616C289.917 115.252 306.957 115.698 317.864 112.331C319.581 111.798 321.134 111.031 322.725 110.361C326.743 131.302 337.534 143.529 344.074 146.586C338.892 152.418 335.428 160.239 333.516 170.428C333.4 171.068 333.807 171.68 334.448 171.806C335.078 171.932 335.699 171.534 335.845 170.903C336.67 167.216 341.066 164.887 344.705 165.751C348.382 166.624 351.294 170.234 351.623 174.348C352.468 185.023 338.184 193.882 327.073 186.041C326.432 185.595 325.986 184.993 324.938 184.751C324.957 183.266 322.842 183.13 322.599 184.537C321.124 193.319 322.881 215.269 323.696 224.304C323.754 224.925 324.268 225.381 324.88 225.381C325.578 225.381 326.132 224.779 326.064 224.08C325.763 220.791 325.171 213.833 324.773 206.487C329.858 211.242 350.983 214.852 361.842 207.089C363.113 206.177 367.334 202.907 368.246 199.025C368.508 197.929 367.683 192.659 367.499 189.836C378.193 187.478 388.605 177.948 392.108 160.123C396.29 138.823 388.954 116.523 371.953 101.832C366.781 97.3582 361.075 95.9706 355.942 92.516C350.828 89.0906 347.907 80.6288 344.307 75.2626C325.646 47.3933 300.737 53.4096 289.587 64.3653C280.921 72.8852 277.768 87.3536 281.572 101.23C281.853 102.249 282.231 103.219 282.688 104.141C282.299 104.054 281.882 104.141 281.581 104.452L281.572 104.461ZM319.95 64.8116C320.6 64.9087 321.047 65.5103 320.959 66.1605C320.862 66.8106 320.261 67.2376 319.611 67.1599C309.082 65.6656 299.194 72.6329 297.069 83.0257C296.962 83.5982 296.448 83.9767 295.894 83.9767C295.089 83.9767 294.604 83.2489 294.74 82.5502C297.127 70.925 308.189 63.1329 319.94 64.8213L319.95 64.8116Z" fill="black" fill-opacity="0.2"/>
<path d="M300.164 128.527C300.533 127.984 300.397 127.246 299.853 126.877C299.31 126.509 298.573 126.644 298.204 127.188C292.595 135.407 286.986 134.864 281.853 137.813C279.388 139.23 276.758 141.879 276.788 145.082C276.817 148.381 278.35 151.506 279.912 154.426C280.223 154.999 280.931 155.222 281.523 154.912C282.096 154.601 282.319 153.883 282.008 153.301C280.582 150.642 279.184 147.818 279.165 145.062C279.146 142.889 281.232 140.909 283.037 139.871C287.607 137.251 294.186 137.309 300.164 128.527Z" fill="black"/>
<circle cx="311.763" cy="137.863" r="2.56059" fill="black"/>
<circle cx="284.108" cy="122.5" r="2.56059" fill="black"/>
<path d="M281.543 116.203C287.249 114.291 295.895 114.913 298 120.434C298.185 120.909 298.631 121.201 299.107 121.201C299.941 121.201 300.514 120.366 300.213 119.59C297.622 112.778 287.85 111.584 280.786 113.952C280.165 114.165 279.825 114.835 280.039 115.456C280.242 116.077 280.912 116.407 281.543 116.203Z" fill="black"/>
<path d="M327.792 143.005C328.063 143.607 328.772 143.859 329.364 143.587C329.955 143.316 330.217 142.607 329.946 142.015C326.646 134.854 320.912 129.012 313.808 125.577C313.216 125.296 312.508 125.538 312.227 126.13C311.945 126.722 312.188 127.43 312.78 127.712C319.291 130.866 324.764 136.436 327.792 143.005Z" fill="black"/>
<path d="M343.036 178.016C344.23 176.677 344.841 174.804 344.657 173.029C344.589 172.378 344.006 171.903 343.356 171.971C342.706 172.039 342.231 172.621 342.298 173.271C342.551 175.678 340.659 177.793 338.242 177.813C337.582 177.813 337.058 178.356 337.068 179.016C337.068 179.666 337.602 180.19 338.252 180.19C338.407 180.151 341.027 180.277 343.046 178.016H343.036Z" fill="black"/>
<path d="M293.915 165.188C292.848 168.167 290.17 170.506 287.084 171.166C283.988 171.816 280.592 170.758 278.418 168.468C277.972 167.992 277.215 167.973 276.74 168.419C276.264 168.866 276.245 169.623 276.691 170.098C278.884 172.408 282.077 173.727 285.26 173.727C290.286 173.727 294.614 170.302 296.157 165.993C296.38 165.372 296.06 164.693 295.439 164.48C294.818 164.266 294.139 164.586 293.925 165.198L293.915 165.188Z" fill="black"/>
<path d="M58.1045 101.909C61.5202 104.209 62.5391 109.604 66.7409 112.069C69.1377 113.476 72.5244 113.457 74.3778 111.225C76.6582 108.479 75.1929 104.112 77.056 102.53C78.2981 101.482 80.5882 102.288 81.9565 103.704C83.6061 105.403 84.6541 107.732 86.7016 109.42C90.8258 112.826 97.8125 111.584 100.491 106.907C100.811 106.334 100.617 105.616 100.044 105.286C99.4719 104.956 98.7538 105.16 98.4238 105.723C96.4928 109.1 91.2236 110.08 88.2154 107.586C86.5367 106.198 85.3819 103.821 83.6643 102.045C81.5101 99.8229 77.8809 98.7167 75.5228 100.716C72.6311 103.161 74.2419 107.673 72.5535 109.711C71.5054 110.963 69.3512 110.846 67.9441 110.022C64.4217 107.955 63.4028 102.608 59.4242 99.9394C53.9124 96.2228 46.3532 99.8617 45.8389 106.509C45.7903 107.159 46.2755 107.732 46.9354 107.78C47.5855 107.819 48.1581 107.343 48.2066 106.684C48.3715 104.51 49.8077 102.404 51.7776 101.453C53.7378 100.502 56.2802 100.677 58.0948 101.9L58.1045 101.909Z" fill="black"/>
<path d="M55.7173 144.567C56.2898 144.237 56.4839 143.519 56.1637 142.947C54.7954 140.55 59.0651 134.776 66.178 141.511C69.6908 144.849 72.5437 149.08 77.939 149.08C79.6178 149.08 81.2675 148.575 82.5678 147.313C84.198 145.741 84.6832 143.49 85.3431 141.656C85.7409 140.53 86.6434 138.609 88.1863 138.357C89.8165 138.095 91.3788 139.793 92.718 141.414C95.8038 145.14 98.3171 145.208 99.8891 144.616C100.5 144.383 100.811 143.704 100.578 143.083C100.345 142.471 99.6659 142.161 99.0449 142.394C97.4437 142.995 95.5321 141.093 94.5326 139.89C93.2614 138.357 90.8936 135.494 87.7787 136.009C85.7506 136.338 84.0816 138.066 83.0918 140.86C82.461 142.607 82.0632 144.49 80.8987 145.615C79.1811 147.265 76.1827 146.867 74.106 145.615C71.7383 144.189 69.9625 141.86 67.7986 139.803C58.6284 131.108 51.3991 139.424 54.0871 144.14C54.4073 144.713 55.1351 144.907 55.7076 144.587L55.7173 144.567Z" fill="black"/>
<path d="M173.163 326.844C166.506 331.017 157.695 329.105 153.386 322.526C153.027 321.973 152.29 321.827 151.736 322.186C151.193 322.545 151.038 323.283 151.397 323.826C156.414 331.473 166.661 333.724 174.424 328.853C174.977 328.503 175.142 327.775 174.793 327.213C174.443 326.66 173.716 326.485 173.153 326.834L173.163 326.844Z" fill="black"/>
<path d="M211.831 311.677C220.448 308.63 225.077 299.198 222.195 290.513C221.991 289.892 221.322 289.552 220.691 289.756C220.07 289.96 219.73 290.629 219.934 291.26C222.408 298.713 218.449 306.815 211.026 309.435C210.405 309.658 210.085 310.328 210.308 310.949C210.521 311.56 211.191 311.89 211.822 311.677H211.831Z" fill="black"/>
<path d="M425.099 198.373C432.786 182.18 425.762 176.422 411.743 188.378C400.38 174.284 392.382 178.616 397.188 196.549C394.942 196.83 392.843 197.222 390.954 197.728C385.352 199.227 382.175 201.563 382.007 204.3C381.739 208.654 388.836 211.647 392.947 212.976C385.062 229.836 393.38 235.115 408.64 220.718C420.834 238.043 430.861 235.223 425.444 215.371C443.31 212.532 443.335 203.158 425.099 198.373ZM423.888 183.016C424.733 183.016 425.438 183.226 425.978 183.648C428.349 185.521 427.406 191.199 424.089 198.116C422.045 197.62 419.845 197.197 417.517 196.867C415.875 194.043 414.133 191.442 412.363 189.162C415.185 186.752 420.202 183.016 423.888 183.016ZM412.665 215.087C410.431 215.025 408.21 214.871 405.94 214.621C403.694 210.758 401.735 206.636 400.221 202.677C401.582 200.764 402.965 198.974 404.585 197.061C408.759 196.996 412.848 197.246 416.906 197.808C418.237 200.128 419.378 202.356 420.443 204.676C418.121 208.37 415.478 211.878 412.665 215.087ZM420.934 205.787C422.252 208.774 423.351 211.721 424.175 214.513C421.081 214.939 417.62 215.155 413.962 215.112C416.54 212.109 418.905 208.931 420.931 205.787H420.934ZM411.801 216.056C410.81 217.151 409.809 218.194 408.805 219.172C408.054 218.068 407.307 216.907 406.577 215.695C408.918 215.932 410.318 215.997 411.801 216.056ZM404.704 214.473C400.972 214.004 397.466 213.288 394.369 212.372C395.742 209.595 397.484 206.633 399.541 203.649C401.021 207.429 402.73 210.989 404.701 214.476L404.704 214.473ZM399.809 201.535C399.3 200.134 398.842 198.755 398.455 197.413C399.995 197.249 401.604 197.141 403.261 197.086C401.976 198.638 400.914 200.014 399.809 201.535ZM405.464 196.037C407.49 193.723 409.562 191.627 411.609 189.816C413.202 191.868 414.767 194.189 416.26 196.697C412.662 196.243 409.009 196.021 405.464 196.037ZM418.157 197.987C420.071 198.286 421.905 198.644 423.626 199.061C422.875 200.554 422.018 202.097 421.065 203.664C420.272 201.967 419.442 200.276 418.157 197.987ZM397.051 191.168C396.474 187.234 396.37 181.001 400.282 181.001C403.944 181.001 408.671 186.154 410.987 189.029C408.698 191.054 406.379 193.426 404.127 196.052C402.067 196.095 400.078 196.225 398.18 196.429C397.683 194.593 397.292 192.822 397.048 191.168H397.051ZM390.448 211.005C377.543 205.753 382.377 199.372 397.454 197.524C397.917 199.144 398.47 200.813 399.108 202.513C396.788 205.806 394.86 209.039 393.377 212.06C392.349 211.73 391.369 211.378 390.448 211.005ZM401.826 224.964C397.451 227.907 393.938 228.805 392.19 227.426C389.856 225.584 390.731 220.052 393.926 213.279C397.322 214.297 401.201 215.072 405.329 215.556C406.223 217.083 407.139 218.53 408.063 219.885C405.952 221.888 403.846 223.606 401.829 224.964H401.826ZM422.381 231.166C419.125 231.166 414.151 226.787 409.379 219.999C410.627 218.787 411.872 217.478 413.101 216.093C416.922 216.185 420.69 216.037 424.45 215.513C425.881 220.709 427.623 231.166 422.381 231.166ZM425.164 214.365C424.266 211.298 423.052 208.052 421.572 204.769C422.735 202.899 423.76 201.069 424.636 199.311C432.624 201.381 438.001 204.596 437.806 207.796C437.622 210.801 432.557 213.208 425.164 214.365Z" fill="black"/>
<path d="M396.12 191.714C397.515 191.714 398.646 190.57 398.646 189.159C398.646 187.748 397.515 186.604 396.12 186.604C394.724 186.604 393.593 187.748 393.593 189.159C393.593 190.57 394.724 191.714 396.12 191.714Z" fill="#F8D512"/>
<path d="M418.142 231.983C419.657 231.983 420.885 230.742 420.885 229.21C420.885 227.678 419.657 226.436 418.142 226.436C416.627 226.436 415.399 227.678 415.399 229.21C415.399 230.742 416.627 231.983 418.142 231.983Z" fill="#F8D512"/>
<path d="M426.051 196.654C427.73 196.654 429.091 195.278 429.091 193.581C429.091 191.883 427.73 190.508 426.051 190.508C424.373 190.508 423.012 191.883 423.012 193.581C423.012 195.278 424.373 196.654 426.051 196.654Z" fill="#87AB99"/>
<path d="M399.702 228.836C401.17 228.836 402.36 227.633 402.36 226.148C402.36 224.664 401.17 223.461 399.702 223.461C398.235 223.461 397.045 224.664 397.045 226.148C397.045 227.633 398.235 228.836 399.702 228.836Z" fill="#87AB99"/>
</svg>
