<?xml version="1.0" encoding="utf-8"?>
<!-- Generator: Adobe Illustrator 27.0.0, SVG Export Plug-In . SVG Version: 6.00 Build 0)  -->
<svg version="1.1" id="Layer_1" xmlns="http://www.w3.org/2000/svg" xmlns:xlink="http://www.w3.org/1999/xlink" x="0px" y="0px"
	 viewBox="0 0 460 460" style="enable-background:new 0 0 460 460;" xml:space="preserve">
<style type="text/css">
	.st0{filter:url(#Adobe_OpacityMaskFilter);}
	.st1{mask:url(#SVGID_1_);}
	.st2{fill:#FEFCEB;}
	.st3{fill:#F8D512;}
	.st4{fill:#87AB99;}
	.st5{fill:#0200F6;}
	.st6{fill:#D09DF6;}
	.st7{clip-path:url(#SVGID_00000038386407168799037920000014954404689968333225_);}
	.st8{clip-path:url(#SVGID_00000075139998165426017360000007855722965575252099_);}
	.st9{fill-rule:evenodd;clip-rule:evenodd;fill:#FFD7B1;}
	.st10{fill-rule:evenodd;clip-rule:evenodd;fill:#486758;}
	.st11{fill-rule:evenodd;clip-rule:evenodd;fill:#87AB99;}
	.st12{fill-rule:evenodd;clip-rule:evenodd;}
	.st13{fill:#FFD7B1;}
	.st14{fill:#76E15C;}
	.st15{clip-path:url(#SVGID_00000099641255817658409720000016467885880696643205_);}
	.st16{fill:#FCF1B0;}
	.st17{clip-path:url(#SVGID_00000074439233894045378000000007920245134384103351_);fill:#18292D;}
	.st18{fill:#FF4785;}
	.st19{fill:#A8EC98;}
	.st20{clip-path:url(#SVGID_00000157995886181818788840000002347599264158756264_);fill:#18292D;}
	.st21{fill:#B6EFA9;}
	.st22{fill:#486758;}
</style>
<defs>
	<filter id="Adobe_OpacityMaskFilter" filterUnits="userSpaceOnUse" x="0" y="0" width="460" height="460">
		<feColorMatrix  type="matrix" values="1 0 0 0 0  0 1 0 0 0  0 0 1 0 0  0 0 0 1 0"/>
	</filter>
</defs>
<mask maskUnits="userSpaceOnUse" x="0" y="0" width="460" height="460" id="SVGID_1_">
	<g class="st0">
		<rect width="460" height="460"/>
	</g>
</mask>
<g class="st1">
	<g>
		<defs>
			<rect id="SVGID_00000043459501327226638400000005115242600566496176_" width="460" height="460"/>
		</defs>
		<clipPath id="SVGID_00000050625197193537264750000007636683956584760707_">
			<use xlink:href="#SVGID_00000043459501327226638400000005115242600566496176_"  style="overflow:visible;"/>
		</clipPath>
	</g>
</g>
<g>
	<path class="st2" d="M32.56,359.72c47.68,32.1,106.29,18.06,173.12,7.45c17.8-2.83,27.2-7.87,45.14-9.65
		c44.76-4.42,70.35,34.68,113.24,21.1c62.23-19.7,81.76-145.77,81.76-145.77s12.31-61.91-9.51-89.43
		c-27.16-34.25-68.42-6.55-110.29-19.12c-39.63-11.89-56.09-44.5-97.37-41.75c-43.52,2.91-50.96,65.2-94.26,59.92
		c-27.61-3.36-34.21-43.31-61.17-36.48c-31.6,8-19.98,47.01-28.27,78.53C27.51,250.86-15.11,327.62,32.56,359.72z"/>
	<path d="M69.47,305.98c-0.86-2.94-2.03-6.06-3.45-9.21c1.12-1.79,2.1-3.55,2.94-5.24c7.67,1.99,12.83,5.07,12.64,8.14
		C81.42,302.56,76.56,304.87,69.47,305.98z M66.8,322.1c-3.12,0-7.9-4.2-12.48-10.72c1.2-1.16,2.39-2.42,3.57-3.75
		c3.67,0.09,7.28-0.05,10.89-0.56C70.16,312.07,71.83,322.1,66.8,322.1z M47.07,316.15c-4.2,2.82-7.57,3.69-9.25,2.36
		c-2.24-1.77-1.4-7.08,1.67-13.58c3.26,0.98,6.98,1.72,10.94,2.19c0.86,1.47,1.74,2.85,2.62,4.15
		C51.03,313.2,49.01,314.85,47.07,316.15L47.07,316.15z M36.15,302.75c-12.38-5.04-7.75-11.16,6.72-12.94
		c0.45,1.55,0.98,3.16,1.59,4.79c-2.23,3.16-4.08,6.26-5.5,9.16C37.98,303.45,37.04,303.11,36.15,302.75z M42.49,283.72
		c-0.55-3.78-0.65-9.76,3.1-9.76c3.51,0,8.05,4.94,10.27,7.7c-2.2,1.94-4.42,4.22-6.58,6.74c-1.98,0.04-3.89,0.17-5.71,0.36
		C43.09,287,42.72,285.3,42.49,283.72L42.49,283.72z M62.74,290.26c1.84,0.29,3.6,0.63,5.25,1.03c-0.72,1.43-1.54,2.91-2.46,4.42
		C64.77,294.08,63.98,292.46,62.74,290.26z M50.56,288.39c1.94-2.22,3.93-4.23,5.9-5.97c1.53,1.97,3.03,4.2,4.46,6.6
		C57.47,288.59,53.96,288.37,50.56,288.39z M45.14,293.67c-0.49-1.34-0.93-2.67-1.3-3.96c1.48-0.16,3.02-0.26,4.61-0.31
		C47.22,290.89,46.2,292.21,45.14,293.67z M49.83,306.08c-3.58-0.45-6.95-1.14-9.92-2.02c1.32-2.66,2.99-5.51,4.96-8.37
		C46.3,299.32,47.94,302.74,49.83,306.08L49.83,306.08z M56.64,307.6c-0.95,1.05-1.91,2.05-2.88,2.99
		c-0.72-1.06-1.44-2.17-2.14-3.34C53.88,307.48,55.22,307.54,56.64,307.6z M65.41,297.75c1.27,2.87,2.32,5.69,3.11,8.37
		c-2.97,0.41-6.29,0.62-9.8,0.57C61.19,303.81,63.46,300.76,65.41,297.75L65.41,297.75z M57.47,306.67
		c-2.14-0.06-4.28-0.21-6.45-0.45c-2.16-3.71-4.04-7.66-5.49-11.46c1.31-1.84,2.63-3.55,4.19-5.39c4.01-0.06,7.93,0.18,11.82,0.72
		c1.28,2.23,2.37,4.36,3.39,6.59C62.71,300.23,60.17,303.59,57.47,306.67z M68.24,275.89c0.81,0,1.49,0.2,2.01,0.61
		c2.28,1.8,1.37,7.25-1.81,13.88c-1.96-0.48-4.07-0.88-6.31-1.2c-1.58-2.71-3.25-5.21-4.95-7.39
		C59.89,279.48,64.71,275.89,68.24,275.89z M69.41,290.63c7.38-15.54,0.64-21.07-12.82-9.59c-10.91-13.53-18.58-9.37-13.97,7.84
		c-2.16,0.27-4.17,0.65-5.98,1.13c-5.38,1.44-8.42,3.68-8.59,6.31c-0.26,4.18,6.55,7.05,10.5,8.33
		c-7.57,16.18,0.42,21.25,15.06,7.43c11.7,16.63,21.32,13.92,16.13-5.13C86.88,304.22,86.91,295.22,69.41,290.63z"/>
	<ellipse class="st3" cx="41.6" cy="281.79" rx="2.42" ry="2.45"/>
	<ellipse class="st3" cx="62.73" cy="320.22" rx="2.63" ry="2.66"/>
	<ellipse class="st4" cx="70.32" cy="286.03" rx="2.92" ry="2.95"/>
	<ellipse class="st4" cx="45.03" cy="317.29" rx="2.55" ry="2.58"/>
	<path d="M416.07,358.01c-1.12-3.84-2.64-7.9-4.5-12.01c1.46-2.34,2.74-4.63,3.83-6.83c10,2.59,16.73,6.62,16.48,10.62
		C431.67,353.55,425.33,356.57,416.07,358.01z M412.59,379.04c-4.08,0-10.3-5.48-16.27-13.98c1.56-1.52,3.12-3.16,4.66-4.89
		c4.78,0.12,9.5-0.07,14.2-0.73C416.97,365.95,419.15,379.04,412.59,379.04z M386.86,371.28c-5.48,3.68-9.87,4.81-12.06,3.08
		c-2.92-2.31-1.83-9.23,2.17-17.71c4.25,1.27,9.11,2.24,14.27,2.85c1.12,1.91,2.26,3.72,3.42,5.42
		C392.02,367.43,389.39,369.58,386.86,371.28L386.86,371.28z M372.62,353.81c-16.15-6.57-10.1-14.56,8.77-16.87
		c0.58,2.03,1.27,4.12,2.07,6.24c-2.9,4.12-5.32,8.17-7.17,11.95C375,354.72,373.77,354.27,372.62,353.81z M380.88,328.98
		c-0.72-4.92-0.85-12.73,4.04-12.73c4.58,0,10.5,6.45,13.4,10.05c-2.86,2.53-5.77,5.5-8.59,8.79c-2.58,0.05-5.07,0.22-7.44,0.47
		C381.67,333.27,381.19,331.05,380.88,328.98L380.88,328.98z M407.3,337.51c2.39,0.37,4.69,0.82,6.84,1.34
		c-0.94,1.87-2.01,3.8-3.2,5.76C409.95,342.5,408.91,340.38,407.3,337.51z M391.41,335.07c2.54-2.9,5.13-5.52,7.69-7.79
		c1.99,2.57,3.95,5.47,5.82,8.61C400.42,335.33,395.85,335.05,391.41,335.07z M384.34,341.95c-0.64-1.75-1.21-3.48-1.7-5.16
		c1.93-0.2,3.94-0.34,6.02-0.41C387.05,338.33,385.72,340.05,384.34,341.95z M390.46,358.15c-4.67-0.59-9.06-1.48-12.94-2.63
		c1.72-3.48,3.9-7.18,6.47-10.92C385.85,349.33,387.99,353.79,390.46,358.15L390.46,358.15z M399.35,360.13
		c-1.24,1.37-2.49,2.68-3.75,3.9c-0.94-1.38-1.88-2.83-2.79-4.35C395.74,359.98,397.49,360.06,399.35,360.13z M410.78,347.28
		c1.65,3.74,3.02,7.43,4.06,10.92c-3.87,0.53-8.2,0.8-12.78,0.75C405.28,355.19,408.24,351.21,410.78,347.28L410.78,347.28z
		 M400.43,358.92c-2.8-0.08-5.58-0.27-8.42-0.58c-2.81-4.84-5.26-10-7.16-14.95c1.7-2.39,3.43-4.63,5.46-7.03
		c5.22-0.08,10.34,0.23,15.42,0.93c1.67,2.9,3.09,5.69,4.43,8.6C407.26,350.51,403.95,354.9,400.43,358.92z M414.47,318.77
		c1.06,0,1.94,0.26,2.62,0.79c2.97,2.34,1.79,9.45-2.36,18.11c-2.56-0.62-5.31-1.15-8.23-1.56c-2.05-3.53-4.24-6.79-6.45-9.64
		C403.58,323.45,409.86,318.77,414.47,318.77z M415.99,338c9.62-20.27,0.83-27.47-16.72-12.51c-14.22-17.64-24.23-12.22-18.22,10.23
		c-2.81,0.35-5.44,0.84-7.8,1.48c-7.01,1.88-10.99,4.8-11.2,8.23c-0.34,5.45,8.55,9.2,13.69,10.86c-9.87,21.1,0.54,27.71,19.64,9.69
		c15.26,21.69,27.81,18.16,21.03-6.69C438.79,355.72,438.82,343.99,415.99,338z"/>
	<ellipse class="st3" cx="379.72" cy="326.46" rx="3.16" ry="3.2"/>
	<ellipse class="st3" cx="407.28" cy="376.59" rx="3.43" ry="3.47"/>
	<ellipse class="st4" cx="417.18" cy="332" rx="3.8" ry="3.85"/>
	<ellipse class="st4" cx="384.2" cy="372.76" rx="3.33" ry="3.36"/>
	<path class="st5" d="M264.75,374.61c-1.24,2.58-2.68,4.68-4.55,6.7c-0.51-0.55-1.04-1.02-1.55-1.46L264.75,374.61L264.75,374.61z"
		/>
	<path class="st6" d="M269.29,341.39l-23.26-7.71c0,0.13,0.16,43.12,0.06,40.27c-20.53-5.72-56.62-0.01-77.69,3.67l-1,0.82
		l-1.56,2.46l-0.72,1.23l-0.82,1.64l-5.75,9.04c0,0-14.13,22.69-14.79,23.41c-0.32,0.34-0.39-0.06-0.41,0.41
		c-0.02,0.47-19.3-0.12-19.3,0c0.04,0.37-2.88,0-2.88,0s-5.87-0.21-6.57,0.41c-0.9,0.77-0.17-47.81-1.25-47.81
		c-48.41,0.09-42.39-0.04-46.42,0.28c-1.73,0.13-4.05,0.31-5.71-0.17c-1.37-0.38-1.65-1.08-1.79-2.54
		c-0.28-2.95,0.86-5.98,1.46-8.83c3.2-15.47,10.42-29.42,20.16-40.67c13.33-15.35,32.35-23.75,51.73-28.97
		c3.26-0.88,8.59-3.17,11.98-2.34c2.78,0.69,3.53,3.4,4.78,5.66c3.5,6.36,9.56,11.12,17,11.58c8.86,0.55,17.71-5.45,20.46-13.89
		c0.97-2.95,2.72-5.81,5.86-6.89c2.36-0.82,4.36,0.02,6.69,0.27c2.61,0.28,5.29,0.33,7.93,0.63c7.29,0.82,13.89,3.12,20.78,5.43
		c7.18,2.44,14.17,5.07,20.88,8.64c2.92,1.52,6.44,2.78,9.05,4.8c11.41,9,11.18,28.63,11.12,39.15H269.29z"/>
	<g>
		<defs>
			<path id="SVGID_00000021119720416508104200000012468145922536347036_" d="M269.29,341.39l-23.26-7.71
				c0,0.13,0.16,43.12,0.06,40.27c-20.53-5.72-56.62-0.01-77.69,3.67l-1,0.82l-1.56,2.46l-0.72,1.23l-0.82,1.64l-5.75,9.04
				c0,0-14.13,22.69-14.79,23.41c-0.32,0.34-0.39-0.06-0.41,0.41c-0.02,0.47-19.3-0.12-19.3,0c0.04,0.37-2.88,0-2.88,0
				s-5.87-0.21-6.57,0.41c-0.9,0.77-0.17-47.81-1.25-47.81c-48.41,0.09-42.39-0.04-46.42,0.28c-1.73,0.13-4.05,0.31-5.71-0.17
				c-1.37-0.38-1.65-1.08-1.79-2.54c-0.28-2.95,0.86-5.98,1.46-8.83c3.2-15.47,10.42-29.42,20.16-40.67
				c13.33-15.35,32.35-23.75,51.73-28.97c3.26-0.88,8.59-3.17,11.98-2.34c2.78,0.69,3.53,3.4,4.78,5.66
				c3.5,6.36,9.56,11.12,17,11.58c8.86,0.55,17.71-5.45,20.46-13.89c0.97-2.95,2.72-5.81,5.86-6.89c2.36-0.82,4.36,0.02,6.69,0.27
				c2.61,0.28,5.29,0.33,7.93,0.63c7.29,0.82,13.89,3.12,20.78,5.43c7.18,2.44,14.17,5.07,20.88,8.64c2.92,1.52,6.44,2.78,9.05,4.8
				c11.41,9,11.18,28.63,11.12,39.15H269.29z"/>
		</defs>
		<clipPath id="SVGID_00000165936191515770360450000008640649060417808517_">
			<use xlink:href="#SVGID_00000021119720416508104200000012468145922536347036_"  style="overflow:visible;"/>
		</clipPath>
		<path style="clip-path:url(#SVGID_00000165936191515770360450000008640649060417808517_);" d="M269.31,339.39h-0.02v4h0.02V339.39
			z M256.95,303.81c5.14,4.06,7.8,10.64,9.13,17.8c1.32,7.13,1.26,14.48,1.23,19.77l4,0.02c0.03-5.23,0.11-12.96-1.3-20.52
			c-1.4-7.53-4.32-15.27-10.59-20.21L256.95,303.81z M248.22,299.21c1.48,0.77,3.25,1.54,4.7,2.24c1.54,0.74,2.91,1.49,4.05,2.37
			l2.46-3.16c-1.47-1.15-3.16-2.04-4.76-2.82c-1.69-0.82-3.15-1.44-4.59-2.19L248.22,299.21z M227.61,290.69
			c7.15,2.43,14.02,5.02,20.59,8.51l1.88-3.53c-6.85-3.64-13.96-6.31-21.18-8.76L227.61,290.69z M207.25,285.35
			c7.04,0.79,13.43,3.01,20.37,5.34l1.27-3.79c-6.84-2.29-13.65-4.67-21.19-5.52L207.25,285.35z M199.34,284.72
			c1.35,0.14,2.72,0.23,4.04,0.31c1.33,0.09,2.61,0.17,3.88,0.32l0.45-3.97c-1.38-0.16-2.75-0.25-4.07-0.33
			c-1.34-0.09-2.62-0.17-3.87-0.3L199.34,284.72z M193.51,284.35c0.78-0.27,1.53-0.29,2.45-0.17c0.48,0.06,0.96,0.15,1.53,0.26
			c0.55,0.1,1.18,0.21,1.84,0.28l0.42-3.98c-0.5-0.05-1-0.14-1.55-0.24c-0.53-0.1-1.13-0.21-1.74-0.29
			c-1.26-0.16-2.69-0.19-4.26,0.36L193.51,284.35z M188.9,289.98c0.9-2.73,2.35-4.85,4.61-5.62l-1.3-3.78
			c-4.03,1.38-6.06,4.98-7.11,8.15L188.9,289.98z M166.41,305.24c9.77,0.6,19.45-5.96,22.49-15.27l-3.8-1.24
			c-2.47,7.57-10.49,13.01-18.44,12.52L166.41,305.24z M147.79,292.63c3.75,6.81,10.36,12.1,18.62,12.61l0.25-3.99
			c-6.6-0.41-12.12-4.65-15.37-10.55L147.79,292.63z M144.28,287.94c0.74,0.18,1.25,0.61,1.78,1.4c0.27,0.42,0.53,0.9,0.81,1.47
			c0.27,0.54,0.58,1.2,0.93,1.82l3.5-1.94c-0.28-0.51-0.53-1.03-0.84-1.66c-0.3-0.59-0.64-1.26-1.06-1.89
			c-0.86-1.3-2.12-2.58-4.15-3.08L144.28,287.94z M133.31,290.27c0.87-0.24,1.87-0.56,2.86-0.88c1.01-0.33,2.05-0.65,3.07-0.93
			c2.15-0.57,3.88-0.8,5.04-0.51l0.96-3.88c-2.23-0.55-4.85-0.05-7.03,0.53c-1.14,0.3-2.26,0.66-3.27,0.99
			c-1.03,0.33-1.92,0.62-2.68,0.83L133.31,290.27z M82.57,318.62c12.95-14.91,31.52-23.17,50.74-28.35l-1.04-3.86
			c-19.54,5.27-39.01,13.81-52.72,29.59L82.57,318.62z M62.85,358.39c3.13-15.12,10.18-28.76,19.71-39.77L79.54,316
			c-9.96,11.49-17.34,25.76-20.61,41.58L62.85,358.39z M61.43,366.62c-0.11-1.17,0.06-2.43,0.36-3.84c0.15-0.7,0.33-1.4,0.52-2.14
			c0.19-0.73,0.38-1.49,0.54-2.25l-3.92-0.82c-0.14,0.66-0.31,1.35-0.5,2.08c-0.18,0.72-0.38,1.49-0.55,2.27
			c-0.34,1.56-0.61,3.29-0.44,5.07L61.43,366.62z M61.76,367.42c-0.21-0.06-0.29-0.11-0.29-0.11c0,0,0,0,0.01,0.01
			c0.01,0.01,0.02,0.01,0.03,0.02c0.02,0.02,0.04,0.04,0.05,0.06c0.02,0.04,0,0.02-0.03-0.11c-0.03-0.14-0.07-0.35-0.1-0.68
			L57.45,367c0.07,0.74,0.2,1.71,0.74,2.56c0.62,0.97,1.54,1.45,2.51,1.72L61.76,367.42z M66.78,367.53
			c-1.84,0.14-3.76,0.26-4.99-0.1l-1.12,3.84c2.08,0.61,4.81,0.37,6.42,0.25L66.78,367.53z M113.35,367.24
			c-48.32,0.09-42.44-0.04-46.57,0.28l0.31,3.99c3.93-0.31-2.24-0.18,46.26-0.27L113.35,367.24z M113.3,415.53
			c0.23-0.2,0.66-0.47,1.27-0.47c0.62,0,1.06,0.27,1.31,0.49c0.39,0.35,0.52,0.75,0.52,0.75c0.05,0.14,0.05,0.2,0.03,0.06
			c-0.03-0.22-0.07-0.63-0.1-1.25c-0.07-1.21-0.12-3.02-0.15-5.24c-0.07-4.43-0.1-10.42-0.13-16.45
			c-0.03-6.02-0.07-12.09-0.17-16.65c-0.05-2.28-0.11-4.21-0.2-5.58c-0.04-0.68-0.1-1.27-0.16-1.71c-0.03-0.21-0.08-0.48-0.16-0.73
			c-0.04-0.11-0.12-0.36-0.3-0.61c-0.13-0.18-0.66-0.91-1.7-0.91v4c-1,0-1.51-0.7-1.6-0.84c-0.14-0.21-0.19-0.38-0.2-0.4
			c-0.02-0.07-0.01-0.07,0.01,0.08c0.04,0.27,0.08,0.72,0.13,1.37c0.08,1.28,0.14,3.14,0.19,5.41c0.1,4.52,0.13,10.56,0.17,16.58
			c0.03,6.02,0.06,12.03,0.13,16.49c0.04,2.23,0.09,4.09,0.16,5.39c0.03,0.64,0.08,1.19,0.13,1.6c0.02,0.17,0.07,0.46,0.17,0.74
			c0.03,0.07,0.18,0.52,0.6,0.89c0.26,0.23,0.72,0.51,1.35,0.51c0.62,0,1.07-0.28,1.31-0.49L113.3,415.53z M121.17,416.65
			c0.07-2,0.07-2,0.07-2c0,0,0,0,0,0c0,0,0,0,0,0c0,0,0,0,0,0c0,0-0.01,0-0.01,0c-0.01,0-0.03,0-0.05,0c-0.05,0-0.11,0-0.2-0.01
			c-0.17,0-0.41-0.01-0.7-0.02c-0.58-0.01-1.36-0.02-2.16,0c-0.8,0.01-1.67,0.05-2.4,0.12c-0.36,0.04-0.74,0.09-1.09,0.17
			c-0.23,0.06-0.85,0.2-1.35,0.65l2.65,2.99c-0.32,0.29-0.61,0.31-0.39,0.26c0.11-0.03,0.3-0.06,0.59-0.09
			c0.56-0.06,1.29-0.09,2.05-0.1c0.75-0.01,1.48-0.01,2.03,0c0.27,0,0.5,0.01,0.65,0.01c0.08,0,0.14,0,0.18,0.01
			c0.02,0,0.04,0,0.05,0c0,0,0.01,0,0.01,0c0,0,0,0,0,0c0,0,0,0,0,0c0,0,0,0,0,0C121.1,418.65,121.1,418.65,121.17,416.65z
			 M122.06,416.85c-0.03-0.33,0.02-0.66,0.15-0.97c0.13-0.3,0.31-0.51,0.47-0.65c0.15-0.14,0.29-0.22,0.39-0.27
			c0.1-0.05,0.18-0.08,0.24-0.1c0.11-0.03,0.18-0.05,0.19-0.05c0.02,0,0.02,0-0.01,0c-0.13,0.01-0.39,0-0.74-0.02
			c-0.32-0.02-0.66-0.05-0.91-0.08c-0.13-0.01-0.23-0.03-0.31-0.03c-0.04,0-0.06-0.01-0.08-0.01c-0.01,0-0.02,0-0.02,0c0,0,0,0,0,0
			c0,0,0,0,0,0c0,0,0,0,0,0c0,0,0,0,0,0c0,0,0,0-0.25,1.98c-0.25,1.98-0.25,1.98-0.25,1.98c0,0,0,0,0,0c0,0,0,0,0,0c0,0,0,0,0,0
			c0,0,0,0,0.01,0c0.01,0,0.02,0,0.03,0c0.02,0,0.06,0.01,0.1,0.01c0.09,0.01,0.21,0.02,0.35,0.04c0.29,0.03,0.68,0.07,1.08,0.09
			c0.38,0.02,0.84,0.04,1.25,0.02c0.17-0.01,0.49-0.04,0.82-0.15c0.15-0.05,0.48-0.17,0.8-0.46c0.38-0.35,0.75-0.96,0.67-1.74
			L122.06,416.85z M141.35,416.55c0.05-0.91,0.65-1.39,0.83-1.51c0.22-0.15,0.41-0.22,0.47-0.24c0.13-0.05,0.22-0.05,0.18-0.05
			c-0.05,0.01-0.18,0.02-0.43,0.03c-0.48,0.03-1.2,0.04-2.09,0.05c-1.79,0.01-4.18-0.01-6.59-0.05c-2.41-0.04-4.81-0.08-6.63-0.12
			c-0.9-0.02-1.67-0.03-2.21-0.03c-0.27,0-0.49,0-0.66,0c-0.08,0-0.17,0-0.26,0.01c-0.03,0-0.13,0.01-0.24,0.03
			c-0.04,0.01-0.19,0.03-0.38,0.1c-0.08,0.03-0.3,0.12-0.54,0.3c-0.21,0.17-0.76,0.69-0.76,1.57h4c0,0.88-0.54,1.4-0.76,1.57
			c-0.23,0.18-0.45,0.27-0.53,0.3c-0.18,0.07-0.33,0.09-0.36,0.1c-0.06,0.01-0.1,0.01-0.12,0.02c-0.02,0-0.04,0-0.04,0
			c-0.02,0,0,0,0.06,0c0.12,0,0.3,0,0.56,0c0.52,0,1.26,0.01,2.16,0.03c1.8,0.03,4.22,0.08,6.63,0.12c2.41,0.04,4.84,0.06,6.68,0.05
			c0.91-0.01,1.71-0.02,2.29-0.05c0.28-0.02,0.56-0.04,0.8-0.07c0.1-0.02,0.3-0.05,0.51-0.12c0.09-0.03,0.32-0.11,0.55-0.28
			c0.19-0.14,0.81-0.63,0.86-1.55L141.35,416.55z M142.3,414.87c0.08-0.08,0.28-0.27,0.61-0.38c0.32-0.11,0.68-0.1,0.48-0.1
			c-0.05,0-0.45,0-0.89,0.23c-0.52,0.27-0.81,0.69-0.95,1.01c-0.12,0.27-0.15,0.51-0.17,0.61c-0.02,0.12-0.02,0.23-0.03,0.31
			l3.99,0.2c0-0.04,0-0.01-0.01,0.04c0,0.03-0.01,0.08-0.03,0.15c-0.02,0.07-0.05,0.18-0.1,0.3c-0.06,0.13-0.15,0.31-0.31,0.48
			c-0.16,0.19-0.36,0.34-0.59,0.46c-0.22,0.11-0.42,0.16-0.55,0.18c-0.13,0.02-0.23,0.03-0.26,0.03c-0.14,0,0.3,0.02,0.72-0.13
			c0.44-0.15,0.76-0.42,1-0.67L142.3,414.87z M158.55,392.83c-1.7-1.06-1.7-1.06-1.7-1.06c0,0,0,0,0,0c0,0,0,0,0,0
			c0,0,0,0.01-0.01,0.01c-0.01,0.01-0.02,0.03-0.03,0.05c-0.03,0.04-0.07,0.11-0.12,0.19c-0.1,0.17-0.26,0.41-0.45,0.72
			c-0.39,0.62-0.94,1.51-1.61,2.58c-1.33,2.14-3.12,5-4.93,7.88c-1.81,2.88-3.63,5.78-5.05,8c-0.71,1.11-1.31,2.05-1.75,2.73
			c-0.22,0.34-0.4,0.61-0.53,0.8c-0.17,0.26-0.18,0.24-0.1,0.16l2.96,2.7c0.16-0.18,0.35-0.45,0.45-0.61
			c0.15-0.22,0.34-0.51,0.57-0.86c0.46-0.7,1.07-1.65,1.78-2.77c1.42-2.23,3.25-5.14,5.06-8.02c1.81-2.88,3.6-5.74,4.93-7.88
			c0.67-1.07,1.22-1.96,1.61-2.58c0.19-0.31,0.35-0.56,0.45-0.72c0.05-0.08,0.09-0.15,0.12-0.19c0.01-0.02,0.02-0.04,0.03-0.05
			c0-0.01,0.01-0.01,0.01-0.01c0,0,0,0,0,0c0,0,0,0,0,0C160.24,393.88,160.24,393.88,158.55,392.83z M162.61,382.72l-5.75,9.04
			l3.37,2.15l5.75-9.04L162.61,382.72z M163.33,381.25l-0.82,1.64l3.58,1.79l0.82-1.64L163.33,381.25z M164.12,379.9l-0.72,1.23
			l3.45,2.02l0.72-1.23L164.12,379.9z M165.71,377.38l-1.56,2.46l3.38,2.14l1.56-2.46L165.71,377.38z M167.14,376.08l-1,0.82
			l2.53,3.1l1-0.82L167.14,376.08z M246.63,372.03c-10.63-2.96-25.09-2.93-39.35-1.76c-14.32,1.18-28.68,3.54-39.22,5.39l0.69,3.94
			c10.52-1.84,24.74-4.18,38.86-5.34c14.18-1.17,28.04-1.13,37.94,1.63L246.63,372.03z M244.03,333.68c0,0.07,0.04,10.86,0.07,21.26
			c0.01,5.2,0.02,10.31,0.03,13.94c0,1.82,0,3.26-0.01,4.15c0,0.46-0.01,0.75-0.01,0.88c0,0.04,0,0.04,0,0.02c0-0.01,0-0.02,0-0.04
			c0-0.01,0-0.05,0.01-0.09c0-0.01,0.02-0.16,0.08-0.33c0.04-0.12,0.23-0.49,0.41-0.71c0.54-0.43,2.03-0.6,2.77-0.22
			c0.26,0.26,0.55,0.71,0.61,0.86c0.03,0.08,0.06,0.21,0.08,0.26c0.02,0.09,0.03,0.16,0.03,0.18c0,0.03,0.01,0.05,0.01,0.06
			c0,0.01,0,0.02,0,0.02c0,0.01,0,0,0-0.04l-4,0.14c0,0.05,0,0.11,0.01,0.16c0,0.02,0,0.07,0.01,0.13c0,0.02,0.01,0.1,0.03,0.19
			c0.01,0.05,0.05,0.18,0.08,0.27c0.06,0.15,0.35,0.6,0.61,0.86c0.74,0.38,2.23,0.21,2.77-0.22c0.17-0.23,0.36-0.59,0.41-0.71
			c0.06-0.18,0.08-0.33,0.08-0.34c0.01-0.08,0.02-0.15,0.02-0.17c0-0.06,0.01-0.11,0.01-0.16c0.01-0.18,0.01-0.52,0.01-0.97
			c0.01-0.91,0.01-2.36,0.01-4.18c0-3.63-0.01-8.75-0.03-13.95c-0.01-5.2-0.03-10.5-0.05-14.51c-0.01-2-0.01-3.68-0.02-4.86
			c0-0.59,0-1.06-0.01-1.38c0-0.16,0-0.28,0-0.37c0-0.09,0-0.13,0-0.13H244.03z M269.92,339.49l-23.26-7.71l-1.26,3.8l23.26,7.71
			L269.92,339.49z M269.31,341.39v2h1.99l0.01-1.99L269.31,341.39z M258.19,302.24l1.24-1.57l-0.01-0.01L258.19,302.24z
			 M249.14,297.43l-0.94,1.77l0.01,0l0.01,0L249.14,297.43z M228.26,288.8l0.64-1.89l-0.01,0L228.26,288.8z M207.48,283.37
			l-0.23,1.99l0,0L207.48,283.37z M199.55,282.73l0.21-1.99l0,0L199.55,282.73z M192.86,282.46l0.65,1.89l0.01,0L192.86,282.46z
			 M187,289.35l-1.9-0.63l0,0.01L187,289.35z M166.54,303.24l-0.12,2l0,0L166.54,303.24z M149.54,291.66l1.75-0.96l0-0.01
			L149.54,291.66z M144.76,286l0.48-1.94l0,0L144.76,286z M132.78,288.34l-0.52-1.93l0,0L132.78,288.34z M81.06,317.31L79.55,316
			l0,0L81.06,317.31z M60.89,357.98l1.96,0.41l0,0L60.89,357.98z M59.44,366.81l-1.99,0.19l0,0.01L59.44,366.81z M61.23,369.35
			l0.56-1.92l-0.01,0l-0.01,0L61.23,369.35z M66.93,369.52l0.16,1.99l0,0L66.93,369.52z M113.35,369.24v-2h0L113.35,369.24z
			 M114.6,417.06l1.3,1.52l0.02-0.01l0.02-0.01L114.6,417.06z M121.17,416.65l0.25-1.98l-0.09-0.01l-0.09,0L121.17,416.65z
			 M124.05,416.65h-2v0.1l0.01,0.1L124.05,416.65z M143.76,416.24l1.46,1.36l0.01-0.01l0.01-0.01L143.76,416.24z M158.55,392.83
			l-1.69-1.07l-0.01,0.01l-0.01,0.01L158.55,392.83z M164.3,383.79l1.69,1.07l0.06-0.09l0.05-0.09L164.3,383.79z M165.12,382.15
			l-1.72-1.01l-0.03,0.06l-0.03,0.06L165.12,382.15z M165.84,380.91l-1.69-1.07l-0.02,0.03l-0.02,0.03L165.84,380.91z M167.4,378.45
			l-1.27-1.55l-0.25,0.2l-0.17,0.27L167.4,378.45z M168.4,377.63l-0.35-1.97l-0.52,0.09l-0.41,0.33L168.4,377.63z M246.09,373.95
			l2-0.07l-0.05-1.46l-1.41-0.39L246.09,373.95z M246.03,333.68l0.63-1.9l-2.63-0.87v2.77H246.03z M269.29,341.39l-0.63,1.9
			l0.31,0.1h0.32V341.39z"/>
	</g>
	<path class="st3" d="M356.26,210.99l-36,81.18c-2.5-0.12-5.38,0.04-7.46,1.45c-1.7,1.16-2.4,3.01-2.31,4.99
		c0.12,2.6,2.44,3.55,4.87,4.61c-3.53-1.09-7.26-1.65-10.39,0.21c-2.37,1.42-3.94,4.5-2.84,7.04c1.08,2.56,4.45,3.82,7.66,5.3
		l-0.34,0.76c-3.76-0.82-9.43,1.18-9.63,5.33c-0.13,2.63,2.01,4.77,4.65,5.94l-1.05,2.34c-1.61,1.16-2.44,3.24-2.3,5.18l-7.43,16.76
		c-0.13-0.06-3.05-1.21-2.87-1.14c-88.9-35.36,9.21,3.67-47.43-18.86c-0.34-1.99,61.75-144.25,61.75-144.25
		C310.69,190.34,359.38,212.39,356.26,210.99L356.26,210.99z"/>
	<g>
		<defs>
			<path id="SVGID_00000111895715486017785780000017725401051018928023_" d="M356.26,210.99l-36,81.18
				c-2.5-0.12-5.38,0.04-7.46,1.45c-1.7,1.16-2.4,3.01-2.31,4.99c0.12,2.6,2.44,3.55,4.87,4.61c-3.53-1.09-7.26-1.65-10.39,0.21
				c-2.37,1.42-3.94,4.5-2.84,7.04c1.08,2.56,4.45,3.82,7.66,5.3l-0.34,0.76c-3.76-0.82-9.43,1.18-9.63,5.33
				c-0.13,2.63,2.01,4.77,4.65,5.94l-1.05,2.34c-1.61,1.16-2.44,3.24-2.3,5.18l-7.43,16.76c-0.13-0.06-3.05-1.21-2.87-1.14
				c-88.9-35.36,9.21,3.67-47.43-18.86c-0.34-1.99,61.75-144.25,61.75-144.25C310.69,190.34,359.38,212.39,356.26,210.99
				L356.26,210.99z"/>
		</defs>
		<clipPath id="SVGID_00000104676837868920653930000001375530777019879349_">
			<use xlink:href="#SVGID_00000111895715486017785780000017725401051018928023_"  style="overflow:visible;"/>
		</clipPath>
		<path style="clip-path:url(#SVGID_00000104676837868920653930000001375530777019879349_);" d="M354.26,210.98L354.26,210.98
			l4,0.01v-0.01H354.26z M304.33,189.65c2.77,1.25,16.32,7.4,28.8,13.05c6.24,2.83,12.21,5.53,16.42,7.44
			c2.11,0.95,3.78,1.71,4.82,2.18c0.52,0.24,0.89,0.4,1.08,0.49c0.05,0.02,0.08,0.04,0.11,0.05c0.02,0.01,0.04,0.02,0.04,0.02
			c-1-2.65,1.65-3.64,1.65-3.64c0,0,0,0,0,0c0,0,0,0-0.01,0c-0.01,0-0.01-0.01-0.03-0.01c-0.02-0.01-0.06-0.03-0.11-0.05l-1.65,3.64
			c0.05,0.02,0.08,0.04,0.11,0.05c0.01,0.01,0.02,0.01,0.03,0.01c0,0,0.01,0,0.01,0c0,0,0,0,0,0c0,0,2.65-1,1.65-3.64
			c0,0-0.05-0.02-0.14-0.07c-0.19-0.08-0.55-0.25-1.08-0.49c-1.04-0.47-2.71-1.23-4.82-2.18c-4.21-1.91-10.18-4.61-16.42-7.44
			c-12.48-5.65-26.03-11.79-28.8-13.05L304.33,189.65z M245.37,331.74c0.03,0.19,0.03,0.34,0.03,0.4c0,0.08-0.01,0.13-0.02,0.16
			c-0.01,0.06-0.02,0.08-0.01,0.07c0.01-0.03,0.03-0.11,0.08-0.26c0.09-0.28,0.25-0.71,0.46-1.27c0.43-1.13,1.07-2.74,1.9-4.77
			c1.66-4.07,4.05-9.78,6.94-16.58c5.77-13.61,13.5-31.57,21.24-49.48c7.74-17.9,15.49-35.75,21.3-49.11
			c2.91-6.68,5.33-12.25,7.03-16.14c0.85-1.95,1.52-3.48,1.97-4.52c0.23-0.52,0.4-0.92,0.52-1.19c0.06-0.13,0.1-0.24,0.13-0.3
			c0.01-0.03,0.03-0.06,0.03-0.08c0-0.01,0.01-0.02,0.01-0.02c0,0,0,0,0,0c0,0,0,0-1.83-0.8c-1.83-0.8-1.83-0.8-1.83-0.8
			c0,0,0,0,0,0c0,0,0,0.01-0.01,0.02c-0.01,0.02-0.02,0.04-0.03,0.08c-0.03,0.07-0.07,0.17-0.13,0.31
			c-0.12,0.27-0.29,0.67-0.52,1.19c-0.45,1.04-1.12,2.57-1.97,4.52c-1.7,3.89-4.12,9.46-7.03,16.14
			c-5.82,13.37-13.57,31.21-21.31,49.12c-7.74,17.91-15.47,35.88-21.25,49.5c-2.89,6.81-5.29,12.54-6.96,16.63
			c-0.83,2.04-1.49,3.69-1.94,4.87c-0.22,0.58-0.4,1.07-0.52,1.44c-0.06,0.18-0.12,0.37-0.16,0.53c-0.02,0.08-0.05,0.19-0.06,0.31
			c-0.01,0.06-0.06,0.36,0,0.71L245.37,331.74z M291.57,349.08c-22.23-8.84-32.76-13.03-36.95-14.7c-1.05-0.42-1.7-0.68-2.03-0.81
			c-0.17-0.07-0.26-0.1-0.28-0.11c0,0-0.01,0-0.01,0c-0.01,0-2.6,1.12-1.48,3.72c0,0,0,0,0.01,0c0,0,0.01,0,0.02,0.01
			c0.02,0.01,0.06,0.02,0.11,0.04c0.41,0.16,1.74,0.69,3.33,1.32c1.58,0.63,3.42,1.36,4.84,1.93c0.71,0.28,1.32,0.52,1.74,0.69
			c0.21,0.08,0.37,0.15,0.48,0.19c0.05,0.02,0.09,0.04,0.11,0.05c0.01,0,0.02,0.01,0.02,0.01c0,0,0,0,0,0
			c-0.01-0.01-1.11-2.6,1.47-3.72c0.01,0,0.02,0.01,0.01,0c-0.15-0.06-4.64-1.85-18.8-7.48l-1.48,3.72
			c14.16,5.63,18.65,7.42,18.81,7.48c0,0,0,0,0,0c0,0,0.01,0,0.02,0.01c2.57-1.12,1.48-3.71,1.47-3.72c0,0-0.01,0-0.01,0
			c-0.01,0-0.01-0.01-0.02-0.01c-0.02-0.01-0.06-0.02-0.11-0.05c-0.11-0.04-0.27-0.11-0.48-0.19c-0.42-0.17-1.03-0.41-1.74-0.69
			c-1.42-0.57-3.26-1.3-4.84-1.93c-1.58-0.63-2.92-1.16-3.33-1.32c-0.05-0.02-0.09-0.04-0.11-0.04c-0.01,0-0.02-0.01-0.02-0.01
			c0,0,0,0,0,0c1.11,2.59-1.48,3.72-1.48,3.72c0,0,0,0,0,0c0.02,0.01,0.11,0.04,0.28,0.11c0.34,0.13,0.99,0.39,2.03,0.81
			c4.19,1.67,14.73,5.86,36.95,14.7L291.57,349.08z M294.46,350.23c-0.08-0.03-0.87-0.35-1.57-0.63c-0.36-0.14-0.71-0.28-0.96-0.38
			c-0.12-0.05-0.22-0.09-0.29-0.11c-0.03-0.01-0.05-0.02-0.06-0.02c0,0,0,0,0,0c0,0,0.01,0,0.01,0c0,0,0.01,0,0.02,0.01
			c0.01,0,0.02,0.01,0.03,0.01c0.02,0.01,0.1,0.05,0.16,0.08c0.77,0.77,0.23,3.34-1.44,3.69c-0.07-0.02-0.17-0.05-0.19-0.05
			c-0.03-0.01-0.05-0.02-0.05-0.02c-0.01,0-0.02-0.01-0.02-0.01c0,0-0.01,0,0,0l1.46-3.72c0,0-0.01,0-0.02-0.01
			c0,0-0.01,0-0.02-0.01c0,0-0.02-0.01-0.05-0.02c-0.02-0.01-0.12-0.04-0.19-0.05c-1.66,0.35-2.21,2.92-1.44,3.69
			c0.06,0.03,0.14,0.07,0.16,0.08c0.01,0,0.03,0.01,0.03,0.01c0.01,0,0.02,0.01,0.02,0.01c0.01,0,0.01,0.01,0.02,0.01
			c0.01,0,0.01,0,0.01,0.01c0.01,0.01,0.04,0.02,0.07,0.03c0.06,0.03,0.16,0.06,0.29,0.11c0.25,0.1,0.6,0.24,0.96,0.38
			c0.36,0.14,0.73,0.29,1.02,0.41c0.14,0.06,0.27,0.11,0.36,0.14c0.05,0.02,0.08,0.03,0.11,0.04c0.03,0.01,0.04,0.02,0.04,0.02
			L294.46,350.23z M299.3,334.51l-7.42,16.76l3.66,1.62l7.42-16.76L299.3,334.51z M302.25,328.53c-2.25,1.62-3.31,4.41-3.12,6.95
			l3.99-0.29c-0.1-1.34,0.49-2.7,1.47-3.41L302.25,328.53z M302.65,326.99l-1.05,2.34l3.65,1.64l1.05-2.34L302.65,326.99z
			 M297.83,321.77c-0.19,3.87,2.92,6.57,5.84,7.86l1.62-3.66c-2.35-1.04-3.52-2.63-3.46-4.01L297.83,321.77z M309.88,314.59
			c-2.35-0.51-5.16-0.14-7.44,0.95c-2.28,1.09-4.46,3.15-4.61,6.24l4,0.19c0.05-1.06,0.8-2.08,2.34-2.82
			c1.54-0.74,3.45-0.96,4.86-0.65L309.88,314.59z M307.97,314.96l-0.34,0.76l3.65,1.64l0.34-0.76L307.97,314.96z M300.28,311.25
			c0.78,1.87,2.34,3.1,3.85,4c1.5,0.89,3.32,1.65,4.82,2.34l1.67-3.63c-1.71-0.79-3.19-1.4-4.45-2.15
			c-1.24-0.74-1.92-1.42-2.21-2.11L300.28,311.25z M303.95,301.72c-1.55,0.92-2.82,2.37-3.53,4.02c-0.72,1.65-0.94,3.65-0.12,5.53
			l3.67-1.59c-0.28-0.65-0.27-1.46,0.12-2.34c0.39-0.89,1.09-1.69,1.92-2.18L303.95,301.72z M315.96,301.32
			c-3.61-1.12-8.09-1.92-12.01,0.4l2.04,3.44c2.35-1.39,5.33-1.09,8.78-0.02L315.96,301.32z M308.5,298.7
			c0.09,2.01,1.09,3.4,2.34,4.37c1.14,0.88,2.59,1.49,3.73,1.98l1.6-3.67c-1.3-0.57-2.22-0.97-2.88-1.48
			c-0.54-0.42-0.77-0.81-0.79-1.39L308.5,298.7z M311.68,291.97c-2.39,1.63-3.29,4.21-3.18,6.73l4-0.18
			c-0.06-1.45,0.43-2.56,1.44-3.26L311.68,291.97z M320.36,290.17c-2.54-0.12-6.01-0.02-8.68,1.79l2.25,3.31
			c1.49-1.01,3.77-1.22,6.24-1.11L320.36,290.17z M354.44,210.18l-36,81.18l3.66,1.62l36-81.18L354.44,210.18z M356.26,210.98
			l0.83-1.82c-0.62-0.28-1.34-0.23-1.91,0.14s-0.92,1-0.92,1.68H356.26z M305.15,187.83l0.83-1.82c-0.49-0.22-1.04-0.24-1.54-0.05
			c-0.5,0.19-0.9,0.58-1.12,1.07L305.15,187.83z M243.4,332.08l-1.97,0.34c0.12,0.69,0.58,1.26,1.23,1.52L243.4,332.08z
			 M290.83,350.94l-0.73,1.86c1.03,0.4,2.18-0.1,2.59-1.13c0.4-1.03-0.1-2.18-1.12-2.59L290.83,350.94z M293.7,352.08l-0.76,1.85
			c1,0.41,2.15-0.05,2.59-1.04L293.7,352.08z M301.12,335.33l1.83,0.81c0.13-0.3,0.19-0.63,0.17-0.96L301.12,335.33z M303.42,330.15
			l1.17,1.62c0.29-0.21,0.51-0.48,0.66-0.8L303.42,330.15z M304.47,327.81l1.82,0.82c0.22-0.49,0.23-1.04,0.04-1.54
			c-0.19-0.5-0.57-0.9-1.06-1.11L304.47,327.81z M299.83,321.87l2,0.1l0,0L299.83,321.87z M309.45,316.54l-0.43,1.95
			c0.93,0.2,1.87-0.27,2.25-1.14L309.45,316.54z M309.79,315.78l1.83,0.82c0.45-1,0.01-2.18-0.99-2.63L309.79,315.78z
			 M302.13,310.48l1.84-0.77c0-0.01-0.01-0.02-0.01-0.02L302.13,310.48z M304.97,303.44l-1.02-1.72l0,0L304.97,303.44z
			 M315.36,303.23l-0.59,1.91c1.01,0.31,2.1-0.22,2.47-1.21c0.37-0.99-0.1-2.11-1.07-2.53L315.36,303.23z M310.5,298.61l-2,0.09l0,0
			L310.5,298.61z M312.81,293.62l-1.12-1.65l0,0L312.81,293.62z M320.26,292.17l-0.09,2c0.82,0.04,1.59-0.43,1.92-1.19
			L320.26,292.17z M356.26,210.99l1.83,0.81c0.11-0.26,0.17-0.53,0.17-0.81H356.26z"/>
	</g>
	<path class="st9" d="M246.03,368.18l-1.64-35.73l48.05,19.3l-28.34,23.41L246.03,368.18z M61.62,416.65l5.34-47.23l46.82-0.41
		l2.05,47.64H61.62z"/>
	<path class="st10" d="M144.17,414.18l23.41-37.38l11.91-2.05l-19.71,31.63c58.49-24.97,91.73-8.21,101.04,3.29l2.88-1.64
		c12.16-23,60.65-13.96,83.38-6.57l-12.32-25.88l13.96,1.64l29.16,39.02h-26.7c-39.76-17.41-64.21-7.26-71.47,0l-17.66-6.16
		l-18.89,6.16c-14.13-15.44-46.14-6.43-60.38,0L145.81,415L144.17,414.18z"/>
	<path class="st11" d="M159.78,406.79l20.13-32.04l39.84-3.29c28.91-2.63,41.07,9.31,43.54,15.61c5.34-6.98,22.59-14.79,32.04-14.79
		c7.56,0,38.47,3.01,52.98,4.52l28.75,39.02c-32.45-17.66-45.59-19.3-74.75-21.77c-23.33-1.97-36.55,10.13-40.25,16.43l-8.63-6.16
		c-27.52-16.43-49.29-9.45-52.16-10.27C198.96,393.4,172.65,402.27,159.78,406.79z"/>
	<path class="st12" d="M167.99,377.71c0.13-0.02,2.87-0.59,9.86-1.67c-21.78,34.74-18.27,28.01-19.25,30.29
		c-6.56,3.94-8.98,5.69-12.6,7.4L167.99,377.71L167.99,377.71z M279.44,376.93c13.63-5.37,29.3-2.96,45.97-1.29
		c5.63,0.57,4.06,0.42,8.61,0.86l11.56,23.87c-12.56-3.91-64.93-18.38-81.9,6.36l0.32-19.23
		C265.42,386.28,268.85,380.97,279.44,376.93L279.44,376.93z M347.31,377.96c0.38,0.11,0.69,0.26,0.98,0.47l26.43,35.15
		l-26.59-12.34l-11.76-24.27L347.31,377.96L347.31,377.96z M227.88,372.37c2.85-0.13,11.08,0.67,17.29,2.32l0.52,15.11
		c-2.83-0.43-5.11-3.13-6.96-5.36c-2.13-2.57-5.42-5.92-9.46-5.37c-2.31,0.32-4.07,1.79-5.77,3.22c-8.83,7.42-8.11-2.64-13.76-3.33
		c-3.02-0.36-5.06,2.41-7.07,3.93c-3.41,2.59-8.79,1.96-11.52-1.35c-0.33-0.4-0.93-0.46-1.34-0.13s-0.46,0.93-0.13,1.34
		c3.34,4.05,9.94,4.82,14.12,1.65c1.96-1.48,3.69-3.82,5.69-3.56c2.53,0.31,3.68,4.51,6.84,5.73c2.18,0.84,4.78,0.1,7.54-2.15
		c1.8-1.46,3.51-3.2,5.63-3.48c3.1-0.41,5.91,2.49,7.74,4.7c2.11,2.54,4.99,6.02,8.98,6.13h0.02c0.49,0,0.89-0.38,0.93-0.86
		c0.23-0.17,7.96-6.82,10.96-9.4c1.47,1.37,2.76,2.93,3.81,4.73c-0.47,20.08-0.53,18.42-0.44,20.34c0.03,0.66,0.08,1.73-0.07,2.1
		c-2.01-0.27-6.86-5.21-10-7.01c-11.95-6.87-26.1-9.7-39.62-9.35c-17.98,0.5-33.58,6.44-50.44,12.81
		c15.1-22.79-0.76,1.91,18.85-29.39c13.88-2.45,39.53-4,47.61-3.37H227.88z M160.06,407.68c17.32-6.54,33.48-12.94,51.85-13.45
		c13.2-0.36,27.04,2.44,38.62,9.1c3.18,1.83,6.07,5.26,9.56,6.87l-16.69,5.22c-2.41-3.37-15.59-17.06-62.13-0.32l-33.21-0.27
		C151.47,413.08,153.29,411.72,160.06,407.68L160.06,407.68z M351.21,415.09c-10.77-4.46-17.57-7.07-30.23-8.65
		c-18.5-2.32-32.26,1.84-41.91,8.93l-15.16-5.34c12.65-23.3,57.94-15.34,83.12-7.21l26.44,12.27H351.21L351.21,415.09z
		 M378.52,415.49c0,0,0-0.02-0.01-0.02c-20.04-27.21-26.72-35.87-26.96-36.2c-1.33-1.77-2.4-3.23-5.46-3.44
		c-1-0.12-4.68-0.48-20.48-2.07c-15.95-1.61-32.75-4.15-46.85,1.41c-7.38,2.83-11.04,5.64-14.93,9.77
		c-0.82-1.06-1.11-2.61-3.74-5.07l33.58-28.11l-2.46-0.82c-9.05,7.77-16.46,13.85-27.12,23.01c-5.59-2.29-12.14-4.95-17.29-6.97
		l-1.18-34l-1.92-0.76l1.39,40.38c-6.98-1.94-13.57-2.14-16.1-2.13c-21.97-1.11-39.67,1.64-61.74,5.47
		c-0.82,0.13,0.78-1.67-24.18,38.96l-26.5,0.13V387l10.1-16.18c0.37-0.59-0.01-1.37-0.7-1.45c-9.93-1.04-10.64-0.4-10.94-0.13
		c-0.03,0.02-0.05,0.07-0.07,0.1c-0.09,0-0.19,0-0.28-0.02v45.68l-35.5,0.17H62.75c0.86-9.48-2.19,24.03,4.16-45.67
		c-0.63,0.05-1.27,0.09-1.9,0.13l-4.23,46.4c-0.02,0.27,0.06,0.52,0.24,0.72c0.15,0.16,0.35,0.25,0.56,0.28
		c0.13,0.07,0.28,0.12,0.44,0.12l18.22-0.09h35.36c0.2,0,0.37-0.07,0.52-0.17c46.24-0.23,126.64,0.57,126.76,0.57
		c14.41,3.37,28.93,2.45,37.76-0.49h97.09C378.39,416.98,378.92,416.37,378.52,415.49L378.52,415.49z"/>
	<path class="st13" d="M150.33,293.02c-1.31-2.3-2.46-4.24-2.88-4.93l-0.41-1.23l8.21-50.93l-2.88,0.82
		c-12.81,0.99-16.02-7.53-16.02-11.91c-0.27-1.78,0.49-5.83,5.75-7.8c5.26-1.97,10.4,4.11,12.32,7.39c0.99,0.99,2.88-0.14,3.7-0.82
		c5.59-6.57,3.15-15.61,1.23-19.3c8.21,3.29,14.79-3.7,12.73-9.86c-1.64-4.93,2.05-9.45,4.11-11.09l0.82,1.64
		c0.68-3.15,1.73-7.56,0.41,0s5.2,6.98,8.63,5.75c18.07-3.29,14.79,12.32,20.13,11.5c4.27-0.66,10.82,1.64,13.55,2.88l2.88,8.63
		l-2.88,26.7c-0.14,3.15-1.97,11.83-8.21,21.36c-6.24,9.53-16.02,11.36-20.13,11.09c-0.55,3.56-1.73,11.01-2.05,12.32
		c-0.41,1.64,0.41-0.82-3.29,6.57c-2.96,5.91-8.35,9.04-10.68,9.86c-4.93,2.63-11.64,1.37-14.38,0.41
		C157.72,301.65,151.97,295.9,150.33,293.02z"/>
	<path d="M177.72,210.79c-0.32,0.41-0.26,1.01,0.14,1.33c0.41,0.32,1.01,0.26,1.33-0.15c2.5-3.12,7.2-2.99,9.59,0.01
		c0.32,0.41,0.92,0.47,1.33,0.15s0.47-0.93,0.15-1.33c-3.18-3.99-9.31-4.06-12.55-0.02L177.72,210.79z"/>
	<ellipse transform="matrix(0.2298 -0.9732 0.9732 0.2298 -65.9179 346.6769)" cx="186.06" cy="214.98" rx="2.88" ry="2.88"/>
	<ellipse transform="matrix(0.2298 -0.9732 0.9732 0.2298 -52.0668 377.3216)" cx="212.35" cy="221.56" rx="2.88" ry="2.88"/>
	<path d="M217.17,220.02c0.49,0,0.91-0.38,0.94-0.89c0.18-2.65-1.38-5.3-3.78-6.44c-2.41-1.14-5.44-0.66-7.38,1.17
		c-0.38,0.36-0.4,0.96-0.04,1.34s0.96,0.4,1.34,0.04c1.36-1.28,3.58-1.64,5.26-0.84c1.69,0.8,2.83,2.73,2.7,4.6
		C216.17,219.53,216.6,220.01,217.17,220.02L217.17,220.02z"/>
	<path d="M144.3,224.28c-0.01-0.51-0.43-0.93-0.95-0.93h-0.02c-0.52,0.01-0.94,0.44-0.93,0.97c0.04,2.14,1.36,4.2,3.29,5.11
		c1.15,0.55,1.93-1.18,0.82-1.71C145.24,227.1,144.33,225.69,144.3,224.28L144.3,224.28z"/>
	<path d="M180.39,239.32c-1.7,2.97-0.9,7.1,1.78,9.21c2.68,2.11,6.89,1.93,9.37-0.43c0.38-0.36,0.4-0.96,0.04-1.34
		s-0.96-0.4-1.34-0.04c-1.8,1.7-4.96,1.84-6.89,0.32s-2.54-4.63-1.31-6.78c0.26-0.45,0.1-1.04-0.35-1.3
		C181.24,238.71,180.65,238.87,180.39,239.32L180.39,239.32z"/>
	<path d="M191.44,232.03c-0.43-0.3-1.01-0.21-1.32,0.22c-0.3,0.43-0.21,1.02,0.22,1.32c2.68,1.92,6.29,2.46,9.4,1.45
		c0.49-0.16,0.76-0.68,0.62-1.17c-1.41-4.69-1.07-9.93,0.95-14.39c0.21-0.47,0-1.04-0.47-1.25c-0.47-0.21-1.04,0-1.25,0.47
		c-2.07,4.58-2.53,9.9-1.3,14.78c-2.34,0.48-4.89-0.03-6.84-1.42L191.44,232.03z"/>
	<path d="M196.39,167.8c3.54-2.06,8.18-2.2,11.82-0.36c3.65,1.84,6.29,5.66,6.72,9.72c0.05,0.53-0.33,0.99-0.85,1.05h-0.1
		c-0.48,0-0.89-0.36-0.93-0.85c-0.38-3.44-2.6-6.67-5.7-8.22c-3.09-1.57-7.01-1.46-10,0.29c-0.45,0.27-1.04,0.11-1.3-0.34
		C195.78,168.66,195.95,168.08,196.39,167.8L196.39,167.8z M121.21,227.16c2.1,1.25-0.43,4.11-1.65,6.22
		c-1.21,2.11-3.2,3.65-4.84,5.46c-11.23,12.32-4.5,34.72,11.74,27.9c3.28-1.38,6.08-3.64,8.85-5.89c0.21-2.02,2.33-1.67,4.03-0.55
		c1.71,1.11,2.53,3.13,3.59,4.88c1.33,2.21,3.52,4.02,5.83,2.91c-1.5,9.03-2.86,17.8-3.59,23.81c-0.06,0.52,0.31,0.99,0.83,1.05
		c0.51,0.06,0.99-0.3,1.05-0.83c1.62-13.47,6.6-41.8,9.25-55.9c0.18-0.96-1.45-2.12-4.13-0.68c-4.75,0.38-7.5-0.56-11.47-3.22
		c-7.96-7.01-1.99-19.05,8.6-12.82c1.84,1.53,3.4,3.62,4.59,5.56c0.16,0.25,3.55,2.06,5.94-2.15c3.05-5.3,3.32-12.11,0.7-17.63
		c5.45,2.33,12.32-1.44,12.63-7.95c0.11-2.21-0.61-4.41-0.53-6.63s1.82-5.75,4.03-5.97c-1.94,2.51-0.3,8.34,7.76,7.77
		c3.86-0.28,9.88-2.21,13.3,1.42c2.37,2.54,2.15,6.95,4.94,9.02c2.4,1.77,5.75,0.89,8.73,1.08c4.88,0.31,7.79,2.81,9.44,6.44
		c0.64,13.93-0.24,18.13-0.25,18.45c-2,14.3-4.49,32.09-18.39,39.75c-13.45,7.41-28.58,1.28-37.61-8.07
		c-0.36-0.38-0.97-0.39-1.34-0.02c-0.38,0.36-0.39,0.97-0.02,1.34c6.73,6.97,16.69,12.21,27,11.94l-1.34,15.46
		c-0.05,0.55,0.38,1.03,0.94,1.03c0.48,0,0.9-0.37,0.94-0.86l1.36-15.73c3.92-0.37,7.65-1.52,11.42-3.68
		c-0.02,0.94,0.46,2.02,1.68,3.32c10.3,11,27.78,4.18,29.61-9.45c0.4-2.94-0.34-4.53-0.39-7.5c5.74-1.2,11.67-2.49,16.39-5.95
		s7.91-9.76,5.94-15.28c-1.65-4.65-6.29-7.44-10.68-9.7c-2.99-1.54-5.4-4.7-6.06-8c-0.67-3.32,0.87-6.63,1.74-9.89
		c3.82-14.38-6.59-29-14.6-26.08c-2.43-3.87-2.69-8.3-4.7-12.41c-3.03-6.23-9.48-10.65-16.38-11.25
		c-7.05-0.62-14.71,7.94-20.11,3.65c-1.74-1.39-3.15-3.18-4.98-4.43c-5.08-3.46-12.32-1.82-17.01,2.14
		c-4.2,3.54-6.94,13.39-13.01,13.9c-2.03,0.17-4.08-0.42-6.13-0.25c-4.55,0.34-8.11,4.4-9.38,8.79s-0.72,9.06-0.15,13.58
		c0.32,2.63-3.88,1.92-6.25,3.09c-2.37,1.16-5,1.8-7.31,3.06c-4.58,2.49-7.65,7.54-7.75,12.73c-0.1,5.21,2.75,10.36,7.22,13.05
		H121.21z"/>
	<path d="M356.58,174.13c-9.32-11.92-29.56-11.93-40.32-1.86c-4.66,4.37-8.29,10.64-11.5,16.02l50.95,22.47
		C362.26,200.08,364.53,184.29,356.58,174.13z"/>
	<path d="M269.28,318.16c0.23-0.2,0.78-0.65,43.22-100.17c0.21-0.48-0.02-1.04-0.5-1.24c-0.48-0.21-1.04,0.02-1.24,0.5
		c-14.29,33.5-41.54,97.23-42.86,99.64C267.27,317.78,268.45,318.87,269.28,318.16L269.28,318.16z"/>
	<path d="M329.29,221.84c-0.48-0.21-1.04,0.02-1.24,0.5c-14.29,33.5-41.54,97.23-42.86,99.64c-0.64,0.9,0.54,1.99,1.39,1.27
		c0.23-0.2,0.78-0.65,43.22-100.17C330,222.6,329.78,222.05,329.29,221.84L329.29,221.84z"/>
	<path class="st9" d="M310.55,298.5l2,3.5l0,1h-5.5c-0.83,0-2.9,0.9-4.5,4.5c-1.6,3.6,4.67,7.17,8,8.5c-4-0.4-7.33,1.5-8.5,2.5
		c-0.67,0.5-1.9,2.1-1.5,4.5s4.17,4.67,6,5.5l0.5,1l-3,0.5c-0.67,0.33-2.1,1.7-2.5,4.5s3.5,5.83,5.5,7l13,4
		c-0.83-0.33-1.9-0.8,0.5,0s5.67-0.33,7-1c0.5-0.67,1.6-2.2,2-3s0.17-2.67,0-3.5l-1-2l1.5-0.5c0.67-0.5,2.2-1.7,3-2.5
		s0.67-3.33,0.5-4.5l-1-3l-1.5-2c0.33-0.17,1.5-0.7,3.5-1.5s2.83-3.67,3-5l-0.5-2.5l-3-4.5l2-0.5l2-1.5l2-2.5l0.5-2.5v-2.5l-1-2
		l-3.5-2l-5-1.5l-7.5-2l-6.5-0.5l-3,0.5l-2.5,1.5L310.55,298.5z"/>
	<path class="st12" d="M334.29,309.23c-0.13,0.02-0.21,0.02-0.35,0.08c-6.38-2.29-12.63-4.47-18.2-6.95c-2.06-0.9-4.2-1.73-4.3-3.78
		c-0.18-4.26,3.38-5.49,7.64-5.49c2.92,0,5.67,0.68,8.53,1.5c3.55,1.04,6.2,1.81,9.67,2.99c2.51,0.87,3.47,4.08,2.79,6.52
		C339.29,306.82,336.84,308.83,334.29,309.23L334.29,309.23z M336.91,317.94c-0.49,2.49-2.79,4.53-5.62,4.96
		c-0.1,0.02-0.2,0.05-0.28,0.1c-8.15-2.98-12.32-3.89-23.71-9.43c-1.8-0.85-3.61-1.83-4.31-3.47c-0.93-2.15,0.55-4.71,2.45-5.85
		c2.37-1.41,5.34-1.45,9.56-0.15c2.76,1.09,0.88,0.74,18.35,7.01c0.21,0.08,0.44,0.07,0.63,0
		C336.18,312.53,337.4,315.36,336.91,317.94L336.91,317.94z M333.28,330.66c-0.29,2.07-1.7,3.9-3.6,4.77
		c-9.32-3.25-22.3-7.27-24.82-8.49c-4.52-2-5.03-5.62-2.73-7.7c1.58-1.42,4.61-2.3,7.17-1.77c2.29,0.4,20.41,7.45,21.74,7.55
		c0.15,0.06,0.31,0.11,0.46,0.17C332.81,326.63,333.54,328.84,333.28,330.66z M327.77,343.61c-2.81,2.88-7.27,1.53-11.22,0.32
		c-6.05-1.72-15.65-3.96-14.38-10.14c0.45-2.15,2.17-3.79,4.39-3.51c2.59,0.31,4.83,1.03,5.09,1.1c3.76,1.29,12,3.94,17.44,5.84
		C329.87,339.36,329.36,341.97,327.77,343.61L327.77,343.61z M341.88,304.62c0.91-3.26-0.36-7.57-4-8.82
		c-3.5-1.2-6.14-1.96-9.74-3.02c-3.17-0.92-6.21-1.65-9.51-1.58c-6.75,0.13-9.26,3.41-9.08,7.46c0.05,1.11,0.44,1.97,0.99,2.65
		c-2.01-0.11-4.12,0.17-6.05,1.31c-2.65,1.58-4.58,5.09-3.23,8.22c1,2.37,3.37,3.53,5.63,4.61c-8.77,0.7-11.29,9.25-2.7,13.25
		c-2.11,0.77-3.43,2.61-3.87,4.7c-1.42,6.96,6.63,9.75,13.39,11.66c5.43,1.54,11.42,3.97,15.43-0.14c2.04-2.09,2.75-5.29,1.88-8.04
		c4.3-2.37,5.72-8.03,2.34-12.44c0-0.04-0.01-0.08-0.02-0.12c2.78-1.01,4.92-3.31,5.45-6.02c0.53-2.74-0.46-5.72-2.41-7.69
		C338.99,309.6,341.13,307.34,341.88,304.62L341.88,304.62z"/>
	<path class="st3" d="M64.19,70.88c-0.86,1.28-1.37,2.69-1.37,4.18c0,5.67,6.93,10.26,15.49,10.26c10.76,0,18.88-7.41,14.12-14.45
		L64.19,70.88L64.19,70.88z"/>
	<path d="M81.69,84.46c9.07,0,16.44-5.03,16.44-11.2c0-0.82-0.13-1.62-0.4-2.38h-1.94c0,0.11,0.02,0.23,0.06,0.34
		c0.25,0.66,0.38,1.35,0.38,2.04c0,5.12-6.53,9.31-14.55,9.31c-9.13,0-16.36-5.53-14.15-11.37c0.04-0.1,0.05-0.21,0.05-0.33h-1.94
		c-0.25,0.78-0.38,1.58-0.38,2.38C65.26,79.43,72.63,84.45,81.69,84.46L81.69,84.46z"/>
	<path d="M66.43,96.98l6.63-8.7c0.32-0.42,0.24-1.01-0.18-1.33c-0.42-0.32-1.01-0.24-1.33,0.18l-6.63,8.7
		c-0.32,0.42-0.24,1.01,0.18,1.33C65.52,97.48,66.11,97.4,66.43,96.98z"/>
	<path d="M82.93,89.74c-0.52,0.03-0.92,0.48-0.89,1.01l0.73,11.54c0.03,0.5,0.45,0.89,0.94,0.89c0.55,0,0.98-0.47,0.95-1.01
		l-0.73-11.54C83.9,90.11,83.45,89.72,82.93,89.74z"/>
	<path d="M93.74,86.11c-0.33-0.4-0.93-0.46-1.34-0.13c-0.4,0.33-0.46,0.93-0.13,1.34c2.37,2.88,5.45,5.11,8.93,6.46
		c0.49,0.19,1.04-0.06,1.23-0.54c0.19-0.49-0.06-1.04-0.54-1.23C98.72,90.78,95.9,88.74,93.74,86.11L93.74,86.11z"/>
	<path d="M81.56,32.36L81.04,0.93C81.02,0.4,80.61,0,80.09,0h-0.02c-0.52,0-0.94,0.43-0.94,0.97l0.53,31.43
		C80.29,32.38,80.92,32.35,81.56,32.36L81.56,32.36z"/>
	<path class="st14" d="M121.77,62.23c0,3.01-0.61,5.9-1.71,8.64H43.75c-1.1-2.74-1.71-5.64-1.71-8.64
		c0-18.32,21.06-30.25,39.52-29.87c0.11-0.02,0.24-0.02,0.36-0.02C103.92,32.34,121.77,45.73,121.77,62.23z"/>
	<g>
		<defs>
			<path id="SVGID_00000034807559835367098650000007834245638304104086_" d="M121.77,62.23c0,3.01-0.61,5.9-1.71,8.64H43.75
				c-1.1-2.74-1.71-5.64-1.71-8.64c0-18.32,21.06-30.25,39.52-29.87c0.11-0.02,0.24-0.02,0.36-0.02
				C103.92,32.34,121.77,45.73,121.77,62.23z"/>
		</defs>
		<clipPath id="SVGID_00000094579941626561298440000004687043256394903699_">
			<use xlink:href="#SVGID_00000034807559835367098650000007834245638304104086_"  style="overflow:visible;"/>
		</clipPath>
		<path style="clip-path:url(#SVGID_00000094579941626561298440000004687043256394903699_);" d="M81.92,34.34
			c10.61,0,20.15,3.23,26.98,8.36c6.83,5.13,10.88,12.05,10.88,19.53h4c0-9.02-4.88-17.04-12.48-22.73
			c-7.59-5.69-17.99-9.16-29.38-9.16V34.34z M81.84,34.34c-0.02,0-0.04,0-0.05,0.01c-0.01,0-0.01,0,0,0
			C81.81,34.34,81.82,34.34,81.84,34.34c0.02,0,0.04,0,0.07,0v-4c-0.08,0-0.36,0-0.64,0.04L81.84,34.34z M44.05,62.23
			c0-8.31,4.77-15.33,11.97-20.3c7.22-4.98,16.68-7.75,25.5-7.58l0.08-4c-9.63-0.19-19.93,2.81-27.85,8.28
			c-7.94,5.48-13.7,13.59-13.7,23.59H44.05z M45.61,70.12c-1.01-2.52-1.57-5.17-1.57-7.89h-4c0,3.28,0.67,6.42,1.85,9.38
			L45.61,70.12z M120.06,68.87H43.75v4h76.31V68.87z M119.77,62.23c0,2.73-0.55,5.37-1.57,7.89l3.71,1.49
			c1.19-2.96,1.85-6.1,1.85-9.38H119.77z M81.56,32.36l-0.04,2l0.16,0l0.16-0.02L81.56,32.36z M43.75,70.87l-1.86,0.75l0.5,1.25
			h1.35V70.87z M120.06,70.87v2h1.35l0.5-1.25L120.06,70.87z"/>
	</g>
	<path d="M348.61,108.02c0.28-0.13,0.54-0.29,0.79-0.5l0.77,0.92c-0.34,0.28-0.69,0.49-1.04,0.66L348.61,108.02z M345.6,108.7
		c0.19-0.03,0.37-0.06,0.55-0.08c0.18-0.03,0.36-0.05,0.53-0.08l0.19,1.19c-0.18,0.03-0.36,0.06-0.54,0.08
		c-0.18,0.03-0.36,0.05-0.54,0.08L345.6,108.7z M341.63,109.51c1.31-0.32,2.63-0.59,3.96-0.81l0.19,1.18
		c-1.3,0.21-2.59,0.47-3.87,0.79L341.63,109.51z M330.17,113.21c1.25-0.46,2.5-0.92,3.77-1.36l0.4,1.13
		c-1.26,0.44-2.5,0.9-3.75,1.35L330.17,113.21z M327.32,114.32c0.94-0.38,1.89-0.75,2.85-1.11l0.41,1.13
		c-0.95,0.35-1.89,0.71-2.82,1.09L327.32,114.32z M316.36,119.78c1.74-1.05,3.53-2.03,5.37-2.94l0.53,1.07
		c-1.81,0.9-3.58,1.87-5.29,2.9L316.36,119.78z M306.45,126.98c1.54-1.34,3.14-2.62,4.8-3.82l0.7,0.97
		c-1.63,1.18-3.2,2.43-4.71,3.75L306.45,126.98z M298,135.85c1.28-1.62,2.62-3.16,4.02-4.63l0.87,0.83
		c-1.38,1.44-2.69,2.96-3.95,4.55L298,135.85z M292.79,143.44c0.52-0.89,1.06-1.75,1.62-2.6l1,0.66c-0.55,0.84-1.08,1.69-1.59,2.56
		L292.79,143.44z M291.47,145.83c0.44-0.84,0.88-1.64,1.33-2.39l1.03,0.61c-0.43,0.73-0.87,1.51-1.29,2.33L291.47,145.83z
		 M287.42,155.98c0.52-1.78,1.12-3.52,1.78-5.17l1.11,0.44c-0.65,1.62-1.24,3.32-1.74,5.06L287.42,155.98z M285.61,166.78
		c0.05-1.81,0.25-3.64,0.57-5.46l1.18,0.2c-0.31,1.77-0.5,3.55-0.55,5.3L285.61,166.78z M287.49,177.62
		c-0.75-1.68-1.25-3.48-1.55-5.33l1.18-0.19c0.29,1.77,0.76,3.46,1.46,5.03L287.49,177.62z M292.57,184.22
		c-0.75-0.6-1.43-1.24-2.04-1.92l0.89-0.81c0.57,0.63,1.2,1.23,1.9,1.79L292.57,184.22z M295.21,186.07
		c-0.87-0.51-1.75-1.12-2.64-1.84l0.75-0.94c0.86,0.69,1.69,1.27,2.51,1.75L295.21,186.07z M307.71,186.43
		c-1.95,1.16-4.05,1.78-6.32,1.66l0.06-1.2c1.99,0.1,3.86-0.44,5.64-1.5L307.71,186.43z M314.52,179.67
		c-0.64,0.89-1.29,1.74-1.96,2.52l-0.91-0.78c0.65-0.75,1.28-1.56,1.9-2.43L314.52,179.67z M315.86,177.33
		c-0.34,0.77-0.78,1.55-1.34,2.34l-0.98-0.7c0.52-0.73,0.92-1.43,1.22-2.12L315.86,177.33z M313.98,167.18
		c1.24,1.44,2.14,3.03,2.5,4.77l-1.17,0.25c-0.31-1.49-1.1-2.91-2.24-4.23L313.98,167.18z M307.74,162.35
		c0.78,0.43,1.53,0.88,2.24,1.37l-0.67,0.99c-0.68-0.46-1.4-0.9-2.15-1.31L307.74,162.35z M303.82,160.49
		c1.22,0.46,2.51,1.08,3.92,1.86l-0.58,1.05c-1.38-0.76-2.61-1.35-3.77-1.79L303.82,160.49z M290.92,160.53
		c1.54-0.41,2.93-0.73,4.22-0.92l0.18,1.19c-1.24,0.19-2.58,0.49-4.1,0.9L290.92,160.53z M287.71,161.39
		c1.1-0.29,2.17-0.58,3.21-0.86l0.31,1.16c-1.04,0.28-2.11,0.56-3.21,0.86L287.71,161.39z M274.93,165.23
		c2.15-0.76,4.28-1.43,6.36-2.05l0.34,1.15c-2.07,0.61-4.18,1.28-6.3,2.03L274.93,165.23z M262.69,170.65
		c1.97-1.1,3.99-2.08,6.01-2.97l0.48,1.1c-2,0.87-3.97,1.84-5.91,2.92L262.69,170.65z M251.84,178.55c1.65-1.57,3.38-3,5.18-4.3
		l0.7,0.97c-1.76,1.27-3.45,2.66-5.05,4.19L251.84,178.55z M245.35,186.28c0.63-0.95,1.29-1.86,1.97-2.74l0.95,0.74
		c-0.66,0.85-1.3,1.74-1.92,2.66L245.35,186.28z M243.9,188.65c0.46-0.81,0.94-1.6,1.44-2.37l1,0.66c-0.49,0.74-0.95,1.5-1.4,2.29
		L243.9,188.65z M239.62,198.8c0.55-1.76,1.18-3.5,1.88-5.18l1.11,0.46c-0.69,1.65-1.3,3.35-1.84,5.08L239.62,198.8z M237.09,209.5
		c0.29-1.76,0.65-3.57,1.08-5.39l1.17,0.27c-0.42,1.79-0.77,3.57-1.06,5.31L237.09,209.5z M235.98,220.44
		c0.05-1.68,0.18-3.53,0.38-5.49l1.19,0.12c-0.2,1.93-0.32,3.75-0.37,5.4L235.98,220.44z M236.61,228.79
		c-0.24-0.66-0.41-1.63-0.52-2.82l1.19-0.11c0.11,1.16,0.27,2.01,0.45,2.53L236.61,228.79z M349.13,109.1
		c-0.3,0.14-0.66,0.01-0.8-0.28c-0.14-0.3-0.01-0.66,0.28-0.8L349.13,109.1z M346.68,108.54c0.33-0.05,0.63,0.17,0.69,0.5
		s-0.17,0.63-0.5,0.69L346.68,108.54z M341.92,110.68c-0.32,0.08-0.65-0.12-0.73-0.44c-0.08-0.32,0.12-0.65,0.44-0.73L341.92,110.68
		z M333.94,111.85c0.31-0.11,0.66,0.06,0.76,0.37c0.11,0.31-0.06,0.66-0.37,0.76L333.94,111.85z M327.77,115.43
		c-0.31,0.13-0.66-0.02-0.78-0.33c-0.13-0.31,0.02-0.66,0.33-0.78L327.77,115.43z M321.74,116.84c0.3-0.15,0.66-0.03,0.8,0.27
		c0.15,0.3,0.03,0.66-0.27,0.8L321.74,116.84z M316.98,120.81c-0.28,0.17-0.65,0.08-0.82-0.2c-0.17-0.28-0.08-0.65,0.2-0.82
		L316.98,120.81z M311.25,123.17c0.27-0.19,0.64-0.13,0.84,0.13c0.19,0.27,0.13,0.64-0.13,0.84L311.25,123.17z M307.24,127.89
		c-0.25,0.22-0.63,0.19-0.85-0.06c-0.22-0.25-0.19-0.63,0.06-0.85L307.24,127.89z M302.02,131.22c0.23-0.24,0.61-0.25,0.85-0.02
		c0.24,0.23,0.25,0.61,0.02,0.85L302.02,131.22z M298.94,136.6c-0.21,0.26-0.58,0.3-0.84,0.1c-0.26-0.21-0.3-0.58-0.1-0.84
		L298.94,136.6z M294.41,140.83c0.18-0.28,0.55-0.36,0.83-0.17c0.28,0.18,0.36,0.55,0.17,0.83L294.41,140.83z M292.53,146.38
		c-0.15,0.29-0.51,0.41-0.81,0.26c-0.29-0.15-0.41-0.51-0.26-0.81L292.53,146.38z M289.2,150.81c0.12-0.31,0.47-0.46,0.78-0.33
		c0.31,0.12,0.46,0.47,0.33,0.78L289.2,150.81z M288.57,156.32c-0.09,0.32-0.43,0.5-0.74,0.41s-0.5-0.43-0.41-0.74L288.57,156.32z
		 M286.18,161.32c0.06-0.33,0.37-0.55,0.69-0.49c0.33,0.06,0.55,0.37,0.49,0.69L286.18,161.32z M286.81,166.82
		c-0.01,0.33-0.29,0.59-0.62,0.58s-0.59-0.29-0.58-0.62L286.81,166.82z M285.94,172.29c-0.05-0.33,0.17-0.64,0.5-0.69
		c0.33-0.05,0.64,0.17,0.69,0.5L285.94,172.29z M288.59,177.13c0.13,0.3,0,0.66-0.3,0.79c-0.3,0.13-0.66,0-0.79-0.3L288.59,177.13z
		 M290.53,182.31c-0.22-0.25-0.2-0.63,0.04-0.85c0.25-0.22,0.62-0.2,0.85,0.04L290.53,182.31z M295.82,185.03
		c0.29,0.17,0.38,0.54,0.21,0.82s-0.54,0.38-0.82,0.21L295.82,185.03z M301.39,188.09c-0.33-0.02-0.59-0.3-0.57-0.63
		c0.02-0.33,0.3-0.59,0.63-0.57L301.39,188.09z M307.09,185.4c0.28-0.17,0.65-0.08,0.82,0.21s0.08,0.65-0.21,0.82L307.09,185.4z
		 M312.56,182.19c-0.22,0.25-0.59,0.28-0.85,0.06s-0.28-0.59-0.06-0.85L312.56,182.19z M314.76,176.85c0.13-0.3,0.49-0.44,0.79-0.31
		s0.44,0.49,0.31,0.79L314.76,176.85z M316.48,171.95c0.07,0.32-0.14,0.64-0.46,0.71c-0.32,0.07-0.64-0.14-0.71-0.46L316.48,171.95z
		 M313.07,167.96c-0.22-0.25-0.19-0.63,0.06-0.85c0.25-0.22,0.63-0.19,0.85,0.06L313.07,167.96z M309.98,163.72
		c0.27,0.19,0.35,0.56,0.16,0.83c-0.19,0.27-0.56,0.35-0.83,0.16L309.98,163.72z M303.39,161.61c-0.31-0.12-0.47-0.46-0.35-0.77
		c0.12-0.31,0.46-0.47,0.77-0.35L303.39,161.61z M295.15,159.61c0.33-0.05,0.63,0.18,0.68,0.5c0.05,0.33-0.18,0.63-0.5,0.68
		L295.15,159.61z M288.02,162.55c-0.32,0.09-0.65-0.1-0.73-0.42s0.1-0.65,0.42-0.73L288.02,162.55z M281.29,163.18
		c0.32-0.09,0.65,0.09,0.75,0.4c0.09,0.32-0.09,0.65-0.4,0.75L281.29,163.18z M275.33,166.37c-0.31,0.11-0.66-0.05-0.77-0.37
		s0.05-0.66,0.37-0.77L275.33,166.37z M268.7,167.68c0.3-0.13,0.66,0.01,0.79,0.31c0.13,0.3-0.01,0.66-0.31,0.79L268.7,167.68z
		 M263.27,171.7c-0.29,0.16-0.65,0.06-0.82-0.23c-0.16-0.29-0.06-0.65,0.23-0.82L263.27,171.7z M257.01,174.26
		c0.27-0.19,0.64-0.13,0.84,0.13s0.13,0.64-0.13,0.84L257.01,174.26z M252.66,179.42c-0.24,0.23-0.62,0.22-0.85-0.02
		c-0.23-0.24-0.22-0.62,0.02-0.85L252.66,179.42z M247.32,183.54c0.2-0.26,0.58-0.31,0.84-0.11c0.26,0.2,0.31,0.58,0.11,0.84
		L247.32,183.54z M244.95,189.23c-0.16,0.29-0.53,0.39-0.82,0.23c-0.29-0.16-0.39-0.53-0.23-0.82L244.95,189.23z M241.49,193.62
		c0.13-0.31,0.48-0.45,0.78-0.32s0.45,0.48,0.32,0.78L241.49,193.62z M240.76,199.16c-0.1,0.32-0.44,0.49-0.75,0.39
		c-0.32-0.1-0.49-0.44-0.39-0.75L240.76,199.16z M238.17,204.11c0.08-0.32,0.4-0.52,0.72-0.45c0.32,0.08,0.52,0.4,0.45,0.72
		L238.17,204.11z M238.28,209.7c-0.05,0.33-0.36,0.55-0.69,0.49c-0.33-0.05-0.55-0.36-0.49-0.69L238.28,209.7z M236.36,214.95
		c0.03-0.33,0.33-0.57,0.66-0.54c0.33,0.03,0.57,0.33,0.54,0.66L236.36,214.95z M237.18,220.48c-0.01,0.33-0.29,0.59-0.62,0.58
		c-0.33-0.01-0.59-0.29-0.58-0.62L237.18,220.48z M236.09,225.97c-0.03-0.33,0.21-0.62,0.54-0.65c0.33-0.03,0.62,0.21,0.65,0.54
		L236.09,225.97z M237.74,228.39c0.11,0.31-0.05,0.66-0.36,0.77c-0.31,0.11-0.66-0.05-0.77-0.36L237.74,228.39z M245.85,186.61
		l-0.5-0.33L245.85,186.61z M291.08,161.11l0.15,0.58L291.08,161.11z M307.45,162.88l-0.29,0.53L307.45,162.88z M314.03,179.32
		l-0.49-0.35L314.03,179.32z M292.94,183.75l0.37-0.47L292.94,183.75z M293.31,143.74l0.52,0.31L293.31,143.74z M330.38,113.77
		l-0.21-0.56L330.38,113.77z M345.69,109.3l-0.09-0.59L345.69,109.3z M349.41,107.51c0.26-0.21,0.63-0.18,0.84,0.08
		c0.21,0.26,0.18,0.63-0.08,0.84L349.41,107.51z"/>
	<circle class="st16" cx="386.55" cy="93.5" r="48.5"/>
	<g>
		<defs>
			<circle id="SVGID_00000143606445970686957360000012853054065632012967_" cx="386.55" cy="93.5" r="48.5"/>
		</defs>
		<clipPath id="SVGID_00000018931220754462463390000014210039493137848963_">
			<use xlink:href="#SVGID_00000143606445970686957360000012853054065632012967_"  style="overflow:visible;"/>
		</clipPath>
		<path style="clip-path:url(#SVGID_00000018931220754462463390000014210039493137848963_);fill:#18292D;" d="M386.55,47
			c25.68,0,46.5,20.82,46.5,46.5h4c0-27.89-22.61-50.5-50.5-50.5V47z M340.05,93.5c0-25.68,20.82-46.5,46.5-46.5v-4
			c-27.89,0-50.5,22.61-50.5,50.5H340.05z M386.55,140c-25.68,0-46.5-20.82-46.5-46.5h-4c0,27.89,22.61,50.5,50.5,50.5V140z
			 M433.05,93.5c0,25.68-20.82,46.5-46.5,46.5v4c27.89,0,50.5-22.61,50.5-50.5H433.05z"/>
	</g>
	<path class="st18" d="M369.06,86.21c0.92-4.8,1.38-7.19,1.41-7.19l0.07-0.36c0,0-0.11,0.27-0.33,0.81
		c-0.6,1.72-1.13,3.07-1.59,4.05l-1.03,2.24L369.06,86.21z M373.19,98.68c-0.79-0.07-1.62-0.23-2.48-0.49
		c-1.02-0.31-2.1-0.78-3.22-1.41c-0.03-0.49,0-1.5,0.09-3.02c0.09-1.55,0.11-2.58,0.04-3.11l-0.69-0.25l-0.6-0.15
		c-0.18,0.25-0.54,0.89-1.08,1.91c-0.44,0.85-0.83,1.55-1.17,2.08c-0.33,0.51-0.72,0.95-1.17,1.32c-0.25-0.02-0.6-0.11-1.07-0.25
		c-0.21-0.06-0.65-0.23-1.34-0.49c-1.99-0.71-3.1-1.11-3.33-1.18c0.04-0.12,0.14-0.38,0.32-0.78c0.18-0.43,0.4-0.89,0.66-1.4
		l2.11-4.15c1.71-3.41,3.24-6.37,4.59-8.87c1.38-2.5,2.96-5.1,4.76-7.79c0.34,0.05,0.79,0.17,1.34,0.34l0.21,0.06
		c1.51,0.46,3,0.86,4.47,1.18c-0.06,1.18-0.13,2.33-0.23,3.47c-0.09,1.12-0.17,2.12-0.24,3.01c-0.25,3.45-0.41,5.75-0.48,6.9
		L373.19,98.68z"/>
	<path d="M367.36,86.54l1.46,0.45l0.48-1.55l-1.46-0.45L367.36,86.54z M367.9,83.19l-1.03,2.24l1.47,0.68l1.03-2.24L367.9,83.19z
		 M369.45,79.21c-0.6,1.71-1.12,3.03-1.56,3.97l1.47,0.68c0.47-1.01,1.01-2.39,1.62-4.12L369.45,79.21z M370.54,78.67
		c-0.75-0.3-0.75-0.3-0.75-0.3s0,0,0,0c0,0,0,0,0,0c0,0,0,0,0,0c0,0,0,0,0,0c0,0,0,0,0,0c0,0,0,0,0,0c0,0,0,0,0,0c0,0,0,0,0,0
		c0,0.01,0,0,0,0.01c0,0.01,0,0,0,0.01c0,0,0,0.01,0,0.01c0,0.01,0,0,0,0.01c0,0,0,0,0,0c0,0,0,0,0,0c0,0,0,0,0,0.01
		c0,0.01,0,0.01-0.01,0.01c0,0,0,0.01-0.01,0.02c-0.01,0.01,0,0-0.01,0.02c0,0,0,0.01,0,0.01c0,0,0,0.01,0,0.01
		c0,0.01,0,0.01-0.01,0.02c-0.01,0.01,0,0.01-0.01,0.02c0,0,0,0.01,0,0.01c0,0,0,0,0,0.01c-0.01,0.03,0.01-0.01,0,0.01
		c-0.01,0.02,0,0.01-0.01,0.02c-0.01,0.02,0,0-0.01,0.01c0,0,0,0.01-0.01,0.01c-0.01,0.01-0.01,0.01-0.01,0.03
		c-0.01,0.02,0,0.01-0.01,0.03c-0.01,0.02,0,0.01-0.01,0.03c0,0.01,0,0.01-0.01,0.02c0,0,0,0.01-0.01,0.02c-0.01,0.02,0-0.01,0,0.01
		c-0.02,0.04,0.01-0.03,0,0.01c0,0-0.01,0.01-0.01,0.02c-0.02,0.04,0,0-0.01,0.04c-0.01,0.03,0-0.01-0.01,0.02
		c-0.02,0.04,0.01-0.02-0.01,0.02c-0.01,0.02,0,0-0.01,0.02c0,0,0,0,0,0c0,0,0,0,0,0c0,0,0,0,0,0c0,0,0,0,0,0c0,0,0,0,0,0
		c0,0,0,0,0,0c-0.01,0.03,0,0.01-0.02,0.04c-0.01,0.02-0.01,0.03-0.02,0.04c-0.01,0.02-0.01,0.02-0.02,0.04c0,0.01,0,0.01-0.01,0.02
		c-0.01,0.01,0,0,0,0.01c0,0.01,0,0,0,0.01c0,0,0,0,0,0c0,0,0,0,0,0c-0.02,0.05,0,0-0.02,0.05c-0.02,0.05,0,0-0.02,0.05
		c0,0-0.02,0.05-0.02,0.05l1.5,0.6c0.01-0.03,0.01-0.02,0.02-0.05c0-0.01,0.02-0.04,0.02-0.05c0.01-0.03,0.01-0.02,0.02-0.05
		c0.01-0.03,0,0.01,0.01-0.02c0-0.01,0.01-0.01,0.01-0.02c0.01-0.03,0.01-0.02,0.02-0.04c0.01-0.03,0-0.01,0.02-0.04
		c0.02-0.06-0.01,0.02,0.02-0.04c0.01-0.03-0.01,0.01,0.01-0.02c0,0,0,0,0,0c0,0,0,0,0,0c0.01-0.01,0,0.01,0,0c0-0.01,0,0,0-0.01
		c0,0,0.01-0.04,0.01-0.04c0,0,0.01-0.03,0.01-0.04c0.01-0.04,0,0,0.01-0.03c0-0.01,0-0.01,0.01-0.02c0,0,0,0,0,0c0,0,0,0,0,0
		c0,0,0,0,0,0c0-0.01,0,0,0-0.01c0-0.01,0-0.01,0.01-0.02c0-0.01,0-0.01,0.01-0.02c0.01-0.02,0.01-0.01,0.01-0.03c0,0,0,0,0-0.01
		c0-0.01,0,0,0,0c0,0,0,0,0,0c0,0,0-0.01,0.01-0.01c0,0,0.01-0.03,0.01-0.03c0.02-0.05-0.01,0.02,0.01-0.02
		c0.01-0.01,0-0.01,0.01-0.02c0-0.01,0-0.01,0.01-0.02c0.02-0.05-0.01,0.03,0.01-0.02c0-0.01,0,0,0-0.01c0,0,0-0.01,0-0.01
		c0-0.01,0,0,0-0.01c0,0,0,0,0,0c0,0,0,0,0,0c0-0.01,0,0.01,0,0c0,0,0,0,0,0c0.01-0.01,0,0,0.01-0.02c0,0,0.01-0.01,0.01-0.01
		c0.01-0.01,0-0.01,0.01-0.02c0,0,0-0.01,0-0.01c0,0,0,0,0-0.01c0.02-0.06-0.02,0.04,0-0.01c0,0,0,0,0,0c0,0,0,0,0,0c0,0,0,0,0,0
		c0,0,0,0,0,0S371.29,78.97,370.54,78.67z M371.26,79.19l0.07-0.36l-1.59-0.32l-0.07,0.36L371.26,79.19z M369.86,86.36
		c0.46-2.4,0.8-4.19,1.04-5.39c0.12-0.6,0.21-1.04,0.27-1.34c0.03-0.15,0.05-0.25,0.07-0.32c0-0.02,0.01-0.03,0.01-0.04
		c0-0.01,0-0.01,0-0.01c0,0,0,0,0,0.01c0,0,0,0.02-0.01,0.03c0,0.01-0.02,0.05-0.05,0.11c-0.01,0.02-0.05,0.1-0.13,0.18
		c-0.05,0.05-0.35,0.34-0.81,0.2l0.48-1.55c-0.46-0.14-0.77,0.16-0.81,0.2c-0.08,0.08-0.12,0.16-0.14,0.18
		c-0.03,0.06-0.05,0.11-0.05,0.12c-0.01,0.04-0.02,0.07-0.03,0.08c-0.01,0.03-0.02,0.08-0.03,0.11c-0.02,0.08-0.04,0.2-0.07,0.35
		c-0.06,0.3-0.15,0.75-0.27,1.35c-0.24,1.2-0.58,3-1.04,5.4L369.86,86.36z M373.89,85.53l-1.5,13.06l1.61,0.18l1.5-13.06
		L373.89,85.53z M374.37,78.66c-0.25,3.45-0.41,5.76-0.48,6.91l1.61,0.1c0.07-1.14,0.23-3.44,0.48-6.89L374.37,78.66z M374.61,75.64
		c-0.09,1.12-0.17,2.12-0.24,3.01l1.61,0.13c0.07-0.89,0.15-1.9,0.24-3.01L374.61,75.64z M374.83,72.2
		c-0.06,1.17-0.13,2.31-0.23,3.44l1.61,0.14c0.1-1.15,0.17-2.32,0.23-3.5L374.83,72.2z M370.93,71.82c1.53,0.47,3.04,0.87,4.54,1.2
		l0.35-1.58c-1.45-0.32-2.92-0.71-4.41-1.17L370.93,71.82z M370.72,71.76l0.21,0.06l0.48-1.55l-0.21-0.06L370.72,71.76z
		 M369.49,71.45c0.28,0.04,0.69,0.14,1.23,0.31l0.48-1.55c-0.57-0.18-1.06-0.3-1.46-0.36L369.49,71.45z M365.57,78.84
		c1.36-2.48,2.94-5.05,4.72-7.74l-1.35-0.9c-1.81,2.72-3.4,5.33-4.79,7.85L365.57,78.84z M360.99,87.68
		c1.71-3.41,3.23-6.36,4.58-8.85l-1.42-0.77c-1.36,2.51-2.89,5.48-4.6,8.9L360.99,87.68z M358.87,91.83l2.11-4.15l-1.44-0.73
		l-2.11,4.15L358.87,91.83z M358.24,93.18c0.17-0.41,0.38-0.86,0.64-1.35l-1.44-0.73c-0.26,0.52-0.49,1-0.68,1.45L358.24,93.18z
		 M357.95,93.88c0.02-0.06,0.1-0.28,0.28-0.7l-1.48-0.64c-0.17,0.39-0.3,0.7-0.35,0.86L357.95,93.88z M360.79,94.06
		c-1.98-0.71-3.11-1.11-3.37-1.19l-0.48,1.55c0.21,0.06,1.29,0.45,3.3,1.16L360.79,94.06z M362.09,94.53
		c-0.18-0.05-0.6-0.21-1.29-0.47l-0.58,1.51c0.68,0.26,1.15,0.43,1.39,0.5L362.09,94.53z M363,94.75c-0.16-0.02-0.46-0.08-0.91-0.22
		l-0.48,1.55c0.48,0.15,0.89,0.25,1.22,0.28L363,94.75z M363.4,93.8c-0.29,0.44-0.63,0.82-1.01,1.14l1.04,1.24
		c0.51-0.42,0.95-0.92,1.32-1.49L363.4,93.8z M364.53,91.79c-0.43,0.84-0.81,1.51-1.13,2.01l1.36,0.87
		c0.36-0.56,0.76-1.28,1.21-2.14L364.53,91.79z M365.68,89.78c-0.22,0.3-0.6,1-1.14,2.01l1.43,0.76c0.55-1.04,0.89-1.63,1.03-1.82
		L365.68,89.78z M367.13,89.61l-0.6-0.15l-0.38,1.57l0.6,0.15L367.13,89.61z M367.9,89.88l-0.69-0.25l-0.55,1.52l0.69,0.25
		L367.9,89.88z M368.39,93.8c0.09-1.53,0.11-2.65,0.04-3.26l-1.61,0.2c0.06,0.44,0.05,1.4-0.05,2.96L368.39,93.8z M368.3,96.73
		c-0.02-0.44,0-1.4,0.09-2.93l-1.62-0.09c-0.09,1.51-0.12,2.57-0.09,3.11L368.3,96.73z M370.95,97.41
		c-0.96-0.29-1.98-0.74-3.07-1.34l-0.79,1.41c1.17,0.65,2.29,1.14,3.38,1.48L370.95,97.41z M373.26,97.87
		c-0.73-0.06-1.5-0.21-2.31-0.46l-0.48,1.55c0.91,0.28,1.79,0.46,2.65,0.53L373.26,97.87z M367.6,85.76l-0.73-0.34
		c-0.1,0.21-0.1,0.46,0,0.67c0.1,0.21,0.28,0.37,0.5,0.44L367.6,85.76z M368.63,83.53l-0.73-0.34l0,0L368.63,83.53z M370.22,79.48
		l-0.75-0.3c0,0.01-0.01,0.02-0.01,0.03L370.22,79.48z M370.54,78.67l0.79,0.16c0.08-0.41-0.16-0.82-0.56-0.93
		c-0.4-0.12-0.83,0.09-0.98,0.47L370.54,78.67z M370.47,79.03l-0.24,0.77c0.22,0.07,0.46,0.04,0.65-0.08
		c0.2-0.12,0.33-0.31,0.38-0.54L370.47,79.03z M369.06,86.21l-0.24,0.77c0.22,0.07,0.46,0.04,0.66-0.08
		c0.2-0.12,0.33-0.32,0.38-0.54L369.06,86.21z M374.69,85.62l0.8,0.09c0-0.01,0-0.03,0-0.04L374.69,85.62z M375.17,78.72l-0.81-0.06
		l0,0.01L375.17,78.72z M375.41,75.71l-0.81-0.07l0,0L375.41,75.71z M375.64,72.24l0.81,0.04c0.02-0.39-0.25-0.74-0.63-0.83
		L375.64,72.24z M369.62,70.65l0.13-0.8c-0.31-0.05-0.62,0.09-0.8,0.35L369.62,70.65z M364.86,78.44l-0.71-0.39l0,0.01L364.86,78.44
		z M360.27,87.32l0.72,0.37l0,0L360.27,87.32z M358.15,91.47l-0.72-0.37l0,0L358.15,91.47z M357.49,92.86l0.74,0.32l0,0
		L357.49,92.86z M357.18,93.64l-0.77-0.24c-0.13,0.43,0.11,0.88,0.54,1.01L357.18,93.64z M360.51,94.82l0.29-0.76
		c-0.01,0-0.01,0-0.02-0.01L360.51,94.82z M362.91,95.56l-0.08,0.8c0.22,0.02,0.43-0.04,0.6-0.18L362.91,95.56z M364.08,94.24
		l0.68,0.44l0-0.01L364.08,94.24z M365.25,92.16l-0.71-0.38l0,0.01L365.25,92.16z M366.34,90.25l0.19-0.79
		c-0.32-0.08-0.66,0.05-0.85,0.32L366.34,90.25z M366.94,90.4l0.28-0.76c-0.03-0.01-0.06-0.02-0.08-0.03L366.94,90.4z M367.62,90.64
		l0.8-0.1c-0.04-0.3-0.24-0.56-0.53-0.66L367.62,90.64z M367.58,93.76l-0.81-0.05l0,0L367.58,93.76z M367.49,96.77l-0.81,0.04
		c0.02,0.28,0.17,0.53,0.42,0.66L367.49,96.77z M373.19,98.68l-0.07,0.81c0.44,0.04,0.82-0.28,0.87-0.71L373.19,98.68z"/>
	<path class="st19" d="M406.01,83.26c-0.17-0.38-0.41-0.76-0.74-1.14l0.01,0.03c-0.22-0.2-0.47-0.35-0.76-0.46s-0.54-0.15-0.76-0.1
		c-0.39,0.07-0.95,0.23-1.65,0.49c-0.07,0.03-0.14,0.07-0.22,0.14c-0.07,0.03-0.15,0.05-0.25,0.07c0.19,1.03,0.44,1.89,0.74,2.58
		c0.35,0.8,0.75,1.37,1.19,1.7c0.81-0.33,1.42-0.63,1.84-0.89c0.43-0.29,0.71-0.7,0.86-1.21C406.32,84.17,406.24,83.77,406.01,83.26
		z M401.51,73.03c-0.61-0.48-1.2-0.67-1.77-0.57c-0.37,0.11-0.66,0.21-0.86,0.3c-0.6,0.21-1.05,0.35-1.37,0.41
		c0.23,0.35,0.52,0.91,0.86,1.69l0.53,1.2c0.24,0.56,0.45,0.98,0.61,1.28l0.97-0.43c0.98-0.43,1.5-1.06,1.56-1.88
		c0.05-0.66,0.01-1.16-0.14-1.49C401.8,73.34,401.67,73.17,401.51,73.03z M407.76,77.2c1.31,0.69,2.33,1.31,3.04,1.84
		c0.7,0.51,1.26,1.24,1.67,2.17c0.17,0.38,0.31,0.8,0.44,1.28c0.52,2.13,0.19,3.89-0.97,5.28c-1.18,1.37-2.93,2.56-5.26,3.59
		c-0.69,0.3-2.9,1.12-6.64,2.45c-0.8-1.64-2.01-4.29-3.62-7.95c-1.75-3.98-3.32-7.57-4.71-10.78l-1.91-4.33
		c1.71-1.42,3.46-2.52,5.26-3.31c2.51-1.11,4.81-1.46,6.9-1.05c2.1,0.37,3.7,1.82,4.81,4.33c0.71,1.62,0.93,3.64,0.64,6.05
		l-0.01-0.03c-0.01,0.11,0,0.18,0.02,0.23c0.03,0.07,0.14,0.14,0.33,0.21L407.76,77.2z"/>
	<path d="M407.06,84.62c0.11-0.54-0.06-1.14-0.3-1.69l-1.48,0.65c0.21,0.47,0.21,0.68,0.2,0.72L407.06,84.62z M405.87,86.34
		c0.59-0.41,0.98-0.97,1.18-1.66l-1.56-0.44c-0.1,0.34-0.27,0.58-0.54,0.77L405.87,86.34z M403.88,87.32
		c0.83-0.34,1.49-0.65,1.96-0.95l-0.86-1.37c-0.36,0.22-0.92,0.5-1.71,0.82L403.88,87.32z M401.64,85.19
		c0.38,0.86,0.84,1.57,1.44,2.02l0.98-1.29c-0.29-0.22-0.61-0.65-0.94-1.39L401.64,85.19z M400.85,82.43c0.2,1.07,0.46,2,0.79,2.76
		l1.48-0.65c-0.27-0.61-0.5-1.41-0.68-2.4L400.85,82.43z M401.56,81.47C401.57,81.47,401.57,81.47,401.56,81.47
		c-0.01,0-0.03,0.01-0.06,0.01l0.27,1.59c0.14-0.02,0.29-0.06,0.44-0.13L401.56,81.47z M401.78,81.34
		c-0.14,0.06-0.28,0.15-0.39,0.24l0.99,1.28c0.02-0.02,0.04-0.03,0.05-0.03c0.01-0.01,0.01-0.01,0,0L401.78,81.34z M403.63,80.79
		c-0.47,0.08-1.07,0.26-1.8,0.53l0.56,1.52c0.69-0.25,1.19-0.4,1.51-0.45L403.63,80.79z M404.82,80.94
		c-0.38-0.15-0.79-0.22-1.21-0.14l0.32,1.59c0.02,0,0.11-0.01,0.31,0.06L404.82,80.94z M405.82,81.55
		c-0.29-0.26-0.63-0.47-1.01-0.61l-0.59,1.51c0.2,0.08,0.37,0.18,0.51,0.31L405.82,81.55z M404.53,82.44l0.01,0.03l1.48-0.65
		l-0.01-0.03L404.53,82.44z M406.75,82.94c-0.2-0.46-0.5-0.91-0.87-1.34l-1.23,1.05c0.29,0.34,0.49,0.65,0.62,0.95L406.75,82.94z
		 M402.63,73.22c-0.14-0.31-0.34-0.59-0.61-0.8l-1.03,1.25c0.07,0.06,0.12,0.13,0.16,0.21L402.63,73.22z M402.83,75.1
		c0.06-0.7,0.02-1.36-0.21-1.88l-1.48,0.65c0.06,0.15,0.12,0.48,0.07,1.1L402.83,75.1z M400.8,77.65c1.16-0.51,1.95-1.35,2.04-2.56
		l-1.61-0.12c-0.03,0.43-0.28,0.85-1.08,1.2L400.8,77.65z M399.83,78.08l0.97-0.43l-0.65-1.48l-0.97,0.43L399.83,78.08z
		 M398.16,76.38c0.25,0.56,0.46,1.01,0.63,1.34l1.43-0.76c-0.15-0.28-0.34-0.68-0.58-1.23L398.16,76.38z M397.63,75.18l0.53,1.2
		l1.48-0.65l-0.53-1.2L397.63,75.18z M396.83,73.62c0.19,0.29,0.46,0.8,0.8,1.56l1.48-0.65c-0.35-0.79-0.66-1.4-0.93-1.81
		L396.83,73.62z M398.61,72c-0.59,0.21-1,0.33-1.26,0.37l0.3,1.59c0.38-0.07,0.88-0.22,1.49-0.44L398.61,72z M399.51,71.68
		c-0.39,0.12-0.71,0.23-0.96,0.34l0.65,1.48c0.15-0.07,0.4-0.16,0.77-0.27L399.51,71.68z M402,72.4c-0.72-0.57-1.53-0.88-2.39-0.74
		l0.26,1.6c0.28-0.05,0.65,0.03,1.14,0.41L402,72.4z M407,77.49l0.01,0.03l1.48-0.65l-0.01-0.03L407,77.49z M406.67,77.28
		c0.11,0.26,0.31,0.4,0.41,0.46c0.12,0.08,0.25,0.13,0.37,0.18l0.59-1.51c-0.07-0.03-0.09-0.04-0.08-0.04c0,0,0.03,0.02,0.06,0.05
		c0.03,0.03,0.09,0.1,0.14,0.2L406.67,77.28z M406.58,76.69c-0.01,0.12-0.01,0.36,0.09,0.59l1.48-0.65
		c0.02,0.05,0.03,0.09,0.04,0.11c0.01,0.02,0.01,0.04,0.01,0.05c0,0.01,0,0.01,0-0.02L406.58,76.69z M408.15,76.43l-0.01-0.03
		l-1.48,0.65l0.01,0.03L408.15,76.43z M406.03,71.04c0.64,1.45,0.85,3.31,0.57,5.62l1.61,0.19c0.3-2.5,0.09-4.67-0.7-6.47
		L406.03,71.04z M401.82,67.19c1.76,0.31,3.18,1.51,4.21,3.86l1.48-0.65c-1.18-2.68-2.97-4.36-5.41-4.8L401.82,67.19z M395.39,68.18
		c2.4-1.06,4.53-1.36,6.42-1l0.31-1.59c-2.29-0.45-4.76-0.05-7.38,1.1L395.39,68.18z M390.31,71.38c1.66-1.37,3.35-2.44,5.07-3.2
		l-0.65-1.48c-1.88,0.83-3.69,1.97-5.45,3.43L390.31,71.38z M392.45,74.76l-1.91-4.33l-1.48,0.65l1.91,4.33L392.45,74.76z
		 M397.16,85.53c-1.75-3.97-3.32-7.57-4.71-10.77l-1.49,0.64c1.39,3.21,2.96,6.8,4.71,10.78L397.16,85.53z M400.77,93.46
		c-0.79-1.62-2-4.26-3.61-7.92l-1.48,0.65c1.62,3.67,2.83,6.33,3.64,7.98L400.77,93.46z M406.35,90.62
		c-0.65,0.29-2.83,1.09-6.58,2.43l0.54,1.52c3.72-1.32,5.97-2.15,6.7-2.47L406.35,90.62z M411.33,87.25
		c-1.07,1.25-2.71,2.38-4.97,3.38l0.65,1.48c2.4-1.06,4.27-2.32,5.55-3.8L411.33,87.25z M412.13,82.68
		c0.47,1.94,0.16,3.42-0.81,4.57l1.24,1.04c1.37-1.63,1.7-3.67,1.14-5.99L412.13,82.68z M411.73,81.54c0.15,0.33,0.28,0.72,0.4,1.16
		l1.56-0.43c-0.14-0.51-0.3-0.97-0.48-1.39L411.73,81.54z M410.32,79.7c0.57,0.41,1.04,1.02,1.41,1.84l1.48-0.65
		c-0.46-1.04-1.1-1.89-1.94-2.5L410.32,79.7z M407.38,77.92c1.3,0.69,2.27,1.28,2.93,1.78l0.97-1.29c-0.76-0.57-1.82-1.21-3.15-1.91
		L407.38,77.92z M406.26,84.47l0.78,0.22c0.01-0.02,0.01-0.04,0.01-0.06L406.26,84.47z M405.41,85.68l0.43,0.68
		c0.01-0.01,0.02-0.01,0.03-0.02L405.41,85.68z M403.57,86.57l-0.49,0.64c0.23,0.17,0.53,0.21,0.8,0.11L403.57,86.57z M401.64,82.28
		l-0.14-0.8c-0.21,0.04-0.4,0.16-0.53,0.33s-0.17,0.4-0.13,0.61L401.64,82.28z M401.89,82.21l0.33,0.74
		c0.06-0.03,0.12-0.06,0.17-0.1L401.89,82.21z M402.11,82.08l-0.28-0.76c-0.02,0.01-0.03,0.01-0.05,0.02L402.11,82.08z
		 M403.76,81.59l0.14,0.8c0.01,0,0.01,0,0.02,0L403.76,81.59z M404.52,81.69l-0.29,0.75L404.52,81.69z M405.28,82.15l-0.54,0.6
		c0.28,0.25,0.71,0.28,1.01,0.05s0.42-0.63,0.26-0.98L405.28,82.15z M405.27,82.12l0.62-0.53c-0.26-0.31-0.71-0.37-1.05-0.16
		c-0.34,0.21-0.47,0.64-0.31,1.01L405.27,82.12z M402.03,75.03l-0.81-0.07l0,0.01L402.03,75.03z M399.5,77.34l-0.72,0.38
		c0.2,0.38,0.65,0.53,1.04,0.36L399.5,77.34z M397.51,73.17l-0.15-0.79c-0.27,0.05-0.49,0.23-0.59,0.48s-0.08,0.54,0.07,0.76
		L397.51,73.17z M398.88,72.76l0.27,0.76c0.02-0.01,0.04-0.01,0.06-0.02L398.88,72.76z M399.74,72.46l-0.13-0.8
		c-0.03,0.01-0.07,0.01-0.1,0.02L399.74,72.46z M401.51,73.03l0.52-0.62c-0.01,0-0.01-0.01-0.02-0.01L401.51,73.03z M407.74,77.17
		l0.74-0.33c-0.09-0.2-0.25-0.35-0.45-0.43L407.74,77.17z M407.39,76.73l0.74-0.33c-0.15-0.34-0.52-0.54-0.89-0.47
		s-0.64,0.38-0.66,0.76L407.39,76.73z M407.41,76.76l-0.74,0.33c0.15,0.33,0.5,0.53,0.86,0.47c0.36-0.05,0.64-0.34,0.68-0.7
		L407.41,76.76z M401.96,66.39l-0.15,0.79l0.01,0L401.96,66.39z M389.8,70.75l-0.52-0.62c-0.28,0.23-0.37,0.62-0.22,0.95
		L389.8,70.75z M391.71,75.08l0.74-0.32l0-0.01L391.71,75.08z M400.04,93.81l-0.73,0.36c0.18,0.37,0.61,0.54,1,0.41L400.04,93.81z
		 M411.94,87.77l0.61,0.53l0.01-0.01L411.94,87.77z M412.91,82.49l0.79-0.19c0-0.01,0-0.02-0.01-0.02L412.91,82.49z M410.8,79.05
		l-0.49,0.65l0.01,0.01L410.8,79.05z M407.76,77.2l-0.74,0.33c0.07,0.17,0.2,0.3,0.36,0.39L407.76,77.2z"/>
	<path class="st3" d="M389.02,107.09c-0.07,0.08-0.32,0.81-0.75,2.17s-0.83,2.77-1.21,4.2c-0.38,1.46-0.66,2.69-0.85,3.69
		c-0.09,0.65-0.07,1.32,0.08,2.01c0.15,0.67,0.41,1.16,0.78,1.48c0.81,0.26,1.53,0.05,2.16-0.64l-0.04-0.01
		c0.33-0.39,0.61-1.03,0.84-1.93c0.18-0.7,0.37-1.24,0.57-1.62c0.56,0.25,1.11,0.44,1.65,0.58l1.63,0.39
		c0.85,0.22,1.62,0.52,2.32,0.91c0.07,0.9-0.02,1.79-0.25,2.68c-0.35,1.34-1.02,2.52-2.01,3.54c-0.97,1.03-2.14,1.76-3.51,2.21
		c-1.37,0.45-2.78,0.5-4.22,0.18c-0.44-0.04-0.94-0.13-1.51-0.28c-1.83-0.48-3.33-1.31-4.51-2.49c-1.17-1.18-1.62-2.62-1.36-4.31
		c0.5-2.38,1.09-4.92,1.8-7.62c0.58-2.23,1.07-4.06,1.47-5.49l0.45-1.58c0.07-0.36,0.2-0.75,0.38-1.18
		c0.22-0.45,0.44-0.83,0.67-1.14c0.35-0.49,0.76-0.95,1.23-1.41c0.49-0.45,0.97-0.8,1.44-1.05c0.6-0.27,1.41-0.42,2.45-0.45
		c0.99-0.04,1.98,0.06,2.96,0.32c1.6,0.42,3,1.18,4.22,2.3c1.22,1.1,2.08,2.4,2.59,3.91c0.51,1.49,0.58,2.98,0.18,4.49
		c-0.23,0.89-0.63,1.74-1.19,2.55c-1.04-0.05-1.89-0.15-2.55-0.33c-0.89-0.23-2.09-0.71-3.58-1.42l0.24-1.37
		c0.23-1.09,0.31-1.94,0.21-2.54c-0.06-0.62-0.46-1.01-1.2-1.18c-0.02-0.01-0.06,0-0.11,0.01c-0.02-0.01-0.07-0.02-0.14-0.04
		l0.04,0.01C389.65,106.59,389.19,106.74,389.02,107.09z"/>
	<path d="M390.49,105.86c-0.43-0.04-0.86-0.03-1.23,0.08c-0.4,0.12-0.77,0.37-0.97,0.8l1.46,0.69c-0.03,0.07-0.09,0.07-0.02,0.05
		c0.09-0.03,0.27-0.05,0.6-0.02L390.49,105.86z M390.17,107.44l0.04,0.01l0.41-1.57l-0.04-0.01L390.17,107.44z M390.72,105.91
		C390.72,105.91,390.72,105.91,390.72,105.91C390.72,105.91,390.72,105.91,390.72,105.91C390.72,105.91,390.72,105.91,390.72,105.91
		C390.72,105.91,390.72,105.91,390.72,105.91C390.72,105.91,390.72,105.91,390.72,105.91C390.72,105.91,390.72,105.91,390.72,105.91
		C390.72,105.91,390.72,105.91,390.72,105.91C390.72,105.91,390.72,105.91,390.72,105.91C390.72,105.91,390.72,105.91,390.72,105.91
		C390.72,105.91,390.72,105.91,390.72,105.91C390.72,105.91,390.72,105.91,390.72,105.91C390.72,105.91,390.72,105.91,390.72,105.91
		C390.72,105.91,390.72,105.91,390.72,105.91C390.72,105.91,390.72,105.91,390.72,105.91C390.72,105.91,390.72,105.91,390.72,105.91
		C390.72,105.91,390.72,105.91,390.72,105.91C390.72,105.91,390.72,105.91,390.72,105.91C390.72,105.91,390.72,105.91,390.72,105.91
		C390.72,105.91,390.72,105.91,390.72,105.91C390.72,105.91,390.72,105.91,390.72,105.91C390.72,105.91,390.72,105.91,390.72,105.91
		C390.72,105.91,390.72,105.91,390.72,105.91C390.72,105.91,390.72,105.91,390.72,105.91C390.72,105.91,390.72,105.91,390.72,105.91
		C390.72,105.91,390.72,105.91,390.72,105.91C390.72,105.91,390.72,105.91,390.72,105.91C390.72,105.91,390.72,105.91,390.72,105.91
		C390.72,105.91,390.72,105.91,390.72,105.91C390.72,105.91,390.72,105.91,390.72,105.91C390.72,105.91,390.72,105.91,390.72,105.91
		C390.72,105.91,390.72,105.91,390.72,105.91C390.72,105.91,390.72,105.91,390.72,105.91C390.72,105.91,390.72,105.91,390.72,105.91
		C390.72,105.91,390.72,105.91,390.72,105.91C390.72,105.91,390.72,105.91,390.72,105.91C390.72,105.91,390.72,105.91,390.72,105.91
		C390.72,105.91,390.72,105.91,390.72,105.91C390.72,105.91,390.72,105.91,390.72,105.91C390.72,105.91,390.72,105.91,390.72,105.91
		C390.72,105.91,390.72,105.91,390.72,105.91C390.72,105.91,390.72,105.91,390.72,105.91C390.72,105.91,390.72,105.91,390.72,105.91
		C390.72,105.91,390.72,105.91,390.72,105.91C390.72,105.91,390.72,105.91,390.72,105.91C390.72,105.91,390.72,105.91,390.72,105.91
		C390.72,105.91,390.72,105.91,390.72,105.91C390.72,105.91,390.72,105.91,390.72,105.91C390.72,105.91,390.72,105.91,390.72,105.91
		C390.72,105.91,390.72,105.91,390.72,105.91C390.72,105.91,390.71,105.91,390.72,105.91C390.71,105.91,390.71,105.91,390.72,105.91
		C390.71,105.91,390.71,105.91,390.72,105.91C390.71,105.91,390.71,105.91,390.72,105.91C390.71,105.91,390.71,105.91,390.72,105.91
		C390.71,105.91,390.71,105.91,390.72,105.91C390.71,105.91,390.71,105.91,390.72,105.91C390.71,105.91,390.71,105.91,390.72,105.91
		C390.71,105.91,390.71,105.91,390.72,105.91C390.71,105.91,390.71,105.91,390.72,105.91C390.71,105.91,390.71,105.91,390.72,105.91
		C390.71,105.91,390.71,105.91,390.72,105.91C390.71,105.91,390.71,105.91,390.72,105.91C390.71,105.91,390.71,105.91,390.72,105.91
		C390.71,105.91,390.71,105.91,390.72,105.91c-0.01,0-0.01,0-0.01,0c0,0,0,0,0,0s0,0,0,0c0,0,0,0,0,0c0,0,0,0,0,0c0,0,0,0,0,0
		c0,0,0,0,0,0c0,0,0,0,0,0c0,0,0,0,0,0c0,0,0,0,0,0s0,0,0,0c0,0,0,0,0,0s0,0,0,0c0,0,0,0,0,0c0,0,0,0,0,0c0,0,0,0,0,0c0,0,0,0,0,0
		c0,0,0,0,0,0c0,0,0,0,0,0c0,0,0,0,0,0c0,0,0,0,0,0c0,0,0,0,0,0c0,0,0,0,0,0c0,0,0,0,0,0c0,0,0,0,0,0c0,0,0,0,0,0c0,0,0,0,0,0
		c0,0,0,0,0,0c0,0,0,0,0,0c0,0,0,0,0,0c0,0,0,0,0,0c0,0,0,0,0,0c0,0,0,0,0,0c0,0,0,0,0,0c0,0,0,0,0,0c0,0,0,0,0,0s0,0,0,0
		c0,0,0,0,0,0c0,0,0,0,0,0c0,0,0,0,0,0c0,0,0,0,0,0c0,0,0,0,0,0c0,0,0,0,0,0c0,0,0,0,0,0c0,0,0,0,0,0c0,0,0,0,0,0c0,0,0,0,0,0
		c0,0,0,0,0,0c0,0,0,0,0,0c0,0,0,0,0,0c0,0,0,0,0,0s0,0,0,0c0,0,0,0,0,0c0,0,0,0,0,0c0,0,0,0,0,0c0,0,0,0,0,0c0,0,0,0,0,0
		c0,0,0,0,0,0c0,0,0,0,0,0c0,0,0,0,0,0c0,0,0,0,0,0c0,0,0,0,0,0s0,0,0,0c0,0,0,0,0,0c0,0,0,0,0,0c0,0,0,0,0,0c0,0,0,0,0,0
		c0,0,0,0,0,0c0,0,0,0,0,0c0,0,0,0,0,0c0,0,0,0,0,0c0,0,0,0,0,0c0,0,0,0,0,0c0,0,0,0,0,0c0,0,0,0,0,0c0,0,0,0,0,0s0,0,0,0
		c0,0,0,0,0,0c0,0,0,0,0,0c0,0,0,0,0,0c0,0,0,0,0,0c0,0,0,0,0,0s0,0,0,0c0,0,0,0,0,0c0,0,0,0,0,0c0,0,0,0,0,0c0,0,0,0,0,0
		c0,0,0,0,0,0c0,0,0,0,0,0c0,0,0,0,0,0c0,0,0,0,0,0c0,0,0,0,0,0c0,0,0,0,0,0c0,0,0,0,0,0c0,0,0,0,0,0c0,0,0,0,0,0c0,0,0,0,0,0
		c0,0,0,0,0,0c0,0,0,0,0,0c0,0,0,0,0,0c0,0,0,0,0,0c0,0,0,0,0,0c0,0,0,0,0,0c0,0,0,0,0,0c0,0,0,0,0,0c0,0,0,0,0,0c0,0,0,0,0,0
		c0,0,0,0,0,0c0,0,0,0,0,0c0,0,0,0,0,0c0,0,0,0,0,0c0,0,0,0,0,0c0,0,0,0,0,0c0,0,0,0,0,0c0,0,0,0,0,0c0,0,0,0,0,0c0,0,0,0,0,0
		c0,0,0,0,0,0c0,0,0,0,0,0c0,0,0,0,0,0c0,0,0,0,0,0c0,0,0,0,0,0c0,0,0,0,0,0c0,0,0,0,0,0c0,0,0,0,0,0c0,0,0,0,0,0c0,0,0,0,0,0
		c0,0,0,0,0,0c0,0,0,0,0,0c0,0,0,0,0,0c0,0,0,0,0,0c0,0,0,0,0,0c0,0,0,0,0,0c0,0,0,0,0,0c0,0,0,0,0,0c0,0,0,0,0,0c0,0,0,0,0,0
		c0,0,0,0,0,0c0,0,0,0,0,0c0,0,0,0,0,0c0,0,0,0,0,0c0,0,0,0,0,0s0,0,0,0c0,0,0,0,0,0c0,0,0,0,0,0c0,0,0,0,0,0c0,0,0,0,0,0
		c0,0,0,0,0,0s0,0,0,0s0,0,0,0c0,0,0,0,0,0c0,0,0,0,0,0c0,0,0,0,0,0c0,0,0,0,0,0c0,0,0,0,0,0s0,0,0,0c0,0,0,0,0,0c0,0,0,0,0,0
		c0,0,0,0,0,0c0,0,0,0,0,0s0,0,0,0c0,0,0,0,0,0c0,0,0,0,0,0c0,0,0,0,0,0s0,0,0,0c0,0,0,0,0,0c0,0,0,0,0,0c0,0,0,0,0,0s0,0,0,0
		s0,0,0,0c0,0,0,0,0,0c0,0,0,0,0,0s0,0,0,0c0,0,0,0,0,0c0,0,0,0,0,0c0,0,0,0,0,0s0,0,0,0c0,0,0,0,0,0c0,0,0,0,0,0c0,0,0,0,0,0
		s0,0,0,0c0,0,0,0,0,0c0,0,0,0,0,0s0,0,0,0s0,0,0,0c0,0,0,0,0,0s0,0,0,0c0,0,0,0,0,0c0,0,0,0,0,0s0,0,0,0s0,0,0,0c0,0,0,0,0,0
		s0,0,0,0c0,0,0,0,0,0c0,0,0,0,0,0s0,0,0,0c0,0,0,0,0,0s0,0,0,0s0,0,0,0c0,0,0,0,0,0c0,0,0,0,0,0c0,0,0,0,0,0c0,0,0,0,0,0s0,0,0,0
		c0,0,0,0,0,0c0,0,0,0,0,0s0,0,0,0s0,0,0,0s0,0,0,0c0,0,0,0,0,0s0,0,0,0c0,0,0,0,0,0c0,0,0,0,0,0c0,0,0,0,0,0c0,0,0,0,0,0s0,0,0,0
		s0,0,0,0s0,0,0,0s0,0,0,0c0,0,0,0,0,0c0,0,0,0,0,0c0,0,0,0,0,0c0,0,0,0,0,0s0,0,0,0c0,0,0,0,0,0s0,0,0,0c0,0,0,0,0,0s0,0,0,0
		c0,0,0,0,0,0c0,0,0,0,0,0s0,0,0,0s0,0,0,0c0,0,0,0,0,0c0,0,0,0,0,0s0,0,0,0s0,0,0,0c0,0,0,0,0,0c0,0,0,0,0,0s0,0,0,0c0,0,0,0,0,0
		s0,0,0,0s0,0,0,0c0,0,0,0,0,0c0,0,0,0,0,0c0,0,0,0,0,0c0,0,0,0,0,0c0,0,0,0,0,0c0,0,0,0,0,0c0,0,0,0,0,0c0,0,0,0,0,0c0,0,0,0,0,0
		c0,0,0,0,0,0c0,0,0,0,0,0c0,0,0,0,0,0c0,0,0,0,0,0s0,0,0,0s0,0,0,0c0,0,0,0,0,0c0,0,0,0,0,0c0,0,0,0,0,0c0,0,0,0,0,0s0,0,0,0
		c0,0,0,0,0,0c0,0,0,0,0,0c0,0,0,0,0,0s0,0,0,0c0,0,0,0,0,0c0,0,0,0,0,0c0,0,0,0,0,0c0,0,0,0,0,0c0,0,0,0,0,0c0,0,0,0,0,0
		c0,0,0,0,0,0c0,0,0,0,0,0c0,0,0,0,0,0s0,0,0,0c0,0,0,0,0,0c0,0,0,0,0,0c0,0,0,0,0,0c0,0,0,0,0,0c0,0,0,0,0,0c0,0,0,0,0,0
		c0,0,0,0,0,0c0,0,0,0,0,0s0,0,0,0c0,0,0,0,0,0c0,0,0,0,0,0s0,0,0,0c0,0,0,0,0,0c0,0,0,0,0,0c0,0,0,0,0,0c0,0,0,0,0,0c0,0,0,0,0,0
		c0,0,0,0,0,0c0,0,0,0,0,0s0,0,0,0s0,0,0,0c0,0,0,0,0,0c0,0,0,0,0,0c0,0,0,0,0,0c0,0,0,0,0,0c0,0,0,0,0,0c0,0,0,0,0,0c0,0,0,0,0,0
		c0,0,0,0,0,0c0,0,0,0,0,0c0,0,0,0,0,0c0,0,0,0,0,0c0,0,0,0,0,0c0,0,0,0,0,0c0,0,0,0,0,0c0,0,0,0,0,0s0,0,0,0s0,0,0,0s0,0,0,0
		c0,0,0,0,0,0c0,0,0,0,0,0c0,0,0,0,0,0s0,0,0,0s0,0,0,0c0,0,0,0,0,0s0,0,0,0c0,0,0,0,0,0c0,0,0,0,0,0c0,0,0,0,0,0s0,0,0,0
		c0,0,0,0,0,0s0,0,0,0s0,0,0,0c0,0,0,0,0,0s0,0,0,0c0,0,0,0,0,0s0,0,0,0c0,0,0,0,0,0s0,0,0,0c0,0,0,0,0,0s0,0,0,0c0,0,0,0,0,0
		s0,0,0,0s0,0,0,0c0,0,0,0,0,0s0,0,0,0s0,0,0,0s0,0,0,0c0,0,0,0,0,0s0,0,0,0c0,0,0,0,0,0s0,0,0,0s0,0,0,0s0,0,0,0c0,0,0,0,0,0
		s0,0,0,0s0,0,0,0s0,0,0,0s0,0,0,0s0,0,0,0s0,0,0,0s0,0,0,0s0,0,0,0s0,0,0,0c0,0,0,0,0,0s0,0,0,0s0,0,0,0s0,0,0,0c0,0,0,0,0,0
		c0,0,0,0,0,0s0,0,0,0s0,0,0,0s0,0,0,0s0,0,0,0s0,0,0,0s0,0,0,0c0,0,0,0,0,0s0,0,0,0s0,0,0,0s0,0,0,0c0,0,0,0,0,0s0,0,0,0s0,0,0,0
		s0,0,0,0c0,0,0,0,0,0c0,0,0,0,0,0s0,0,0,0s0,0,0,0s0,0,0,0c0,0,0,0,0,0s0,0,0,0c0,0,0,0,0,0s0,0,0,0c0,0,0,0,0,0s0,0,0,0s0,0,0,0
		s0,0,0,0c0,0,0,0,0,0s0,0,0,0c0,0,0,0,0,0s0,0,0,0s0,0,0,0c0,0,0,0,0,0s0,0,0,0c0,0,0,0,0,0c0,0,0,0,0,0s0,0,0,0c0,0,0,0,0,0
		c0,0,0,0,0,0c0,0,0,0,0,0c0,0,0,0,0,0s0,0,0,0c0,0,0,0,0,0c0,0,0,0,0,0c0,0,0,0,0,0c0,0,0,0,0,0c0,0,0,0,0,0s0,0,0,0s0,0,0,0
		s0,0,0,0s0,0,0,0c0,0,0,0,0,0s0,0,0,0s0,0,0,0c0,0,0,0,0,0s0,0,0,0c0,0,0,0,0,0c0,0,0,0,0,0c0,0,0,0,0,0c0,0,0,0,0,0c0,0,0,0,0,0
		c0,0,0,0,0,0c0,0,0,0,0,0c0,0,0,0,0,0c0,0,0,0,0,0c0,0,0,0,0,0c0,0,0,0,0,0c0,0,0,0,0,0c0,0,0,0,0,0c0,0,0,0,0,0c0,0,0,0,0,0
		c0,0,0,0,0,0c0,0,0,0,0,0c0,0,0,0,0,0c0,0,0,0,0,0c0,0,0,0,0,0c0,0,0,0,0,0c0,0,0,0,0,0c0,0,0,0,0,0c0,0,0,0,0,0c0,0,0,0,0,0
		c0,0,0,0,0,0l-0.41,1.57c0,0,0,0,0,0c0,0,0,0,0,0c0,0,0,0,0,0c0,0,0,0,0,0c0,0,0,0,0,0c0,0,0,0,0,0c0,0,0,0,0,0c0,0,0,0,0,0
		c0,0,0,0,0,0c0,0,0,0,0,0c0,0,0,0,0,0c0,0,0,0,0,0c0,0,0,0,0,0c0,0,0,0,0,0c0,0,0,0,0,0c0,0,0,0,0,0c0,0,0,0,0,0c0,0,0,0,0,0
		c0,0,0,0,0,0s0,0,0,0c0,0,0,0,0,0c0,0,0,0,0,0c0,0,0,0,0,0c0,0,0,0,0,0c0,0,0,0,0,0s0,0,0,0s0,0,0,0s0,0,0,0c0,0,0,0,0,0s0,0,0,0
		s0,0,0,0s0,0,0,0s0,0,0,0c0,0,0,0,0,0s0,0,0,0s0,0,0,0c0,0,0,0,0,0c0,0,0,0,0,0c0,0,0,0,0,0c0,0,0,0,0,0c0,0,0,0,0,0s0,0,0,0
		s0,0,0,0c0,0,0,0,0,0c0,0,0,0,0,0s0,0,0,0s0,0,0,0c0,0,0,0,0,0c0,0,0,0,0,0s0,0,0,0c0,0,0,0,0,0c0,0,0,0,0,0s0,0,0,0c0,0,0,0,0,0
		s0,0,0,0c0,0,0,0,0,0s0,0,0,0s0,0,0,0s0,0,0,0s0,0,0,0s0,0,0,0c0,0,0,0,0,0c0,0,0,0,0,0c0,0,0,0,0,0s0,0,0,0s0,0,0,0s0,0,0,0
		s0,0,0,0c0,0,0,0,0,0s0,0,0,0s0,0,0,0s0,0,0,0s0,0,0,0s0,0,0,0s0,0,0,0s0,0,0,0c0,0,0,0,0,0s0,0,0,0s0,0,0,0s0,0,0,0s0,0,0,0
		s0,0,0,0s0,0,0,0c0,0,0,0,0,0s0,0,0,0s0,0,0,0c0,0,0,0,0,0c0,0,0,0,0,0c0,0,0,0,0,0s0,0,0,0c0,0,0,0,0,0s0,0,0,0s0,0,0,0s0,0,0,0
		s0,0,0,0s0,0,0,0s0,0,0,0s0,0,0,0c0,0,0,0,0,0s0,0,0,0s0,0,0,0s0,0,0,0c0,0,0,0,0,0s0,0,0,0s0,0,0,0s0,0,0,0s0,0,0,0s0,0,0,0
		c0,0,0,0,0,0s0,0,0,0s0,0,0,0c0,0,0,0,0,0s0,0,0,0c0,0,0,0,0,0s0,0,0,0c0,0,0,0,0,0s0,0,0,0c0,0,0,0,0,0s0,0,0,0c0,0,0,0,0,0
		s0,0,0,0s0,0,0,0c0,0,0,0,0,0s0,0,0,0c0,0,0,0,0,0c0,0,0,0,0,0s0,0,0,0c0,0,0,0,0,0c0,0,0,0,0,0s0,0,0,0s0,0,0,0c0,0,0,0,0,0
		c0,0,0,0,0,0c0,0,0,0,0,0s0,0,0,0s0,0,0,0s0,0,0,0c0,0,0,0,0,0c0,0,0,0,0,0c0,0,0,0,0,0c0,0,0,0,0,0c0,0,0,0,0,0c0,0,0,0,0,0
		c0,0,0,0,0,0c0,0,0,0,0,0c0,0,0,0,0,0c0,0,0,0,0,0c0,0,0,0,0,0c0,0,0,0,0,0c0,0,0,0,0,0c0,0,0,0,0,0c0,0,0,0,0,0s0,0,0,0s0,0,0,0
		c0,0,0,0,0,0c0,0,0,0,0,0c0,0,0,0,0,0c0,0,0,0,0,0c0,0,0,0,0,0c0,0,0,0,0,0c0,0,0,0,0,0s0,0,0,0c0,0,0,0,0,0c0,0,0,0,0,0s0,0,0,0
		c0,0,0,0,0,0c0,0,0,0,0,0c0,0,0,0,0,0c0,0,0,0,0,0c0,0,0,0,0,0c0,0,0,0,0,0c0,0,0,0,0,0c0,0,0,0,0,0c0,0,0,0,0,0c0,0,0,0,0,0
		c0,0,0,0,0,0c0,0,0,0,0,0c0,0,0,0,0,0c0,0,0,0,0,0c0,0,0,0,0,0s0,0,0,0c0,0,0,0,0,0c0,0,0,0,0,0s0,0,0,0c0,0,0,0,0,0c0,0,0,0,0,0
		c0,0,0,0,0,0s0,0,0,0c0,0,0,0,0,0c0,0,0,0,0,0c0,0,0,0,0,0c0,0,0,0,0,0s0,0,0,0c0,0,0,0,0,0c0,0,0,0,0,0c0,0,0,0,0,0c0,0,0,0,0,0
		c0,0,0,0,0,0c0,0,0,0,0,0c0,0,0,0,0,0c0,0,0,0,0,0c0,0,0,0,0,0c0,0,0,0,0,0c0,0,0,0,0,0c0,0,0,0,0,0c0,0,0,0,0,0c0,0,0,0,0,0
		c0,0,0,0,0,0s0,0,0,0c0,0,0,0,0,0s0,0,0,0c0,0,0,0,0,0c0,0,0,0,0,0s0,0,0,0c0,0,0,0,0,0c0,0,0,0,0,0c0,0,0,0,0,0s0,0,0,0
		c0,0,0,0,0,0c0,0,0,0,0,0c0,0,0,0,0,0s0,0,0,0c0,0,0,0,0,0s0,0,0,0c0,0,0,0,0,0s0,0,0,0c0,0,0,0,0,0c0,0,0,0,0,0c0,0,0,0,0,0
		c0,0,0,0,0,0c0,0,0,0,0,0s0,0,0,0c0,0,0,0,0,0s0,0,0,0c0,0,0,0,0,0s0,0,0,0c0,0,0,0,0,0c0,0,0,0,0,0s0,0,0,0c0,0,0,0,0,0s0,0,0,0
		c0,0,0,0,0,0s0,0,0,0c0,0,0,0,0,0c0,0,0,0,0,0s0,0,0,0c0,0,0,0,0,0c0,0,0,0,0,0c0,0,0,0,0,0c0,0,0,0,0,0s0,0,0,0c0,0,0,0,0,0
		c0,0,0,0,0,0s0,0,0,0c0,0,0,0,0,0s0,0,0,0s0,0,0,0c0,0,0,0,0,0s0,0,0,0s0,0,0,0c0,0,0,0,0,0s0,0,0,0s0,0,0,0c0,0,0,0,0,0s0,0,0,0
		s0,0,0,0c0,0,0,0,0,0c0,0,0,0,0,0s0,0,0,0c0,0,0,0,0,0c0,0,0,0,0,0s0,0,0,0s0,0,0,0c0,0,0,0,0,0s0,0,0,0c0,0,0,0,0,0c0,0,0,0,0,0
		c0,0,0,0,0,0c0,0,0,0,0,0s0,0,0,0c0,0,0,0,0,0c0,0,0,0,0,0s0,0,0,0c0,0,0,0,0,0s0,0,0,0c0,0,0,0,0,0c0,0,0,0,0,0c0,0,0,0,0,0
		s0,0,0,0c0,0,0,0,0,0c0,0,0,0,0,0c0,0,0,0,0,0c0,0,0,0,0,0s0,0,0,0c0,0,0,0,0,0c0,0,0,0,0,0c0,0,0,0,0,0c0,0,0,0,0,0c0,0,0,0,0,0
		s0,0,0,0c0,0,0,0,0,0c0,0,0,0,0,0c0,0,0,0,0,0c0,0,0,0,0,0s0,0,0,0s0,0,0,0c0,0,0,0,0,0c0,0,0,0,0,0c0,0,0,0,0,0c0,0,0,0,0,0
		c0,0,0,0,0,0c0,0,0,0,0,0c0,0,0,0,0,0c0,0,0,0,0,0c0,0,0,0,0,0c0,0,0,0,0,0c0,0,0,0,0,0c0,0,0,0,0,0c0,0,0,0,0,0c0,0,0,0,0,0
		c0,0,0,0,0,0c0,0,0,0,0,0c0,0,0,0,0,0c0,0,0,0,0,0c0,0,0,0,0,0c0,0,0,0,0,0c0,0,0,0,0,0c0,0,0,0,0,0c0,0,0,0,0,0c0,0,0,0,0,0
		c0,0,0,0,0,0c0,0,0,0,0,0c0,0,0,0,0,0c0,0,0,0,0,0c0,0,0,0,0,0c0,0,0,0,0,0c0,0,0,0,0,0c0,0,0,0,0,0c0,0,0,0,0,0c0,0,0,0,0,0
		c0,0,0,0,0,0c0,0,0,0,0,0c0,0,0,0,0,0c0,0,0,0,0,0c0,0,0,0,0,0c0,0,0,0,0,0c0,0,0,0,0,0c0,0,0,0,0,0c0,0,0,0,0,0c0,0,0,0,0,0
		c0,0,0,0,0,0c0,0,0,0,0,0c0,0,0,0,0,0c0,0,0,0,0,0c0,0,0,0,0,0c0,0,0,0,0,0c0,0,0,0,0,0c0,0,0,0,0,0c0,0,0,0,0,0c0,0,0,0,0,0
		s0,0,0,0c0,0,0,0,0,0c0,0,0,0,0,0c0,0,0,0,0,0c0,0,0,0,0,0c0,0,0,0,0,0c0,0,0,0,0,0s0,0,0,0c0,0,0,0,0,0c0,0,0,0,0,0c0,0,0,0,0,0
		c0,0,0,0,0,0s0,0,0,0s0,0,0,0c0,0,0,0,0,0c0,0,0,0,0,0c0,0,0,0,0,0c0,0,0,0,0,0c0,0,0,0,0,0c0,0,0,0,0,0c0,0,0,0,0,0c0,0,0,0,0,0
		s0,0,0,0c0,0,0,0,0,0c0,0,0,0,0,0c0,0,0,0,0,0c0,0,0,0,0,0c0,0,0,0,0,0c0,0,0,0,0,0c0,0,0,0,0,0c0,0,0,0,0,0c0,0,0,0,0,0
		c0,0,0,0,0,0c0,0,0,0,0,0s0,0,0,0c0,0,0,0,0,0c0,0,0,0,0,0c0,0,0,0,0,0c0,0,0,0,0,0c0,0,0,0,0,0c0,0,0,0,0,0c0,0,0,0,0,0
		c0,0,0,0,0,0c0,0,0,0,0,0s0,0,0,0c0,0,0,0,0,0c0,0,0,0,0,0c0,0,0,0,0,0c0,0,0,0,0,0c0,0,0,0,0,0c0,0,0,0,0,0c0,0,0,0,0,0
		c0,0,0,0,0,0c0,0,0,0,0,0c0,0,0,0,0,0s0,0,0,0c0,0,0,0,0,0c0,0,0,0,0,0c0,0,0,0,0,0c0,0,0,0,0,0c0,0,0,0,0,0c0,0,0,0,0,0
		c0,0,0,0,0,0c0,0,0,0,0,0c0,0,0,0,0,0s0,0,0,0c0,0,0,0,0,0c0,0,0,0,0,0c0,0,0,0,0,0c0,0,0,0,0,0c0,0,0,0,0,0c0,0,0,0,0,0
		c0,0,0,0,0,0c0,0,0,0,0,0c0,0,0,0,0,0c0,0,0,0,0,0c0,0,0,0,0,0c0,0,0,0,0,0c0,0,0,0,0,0c0,0,0,0,0,0c0,0,0,0,0,0c0,0,0,0,0,0
		c0,0,0,0,0,0c0,0,0,0,0,0c0,0,0,0,0,0c0,0,0,0,0,0c0,0,0,0,0,0c0,0,0,0,0,0c0,0,0,0,0,0c0,0,0,0,0,0c0,0,0,0,0,0c0,0,0,0,0,0
		c0,0,0,0,0,0c0,0,0,0,0,0c0,0,0,0,0,0c0,0,0,0,0,0c0,0,0,0,0,0c0,0,0,0,0,0c0,0,0,0,0,0s0,0,0,0c0,0,0,0,0,0c0,0,0,0,0,0
		c0,0,0,0,0,0c0,0,0,0,0,0c0,0,0,0,0,0c0,0,0,0,0,0c0,0,0,0,0,0c0,0,0,0,0,0c0,0,0,0,0,0s0,0,0,0c0,0,0,0,0,0c0,0,0,0,0,0
		c0,0,0,0,0,0c0,0,0,0,0,0c0,0,0,0,0,0c0,0,0,0,0,0c0,0,0,0,0,0c0,0,0,0,0,0c0,0,0,0,0,0c0,0,0,0,0,0c0,0,0,0,0,0c0,0,0,0,0,0
		c0,0,0,0,0,0c0,0,0,0,0,0c0,0,0,0,0,0c0,0,0,0,0,0c0,0,0,0,0,0c0,0,0,0,0,0c0,0,0,0,0,0c0,0,0,0,0,0c0,0,0,0,0,0c0,0,0,0,0,0
		c0,0,0,0,0,0c0,0,0,0,0,0c0,0,0,0,0,0c0,0,0,0,0,0c0,0,0,0,0,0c0,0,0,0,0,0c0,0,0,0,0,0c0,0,0,0,0,0c0,0,0,0,0,0c0,0,0,0,0,0
		c0,0,0,0,0,0c0,0,0,0,0,0c0,0,0,0,0,0c0,0,0,0,0,0c0,0,0,0,0,0c0,0,0,0,0,0c0,0,0,0,0,0c0,0,0,0,0,0c0,0,0,0,0,0c0,0,0,0,0,0
		L390.72,105.91z M390.84,105.9c-0.22-0.06-0.43-0.01-0.49,0l0.34,1.58c0,0-0.01,0-0.05,0.01c-0.02,0-0.04,0-0.07,0
		c-0.03,0-0.08-0.01-0.14-0.02L390.84,105.9z M392.64,107.78c-0.05-0.47-0.24-0.91-0.59-1.25c-0.34-0.33-0.77-0.53-1.24-0.63
		l-0.36,1.58c0.27,0.06,0.4,0.15,0.46,0.21c0.05,0.05,0.1,0.12,0.11,0.27L392.64,107.78z M392.41,110.58
		c0.24-1.12,0.34-2.09,0.22-2.84l-1.6,0.25c0.07,0.45,0.03,1.18-0.2,2.25L392.41,110.58z M392.17,111.91l0.24-1.37l-1.59-0.28
		l-0.24,1.37L392.17,111.91z M395.16,112.41c-0.82-0.21-1.96-0.66-3.43-1.37l-0.7,1.46c1.51,0.72,2.76,1.22,3.73,1.48L395.16,112.41
		z M397.54,112.71c-1.01-0.04-1.8-0.15-2.38-0.3l-0.41,1.57c0.73,0.19,1.65,0.3,2.72,0.35L397.54,112.71z M397.91,110.77
		c-0.21,0.79-0.56,1.56-1.07,2.29l1.33,0.92c0.61-0.88,1.05-1.82,1.31-2.81L397.91,110.77z M397.75,106.75
		c0.46,1.34,0.52,2.67,0.17,4.02l1.57,0.41c0.43-1.66,0.36-3.32-0.2-4.96L397.75,106.75z M395.38,103.17
		c1.12,1.01,1.9,2.19,2.37,3.57l1.53-0.52c-0.55-1.65-1.5-3.07-2.82-4.26L395.38,103.17z M391.5,101.05
		c1.47,0.38,2.76,1.09,3.87,2.12l1.1-1.19c-1.31-1.21-2.83-2.04-4.56-2.49L391.5,101.05z M388.78,100.75
		c0.91-0.04,1.81,0.06,2.72,0.3l0.41-1.57c-1.06-0.28-2.13-0.39-3.2-0.35L388.78,100.75z M386.62,101.14
		c0.46-0.21,1.16-0.35,2.14-0.38l-0.05-1.62c-1.09,0.03-2.03,0.19-2.76,0.52L386.62,101.14z M385.39,102.05
		c0.46-0.42,0.88-0.73,1.28-0.94l-0.77-1.42c-0.54,0.29-1.07,0.68-1.6,1.17L385.39,102.05z M384.27,103.34
		c0.32-0.44,0.7-0.88,1.14-1.3l-1.13-1.16c-0.5,0.48-0.94,0.99-1.33,1.52L384.27,103.34z M383.67,104.36c0.2-0.41,0.4-0.75,0.6-1.01
		l-1.3-0.96c-0.27,0.36-0.52,0.79-0.75,1.27L383.67,104.36z M383.35,105.33c0.05-0.29,0.16-0.62,0.33-1.01l-1.48-0.65
		c-0.2,0.47-0.35,0.92-0.44,1.35L383.35,105.33z M382.89,106.98l0.45-1.58l-1.56-0.44l-0.45,1.58L382.89,106.98z M381.43,112.45
		c0.58-2.23,1.07-4.05,1.46-5.47l-1.56-0.43c-0.4,1.43-0.89,3.27-1.47,5.5L381.43,112.45z M379.64,120.03
		c0.49-2.36,1.09-4.89,1.79-7.58l-1.57-0.41c-0.71,2.71-1.31,5.27-1.81,7.66L379.64,120.03z M380.78,123.6
		c-0.99-1-1.36-2.17-1.14-3.61l-1.6-0.25c-0.3,1.93,0.23,3.63,1.58,5L380.78,123.6z M384.91,125.88c-1.71-0.45-3.08-1.21-4.13-2.28
		l-1.15,1.14c1.29,1.3,2.92,2.2,4.88,2.71L384.91,125.88z M386.29,126.14c-0.39-0.03-0.84-0.12-1.38-0.26l-0.41,1.57
		c0.59,0.15,1.14,0.26,1.64,0.3L386.29,126.14z M390.19,126c-1.23,0.4-2.49,0.45-3.79,0.16l-0.36,1.58c1.58,0.36,3.14,0.29,4.65-0.2
		L390.19,126z M393.36,124c-0.88,0.93-1.93,1.59-3.17,1.99l0.5,1.54c1.5-0.49,2.78-1.29,3.85-2.42L393.36,124z M395.18,120.82
		c-0.31,1.2-0.91,2.26-1.81,3.18l1.16,1.13c1.09-1.12,1.83-2.42,2.22-3.9L395.18,120.82z M395.4,118.4c0.06,0.8-0.01,1.61-0.22,2.42
		l1.57,0.41c0.25-0.98,0.35-1.96,0.27-2.95L395.4,118.4z M393.69,118.21c0.79,0.21,1.5,0.48,2.14,0.83l0.78-1.42
		c-0.77-0.42-1.6-0.74-2.51-0.98L393.69,118.21z M392.07,117.83l1.63,0.39l0.37-1.57l-1.63-0.39L392.07,117.83z M390.28,117.2
		c0.6,0.26,1.19,0.47,1.78,0.62l0.41-1.57c-0.49-0.13-1.01-0.31-1.53-0.54L390.28,117.2z M390.82,118.29
		c0.18-0.68,0.35-1.15,0.51-1.45l-1.43-0.76c-0.24,0.46-0.45,1.06-0.64,1.79L390.82,118.29z M389.81,120.53
		c0.44-0.53,0.76-1.31,1-2.24l-1.57-0.41c-0.22,0.86-0.47,1.36-0.68,1.61L389.81,120.53z M389.43,119.23l-0.04-0.01l-0.41,1.57
		l0.04,0.01L389.43,119.23z M386.82,121.43c0.54,0.17,1.09,0.2,1.63,0.04c0.53-0.16,0.99-0.48,1.38-0.91l-1.19-1.09
		c-0.24,0.26-0.46,0.39-0.65,0.45c-0.18,0.05-0.4,0.06-0.67-0.03L386.82,121.43z M385.5,119.35c0.18,0.77,0.5,1.44,1.04,1.91
		l1.07-1.22c-0.2-0.17-0.39-0.49-0.52-1.05L385.5,119.35z M385.41,117.04c-0.11,0.75-0.08,1.52,0.09,2.3l1.58-0.34
		c-0.13-0.6-0.15-1.18-0.07-1.73L385.41,117.04z M386.28,113.26c-0.38,1.47-0.67,2.72-0.86,3.75l1.59,0.3
		c0.18-0.98,0.46-2.19,0.84-3.64L386.28,113.26z M387.5,109.02c-0.44,1.38-0.84,2.79-1.22,4.24l1.57,0.41
		c0.37-1.42,0.77-2.81,1.2-4.16L387.5,109.02z M388.41,106.56c-0.09,0.1-0.14,0.22-0.16,0.24c-0.03,0.05-0.05,0.11-0.07,0.17
		c-0.05,0.12-0.1,0.27-0.17,0.46c-0.13,0.37-0.3,0.9-0.52,1.59l1.54,0.49c0.22-0.68,0.38-1.2,0.51-1.55
		c0.06-0.18,0.11-0.3,0.14-0.39c0.02-0.04,0.03-0.06,0.03-0.07c0.02-0.03-0.01,0.04-0.09,0.12L388.41,106.56z M390.41,106.67
		l-0.08,0.81c0.42,0.04,0.8-0.25,0.87-0.66c0.07-0.42-0.18-0.82-0.59-0.92L390.41,106.67z M390.58,105.87
		c-0.43-0.11-0.87,0.15-0.99,0.58c-0.11,0.43,0.15,0.87,0.58,0.99L390.58,105.87z M390.52,106.69l-0.2,0.78
		c0.12,0.03,0.25,0.03,0.37,0.01L390.52,106.69z M390.63,106.69l-0.2,0.78c0.01,0,0.02,0,0.03,0.01L390.63,106.69z M391.83,107.86
		l-0.8,0.08c0,0.01,0,0.03,0.01,0.04L391.83,107.86z M391.62,110.41l-0.79-0.17c0,0.01,0,0.02-0.01,0.03L391.62,110.41z
		 M391.38,111.77l-0.8-0.14c-0.06,0.36,0.12,0.71,0.45,0.87L391.38,111.77z M397.51,113.52l-0.04,0.81c0.28,0.01,0.54-0.12,0.7-0.35
		L397.51,113.52z M398.51,106.48l-0.77,0.26l0,0.01L398.51,106.48z M395.92,102.57l-0.55,0.59l0.01,0.01L395.92,102.57z
		 M388.74,99.95l0.02,0.81l0.01,0L388.74,99.95z M386.29,100.4l-0.33-0.74c-0.02,0.01-0.04,0.02-0.05,0.03L386.29,100.4z
		 M384.85,101.45l-0.54-0.6c-0.01,0.01-0.01,0.01-0.02,0.02L384.85,101.45z M383.62,102.86l0.65,0.48l0,0L383.62,102.86z
		 M382.94,104l-0.73-0.35c0,0.01-0.01,0.02-0.01,0.03L382.94,104z M382.56,105.18l0.78,0.22c0.01-0.02,0.01-0.05,0.02-0.07
		L382.56,105.18z M382.11,106.76l-0.78-0.22l0,0L382.11,106.76z M378.84,119.87l-0.79-0.16c0,0.01-0.01,0.03-0.01,0.04
		L378.84,119.87z M380.2,124.17l-0.58,0.57L380.2,124.17z M386.22,126.94l0.18-0.79c-0.03-0.01-0.07-0.01-0.11-0.02L386.22,126.94z
		 M390.44,126.77l-0.25-0.77L390.44,126.77z M393.95,124.56l-0.58-0.56l-0.01,0.01L393.95,124.56z M396.21,118.34l0.81-0.06
		c-0.02-0.27-0.18-0.52-0.42-0.65L396.21,118.34z M393.89,117.43l0.2-0.78c-0.01,0-0.01,0-0.02,0L393.89,117.43z M392.26,117.04
		l-0.2,0.78c0.01,0,0.01,0,0.02,0L392.26,117.04z M390.61,116.46l0.33-0.74c-0.39-0.17-0.84-0.01-1.04,0.36L390.61,116.46z
		 M389.19,120.01l-0.62-0.52c-0.18,0.21-0.23,0.5-0.15,0.77c0.08,0.26,0.3,0.47,0.57,0.54L389.19,120.01z M389.23,120.02l0.6,0.55
		c0.19-0.21,0.26-0.5,0.18-0.78c-0.08-0.27-0.3-0.48-0.57-0.55L389.23,120.02z M387.07,120.66l-0.53,0.61
		c0.08,0.07,0.18,0.13,0.28,0.16L387.07,120.66z M386.29,119.17l-0.79,0.17l0,0.01L386.29,119.17z M386.21,117.16l-0.8-0.15
		c0,0.01,0,0.02-0.01,0.03L386.21,117.16z M388.27,109.27l0.77,0.24L388.27,109.27z M389.02,107.09l0.61,0.53
		c0.05-0.06,0.09-0.12,0.12-0.19L389.02,107.09z"/>
	<path d="M193.98,84.98c-0.11-0.15-0.21-0.32-0.28-0.51l-1.11,0.45c0.12,0.29,0.26,0.54,0.43,0.77L193.98,84.98z M195.51,86.32
		c-0.1-0.08-0.2-0.16-0.3-0.23c-0.1-0.07-0.19-0.15-0.29-0.22l-0.73,0.95c0.1,0.08,0.2,0.15,0.29,0.22c0.1,0.07,0.19,0.15,0.29,0.22
		L195.51,86.32z M197.61,88.08c-0.67-0.61-1.37-1.2-2.1-1.76l-0.73,0.95c0.7,0.54,1.37,1.11,2.02,1.7L197.61,88.08z M203.22,93.98
		c-0.59-0.67-1.19-1.35-1.8-2.02l-0.89,0.81c0.6,0.66,1.19,1.33,1.78,2.01L203.22,93.98z M204.56,95.55
		c-0.43-0.53-0.88-1.06-1.34-1.58l-0.9,0.79c0.45,0.51,0.89,1.03,1.31,1.55L204.56,95.55z M209.3,102.34
		c-0.7-1.18-1.44-2.35-2.24-3.49l-0.98,0.69c0.78,1.11,1.51,2.25,2.19,3.41L209.3,102.34z M212.87,109.83
		c-0.48-1.3-1.02-2.57-1.62-3.82l-1.08,0.52c0.58,1.22,1.11,2.46,1.58,3.72L212.87,109.83z M215.03,117.83
		c-0.24-1.37-0.54-2.73-0.9-4.05l-1.16,0.31c0.35,1.29,0.64,2.61,0.87,3.95L215.03,117.83z M215.68,124.02
		c-0.03-0.7-0.07-1.39-0.12-2.07l-1.2,0.1c0.05,0.67,0.09,1.34,0.12,2.02L215.68,124.02z M215.69,125.88
		c0.01-0.64,0.01-1.26-0.01-1.86l-1.2,0.04c0.02,0.57,0.03,1.17,0.01,1.79L215.69,125.88z M214.82,133.23
		c0.27-1.23,0.47-2.46,0.61-3.66l-1.19-0.14c-0.14,1.16-0.33,2.35-0.59,3.54L214.82,133.23z M212.4,140.26
		c0.56-1.1,1.03-2.26,1.43-3.44l-1.14-0.39c-0.39,1.14-0.84,2.25-1.37,3.29L212.4,140.26z M207.74,146.14
		c1-0.77,1.89-1.68,2.67-2.69l-0.95-0.73c-0.73,0.94-1.54,1.78-2.45,2.47L207.74,146.14z M202.52,148.45
		c0.65-0.12,1.26-0.28,1.86-0.49l-0.4-1.13c-0.53,0.19-1.09,0.33-1.67,0.44L202.52,148.45z M200.34,148.69
		c0.69-0.03,1.42-0.11,2.19-0.24l-0.21-1.18c-0.72,0.13-1.39,0.2-2.02,0.23L200.34,148.69z M192.65,144.79
		c0.8,1.34,1.87,2.41,3.29,3.09l0.52-1.08c-1.17-0.56-2.08-1.45-2.78-2.62L192.65,144.79z M190.76,138.52
		c0.09,0.74,0.21,1.46,0.36,2.14l1.17-0.25c-0.14-0.65-0.25-1.33-0.34-2.03L190.76,138.52z M190.72,136.66
		c-0.05,0.58-0.04,1.2,0.04,1.86l1.19-0.15c-0.07-0.58-0.08-1.12-0.04-1.61L190.72,136.66z M195.23,131.09
		c-1.22,0.46-2.29,1.13-3.1,2.07l0.91,0.78c0.64-0.75,1.53-1.32,2.61-1.73L195.23,131.09z M200.54,130.23c-0.6,0-1.2,0.03-1.78,0.09
		l0.11,1.19c0.55-0.05,1.11-0.08,1.68-0.08L200.54,130.23z M203.49,130.39c-0.88-0.12-1.85-0.17-2.95-0.16l0.01,1.2
		c1.06-0.01,1.97,0.04,2.78,0.15L203.49,130.39z M211.22,134.62c-0.78-0.74-1.51-1.38-2.22-1.92l-0.72,0.96
		c0.67,0.5,1.35,1.11,2.12,1.84L211.22,134.62z M212.85,136.16c-0.55-0.53-1.1-1.04-1.63-1.54l-0.83,0.87
		c0.53,0.5,1.07,1.01,1.63,1.54L212.85,136.16z M219.19,142.56c-1.03-1.14-2.08-2.23-3.11-3.27l-0.85,0.85
		c1.03,1.03,2.06,2.1,3.07,3.22L219.19,142.56z M224.72,149.73c-0.82-1.29-1.7-2.53-2.61-3.71l-0.95,0.74
		c0.9,1.16,1.75,2.36,2.55,3.62L224.72,149.73z M228.62,157.95c-0.47-1.47-1.04-2.88-1.69-4.23l-1.08,0.52
		c0.63,1.31,1.18,2.67,1.63,4.08L228.62,157.95z M229.99,164.66c-0.07-0.77-0.16-1.53-0.29-2.27l-1.18,0.2
		c0.12,0.71,0.21,1.44,0.28,2.18L229.99,164.66z M230.08,166.53c-0.01-0.63-0.04-1.26-0.1-1.88l-1.2,0.11
		c0.05,0.59,0.08,1.19,0.09,1.79L230.08,166.53z M229.35,173.97c0.24-1.22,0.43-2.46,0.56-3.69l-1.19-0.12
		c-0.12,1.19-0.31,2.39-0.54,3.58L229.35,173.97z M227.39,181.15c0.4-1.14,0.77-2.33,1.1-3.55l-1.16-0.32
		c-0.33,1.19-0.69,2.36-1.08,3.48L227.39,181.15z M224.52,188.01c0.51-1.02,1.04-2.15,1.55-3.38l-1.11-0.46
		c-0.5,1.2-1.02,2.32-1.51,3.31L224.52,188.01z M221.42,192.81c0.37-0.33,0.8-0.87,1.25-1.54l-1-0.67
		c-0.43,0.65-0.79,1.08-1.05,1.31L221.42,192.81z M193.01,85.68c0.2,0.27,0.57,0.33,0.84,0.13c0.27-0.2,0.33-0.57,0.13-0.84
		L193.01,85.68z M194.92,85.87c-0.26-0.2-0.64-0.15-0.84,0.11c-0.2,0.26-0.15,0.64,0.11,0.84L194.92,85.87z M196.8,88.97
		c0.25,0.22,0.62,0.2,0.85-0.04c0.22-0.25,0.2-0.62-0.04-0.85L196.8,88.97z M201.42,91.96c-0.22-0.25-0.6-0.26-0.85-0.04
		c-0.25,0.22-0.26,0.6-0.04,0.85L201.42,91.96z M203.63,96.31c0.21,0.26,0.59,0.29,0.84,0.08c0.26-0.21,0.29-0.59,0.08-0.84
		L203.63,96.31z M207.06,98.85c-0.19-0.27-0.56-0.34-0.84-0.15c-0.27,0.19-0.34,0.56-0.15,0.84L207.06,98.85z M208.27,102.95
		c0.17,0.29,0.54,0.38,0.82,0.21c0.29-0.17,0.38-0.54,0.21-0.82L208.27,102.95z M211.25,106c-0.14-0.3-0.5-0.43-0.8-0.28
		c-0.3,0.14-0.43,0.5-0.28,0.8L211.25,106z M211.75,110.24c0.12,0.31,0.46,0.47,0.77,0.35c0.31-0.12,0.47-0.46,0.35-0.77
		L211.75,110.24z M214.14,113.78c-0.09-0.32-0.42-0.51-0.74-0.42c-0.32,0.09-0.51,0.42-0.42,0.74L214.14,113.78z M213.85,118.04
		c0.06,0.33,0.37,0.55,0.69,0.49c0.33-0.06,0.55-0.37,0.49-0.69L213.85,118.04z M215.55,121.95c-0.03-0.33-0.32-0.58-0.65-0.55
		s-0.58,0.32-0.55,0.65L215.55,121.95z M214.49,125.86c-0.01,0.33,0.26,0.61,0.59,0.61c0.33,0.01,0.61-0.26,0.61-0.59L214.49,125.86
		z M215.43,129.58c0.04-0.33-0.2-0.63-0.53-0.67c-0.33-0.04-0.63,0.2-0.67,0.53L215.43,129.58z M213.65,132.98
		c-0.07,0.32,0.13,0.64,0.46,0.71c0.32,0.07,0.64-0.13,0.71-0.46L213.65,132.98z M213.83,136.81c0.11-0.31-0.06-0.65-0.38-0.76
		c-0.31-0.11-0.65,0.06-0.76,0.38L213.83,136.81z M211.33,139.72c-0.15,0.3-0.03,0.66,0.27,0.81c0.3,0.15,0.66,0.03,0.81-0.27
		L211.33,139.72z M210.41,143.44c0.2-0.26,0.15-0.64-0.11-0.84c-0.26-0.2-0.64-0.15-0.84,0.11L210.41,143.44z M207.01,145.19
		c-0.26,0.2-0.31,0.58-0.11,0.84s0.58,0.31,0.84,0.11L207.01,145.19z M204.38,147.96c0.31-0.11,0.48-0.45,0.37-0.76
		c-0.11-0.31-0.45-0.48-0.76-0.37L204.38,147.96z M200.29,147.5c-0.33,0.01-0.59,0.29-0.58,0.62c0.01,0.33,0.29,0.59,0.62,0.58
		L200.29,147.5z M195.94,147.89c0.3,0.14,0.66,0.02,0.8-0.28c0.14-0.3,0.02-0.66-0.28-0.8L195.94,147.89z M193.68,144.18
		c-0.17-0.28-0.54-0.38-0.82-0.21c-0.28,0.17-0.38,0.54-0.21,0.82L193.68,144.18z M191.12,140.66c0.07,0.32,0.39,0.53,0.71,0.46
		c0.32-0.07,0.53-0.39,0.46-0.71L191.12,140.66z M191.91,136.77c0.03-0.33-0.22-0.62-0.55-0.65c-0.33-0.03-0.62,0.22-0.65,0.55
		L191.91,136.77z M192.13,133.17c-0.21,0.25-0.18,0.63,0.07,0.85c0.25,0.21,0.63,0.18,0.85-0.07L192.13,133.17z M195.65,132.21
		c0.31-0.12,0.47-0.46,0.35-0.77c-0.12-0.31-0.46-0.47-0.77-0.35L195.65,132.21z M198.76,130.32c-0.33,0.03-0.57,0.32-0.54,0.65
		s0.32,0.57,0.65,0.54L198.76,130.32z M203.33,131.58c0.33,0.04,0.63-0.19,0.67-0.51c0.04-0.33-0.19-0.63-0.51-0.67L203.33,131.58z
		 M209,132.7c-0.26-0.2-0.64-0.15-0.84,0.12s-0.15,0.64,0.12,0.84L209,132.7z M212.02,137.03c0.24,0.23,0.62,0.22,0.85-0.02
		c0.23-0.24,0.22-0.62-0.02-0.85L212.02,137.03z M216.08,139.29c-0.23-0.23-0.61-0.23-0.85,0c-0.23,0.23-0.23,0.61,0,0.85
		L216.08,139.29z M218.3,143.36c0.22,0.25,0.6,0.27,0.85,0.04s0.27-0.6,0.04-0.85L218.3,143.36z M222.1,146.03
		c-0.2-0.26-0.58-0.31-0.84-0.11c-0.26,0.2-0.31,0.58-0.11,0.84L222.1,146.03z M223.7,150.38c0.18,0.28,0.55,0.36,0.83,0.19
		c0.28-0.18,0.36-0.55,0.19-0.83L223.7,150.38z M226.93,153.71c-0.14-0.3-0.5-0.42-0.8-0.28c-0.3,0.14-0.42,0.5-0.28,0.8
		L226.93,153.71z M227.48,158.31c0.1,0.32,0.44,0.49,0.75,0.39c0.32-0.1,0.49-0.44,0.39-0.75L227.48,158.31z M229.7,162.39
		c-0.05-0.33-0.36-0.55-0.69-0.49c-0.33,0.05-0.55,0.36-0.49,0.69L229.7,162.39z M228.88,166.55c0,0.33,0.28,0.6,0.61,0.59
		c0.33,0,0.6-0.28,0.59-0.61L228.88,166.55z M229.91,170.28c0.03-0.33-0.21-0.62-0.54-0.66c-0.33-0.03-0.62,0.21-0.66,0.54
		L229.91,170.28z M228.17,173.74c-0.06,0.33,0.15,0.64,0.47,0.7c0.33,0.06,0.64-0.15,0.7-0.47L228.17,173.74z M228.49,177.6
		c0.09-0.32-0.1-0.65-0.42-0.74c-0.32-0.09-0.65,0.1-0.74,0.42L228.49,177.6z M226.26,180.75c-0.11,0.31,0.06,0.65,0.37,0.76
		s0.65-0.06,0.76-0.37L226.26,180.75z M226.07,184.62c0.13-0.31-0.02-0.66-0.32-0.78c-0.31-0.13-0.66,0.02-0.78,0.32L226.07,184.62z
		 M223.45,187.47c-0.15,0.3-0.03,0.66,0.27,0.81s0.66,0.03,0.81-0.27L223.45,187.47z M222.66,191.26c0.18-0.28,0.11-0.65-0.17-0.83
		c-0.28-0.18-0.65-0.11-0.83,0.17L222.66,191.26z M220.62,191.91c-0.25,0.22-0.27,0.6-0.05,0.85c0.22,0.25,0.6,0.27,0.85,0.05
		L220.62,191.91z M229.39,164.71l0.6-0.05L229.39,164.71z M210.81,135.05l-0.41,0.44L210.81,135.05z M200.54,130.83l0,0.6
		L200.54,130.83z M191.36,138.45l0.6-0.07L191.36,138.45z M202.42,147.86l-0.11-0.59L202.42,147.86z M215.08,124.05l-0.6,0.02
		L215.08,124.05z M202.77,94.37l0.45-0.4L202.77,94.37z M195.14,86.79l0.37-0.48L195.14,86.79z M193.7,84.47
		c-0.12-0.31-0.47-0.46-0.78-0.33s-0.46,0.47-0.33,0.78L193.7,84.47z"/>
	<circle class="st16" cx="205.55" cy="74.5" r="48.5"/>
	<g>
		<defs>
			<circle id="SVGID_00000138536106674147980140000013143385891740558743_" cx="205.55" cy="74.5" r="48.5"/>
		</defs>
		<clipPath id="SVGID_00000112614635120955136650000004366783247315584404_">
			<use xlink:href="#SVGID_00000138536106674147980140000013143385891740558743_"  style="overflow:visible;"/>
		</clipPath>
		<path style="clip-path:url(#SVGID_00000112614635120955136650000004366783247315584404_);fill:#18292D;" d="M205.55,28
			c-25.68,0-46.5,20.82-46.5,46.5h-4c0-27.89,22.61-50.5,50.5-50.5V28z M252.05,74.5c0-25.68-20.82-46.5-46.5-46.5v-4
			c27.89,0,50.5,22.61,50.5,50.5H252.05z M205.55,121c25.68,0,46.5-20.82,46.5-46.5h4c0,27.89-22.61,50.5-50.5,50.5V121z
			 M159.05,74.5c0,25.68,20.82,46.5,46.5,46.5v4c-27.89,0-50.5-22.61-50.5-50.5H159.05z"/>
	</g>
	<path d="M217.51,98.1c-4.31,0-8.24-1.64-11.22-4.3c3.16-3.17,5.12-7.51,5.12-12.31c0-0.49-0.04-0.96-0.07-1.44
		c6.21-2.12,10.87-7.57,11.78-14.19c6.49,2.29,11.16,8.42,11.16,15.63C234.28,90.65,226.76,98.1,217.51,98.1z M200.74,81.5
		c0-0.4,0.03-0.77,0.05-1.16c1.54,0.43,3.15,0.68,4.82,0.68c1.67,0,3.28-0.24,4.82-0.68c0.03,0.39,0.06,0.77,0.06,1.16
		c0,4.56-1.87,8.69-4.89,11.69C202.61,90.19,200.74,86.05,200.74,81.5z M193.72,98.1c-9.24,0-16.77-7.45-16.77-16.6
		c0-7.21,4.67-13.34,11.16-15.63c0.91,6.62,5.56,12.07,11.78,14.19c-0.04,0.48-0.07,0.95-0.07,1.44c0,4.79,1.96,9.14,5.12,12.31
		C201.98,96.46,198.05,98.1,193.72,98.1z M206.29,69.19c2.98-2.67,6.91-4.3,11.22-4.3c1.65,0,3.23,0.24,4.74,0.68
		c-0.8,6.29-5.16,11.49-11.02,13.56C210.7,75.28,208.92,71.82,206.29,69.19z M200.01,79.14c-5.86-2.07-10.23-7.27-11.02-13.56
		c1.5-0.44,3.09-0.68,4.73-0.68c4.32,0,8.25,1.63,11.23,4.3C202.31,71.82,200.54,75.28,200.01,79.14z M205.62,69.8
		c2.55,2.54,4.27,5.89,4.74,9.62c-1.51,0.44-3.09,0.68-4.74,0.68s-3.23-0.24-4.73-0.68C201.36,75.69,203.07,72.34,205.62,69.8z
		 M205.62,46.9c9.25,0,16.77,7.44,16.77,16.6c0,0.39-0.03,0.77-0.05,1.16c-1.54-0.43-3.15-0.68-4.82-0.68
		c-4.58,0-8.74,1.75-11.89,4.59c-3.14-2.84-7.31-4.59-11.89-4.59c-1.67,0-3.28,0.24-4.81,0.68c-0.03-0.39-0.06-0.77-0.06-1.16
		C188.85,54.34,196.37,46.9,205.62,46.9z M223.22,64.95c0.05-0.48,0.07-0.96,0.07-1.44c0-9.66-7.93-17.5-17.68-17.5
		s-17.68,7.85-17.68,17.5c0,0.49,0.04,0.96,0.07,1.44c-6.95,2.36-11.97,8.87-11.97,16.55c0,9.65,7.93,17.5,17.68,17.5
		c4.59,0,8.75-1.75,11.89-4.59c3.15,2.84,7.32,4.59,11.89,4.59c9.75,0,17.68-7.86,17.68-17.5
		C235.19,73.82,230.18,67.31,223.22,64.95z"/>
	<path class="st21" d="M204.95,93.8c-2.98,2.66-6.91,4.3-11.23,4.3c-9.24,0-16.77-7.45-16.77-16.6c0-7.21,4.67-13.34,11.16-15.63
		c0.91,6.62,5.56,12.07,11.78,14.19c-0.04,0.48-0.07,0.95-0.07,1.44C199.83,86.29,201.79,90.63,204.95,93.8z"/>
	<path class="st22" d="M204.95,69.19c-2.64,2.63-4.41,6.09-4.94,9.95c-5.86-2.07-10.23-7.27-11.02-13.56
		c1.5-0.44,3.09-0.68,4.73-0.68C198.05,64.89,201.98,66.52,204.95,69.19z"/>
	<path class="st18" d="M222.39,63.5c0,0.39-0.03,0.77-0.05,1.16c-1.54-0.43-3.15-0.68-4.82-0.68c-4.58,0-8.74,1.75-11.89,4.59
		c-3.14-2.84-7.31-4.59-11.89-4.59c-1.67,0-3.28,0.24-4.81,0.68c-0.03-0.39-0.06-0.77-0.06-1.16c0-9.16,7.53-16.6,16.77-16.6
		C214.86,46.9,222.39,54.34,222.39,63.5z"/>
	<path class="st3" d="M210.36,79.42c-1.51,0.44-3.09,0.68-4.74,0.68s-3.23-0.24-4.73-0.68c0.47-3.73,2.18-7.08,4.73-9.62
		C208.17,72.34,209.89,75.69,210.36,79.42z"/>
	<path class="st3" d="M210.5,81.5c0,4.56-1.87,8.69-4.89,11.69c-3.01-3-4.88-7.14-4.88-11.69c0-0.4,0.03-0.77,0.05-1.16
		c1.54,0.43,3.15,0.68,4.82,0.68c1.67,0,3.28-0.24,4.82-0.68C210.47,80.72,210.5,81.1,210.5,81.5z"/>
	<path class="st3" d="M222.25,65.58c-0.8,6.29-5.16,11.49-11.02,13.56c-0.53-3.86-2.31-7.32-4.94-9.95c2.98-2.67,6.91-4.3,11.22-4.3
		C219.16,64.89,220.74,65.13,222.25,65.58z"/>
	<path class="st3" d="M234.28,81.5c0,9.15-7.53,16.6-16.77,16.6c-4.31,0-8.24-1.64-11.22-4.3c3.16-3.17,5.12-7.51,5.12-12.31
		c0-0.49-0.04-0.96-0.07-1.44c6.21-2.12,10.87-7.57,11.78-14.19C229.61,68.15,234.28,74.29,234.28,81.5z"/>
</g>
</svg>
