<?xml version="1.0" encoding="utf-8"?>
<!-- Generator: Adobe Illustrator 27.0.0, SVG Export Plug-In . SVG Version: 6.00 Build 0)  -->
<svg version="1.1" id="Layer_1" xmlns="http://www.w3.org/2000/svg" xmlns:xlink="http://www.w3.org/1999/xlink" x="0px" y="0px"
	 viewBox="0 0 460 460" style="enable-background:new 0 0 460 460;" xml:space="preserve">
<style type="text/css">
	.st0{clip-path:url(#SVGID_00000023263419532938646420000001659628233403457198_);}
	.st1{fill:#FFFFFF;}
	.st2{fill:#FEFCEB;}
	.st3{fill:none;stroke:#000000;stroke-width:1.2;stroke-linecap:round;stroke-linejoin:round;stroke-dasharray:4,4;}
	.st4{fill:#FF85AD;stroke:#18292D;stroke-width:1.7168;}
	.st5{fill:#F8D512;stroke:#000000;stroke-width:4.292;}
	.st6{clip-path:url(#SVGID_00000140007021122301496030000006527842252854576805_);}
	.st7{fill:#486758;stroke:#000000;}
	.st8{fill:#87AB99;stroke:#000000;}
	.st9{fill:#FFFFFF;filter:url(#Adobe_OpacityMaskFilter);}
	.st10{mask:url(#path-14-inside-1_532_8536_00000034811340335400662940000010081767316591188632_);}
	.st11{fill:#E9EAEC;}
	.st12{stroke:#000000;}
	.st13{fill:none;stroke:#000000;}
	.st14{fill:#FFFFFF;stroke:#000000;stroke-linejoin:round;}
	.st15{fill:#F8D512;}
	.st16{fill:#87AB99;}
	.st17{fill:#82B958;stroke:#000000;stroke-width:2;}
	.st18{fill:#EC732E;stroke:#000000;stroke-width:2;}
	.st19{fill:#FFD7B1;}
	.st20{fill:#F8D512;stroke:#000000;stroke-width:2;}
</style>
<g>
	<defs>
		<rect id="SVGID_1_" width="460" height="460"/>
	</defs>
	<clipPath id="SVGID_00000107555650974925661250000009809667440534216114_">
		<use xlink:href="#SVGID_1_"  style="overflow:visible;"/>
	</clipPath>
	<g style="clip-path:url(#SVGID_00000107555650974925661250000009809667440534216114_);">
		<rect class="st1" width="460" height="460"/>
		<path class="st2" d="M44.91,355.32c44.81,82,143.98,47.29,238.45,42.5c59.8-3.03,129.42,15,150.45-29.5
			c21.03-44.5,37.13-209.5-21.25-279.5c-58.38-70-119.62-44.5-142.94-23c-18.03,14.33-71.69,36.8-142.08,12
			c-70.4-24.8-104.45,42-112.68,78.5C6.78,182.82,0.1,273.32,44.91,355.32z"/>
		<path class="st3" d="M92.87,109.27c1.06,0.79,2.32,0.72,3.69,0.79c4.78,0.23,9.35,1.36,13.82,2.53
			c14.14,3.68,25.45,11.26,32.72,23.63c5.32,9.04,9.87,26.81-1.2,36.61c-8.31,7.36-14.31,4.69-19.1-1.89
			c-4.22-5.8,0.3-11.6,6.64-15.74c5.86-3.82,9.07-4.24,15.03-3.3c12.8,2.01,30.76,4.38,40.35,18.69c7.9,11.78,7.97,33.26,6.32,37.55
			"/>
		<circle class="st4" cx="116.95" cy="79.95" r="47.64"/>
		<path class="st5" d="M132.96,67.49c1.76-0.17,2.97,1.74,2.04,3.26l-18.83,30.78c-0.83,1.36-2.8,1.37-3.65,0.02L95.45,74.31
			c-0.85-1.35,0.02-3.12,1.61-3.28L132.96,67.49z"/>
		<path class="st3" d="M298.36,68.9c-1.09,0.73-2.35,0.61-3.73,0.61c-4.78,0-9.41,0.91-13.92,1.86c-14.3,3-25.96,10.03-33.82,22.03
			c-5.74,8.78-11.14,26.31-0.56,36.63c7.95,7.75,14.07,5.37,19.17-0.97c4.5-5.6,0.25-11.61-5.88-16.04
			c-5.67-4.1-8.86-4.67-14.85-4.02c-12.88,1.39-30.93,2.9-41.2,16.74c-8.45,11.39-9.55,32.84-8.11,37.21"/>
		<circle class="st4" cx="310.2" cy="74.1" r="47.64"/>
		<g>
			<defs>
				
					<rect id="SVGID_00000150815285406212726790000017011672822106212274_" x="286.5" y="49.5" transform="matrix(0.2944 -0.9557 0.9557 0.2944 151.3049 351.9396)" width="55" height="48"/>
			</defs>
			<clipPath id="SVGID_00000079478833419561666210000011428832324548478383_">
				<use xlink:href="#SVGID_00000150815285406212726790000017011672822106212274_"  style="overflow:visible;"/>
			</clipPath>
			<g style="clip-path:url(#SVGID_00000079478833419561666210000011428832324548478383_);">
				<path class="st1" d="M305.42,42.33l-0.01,0.03c0.22,0.04,0.43,0.1,0.65,0.17L305.42,42.33z"/>
				<path d="M305.11,42.53l0.15-0.5l0.86,0.27L306,42.74c-0.2-0.06-0.4-0.11-0.63-0.16L305.11,42.53z"/>
				<path class="st1" d="M289.36,94.44l0.64,0.2c-0.22-0.07-0.43-0.14-0.63-0.23L289.36,94.44z"/>
				<path d="M289.94,94.86l-0.86-0.27l0.14-0.47l0.24,0.07c0.22,0.09,0.42,0.16,0.61,0.22L289.94,94.86z"/>
				<path class="st7" d="M297.36,47.69l0.01-0.04l0.01-0.04c0.28-1.9,1.56-3.43,3.27-4.32c1.58-0.82,3.49-1.06,5.26-0.55
					l-11.72,38.04c-1.66-0.51-3.59-0.35-5.3,0.37c-0.83,0.35-1.61,0.83-2.29,1.44L297.36,47.69z"/>
				<path d="M285.56,85.87l-0.44-0.14l11.89-38.61c1.12-3.62,4.75-5.77,8.45-5l0.25,0.05l-12.03,39.05l-0.21-0.04
					C290.01,80.47,286.6,82.48,285.56,85.87z M305.11,42.54c-3.38-0.57-6.64,1.42-7.66,4.73L286.32,83.4c1.62-2.1,4.3-3.2,7.04-2.71
					L305.11,42.54z"/>
				<path class="st8" d="M305.92,43l14.47,4.46l17.2,5.3l-11.6,37.65l-31.67-9.76c-0.05-0.02-0.11-0.03-0.17-0.05l11.6-37.65
					C305.81,42.97,305.86,42.98,305.92,43z"/>
				<path d="M293.22,81.14l12.03-39.05l0.21,0.04c0.25,0.05,0.47,0.11,0.67,0.17l32.37,9.97l-12.03,39.05l-32.37-9.97
					c-0.2-0.06-0.4-0.11-0.63-0.16L293.22,81.14L293.22,81.14z M305.57,42.63l-11.76,38.16c0.15,0.04,0.29,0.07,0.43,0.12
					l31.93,9.84l11.76-38.16L306,42.74C305.86,42.7,305.72,42.67,305.57,42.63z"/>
				<defs>
					<filter id="Adobe_OpacityMaskFilter" filterUnits="userSpaceOnUse" x="291.97" y="40.92" width="47.78" height="51.65">
						<feColorMatrix  type="matrix" values="1 0 0 0 0  0 1 0 0 0  0 0 1 0 0  0 0 0 1 0"/>
					</filter>
				</defs>
				
					<mask maskUnits="userSpaceOnUse" x="291.97" y="40.92" width="47.78" height="51.65" id="path-14-inside-1_532_8536_00000034811340335400662940000010081767316591188632_">
					<path class="st9" d="M293.22,81.14l12.03-39.05l0.21,0.04c0.25,0.05,0.47,0.11,0.67,0.17l32.37,9.97l-12.03,39.05l-32.37-9.97
						c-0.2-0.06-0.4-0.11-0.63-0.16L293.22,81.14L293.22,81.14z M305.57,42.63l-11.76,38.16c0.15,0.04,0.29,0.07,0.43,0.12
						l31.93,9.84l11.76-38.16L306,42.74C305.86,42.7,305.72,42.67,305.57,42.63z"/>
				</mask>
				<path class="st10" d="M293.22,81.14l-0.95-0.29l-0.3,0.96l0.96,0.29L293.22,81.14z M305.25,42.09l0.2-0.98l-0.89-0.18
					l-0.27,0.87L305.25,42.09z M305.46,42.13l0.21-0.98l0,0L305.46,42.13z M338.5,52.27l0.96,0.29l0.29-0.96l-0.96-0.29L338.5,52.27
					z M326.47,91.32l-0.3,0.96l0.96,0.29l0.3-0.96L326.47,91.32z M293.47,81.19l0.21-0.98l0,0L293.47,81.19z M293.22,81.14
					l-0.29,0.96l0.05,0.01l0.05,0.01L293.22,81.14z M305.57,42.63l0.23-0.97l-0.91-0.22l-0.28,0.9L305.57,42.63z M293.81,80.79
					l-0.96-0.29l-0.31,1.02l1.04,0.25L293.81,80.79z M326.17,90.74l-0.29,0.96l0.96,0.29l0.29-0.96L326.17,90.74z M337.92,52.58
					l0.96,0.29l0.29-0.96l-0.96-0.29L337.92,52.58z M294.18,81.43l12.03-39.05l-1.91-0.59l-12.03,39.05L294.18,81.43z M305.05,43.07
					l0.21,0.04l0.4-1.96l-0.21-0.04L305.05,43.07z M305.25,43.11c0.23,0.05,0.41,0.09,0.59,0.15l0.59-1.91
					c-0.25-0.08-0.5-0.14-0.76-0.19L305.25,43.11z M305.84,43.26l32.37,9.97l0.59-1.91l-32.37-9.97L305.84,43.26z M337.55,51.98
					l-12.03,39.05l1.91,0.59l12.03-39.05L337.55,51.98z M326.77,90.37L294.4,80.4l-0.59,1.91l32.37,9.97L326.77,90.37z M294.4,80.4
					c-0.23-0.07-0.47-0.13-0.72-0.18l-0.41,1.96c0.21,0.04,0.38,0.09,0.54,0.14L294.4,80.4z M293.67,80.21l-0.25-0.05l-0.4,1.96
					l0.25,0.05L293.67,80.21z M293.52,80.18L293.52,80.18l-0.59,1.91l0,0L293.52,80.18z M304.62,42.34L292.86,80.5l1.91,0.59
					l11.76-38.16L304.62,42.34z M293.58,81.76c0.13,0.03,0.25,0.06,0.36,0.1l0.59-1.91c-0.15-0.05-0.32-0.09-0.49-0.13L293.58,81.76
					z M293.95,81.86l31.93,9.84l0.59-1.91l-31.93-9.84L293.95,81.86z M327.12,91.04l11.76-38.16l-1.91-0.59l-11.76,38.16
					L327.12,91.04z M338.22,51.62l-31.93-9.84l-0.59,1.91l31.93,9.84L338.22,51.62z M306.29,41.79c-0.16-0.05-0.32-0.09-0.49-0.13
					l-0.46,1.95c0.14,0.03,0.26,0.06,0.36,0.1L306.29,41.79z"/>
				<path class="st11" d="M294.02,81.08c-0.21-0.07-0.43-0.12-0.64-0.16c-3.45-0.71-6.96,1.37-8.05,4.88
					c-1.08,3.51,0.65,7.21,3.9,8.56c0.2,0.08,0.41,0.16,0.62,0.23l31.46,9.69l4.16-13.51L294.02,81.08L294.02,81.08z"/>
				<path class="st12" d="M321.47,104.58l-31.68-9.76c-0.2-0.06-0.41-0.14-0.64-0.23c-3.41-1.42-5.15-5.23-4.03-8.85
					c1.11-3.62,4.69-5.79,8.31-5.04c0.24,0.05,0.46,0.1,0.66,0.17l31.68,9.76L321.47,104.58z M293.95,81.31
					c-0.19-0.06-0.39-0.11-0.62-0.16c-3.39-0.7-6.74,1.33-7.78,4.72c-1.04,3.39,0.58,6.95,3.78,8.28c0.21,0.09,0.41,0.16,0.6,0.22
					l31.24,9.63l4.03-13.07L293.95,81.31L293.95,81.31z"/>
				<path class="st13" d="M303.2,88.16l21.3,6.56l0,0L303.2,88.16L303.2,88.16z"/>
				<path d="M323.74,97.18l-31.95-9.84l-0.25,0.82l31.95,9.84L323.74,97.18z"/>
				<path class="st13" d="M294.88,91.89l27.85,8.58l0,0L294.88,91.89L294.88,91.89z"/>
				<path class="st14" d="M308.83,67.4l12.47,3.84c0.79,0.24,1.24,1.08,0.99,1.88l-1.16,3.77c-0.24,0.79-1.08,1.24-1.88,0.99
					l-12.47-3.84c-0.79-0.24-1.24-1.08-0.99-1.88l1.16-3.77C307.19,67.6,308.03,67.15,308.83,67.4z"/>
			</g>
		</g>
		<path d="M407.66,377.58c10.28-21.66,0.89-29.37-17.87-13.37c-15.2-18.86-25.9-13.06-19.47,10.93c-3.01,0.38-5.81,0.9-8.34,1.58
			c-7.49,2.01-11.74,5.13-11.97,8.79c-0.36,5.82,9.14,9.83,14.63,11.61c-10.55,22.55,0.58,29.62,20.99,10.36
			c16.31,23.18,29.73,19.41,22.48-7.15C432.02,396.52,432.05,383.98,407.66,377.58z M406.04,357.03c1.13,0,2.07,0.28,2.8,0.85
			c3.17,2.5,1.91,10.1-2.53,19.35c-2.74-0.66-5.68-1.23-8.79-1.67c-2.2-3.78-4.53-7.26-6.9-10.31
			C394.39,362.03,401.11,357.03,406.04,357.03z M391.02,399.94c-2.99-0.08-5.96-0.29-9-0.62c-3-5.17-5.62-10.68-7.65-15.98
			c1.82-2.56,3.67-4.95,5.84-7.51c5.58-0.09,11.05,0.25,16.48,1c1.78,3.1,3.31,6.08,4.73,9.19
			C398.32,390.95,394.79,395.65,391.02,399.94z M402.09,387.5c1.76,4,3.23,7.94,4.33,11.67c-4.14,0.57-8.77,0.86-13.66,0.8
			C396.21,395.96,399.37,391.7,402.09,387.5L402.09,387.5z M389.87,401.23c-1.33,1.47-2.67,2.86-4.01,4.17c-1-1.48-2-3.03-2.98-4.65
			C386.01,401.07,387.88,401.16,389.87,401.23z M380.37,399.12c-4.99-0.63-9.68-1.59-13.83-2.81c1.84-3.71,4.17-7.68,6.92-11.67
			C375.45,389.69,377.73,394.46,380.37,399.12L380.37,399.12z M373.83,381.81c-0.68-1.87-1.29-3.72-1.81-5.51
			c2.06-0.22,4.21-0.36,6.43-0.44C376.72,377.93,375.3,379.77,373.83,381.81z M381.39,374.45c2.71-3.1,5.48-5.9,8.22-8.32
			c2.13,2.75,4.23,5.85,6.22,9.21C391.02,374.73,386.13,374.43,381.39,374.45z M398.37,377.06c2.56,0.4,5.01,0.88,7.32,1.44
			c-1,2-2.15,4.06-3.43,6.16C401.2,382.39,400.09,380.12,398.37,377.06z M370.14,367.94c-0.77-5.26-0.91-13.6,4.32-13.6
			c4.9,0,11.22,6.89,14.32,10.74c-3.06,2.71-6.16,5.88-9.18,9.39c-2.76,0.06-5.42,0.23-7.96,0.5
			C370.98,372.52,370.46,370.15,370.14,367.94L370.14,367.94z M361.3,394.48c-17.26-7.03-10.8-15.56,9.37-18.04
			c0.62,2.17,1.36,4.4,2.21,6.68c-3.1,4.4-5.68,8.73-7.67,12.77C363.84,395.45,362.53,394.98,361.3,394.48z M376.52,413.15
			c-5.85,3.94-10.55,5.14-12.89,3.29c-3.12-2.46-1.95-9.87,2.32-18.93c4.54,1.36,9.73,2.4,15.26,3.05c1.2,2.04,2.42,3.98,3.66,5.79
			C382.04,409.04,379.23,411.34,376.52,413.15L376.52,413.15z M404.02,421.45c-4.36,0-11.01-5.86-17.39-14.94
			c1.67-1.62,3.33-3.37,4.98-5.23c5.11,0.12,10.15-0.08,15.18-0.78C408.7,407.46,411.03,421.45,404.02,421.45z M407.74,398.97
			c-1.2-4.1-2.82-8.44-4.8-12.84c1.55-2.5,2.93-4.95,4.1-7.3c10.69,2.77,17.88,7.07,17.62,11.35
			C424.41,394.2,417.64,397.42,407.74,398.97z"/>
		<path class="st15" d="M368.89,368.67c1.87,0,3.38-1.53,3.38-3.42c0-1.89-1.51-3.42-3.38-3.42c-1.87,0-3.38,1.53-3.38,3.42
			C365.51,367.14,367.02,368.67,368.89,368.67z"/>
		<path class="st15" d="M398.35,422.54c2.03,0,3.67-1.66,3.67-3.71s-1.64-3.71-3.67-3.71c-2.03,0-3.67,1.66-3.67,3.71
			S396.32,422.54,398.35,422.54z"/>
		<path class="st16" d="M408.93,375.28c2.25,0,4.07-1.84,4.07-4.11c0-2.27-1.82-4.11-4.07-4.11c-2.24,0-4.07,1.84-4.07,4.11
			C404.86,373.44,406.69,375.28,408.93,375.28z"/>
		<path class="st16" d="M373.68,418.33c1.96,0,3.55-1.61,3.55-3.6s-1.59-3.6-3.55-3.6c-1.96,0-3.56,1.61-3.56,3.6
			S371.72,418.33,373.68,418.33z"/>
		<path d="M54.48,279.83c7.04-14.83,0.61-20.11-12.23-9.15c-10.41-12.91-17.73-8.94-13.33,7.48c-2.06,0.26-3.98,0.62-5.71,1.08
			c-5.13,1.37-8.04,3.51-8.19,6.02c-0.25,3.99,6.26,6.73,10.02,7.95c-7.22,15.44,0.4,20.28,14.37,7.09
			c11.17,15.87,20.35,13.29,15.39-4.9C71.16,292.8,71.18,284.21,54.48,279.83z M53.37,265.76c0.77,0,1.42,0.19,1.91,0.58
			c2.17,1.71,1.31,6.91-1.73,13.25c-1.87-0.45-3.89-0.84-6.02-1.14c-1.5-2.59-3.1-4.97-4.72-7.06
			C45.4,269.18,49.99,265.76,53.37,265.76z M43.09,295.14c-2.05-0.06-4.08-0.2-6.16-0.43c-2.06-3.54-3.85-7.32-5.24-10.94
			c1.25-1.75,2.51-3.39,4-5.14c3.82-0.06,7.57,0.17,11.29,0.68c1.22,2.13,2.26,4.17,3.24,6.29
			C48.09,288.99,45.66,292.2,43.09,295.14z M50.66,286.62c1.21,2.74,2.21,5.43,2.97,7.99c-2.83,0.39-6,0.59-9.35,0.55
			C46.64,292.41,48.8,289.5,50.66,286.62L50.66,286.62z M42.3,296.03c-0.91,1-1.83,1.96-2.74,2.85c-0.69-1.01-1.37-2.07-2.04-3.18
			C39.66,295.91,40.94,295.97,42.3,296.03z M35.8,294.58c-3.42-0.43-6.63-1.08-9.47-1.92c1.26-2.54,2.85-5.26,4.74-7.99
			C32.42,288.12,33.99,291.39,35.8,294.58L35.8,294.58z M31.31,282.73c-0.47-1.28-0.89-2.55-1.24-3.77c1.41-0.15,2.88-0.25,4.4-0.3
			C33.3,280.07,32.32,281.33,31.31,282.73z M36.49,277.69c1.86-2.12,3.75-4.04,5.63-5.7c1.46,1.88,2.89,4.01,4.26,6.3
			C43.09,277.88,39.74,277.67,36.49,277.69z M48.12,279.48c1.75,0.27,3.43,0.6,5.01,0.98c-0.69,1.37-1.47,2.78-2.34,4.22
			C50.06,283.12,49.3,281.57,48.12,279.48z M28.79,273.23c-0.53-3.6-0.62-9.31,2.96-9.31c3.35,0,7.68,4.72,9.8,7.35
			c-2.1,1.85-4.22,4.03-6.28,6.43c-1.89,0.04-3.71,0.16-5.45,0.35C29.36,276.37,29.01,274.74,28.79,273.23L28.79,273.23z
			 M22.74,291.4c-11.82-4.81-7.39-10.65,6.42-12.35c0.42,1.48,0.93,3.01,1.51,4.57c-2.12,3.02-3.89,5.98-5.25,8.74
			C24.48,292.06,23.58,291.74,22.74,291.4z M33.16,304.18c-4.01,2.7-7.22,3.52-8.83,2.26c-2.14-1.69-1.34-6.75,1.59-12.96
			c3.11,0.93,6.66,1.64,10.44,2.09c0.82,1.4,1.66,2.72,2.5,3.96C36.94,301.37,35.01,302.94,33.16,304.18L33.16,304.18z
			 M51.99,309.87c-2.98,0-7.54-4.01-11.91-10.23c1.14-1.11,2.28-2.31,3.41-3.58c3.5,0.08,6.95-0.05,10.39-0.53
			C55.19,300.29,56.79,309.87,51.99,309.87z M54.54,294.48c-0.82-2.81-1.93-5.78-3.29-8.79c1.06-1.71,2-3.39,2.81-5
			c7.32,1.9,12.24,4.84,12.06,7.77C65.95,291.21,61.31,293.42,54.54,294.48z"/>
		<path class="st15" d="M27.93,273.73c1.28,0,2.31-1.05,2.31-2.34c0-1.29-1.04-2.34-2.31-2.34c-1.28,0-2.31,1.05-2.31,2.34
			C25.62,272.68,26.66,273.73,27.93,273.73z"/>
		<path class="st15" d="M48.1,310.61c1.39,0,2.51-1.14,2.51-2.54c0-1.4-1.12-2.54-2.51-2.54s-2.51,1.14-2.51,2.54
			C45.59,309.48,46.72,310.61,48.1,310.61z"/>
		<path class="st16" d="M55.35,278.25c1.54,0,2.78-1.26,2.78-2.82c0-1.55-1.25-2.82-2.78-2.82c-1.54,0-2.78,1.26-2.78,2.82
			C52.57,276.99,53.81,278.25,55.35,278.25z"/>
		<path class="st16" d="M31.21,307.73c1.34,0,2.43-1.1,2.43-2.46c0-1.36-1.09-2.46-2.43-2.46c-1.34,0-2.43,1.1-2.43,2.46
			C28.78,306.63,29.87,307.73,31.21,307.73z"/>
		<path class="st17" d="M296.72,437.57c-0.19,3.35,0.3,5.57-3.14,5.9c-0.16,0.02-31.95,0-32.12,0c6.64-3.48,5.54-9.52-3.43-10.99
			c6.01-1.13,11.16-3.24,9.94-8.2c-0.53-2.18-4.67-4.41-10.55-4.97c3.25-0.55,7.43-1.44,9.58-3.94c2.02-2.38,0.92-6.02-1.57-7.61
			c-1.83-1.16-4.08-1.44-6.24-1.62c-1.46-0.13-2.9-0.26-4.36-0.34c-4.71-0.2-11.25,1.06-11.84,0.85c-0.17-0.06-0.34-0.23-0.34-0.42
			c0.02-0.14,0.8-1.39,0.89-1.71c0.31-0.91,0.39-1.99,0.49-2.95c0.65-5.99-0.75-12.65-4.36-18.08c-0.89-1.36-2.09-2.76-3.71-2.96
			c-2.33-0.33-4.3,1.99-4.72,4.31c-0.44,2.32,0.13,4.68,0.11,7.04c-0.03,3.87-1.91,8.95-5.35,11.12c-0.11,0.06-0.22,0.13-0.34,0.21
			c-3.23,1.53-10.46,4.56-18.68,4.41c-31.12,1.36-50.42-0.13-52.95-0.13c-7.15-0.4-10.28-2.5-11.46-11.62
			c-0.28-2.08-0.19-12.65-0.1-15.89c-0.04-0.16,0.3-15.31,2.53-14.76c-3.25-0.72-5.97-2.34-10.82-2.9
			c-16.23-1.86-32.93,0.86-48.17,7.03c3.29-20.18,9.09-39.91,17.19-58.57c6.99-16.1,19.94-27.74,35.64-34.62
			c10.14-4.43,32.12-14.12,42.95-13c0.21,2.76,0.19,5.64,1.04,8.29c4.08,12.87,21.42,18.16,32.56,4.99c1.1-1.3,1.97-1.25,1.63-2.91
			c-1.07-5.14-0.19-7.29,0-7.77c0.17-0.45,3.67,0,4.14,0c8.04,0,10.67,0.61,19.66,2.52c13.58,2.87,36.67,11.19,43.2,24.57
			c9.75,19.94,12.57,45.05,14.01,66.88c1.71,25.92,0.19,51.93-1.32,77.87V437.57z"/>
		<path class="st18" d="M251.82,209.54l-0.51,0.69c-0.63,0.85-1.8,2.21-3.06,3.21c-0.62,0.5-1.33,0.95-2.06,1.18
			c-0.74,0.24-1.63,0.27-2.4-0.33l0,0c-0.47-0.37-0.72-0.86-0.86-1.3c-0.14-0.43-0.18-0.87-0.22-1.21
			c-0.02-0.26-0.05-0.52-0.07-0.77c-1.14-11.7-1.46-14.99-5.94-29.94l0,0l0,0c-0.19-0.63-0.34-1.37-0.18-2.09
			c0.18-0.8,0.72-1.39,1.51-1.78l0,0c3.7-1.82,10.25,0,13.91,6.34L251.82,209.54z M251.82,209.54l-0.02-0.02 M251.82,209.54
			l-0.02-0.02 M251.8,209.51c5.03-7.49,4.47-18.51,0.16-25.97L251.8,209.51z"/>
		<path class="st18" d="M219.07,141.13L219.07,141.13c-1.89,2.56-3.98,4.97-6.21,7.22l0,0c-0.58,0.59-1.15,0.97-1.81,1.13
			c-0.64,0.15-1.23,0.05-1.71-0.06c-0.1-0.02-0.2-0.05-0.31-0.07c-0.89-0.2-1.96-0.45-3.84-0.19l-0.01,0
			c-2.53,0.32-4.36,1.51-6.41,3.24l-0.01,0.01v0c-6.71,5.54-10.03,11.05-13.84,19.17c-5.69,12.23-6.06,22.05-6.26,27.33
			c-0.02,0.64-0.04,1.22-0.07,1.72c7.09,3.27,11.15,10.54,11.71,18.04c0.57,7.74-2.58,15.91-10.17,20.44l0,0
			c-6.51,3.83-13.68,3.11-19.18-0.58c-5.49-3.68-9.33-10.3-9.33-18.25c0-9.29,5.4-17.2,12.91-20.12c0.03-0.45,0.05-0.95,0.07-1.5
			c0.15-3.08,0.37-7.84,1.51-14.1 M219.07,141.13L219.07,141.13 M219.07,141.13c0.09-0.12,0.25-0.35,0.35-0.64
			c0.1-0.29,0.18-0.79-0.14-1.26c-0.16-0.26-0.38-0.43-0.51-0.51c-0.07-0.05-0.14-0.09-0.19-0.12l0,0
			c-0.02-0.01-0.04-0.02-0.05-0.03c-0.03-0.03-0.07-0.07-0.12-0.12c-0.33-0.32-1.02-0.98-2.53-1.84
			c-6.49-3.75-15.21-3.39-21.24-0.38c-7.98,3.79-14.35,11.7-19.08,20.66c-4.75,8.99-7.93,19.16-9.47,27.67l0.98,0.18l-0.98-0.18l0,0
			"/>
		<path class="st19" d="M183.34,269.89l-2.59-31.08l6.22-5.7c7.87-15.33,0.52-26.42-4.14-30.05c0.86-8.12,6.74-24.04,23.31-22.79
			c16.58,1.24,25.21-3.63,27.46-6.22c-1.9-3.63-4.46-8.7,0.52,0c4.97,8.7,7.6,29.18,8.29,38.33c0,6.39-1.14,21.34-5.7,30.05
			c-4.56,8.7-16.06,10.88-21.24,10.88l1.04,20.72l-1.55,1.55c-2.07,2.93-8.5,8.5-17.61,7.25
			C188.21,281.59,184.21,273.68,183.34,269.89z"/>
		<path d="M177.54,201.29c2.13,0.89,4.13,2.31,5.48,3.65c1.24-1.4,0.5-8.52,6.66-15.53c3.54-4.03,8.4-6.77,13.65-7.7
			c8.94-1.66,18.25,2.02,30.29-6.03c5.83,17.24,9.86,35.15,6.31,52.86c-1.34,6.68-3.43,14.08-8.78,18.4
			c-7.67,6.19-20.59,7.96-35.17-0.48c-0.58-0.34-1.33-0.13-1.66,0.44c-0.34,0.58-0.14,1.33,0.44,1.66
			c6.01,3.48,12.62,5.83,19.54,6.03c0.5,5.7,0.74,13.5,1.25,18.71c0.06,0.62,0.59,1.09,1.2,1.09c0.71,0,1.29-0.62,1.21-1.34
			c-0.51-5.12-0.74-12.77-1.24-18.51c6-0.3,11.69-2.3,15.95-5.74c5.96-4.81,8.22-12.71,9.64-19.81c1.47-7.32,1.77-15.28,0.87-23.66
			c-1.55-14.53-6.05-26.31-7.49-31.17c5.97-4.71,12.12-13.42,13.08-21.74c1.05-9.8-3.61-20.73-13.32-21.94
			c-6.86-0.82-12.63,3.89-17.01,9.26c0.17,0.24-0.02,0.54-0.18,0.77c-1.86,2.51-3.91,4.89-6.11,7.1c-0.49,0.49-0.85,0.75-1.22,0.87
			c-4.05,3.75-8.65,5.81-13.87,4.04c-6.11,5.29-9.47,11.01-13.03,18.61c-6.84,14.69-6.11,26.04-6.47,30.11V201.29z M226.95,158.54
			c4.63-4.39,7.37-10.57,7.5-16.96c0.02-0.62,0.51-1.19,1.26-1.19c0.65,0.02,1.19,0.59,1.17,1.24c-0.14,7.02-3.16,13.84-8.24,18.69
			c-0.51,0.44-1.32,0.41-1.75-0.05C226.44,159.77,226.46,159,226.95,158.54z"/>
		<path d="M182.03,237.47c0-0.27-0.1-0.51-0.25-0.71c-0.68,0.55-1.4,1.04-2.16,1.5c0.1,8.65,0.74,19.96,0.99,29.1
			c0.02,0.65,0.57,1.17,1.22,1.17h0.03c0.66-0.02,1.19-0.57,1.17-1.26C182.76,257.41,182.13,247.02,182.03,237.47L182.03,237.47z"/>
		<path d="M217.6,188.88c-0.66,0.07-1.15,0.66-1.08,1.34c0.6,5.75,3.59,11.28,7.99,14.8c1.76,1.41,4.03,2.79,4.36,4.83
			c0.33,1.98-1.26,3.91-3,5.71c-0.47,0.48-0.46,1.24,0.02,1.71c0.48,0.47,1.24,0.46,1.71-0.02c1.37-1.41,4.23-4.34,3.65-7.79
			c-0.49-3.01-3.14-4.65-5.24-6.33c-3.91-3.12-6.55-8.04-7.09-13.16c-0.07-0.66-0.67-1.15-1.34-1.08L217.6,188.88z"/>
		<path d="M202.17,197.76c-1.3,0.63-1.51,3.04-0.46,5.38c1.04,2.34,2.95,3.73,4.25,3.09c1.3-0.63,1.51-3.04,0.46-5.38
			C205.38,198.52,203.47,197.13,202.17,197.76z"/>
		<path d="M202.89,192.21c-4.57-0.97-9.01,2.39-9.48,7.24c-0.07,0.71,0.49,1.33,1.21,1.33c0.62,0,1.14-0.47,1.21-1.1
			c0.33-3.4,3.39-5.76,6.56-5.09c0.64,0.13,1.3-0.28,1.44-0.94c0.14-0.65-0.28-1.3-0.94-1.44V192.21z"/>
		<path d="M232.26,192.33c-1.45,0-2.68,2.09-2.74,4.65c-0.06,2.56,1.05,4.63,2.5,4.62c1.45,0,2.67-2.09,2.74-4.65
			C234.83,194.39,233.71,192.32,232.26,192.33z"/>
		<path d="M235.29,187.63c-3.79-2.9-9.21-1.65-11.68,2.44c-0.49,0.82,0.1,1.84,1.04,1.84c0.41,0,0.82-0.21,1.04-0.59
			c1.77-2.92,5.53-3.75,8.12-1.77c0.53,0.41,1.3,0.31,1.71-0.23C235.93,188.79,235.83,188.02,235.29,187.63L235.29,187.63z"/>
		<path d="M211.54,223.7c-0.11-0.66-0.74-1.11-1.4-1c-0.66,0.11-1.11,0.74-1,1.4c0.8,4.76,5.22,8.67,10.16,8.67
			c4.28,0,8.41-2.85,9.85-6.9c0.22-0.63-0.1-1.33-0.74-1.55c-0.63-0.22-1.33,0.1-1.55,0.74c-1.15,3.25-4.73,5.56-8.19,5.26
			c-3.44-0.31-6.57-3.21-7.13-6.62V223.7z"/>
		<path d="M156.74,207.46c1.76-2.57,5.03-5.29,8.74-6.57c0.21-2.83,0.17-8.24,1.61-16.14c1.78-9.8,5.08-19.35,9.8-28.13
			c1.71-3.21,3.52-5.98,4.42-7.18c-0.3-0.21-0.65-0.3-1.01-0.18c-8.87,2.39-14.55,10.04-14.8,18.39c-0.13,2.39,0.4,5.96-1.15,7.83
			c-3.41,4.14-9.91,5.47-13.91,9.93c-3.3,3.71-4.32,9.3-2.54,13.89C149.35,203.17,152.72,206.26,156.74,207.46z"/>
		<path class="st15" d="M119.62,256.93c-5.39-1.24-8.46-5.01-9.32-6.74c-25.7,1.24-34.88-12.95-36.26-20.2
			c-0.69-7.94,4.04-24.35,28.49-26.42c24.45-2.07,35.05,9.84,37.3,16.06c4.56,19.48-11.57,27.46-20.2,29.01
			C118.8,251.96,119.28,255.55,119.62,256.93z"/>
		<path d="M109.98,251.63c2.02,3.06,5.03,5.28,8.36,6.41c1.95,0.66,3.71-1.41,2.74-3.27c-0.97-1.87-1.06-3.47-0.82-4.85
			c13.25-3.78,21.8-12.89,21.8-23.23c0-13.78-15.5-24.99-34.53-24.99c-19.04,0-34.53,11.22-34.53,25c0,13.78,15.5,24.99,34.53,24.99
			C108.35,251.69,109.18,251.67,109.98,251.63z M75.43,226.7c0-12.43,14.4-22.56,32.1-22.56c17.7,0,32.1,10.12,32.1,22.56
			c0,9.25-7.9,17.46-20.12,20.92c-0.84,0.23-1.46,0.91-1.61,1.75c-0.45,2.4,0,4.55,0.97,6.29c-2.78-1.01-5.24-2.88-6.89-5.42
			c-0.43-0.65-1.12-1.03-1.89-1.03c-0.33,0-1.06,0.07-2.55,0.07c-17.7,0-32.1-10.12-32.1-22.56L75.43,226.7z"/>
		<path d="M93.32,221.87h31.26c0.67,0,1.21-0.54,1.21-1.22c0-0.67-0.54-1.21-1.21-1.21H93.32c-0.67,0-1.21,0.54-1.21,1.21
			C92.11,221.32,92.65,221.87,93.32,221.87z"/>
		<path d="M113.24,229.52c0-0.67-0.54-1.21-1.21-1.21H92.85c-0.67,0-1.21,0.54-1.21,1.21c0,0.67,0.54,1.21,1.21,1.21h19.17
			C112.7,230.74,113.24,230.19,113.24,229.52z"/>
		<path class="st1" d="M272,224.48l39.28-56.18c18.84,2.18,35.73,27.82,41.82,40.37c16.92-9.29,21.98-9.12,33.05-9.1
			c8.85,0.02,19.8,5.72,24.17,8.58l4.25,15.18l-46.4,62.49l-15.33,1.39c-13.25-18.98-30.58-20.49-37.59-18.87l-6-3.01
			c-13.38-17.47-32.2-26.18-39.94-28.35L272,224.48z"/>
		<path d="M424.91,225.65l-10.57-5.31l-3.19-12.62c-0.05-0.17-0.15-0.34-0.31-0.46c-0.26-0.2-26.69-19.57-57.37,0.38
			c-2.66-5.76-17.62-35.86-42.04-40.25c-0.32-0.06-0.64,0.08-0.83,0.34l-4.86,6.94l-3.16-3.14c-0.35-0.36-0.95-0.32-1.25,0.1
			l-50.33,68.01c-0.3,0.4-0.17,0.99,0.27,1.22c39.99,21.41,48.21,26.18,49.05,26.62c2.36,1.25,2.62,3.49,7.61,6
			c2.1,1.05,3.96,1.59,5.99,1.9c-0.04,16.71-6.51,33.27-17.87,45.53c-3.61,3.9-7.11,6.62-10.66,8.29
			c-1.54-11.27-10.52-13.01-14.56-9.68c-3.41,2.82-2.93,8.67,0.46,11.56c3.74,3.17,8.24,2.27,12.65,0.54
			c0.72,18.04-8,36.88-23.5,48.05c-9.18,6.62-23.34,10.46-32.67,3.21c-7.14-5.52-9.05-15.6-9.87-22.68
			c-0.98-8.72-1.27-17.91-5.6-25.6c-10.98-19.49-39-18.82-54.84-32.01c-9.95-8.28-14.86-21.86-12.51-34.59
			c2.09-11.3,9.44-21.02,19.67-25.99c0.18-0.08,0.32-0.23,0.39-0.4c-0.23-0.36-0.43-0.75-0.61-1.15c-0.17-0.04-0.34-0.02-0.5,0.06
			c-10.71,5.21-18.41,15.38-20.59,27.19c-2.45,13.31,2.68,27.5,13.08,36.16c16.3,13.55,43.82,12.67,54.47,31.54
			c3.49,6.21,4.23,13.61,4.96,20.77c0.99,10.2,2.61,21.57,10.93,28.04c9.93,7.7,24.44,4.19,34.66-3.18
			c16.33-11.77,25.31-31.94,24.15-50.06c13.19-5.84,29.89-28.52,30.01-55.36c1.91,0.14,52.9,26.09,53.27,26.6
			c0.16,0.21,0.44,0.34,0.7,0.34c2.16-0.03,52.6-71.35,55.65-75.66c0.29-0.41,0.15-0.99-0.31-1.22L424.91,225.65z M272.38,329.81
			c-2.57-2.18-3.1-6.81-0.48-9.01c3.23-2.66,10.76-1.02,11.92,9.09C279.99,331.45,275.73,332.66,272.38,329.81z M314.78,260.59
			c0.21,0.32,0.6,0.43,0.91,0.35c0.15-0.02,0.7-0.11,1.57-0.2c6.13-0.63,28.24-1.49,41.62,16.7c0.55,0.78,5.68,6.57,7.08,8.17
			l-13,0.72c-2-3.09-14.92-21.37-37.84-18.85l-5.07-2.55c-1.55-2-17.41-21.98-40.16-28.78l2.72-10.79
			C299.52,235.62,314.98,260.81,314.78,260.59L314.78,260.59z M413.5,223.8l-45.84,61.26l-7.06-8.12l49.38-67.1L413.5,223.8
			L413.5,223.8z M409.17,208.12l-49.65,67.46c-4.89-6.3-11.66-11.22-20.01-14.02c-7-2.35-15.21-3.16-22.24-2.47l36.41-49.6
			C380.97,191.26,404.91,205.3,409.17,208.12L409.17,208.12z M311.66,169.12c23.72,4.67,38.65,35.62,40.51,39.64l-36.66,49.94
			c-10.36-15.57-25.5-27.74-40.2-34.02c-0.1-0.04-0.96-0.42-1.99-0.8c45.63-65.19,28.2-40.28,38.33-54.77L311.66,169.12z"/>
		<path class="st20" d="M306.45,225.24L306.45,225.24c-8.2-6.51-9.54-18.34-3.24-26.53l0.01,0l0.18-0.23
			c6.57-8.26,18.55-9.57,26.75-3.06l0,0c8.24,6.54,9.6,18.52,3.06,26.75C326.67,230.41,314.69,231.78,306.45,225.24z"/>
		<path d="M307.93,214.23l19.43,2.61c0.97,0.13,1.74-0.9,1.31-1.79l-8.22-16.64c-0.39-0.79-1.48-0.9-2.05-0.18l-11.21,14.02
			C306.58,213,306.99,214.1,307.93,214.23L307.93,214.23z"/>
		<path d="M356.08,219.01c9.02,0.56,18.11,3.81,25.59,9.15c0.37,0.27,0.89,0.22,1.15-0.11c0.25-0.33,0.15-0.81-0.22-1.09
			c-7.76-5.54-17.19-8.91-26.55-9.49c-0.45-0.03-0.81,0.29-0.8,0.72C355.25,218.63,355.63,218.99,356.08,219.01L356.08,219.01z"/>
		<path d="M351.52,227.96c4.86,0.47,9.49,2.27,13.37,5.19c0.38,0.29,0.91,0.18,1.2-0.22c0.29-0.41,0.22-0.96-0.15-1.24
			c-4.12-3.09-9.02-5-14.18-5.5c-0.47-0.05-0.91,0.31-0.98,0.8c-0.07,0.49,0.25,0.93,0.72,0.98L351.52,227.96z"/>
		<path d="M343.67,237.07c-0.09,0.44,0.2,0.88,0.64,0.97c14.4,3.18,21.72,11.55,22.52,11.95c0.85,0.43,1.61-0.66,0.93-1.31
			c-6.45-6.09-14.44-10.31-23.11-12.23C344.19,236.35,343.75,236.62,343.67,237.07z"/>
		<path d="M184.79,233.71c0.74,0.64,6.85,1.08,19.12,6.04c0.12,4.93,8.52,7.94,13.69,6.2c6.25-2.12,4.28-9.18-3.87-10.85
			c-4-0.83-7.6,0.19-9.08,2.33c-5.96-2.39-12.13-4.35-18.4-5.75c-0.46,0.71-0.93,1.4-1.45,2.04L184.79,233.71z"/>
		<path d="M169.91,210.66c-4.86,0-8.82,4.21-8.82,9.41s3.96,9.41,8.82,9.41c4.86,0,8.82-4.22,8.82-9.41S174.77,210.66,169.91,210.66
			z"/>
		<path class="st19" d="M261.57,443.95H111.85c-22.38-10.36-18.99-55.43-15.02-77.19c0.52-0.35,4.46-2.38,20.2-3.63
			c15.75-1.24,23.83,1.21,25.9,2.59l-1.04,24.87c1.24,14.09,5.35,17.27,7.25,17.1c46,2.9,68.9-1.21,74.6-3.63
			c2.94-1.73,8.6-7.15,7.77-15.02c-0.83-7.87,2.76-8.81,4.66-8.29c8.7,6.22,8.12,19.51,6.73,25.38h18.13
			c12.85,3.73,5.7,10.19,0.52,12.95c12.43,5.8,3.8,11.4-2.07,13.47C269.44,435.87,265.02,441.53,261.57,443.95z"/>
		<path d="M316.14,444.1c0,0.66-0.55,1.2-1.23,1.2H111.73c-0.24,0-0.48-0.1-0.67-0.19c-9.65-6.38-16.94-17.57-18.2-35.81
			c-1.03-14.92-0.06-25.08,1.04-36.85c0.02-0.13,0.02-0.27,0.03-0.38l-9.01-1.69l2.98-1.69c2.19,0.06,2.19-2.76,6.35-2.97
			l-0.34-0.22c0.19-0.02,3.26-0.81,3.45-0.82c-2.3,20.85-2.73,34.87-2.08,44.45c0.93,13.6,5.61,26.17,16.81,33.74h147.8
			c2.62-1.12,5.45-3.26,4.39-5.87c-0.26-0.63-1.97-2.61-6.44-3.34c-0.57-0.14,1.86,0-12.15-0.06c-0.66,0-1.23-0.54-1.23-1.22
			c0-0.68,0.55-1.2,1.23-1.2h12.61c4.42-0.88,7.1-2.1,8.16-3.74c0.52-0.82,0.63-1.75,0.36-2.87c-0.3-1.26-3.36-3.33-8.89-3.98
			l-13.11-0.41c-0.66-0.02-1.19-0.58-1.17-1.26c0.03-0.66,0.59-1.17,1.26-1.17c2.97,0.08,11.34,0.36,12.34,0.36
			c2.88-0.49,6.97-1.32,8.85-3.54c1.51-1.77,0.61-4.58-1.31-5.79c-1.6-1.03-3.68-1.28-5.67-1.44c-5.19-0.5-6.44-0.53-12.61,0.19
			c-3.04,0.38-3.43,0.41-3.91,0.22c-0.98-0.35-1.56-1.2-0.6-2.87c0.43-0.82,0.57-0.71,0.82-3.17c0-0.16,1.44-9.23-4.12-17.6
			c-0.99-1.52-1.92-2.32-2.86-2.43c-1.6-0.22-3.05,1.58-3.36,3.33c-0.39,2.07,0.13,4.38,0.13,6.83c-0.03,4.35-2.15,9.87-6.2,12.29
			c-4.32,2.57-10.56,3.99-14.55,4.24c-10.6,0.86-32.73,1.19-39.76,1.29c-8.16,0.14-15,0.48-21.64,0c-7.4-0.58-9.23-10.55-9.23-17.93
			c-0.02-0.02,0-0.03,0-0.03c-0.33-5.36,0-11.78,0.06-11.97c0.1-2.66,0.44-11.83,1.44-14.49c0.04,0,1.78-0.08,1.83-0.08
			c0.05-0.3,0.08-0.59,0.13-0.88c0-0.57,1.09-7.06,3.02-13.21c2.51,12.25,13.05,44.58,14.63,56.37c27.64-0.63,24.6-0.14,49.35-1.48
			c3.85-0.24,9.67-1.64,13.38-3.85c0.06-0.05,0.21-0.14,0.36-0.23c3.01-1.89,4.7-6.6,4.73-10.07c0-2.52-0.56-4.84-0.1-7.26
			c0.52-2.89,2.98-5.74,6.08-5.3c2.22,0.3,3.65,2.13,4.55,3.5c6.13,9.2,4.51,18.81,4.53,19.16c-0.1,0.95-0.24,2.49-0.71,3.36
			c8.79-1,9.02-0.92,14.68-0.41c2.41,0.19,4.83,0.49,6.91,1.81c3.13,2.01,4.31,6.51,1.84,9.42c-1.11,1.29-2.76,2.32-4.88,3.05
			c3.34,1.09,5.6,2.82,6.09,4.78c1.11,4.51-2.15,7.15-6.57,8.6c5.55,2.65,5.4,7.24,1.89,10.29h50.45c0.66,0,1.22,0.55,1.22,1.23
			L316.14,444.1z"/>
	</g>
</g>
</svg>
