<svg width="460" height="460" viewBox="0 0 460 460" fill="none" xmlns="http://www.w3.org/2000/svg">
<rect width="460" height="460" fill="white"/>
<path d="M116.64 358.315C158.244 365.463 248.259 369.107 293.645 378.919C314.699 374.013 373.07 358.315 417.699 311.22C462.566 263.874 460.438 201.892 449.091 173.719C439.636 143.163 410.892 91.3028 353.024 126.624C297.849 160.303 240.695 164.048 185.475 126.624C166.564 106.861 110.967 97.1896 64.4464 126.624C5.65776 163.821 -0.985065 224.178 16.4129 282.206C22.8425 318.368 75.8053 351.299 116.64 358.315Z" fill="#FEFCEB"/>
<path d="M215.06 329.615C214.077 331.254 213.166 332.925 212.294 334.623C211.311 330.33 210.288 326.083 209.233 321.862C210.609 324.778 213.946 326.364 215.053 329.615H215.06Z" fill="#FCF1B0"/>
<path d="M392.041 297.7C391.956 304.031 391.641 310.369 391.124 316.688C378.998 301.344 357.46 295.956 338.544 297.496C325.147 298.545 331.695 304.078 326.419 309.328C324.807 310.94 324.846 319.618 323.614 317.868C319.039 311.405 314.239 360.718 306.315 360.757C293.822 360.81 229.909 333.764 214.948 317.868C199.987 301.972 203.008 350.093 201.39 348.258C200.223 346.927 195.993 321.554 195.993 319.738C195.934 308.156 196.052 268.749 195.993 257.167C195.967 250.875 195.98 244.34 198.713 238.677C203.104 229.567 215.512 227.967 224.321 225.405C236.492 221.885 248.828 218.824 261.399 217.238C262.671 217.081 263.732 218.182 263.555 219.453C261.334 238.199 303.564 238.081 303.564 221.053C303.564 220.502 303.767 219.617 303.865 219.178C304.121 217.933 305.477 217.29 306.638 217.847C311.829 220.351 322.997 223.425 325.842 224.494C334.749 227.849 346.147 230.511 355.199 234.161C362.179 236.967 369.429 238.92 375.531 243.672C391.792 256.414 392.264 278.731 392.035 297.68L392.041 297.7Z" fill="#CE4C7A"/>
<path d="M392.041 297.7L392.976 297.712L392.978 297.554L392.928 297.404L392.041 297.7ZM391.124 316.688L390.39 317.267L391.862 319.13L392.056 316.764L391.124 316.688ZM338.544 297.496L338.617 298.429L338.62 298.428L338.544 297.496ZM326.419 309.328L325.76 308.665L325.758 308.667L326.419 309.328ZM323.614 317.868L324.378 317.33L324.377 317.328L323.614 317.868ZM306.315 360.757L306.319 361.692H306.32L306.315 360.757ZM201.39 348.258L200.686 348.874L200.688 348.876L201.39 348.258ZM195.993 319.738H196.928L196.928 319.733L195.993 319.738ZM195.993 257.167L195.058 257.171L195.058 257.172L195.993 257.167ZM198.713 238.677L199.555 239.084L199.555 239.083L198.713 238.677ZM224.321 225.405L224.061 224.506L224.06 224.507L224.321 225.405ZM261.399 217.238L261.284 216.31L261.282 216.31L261.399 217.238ZM263.555 219.453L262.629 219.324L262.628 219.334L262.627 219.343L263.555 219.453ZM303.865 219.178L304.777 219.382L304.779 219.374L304.781 219.366L303.865 219.178ZM306.638 217.847L307.044 217.005L307.042 217.005L306.638 217.847ZM325.842 224.494L326.172 223.619L326.171 223.618L325.842 224.494ZM355.199 234.161L354.849 235.029L354.85 235.029L355.199 234.161ZM375.531 243.672L376.107 242.936L376.105 242.934L375.531 243.672ZM392.035 297.68L391.1 297.669L391.098 297.826L391.148 297.976L392.035 297.68ZM391.106 297.687C391.021 303.996 390.708 310.313 390.192 316.611L392.056 316.764C392.575 310.426 392.891 304.066 392.976 297.712L391.106 297.687ZM391.857 316.108C379.465 300.427 357.559 295.01 338.468 296.564L338.62 298.428C357.362 296.902 378.531 302.261 390.39 317.267L391.857 316.108ZM338.471 296.564C335.077 296.83 332.815 297.386 331.287 298.231C329.695 299.112 328.956 300.276 328.546 301.551C328.351 302.159 328.231 302.79 328.122 303.386C328.01 303.998 327.909 304.579 327.752 305.172C327.446 306.326 326.935 307.496 325.76 308.665L327.079 309.991C328.542 308.535 329.19 307.045 329.559 305.651C329.74 304.971 329.855 304.308 329.962 303.722C330.072 303.12 330.173 302.6 330.327 302.123C330.614 301.227 331.08 300.483 332.192 299.867C333.37 299.216 335.313 298.687 338.617 298.429L338.471 296.564ZM325.758 308.667C325.424 309 325.191 309.45 325.018 309.882C324.839 310.329 324.691 310.842 324.564 311.371C324.312 312.426 324.121 313.647 323.951 314.711C323.773 315.818 323.623 316.701 323.457 317.207C323.418 317.326 323.388 317.389 323.375 317.414C323.352 317.455 323.392 317.358 323.536 317.27C323.747 317.143 324.017 317.131 324.232 317.233C324.378 317.303 324.419 317.387 324.378 317.33L322.849 318.406C322.963 318.567 323.148 318.789 323.43 318.923C323.78 319.089 324.177 319.069 324.508 318.869C324.772 318.708 324.925 318.473 325.01 318.322C325.103 318.154 325.175 317.968 325.234 317.791C325.457 317.11 325.629 316.051 325.797 315.007C325.972 313.918 326.151 312.777 326.383 311.806C326.499 311.322 326.622 310.907 326.754 310.578C326.892 310.233 327.011 310.059 327.08 309.989L325.758 308.667ZM324.377 317.328C324.024 316.83 323.486 316.333 322.733 316.349C322.018 316.365 321.495 316.841 321.152 317.269C320.449 318.148 319.812 319.699 319.207 321.546C317.974 325.308 316.686 330.921 315.311 336.656C313.928 342.427 312.453 348.342 310.838 352.813C310.029 355.053 309.204 356.873 308.369 358.117C307.497 359.417 306.798 359.82 306.31 359.822L306.32 361.692C307.813 361.685 308.997 360.538 309.922 359.159C310.885 357.724 311.771 355.735 312.597 353.448C314.253 348.863 315.751 342.847 317.13 337.092C318.517 331.303 319.782 325.797 320.984 322.129C321.596 320.261 322.146 319.019 322.612 318.438C322.854 318.136 322.911 318.216 322.773 318.219C322.597 318.223 322.631 318.098 322.851 318.408L324.377 317.328ZM306.311 359.822C304.877 359.828 302.611 359.439 299.649 358.676C296.71 357.919 293.156 356.813 289.18 355.43C281.228 352.664 271.626 348.803 261.941 344.441C252.256 340.079 242.503 335.223 234.245 330.472C225.964 325.708 219.268 321.094 215.629 317.227L214.267 318.509C218.109 322.59 225.013 327.318 233.313 332.093C241.637 336.883 251.448 341.766 261.173 346.146C270.898 350.526 280.552 354.409 288.565 357.196C292.571 358.59 296.177 359.713 299.183 360.487C302.166 361.255 304.63 361.699 306.319 361.692L306.311 359.822ZM215.629 317.227C213.711 315.189 211.942 314.018 210.279 313.761C208.517 313.488 207.096 314.268 206.023 315.575C204.98 316.844 204.207 318.667 203.612 320.722C203.012 322.794 202.571 325.188 202.239 327.666C201.574 332.62 201.331 338.008 201.153 342.007C201.063 344.021 200.991 345.66 200.892 346.742C200.841 347.299 200.789 347.634 200.745 347.789C200.735 347.822 200.734 347.82 200.744 347.797C200.749 347.787 200.796 347.685 200.915 347.582C201.062 347.454 201.326 347.326 201.649 347.392C201.912 347.445 202.056 347.6 202.091 347.639L200.688 348.876C200.774 348.974 200.966 349.161 201.275 349.224C201.644 349.299 201.953 349.157 202.142 348.992C202.303 348.852 202.39 348.691 202.434 348.6C202.483 348.496 202.518 348.391 202.544 348.3C202.641 347.959 202.704 347.464 202.754 346.912C202.859 345.776 202.933 344.081 203.021 342.09C203.2 338.079 203.44 332.774 204.092 327.914C204.418 325.485 204.844 323.192 205.408 321.242C205.978 319.274 206.665 317.74 207.468 316.762C208.241 315.821 209.051 315.463 209.993 315.609C211.036 315.77 212.445 316.572 214.267 318.509L215.629 317.227ZM202.093 347.641C202.15 347.707 202.115 347.69 202.015 347.416C201.932 347.192 201.835 346.878 201.724 346.476C201.504 345.677 201.247 344.589 200.968 343.298C200.411 340.72 199.775 337.379 199.174 334.015C198.574 330.653 198.01 327.276 197.596 324.629C197.389 323.305 197.22 322.166 197.103 321.305C196.982 320.409 196.928 319.887 196.928 319.738H195.058C195.058 320.043 195.136 320.711 195.25 321.556C195.369 322.435 195.54 323.587 195.748 324.917C196.164 327.58 196.73 330.97 197.333 334.344C197.936 337.717 198.576 341.083 199.14 343.693C199.422 344.997 199.687 346.124 199.921 346.973C200.038 347.397 200.151 347.766 200.259 348.06C200.348 348.305 200.483 348.643 200.686 348.874L202.093 347.641ZM196.928 319.733C196.898 313.946 196.913 301.203 196.928 288.454C196.943 275.708 196.957 262.957 196.928 257.162L195.058 257.172C195.087 262.959 195.073 275.702 195.058 288.452C195.043 301.197 195.028 313.948 195.058 319.743L196.928 319.733ZM196.928 257.163C196.902 250.832 196.931 244.52 199.555 239.084L197.871 238.271C195.028 244.16 195.032 250.918 195.058 257.171L196.928 257.163ZM199.555 239.083C201.601 234.84 205.539 232.28 210.201 230.456C214.909 228.615 220.056 227.619 224.582 226.303L224.06 224.507C219.777 225.753 214.316 226.838 209.52 228.715C204.677 230.609 200.216 233.404 197.871 238.271L199.555 239.083ZM224.581 226.303C236.732 222.789 249.015 219.743 261.516 218.166L261.282 216.31C248.641 217.905 236.252 220.981 224.061 224.506L224.581 226.303ZM261.514 218.166C262.16 218.086 262.724 218.647 262.629 219.324L264.482 219.582C264.741 217.717 263.181 216.075 261.284 216.31L261.514 218.166ZM262.627 219.343C262.021 224.457 264.483 228.282 268.361 230.791C272.199 233.274 277.457 234.508 282.709 234.603C287.966 234.698 293.343 233.653 297.443 231.446C301.553 229.233 304.499 225.769 304.499 221.053H302.628C302.628 224.85 300.296 227.786 296.557 229.799C292.807 231.818 287.766 232.824 282.743 232.733C277.716 232.643 272.833 231.456 269.377 229.221C265.962 227.012 263.979 223.822 264.484 219.563L262.627 219.343ZM304.499 221.053C304.499 220.631 304.669 219.869 304.777 219.382L302.953 218.974C302.865 219.366 302.628 220.373 302.628 221.053H304.499ZM304.781 219.366C304.908 218.746 305.594 218.384 306.233 218.69L307.042 217.005C305.361 216.197 303.333 217.12 302.949 218.99L304.781 219.366ZM306.231 218.69C308.895 219.974 313.046 221.387 316.835 222.599C320.678 223.829 324.119 224.845 325.513 225.369L326.171 223.618C324.721 223.074 321.154 222.018 317.405 220.818C313.6 219.601 309.571 218.224 307.044 217.005L306.231 218.69ZM325.512 225.369C330.002 227.06 335.114 228.575 340.196 230.112C345.294 231.654 350.368 233.221 354.849 235.029L355.549 233.294C350.978 231.451 345.827 229.862 340.737 228.322C335.63 226.777 330.589 225.283 326.172 223.619L325.512 225.369ZM354.85 235.029C361.967 237.889 368.992 239.765 374.956 244.41L376.105 242.934C369.865 238.075 362.392 236.044 355.548 233.294L354.85 235.029ZM374.954 244.408C382.862 250.604 386.962 259.146 389.054 268.551C391.15 277.974 391.214 288.191 391.1 297.669L392.97 297.691C393.084 288.221 393.028 277.804 390.88 268.145C388.727 258.469 384.461 249.481 376.107 242.936L374.954 244.408ZM391.148 297.976L391.154 297.996L392.928 297.404L392.922 297.384L391.148 297.976Z" fill="black"/>
<path d="M66.0131 270.337C66.0131 270.337 64.9906 186.153 146.789 182.404V221.311C146.789 221.035 144.685 220.223 144.463 220.124C128.726 213.085 124.242 227.655 127.611 235.586C128.083 236.694 128.365 237.625 129.184 238.529C133.53 243.327 140.078 241.937 145.859 239.021L146.789 270.331H122.446C119.903 270.331 116.633 269.584 114.391 271.144C111.887 272.881 112.156 275.797 112.746 278.465C113.015 279.664 113.395 280.838 113.847 281.985C117.183 290.433 106.395 290.826 106.395 290.826C104.546 291.017 102.469 290.577 100.876 289.634C98.0116 287.936 97.1334 284.174 98.477 281.192C99.0276 279.979 99.9059 278.93 100.332 277.665C100.882 276.04 100.574 274.146 99.5323 272.776C97.5004 270.108 93.7447 270.528 90.7559 270.508C85.6238 270.469 71.4664 270.37 66 270.331L66.0131 270.337Z" fill="#87AB99" stroke="black" stroke-width="1.87015" stroke-linejoin="round"/>
<path d="M66.0137 273.516C67.0493 276.813 68.6354 297.984 90.7631 332.008C98.1499 343.373 97.0684 341.721 102.79 362.577H146.79V321.626C148.356 320.675 150.342 319.738 152.204 319.745C153.613 319.745 154.452 321.147 155.671 321.796C159.099 323.618 163.012 322.93 165.654 320.459C167.082 319.122 167.325 317.005 167.384 315.104C167.423 313.891 167.253 312.672 166.84 311.532C166.532 310.686 166.191 309.638 165.713 308.877C163.104 304.748 157.08 303.863 152.879 308.72C152.007 309.729 150.107 308.032 149.025 307.396C148.284 306.957 147.537 306.518 146.797 306.085V274.342L115.906 273.51C117.643 276.951 119.819 281.27 119.55 285.216C119.321 288.539 116.712 291.233 113.913 292.747C105.117 297.499 94.4138 292.852 93.2144 287.281C92.6835 284.823 93.588 282.837 96.3081 274.677C96.295 274.677 66.0268 273.516 66.0137 273.516Z" fill="#87AB99" stroke="black" stroke-width="1.87015" stroke-linejoin="round"/>
<path d="M199.467 137.192C199.467 137.192 247.163 161.259 242.372 215.74C242.372 215.74 241.756 229.523 232.127 251.854C231.288 251.441 204.114 238.057 203.839 237.933C207.771 236.189 211.153 232.847 212.294 228.619C213.375 224.614 211.671 219.79 208.65 217.024C205.084 213.76 199.447 212.993 195.141 215.196C192.441 216.572 190.382 219.056 189.353 221.888C187.702 226.443 189.734 228.186 187.518 229.871L159.59 216.146C173.557 187.982 173.033 189.037 173.341 188.421C174.311 186.461 173.833 184.423 171.919 183.125C169.513 181.493 166.38 181.912 163.7 180.949C160.521 179.808 158.207 176.584 158.135 173.202C158.069 169.82 160.252 166.51 163.385 165.238C166.518 163.966 170.392 164.825 172.699 167.296C173.669 168.332 174.357 169.597 175.242 170.711C176.5 172.284 179.004 173.962 181.01 172.684C183.907 170.835 199.473 137.192 199.473 137.192H199.467Z" fill="#F8D512" stroke="black" stroke-width="1.87015" stroke-linejoin="round"/>
<path d="M242.667 274.624C239.298 286.029 232.409 304.532 225.206 318.84C223.633 317.293 221.929 315.838 219.943 314.861C217.642 313.734 214.883 313.334 212.51 314.317C210.138 315.274 208.361 317.837 208.761 320.354C209.102 322.582 210.904 324.241 212.478 325.847C214.051 327.452 215.597 329.491 215.237 331.726C214.883 333.902 212.963 335.219 213.52 338.732C211.049 342.809 208.971 346.526 208.217 351.645C207.627 355.636 206.198 359.831 205.215 363.685L160.947 364.583C161.412 352.333 162.402 325.965 162.422 325.886C162.795 324.483 164.722 325.584 165.738 326.017C169.081 327.387 173.63 329.792 176.946 327.23C183.828 321.927 184.929 312.187 179.607 305.521C177.11 302.408 169.71 300.901 164.395 304.289C163.293 304.977 162.336 306.177 161.924 304.243C161.694 303.201 161.91 305.679 160.953 274.617H195.187C195.187 274.617 196.491 267.539 196.504 267.48C196.504 267.467 195.135 266.765 195.03 266.706C190.592 263.711 190.474 257.76 194.328 254.64C196.832 252.634 201.545 251.887 204.52 252.739C209.115 253.991 212.097 259.064 210.269 264.006C209.259 266.746 208.007 266.877 207.968 267.925C207.916 268.974 208.256 269.295 209.397 273.929L242.674 274.617L242.667 274.624Z" fill="#87AB99" stroke="black" stroke-width="1.87015" stroke-linejoin="round"/>
<path d="M236.184 136.339V120.442L240.392 112.962L251.145 103.611L261.431 98.468L280.133 91.9224C287.239 109.128 291.51 113.741 292.756 113.897C295.094 117.637 311.925 125.118 315.666 126.988C319.406 128.858 321.276 132.131 323.614 135.404C325.484 138.022 327.822 136.806 328.757 135.871L333.432 132.131C334.679 130.884 338.014 128.11 341.38 126.988C344.747 125.866 347.77 128.079 348.861 129.326C349.484 129.949 351.012 132.318 352.134 136.806C353.256 141.295 351.043 145.222 349.796 146.624C349.017 147.715 346.336 150.178 341.848 151.3C336.237 152.702 331.095 149.897 329.692 149.897C328.57 149.897 327.666 151.144 327.354 151.767C326.263 154.573 323.333 161.96 320.341 169.066C317.349 176.173 309.12 185.742 305.38 189.638C304.161 191.314 301.697 193.788 298.229 195.835L303.042 213.482V218.158C303.132 219.484 302.829 220.639 302.575 222.366C302.03 224.313 301.564 225.346 300.237 227.041C299.137 228.254 298.365 228.885 296.497 229.846C294.307 230.965 292.889 231.522 289.484 232.184C286.581 232.753 284.993 232.846 282.003 232.652C278.523 232.593 275.909 232.208 273.12 231.249C270.487 230.565 269.825 229.798 266.574 227.041C264.918 224.173 264.204 222.807 263.733 221.279L268.532 196.092C266.697 195.264 265.411 194.444 264.704 193.846C262.678 192.443 257.41 188.329 252.548 183.092C247.686 177.856 241.171 159.716 238.522 151.3L236.184 136.339Z" fill="#FFD7B1"/>
<path d="M235.064 129.962C235.883 148.413 239.685 164.222 249.595 180.791C253.888 187.975 260.075 193.31 267.082 196.502L260.029 229.484C259.93 230.113 260.302 230.781 260.964 230.781C261.475 230.781 261.82 230.002 261.899 229.484L269.081 197.348C278.657 201.071 288.849 200.71 297.796 196.627C303.426 219.862 297.927 198.515 303.793 221.009C303.826 220.695 303.899 222.259 303.977 221.898L306.284 228.737C306.434 229.307 307.018 229.635 307.568 229.484C308.132 229.333 308.466 228.763 308.316 228.199L305.628 218.04C306.021 217.974 306.441 218.014 306.834 218.204C312.025 220.708 323.194 223.782 326.039 224.85C334.946 228.206 346.344 230.867 355.396 234.518C362.088 237.205 369.049 239.119 374.941 243.438C375.898 242.75 376.756 241.924 377.471 240.935C380.945 236.13 380.145 229.464 375.039 220.557C370.333 212.279 357.821 200.717 361.786 176.131C364.31 160.237 374.449 138.063 342.339 89.7772C323.312 61.2197 289.773 53.7543 268.484 73.2929C264.198 77.2124 258.915 77.5336 253.429 79.9849C241.29 85.4251 233.484 95.6237 231.439 110.443C230.351 118.322 232.055 123.139 234.769 129.575C234.834 129.726 234.939 129.851 235.064 129.956V129.962ZM295.79 79.8669C296.321 79.6506 296.95 79.9259 297.147 80.4699C302.895 95.4402 315.42 107.395 330.633 112.455C331.19 112.639 331.492 113.229 331.321 113.786C331.105 114.402 330.417 114.645 329.978 114.461C314.162 109.198 301.165 96.7707 295.187 81.2303C294.971 80.6862 295.246 80.0701 295.79 79.8735V79.8669ZM253.036 104.092C261.747 97.6293 268.878 97.5638 279.647 92.8119C281.436 101.745 288.017 112.822 297.678 118.892C305.858 123.985 317.269 126.547 322.086 134.878C322.657 135.848 323.319 136.982 324.675 137.454C326.622 138.129 328.765 137.008 329.381 136.641C331.518 135.383 330.083 135.75 337.863 129.72C341.94 126.456 349.516 125.997 351.234 137.211C351.817 140.869 350.788 144.506 348.605 146.709C345.197 150.117 337.62 151.139 333.045 149.553C331.833 149.094 330.443 148.596 329.1 148.865C326.969 149.265 326.137 151.382 325.527 152.929C321.188 165.218 316.05 175.069 305.733 186.926C303.374 189.469 299.965 193.323 297.153 194.628C280.728 202.264 261.065 195.847 251.41 179.717C244.037 167.388 239.383 153.656 237.967 140.017C235.588 117.161 235.804 116.794 253.042 104.092H253.036Z" fill="black"/>
<path d="M320.341 325.608C321.495 322.18 337.055 293.035 328.757 300.828C316.153 312.672 292.485 340.273 281.068 353.276C290.159 352.483 298.159 363.336 307.25 362.543C308.259 362.458 318.185 331.583 318.938 329.348L320.341 325.608Z" fill="black"/>
<path d="M174.639 408.386C174.607 407.829 174.148 407.396 173.591 407.396H122.27C121.713 407.396 121.247 407.829 121.221 408.386C120.395 418.113 131 429.117 147.93 429.117C164.86 429.117 175.459 418.001 174.639 408.386Z" fill="black"/>
<path d="M187.295 368.47H109.259C105.954 368.47 103.274 371.149 103.274 374.454V376.807C103.274 380.112 105.954 382.791 109.259 382.791H187.295C190.6 382.791 193.279 380.112 193.279 376.807V374.454C193.279 371.149 190.6 368.47 187.295 368.47Z" fill="black"/>
<path d="M180.027 388.388H115.663C112.358 388.388 109.678 391.068 109.678 394.373V396.726C109.678 400.031 112.358 402.71 115.663 402.71H180.027C183.332 402.71 186.011 400.031 186.011 396.726V394.373C186.011 391.068 183.332 388.388 180.027 388.388Z" fill="black"/>
<path d="M212.807 340.185C209.067 345.422 207.82 352.341 207.665 355.147L213.743 358.419C220.101 367.022 238.99 386.16 248.34 394.887C263.543 412.051 292.411 426.591 304.913 428.55C342.357 438.529 365.016 412.34 368.498 395.355C371.979 378.369 390.445 316.341 390.445 316.341C371.512 297.054 345.869 294.53 331.095 299.977L302.107 358.419L261.431 342.991L246.003 336.445L235.249 332.237L229.171 324.289L225.431 318.679L218.885 314.003H212.807L209.067 317.276V321.484L213.743 326.627L215.145 330.367L214.21 334.575L212.807 340.185Z" fill="#FFD7B1"/>
<path d="M390.445 316.347C389.874 316.19 389.304 316.531 389.16 317.088L373.934 374.072C370.473 387.069 366.554 401.797 357.659 413.11C340.585 434.772 309.498 431.344 288.065 421.821C261.762 410.141 241.037 387.757 222.088 365.938C219.499 363.021 212.253 357.008 207.665 355.147C207.52 355.835 207.367 356.335 207.197 357.017C211.634 358.721 218.49 365.079 220.528 367.334C223.655 370.959 231.815 381.033 245.324 394.017C266.449 414.336 291.906 431.338 321.224 431.338C335.551 431.338 349.578 426.763 359.318 414.408C368.468 402.767 372.459 387.81 375.959 374.609L391.185 317.626C391.329 317.068 391.002 316.479 390.445 316.341V316.347Z" fill="black"/>
<path d="M211.724 326.574C215.841 330.808 213.874 332.126 212.865 334.813C211.449 338.569 213.265 342.993 216.28 345.647C219.209 348.256 222.959 349.514 226.269 350.629C226.813 350.812 227.416 350.524 227.599 349.967C227.783 349.416 227.488 348.82 226.937 348.636C223.817 347.587 220.284 346.401 217.676 344.074C215.342 342.016 213.737 338.464 214.838 335.554C215.467 333.856 216.968 332.217 216.057 329.281C214.746 325.434 209.758 322.995 209.758 319.738C209.712 317.929 211.036 316.061 212.911 315.294C217.191 313.524 221.805 316.716 224.958 320.111C225.718 321.055 226.367 322.622 227.114 323.644C229.231 326.495 232.089 329.504 232.941 330.893C233.505 331.811 233.918 332.427 234.494 332.65C242.746 336.098 306.108 361.719 306.245 361.719C307.392 361.719 307.707 360.139 306.652 359.693C264.015 342.278 253.935 338.483 235.412 330.762C235.255 330.631 234.901 330.054 234.73 329.779C234.193 328.914 234.114 328.842 231.807 326.096C226.806 320.177 228.949 322.097 226.872 319.181C226.819 319.05 226.747 318.925 226.649 318.82C226.577 318.742 226.504 318.676 226.524 318.696C226.321 318.473 226.59 318.689 225.797 317.955C225.587 317.85 219.111 310.431 212.098 313.334C209.411 314.435 207.582 317.083 207.648 319.751C207.648 322.556 209.876 324.706 211.718 326.574H211.724Z" fill="black"/>
<path d="M263.196 156.907C264.258 159.798 267.718 160.355 270.235 160.519C270.825 160.551 271.317 160.112 271.356 159.536C271.395 158.959 270.956 158.454 270.373 158.415C267.312 158.212 265.66 157.497 265.169 156.173C264.71 154.928 265.464 153.394 266.348 151.926C269.036 147.456 271.939 143.032 274.981 138.784C275.321 138.312 275.21 137.657 274.738 137.316C274.266 136.975 273.604 137.087 273.27 137.559C270.196 141.852 267.26 146.322 264.546 150.844C263.392 152.765 262.429 154.823 263.196 156.901V156.907Z" fill="black"/>
<path d="M253.548 116.991C258.247 112.777 265.752 114.389 268.289 120.183C268.459 120.576 268.846 120.812 269.252 120.812C270.006 120.812 270.524 120.032 270.216 119.337C267.109 112.252 257.907 110.247 252.145 115.425C251.713 115.811 251.68 116.48 252.067 116.912C252.453 117.345 253.122 117.378 253.555 116.991H253.548Z" fill="black"/>
<path d="M284.609 126.823C289.302 122.608 296.813 124.22 299.35 130.015C299.52 130.408 299.907 130.644 300.313 130.644C301.067 130.644 301.585 129.864 301.277 129.169C298.183 122.103 288.994 120.058 283.206 125.256C282.774 125.643 282.741 126.311 283.127 126.744C283.514 127.176 284.183 127.209 284.615 126.823H284.609Z" fill="black"/>
<ellipse cx="252.08" cy="128.39" rx="2.80523" ry="2.80523" fill="black"/>
<ellipse cx="287.613" cy="135.871" rx="2.80523" ry="2.80523" fill="black"/>
<path d="M272.732 171.143C272.378 171.602 272.47 172.264 272.929 172.618C279.614 177.744 289.433 174.683 292.087 166.745C292.271 166.195 291.976 165.598 291.425 165.415C290.868 165.231 290.278 165.526 290.095 166.077C287.886 172.69 279.758 175.194 274.213 170.947C273.748 170.593 273.086 170.685 272.739 171.143H272.732Z" fill="black"/>
<path d="M342.091 142.311C344.66 140.102 345.899 136.523 345.237 133.194C345.126 132.623 344.562 132.25 343.998 132.368C343.428 132.479 343.054 133.036 343.172 133.607C343.677 136.163 342.687 139.02 340.714 140.718C340.275 141.098 340.223 141.76 340.603 142.199C340.983 142.638 341.645 142.691 342.084 142.311H342.091Z" fill="black"/>
<path d="M363.648 93.4673C359.06 82.515 364.48 65.8472 372.745 62.3864C375.282 61.3246 377.648 62.5372 378.52 64.9689C378.946 66.1552 378.939 67.4071 378.828 68.6131C377.93 78.4316 370.622 86.5787 363.648 93.4673Z" fill="black"/>
<path d="M364.264 100.861C363.602 102.545 361.708 103.378 360.017 102.722C358.332 102.06 357.5 100.166 358.155 98.4749C358.811 96.7904 360.711 95.958 362.403 96.6134C364.087 97.2754 364.919 99.1696 364.264 100.861Z" fill="black"/>
<path d="M384.32 101.038C382.937 94.4177 385.854 84.5599 393.608 79.7621C395.076 78.851 396.695 78.2677 398.189 79.146C399.081 79.6703 399.618 80.6535 399.769 81.6104C399.92 82.5739 399.73 83.5178 399.474 84.4157C397.357 91.7304 390.619 96.8363 384.327 101.038H384.32Z" fill="black"/>
<path d="M383.705 106.734C382.957 107.913 381.397 108.267 380.211 107.52C379.031 106.773 378.677 105.213 379.424 104.027C380.172 102.847 381.732 102.493 382.918 103.24C384.098 103.987 384.452 105.547 383.705 106.734Z" fill="black"/>
<path d="M81.2696 130.729C89.41 113.58 81.9708 107.482 67.1248 120.145C55.0903 105.218 46.6203 109.806 51.7101 128.798C49.3316 129.095 47.1083 129.51 45.1079 130.046C39.1747 131.634 35.8106 134.108 35.6328 137.007C35.3485 141.617 42.8652 144.787 47.2181 146.195C38.8677 164.05 47.677 169.642 63.8383 154.394C76.7518 172.743 87.3708 169.756 81.6347 148.731C100.556 145.725 100.582 135.797 81.2696 130.729ZM79.9866 114.466C80.8818 114.466 81.6283 114.688 82.2003 115.135C84.7112 117.119 83.7126 123.132 80.1999 130.458C78.0347 129.932 75.7047 129.484 73.239 129.134C71.5004 126.144 69.6552 123.39 67.7808 120.975C70.7701 118.423 76.0828 114.466 79.9866 114.466ZM68.1008 148.431C65.7352 148.365 63.3826 148.202 60.9783 147.937C58.5999 143.846 56.5252 139.48 54.9223 135.288C56.3636 133.262 57.8275 131.366 59.5435 129.34C63.9643 129.272 68.2947 129.536 72.5927 130.131C74.0017 132.589 75.2103 134.948 76.3381 137.405C73.8789 141.317 71.0803 145.032 68.1008 148.431ZM76.8584 138.582C78.2545 141.745 79.4178 144.865 80.2904 147.823C77.0135 148.274 73.3489 148.502 69.4742 148.457C72.2049 145.277 74.7094 141.911 76.8552 138.582H76.8584ZM67.1862 149.457C66.136 150.617 65.076 151.721 64.0128 152.757C63.2178 151.587 62.4261 150.359 61.6537 149.074C64.1324 149.326 65.6157 149.395 67.1862 149.457ZM59.6695 147.78C55.7173 147.284 52.0041 146.526 48.7241 145.555C50.1783 142.614 52.0235 139.477 54.2016 136.317C55.769 140.32 57.5787 144.091 59.6663 147.784L59.6695 147.78ZM54.486 134.079C53.9463 132.595 53.4616 131.134 53.0512 129.713C54.6832 129.54 56.3862 129.425 58.141 129.367C56.7805 131.01 55.6559 132.468 54.486 134.079ZM60.4742 128.255C62.62 125.805 64.8142 123.586 66.9826 121.668C68.6695 123.841 70.3273 126.298 71.9076 128.955C68.0975 128.474 64.2293 128.239 60.4742 128.255ZM73.9176 130.321C75.9439 130.638 77.8861 131.017 79.7087 131.458C78.9137 133.039 78.0056 134.673 76.9974 136.333C76.1572 134.536 75.2782 132.745 73.9176 130.321ZM51.5647 123.099C50.9539 118.933 50.844 112.332 54.9869 112.332C58.8648 112.332 63.8706 117.789 66.3234 120.834C63.8997 122.978 61.4437 125.491 59.0587 128.272C56.8774 128.318 54.7704 128.455 52.7603 128.67C52.2336 126.726 51.8199 124.85 51.5614 123.099H51.5647ZM44.5715 144.107C30.905 138.546 36.0239 131.788 51.9912 129.831C52.4824 131.546 53.0673 133.314 53.7428 135.114C51.2867 138.601 49.2444 142.026 47.6738 145.225C46.5847 144.875 45.5474 144.503 44.5715 144.107ZM56.6221 158.891C51.988 162.008 48.2684 162.959 46.4167 161.498C43.9445 159.548 44.872 153.688 48.2555 146.516C51.8523 147.594 55.9596 148.414 60.332 148.927C61.2789 150.545 62.2483 152.077 63.2275 153.512C60.9912 155.633 58.7614 157.453 56.6253 158.891H56.6221ZM78.3902 165.459C74.9421 165.459 69.6746 160.822 64.6203 153.633C65.9421 152.349 67.2606 150.963 68.5629 149.496C72.6089 149.594 76.5999 149.437 80.5812 148.882C82.0968 154.384 83.9421 165.459 78.3902 165.459ZM81.3374 147.666C80.3873 144.418 79.1011 140.98 77.5338 137.503C78.7651 135.523 79.8509 133.585 80.7783 131.723C89.2387 133.915 94.9328 137.32 94.7259 140.709C94.532 143.892 89.1676 146.441 81.3374 147.666Z" fill="black"/>
<path d="M50.5785 123.677C52.0563 123.677 53.2543 122.466 53.2543 120.971C53.2543 119.477 52.0563 118.266 50.5785 118.266C49.1008 118.266 47.9028 119.477 47.9028 120.971C47.9028 122.466 49.1008 123.677 50.5785 123.677Z" fill="#F8D512"/>
<path d="M73.9015 166.325C75.5061 166.325 76.8068 165.01 76.8068 163.387C76.8068 161.765 75.5061 160.449 73.9015 160.449C72.297 160.449 70.9963 161.765 70.9963 163.387C70.9963 165.01 72.297 166.325 73.9015 166.325Z" fill="#F8D512"/>
<path d="M82.2776 128.909C84.0552 128.909 85.4962 127.452 85.4962 125.654C85.4962 123.857 84.0552 122.4 82.2776 122.4C80.5 122.4 79.0589 123.857 79.0589 125.654C79.0589 127.452 80.5 128.909 82.2776 128.909Z" fill="#87AB99"/>
<path d="M54.3734 162.991C55.9279 162.991 57.1881 161.717 57.1881 160.145C57.1881 158.573 55.9279 157.299 54.3734 157.299C52.8189 157.299 51.5587 158.573 51.5587 160.145C51.5587 161.717 52.8189 162.991 54.3734 162.991Z" fill="#87AB99"/>
<path d="M436.513 319.682C442.594 306.871 437.037 302.316 425.947 311.775C416.957 300.624 410.629 304.052 414.431 318.239C412.655 318.461 410.994 318.771 409.499 319.172C405.067 320.358 402.554 322.206 402.421 324.371C402.209 327.816 407.824 330.183 411.076 331.235C404.838 344.574 411.419 348.75 423.491 337.36C433.138 351.067 441.071 348.836 436.786 333.13C450.92 330.884 450.939 323.468 436.513 319.682ZM435.555 307.533C436.223 307.533 436.781 307.699 437.208 308.033C439.084 309.515 438.338 314.006 435.714 319.479C434.096 319.086 432.356 318.752 430.514 318.491C429.215 316.257 427.837 314.199 426.437 312.395C428.67 310.489 432.638 307.533 435.555 307.533ZM426.676 332.905C424.908 332.856 423.151 332.734 421.355 332.537C419.578 329.48 418.028 326.219 416.831 323.087C417.908 321.574 419.001 320.158 420.283 318.644C423.586 318.593 426.82 318.791 430.031 319.235C431.084 321.071 431.987 322.833 432.829 324.669C430.992 327.591 428.901 330.366 426.676 332.905ZM433.218 325.548C434.261 327.911 435.13 330.242 435.781 332.451C433.334 332.788 430.596 332.959 427.702 332.925C429.741 330.55 431.612 328.035 433.215 325.548H433.218ZM425.992 333.672C425.208 334.538 424.416 335.363 423.622 336.137C423.028 335.263 422.436 334.345 421.86 333.386C423.711 333.574 424.819 333.625 425.992 333.672ZM420.377 332.419C417.425 332.048 414.651 331.482 412.201 330.757C413.287 328.56 414.666 326.217 416.293 323.856C417.463 326.846 418.815 329.663 420.375 332.422L420.377 332.419ZM416.505 322.184C416.102 321.076 415.74 319.985 415.433 318.923C416.652 318.793 417.925 318.708 419.235 318.664C418.219 319.892 417.379 320.98 416.505 322.184ZM420.978 317.834C422.581 316.003 424.22 314.346 425.84 312.913C427.1 314.536 428.339 316.372 429.519 318.356C426.673 317.997 423.784 317.822 420.978 317.834ZM431.021 319.377C432.535 319.613 433.985 319.897 435.347 320.226C434.753 321.408 434.075 322.628 433.322 323.868C432.694 322.526 432.037 321.188 431.021 319.377ZM414.323 313.982C413.867 310.87 413.784 305.939 416.879 305.939C419.776 305.939 423.516 310.015 425.348 312.29C423.537 313.892 421.703 315.769 419.921 317.846C418.292 317.88 416.718 317.983 415.216 318.144C414.822 316.692 414.513 315.29 414.32 313.982H414.323ZM409.099 329.676C398.89 325.521 402.713 320.473 414.641 319.011C415.008 320.292 415.445 321.613 415.95 322.958C414.115 325.562 412.589 328.121 411.416 330.51C410.603 330.249 409.828 329.971 409.099 329.676ZM418.101 340.719C414.639 343.048 411.86 343.758 410.477 342.667C408.63 341.21 409.323 336.833 411.851 331.475C414.538 332.28 417.606 332.893 420.872 333.276C421.579 334.485 422.304 335.629 423.035 336.701C421.365 338.285 419.699 339.645 418.103 340.719H418.101ZM434.362 345.626C431.786 345.626 427.851 342.162 424.076 336.791C425.063 335.832 426.048 334.797 427.021 333.701C430.043 333.774 433.025 333.657 435.999 333.242C437.131 337.353 438.509 345.626 434.362 345.626ZM436.564 332.334C435.854 329.908 434.893 327.339 433.722 324.742C434.642 323.263 435.453 321.815 436.146 320.424C442.466 322.062 446.72 324.605 446.565 327.137C446.42 329.515 442.413 331.419 436.564 332.334Z" fill="black"/>
<path d="M413.586 314.414C414.69 314.414 415.585 313.509 415.585 312.393C415.585 311.276 414.69 310.371 413.586 310.371C412.482 310.371 411.587 311.276 411.587 312.393C411.587 313.509 412.482 314.414 413.586 314.414Z" fill="#F8D512"/>
<path d="M431.009 346.272C432.208 346.272 433.179 345.29 433.179 344.078C433.179 342.866 432.208 341.883 431.009 341.883C429.81 341.883 428.839 342.866 428.839 344.078C428.839 345.29 429.81 346.272 431.009 346.272Z" fill="#F8D512"/>
<path d="M437.266 318.322C438.594 318.322 439.671 317.234 439.671 315.891C439.671 314.548 438.594 313.46 437.266 313.46C435.938 313.46 434.862 314.548 434.862 315.891C434.862 317.234 435.938 318.322 437.266 318.322Z" fill="#87AB99"/>
<path d="M416.421 343.782C417.582 343.782 418.524 342.83 418.524 341.656C418.524 340.482 417.582 339.53 416.421 339.53C415.26 339.53 414.318 340.482 414.318 341.656C414.318 342.83 415.26 343.782 416.421 343.782Z" fill="#87AB99"/>
</svg>
