<?xml version="1.0" encoding="utf-8"?>
<!-- Generator: Adobe Illustrator 27.0.0, SVG Export Plug-In . SVG Version: 6.00 Build 0)  -->
<svg version="1.1" id="Layer_1" xmlns="http://www.w3.org/2000/svg" xmlns:xlink="http://www.w3.org/1999/xlink" x="0px" y="0px"
	 viewBox="0 0 460 460" style="enable-background:new 0 0 460 460;" xml:space="preserve">
<style type="text/css">
	.st0{filter:url(#Adobe_OpacityMaskFilter);}
	.st1{mask:url(#SVGID_1_);}
	.st2{fill:#FEFCEB;}
	.st3{fill:#FBEA88;}
	.st4{clip-path:url(#SVGID_00000072240383355570317630000002902853398885738115_);fill:#18292D;}
	.st5{fill:#F8D512;}
	.st6{clip-path:url(#SVGID_00000078038660547663242090000008123889301347490439_);fill:#18292D;}
	.st7{fill:#5185F7;}
	.st8{fill:#87AB99;}
	.st9{filter:url(#Adobe_OpacityMaskFilter_00000127741969241202557190000008424140238049478836_);}
	.st10{clip-path:url(#SVGID_00000023249142423041993730000017700605919053538210_);fill:#D9D9D9;}
	.st11{mask:url(#SVGID_00000044145477324089965430000017763589402184767137_);}
	.st12{clip-path:url(#SVGID_00000085969225307599027730000011637785239968143758_);fill:#EC732E;}
	
		.st13{clip-path:url(#SVGID_00000085969225307599027730000011637785239968143758_);fill-rule:evenodd;clip-rule:evenodd;fill:#FFD7B1;}
	
		.st14{clip-path:url(#SVGID_00000085969225307599027730000011637785239968143758_);fill-rule:evenodd;clip-rule:evenodd;fill:#FFEBF1;}
	
		.st15{clip-path:url(#SVGID_00000085969225307599027730000011637785239968143758_);fill-rule:evenodd;clip-rule:evenodd;fill:#FF4785;}
	
		.st16{clip-path:url(#SVGID_00000085969225307599027730000011637785239968143758_);fill-rule:evenodd;clip-rule:evenodd;fill:#9FBCAD;}
	.st17{clip-path:url(#SVGID_00000085969225307599027730000011637785239968143758_);fill-rule:evenodd;clip-rule:evenodd;}
	.st18{clip-path:url(#SVGID_00000085969225307599027730000011637785239968143758_);}
	
		.st19{clip-path:url(#SVGID_00000085969225307599027730000011637785239968143758_);fill-rule:evenodd;clip-rule:evenodd;fill:#FCF1B0;}
</style>
<defs>
	<filter id="Adobe_OpacityMaskFilter" filterUnits="userSpaceOnUse" x="0" y="0" width="460" height="460">
		<feColorMatrix  type="matrix" values="1 0 0 0 0  0 1 0 0 0  0 0 1 0 0  0 0 0 1 0"/>
	</filter>
</defs>
<mask maskUnits="userSpaceOnUse" x="0" y="0" width="460" height="460" id="SVGID_1_">
	<g class="st0">
		<rect width="460" height="460"/>
	</g>
</mask>
<g class="st1">
	<g>
		<defs>
			<rect id="SVGID_00000090274139021788728220000005742133460725378494_" width="460" height="460"/>
		</defs>
		<clipPath id="SVGID_00000033353890758794359300000015494593870970278323_">
			<use xlink:href="#SVGID_00000090274139021788728220000005742133460725378494_"  style="overflow:visible;"/>
		</clipPath>
	</g>
</g>
<g>
	<path class="st2" d="M153.92,380.16c51.66-22.51,76.55-9.38,82.54,0c7.84,19.09,47.99,34.95,145.84-54.3s78.98-187.25,57.31-225.1
		c-65.69-89.25-159.24-45.41-197.8-12.34c-26.02,25.01-90.41,66.25-139.85,31.1s-74.84-7.08-82.97,10.37
		c-7.06,18.76-22.15,68.71-13.26,126.37c8.9,57.66,32.36,95.44,42.98,107.12C62.25,378.35,102.26,402.67,153.92,380.16z"/>
	<path d="M212.95,260.73c0.17,0.45,0.3,0.83,0.36,1.13c0.03,0.15,0.05,0.27,0.06,0.35c0.01,0.09,0,0.13,0,0.12l1.16,0.31
		c0.09-0.32,0.03-0.71-0.05-1.05c-0.09-0.37-0.23-0.81-0.41-1.29L212.95,260.73z M209.39,253.45c0.64,1.17,1.29,2.42,1.89,3.61
		l1.07-0.54c-0.6-1.2-1.27-2.46-1.91-3.64L209.39,253.45z M206.91,247.82c-0.52,0.3-0.52,0.3-0.52,0.3s0,0,0,0c0,0,0,0,0,0
		c0,0,0,0,0,0c0,0,0,0,0,0c0,0,0,0,0,0.01c0,0.01,0.01,0.01,0.01,0.02c0.01,0.02,0.03,0.05,0.05,0.09c0.05,0.08,0.12,0.2,0.2,0.35
		c0.18,0.31,0.43,0.75,0.74,1.28l1.04-0.59c-0.31-0.54-0.56-0.98-0.74-1.29c-0.09-0.15-0.16-0.27-0.21-0.36
		c-0.02-0.04-0.04-0.07-0.05-0.09c-0.01-0.01-0.01-0.02-0.01-0.02c0,0,0,0,0-0.01c0,0,0,0,0,0c0,0,0,0,0,0c0,0,0,0,0,0l0,0
		C207.43,247.52,207.43,247.52,206.91,247.82z M205.61,246.31c0.28,0.74,0.47,1.19,0.59,1.46c0.06,0.13,0.11,0.22,0.14,0.29
		c0.02,0.03,0.03,0.06,0.04,0.08c0.01,0.01,0.01,0.02,0.02,0.03c0,0,0.01,0.01,0.01,0.01c0,0,0,0,0,0.01c0,0,0,0,0,0c0,0,0,0,0,0
		c0,0,0,0,0,0c0,0,0,0,0.49-0.35c0.49-0.35,0.49-0.35,0.49-0.35c0,0,0,0,0,0c0,0,0,0,0,0c0,0,0,0,0,0c0,0,0,0,0,0c0,0,0,0,0,0.01
		c0,0,0,0.01,0,0.01c0,0,0-0.01-0.01-0.02c-0.02-0.03-0.05-0.1-0.1-0.21c-0.11-0.23-0.28-0.65-0.56-1.37L205.61,246.31z
		 M203.24,239.12c0.43,1.41,0.81,2.6,1.14,3.6l1.14-0.37c-0.33-1-0.7-2.18-1.13-3.58L203.24,239.12z M201.62,233.69
		c0.18,0.63,0.36,1.24,0.53,1.82l1.15-0.34c-0.17-0.58-0.35-1.18-0.53-1.81L201.62,233.69z M201.04,231.73
		c0.17,0.59,0.36,1.24,0.58,1.97l1.15-0.34c-0.21-0.72-0.4-1.38-0.58-1.97L201.04,231.73z M202.37,227.27
		c-0.15,0-0.36-0.08-0.64-0.31c-0.27-0.22-0.5-0.5-0.71-0.73c-0.08-0.09-0.21-0.23-0.33-0.32c-0.04-0.03-0.09-0.06-0.16-0.09
		c-0.06-0.03-0.19-0.07-0.35-0.05c-0.18,0.02-0.33,0.12-0.43,0.25c-0.08,0.11-0.11,0.22-0.12,0.28c-0.02,0.12-0.01,0.24,0,0.32
		c0.01,0.09,0.03,0.19,0.05,0.3c0.05,0.22,0.12,0.52,0.23,0.91l1.16-0.32c-0.1-0.38-0.17-0.65-0.21-0.84
		c-0.02-0.09-0.03-0.16-0.03-0.19c-0.01-0.05,0-0.02-0.01,0.04c-0.01,0.03-0.03,0.12-0.1,0.21c-0.08,0.11-0.22,0.2-0.38,0.22
		c-0.14,0.02-0.24-0.02-0.28-0.04c-0.05-0.02-0.07-0.04-0.08-0.04c0,0,0.03,0.03,0.15,0.15c0.18,0.2,0.49,0.56,0.84,0.85
		c0.35,0.29,0.84,0.6,1.43,0.59L202.37,227.27z M204.18,222.54c-0.12,0.75-0.24,1.4-0.37,1.95l1.17,0.28
		c0.14-0.59,0.27-1.27,0.39-2.05L204.18,222.54z M204.55,220.52c-0.14,0.69-0.26,1.36-0.36,2.02l1.19,0.18
		c0.1-0.64,0.22-1.3,0.35-1.96L204.55,220.52z M206.85,212.54c-0.49,1.34-0.92,2.66-1.3,3.94l1.15,0.34
		c0.37-1.26,0.79-2.55,1.27-3.87L206.85,212.54z M210.06,204.92c-0.6,1.27-1.17,2.52-1.69,3.77l1.11,0.47
		c0.52-1.22,1.07-2.47,1.67-3.72L210.06,204.92z M213.87,197.61c-0.69,1.21-1.34,2.42-1.97,3.62l1.06,0.56
		c0.62-1.19,1.27-2.38,1.95-3.58L213.87,197.61z M218.15,190.57c-0.75,1.16-1.48,2.32-2.19,3.49l1.03,0.62
		c0.7-1.15,1.43-2.31,2.17-3.46L218.15,190.57z M222.82,183.79c-0.81,1.11-1.61,2.23-2.39,3.36l0.99,0.68
		c0.77-1.12,1.56-2.23,2.37-3.33L222.82,183.79z M227.87,177.27c-0.87,1.06-1.73,2.14-2.57,3.22l0.95,0.73
		c0.83-1.08,1.68-2.14,2.55-3.2L227.87,177.27z M233.27,171.05c-0.93,1.01-1.84,2.03-2.74,3.07l0.91,0.79
		c0.9-1.03,1.8-2.05,2.72-3.04L233.27,171.05z M239.04,165.17c-0.99,0.94-1.97,1.91-2.94,2.9l0.86,0.84
		c0.96-0.98,1.93-1.94,2.91-2.87L239.04,165.17z M245.23,159.7c-1.05,0.86-2.1,1.75-3.15,2.67l0.79,0.9
		c1.03-0.91,2.07-1.79,3.11-2.64L245.23,159.7z M251.9,154.82c-1.13,0.74-2.27,1.52-3.4,2.36l0.71,0.97
		c1.12-0.82,2.23-1.59,3.34-2.32L251.9,154.82z M259.15,150.81c-1.22,0.55-2.46,1.17-3.7,1.87l0.58,1.05
		c1.21-0.68,2.42-1.28,3.61-1.82L259.15,150.81z M267.11,148.29c-1.34,0.23-2.69,0.57-4.07,1.01l0.37,1.14
		c1.33-0.43,2.63-0.75,3.9-0.97L267.11,148.29z M275.49,148.56c-1.35-0.37-2.75-0.56-4.19-0.59l-0.03,1.2
		c1.35,0.03,2.65,0.21,3.91,0.55L275.49,148.56z M282.78,152.77c-1.06-1.03-2.18-1.88-3.36-2.57l-0.6,1.04
		c1.09,0.64,2.14,1.43,3.13,2.39L282.78,152.77z M286.63,157.77c-0.37-0.63-0.76-1.24-1.15-1.81l-0.98,0.69
		c0.38,0.54,0.75,1.12,1.1,1.73L286.63,157.77z M287.52,159.34c-0.28-0.52-0.57-1.04-0.88-1.57l-1.04,0.61
		c0.3,0.52,0.59,1.03,0.87,1.53L287.52,159.34z M290.33,166c-0.32-1.12-0.73-2.26-1.23-3.42l-1.1,0.47
		c0.48,1.12,0.88,2.21,1.18,3.27L290.33,166z M291.05,173.26c0.12-1.22,0.11-2.44-0.02-3.67l-1.19,0.12
		c0.12,1.15,0.13,2.29,0.01,3.43L291.05,173.26z M289.03,180.26c0.54-1.15,0.98-2.28,1.31-3.4l-1.15-0.34
		c-0.31,1.06-0.73,2.13-1.24,3.23L289.03,180.26z M286.33,184.97c0.34-0.51,0.67-1.02,0.98-1.52l-1.02-0.63
		c-0.3,0.49-0.61,0.98-0.95,1.48L286.33,184.97z M284.99,186.73c0.48-0.55,0.92-1.14,1.34-1.77l-1-0.67
		c-0.39,0.59-0.81,1.14-1.26,1.65L284.99,186.73z M277.84,191.84c1.37-0.57,2.66-1.27,3.87-2.13l-0.69-0.98
		c-1.13,0.8-2.35,1.46-3.64,2L277.84,191.84z M269.28,193.68c1.47-0.07,2.93-0.26,4.35-0.55l-0.25-1.17
		c-1.35,0.28-2.75,0.46-4.16,0.53L269.28,193.68z M262.74,193.36c0.72,0.1,1.45,0.19,2.17,0.25l0.1-1.2c-0.7-0.06-1.4-0.14-2.1-0.24
		L262.74,193.36z M260.56,192.93c0.69,0.17,1.42,0.32,2.18,0.43l0.17-1.19c-0.73-0.11-1.42-0.24-2.07-0.4L260.56,192.93z
		 M252.82,188.61c1.05,1.05,2.22,1.96,3.57,2.71l0.58-1.05c-1.24-0.69-2.32-1.53-3.3-2.5L252.82,188.61z M247.8,181.4
		c0.72,1.33,1.46,2.59,2.24,3.76l1-0.67c-0.76-1.13-1.47-2.35-2.18-3.67L247.8,181.4z M244.79,175.63c0.34,0.65,0.67,1.29,0.99,1.92
		l1.07-0.55c-0.32-0.63-0.65-1.27-1-1.93L244.79,175.63z M243.95,173.79c0.25,0.62,0.53,1.24,0.84,1.84l1.06-0.56
		c-0.29-0.56-0.56-1.14-0.79-1.73L243.95,173.79z M242.36,165.94c0.05,1.35,0.2,2.69,0.46,3.99l1.18-0.23
		c-0.24-1.23-0.38-2.5-0.43-3.8L242.36,165.94z M243.02,157.99c-0.25,1.32-0.44,2.64-0.55,3.95l1.2,0.1
		c0.11-1.26,0.29-2.54,0.53-3.83L243.02,157.99z M245.08,150.32c-0.43,1.26-0.83,2.53-1.17,3.79l1.16,0.32
		c0.34-1.24,0.72-2.48,1.15-3.72L245.08,150.32z M248.04,142.99c-0.55,1.19-1.08,2.41-1.57,3.63l1.11,0.45
		c0.49-1.21,1.01-2.4,1.55-3.58L248.04,142.99z M251.63,135.94c-0.63,1.13-1.25,2.3-1.86,3.49l1.07,0.54
		c0.6-1.18,1.21-2.33,1.84-3.45L251.63,135.94z M255.66,129.17c-0.68,1.07-1.37,2.19-2.07,3.36l1.03,0.61
		c0.69-1.16,1.38-2.28,2.06-3.34L255.66,129.17z M260.07,122.64c-0.68,0.96-1.44,2.04-2.24,3.23l0.99,0.67
		c0.8-1.18,1.55-2.25,2.23-3.2L260.07,122.64z M264.1,118.28c-0.46-0.38-0.46-0.38-0.46-0.38v0c0,0,0,0,0,0c0,0,0,0,0,0c0,0,0,0,0,0
		c0,0,0,0,0,0.01c0,0-0.01,0.01-0.02,0.02c-0.01,0.02-0.03,0.04-0.06,0.08c-0.05,0.07-0.13,0.17-0.24,0.3
		c-0.21,0.26-0.51,0.65-0.89,1.15l0.95,0.73c0.38-0.49,0.68-0.88,0.88-1.14c0.1-0.13,0.18-0.23,0.23-0.29
		c0.03-0.03,0.05-0.06,0.06-0.07c0.01-0.01,0.01-0.01,0.01-0.02c0,0,0,0,0,0c0,0,0,0,0,0c0,0,0,0,0,0c0,0,0,0,0,0
		C264.57,118.66,264.57,118.66,264.1,118.28z M264.88,116.44c-0.4,0.47-0.71,0.84-0.92,1.08c-0.1,0.12-0.18,0.22-0.24,0.28
		c-0.03,0.03-0.05,0.06-0.06,0.07c-0.01,0.01-0.01,0.01-0.02,0.02c0,0,0,0,0,0c0,0,0,0,0,0c0,0,0,0,0,0c0,0,0,0,0,0c0,0,0,0,0,0
		c0,0,0,0,0.46,0.38c0.46,0.38,0.46,0.38,0.46,0.38c0,0,0,0,0,0c0,0,0,0,0,0c0,0,0,0,0,0c0,0,0,0,0,0c0,0,0.01-0.01,0.01-0.02
		c0.01-0.02,0.03-0.04,0.06-0.07c0.05-0.06,0.13-0.16,0.23-0.28c0.21-0.25,0.51-0.61,0.91-1.08L264.88,116.44z M270.01,110.56
		c-0.95,1.06-1.81,2.04-2.56,2.9l0.9,0.79c0.75-0.86,1.61-1.83,2.56-2.89L270.01,110.56z M275.28,104.75
		c-0.93,1-1.81,1.97-2.65,2.89l0.89,0.81c0.84-0.92,1.72-1.88,2.64-2.88L275.28,104.75z M280.63,99.08
		c-0.92,0.96-1.82,1.91-2.69,2.83l0.87,0.82c0.87-0.92,1.76-1.86,2.68-2.82L280.63,99.08z M286.1,93.5
		c-0.93,0.93-1.85,1.86-2.75,2.78l0.86,0.84c0.89-0.91,1.81-1.84,2.74-2.77L286.1,93.5z M291.68,88.05
		c-0.95,0.9-1.88,1.81-2.81,2.71l0.84,0.86c0.92-0.9,1.85-1.8,2.8-2.7L291.68,88.05z M297.41,82.73c-0.97,0.87-1.93,1.75-2.88,2.64
		l0.82,0.88c0.95-0.88,1.91-1.76,2.87-2.63L297.41,82.73z M303.3,77.59c-0.99,0.83-1.98,1.68-2.97,2.54l0.79,0.9
		c0.98-0.86,1.97-1.7,2.95-2.53L303.3,77.59z M309.4,72.69c-1.03,0.78-2.05,1.59-3.08,2.42l0.75,0.93c1.02-0.82,2.04-1.62,3.05-2.4
		L309.4,72.69z M315.76,68.12c-1.07,0.71-2.14,1.46-3.22,2.24l0.7,0.97c1.07-0.77,2.13-1.51,3.18-2.21L315.76,68.12z M322.48,64.05
		c-1.12,0.6-2.26,1.26-3.41,1.96l0.62,1.03c1.13-0.69,2.25-1.33,3.36-1.92L322.48,64.05z M329.7,60.87c-1.2,0.4-2.43,0.88-3.68,1.44
		l0.49,1.1c1.22-0.55,2.41-1.01,3.57-1.4L329.7,60.87z M337.57,59.6c-1.29-0.07-2.64,0.04-4.04,0.28l0.21,1.18
		c1.32-0.23,2.58-0.33,3.77-0.27L337.57,59.6z M343.38,61.36c-0.59-0.37-1.2-0.68-1.84-0.94l-0.44,1.12
		c0.57,0.23,1.11,0.5,1.64,0.83L343.38,61.36z M214.07,260.3c-0.12-0.31-0.46-0.47-0.77-0.35s-0.47,0.46-0.35,0.77L214.07,260.3z
		 M211.28,257.06c0.15,0.3,0.51,0.42,0.8,0.27c0.3-0.15,0.42-0.51,0.27-0.8L211.28,257.06z M210.45,252.88
		c-0.16-0.29-0.52-0.4-0.81-0.24s-0.4,0.52-0.24,0.81L210.45,252.88z M207.41,249.89c0.16,0.29,0.53,0.39,0.82,0.22
		c0.29-0.16,0.39-0.53,0.22-0.82L207.41,249.89z M206.74,245.89c-0.12-0.31-0.46-0.47-0.77-0.35s-0.47,0.46-0.35,0.77L206.74,245.89
		z M204.37,242.72c0.1,0.32,0.44,0.49,0.76,0.38c0.32-0.1,0.49-0.44,0.38-0.76L204.37,242.72z M204.38,238.77
		c-0.1-0.32-0.43-0.49-0.75-0.4c-0.32,0.1-0.49,0.43-0.4,0.75L204.38,238.77z M202.15,235.51c0.09,0.32,0.43,0.5,0.75,0.4
		s0.5-0.43,0.4-0.75L202.15,235.51z M202.19,231.39c-0.09-0.32-0.43-0.5-0.74-0.41c-0.32,0.09-0.5,0.43-0.41,0.74L202.19,231.39z
		 M199.91,227.84c0.09,0.32,0.42,0.51,0.74,0.42c0.32-0.09,0.51-0.42,0.42-0.74L199.91,227.84z M202.4,228.47
		c0.33-0.01,0.59-0.28,0.59-0.61c-0.01-0.33-0.28-0.59-0.61-0.59L202.4,228.47z M203.81,224.5c-0.08,0.32,0.12,0.65,0.45,0.72
		c0.32,0.08,0.65-0.12,0.72-0.45L203.81,224.5z M205.72,220.76c0.07-0.32-0.14-0.64-0.47-0.71c-0.32-0.07-0.64,0.14-0.71,0.47
		L205.72,220.76z M205.56,216.48c-0.09,0.32,0.09,0.65,0.41,0.74c0.32,0.09,0.65-0.09,0.74-0.41L205.56,216.48z M207.98,212.95
		c0.11-0.31-0.05-0.66-0.36-0.77c-0.31-0.11-0.66,0.05-0.77,0.36L207.98,212.95z M208.37,208.69c-0.13,0.31,0.01,0.66,0.32,0.79
		c0.31,0.13,0.66-0.01,0.79-0.32L208.37,208.69z M211.14,205.44c0.14-0.3,0.01-0.66-0.28-0.8c-0.3-0.14-0.66-0.01-0.8,0.28
		L211.14,205.44z M211.9,201.23c-0.15,0.29-0.04,0.66,0.25,0.81c0.29,0.15,0.66,0.04,0.81-0.25L211.9,201.23z M214.91,198.2
		c0.16-0.29,0.06-0.65-0.23-0.82c-0.29-0.16-0.65-0.06-0.82,0.23L214.91,198.2z M215.95,194.06c-0.17,0.28-0.08,0.65,0.2,0.82
		c0.28,0.17,0.65,0.08,0.82-0.2L215.95,194.06z M219.15,191.23c0.18-0.28,0.1-0.65-0.18-0.83c-0.28-0.18-0.65-0.1-0.83,0.18
		L219.15,191.23z M220.44,187.15c-0.19,0.27-0.12,0.65,0.15,0.83c0.27,0.19,0.65,0.12,0.83-0.15L220.44,187.15z M223.79,184.5
		c0.2-0.27,0.14-0.64-0.13-0.84s-0.64-0.14-0.84,0.13L223.79,184.5z M225.3,180.5c-0.2,0.26-0.15,0.64,0.11,0.84
		c0.26,0.2,0.64,0.15,0.84-0.11L225.3,180.5z M228.8,178.03c0.21-0.26,0.17-0.63-0.08-0.84c-0.26-0.21-0.63-0.17-0.84,0.08
		L228.8,178.03z M230.52,174.12c-0.22,0.25-0.19,0.63,0.06,0.85c0.25,0.22,0.63,0.19,0.85-0.06L230.52,174.12z M234.15,171.87
		c0.22-0.24,0.21-0.62-0.04-0.85c-0.24-0.22-0.62-0.21-0.85,0.04L234.15,171.87z M236.11,168.06c-0.23,0.24-0.23,0.62,0.01,0.85
		c0.24,0.23,0.62,0.23,0.85-0.01L236.11,168.06z M239.87,166.04c0.24-0.23,0.25-0.61,0.02-0.85c-0.23-0.24-0.61-0.25-0.85-0.02
		L239.87,166.04z M242.08,162.37c-0.25,0.22-0.27,0.6-0.05,0.85s0.6,0.27,0.85,0.05L242.08,162.37z M245.99,160.63
		c0.26-0.21,0.3-0.59,0.09-0.84s-0.59-0.3-0.84-0.09L245.99,160.63z M248.5,157.17c-0.27,0.2-0.32,0.57-0.13,0.84
		c0.2,0.27,0.57,0.32,0.84,0.13L248.5,157.17z M252.56,155.82c0.28-0.18,0.36-0.55,0.18-0.83c-0.18-0.28-0.55-0.36-0.83-0.18
		L252.56,155.82z M255.45,152.68c-0.29,0.16-0.39,0.53-0.23,0.82c0.16,0.29,0.53,0.39,0.82,0.23L255.45,152.68z M259.64,151.91
		c0.3-0.14,0.44-0.49,0.3-0.79c-0.14-0.3-0.49-0.44-0.79-0.3L259.64,151.91z M263.04,149.3c-0.32,0.1-0.49,0.44-0.39,0.76
		s0.44,0.49,0.76,0.39L263.04,149.3z M267.31,149.47c0.33-0.06,0.55-0.36,0.49-0.69s-0.36-0.55-0.69-0.49L267.31,149.47z
		 M271.3,147.97c-0.33-0.01-0.61,0.25-0.61,0.59c-0.01,0.33,0.25,0.61,0.59,0.61L271.3,147.97z M275.18,149.72
		c0.32,0.09,0.65-0.1,0.74-0.42c0.09-0.32-0.1-0.65-0.42-0.74L275.18,149.72z M279.41,150.2c-0.29-0.17-0.65-0.07-0.82,0.22
		c-0.17,0.29-0.07,0.65,0.22,0.82L279.41,150.2z M281.94,153.63c0.24,0.23,0.62,0.22,0.85-0.01s0.22-0.62-0.01-0.85L281.94,153.63z
		 M285.48,155.97c-0.19-0.27-0.56-0.34-0.84-0.15s-0.34,0.56-0.15,0.84L285.48,155.97z M286.46,159.91c0.16,0.29,0.52,0.4,0.81,0.24
		c0.29-0.16,0.4-0.52,0.24-0.81L286.46,159.91z M289.1,162.59c-0.13-0.3-0.48-0.44-0.79-0.31c-0.3,0.13-0.44,0.48-0.31,0.79
		L289.1,162.59z M289.18,166.33c0.09,0.32,0.42,0.5,0.74,0.41s0.5-0.42,0.41-0.74L289.18,166.33z M291.04,169.59
		c-0.03-0.33-0.33-0.57-0.66-0.53c-0.33,0.03-0.57,0.33-0.53,0.66L291.04,169.59z M289.86,173.15c-0.03,0.33,0.21,0.62,0.54,0.66
		c0.33,0.03,0.62-0.21,0.66-0.54L289.86,173.15z M290.34,176.86c0.09-0.32-0.09-0.65-0.4-0.75c-0.32-0.09-0.65,0.09-0.75,0.4
		L290.34,176.86z M287.95,179.75c-0.14,0.3-0.01,0.66,0.29,0.8c0.3,0.14,0.66,0.01,0.8-0.29L287.95,179.75z M287.31,183.44
		c0.17-0.28,0.08-0.65-0.2-0.82c-0.28-0.17-0.65-0.08-0.82,0.2L287.31,183.44z M284.08,185.95c-0.22,0.25-0.19,0.63,0.06,0.85
		c0.25,0.22,0.63,0.19,0.85-0.06L284.08,185.95z M281.71,189.71c0.27-0.19,0.33-0.57,0.14-0.84s-0.57-0.33-0.84-0.14L281.71,189.71z
		 M277.38,190.73c-0.31,0.13-0.45,0.48-0.32,0.78c0.13,0.31,0.48,0.45,0.78,0.32L277.38,190.73z M273.63,193.13
		c0.32-0.07,0.53-0.39,0.46-0.71s-0.39-0.53-0.71-0.46L273.63,193.13z M269.22,192.48c-0.33,0.02-0.59,0.3-0.57,0.63
		c0.02,0.33,0.3,0.59,0.63,0.57L269.22,192.48z M264.91,193.61c0.33,0.03,0.62-0.22,0.65-0.55s-0.22-0.62-0.55-0.65L264.91,193.61z
		 M260.85,191.77c-0.32-0.08-0.65,0.12-0.73,0.44c-0.08,0.32,0.11,0.65,0.44,0.73L260.85,191.77z M256.39,191.32
		c0.29,0.16,0.65,0.06,0.82-0.23c0.16-0.29,0.06-0.66-0.23-0.82L256.39,191.32z M253.67,187.76c-0.23-0.23-0.61-0.23-0.85,0
		c-0.23,0.23-0.23,0.61,0,0.85L253.67,187.76z M250.04,185.16c0.18,0.28,0.56,0.35,0.83,0.16c0.28-0.18,0.35-0.56,0.16-0.83
		L250.04,185.16z M248.85,180.82c-0.16-0.29-0.52-0.4-0.81-0.24c-0.29,0.16-0.4,0.52-0.24,0.81L248.85,180.82z M245.79,177.55
		c0.15,0.29,0.51,0.41,0.81,0.26c0.29-0.15,0.41-0.51,0.26-0.81L245.79,177.55z M245.06,173.35c-0.12-0.31-0.47-0.46-0.78-0.33
		s-0.46,0.47-0.33,0.78L245.06,173.35z M242.82,169.92c0.06,0.33,0.38,0.54,0.7,0.47c0.33-0.06,0.54-0.38,0.47-0.7L242.82,169.92z
		 M243.56,165.89c-0.01-0.33-0.29-0.59-0.62-0.58c-0.33,0.01-0.59,0.29-0.58,0.62L243.56,165.89z M242.47,161.93
		c-0.03,0.33,0.22,0.62,0.55,0.65c0.33,0.03,0.62-0.22,0.65-0.55L242.47,161.93z M244.2,158.21c0.06-0.33-0.15-0.64-0.48-0.7
		s-0.64,0.15-0.7,0.48L244.2,158.21z M243.91,154.12c-0.09,0.32,0.1,0.65,0.42,0.74c0.32,0.09,0.65-0.1,0.74-0.42L243.91,154.12z
		 M246.22,150.71c0.11-0.31-0.06-0.65-0.37-0.76s-0.65,0.06-0.76,0.37L246.22,150.71z M246.47,146.62
		c-0.12,0.31,0.02,0.66,0.33,0.78c0.31,0.12,0.66-0.02,0.78-0.33L246.47,146.62z M249.14,143.49c0.14-0.3,0.01-0.66-0.29-0.8
		c-0.3-0.14-0.66-0.01-0.8,0.29L249.14,143.49z M249.77,139.43c-0.15,0.3-0.03,0.66,0.26,0.81c0.3,0.15,0.66,0.03,0.81-0.26
		L249.77,139.43z M252.67,136.53c0.16-0.29,0.06-0.66-0.23-0.82c-0.29-0.16-0.66-0.06-0.82,0.23L252.67,136.53z M253.59,132.53
		c-0.17,0.28-0.08,0.65,0.21,0.82c0.28,0.17,0.65,0.08,0.82-0.21L253.59,132.53z M256.68,129.81c0.18-0.28,0.1-0.65-0.18-0.83
		c-0.28-0.18-0.65-0.1-0.83,0.18L256.68,129.81z M257.83,125.86c-0.19,0.27-0.11,0.65,0.16,0.83c0.27,0.19,0.65,0.11,0.83-0.16
		L257.83,125.86z M261.05,123.34c0.19-0.27,0.13-0.64-0.14-0.84c-0.27-0.19-0.64-0.13-0.84,0.14L261.05,123.34z M262.42,119.46
		c-0.2,0.26-0.15,0.64,0.11,0.84c0.26,0.2,0.64,0.15,0.84-0.11L262.42,119.46z M265.79,117.22c0.22-0.25,0.19-0.63-0.07-0.85
		c-0.25-0.22-0.63-0.19-0.85,0.07L265.79,117.22z M267.45,113.46c-0.22,0.25-0.19,0.63,0.06,0.85c0.25,0.22,0.63,0.19,0.85-0.06
		L267.45,113.46z M270.91,111.36c0.22-0.25,0.2-0.63-0.05-0.85c-0.25-0.22-0.63-0.2-0.85,0.05L270.91,111.36z M272.63,107.65
		c-0.22,0.25-0.2,0.62,0.04,0.85c0.25,0.22,0.62,0.2,0.85-0.04L272.63,107.65z M276.17,105.57c0.22-0.24,0.21-0.62-0.03-0.85
		c-0.24-0.22-0.62-0.21-0.85,0.03L276.17,105.57z M277.94,101.91c-0.23,0.24-0.22,0.62,0.03,0.85c0.24,0.23,0.62,0.22,0.85-0.03
		L277.94,101.91z M281.5,99.91c0.23-0.24,0.22-0.62-0.02-0.85c-0.24-0.23-0.62-0.22-0.85,0.02L281.5,99.91z M283.35,96.27
		c-0.23,0.24-0.23,0.62,0.01,0.85c0.24,0.23,0.62,0.23,0.85-0.01L283.35,96.27z M286.95,94.35c0.23-0.23,0.23-0.61,0-0.85
		c-0.23-0.23-0.61-0.23-0.85,0L286.95,94.35z M288.87,90.76c-0.24,0.23-0.24,0.61-0.01,0.85c0.23,0.24,0.61,0.24,0.85,0.01
		L288.87,90.76z M292.51,88.91c0.24-0.23,0.25-0.61,0.02-0.85c-0.23-0.24-0.61-0.25-0.85-0.02L292.51,88.91z M294.52,85.37
		c-0.24,0.23-0.26,0.61-0.03,0.85s0.61,0.26,0.85,0.03L294.52,85.37z M298.21,83.62c0.25-0.22,0.27-0.6,0.04-0.85
		s-0.6-0.27-0.85-0.04L298.21,83.62z M300.33,80.14c-0.25,0.22-0.28,0.6-0.06,0.85s0.6,0.28,0.85,0.06L300.33,80.14z M304.07,78.51
		c0.25-0.21,0.29-0.59,0.07-0.85s-0.59-0.29-0.85-0.07L304.07,78.51z M306.32,75.11c-0.26,0.21-0.3,0.59-0.09,0.84
		c0.21,0.26,0.59,0.3,0.84,0.09L306.32,75.11z M310.13,73.65c0.26-0.2,0.31-0.58,0.11-0.84c-0.2-0.26-0.58-0.31-0.84-0.11
		L310.13,73.65z M312.54,70.36c-0.27,0.19-0.33,0.57-0.14,0.84c0.19,0.27,0.57,0.33,0.84,0.14L312.54,70.36z M316.43,69.12
		c0.28-0.18,0.35-0.56,0.17-0.83c-0.18-0.28-0.56-0.35-0.83-0.17L316.43,69.12z M319.07,66.01c-0.28,0.17-0.37,0.54-0.2,0.82
		c0.17,0.28,0.54,0.37,0.82,0.2L319.07,66.01z M323.05,65.11c0.29-0.16,0.4-0.52,0.25-0.81s-0.52-0.4-0.81-0.25L323.05,65.11z
		 M326.02,62.31c-0.3,0.14-0.44,0.49-0.3,0.79c0.14,0.3,0.49,0.44,0.79,0.3L326.02,62.31z M330.08,62.01
		c0.31-0.1,0.49-0.44,0.38-0.76c-0.1-0.31-0.44-0.49-0.76-0.38L330.08,62.01z M333.53,59.88c-0.33,0.06-0.54,0.37-0.49,0.7
		c0.06,0.33,0.37,0.54,0.7,0.49L333.53,59.88z M337.51,60.8c0.33,0.02,0.61-0.24,0.63-0.57c0.02-0.33-0.24-0.61-0.57-0.63
		L337.51,60.8z M341.54,60.43c-0.31-0.12-0.66,0.03-0.78,0.34c-0.12,0.31,0.03,0.66,0.34,0.78L341.54,60.43z M342.74,62.38
		c0.28,0.18,0.65,0.09,0.83-0.18c0.18-0.28,0.09-0.65-0.18-0.83L342.74,62.38z M264.1,118.28l-0.46-0.38l0,0L264.1,118.28z
		 M245.33,175.36l-0.53,0.28L245.33,175.36z M262.83,192.76l-0.09,0.59L262.83,192.76z M285.83,184.63l0.5,0.33L285.83,184.63z
		 M286.11,158.08l0.52-0.3L286.11,158.08z M204.78,222.63l-0.59-0.09L204.78,222.63z M202.19,233.52l-0.58,0.17L202.19,233.52z
		 M206.91,247.82l0.52-0.3c-0.01-0.02-0.02-0.03-0.03-0.05L206.91,247.82z M213.37,262.34c-0.09,0.32,0.11,0.65,0.43,0.73
		c0.32,0.09,0.65-0.11,0.73-0.43L213.37,262.34z"/>
	
		<ellipse transform="matrix(0.9959 -0.0899 0.0899 0.9959 -5.1228 33.1604)" class="st3" cx="365.43" cy="73.43" rx="48.5" ry="48.5"/>
	<g>
		<defs>
			
				<ellipse id="SVGID_00000036952776384542969780000008740082223206736056_" transform="matrix(0.9986 -0.0521 0.0521 0.9986 -3.33 19.1428)" cx="365.43" cy="73.43" rx="48.5" ry="48.5"/>
		</defs>
		<clipPath id="SVGID_00000011720203160783100140000007323764953533625008_">
			<use xlink:href="#SVGID_00000036952776384542969780000008740082223206736056_"  style="overflow:visible;"/>
		</clipPath>
		<path style="clip-path:url(#SVGID_00000011720203160783100140000007323764953533625008_);fill:#18292D;" d="M396.24,108.75
			c19.51-17.02,21.52-46.62,4.51-66.13l2.46-2.14c18.2,20.86,16.04,52.53-4.82,70.73L396.24,108.75z M330.11,104.24
			c17.02,19.51,46.62,21.52,66.13,4.51l2.14,2.46c-20.86,18.2-52.53,16.04-70.73-4.82L330.11,104.24z M334.62,38.11
			c-19.51,17.02-21.52,46.62-4.51,66.13l-2.46,2.14c-18.2-20.86-16.04-52.53,4.82-70.73L334.62,38.11z M400.75,42.62
			c-17.02-19.51-46.62-21.52-66.13-4.51l-2.14-2.46c20.86-18.2,52.53-16.04,70.73,4.82L400.75,42.62z"/>
	</g>
	<path d="M353.95,63.85c-0.3,0.37-0.85,0.43-1.22,0.13l-12.3-9.98c-0.37-0.3-0.43-0.85-0.13-1.22c0.3-0.37,0.85-0.43,1.22-0.13
		l12.3,9.98C354.19,62.93,354.25,63.48,353.95,63.85z"/>
	<path d="M392.3,94.97c-0.3,0.37-0.85,0.43-1.22,0.13l-12.3-9.98c-0.37-0.3-0.43-0.85-0.13-1.22c0.3-0.37,0.85-0.43,1.22-0.13
		l12.3,9.98C392.54,94.05,392.6,94.6,392.3,94.97z"/>
	<path d="M350.29,76.15c-0.14,0.17-0.34,0.29-0.58,0.32l-15.75,1.64c-0.48,0.05-0.9-0.3-0.95-0.77c-0.05-0.48,0.3-0.9,0.77-0.95
		l15.75-1.64c0.48-0.05,0.9,0.3,0.95,0.77C350.5,75.76,350.43,75.98,350.29,76.15z"/>
	<path d="M399.41,71.04c-0.14,0.17-0.34,0.29-0.58,0.32L383.07,73c-0.48,0.05-0.9-0.3-0.95-0.77c-0.05-0.48,0.3-0.9,0.77-0.95
		l15.75-1.64c0.48-0.05,0.9,0.3,0.95,0.77C399.62,70.64,399.55,70.87,399.41,71.04L399.41,71.04z"/>
	<path d="M356.4,87.44l-9.98,12.3c-0.3,0.37-0.85,0.43-1.22,0.13c-0.37-0.3-0.43-0.85-0.13-1.22l9.98-12.3
		c0.3-0.37,0.85-0.43,1.22-0.13C356.65,86.52,356.7,87.07,356.4,87.44z"/>
	<path d="M387.52,49.09l-9.98,12.3c-0.3,0.37-0.85,0.43-1.22,0.13s-0.43-0.85-0.13-1.22l9.98-12.3c0.3-0.37,0.85-0.43,1.22-0.13
		C387.77,48.18,387.82,48.72,387.52,49.09z"/>
	<path d="M370.35,106.85c-0.14,0.17-0.34,0.29-0.58,0.32c-0.48,0.05-0.9-0.3-0.95-0.77l-1.64-15.75c-0.05-0.48,0.3-0.9,0.77-0.95
		c0.48-0.05,0.9,0.3,0.95,0.77l1.64,15.75C370.56,106.46,370.49,106.68,370.35,106.85L370.35,106.85z"/>
	<path d="M365.24,57.73c-0.14,0.17-0.34,0.29-0.58,0.32c-0.48,0.05-0.9-0.3-0.95-0.77l-1.64-15.75c-0.05-0.48,0.3-0.9,0.77-0.95
		c0.48-0.05,0.9,0.3,0.95,0.77l1.64,15.75C365.45,57.34,365.38,57.56,365.24,57.73L365.24,57.73z"/>
	
		<ellipse transform="matrix(0.9992 -0.0391 0.0391 0.9992 -2.6304 14.3731)" class="st5" cx="366.36" cy="74.48" rx="13.31" ry="13.31"/>
	<path d="M356.55,65.96c-4.36,5.37-3.54,13.3,1.84,17.66s13.3,3.54,17.66-1.84c4.36-5.37,3.54-13.3-1.84-17.66
		S360.91,60.59,356.55,65.96z M377.39,82.87c-4.96,6.12-13.98,7.05-20.09,2.09c-6.12-4.96-7.05-13.98-2.09-20.09
		c4.96-6.12,13.98-7.05,20.09-2.09C381.42,67.74,382.35,76.76,377.39,82.87z"/>
	<path d="M350.9,69.64c-0.21,0.26-0.57,0.39-0.92,0.28l-7.59-2.26c-0.46-0.14-0.72-0.62-0.58-1.08s0.62-0.72,1.08-0.58l7.59,2.26
		c0.46,0.14,0.72,0.62,0.58,1.08C351.02,69.45,350.96,69.55,350.9,69.64z"/>
	<path d="M390.64,81.45c-0.21,0.26-0.57,0.39-0.92,0.28l-7.59-2.26c-0.46-0.14-0.72-0.62-0.58-1.08c0.14-0.46,0.62-0.72,1.08-0.58
		l7.59,2.26c0.46,0.14,0.72,0.62,0.58,1.08C390.76,81.27,390.71,81.37,390.64,81.45L390.64,81.45z"/>
	<path d="M352.22,82.4c-0.07,0.09-0.16,0.16-0.26,0.22L345,86.39c-0.42,0.23-0.95,0.07-1.17-0.35c-0.23-0.42-0.07-0.95,0.35-1.17
		l6.96-3.77c0.42-0.23,0.95-0.07,1.17,0.35C352.48,81.76,352.44,82.14,352.22,82.4z"/>
	<path d="M388.68,62.66c-0.07,0.09-0.16,0.16-0.26,0.22l-6.96,3.77c-0.42,0.23-0.95,0.07-1.17-0.35c-0.23-0.42-0.07-0.95,0.35-1.17
		l6.96-3.77c0.42-0.23,0.95-0.07,1.17,0.35C388.95,62.02,388.9,62.39,388.68,62.66L388.68,62.66z"/>
	<path d="M359.94,98.08c-0.21,0.26-0.57,0.39-0.92,0.28c-0.46-0.14-0.72-0.62-0.58-1.08l2.26-7.59c0.14-0.46,0.62-0.72,1.08-0.58
		c0.46,0.14,0.72,0.62,0.58,1.08l-2.26,7.59C360.06,97.9,360,98,359.94,98.08z"/>
	<path d="M371.75,58.34c-0.21,0.26-0.57,0.39-0.92,0.28c-0.46-0.14-0.72-0.62-0.58-1.08l2.26-7.59c0.14-0.46,0.62-0.72,1.08-0.58
		c0.46,0.14,0.72,0.62,0.58,1.08l-2.26,7.59C371.88,58.15,371.82,58.25,371.75,58.34z"/>
	<path d="M378.73,96.13c-0.07,0.09-0.16,0.16-0.26,0.22c-0.42,0.23-0.95,0.07-1.17-0.35l-3.77-6.96c-0.23-0.42-0.07-0.95,0.35-1.17
		c0.42-0.23,0.95-0.07,1.17,0.35l3.77,6.96C378.99,95.49,378.94,95.87,378.73,96.13z"/>
	<path d="M358.98,59.67c-0.07,0.09-0.16,0.16-0.26,0.22c-0.42,0.23-0.95,0.07-1.17-0.35l-3.77-6.96c-0.23-0.42-0.07-0.95,0.35-1.17
		c0.42-0.23,0.95-0.07,1.17,0.35l3.77,6.96C359.24,59.03,359.2,59.41,358.98,59.67L358.98,59.67z"/>
	<path d="M183.31,257.65c-0.39,0.59-0.72,1.11-0.94,1.53c-0.11,0.21-0.19,0.38-0.23,0.51c-0.05,0.15-0.04,0.18-0.04,0.14l-1.19,0.12
		c-0.02-0.23,0.04-0.47,0.11-0.66c0.07-0.2,0.18-0.43,0.3-0.67c0.25-0.47,0.6-1.04,1-1.64L183.31,257.65z M188.1,250.35
		c0.46,0.38,0.46,0.38,0.46,0.38c0,0,0,0,0,0c0,0,0,0,0,0c0,0,0,0,0,0c0,0,0,0,0,0c0,0,0,0-0.01,0.01
		c-0.01,0.01-0.01,0.02-0.03,0.03c-0.02,0.03-0.06,0.07-0.1,0.13c-0.09,0.11-0.22,0.27-0.38,0.47c-0.33,0.4-0.78,0.97-1.29,1.63
		l-0.94-0.74c0.52-0.66,0.98-1.23,1.3-1.64c0.16-0.2,0.3-0.37,0.39-0.48c0.05-0.06,0.08-0.1,0.1-0.13c0.01-0.01,0.02-0.03,0.03-0.03
		c0,0,0.01-0.01,0.01-0.01c0,0,0,0,0,0c0,0,0,0,0,0c0,0,0,0,0,0c0,0,0,0,0,0C187.64,249.97,187.64,249.97,188.1,250.35z
		 M189.99,248.31c-0.55,1.03-0.89,1.62-1.11,1.96c-0.11,0.17-0.18,0.28-0.24,0.35c-0.03,0.04-0.05,0.06-0.07,0.09
		c-0.01,0.01-0.02,0.02-0.03,0.03c0,0-0.01,0.01-0.01,0.01c0,0,0,0-0.01,0.01c0,0,0,0,0,0c0,0,0,0,0,0c0,0,0,0,0,0
		c0,0,0,0-0.42-0.42c-0.42-0.43-0.42-0.42-0.42-0.42c0,0,0,0,0,0c0,0,0,0,0,0c0,0,0,0,0,0c0,0,0,0,0,0c0,0-0.01,0.01-0.01,0.01
		c0,0-0.01,0.01-0.01,0.01c0,0,0.01-0.01,0.02-0.03c0.03-0.04,0.09-0.13,0.19-0.28c0.19-0.31,0.53-0.87,1.06-1.88L189.99,248.31z
		 M193.58,241.06c-0.42,0.89-0.81,1.7-1.16,2.43l-1.08-0.52c0.35-0.73,0.74-1.54,1.16-2.42L193.58,241.06z M194.82,238.44
		c-0.32,0.67-0.73,1.53-1.24,2.62l-1.08-0.51c0.52-1.09,0.92-1.95,1.24-2.62L194.82,238.44z M193.04,232.84
		c-0.01,1.32,0.09,2.18,0.24,2.71l-1.16,0.32c-0.19-0.69-0.3-1.67-0.29-3.05L193.04,232.84z M192.98,230.81
		c0.04,0.69,0.06,1.37,0.06,2.03l-1.2-0.01c0-0.63-0.01-1.28-0.06-1.94L192.98,230.81z M191.7,222.83c0.33,1.36,0.6,2.68,0.81,3.97
		l-1.18,0.19c-0.21-1.25-0.47-2.55-0.79-3.88L191.7,222.83z M189.37,215.14c0.46,1.29,0.89,2.56,1.27,3.82l-1.15,0.35
		c-0.38-1.24-0.79-2.49-1.25-3.76L189.37,215.14z M186.33,207.7c0.56,1.23,1.09,2.46,1.6,3.69l-1.11,0.45
		c-0.5-1.21-1.02-2.43-1.58-3.64L186.33,207.7z M182.72,200.52c0.65,1.17,1.27,2.36,1.87,3.55l-1.07,0.54
		c-0.59-1.18-1.21-2.35-1.85-3.51L182.72,200.52z M178.58,193.64c0.73,1.11,1.44,2.25,2.14,3.4l-1.03,0.62
		c-0.68-1.14-1.39-2.26-2.11-3.36L178.58,193.64z M173.88,187.12c0.82,1.04,1.63,2.11,2.43,3.21l-0.97,0.7
		c-0.78-1.09-1.58-2.15-2.39-3.17L173.88,187.12z M168.53,181.12c0.93,0.92,1.86,1.89,2.77,2.92l-0.9,0.8
		c-0.89-1.01-1.8-1.96-2.71-2.86L168.53,181.12z M162.28,175.98c1.09,0.71,2.17,1.52,3.24,2.41l-0.77,0.92
		c-1.04-0.87-2.09-1.65-3.14-2.33L162.28,175.98z M154.77,172.72c1.3,0.25,2.61,0.68,3.92,1.27l-0.49,1.09
		c-1.24-0.56-2.46-0.96-3.66-1.19L154.77,172.72z M146.64,173.84c1.28-0.67,2.61-1.09,3.97-1.27l0.15,1.19
		c-1.22,0.16-2.41,0.53-3.57,1.14L146.64,173.84z M141.9,177.84c0.46-0.56,0.93-1.07,1.41-1.54l0.84,0.86
		c-0.45,0.43-0.88,0.91-1.32,1.44L141.9,177.84z M140.84,179.19c0.33-0.45,0.69-0.9,1.06-1.35l0.93,0.76
		c-0.36,0.44-0.71,0.88-1.03,1.31L140.84,179.19z M137.56,185.31c0.33-1.08,0.79-2.15,1.38-3.22l1.05,0.58
		c-0.56,1.01-0.99,2-1.29,2.99L137.56,185.31z M137.33,192.3c-0.26-1.2-0.37-2.37-0.34-3.5l1.2,0.03c-0.03,1.03,0.08,2.1,0.32,3.22
		L137.33,192.3z M139.04,197.21c-0.25-0.54-0.48-1.07-0.68-1.59l1.12-0.44c0.2,0.5,0.41,1,0.65,1.53L139.04,197.21z M140.24,199.3
		c-0.45-0.64-0.86-1.34-1.2-2.08l1.09-0.5c0.31,0.68,0.68,1.31,1.09,1.89L140.24,199.3z M147.91,204.75
		c-1.52-0.51-2.97-1.2-4.26-2.1l0.68-0.99c1.19,0.82,2.53,1.47,3.96,1.95L147.91,204.75z M154.87,205.88
		c-0.79-0.01-1.57-0.06-2.35-0.14l0.13-1.19c0.74,0.08,1.49,0.12,2.24,0.13L154.87,205.88z M157.28,205.73
		c-0.75,0.11-1.55,0.16-2.41,0.15l0.02-1.2c0.8,0.01,1.53-0.04,2.22-0.14L157.28,205.73z M165.4,200.88
		c-1.09,1.25-2.24,2.34-3.58,3.18l-0.64-1.02c1.2-0.76,2.27-1.76,3.31-2.96L165.4,200.88z M169.65,195.33
		c-0.47,0.64-0.93,1.26-1.37,1.86l-0.97-0.71c0.44-0.6,0.9-1.23,1.37-1.87L169.65,195.33z M170.7,193.69
		c-0.31,0.57-0.66,1.11-1.05,1.64l-0.96-0.72c0.36-0.48,0.68-0.98,0.97-1.5L170.7,193.69z M172.82,186.32
		c-0.12,1.3-0.34,2.57-0.67,3.78l-1.16-0.32c0.31-1.14,0.52-2.33,0.63-3.57L172.82,186.32z M172.54,178.73
		c0.18,1.27,0.31,2.53,0.36,3.78l-1.2,0.05c-0.05-1.2-0.17-2.43-0.35-3.66L172.54,178.73z M170.92,171.36
		c0.35,1.2,0.66,2.43,0.94,3.66l-1.17,0.26c-0.27-1.2-0.58-2.4-0.92-3.58L170.92,171.36z M168.48,164.23
		c0.44,1.13,0.88,2.31,1.3,3.53l-1.13,0.39c-0.41-1.2-0.85-2.36-1.28-3.48L168.48,164.23z M165.46,157.35
		c0.49,1.02,1.03,2.17,1.57,3.42l-1.1,0.48c-0.54-1.23-1.07-2.37-1.56-3.38L165.46,157.35z M162.34,152.65
		c0.52-0.3,0.52-0.3,0.52-0.3c0,0,0,0,0,0s0,0,0,0c0,0,0,0,0,0c0,0,0,0,0,0c0,0,0,0,0,0.01c0,0,0.01,0.01,0.01,0.02
		c0.01,0.02,0.03,0.05,0.05,0.08c0.04,0.07,0.1,0.18,0.18,0.32c0.16,0.28,0.38,0.69,0.66,1.21l-1.06,0.56
		c-0.27-0.52-0.49-0.92-0.65-1.19c-0.08-0.14-0.13-0.24-0.17-0.31c-0.02-0.03-0.03-0.06-0.04-0.08c0-0.01-0.01-0.02-0.01-0.02
		c0,0,0,0,0,0c0,0,0,0,0,0c0,0,0,0,0,0c0,0,0,0,0,0c0,0,0,0,0,0C161.82,152.95,161.82,152.95,162.34,152.65z M161.83,150.65
		c0.33,0.54,0.59,0.96,0.76,1.25c0.09,0.14,0.15,0.25,0.2,0.33c0.02,0.04,0.04,0.07,0.05,0.08c0.01,0.01,0.01,0.02,0.01,0.02
		c0,0,0,0,0,0.01c0,0,0,0,0,0c0,0,0,0,0,0c0,0,0,0,0,0l0,0c0,0,0,0-0.52,0.31c-0.52,0.31-0.52,0.31-0.52,0.31s0,0,0,0c0,0,0,0,0,0
		c0,0,0,0,0,0c0,0,0,0,0,0c0,0,0,0,0-0.01c0,0-0.01-0.01-0.01-0.02c-0.01-0.02-0.03-0.05-0.05-0.08c-0.04-0.07-0.11-0.18-0.2-0.32
		c-0.17-0.29-0.43-0.71-0.76-1.24L161.83,150.65z M157.49,143.83c0.81,1.23,1.54,2.36,2.18,3.38l-1.01,0.64
		c-0.64-1.01-1.37-2.14-2.17-3.36L157.49,143.83z M152.99,137.16c0.8,1.15,1.56,2.26,2.28,3.33l-0.99,0.67
		c-0.72-1.07-1.48-2.18-2.27-3.32L152.99,137.16z M148.3,130.62c0.81,1.1,1.61,2.19,2.37,3.26l-0.98,0.7
		c-0.76-1.07-1.55-2.15-2.36-3.24L148.3,130.62z M143.38,124.23c0.84,1.05,1.67,2.11,2.49,3.17l-0.95,0.73
		c-0.81-1.05-1.64-2.11-2.47-3.15L143.38,124.23z M138.19,118.07c0.89,0.99,1.77,2.01,2.64,3.05l-0.92,0.77
		c-0.86-1.03-1.74-2.04-2.62-3.02L138.19,118.07z M132.59,112.23c0.95,0.91,1.9,1.87,2.85,2.86l-0.87,0.83
		c-0.94-0.98-1.88-1.93-2.82-2.82L132.59,112.23z M126.39,107c1.06,0.76,2.13,1.6,3.2,2.51l-0.78,0.91
		c-1.05-0.89-2.09-1.71-3.12-2.45L126.39,107z M119.08,103.25c1.25,0.34,2.53,0.88,3.83,1.57l-0.57,1.06
		c-1.24-0.66-2.44-1.16-3.58-1.47L119.08,103.25z M112.79,103.48c0.67-0.29,1.37-0.48,2.08-0.58l0.17,1.19
		c-0.61,0.09-1.2,0.25-1.77,0.49L112.79,103.48z M182.31,256.98c0.18-0.28,0.56-0.35,0.83-0.16c0.28,0.18,0.35,0.56,0.16,0.83
		L182.31,256.98z M186.75,252.99c-0.2,0.26-0.58,0.31-0.84,0.1c-0.26-0.2-0.31-0.58-0.1-0.84L186.75,252.99z M188.93,247.75
		c0.16-0.29,0.52-0.4,0.81-0.25c0.29,0.16,0.4,0.52,0.25,0.81L188.93,247.75z M192.41,243.49c-0.14,0.3-0.5,0.42-0.8,0.28
		c-0.3-0.14-0.42-0.5-0.28-0.8L192.41,243.49z M193.73,237.93c0.14-0.3,0.5-0.43,0.8-0.29c0.3,0.14,0.43,0.5,0.29,0.8L193.73,237.93
		z M193.28,235.55c0.09,0.32-0.1,0.65-0.42,0.74c-0.32,0.09-0.65-0.1-0.74-0.42L193.28,235.55z M191.78,230.89
		c-0.02-0.33,0.23-0.62,0.56-0.64s0.62,0.23,0.64,0.56L191.78,230.89z M192.51,226.8c0.05,0.33-0.17,0.64-0.49,0.69
		c-0.33,0.05-0.64-0.17-0.69-0.49L192.51,226.8z M190.54,223.11c-0.08-0.32,0.12-0.65,0.44-0.72c0.32-0.08,0.65,0.12,0.72,0.44
		L190.54,223.11z M190.64,218.95c0.1,0.32-0.08,0.65-0.4,0.75c-0.32,0.1-0.65-0.08-0.75-0.4L190.64,218.95z M188.24,215.54
		c-0.11-0.31,0.05-0.66,0.36-0.77c0.31-0.11,0.66,0.05,0.77,0.36L188.24,215.54z M187.92,211.38c0.13,0.31-0.02,0.66-0.33,0.78
		c-0.31,0.13-0.66-0.02-0.78-0.33L187.92,211.38z M185.24,208.19c-0.14-0.3,0-0.66,0.3-0.79c0.3-0.14,0.66,0,0.79,0.3L185.24,208.19
		z M184.59,204.08c0.15,0.3,0.03,0.66-0.27,0.81c-0.3,0.15-0.66,0.03-0.81-0.27L184.59,204.08z M181.67,201.1
		c-0.16-0.29-0.05-0.66,0.24-0.82c0.29-0.16,0.66-0.05,0.81,0.24L181.67,201.1z M180.72,197.04c0.17,0.28,0.08,0.65-0.21,0.82
		c-0.28,0.17-0.65,0.08-0.82-0.21L180.72,197.04z M177.58,194.3c-0.18-0.28-0.1-0.65,0.17-0.83c0.28-0.18,0.65-0.1,0.83,0.17
		L177.58,194.3z M176.31,190.33c0.19,0.27,0.13,0.64-0.14,0.84c-0.27,0.19-0.64,0.13-0.84-0.14L176.31,190.33z M172.94,187.86
		c-0.21-0.26-0.16-0.64,0.1-0.84c0.26-0.21,0.64-0.16,0.84,0.1L172.94,187.86z M171.29,184.04c0.22,0.25,0.2,0.63-0.05,0.85
		c-0.25,0.22-0.63,0.2-0.85-0.05L171.29,184.04z M167.68,181.97c-0.24-0.23-0.24-0.61-0.01-0.85c0.23-0.24,0.61-0.24,0.85-0.01
		L167.68,181.97z M165.52,178.39c0.26,0.21,0.29,0.59,0.08,0.84c-0.21,0.26-0.59,0.29-0.84,0.08L165.52,178.39z M161.62,176.98
		c-0.28-0.18-0.35-0.55-0.17-0.83c0.18-0.28,0.55-0.35,0.83-0.17L161.62,176.98z M158.69,173.99c0.3,0.14,0.44,0.49,0.3,0.79
		c-0.14,0.3-0.49,0.44-0.79,0.3L158.69,173.99z M154.55,173.9c-0.33-0.06-0.54-0.38-0.48-0.7c0.06-0.33,0.38-0.54,0.7-0.48
		L154.55,173.9z M150.62,172.57c0.33-0.04,0.63,0.19,0.67,0.52c0.04,0.33-0.19,0.63-0.52,0.67L150.62,172.57z M147.2,174.9
		c-0.29,0.15-0.66,0.04-0.81-0.25c-0.15-0.29-0.04-0.66,0.25-0.81L147.2,174.9z M143.3,176.3c0.24-0.23,0.62-0.23,0.85,0.01
		c0.23,0.24,0.23,0.62-0.01,0.85L143.3,176.3z M141.8,179.91c-0.2,0.27-0.57,0.32-0.84,0.12c-0.27-0.2-0.32-0.57-0.12-0.84
		L141.8,179.91z M138.94,182.09c0.16-0.29,0.53-0.39,0.82-0.23c0.29,0.16,0.39,0.53,0.23,0.82L138.94,182.09z M138.7,185.66
		c-0.1,0.32-0.43,0.5-0.75,0.4c-0.32-0.1-0.5-0.43-0.4-0.75L138.7,185.66z M136.99,188.8c0.01-0.33,0.28-0.59,0.62-0.58
		s0.59,0.28,0.58,0.62L136.99,188.8z M138.5,192.05c0.07,0.32-0.14,0.64-0.46,0.71s-0.64-0.14-0.71-0.46L138.5,192.05z
		 M138.36,195.62c-0.12-0.31,0.03-0.66,0.34-0.78s0.66,0.03,0.78,0.34L138.36,195.62z M141.22,198.6c0.19,0.27,0.13,0.65-0.14,0.84
		s-0.65,0.13-0.84-0.14L141.22,198.6z M143.65,202.65c-0.27-0.19-0.34-0.56-0.15-0.83c0.19-0.27,0.56-0.34,0.83-0.15L143.65,202.65z
		 M148.29,203.61c0.31,0.11,0.48,0.45,0.38,0.76c-0.11,0.31-0.45,0.48-0.76,0.38L148.29,203.61z M152.52,205.73
		c-0.33-0.04-0.57-0.33-0.53-0.66c0.04-0.33,0.33-0.57,0.66-0.53L152.52,205.73z M157.1,204.54c0.33-0.05,0.63,0.18,0.68,0.51
		c0.05,0.33-0.18,0.63-0.51,0.68L157.1,204.54z M161.83,204.06c-0.28,0.18-0.65,0.09-0.83-0.19c-0.18-0.28-0.09-0.65,0.19-0.83
		L161.83,204.06z M164.5,200.09c0.22-0.25,0.6-0.28,0.85-0.06c0.25,0.22,0.28,0.6,0.06,0.85L164.5,200.09z M168.28,197.19
		c-0.2,0.27-0.57,0.32-0.84,0.13c-0.27-0.2-0.32-0.57-0.13-0.84L168.28,197.19z M169.65,193.11c0.16-0.29,0.53-0.4,0.82-0.23
		c0.29,0.16,0.4,0.53,0.23,0.82L169.65,193.11z M172.15,190.1c-0.09,0.32-0.42,0.51-0.74,0.42c-0.32-0.09-0.51-0.42-0.42-0.74
		L172.15,190.1z M171.62,186.21c0.03-0.33,0.32-0.57,0.65-0.54c0.33,0.03,0.57,0.32,0.54,0.65L171.62,186.21z M172.9,182.51
		c0.01,0.33-0.24,0.61-0.57,0.62s-0.61-0.24-0.62-0.57L172.9,182.51z M171.35,178.9c-0.05-0.33,0.18-0.63,0.51-0.68
		s0.63,0.18,0.68,0.51L171.35,178.9z M171.86,175.01c0.07,0.32-0.13,0.64-0.46,0.72s-0.64-0.13-0.72-0.46L171.86,175.01z
		 M169.77,171.69c-0.09-0.32,0.09-0.65,0.41-0.74c0.32-0.09,0.65,0.09,0.74,0.41L169.77,171.69z M169.78,167.76
		c0.11,0.31-0.06,0.65-0.37,0.76c-0.31,0.11-0.65-0.06-0.76-0.37L169.78,167.76z M167.36,164.67c-0.12-0.31,0.03-0.66,0.34-0.78
		s0.66,0.03,0.78,0.34L167.36,164.67z M167.04,160.77c0.13,0.3-0.01,0.66-0.31,0.79c-0.3,0.13-0.66-0.01-0.79-0.31L167.04,160.77z
		 M164.38,157.87c-0.14-0.3-0.02-0.66,0.28-0.8c0.3-0.14,0.66-0.02,0.8,0.28L164.38,157.87z M163.76,153.99
		c0.16,0.29,0.04,0.66-0.25,0.81c-0.29,0.16-0.66,0.04-0.81-0.25L163.76,153.99z M160.8,151.27c-0.17-0.28-0.09-0.65,0.2-0.83
		c0.28-0.17,0.65-0.09,0.83,0.2L160.8,151.27z M159.67,147.21c0.18,0.28,0.1,0.65-0.18,0.83c-0.28,0.18-0.65,0.1-0.83-0.18
		L159.67,147.21z M156.49,144.49c-0.18-0.28-0.1-0.65,0.17-0.83c0.28-0.18,0.65-0.1,0.83,0.17L156.49,144.49z M155.27,140.49
		c0.19,0.27,0.11,0.65-0.16,0.83c-0.27,0.19-0.65,0.11-0.83-0.16L155.27,140.49z M152,137.85c-0.19-0.27-0.12-0.65,0.15-0.84
		c0.27-0.19,0.65-0.12,0.84,0.15L152,137.85z M150.67,133.88c0.19,0.27,0.13,0.64-0.14,0.84c-0.27,0.19-0.64,0.13-0.84-0.14
		L150.67,133.88z M147.33,131.33c-0.2-0.27-0.14-0.64,0.12-0.84s0.64-0.14,0.84,0.12L147.33,131.33z M145.87,127.4
		c0.2,0.26,0.15,0.64-0.11,0.84c-0.26,0.2-0.64,0.15-0.84-0.11L145.87,127.4z M142.45,124.98c-0.21-0.26-0.17-0.64,0.09-0.84
		s0.64-0.17,0.84,0.09L142.45,124.98z M140.82,121.12c0.21,0.25,0.18,0.63-0.07,0.85s-0.63,0.18-0.85-0.07L140.82,121.12z
		 M137.29,118.87c-0.22-0.25-0.2-0.63,0.05-0.85c0.25-0.22,0.63-0.2,0.85,0.05L137.29,118.87z M135.44,115.09
		c0.23,0.24,0.22,0.62-0.02,0.85s-0.62,0.22-0.85-0.02L135.44,115.09z M131.76,113.1c-0.24-0.23-0.25-0.61-0.02-0.85
		c0.23-0.24,0.61-0.25,0.85-0.02L131.76,113.1z M129.59,109.51c0.25,0.21,0.28,0.59,0.07,0.85c-0.21,0.25-0.59,0.28-0.85,0.07
		L129.59,109.51z M125.69,107.98c-0.27-0.19-0.33-0.57-0.14-0.84s0.57-0.33,0.84-0.14L125.69,107.98z M122.91,104.82
		c0.29,0.16,0.4,0.52,0.25,0.81c-0.16,0.29-0.52,0.4-0.81,0.25L122.91,104.82z M118.77,104.41c-0.32-0.09-0.51-0.42-0.42-0.74
		c0.09-0.32,0.42-0.51,0.74-0.42L118.77,104.41z M114.88,102.9c0.33-0.05,0.63,0.18,0.68,0.51c0.05,0.33-0.18,0.63-0.51,0.68
		L114.88,102.9z M113.27,104.59c-0.3,0.13-0.66-0.01-0.79-0.31c-0.13-0.3,0.01-0.66,0.31-0.79L113.27,104.59z M162.34,152.65
		l0.52-0.31l0,0L162.34,152.65z M169.17,194.97l0.48,0.36L169.17,194.97z M154.88,205.28l-0.01,0.6L154.88,205.28z M139.58,196.96
		l-0.54,0.25L139.58,196.96z M142.36,178.22l-0.46-0.38L142.36,178.22z M192.44,232.84l0.6,0L192.44,232.84z M193.04,240.8
		l0.54,0.26L193.04,240.8z M188.1,250.35l-0.46-0.38c0.01-0.02,0.03-0.03,0.04-0.04L188.1,250.35z M182.1,259.83
		c0.03,0.33-0.21,0.62-0.54,0.66c-0.33,0.03-0.62-0.21-0.66-0.54L182.1,259.83z"/>
	
		<ellipse transform="matrix(0.0484 -0.9988 0.9988 0.0484 52.1961 181.6488)" class="st3" cx="121.43" cy="63.43" rx="48.5" ry="48.5"/>
	<g>
		<defs>
			
				<ellipse id="SVGID_00000033344333127038331510000002710442980409884094_" transform="matrix(0.0561 -0.9984 0.9984 0.0561 51.2919 181.1145)" cx="121.43" cy="63.43" rx="48.5" ry="48.5"/>
		</defs>
		<clipPath id="SVGID_00000074436477882245410800000008147051939138209696_">
			<use xlink:href="#SVGID_00000033344333127038331510000002710442980409884094_"  style="overflow:visible;"/>
		</clipPath>
		<path style="clip-path:url(#SVGID_00000074436477882245410800000008147051939138209696_);fill:#18292D;" d="M90.62,98.75
			C71.11,81.73,69.1,52.13,86.11,32.62l-2.46-2.14c-18.2,20.86-16.04,52.53,4.82,70.73L90.62,98.75z M156.75,94.24
			c-17.02,19.51-46.62,21.52-66.13,4.51l-2.14,2.46c20.86,18.2,52.53,16.04,70.73-4.82L156.75,94.24z M152.24,28.11
			c19.51,17.02,21.52,46.62,4.51,66.13l2.46,2.14c18.2-20.86,16.04-52.53-4.82-70.73L152.24,28.11z M86.11,32.62
			c17.02-19.51,46.62-21.52,66.13-4.51l2.14-2.46c-20.86-18.2-52.53-16.04-70.73,4.82L86.11,32.62z"/>
	</g>
	<path class="st7" d="M120.34,64.38h-19.81c-0.01-0.12-0.02-0.24-0.02-0.36c0-4.65,3.78-8.43,8.42-8.43c0.09,0,0.18,0.01,0.26,0.01
		l0.1,0.01c0.27,0.02,0.54-0.09,0.72-0.31c0.18-0.21,0.24-0.5,0.17-0.77c-0.27-1.02-0.4-1.99-0.4-2.96c0-6.38,5.2-11.58,11.58-11.58
		c6.39,0,11.26,4.85,11.55,11.04c0.01,0.23,0.12,0.45,0.29,0.6c0.17,0.15,0.4,0.23,0.63,0.21l0.06-0.01
		c0.41-0.03,0.74-0.35,0.79-0.76c0.25-2.29,2.18-4.02,4.49-4.02c2.49,0,4.52,2.03,4.52,4.52c0,0.67-0.14,1.32-0.43,1.92
		c-0.14,0.3-0.1,0.66,0.11,0.91c0.21,0.26,0.55,0.37,0.87,0.28c0.73-0.19,1.49-0.28,2.24-0.28c4.89,0,8.85,3.82,9.02,8.7
		c0,0.01,0,0.03,0,0.04c0.01,0.1,0.01,0.19,0.01,0.29c0,4.75-3.7,8.7-8.45,9.01c-0.38,0.03-0.77,0.03-1.15,0c-0.03,0-0.05,0-0.08,0
		h-12.49c-1.05-0.53-2.23-0.84-3.48-0.84H105.3c-1.05-0.5-1.97-1.21-2.72-2.08h17.76c4.26,0,7.72-3.47,7.72-7.73
		c0-4.26-3.46-7.73-7.72-7.73c-2.11,0-4.16,0.88-5.61,2.42c-0.47,0.5-0.72,1.15-0.7,1.84c0.02,0.69,0.3,1.33,0.8,1.8
		c0.5,0.47,1.15,0.72,1.84,0.7c0.69-0.02,1.33-0.3,1.8-0.8c0.49-0.52,1.16-0.81,1.88-0.81c1.42,0,2.58,1.16,2.58,2.58
		C122.92,63.22,121.77,64.38,120.34,64.38L120.34,64.38z"/>
	<path d="M121.34,64.38L121.34,64.38l-2,0v0H121.34z M121.92,61.8c0,0.87-0.71,1.58-1.58,1.58v2c1.97,0,3.58-1.61,3.58-3.58H121.92z
		 M120.34,60.22c0.87,0,1.58,0.71,1.58,1.58h2c0-1.97-1.6-3.58-3.58-3.58V60.22z M119.2,60.71c0.3-0.32,0.71-0.5,1.15-0.5v-2
		c-0.99,0-1.92,0.4-2.6,1.12L119.2,60.71z M116.7,61.83c0.95-0.03,1.84-0.42,2.5-1.12l-1.45-1.37c-0.29,0.31-0.68,0.48-1.1,0.49
		L116.7,61.83z M114.15,60.85c0.69,0.66,1.6,1,2.55,0.98l-0.05-2c-0.43,0.01-0.82-0.14-1.13-0.43L114.15,60.85z M113.03,58.36
		c0.03,0.95,0.42,1.84,1.12,2.5l1.37-1.45c-0.31-0.29-0.48-0.68-0.49-1.1L113.03,58.36z M114,55.8c-0.65,0.69-1,1.6-0.98,2.55
		l2-0.06c-0.01-0.42,0.14-0.82,0.43-1.13L114,55.8z M120.34,53.07c-2.39,0-4.7,1-6.34,2.73l1.45,1.37c1.26-1.34,3.05-2.11,4.89-2.11
		V53.07z M129.07,61.8c0-4.81-3.91-8.73-8.72-8.73v2c3.71,0,6.72,3.02,6.72,6.73H129.07z M120.34,70.52c4.81,0,8.72-3.91,8.72-8.73
		h-2c0,3.71-3.02,6.73-6.72,6.73V70.52z M102.58,70.52h17.76v-2h-17.76V70.52z M105.74,70.71c-0.92-0.44-1.74-1.07-2.4-1.84
		l-1.51,1.31c0.84,0.97,1.88,1.77,3.04,2.33L105.74,70.71z M129.89,70.61H105.3v2h24.58V70.61z M133.82,71.55
		c-1.18-0.6-2.52-0.95-3.93-0.95v2c1.09,0,2.11,0.27,3.03,0.73L133.82,71.55z M145.86,71.44h-12.49v2h12.49V71.44z M146.03,71.45
		c-0.06-0.01-0.11-0.01-0.17-0.01v2c0,0-0.01,0-0.01,0L146.03,71.45z M147,71.45c-0.33,0.03-0.65,0.03-0.98,0l-0.18,1.99
		c0.44,0.04,0.89,0.04,1.33,0L147,71.45z M154.54,63.44c0,4.22-3.29,7.74-7.52,8.01l0.13,2c5.28-0.34,9.39-4.73,9.39-10.01H154.54z
		 M154.54,63.23c0,0.05,0,0.09,0,0.21h2c0-0.08,0-0.22-0.01-0.37L154.54,63.23z M154.53,63.15c0,0.02,0,0.06,0.01,0.09l1.99-0.18
		c0,0.01,0,0.02,0,0.02L154.53,63.15z M146.51,55.41c4.35,0,7.87,3.4,8.02,7.73l2-0.07c-0.19-5.42-4.59-9.67-10.02-9.67V55.41z
		 M144.52,55.66c0.65-0.17,1.32-0.25,2-0.25v-2c-0.84,0-1.68,0.11-2.49,0.32L144.52,55.66z M142.62,55.05
		c0.46,0.56,1.2,0.79,1.89,0.62l-0.49-1.94c0.05-0.01,0.11,0,0.14,0.05L142.62,55.05z M142.38,53.07c-0.31,0.65-0.21,1.42,0.25,1.98
		l1.54-1.27c0.03,0.04,0.04,0.1,0.02,0.15L142.38,53.07z M142.71,51.58c0,0.53-0.11,1.03-0.33,1.49l1.81,0.85
		c0.35-0.74,0.52-1.53,0.52-2.35H142.71z M139.19,48.06c1.94,0,3.52,1.58,3.52,3.52h2c0-3.04-2.47-5.52-5.52-5.52V48.06z
		 M135.69,51.19c0.19-1.78,1.69-3.13,3.49-3.13v-2c-2.82,0-5.18,2.11-5.48,4.92L135.69,51.19z M133.99,52.84
		c0.89-0.07,1.61-0.76,1.7-1.65l-1.99-0.22c0.01-0.07,0.06-0.12,0.13-0.13L133.99,52.84z M133.93,52.85l0.06-0.01l-0.16-1.99
		l-0.06,0.01L133.93,52.85z M132.55,52.39c0.38,0.33,0.87,0.5,1.37,0.46l-0.15-1.99c0.01,0,0.03,0,0.05,0.01
		c0.02,0.01,0.04,0.02,0.05,0.03L132.55,52.39z M131.93,51.08c0.02,0.5,0.25,0.97,0.63,1.31l1.32-1.5c0.03,0.02,0.05,0.06,0.05,0.1
		L131.93,51.08z M121.38,41c5.84,0,10.28,4.42,10.55,10.08l2-0.09C133.61,44.28,128.31,39,121.38,39V41z M110.8,51.58
		c0-5.83,4.75-10.58,10.58-10.58v-2c-6.94,0-12.58,5.64-12.58,12.58H110.8z M111.16,54.29c-0.25-0.94-0.36-1.83-0.36-2.71h-2
		c0,1.07,0.14,2.12,0.43,3.22L111.16,54.29z M110.8,55.95c0.38-0.46,0.52-1.08,0.37-1.66l-1.93,0.51c-0.01-0.04,0-0.09,0.03-0.13
		L110.8,55.95z M109.23,56.61c0.6,0.05,1.19-0.21,1.57-0.67l-1.54-1.28c0.03-0.03,0.07-0.06,0.13-0.05L109.23,56.61z M109.13,56.6
		l0.1,0.01l0.15-1.99l-0.1-0.01L109.13,56.6z M108.94,56.59c0.04,0,0.08,0,0.18,0.01l0.16-1.99c-0.07-0.01-0.2-0.02-0.34-0.02V56.59
		z M101.52,64.02c0-4.1,3.33-7.43,7.42-7.43v-2c-5.2,0-9.42,4.23-9.42,9.43H101.52z M101.54,64.34c-0.01-0.23-0.02-0.2-0.02-0.31h-2
		c0,0.13,0.02,0.39,0.02,0.4L101.54,64.34z M120.34,63.38h-19.81v2h19.81V63.38z M120.34,64.38h-1v1h1V64.38z M118.47,60.03
		l-0.73-0.69l0,0L118.47,60.03z M116.67,60.83l0.03,1l0,0L116.67,60.83z M114.83,60.13l0.69-0.73l0,0L114.83,60.13z M114.03,58.33
		l-1,0.03l0,0L114.03,58.33z M114.73,56.49l0.73,0.69l0,0L114.73,56.49z M102.58,69.52v-1h-2.19l1.43,1.65L102.58,69.52z
		 M105.3,71.61l-0.43,0.9l0.21,0.1h0.23V71.61z M133.37,72.44l-0.45,0.89l0.21,0.11h0.24V72.44z M145.94,72.45l-0.09,1l0,0
		L145.94,72.45z M147.09,72.45l-0.06-1l-0.01,0l-0.01,0L147.09,72.45z M155.54,63.15l1-0.08l0-0.01L155.54,63.15z M155.53,63.11
		l-1,0.03l0,0L155.53,63.11z M144.27,54.7l0.25,0.97l0,0L144.27,54.7z M143.39,54.41l-0.77,0.64l0,0L143.39,54.41z M143.28,53.5
		l0.9,0.43l0,0L143.28,53.5z M134.7,51.08l0.99,0.11v0L134.7,51.08z M133.91,51.85l-0.08-1l0,0L133.91,51.85z M133.85,51.85l0.08,1
		l0,0L133.85,51.85z M133.22,51.64l-0.66,0.75l0,0L133.22,51.64z M132.93,51.04l1-0.05l0,0L132.93,51.04z M109.8,51.58h1H109.8z
		 M110.2,54.54l0.97-0.25l0,0L110.2,54.54z M109.3,55.62l0.08-1l0,0L109.3,55.62z M109.2,55.61l-0.08,1l0,0L109.2,55.61z
		 M100.54,64.38l-1,0.04l0.04,0.96h0.96V64.38z M120.34,64.38h1v-1h-1V64.38z"/>
	<path d="M112.03,76.8H83.86c-0.47,0-0.86,0.38-0.86,0.86s0.38,0.86,0.86,0.86h28.17c2.37,0,4.29,1.93,4.29,4.3
		c0,2.37-1.93,4.3-4.29,4.3c-1.19,0-2.3-0.48-3.12-1.35c-0.16-0.17-0.37-0.26-0.6-0.27h-0.02c-0.22,0-0.43,0.08-0.59,0.23
		c-0.34,0.32-0.36,0.87-0.03,1.21c1.13,1.2,2.72,1.88,4.37,1.88c3.31,0,6.01-2.7,6.01-6.01C118.04,79.5,115.35,76.8,112.03,76.8z
		 M96.04,73.32c-0.47,0-0.86,0.38-0.86,0.86c0,0.47,0.38,0.86,0.86,0.86h33.84c2.37,0,4.29,1.93,4.29,4.3s-1.93,4.3-4.29,4.3
		c-1.19,0-2.3-0.48-3.12-1.34c-0.17-0.18-0.4-0.27-0.62-0.27c-0.21,0-0.42,0.08-0.59,0.23c-0.17,0.16-0.26,0.37-0.27,0.6
		c-0.01,0.23,0.08,0.45,0.23,0.61c1.13,1.2,2.72,1.88,4.37,1.88c3.31,0,6.01-2.7,6.01-6.01s-2.7-6.01-6.01-6.01L96.04,73.32z
		 M86.5,67.81c-0.47,0-0.86-0.38-0.86-0.86c0-0.47,0.38-0.86,0.86-0.86h33.84c2.37,0,4.29-1.93,4.29-4.3s-1.93-4.3-4.29-4.3
		c-1.19,0-2.3,0.48-3.12,1.35c-0.16,0.17-0.37,0.26-0.6,0.27c-0.22,0.01-0.45-0.08-0.61-0.23c-0.17-0.16-0.26-0.37-0.27-0.6
		c-0.01-0.23,0.08-0.45,0.23-0.61c1.13-1.2,2.72-1.88,4.37-1.88c3.31,0,6.01,2.7,6.01,6.01s-2.7,6.01-6.01,6.01L86.5,67.81z"/>
	<path d="M364.84,372.27c-1.08-3.68-2.54-7.58-4.31-11.53c1.4-2.25,2.63-4.44,3.68-6.56c9.59,2.49,16.05,6.35,15.82,10.19
		C379.81,367.99,373.72,370.88,364.84,372.27z M361.5,392.45c-3.91,0-9.88-5.26-15.62-13.41c1.5-1.46,2.99-3.03,4.47-4.69
		c4.59,0.11,9.11-0.07,13.63-0.7C365.7,379.89,367.8,392.45,361.5,392.45z M336.81,385c-5.26,3.54-9.47,4.61-11.57,2.96
		c-2.8-2.21-1.75-8.86,2.09-16.99c4.08,1.22,8.74,2.15,13.7,2.73c1.07,1.83,2.17,3.57,3.28,5.2
		C341.77,381.31,339.24,383.37,336.81,385L336.81,385z M323.15,368.24c-15.5-6.31-9.69-13.97,8.41-16.19
		c0.56,1.95,1.22,3.95,1.99,5.99c-2.79,3.95-5.1,7.84-6.88,11.47C325.43,369.11,324.25,368.69,323.15,368.24z M331.08,344.41
		c-0.69-4.73-0.82-12.21,3.88-12.21c4.4,0,10.07,6.19,12.86,9.64c-2.75,2.43-5.53,5.28-8.24,8.43c-2.47,0.05-4.86,0.21-7.14,0.45
		C331.84,348.53,331.37,346.4,331.08,344.41L331.08,344.41z M356.43,352.6c2.3,0.36,4.5,0.79,6.57,1.29
		c-0.9,1.79-1.93,3.65-3.07,5.53C358.97,357.38,357.97,355.35,356.43,352.6z M341.18,350.26c2.43-2.78,4.92-5.3,7.38-7.47
		c1.91,2.46,3.79,5.25,5.59,8.26C349.83,350.51,345.44,350.24,341.18,350.26z M334.39,356.86c-0.61-1.68-1.16-3.34-1.63-4.95
		c1.85-0.2,3.78-0.33,5.77-0.39C336.99,353.39,335.72,355.04,334.39,356.86z M340.27,372.4c-4.48-0.56-8.69-1.42-12.41-2.52
		c1.65-3.34,3.74-6.89,6.21-10.48C335.84,363.94,337.9,368.22,340.27,372.4L340.27,372.4z M348.79,374.3
		c-1.19,1.32-2.39,2.57-3.6,3.74c-0.9-1.33-1.8-2.72-2.68-4.18C345.33,374.16,347.01,374.23,348.79,374.3z M359.76,361.97
		c1.58,3.59,2.9,7.13,3.89,10.48c-3.72,0.51-7.87,0.77-12.27,0.72C354.48,369.57,357.32,365.75,359.76,361.97L359.76,361.97z
		 M349.83,373.14c-2.68-0.07-5.35-0.26-8.08-0.56c-2.7-4.64-5.05-9.59-6.87-14.35c1.63-2.3,3.29-4.45,5.24-6.74
		c5.01-0.08,9.92,0.22,14.8,0.9c1.6,2.79,2.97,5.46,4.25,8.25C356.38,365.07,353.21,369.29,349.83,373.14z M363.31,334.62
		c1.02,0,1.86,0.25,2.51,0.76c2.85,2.25,1.72,9.07-2.27,17.38c-2.46-0.6-5.1-1.1-7.89-1.5c-1.97-3.39-4.06-6.51-6.19-9.25
		C352.86,339.11,358.88,334.62,363.31,334.62z M364.76,353.07c9.23-19.45,0.8-26.36-16.04-12c-13.65-16.93-23.25-11.73-17.48,9.81
		c-2.7,0.34-5.22,0.81-7.49,1.42c-6.73,1.8-10.54,4.61-10.75,7.89c-0.32,5.23,8.2,8.82,13.14,10.42
		c-9.47,20.25,0.52,26.59,18.85,9.3c14.64,20.81,26.69,17.42,20.18-6.42C386.64,370.07,386.67,358.81,364.76,353.07z"/>
	<ellipse class="st5" cx="329.96" cy="342" rx="3.03" ry="3.07"/>
	<ellipse class="st5" cx="356.41" cy="390.1" rx="3.29" ry="3.33"/>
	<ellipse class="st8" cx="365.91" cy="347.31" rx="3.65" ry="3.69"/>
	<ellipse class="st8" cx="334.26" cy="386.43" rx="3.19" ry="3.23"/>
	<path d="M50.63,387.59c-0.62-2.11-1.45-4.33-2.47-6.59c0.8-1.28,1.5-2.54,2.1-3.75c5.48,1.42,9.18,3.63,9.04,5.83
		C59.18,385.14,55.71,386.8,50.63,387.59z M48.72,399.13c-2.24,0-5.65-3.01-8.93-7.67c0.86-0.83,1.71-1.73,2.56-2.68
		c2.62,0.06,5.21-0.04,7.79-0.4C51.12,391.95,52.32,399.13,48.72,399.13z M34.61,394.87c-3,2.02-5.42,2.64-6.62,1.69
		c-1.6-1.26-1-5.06,1.19-9.71c2.33,0.7,4.99,1.23,7.83,1.56c0.61,1.05,1.24,2.04,1.88,2.97C37.44,392.76,36,393.94,34.61,394.87
		L34.61,394.87z M26.8,385.28c-8.86-3.61-5.54-7.99,4.81-9.25c0.32,1.11,0.7,2.26,1.14,3.43c-1.59,2.26-2.92,4.48-3.93,6.55
		C28.1,385.78,27.43,385.54,26.8,385.28z M31.33,371.67c-0.4-2.7-0.47-6.98,2.22-6.98c2.51,0,5.76,3.54,7.35,5.51
		c-1.57,1.39-3.16,3.02-4.71,4.82c-1.41,0.03-2.78,0.12-4.08,0.26C31.77,374.02,31.5,372.8,31.33,371.67L31.33,371.67z
		 M45.82,376.35c1.31,0.21,2.57,0.45,3.75,0.74c-0.52,1.03-1.1,2.08-1.76,3.16C47.27,379.08,46.7,377.92,45.82,376.35z
		 M37.11,375.01c1.39-1.59,2.81-3.03,4.22-4.27c1.09,1.41,2.17,3,3.19,4.72C42.05,375.15,39.54,375,37.11,375.01z M33.23,378.78
		c-0.35-0.96-0.66-1.91-0.93-2.83c1.06-0.11,2.16-0.19,3.3-0.22C34.71,376.79,33.98,377.74,33.23,378.78z M36.59,387.67
		c-2.56-0.32-4.97-0.81-7.1-1.44c0.94-1.91,2.14-3.94,3.55-5.99C34.06,382.83,35.23,385.27,36.59,387.67L36.59,387.67z
		 M41.46,388.75c-0.68,0.75-1.37,1.47-2.06,2.14c-0.52-0.76-1.03-1.55-1.53-2.39C39.48,388.67,40.44,388.71,41.46,388.75z
		 M47.73,381.7c0.9,2.05,1.66,4.07,2.22,5.99c-2.12,0.29-4.5,0.44-7.01,0.41C44.71,386.04,46.34,383.86,47.73,381.7L47.73,381.7z
		 M42.05,388.09c-1.53-0.04-3.06-0.15-4.62-0.32c-1.54-2.65-2.89-5.48-3.93-8.2c0.93-1.31,1.88-2.54,3-3.86
		c2.87-0.04,5.67,0.13,8.46,0.51c0.91,1.59,1.7,3.12,2.43,4.72C45.8,383.48,43.98,385.88,42.05,388.09z M49.76,366.07
		c0.58,0,1.06,0.14,1.43,0.43c1.63,1.29,0.98,5.18-1.3,9.93c-1.4-0.34-2.91-0.63-4.51-0.86c-1.13-1.94-2.32-3.72-3.54-5.29
		C43.78,368.64,47.23,366.07,49.76,366.07z M50.59,376.61c5.28-11.12,0.45-15.07-9.17-6.86c-7.8-9.68-13.29-6.7-9.99,5.61
		c-1.54,0.19-2.98,0.46-4.28,0.81c-3.85,1.03-6.03,2.63-6.14,4.51c-0.18,2.99,4.69,5.04,7.51,5.96c-5.41,11.57,0.3,15.2,10.77,5.31
		c8.37,11.89,15.25,9.96,11.54-3.67C63.09,386.33,63.11,379.9,50.59,376.61z"/>
	<ellipse class="st5" cx="30.69" cy="370.29" rx="1.73" ry="1.75"/>
	<ellipse class="st5" cx="45.81" cy="397.78" rx="1.88" ry="1.9"/>
	<ellipse class="st8" cx="51.24" cy="373.32" rx="2.09" ry="2.11"/>
	<ellipse class="st8" cx="33.15" cy="395.68" rx="1.82" ry="1.84"/>
	<defs>
		
			<filter id="Adobe_OpacityMaskFilter_00000120544261038983617310000018326804550352650425_" filterUnits="userSpaceOnUse" x="-27.36" y="0" width="487.36" height="659">
			<feColorMatrix  type="matrix" values="1 0 0 0 0  0 1 0 0 0  0 0 1 0 0  0 0 0 1 0"/>
		</filter>
	</defs>
	
		<mask maskUnits="userSpaceOnUse" x="-27.36" y="0" width="487.36" height="659" id="SVGID_00000041278658907764455340000009498617675901767839_">
		<g style="filter:url(#Adobe_OpacityMaskFilter_00000120544261038983617310000018326804550352650425_);">
			<g>
				<defs>
					<rect id="SVGID_00000154389286466836858080000015273668221192347556_" width="460" height="460"/>
				</defs>
				<clipPath id="SVGID_00000116213959048290366000000008634803256204923032_">
					<use xlink:href="#SVGID_00000154389286466836858080000015273668221192347556_"  style="overflow:visible;"/>
				</clipPath>
				
					<rect x="8" y="106" style="clip-path:url(#SVGID_00000116213959048290366000000008634803256204923032_);fill:#D9D9D9;" width="471" height="337"/>
			</g>
		</g>
	</mask>
	<g style="mask:url(#SVGID_00000041278658907764455340000009498617675901767839_);">
		<g>
			<defs>
				<rect id="SVGID_00000111894518978791385440000008497441193491051407_" width="460" height="460"/>
			</defs>
			<clipPath id="SVGID_00000115473656697317590510000009662288859118262972_">
				<use xlink:href="#SVGID_00000111894518978791385440000008497441193491051407_"  style="overflow:visible;"/>
			</clipPath>
			<path style="clip-path:url(#SVGID_00000115473656697317590510000009662288859118262972_);fill:#EC732E;" d="M282.79,328.87
				c-1.86,3.05-4.62,3.99-7.9,4.46c-4.47,0.63-8.93,1.64-13.39,2.49c-9,1.7-17.98,3.38-26.97,5.09
				c-1.88-10.34-5.9-19.98-14.16-26.99c-2.5-2.12-5.61-4.09-8.84-4.93l-0.55-0.78c11.19-0.18,22.37-0.38,33.56-0.56
				c1.84-0.03,3.64-0.13,5.44-0.27c1.94-0.14,3.87,0.24,5.83,0c-1.15-7.7-2.19-15.39-3.6-23.06c-0.71-3.88-1.72-7.75-2.57-11.63
				l18.36-2.13c0,0,0.04,0.08,0.06,0.13c2.42,4.73,4.62,9.58,6.59,14.51c3.92,9.87,6.95,20.12,9,30.55
				c0.86,4.42,1.48,9.32-0.89,13.15V328.87z"/>
			<path style="clip-path:url(#SVGID_00000115473656697317590510000009662288859118262972_);fill:#EC732E;" d="M177.85,343.83
				c1.24,1.83,2.15,3.44,2.83,6.04c0.95,3.7,1.76,7.44,2.4,11.21c1.18,6.82,1.84,13.72,2.01,20.64c0.05,2.02,0.02,2.3-1.49,3.64
				c-1.34,1.19-2.69,2.37-4,3.62c-2.52,2.36-4.96,4.82-7.25,7.41c-3.39,3.82-6.62,7.88-9.38,12.17c-2.22,3.44-5.64,5.27-5.67,9.91
				c0,0.82,0.08,1.71-0.4,2.36c-0.96,1.32-3.47,0.85-4.16,2.32c-0.69,1.5,1.4,3.08,1.07,4.7c-0.25,1.28-1.77,1.76-2.9,2.45
				c-3.97,2.41-2.85,8.81,0.2,11.49c1.63,1.42,3.71,2.27,5.37,3.66c2.37,2,3.68,4.95,5.01,7.75c1.32,2.8,2.85,5.69,5.47,7.37
				c4.6,2.94,7.11,0.58,7.94-3.6c1.12-5.62,3.32-11.55,6.02-16.63c2.67-5.01,6.7-9.15,9.26-14.17c2.75-5.41,4.96-11.25,7.17-16.9
				c4.45-11.29,8.1-23.03,9.22-35.16c0.64-6.9,0.12-13.69-0.27-20.54c-0.04-0.66-0.07-1.33-0.11-2c-0.36-7.16-2.09-14.29-4.88-20.88
				c-1.4-3.3-3.09-6.49-4.08-9.94c-0.74-2.56-1.08-5.32-0.55-7.97c0.05-0.25,0.5-2.07,0.9-3.46c0.26-0.92,0.51-1.64,0.6-1.64
				c-1.88-0.23-3.71-0.58-5.58-0.6c-0.18,0-0.37,0-0.55,0c-0.08,0-0.16,0-0.24,0"/>
			<path style="clip-path:url(#SVGID_00000115473656697317590510000009662288859118262972_);fill:#EC732E;" d="M290.21,425.5
				c-2.99-2.43-5.85-5.07-9.12-7.11c-3.34-2.08-6.73-4.09-10.29-5.76c-6.3-2.94-13.02-4.8-19.58-7.01
				c-6.22-2.09-12.45-4.58-17.78-8.45c-3.43-2.49-6.38-3.8-7.1-7.87c-0.78-4.47-0.56-9.31-1.07-13.84
				c-1.01-8.92-2.64-17.77-4.85-26.46c-1.85-7.23-4.1-14.37-6.75-21.35c-1.27-3.32-3.08-6.61-4.12-10c-1-3.25-0.14-5.57,0.45-8.99
				c0.52,0.07,1.02,0.17,1.54,0.31c3.23,0.84,6.35,2.82,8.84,4.93c8.25,7.01,12.28,16.65,14.16,26.99
				c1.79,9.87,1.65,20.37,1.35,29.85c-0.02,0.73-0.05,1.46-0.07,2.17c-0.15,4.62-0.88,9.22-2.15,13.66
				c10.97,3.25,21.43,8.16,30.97,14.46c2.94,1.95,5.8,4.03,8.55,6.23c1.26,1,2.58,2.01,3.73,3.14c0.99,1,1.71,2.08,3.13,2.52
				c1.23,0.38,2.69,0.64,3.33,1.76c0.41,0.73,0.36,1.66,0.77,2.38c0.31,0.54,0.83,0.92,1.32,1.3c2.28,1.81,3.94,4.35,4.74,7.14
				L290.21,425.5z"/>
			<path style="clip-path:url(#SVGID_00000115473656697317590510000009662288859118262972_);fill:#EC732E;" d="M184.23,342.01
				c-1.14-0.14-35.99,11.33-36.96,12.23c-2.1,1.94-19.63,17.57-21.63,19.59c-1.5,1.51-2.94,3.05-4.36,4.63
				c-0.85,0.94-1.7,1.91-2.53,2.88c-1.87,2.17-3.68,4.4-5.46,6.65c-1.36,0.12-2.62,0.11-3.8-0.02c-5.66-0.64-9.3-4.15-12.59-9.62
				c0,0-0.02,0.01-0.03,0c-0.14-0.03-0.41-0.6-0.39-0.63c0.01-0.02,0.03-0.03,0.04-0.05c0.64-0.83,1.31-1.66,1.98-2.46
				c0,0,0.01-0.02,0.02-0.02c2.55-3.1,5.24-6.01,7.96-8.9c1.17-1.24,2.34-2.48,3.51-3.72c4.6-4.89,20.14-25.76,25.08-30.39
				c2.58-2.43,6.15-4.22,9.21-5.98c3.59-2.07,7.18-4.1,10.8-6.1c9.01-4.98,19.18-11.43,29.59-12.63c2.3-0.26,4.61-0.36,6.92-0.39
				c2.27-0.03,4.5-0.15,6.73,0.39"/>
			<path style="clip-path:url(#SVGID_00000115473656697317590510000009662288859118262972_);fill:#EC732E;" d="M189.33,307.45
				c-4.21,5.98-6.14,12.83-6.03,20.14c2.17-1.9,4.35-3.79,6.52-5.68c-0.68,4.35-1.3,9.32-1.97,13.68c1.63-1.28,3.26-2.55,4.89-3.84
				c-0.14,1.94,0.74,3.83,1.93,5.36c1.19,1.54,2.68,2.8,4.03,4.21c3.98,4.13,6.67,9.5,7.58,15.16"/>
			
				<path style="clip-path:url(#SVGID_00000115473656697317590510000009662288859118262972_);fill-rule:evenodd;clip-rule:evenodd;fill:#FFD7B1;" d="
				M172.3,278.78c0-5.94,4.17-7.42,6.25-7.42l6.64,7.03c-2.81-6.56-3.26-15.5-3.13-19.15c14.07,3.44,25.92-4.04,30.09-8.21
				l3.13,3.52l-4.3,1.95c-1.88,3.13,0.26,8.34,1.56,10.55l7.81-1.17l0.78,0.39c1.56,6.64,1.95,15.24,0,21.49
				c-1.56,5-6.38,8.08-8.6,8.99l-3.91,18.76c-5.63,6.88-10.16,1.3-11.72-2.34l3.13-15.63c-7.19-1.88-12.89-8.6-14.85-11.72
				c-1.25,1.88-3.91,2.34-5.08,2.34C177.51,287.51,172.3,284.72,172.3,278.78z"/>
			
				<path style="clip-path:url(#SVGID_00000115473656697317590510000009662288859118262972_);fill-rule:evenodd;clip-rule:evenodd;fill:#FFEBF1;" d="
				M209.03,315.12c-5.94,7.19-10.55,1.69-12.11-1.95c-1.06-1.95-0.39,9.77,3.52,16.02c3.13,5,5.21,16.67,5.86,21.88
				c2.19,16.88-0.39,30.74-1.95,35.56c3.13,1.56,10.24,4.85,13.68,5.47s7.16-0.78,8.6-1.56l-1.17-10.94l-1.17-12.89l-3.13-14.85
				l-3.91-14.46c-1.95-5.21-6.02-15.86-6.64-16.8C209.97,319.65,209.29,316.55,209.03,315.12z"/>
			
				<path style="clip-path:url(#SVGID_00000115473656697317590510000009662288859118262972_);fill-rule:evenodd;clip-rule:evenodd;fill:#FFD7B1;" d="
				M86.34,386.23l10.94-8.21l16.41,9.77c-0.91,2.08-2.89,7.27-3.52,11.33c-0.63,4.06-0.26,6.64,0,7.42
				c0.31,4.38-1.69,8.6-2.74,10.16c-1.17,1.69-4.06,4.85-6.25,3.91c-2.19-0.94-1.69-4.3-1.17-5.86l-6.25,8.99l-5.86,8.21
				c-1.17,0.78-4.14,1.88-6.64,0c-2.5-1.88-1.04-5.73,0-7.42l5.86-7.81c-1.25,1.25-3.91,1.56-5.08,1.56
				c-4.06-1.88-2.47-6.25-1.17-8.21c-5.94,1.25-6.12-2.6-5.47-4.69l2.34-2.34c-6.56-0.63-4.56-5.21-2.74-7.42L86.34,386.23z"/>
			
				<path style="clip-path:url(#SVGID_00000115473656697317590510000009662288859118262972_);fill-rule:evenodd;clip-rule:evenodd;fill:#FF4785;" d="
				M185.58,433.12c-2.81,3.44-5.86,9.51-7.03,12.11h30.87l0.78-9.77l38.29,8.99l57.44,2.34c-11.88-23.13-33.34-34.38-42.59-37.12
				c-4.82-1.43-16.41-5.24-24.23-8.99c-7.81-3.75-11.59-8.34-12.5-10.16c-4.69,2.19-8.99,1.69-10.55,1.17l-11.33-5.08l-3.52,11.72
				c0.31,1.88-5.86,16.41-8.99,23.44C191.18,424.13,188.4,429.68,185.58,433.12z"/>
			
				<path style="clip-path:url(#SVGID_00000115473656697317590510000009662288859118262972_);fill-rule:evenodd;clip-rule:evenodd;fill:#9FBCAD;" d="
				M212.54,267.06c-3.75-6.25-2.34-9.9-1.17-10.94l19.54-5.86c0-3.44,4.69-8.47,7.03-10.55l42.59-17.58
				c2.19-12.5,12.63-22.4,17.58-25.79l28.91-14.07h1.17c15.32-27.19,37.9-36.6,47.28-37.9c5.21-2.6,18.6-6.96,30.48-3.52
				c11.88,3.44,21.62,13.15,25.01,17.58c3.78,4.43,12.35,17.82,16.41,35.95c4.06,18.13,2.74,33.86,1.56,39.46
				c0,4.69-4.43,18.62-6.64,25.01c-1.43,3.52-5.94,12.58-12.5,20.71s-17.06,13.28-21.49,14.85c-7.19,2.81-14.98,1.95-17.97,1.17
				c-15,0.63-28.91-6.25-33.99-9.77l-34.78-2.74c-10.94-0.31-22.79-10.55-27.35-15.63c-12.63,1.43-39.62,4.53-46.5,5.47
				c-6.88,0.94-11.72-3.78-13.28-6.25l-1.95-2.34L212.54,267.06z"/>
			
				<path style="clip-path:url(#SVGID_00000115473656697317590510000009662288859118262972_);fill-rule:evenodd;clip-rule:evenodd;" d="
				M410.32,293.07c-16.75,6.61-38.03,1.67-53.45-22.15c-26.53-40.98-15.64-107.74,20.49-126.47c14.51-7.57,30.27-5.29,43.06,4.49
				c17.57,13.43,28.7,39.6,29.05,68.28C449.9,252.63,433.8,283.82,410.32,293.07z M356.54,285.39c-0.03-0.02,0,0-0.06-0.04
				c-34.95-21.22-46.3-68.51-26.93-103.96c0.44-0.54,12.81-27.25,44.15-36.01c-19.97,12.47-32.92,41.25-32.54,73.12
				c0.45,37.63,18.82,69.01,43.71,76.54C374.92,293.94,365.25,290.66,356.54,285.39z M301.94,273.99
				c-16.68-13.65-25.39-31.39-20.62-52.75c2.56-11.62,10.63-21.69,21.58-26.92c7.3-3.48,17.07-8.15,23.86-11.47
				c-3.27,2.47-21.73,49.25-5.35,78.34c5.02,8.9,15.7,19.24,19.02,21.17c1.19,0.71,2.4,1.56,3.73,2l-20.25-1.59
				c-8.13-0.64-15.74-3.67-21.97-8.77V273.99z M283.18,315.83c1.77,9.07,0.69,15.72-8.35,17.01c-3.58,0.51-0.41,0.02-35.28,6.62
				c-1.36-9.69-7.66-18.36-16.09-23.35c-2.94-3.09-6.99-6.14-11.09-7.41c7.1-0.18,43.45-0.81,43.54-0.82
				c0.28-0.03,0.47-0.3,0.43-0.58c-3.69-24.76-2.97-20.54-6.05-34.17c1.85-0.21-5.54,0.64,17.46-2.02
				c7.46,14.66,12.52,29.81,15.44,44.73L283.18,315.83z M235.38,370.76c-0.11,1.29,0.15,7.53-2.2,15.7
				c-0.07,0.26,0.07,0.55,0.35,0.62c10.86,3.22,21.24,8.06,30.83,14.39c2.92,1.93,10.42,7.34,12.81,9.93
				c0.74,0.8,1.5,1.63,2.76,2.02c1.99,0.66,2.93,0.56,3.36,2.57c0.09,0.44,0.19,0.91,0.44,1.34c0.8,1.42,3.47,2.18,5.4,6.62
				c-2.4-2-4.97-4.24-7.76-5.97c-3.02-1.88-6.59-4.03-10.35-5.79c-12.25-5.73-26.25-7.42-37.28-15.4
				c-6.56-4.76-7.08-3.84-7.57-15.47c-0.41-9.55-2.52-21.22-4.76-30.4c0.01-0.05,0.02-0.11,0.01-0.16
				c-0.62-5.65-2.06-9.01,0.19-17.5l4.24,1.37c0.46,0.16,0.86-0.39,0.56-0.79l-7.04-9.28l5.41,1.75c0.43,0.14,0.81-0.32,0.61-0.71
				c-2.27-4.48-4.47-8.09-6.76-12.41c16.95,12.73,17.4,36.42,16.75,57.58L235.38,370.76z M314.38,463.56
				c1.48,4.91,2.25,5.97,4.64,8.69c3.55,4.05,3.83,5.26,2.99,9.93c-0.4,2.26-0.82,4.58,0.43,6.59c0.88,1.39,2.31,2.18,3.7,2.94
				c6.57,3.62,3.7,6.74,4.88,11.61c-22.86-12.8-49.84-14.89-74.49-5.58c3.8-17.45,3.38-25.4,4.88-46.68
				c0.2-2.69-1.65-5.15-4.29-5.73c-15.64-3.43-30.56-6.1-46.07-10.3c0.24-11.43-0.45,10.56,0.6-16.3c0.03-0.69-0.98-0.69-1.01-0.04
				c-2.4,60.95-13.21,80.89-16.3,98.25c-0.84,4.73-1.37,5.76-3.5,8.88c-3.27,4.8-3.38,6.43-3.06,9.89c0.31,3.35,0.31,4.82-3.78,9.8
				c-2.09,2.55-4.26,5.18-3.85,8.58c0.65,5.36,7.35,8.25,2.34,14.12c-14.21-7.21-46.06-14.47-79.89-18.21
				c20.02-32.03,38.28-67.05,53.62-104.11c4.5,3.85,4.97,11.3,10.19,14.91c-8.71,33.44-13.33,54.73-32.87,89.29
				c-0.34,0.58,0.56,1.08,0.89,0.5c18.85-33.35,24.08-54.83,32.88-89.22c4.32,2.41,7.17,0.38,8.1-4.28
				c1.08-5.42,3.2-11.27,5.97-16.49c2.62-4.9,6.67-9.1,9.27-14.18c3.52-6.92,11.15-25.65,14.26-39.08
				c11.97,5.25,12.43,5.41,14.81,5.41c2.38,0,4.6-0.6,6.59-1.69c1.2,3.12,3.99,4.5,6.84,6.57c21,15.2,48.34,6.45,74.18,51.6
				c3.76,6.57,5.25,8.35,7.06,14.35L314.38,463.56z M336.55,523.83c-24.5-11.81-59.98-18.42-84.33-6.84
				c1.34-6.05,2.7-11.95,4.06-18.06c24.91-9.62,52.28-7.37,75.16,5.8C332.46,507.7,334.06,511.36,336.55,523.83z M323.29,593.3
				c-2.75,0.65-5.15,2.57-6.35,5.12l-2.72-3.68l-1.41-2.07c0.06-0.05,0.13-0.12,0.17-0.19c1.21-2.69,3.61-4.34,6.55-4.59
				C321.08,590.41,322.08,591.68,323.29,593.3z M329.54,602.26c-1.95,2.03-3.5,4.41-4.61,6.97l-7.33-9.92c0,0,0.08-0.07,0.12-0.14
				c1.07-2.57,3.51-4.48,6.27-4.98c3.05,4.06,4.8,6.93,5.57,8.06L329.54,602.26z M347.87,610.46c3.82,5.2,4.08,7.76,3.38,12.01
				c-5.54,0.56-18.15,1.83-26.62,2.09c-2.04-7.79,0.37-16.51,6.19-22.15c5.42-0.3,13.75,3.55,17.07,8.06H347.87z M273.9,566.74
				l3.2-18.58c9.59,11.12,19.47,14.54,31.88,11.03l6.54,21.49c-14.03,7.79-31.81-5.06-41.62-13.93L273.9,566.74z M306.88,584.08
				c3.09-0.12,6.14-0.86,9.04-2.46c1.21,2.24,2.18,3.94,3.02,5.34c-3,0.4-5.41,2.12-6.75,4.84L306.88,584.08z M324.03,609.74
				c0.04,0.17,0.14,0.22,0.42,0.59c-1.7,4.52-2.08,9.53-0.9,14.24c-3.06,0.06-5.47-0.03-6.6-0.38l-38.55-14.92
				c3.38-4.57,4.21-10.91,2.22-16.27c-1.78-4.77-5.62-8.62-10.26-10.83c1-5.08,1.88-9.57,2.88-14.68c7.74,7,20.37,16.4,32.43,16.57
				c11.89,17.31,6.03,8.78,7.72,11.24l10.65,14.4L324.03,609.74z M305.77,514.52l3,43.65c-12.26,3.5-22-0.02-31.5-11.39l-2.99-34.52
				c10.28-0.93,21.48,0.18,31.5,2.25L305.77,514.52z M178.2,578.64c0.64,2.07,1.97,3.96,4.08,5.81c0.37,0.32,0.14,0.85-0.35,0.86
				c-21.51-1.29-60.88-11.89-88.44-14.7c0.36-2.55,1.18-5.7,2.4-9.15c1.39-3.91,3.73-7.61,5.37-10.61
				c33.94,3.67,66.04,10.89,80.47,18.09c-2.56,2.52-4.6,6.28-3.53,9.7V578.64z M168.27,618.76c-2.75,0.65-5.16,2.57-6.35,5.12
				l-2.72-3.68l-1.41-2.07c0.06-0.05,0.13-0.11,0.17-0.19c1.21-2.69,3.61-4.35,6.55-4.59C165.94,615.67,166.83,616.84,168.27,618.76
				z M174.51,627.71c-1.95,2.03-3.5,4.41-4.61,6.97l-7.33-9.92c0,0,0.08-0.07,0.12-0.14c1.07-2.57,3.51-4.48,6.27-4.98
				c3.05,4.06,4.81,6.93,5.57,8.07H174.51z M192.83,635.91c3.83,5.21,4.08,7.77,3.39,12.01c-5.54,0.56-18.15,1.83-26.62,2.09
				c-2.04-7.79,0.37-16.51,6.19-22.15C181.22,627.54,189.53,631.42,192.83,635.91z M118.22,592.98c7.74,7,20.37,16.4,32.43,16.57
				c11.89,17.31,6.03,8.78,7.72,11.24l10.65,14.4c0.04,0.17,0.13,0.21,0.42,0.59c-1.7,4.52-2.08,9.53-0.9,14.24
				c-3.07,0.06-5.48-0.03-6.61-0.38l-38.54-14.92c6.5-8.79,3.29-21.71-8.05-27.09l2.88-14.68L118.22,592.98z M151.87,609.53
				c3.09-0.12,6.14-0.86,9.04-2.46c1.21,2.24,2.18,3.94,3.02,5.34c-3,0.4-5.41,2.12-6.75,4.84L151.87,609.53z M153.37,583.74
				c-10.27,2.84-18.57,0.74-26.65-6.79c9.46,1.82,18.74,3.72,26.97,5.27c-0.22,1.13-0.22,1.11-0.31,1.52H153.37z M124.87,576.59
				c8.69,8.65,17.93,11.21,29.08,8.04l6.54,21.49c-14.03,7.79-31.81-5.06-41.62-13.93l2.8-16.21l3.21,0.61V576.59z M151.43,441.38
				c-2.94-2.57-3.82-8.53-0.27-10.67c1.18-0.72,2.84-1.25,3.13-2.78c0.37-1.8-1.62-3.43-1.11-4.59c0.26-0.56,0.96-0.75,1.77-0.98
				c2.4-0.65,2.85-1.44,2.83-3.62v-0.31c0.02-3.02,1.53-4.72,3.28-6.72c4.75-5.42,5.62-10.42,22.86-26.01
				c1.62-1.43,1.72-1.83,1.67-4.03c-0.22-9.06-1.28-17.77-3.11-26.33c-0.04-4.19,0.15-8.36,0.41-12.55c0.68-0.19,1.13-0.3,1.3-0.31
				c0.26,0.02,0.5-0.18,0.53-0.44c0.03-0.27-0.17-0.53-0.44-0.56c-1.42-0.16-36.32,11.4-37.37,12.37
				c-3.07,2.83-19.17,17.09-22.09,20.06c-5.73-2.26-10.63-6.39-13.84-11.65c0-0.01-0.02-0.02-0.03-0.03
				c5.22-5.87,19.77-25.32,24.46-29.7c2.08-1.94,4.79-3.47,7.42-4.95c23.85-13.43,32.14-19.3,45.75-19.93
				c-3.93,5.82-5.9,12.5-5.78,19.92c0,0.43,0.52,0.65,0.84,0.38l5.47-4.78c-0.59,3.97-1.17,8.41-1.77,12.3
				c-0.07,0.45,0.45,0.76,0.81,0.47l4.09-3.21c0.7,7.15,11.15,9.07,13.53,23.78c0.02,0.13,0.09,0.23,0.18,0.32
				c0.33,5.64,0.62,11.44,0.08,17.19c-0.95,10.42-3.88,21.54-9.19,35.03c-2.18,5.58-4.39,11.43-7.14,16.86
				c-2.5,4.88-6.63,9.23-9.26,14.16c-2.83,5.29-4.98,11.25-6.08,16.76c-0.83,4.16-3.1,5.7-6.85,3.46
				c-5.44-2.97-6.01-12.01-11.27-15.66c-1.88-1.41-3.44-2.03-4.84-3.27L151.43,441.38z M120.78,378.24
				c-5.74-2.56-10.46-6.36-14.01-11.52c0.84-0.9,2-2.12,3.48-3.69c3.24,5.23,8.12,9.35,13.82,11.69c-1.75,1.82-2.46,2.63-3.28,3.53
				L120.78,378.24z M109.4,406.45c1.15,8.3-5.45,14.67-8.09,13.65c-0.92-0.35-1.35-1.46-1.37-2.33c-0.03-1.08,0.38-2.13,0.77-3.15
				c0.04-0.12,0.03-0.22,0-0.33c0.9-1.28,1.55-2.26,2-3.13c0.31-0.6-0.59-1.06-0.9-0.47c-1.27,2.43-4.08,5.66-10.4,15.42
				c-2.69,4.19-4.26,5.49-5.09,5.86c-0.24,0.11-0.52,0.19-0.79,0.26c3.63-3.12-0.25-8.12-3.55-5.02c-0.57,0.54-0.97,1.19-1.37,1.87
				c-0.34,0.58,0.54,1.09,0.88,0.52c0.63-1.09,1.47-2.38,2.78-2.33c0.83,0.04,1.59,0.81,1.7,1.73c0.11,0.88-0.33,1.83-1.12,2.5
				c-0.28,0.24-0.22,0.71,0.13,0.85c-2.96,0.43-4.93-1.38-4.62-3.96c0.47-3.88,8.64-13.34,12.69-18.5c0.41-0.53-0.39-1.15-0.8-0.62
				c-1.17,1.5-4.13,5.13-4.22,5.24c-0.56,0.7-1.96,1.81-3.04,2.55c-3.48,2.41-6.82-1.53-4.05-5.88c1.59-2.52,2.82-2.7,2.94-3.24
				c1.03-0.93,1.89-1.7,2.63-2.5c0.45-0.5-0.3-1.18-0.75-0.69c-1.17,1.27-2.89,2.66-3.68,3.47c-0.51,0.4-1.1,0.84-1.76,1.12
				c-1.21,0.5-2.24,0.56-3.03,0.17c-1.17-0.59-1.76-1.67-1.6-2.96c0.14-1.15,0.93-1.9,1.84-2.77c1.04-1,1.59-1.63,1.92-1.98
				c0.75-0.63,1.84-2,2.5-2.9c0.43-0.51-0.33-1.17-0.77-0.66c-2.4,2.83-2.44,2.9-2.92,3.16c-3.02,1.63-5.4-0.12-4.12-3.41
				c1.43-3.77,16.42-13.98,22.52-19.04c4.06,6.63,8.58,10.13,16.3,9.58c-2.11,5.45-4.35,12.14-3.54,17.93H109.4z M190.57,291.46
				c-0.93-0.9-4.45-4.76-4.71-5.64c0.16-0.53-0.53-0.9-0.88-0.46c-2.69,3.3-6.87,2.6-9.47-0.33c-2.55-2.86-3.8-7.75-1.08-11.19
				c0.86-1.1,2.64-1.95,4.09-1.93c0.08,0.11,5.52,6.29,6.23,6.98c0.63,0.59,1.65-0.08,1.34-0.9c-2.61-6.91-3.66-10.1-3.26-18.01
				c7.67,2.66,21.53-0.26,29.59-7.78c0.76,0.71,1.48,1.5,2.17,2.36c-3.89,1.33-4.04,1.15-4.19,1.56c-1.26,3.4-0.74,7.03,1.57,11.13
				c0.09,0.16,0.26,0.26,0.44,0.26c0.11,0,0.19-0.02,7.82-0.99c2.71,10.26,3.2,23.45-5.94,28.88c-7.72,4.54-17.36,2.18-23.71-3.93
				L190.57,291.46z M229.75,250.74c-1.36,2.5-2.9,8.4-2.64,13.87l-14.43,1.85c-1.96-3.61-2.43-6.8-1.41-9.75L229.75,250.74z
				 M207.05,374.14c0.73-7.86-0.07-15.88-0.38-22.61c-0.98-19.82-10.41-27.25-9.74-37.03c3.28,5.3,7.26,6.27,11.77,1.86
				c0.84,5.19,5.36,9.9,11.2,32.78c2.2,8.66,3.83,17.54,4.84,26.4c0.5,4.47,0.32,10.87,1.22,14.51c-2.05,1.17-4.46,1.77-6.84,1.66
				c-1.86-0.07-2.61-0.37-14.03-5.39c0.94-4.22,1.57-8.25,1.93-12.17L207.05,374.14z M201.02,298.26c2.55,3.53,7.9,6.92,9.09,7.14
				c-1.68,8.58-0.76,4.02-1.91,10.04c-3.99,4.04-7.42,3.61-10.6-1.78c0.51-2.64,2.29-12.02,2.95-15.5
				C200.71,298.19,200.87,298.21,201.02,298.26z M192.41,331.34l-3.89,3.05c0.6-4.02,1.18-8.5,1.78-12.41
				c0.07-0.46-0.47-0.77-0.83-0.46l-5.67,4.95c0.16-11.66,5.71-18.15,5.99-18.83c4.69-0.15,4.26,0.05,7.62,0.44
				c-0.56,1.74-1.2,4.4-1.23,4.6c-2.17,10.79,8.55,18.12,9.52,39.31c-4.09-12.36-12.91-13.81-12.45-20.2
				c0.03-0.44-0.47-0.71-0.82-0.43H192.41z M216.84,311.93c2.39,4.73,4.68,8.42,7.07,13.01l-5.78-1.87
				c-0.46-0.15-0.86,0.39-0.56,0.79l7.04,9.28l-3.21-1.04c-0.26-0.09-0.57,0.06-0.64,0.35c-0.95,3.41-1.58,7.48-1.33,11
				c-4.67-16.34-8.05-21.53-9.41-25.94c-1.02-3.3,0.04-5.68,0.4-8.26C212.7,309.65,214.91,310.71,216.84,311.93z M255.25,306.9
				c-0.11,0-44.35,0.75-44.55,0.89l1.98-10.46c10.2-4.39,11.44-15.6,9.5-26.64c0.07-1.42,0-2.92-0.2-4.4l10.46-1.34
				c3.26,5.23,7.47,8.54,13.62,8.54c1.29,0,2.07-0.16,3.21-0.27c2.97,13.19,2.29,8.81,5.98,33.68V306.9z M234.45,244
				c1.43-2.03,3.45-3.63,5.81-4.62l39.69-16.51c-0.37,1.98-0.43,2.78-0.55,3.73c-1.9,4.7-2.97,9.55-3.28,14.54
				c-0.4,6.9,1.3,13.05,4.97,18.91c1.8,2.88,4.07,5.59,7.1,7.14c0.35,0.18,0.75,0.3,1.16,0.37c-4.69,0.55-37.67,4.37-41.71,4.83
				c-4.3,0.48-8.55-1.03-11.36-4.08c-4.77-5.17-7.1-11.57-4.88-18.31C232.04,247.97,233.06,245.96,234.45,244z M421.04,148.11
				c-13.73-10.51-29.88-12-44.09-4.62c-20.32,4.54-37.87,18.11-48.21,37.24c-7.3,3.56-13.05,6.36-26.28,12.65
				c-10.9,5.21-19.55,15.32-22.27,28.27l-40.32,16.78c-2.54,1.05-4.7,2.77-6.25,4.97c-1.38,1.96-2.42,3.99-3.09,6.01l-12.91,4.16
				c-0.79-1.53-1.67-3-2.59-4.3c4.06-5.6,0.69-11.77-4.18-14.92c-6.75-4.38-16.45-2.24-20.86,4.43c-1.74,2.64-2.86,6-5.02,8.1
				c-1-3.94-4.6-6.78-7.94-9.22c-7.23-5.26-15.29-10.97-24.59-9.62c-6.09,0.89-11.4,5.03-14.58,10.29c-5.31,8.8-0.8,19.28-3.9,29.02
				c-2.12,6.65-7.38,12.78-14.29,13.79c-4.13,0.61-8.39-0.63-12.5,0.09c-7.82,1.39-12.95,10.95-9.79,18.23
				c1.16,2.67,3.2,5.7,1.61,8.14c-1.1,1.69-3.47,2.01-5.43,1.6c-1.96-0.41-3.79-1.38-5.78-1.69c-10.86-1.72-14.28,10.63-14.89,21.66
				c-0.31,5.45-2.32,10.66-7.88,12.71c-3.93,1.44-8.64,0.57-11.78-2.2c5.32,4.38,11.15,8.95,18.03,9.32
				c5.77,0.31,10.32-2.87,15.08-5.61c-2.47,5.88-7.59,10.6-13.67,12.58c8.78,8.52,8.64,8.51,9.55,8.92
				c2.11,0.95,4.46-0.61,6.13-2.22c4.9-4.77,8.58-10.8,10.54-17.34c0,4.15,1.02,7.91-0.8,11.86c1.51,0.33,3.04,0.65,4.58,0.53
				c1.54-0.13,3.1-0.78,3.98-2.05c3.76-5.49-0.05-13.51,6.73-23.92c2.4-3.7,7.23-3.51,10.94-5.73c6.33-3.77,9.99-11.56,8.86-18.83
				c5.64,2.31,13.59-0.03,17.76-4.46c4.19-4.43,5.28-11.49,2.66-17c3.31,0.03,5.88-2.02,7.47-4.93c5.05-9.22-2.2-21.98,4.29-31.18
				c3.5-4.97,9.8-6.48,15.02-0.72c-1.84,0.22-5.39,0.22-6.59,2.7c-0.92,1.89,0.69,3.08,2.17,4.08c-1.16,0.46-2.19,1.04-3.02,2.07
				c-2.29,2.82-0.8,5.62,0.77,7.92c1.24,1.82,2.61,3.56,4.03,5.26c-6.36,0.94-7.7,9.45-2.96,14.75c2.78,3.13,7.3,4.04,10.44,0.93
				c1.09,2.06,4.64,5.51,4.68,5.56c3.02,2.91,6.2,4.66,9.71,5.68l-1.72,9c-3.03-0.6-10.23-0.25-13.27,0.09
				c-11.55,1.33-22.87,8.87-42.27,19.75c-2.68,1.51-5.45,3.07-7.62,5.09c-5.42,5.07-18.91,23.87-27.67,33.13
				c-3.12,3.35-6.95,7.3-10.99,12.48c-0.09,0.13-0.15,0.37,0,0.69c-5.89,4.88-21.33,15.43-22.88,19.51
				c-1.35,3.48,0.73,5.87,3.76,5.31c-1.09,1.03-2.07,1.97-2.26,3.49c-0.34,2.77,2.08,5.2,5.51,4.05c-3.49,5.28,0.76,10.23,5.08,7.59
				c-1.95,2.63-5.56,7.15-5.94,10.2c-0.34,2.88,1.6,5.18,4.78,5.18c4.95,0,5.88-3.98,14.9-16.74c-0.62,3.56,2.25,6.21,6.02,3.29
				c3.99-3.08,6.09-8.45,5.37-13.66c-0.85-6.16,1.93-13.52,4.16-19.13c12.04-15.1,15.29-16.15,33.02-32.55
				c0.98-0.69,19.75-6.99,30.05-10.22c1.15,1.72,1.94,3.25,2.55,5.57c2.67,10.39,4.12,20.87,4.4,31.74
				c0.05,1.91,0.05,2.02-1.32,3.24c-17.83,16.28-18.33,20.88-22.94,26.11c-1.8,2.05-3.51,3.99-3.53,7.39c0.02,2-0.01,2.37-2.08,2.94
				c-0.93,0.25-1.96,0.55-2.42,1.53c-0.83,1.82,1.32,3.4,1.02,4.81c-0.2,1-1.56,1.44-2.67,2.11c-4.2,2.55-3.27,9.33,0.14,12.3
				c1.37,1.19,2.88,1.88,4.6,3.09c-14.67,35.49-32.76,70.86-53.89,104.61c-0.39-0.04-0.74-0.14-0.94,0.22
				c-1.59,2.96-4.12,6.92-5.59,11.05c-1.33,3.75-2.2,7.17-2.52,9.88c-0.03,0.28,0.17,0.54,0.45,0.57
				c0.18,0.02,10.45,6.39,26.65,10.9l-1.55,9.04c-0.31-0.05-0.53,0.16-0.58,0.4c-1.65,8.4,4.06-20.64-7.47,38
				c-2.04-0.27-4.04,0.94-4.64,2.99l-0.19,0.66c-0.61,2.09,0.49,4.29,2.53,5.09l51.23,20.08c0.62,0.24,1.3,0.34,1.97,0.27
				l34.22-3.16c3.82-0.35,5.3-5.21,2.15-7.56c1.01-5.39-0.2-8.41-3.53-12.95c-3.65-4.97-12.69-9.05-18.48-8.44
				c-1.26-1.93-5.35-7.94-5.7-8.2c-2.56-3.41-3.89-5.06-7.9-12.49L156,587.77c6.96,0.12,14.89-0.42,22.75-1.69
				c2.18,0.2,3.45,0.25,3.16,0.23c1.42,0.09,2.17-1.7,1.08-2.65c-8.97-7.81-0.09-13.93,0-14.48l0.04-0.04
				c5.96-6.76-1.24-10.26-1.85-15.2c-0.69-5.63,6.94-9.12,7.69-15.23c0.13-1.05,0.03-2.11-0.06-3.12c-0.3-3.18-0.26-4.61,2.89-9.24
				c4.65-6.83,1.55-4.62,7.89-25.92c5.98-20.08,9.57-43.74,11.17-64.01c0.15-0.06,0.25-0.2,0.28-0.37
				c15.42,4.15,30.18,6.81,45.87,10.25c2.16,0.47,3.66,2.48,3.5,4.66c-1.49,20.98-1.08,29.51-5.05,47.43
				c-0.72,3.26-4.36,19.25-4.36,19.47c0,1.28,23.3,7.34,23.41,7.36l1.88,21.72l-3.28,19.06c-0.31-0.04-0.53,0.16-0.57,0.4
				c-1.65,8.4,4.06-20.64-7.47,37.99c-2.04-0.28-4.04,0.94-4.64,2.99l-0.19,0.66c-0.61,2.08,0.49,4.29,2.53,5.09l51.23,20.08
				c0.63,0.24,1.3,0.34,1.97,0.27l34.22-3.16c3.84-0.35,5.27-5.24,2.15-7.56c1.01-5.4-0.2-8.42-3.52-12.95
				c-3.7-5.02-12.77-9.04-18.49-8.44c-2.23-3.44-5.46-8.02-5.7-8.2c-2.57-3.42-3.89-5.06-7.9-12.49l-6.78-22.26l-2.01-29.39
				c2.91-0.16,30.5-1.58,29.94-4.46c-4.08-20.7-6.13-19.45-6.01-24.32c0.12-5.98-1.47-7.48-5.11-9.48
				c-3.89-2.14-4.55-3.34-3.63-8.47c0.89-4.92,0.58-6.45-3.23-10.79c-2.27-2.58-3-3.52-4.43-8.31c-1.38-4.59-2.35-6.42-5.67-12.05
				c-5.09-8.61-9.85-16.63-18.98-25.64c0-0.06,0.03-0.14,0-0.2c-0.81-2.89-2.55-5.51-4.9-7.39c-1.01-0.9-1.22-0.78-1.53-2.2
				c-0.5-2.32-1.6-2.63-4.06-3.33c-1-0.31-1.6-0.97-2.31-1.74c-1.18-1.3-2.19-2.1-3.74-3.33c-1.38-0.91-15.94-13.94-39.86-21.14
				c2.25-8.09,2-14.23,2.11-15.47c0.3-9.56,0.43-19.71-1.28-29.46c0.11-0.02,37.81-7.2,39.85-7.49c9.7-1.38,11.11-8.49,9.21-18.21
				c-2.91-14.88-7.9-29.92-15.37-44.66l25.25-2.92c8.47,9.01,17.43,14.76,29.78,15.73c3.3,0.26-11.96-0.94,32.28,2.54
				c10.72,6.47,22.91,9.97,35.28,10.14c0.53-0.02,8.8,1.7,19.29-2.45c23.86-9.38,40.22-40.97,39.8-76.8
				c-0.35-28.98-11.62-55.46-29.44-69.07L421.04,148.11z"/>
			<path style="clip-path:url(#SVGID_00000115473656697317590510000009662288859118262972_);" d="M425.46,264.86
				c-6.47,10.65-16.31,19.41-28.77,19.3c18.16-4.23,31.93-32,31.53-65.46c-0.39-33.44-14.81-60.87-33.07-64.69
				c0.26,0,0.28-0.02,0.79-0.02c22.15,0,40.45,28.89,40.87,64.61C437.02,236.04,432.99,252.46,425.46,264.86z M391.23,165.76
				c-0.54-0.39,0.07-1.22,0.61-0.81c24.9,18.38,31.06,53.2,13.91,79c-0.36,0.55-1.22,0-0.84-0.56
				c16.82-25.31,10.83-59.55-13.67-77.63H391.23z M392.91,153.16c-21.67,2.51-38.32,31.68-37.91,66.43
				c0.4,33.6,17.66,65.81,42.21,65.6c11.11-0.13,21.45-7.16,29.12-19.79c7.63-12.56,11.71-29.17,11.5-46.79
				c-0.43-36.41-20.02-68.29-44.92-65.43V153.16z"/>
			
				<path style="clip-path:url(#SVGID_00000115473656697317590510000009662288859118262972_);fill-rule:evenodd;clip-rule:evenodd;fill:#FCF1B0;" d="
				M88.15,212.49l3.2-4.35l1.16,5.22l4.66,2.03l-4.36,3.19l-0.29,5.22l-4.07-3.48l-4.66,1.45l1.75-4.93l-2.33-4.64L88.15,212.49z
				 M35.78,236.85l0.29-5.22l4.07,2.9l5.24-1.45l-2.04,5.22l2.91,4.06l-5.53,0.29l-3.49,4.06l-1.16-4.93l-4.95-1.74L35.78,236.85z
				 M-13.4,219.74l-5.24,3.77l-6.4-2.03l2.04,6.09l-4.07,5.51h6.98l3.78,5.22l2.04-6.09l6.4-2.03l-5.53-4.06V219.74z M30.54,164.05
				l3.49-7.25l3.78,7.25l8.73,1.45l-6.11,6.09l1.45,8.41l-7.86-3.77L26.47,180l1.45-8.41l-6.11-6.09L30.54,164.05z"/>
			
				<path style="clip-path:url(#SVGID_00000115473656697317590510000009662288859118262972_);fill-rule:evenodd;clip-rule:evenodd;" d="
				M40.84,242.06c-0.12,0-0.23,0.05-0.3,0.15l-3.05,3.91l-1.08-4.49c-0.03-0.13-0.13-0.23-0.26-0.27l-4.43-1.37l4.12-2.77
				c0.09-0.06,0.16-0.17,0.16-0.29c0-0.08,0.31-5.08,0.29-4.8l3.64,2.83c0.1,0.08,0.23,0.1,0.35,0.06l4.6-1.54l-1.85,4.47
				c-0.05,0.12-0.03,0.25,0.04,0.35l2.59,3.81l-4.82-0.03L40.84,242.06z M9.23,261.57l-0.11-0.08l0.05-3.04l-2.45,1.81l-2.01-0.69
				l-19.29-25.3l0.59-1.86l6.28-1.92c0.3-0.09,0.36-0.49,0.11-0.67l-5.35-3.8l0.02-1.37l24.17-11.91l0.45,0.16l1.29,4.88l3.1-3.99
				l1.32,0.08l18.11,18.59l-0.25,4.23l-4.61,3.11c-0.26,0.17-0.2,0.58,0.1,0.67l4.97,1.54l0.23,0.96L9.23,261.59V261.57z
				 M-16.46,237.71l-3.45-4.9c-0.07-0.1-0.19-0.16-0.31-0.16l-6.01,0.05l3.61-4.78c0.08-0.1,0.09-0.23,0.05-0.34l-1.9-5.67
				l5.68,1.95c0.12,0.04,0.25,0.02,0.35-0.05l4.83-3.56c0,0.11-0.11,6.18-0.1,5.99c0,0.13,0.05,0.24,0.16,0.31l4.89,3.48l-5.74,1.75
				c-0.12,0.04-0.21,0.13-0.25,0.25L-16.46,237.71L-16.46,237.71z M26.99,179.42l1.34-7.8c0.02-0.13-0.02-0.25-0.11-0.34l-5.69-5.52
				l7.85-1.13c0.13-0.02,0.23-0.09,0.28-0.2l3.51-7.09l3.51,7.09c0.05,0.11,0.16,0.19,0.28,0.2l7.85,1.13l-5.68,5.52
				c-0.09,0.09-0.13,0.21-0.11,0.34l1.34,7.8c-0.32-0.17,1.72,0.9-7.02-3.68c-0.11-0.05-0.24-0.05-0.35,0L26.99,179.42z
				 M85.98,216.86c0.05-0.11,0.03-0.23-0.02-0.33l-2.36-3.98l4.43,0.31c0.13,0.01,0.25-0.05,0.33-0.15l2.84-3.69l0.93,4.56
				c0.02,0.13,0.11,0.23,0.23,0.27l4.12,1.65l-3.87,2.55c-0.09,0.06-0.16,0.17-0.16,0.29l-0.33,4.75l-3.28-3.01
				c-0.29-0.27-0.34-0.02-4.63,1.19l1.79-4.41H85.98z M45.25,240.16l20.09,5.63l-2.27,1.53l6.98,2.16l1.7,7.08l4.75-6.09l7.46,0.05
				l-4.03-5.93l2.91-7.04l-2.33,0.77l7.01-17.26l0.95-0.28l3.7,3.4c0.24,0.21,0.61,0.06,0.64-0.25l0.38-5.35l4.31-2.85
				c0.25-0.16,0.21-0.55-0.07-0.67l-4.6-1.85l-1.06-5.17c-0.06-0.31-0.47-0.41-0.67-0.16l-3.22,4.18l-4.95-0.35
				c-0.31-0.02-0.5,0.31-0.35,0.56l2.62,4.45l-2.02,4.97c-0.12,0.29,0.16,0.59,0.46,0.5l2.95-0.88l-7.02,17.3l-3.98,1.33l-5.66-4.41
				l-0.45,7.42l-3.32,2.24l-21.57-6.04l-0.79-1.15l2.09-5.05c0.13-0.3-0.16-0.6-0.47-0.5l-5.19,1.74l-4.05-3.15
				c-0.24-0.19-0.59-0.03-0.61,0.27v0.09L18.51,213.9l2.62,0.15l-2.84-4.17l0.31-0.79l15.99-7.88c0.13-0.06,0.21-0.2,0.21-0.34
				v-24.06l6.91,3.62c0.27,0.14,0.6-0.09,0.55-0.4l-1.44-8.35l6.09-5.92c0.22-0.22,0.1-0.59-0.21-0.64l-8.41-1.22l-3.76-7.6
				c-0.14-0.28-0.54-0.28-0.68,0l-3.76,7.6l-8.41,1.22c-0.31,0.05-0.43,0.42-0.21,0.64l6.09,5.92l-1.44,8.35
				c-0.05,0.31,0.27,0.54,0.55,0.4l7.38-3.87v24.09l-15.03,7.41l1.12-2.87l-4.86,1.41l-3.92-3.19l-0.16,5.04l-4.26,2.73l3.33,1.2
				L-12.9,223.8l0.08-4.33c0-0.31-0.35-0.49-0.6-0.31l-5.29,3.9l-6.22-2.13c-0.29-0.1-0.58,0.18-0.48,0.48l2.08,6.21l-3.96,5.23
				c-0.19,0.25,0,0.6,0.3,0.6c0.08,0,6.65-0.05,6.57-0.05l3.77,5.37c0.18,0.26,0.57,0.2,0.67-0.1l1.11-3.51l18.94,24.84l0.72,2.16
				l-1.83,2.43l3.05-0.02l1.75,2.49l0.92-2.9l2.91-0.89l-1.71-1.22l26.26-18.28l0.79,3.3c0.07,0.31,0.47,0.39,0.67,0.14l3.42-4.38
				l5.36,0.04c0.33-0.01,0.47-0.35,0.31-0.59L45.25,240.16L45.25,240.16z"/>
			<path style="clip-path:url(#SVGID_00000115473656697317590510000009662288859118262972_);" d="M202.28,261.65
				c-0.38-0.86-2.46-0.78-4.64,0.18c-2.18,0.96-3.64,2.45-3.26,3.31s2.46,0.78,4.64-0.18C201.2,264,202.66,262.51,202.28,261.65z"/>
			<path style="clip-path:url(#SVGID_00000115473656697317590510000009662288859118262972_);" d="M199.24,267.69
				c0.54,0.24,1.18,0,1.42-0.54c0.25-0.54,0.01-1.17-0.53-1.41c-0.54-0.24-1.18,0-1.42,0.54c-0.25,0.54-0.01,1.17,0.53,1.42V267.69z
				"/>
			<path style="clip-path:url(#SVGID_00000115473656697317590510000009662288859118262972_);" d="M180.93,283.35
				c-0.43-0.15-0.84-0.3-1.11-0.52c1.14-0.19,1.65-1.28,0.52-2.05c-0.32-0.22-0.65-0.42-1-0.61c0.92-0.49,1.77-1.31,1.62-2.33
				c-0.22-1.44-2.73-2.53-4.19-2.82c-0.65-0.14-0.86,0.86-0.2,0.99c1.05,0.21,2.03,0.64,2.8,1.24c1.33,1.05,0.15,1.77-1.45,2.45
				c-0.42,0.18-0.41,0.77,0,0.94c0.97,0.39,1.8,0.92,1.98,1.09c-0.38,0.27-0.92-0.06-1.19,0.36c-0.07,0.12-0.11,0.25-0.07,0.39
				c-0.36,0.74,1.35,1.86,2.12,1.86c0.57,0,0.71-0.81,0.16-0.99H180.93z"/>
			<path style="clip-path:url(#SVGID_00000115473656697317590510000009662288859118262972_);" d="M210.14,271.24
				c0.89,0.37,0.96,1.61,0.12,2.1c-0.58,0.34-0.08,1.21,0.51,0.89c1.58-0.9,1.43-3.23-0.22-3.91c-0.61-0.26-1.01,0.67-0.39,0.94
				L210.14,271.24z"/>
			<path style="clip-path:url(#SVGID_00000115473656697317590510000009662288859118262972_);" d="M203.85,283.05
				c0.17,0.65,1.15,0.4,0.98-0.25c-0.66-2.53-3.67-3.63-5.83-2.11c-0.55,0.39,0.03,1.21,0.58,0.83
				C201.13,280.43,203.35,281.17,203.85,283.05z"/>
		</g>
	</g>
</g>
</svg>
