<svg width="460" height="460" viewBox="0 0 460 460" fill="none" xmlns="http://www.w3.org/2000/svg">
<rect width="460" height="460" fill="white"/>
<path d="M19.3123 322.258C29.416 357.232 86.5349 360.528 113.831 357.804C176.165 341.461 235.784 345.953 256.562 348.813C273.184 351.101 337.792 339.654 374.851 317.744C426.134 287.423 387.578 272.075 434.744 237.262C481.472 202.772 442.203 163.186 428.759 146.571C415.993 130.091 375.796 99.7478 317.129 110.207C243.795 123.282 209.573 104.487 184.721 104.487C159.869 104.487 121.165 95.0901 60.8681 158.828C0.571434 222.566 6.68258 278.541 19.3123 322.258Z" fill="#FEFCEB"/>
<path d="M368.491 248.897C368.491 248.897 368.461 248.846 368.43 248.835C341.844 230.756 315.391 226.971 283.565 230.654C272.76 231.732 249.878 236.24 238.757 239.017C206.209 246.933 196.33 256.466 175.655 271.646C158.054 284.507 139.322 295.607 122.118 309.098C179.267 331.574 191.446 363.603 193.868 366.38C193.084 371.101 192.321 375.812 191.558 380.563C191.171 382.151 237.445 379.912 243.081 379.943H243.895C249.196 378.345 257.783 377.318 262.952 378.885C265.872 379.78 271.804 381.55 276.24 380.279C276.26 380.258 276.29 380.248 276.321 380.248C286.282 377.104 327.722 358.77 336.401 354.832C338.568 353.856 341.946 352.981 343.36 351.047C346.972 346.133 343.889 338.604 340.613 333.446C337.103 332.276 334.356 326.955 331.65 324.289C330.785 323.455 321.384 315.702 321.597 315.346C326.054 308.132 323.886 310.401 326.054 308.173C366.415 265.664 398.577 279.094 402.28 278.494C395.809 270.527 381.331 256.588 368.481 248.907L368.491 248.897ZM276.392 327.463C276.28 328.776 275.11 329.773 273.788 329.641C267.327 329.061 297.84 331.798 207.349 323.689C206.036 323.556 205.059 322.407 205.171 321.084L208.295 286.471C208.407 285.158 209.577 284.192 210.9 284.303C217.37 284.883 186.827 282.146 277.318 290.255C278.651 290.367 279.628 291.527 279.495 292.84L276.392 327.453V327.463Z" fill="#4A27A5" stroke="black" stroke-width="2.1301" stroke-linejoin="round"/>
<mask id="path-3-inside-1_525_16134" fill="white">
<path d="M200.634 262.551C189.575 385.814 190.704 373.238 188.618 396.558L232.307 400.495C236.418 398.125 240.854 395.723 245.107 393.536C246.674 392.753 246.409 391.481 244.506 391.684C242.736 391.908 240.996 392.122 239.256 392.335C237.496 392.559 235.584 392.742 234.068 391.816C232.897 391.104 232.145 389.721 232.195 388.337C232.277 385.62 234.963 383.657 237.11 382.598C246.938 377.755 258.018 377.389 262.973 378.895C268.101 380.472 272.069 381.489 276.261 380.289C276.281 380.269 276.312 380.258 276.342 380.258C278.764 379.495 281.948 378.203 284.38 377.247C284.411 376.941 293.924 270.721 293.913 270.914C291.685 270.711 200.848 262.571 200.655 262.551H200.634ZM276.393 327.474C276.281 328.786 275.111 329.783 273.788 329.651C267.328 329.071 297.841 331.808 207.35 323.699C206.037 323.567 205.06 322.417 205.172 321.094L208.296 286.481C208.408 285.168 209.578 284.202 210.9 284.314C217.371 284.894 186.828 282.157 277.319 290.266C278.652 290.378 279.629 291.538 279.496 292.85L276.393 327.463V327.474Z"/>
</mask>
<path d="M200.634 262.551C189.575 385.814 190.704 373.238 188.618 396.558L232.307 400.495C236.418 398.125 240.854 395.723 245.107 393.536C246.674 392.753 246.409 391.481 244.506 391.684C242.736 391.908 240.996 392.122 239.256 392.335C237.496 392.559 235.584 392.742 234.068 391.816C232.897 391.104 232.145 389.721 232.195 388.337C232.277 385.62 234.963 383.657 237.11 382.598C246.938 377.755 258.018 377.389 262.973 378.895C268.101 380.472 272.069 381.489 276.261 380.289C276.281 380.269 276.312 380.258 276.342 380.258C278.764 379.495 281.948 378.203 284.38 377.247C284.411 376.941 293.924 270.721 293.913 270.914C291.685 270.711 200.848 262.571 200.655 262.551H200.634ZM276.393 327.474C276.281 328.786 275.111 329.783 273.788 329.651C267.328 329.071 297.841 331.808 207.35 323.699C206.037 323.567 205.06 322.417 205.172 321.094L208.296 286.481C208.408 285.168 209.578 284.202 210.9 284.314C217.371 284.894 186.828 282.157 277.319 290.266C278.652 290.378 279.629 291.538 279.496 292.85L276.393 327.463V327.474Z" fill="#87AB99"/>
<path d="M200.634 262.551V260.421H198.687L198.513 262.36L200.634 262.551ZM188.618 396.558L186.497 396.368L186.307 398.488L188.427 398.679L188.618 396.558ZM232.307 400.495L232.116 402.617L232.788 402.677L233.372 402.34L232.307 400.495ZM245.107 393.536L244.154 391.631L244.143 391.636L244.132 391.642L245.107 393.536ZM244.506 391.684L244.28 389.566L244.26 389.568L244.239 389.571L244.506 391.684ZM239.256 392.335L238.997 390.221L238.988 390.222L239.256 392.335ZM234.068 391.816L235.178 389.999L235.175 389.997L234.068 391.816ZM232.195 388.337L234.324 388.415L234.324 388.408L234.325 388.401L232.195 388.337ZM237.11 382.598L236.168 380.688L236.168 380.688L237.11 382.598ZM262.973 378.895L263.599 376.859L263.592 376.857L262.973 378.895ZM276.261 380.289L276.847 382.337L277.377 382.185L277.767 381.795L276.261 380.289ZM276.342 380.258V382.388H276.67L276.982 382.29L276.342 380.258ZM284.38 377.247L285.16 379.229L286.37 378.753L286.5 377.459L284.38 377.247ZM293.913 270.914L293.72 273.035L295.924 273.237L296.041 271.026L293.913 270.914ZM200.655 262.551L200.878 260.432L200.767 260.421H200.655V262.551ZM276.393 327.474L278.515 327.655L278.523 327.564V327.474H276.393ZM273.788 329.651L274 327.531L273.99 327.53L273.979 327.529L273.788 329.651ZM207.35 323.699L207.136 325.818L207.148 325.819L207.159 325.82L207.35 323.699ZM205.172 321.094L203.051 320.903L203.05 320.915L205.172 321.094ZM208.296 286.481L210.417 286.672L210.418 286.662L208.296 286.481ZM210.9 284.314L211.091 282.192L211.08 282.191L210.9 284.314ZM277.319 290.266L277.129 292.387L277.141 292.388L277.319 290.266ZM279.496 292.85L277.377 292.636L277.376 292.648L277.375 292.66L279.496 292.85ZM276.393 327.463L274.272 327.273L274.263 327.368V327.463H276.393ZM198.513 262.36C187.453 385.623 188.583 373.048 186.497 396.368L190.74 396.747C192.826 373.428 191.696 386.004 202.756 262.741L198.513 262.36ZM188.427 398.679L232.116 402.617L232.499 398.374L188.81 394.436L188.427 398.679ZM233.372 402.34C237.449 399.989 241.854 397.604 246.081 395.43L244.132 391.642C239.853 393.843 235.387 396.26 231.243 398.65L233.372 402.34ZM246.059 395.441C246.658 395.142 247.238 394.721 247.66 394.147C248.079 393.574 248.44 392.682 248.161 391.672C247.875 390.642 247.083 390.056 246.387 389.789C245.704 389.527 244.966 389.493 244.28 389.566L244.733 393.802C244.999 393.774 245.007 393.823 244.86 393.766C244.699 393.704 244.232 393.448 244.055 392.808C243.883 392.188 244.135 391.748 244.224 391.628C244.313 391.506 244.339 391.538 244.154 391.631L246.059 395.441ZM244.239 389.571C242.473 389.794 240.737 390.007 238.997 390.221L239.516 394.45C241.255 394.236 242.999 394.022 244.774 393.797L244.239 389.571ZM238.988 390.222C237.107 390.461 235.96 390.477 235.178 389.999L232.957 393.634C235.207 395.008 237.885 394.657 239.525 394.448L238.988 390.222ZM235.175 389.997C234.66 389.684 234.302 389.024 234.324 388.415L230.067 388.259C229.987 390.417 231.135 392.525 232.96 393.636L235.175 389.997ZM234.325 388.401C234.344 387.766 234.667 387.079 235.394 386.342C236.121 385.605 237.106 384.975 238.051 384.509L236.168 380.688C234.967 381.28 233.535 382.161 232.362 383.35C231.189 384.538 230.129 386.191 230.066 388.273L234.325 388.401ZM238.051 384.509C242.709 382.214 247.69 380.969 252.102 380.483C256.556 379.993 260.25 380.294 262.354 380.933L263.592 376.857C260.741 375.99 256.418 375.722 251.636 376.249C246.812 376.78 241.339 378.14 236.168 380.688L238.051 384.509ZM262.347 380.931C267.425 382.493 271.972 383.733 276.847 382.337L275.674 378.241C272.166 379.246 268.777 378.451 263.599 376.859L262.347 380.931ZM277.767 381.795C277.298 382.264 276.736 382.388 276.342 382.388V378.128C275.887 378.128 275.264 378.273 274.755 378.783L277.767 381.795ZM276.982 382.29C279.495 381.498 282.778 380.166 285.16 379.229L283.6 375.264C281.119 376.24 278.032 377.492 275.702 378.227L276.982 382.29ZM286.5 377.459C286.516 377.291 288.904 350.638 291.284 324.084C292.474 310.799 293.663 297.53 294.554 287.594C294.999 282.626 295.37 278.492 295.63 275.605C295.759 274.162 295.861 273.031 295.93 272.264C295.964 271.88 295.991 271.588 296.008 271.393C296.017 271.296 296.024 271.224 296.028 271.177C296.03 271.153 296.032 271.138 296.033 271.129C296.033 271.124 296.033 271.125 296.033 271.13C296.032 271.134 296.03 271.156 296.028 271.171C295.933 271.59 293.306 272.955 291.786 270.802L296.041 271.026C294.521 268.872 291.894 270.237 291.799 270.657C291.797 270.674 291.794 270.696 291.794 270.703C291.793 270.713 291.792 270.723 291.791 270.729C291.79 270.743 291.788 270.763 291.786 270.787C291.781 270.837 291.775 270.911 291.766 271.009C291.748 271.205 291.721 271.498 291.687 271.882C291.618 272.65 291.516 273.781 291.386 275.224C291.127 278.111 290.756 282.246 290.311 287.214C289.42 297.15 288.231 310.419 287.04 323.703C285.85 336.988 284.658 350.288 283.762 360.286C283.314 365.285 282.94 369.459 282.677 372.392C282.546 373.859 282.442 375.015 282.371 375.81C282.335 376.207 282.307 376.514 282.289 376.723C282.269 376.945 282.26 377.039 282.26 377.035L286.5 377.459ZM294.107 268.793C292.991 268.691 269.721 266.605 246.711 264.542C235.205 263.511 223.763 262.485 215.185 261.716C210.896 261.331 207.323 261.011 204.816 260.786C203.563 260.673 202.576 260.585 201.9 260.524C201.203 260.462 200.868 260.431 200.878 260.432L200.432 264.669C200.644 264.691 291.521 272.835 293.72 273.035L294.107 268.793ZM200.655 260.421H200.634V264.681H200.655V260.421ZM274.271 327.293C274.265 327.359 274.233 327.424 274.174 327.474C274.117 327.522 274.058 327.537 274 327.531L273.576 331.77C276.107 332.023 278.305 330.126 278.515 327.655L274.271 327.293ZM273.979 327.529C273.575 327.493 273.316 327.47 273.162 327.456C273.086 327.449 273.036 327.445 273.007 327.442C272.993 327.441 272.984 327.44 272.981 327.44C272.98 327.44 272.98 327.44 272.981 327.44C272.982 327.44 272.987 327.44 272.99 327.44C273.377 327.514 274.836 330.139 272.61 331.684C272.602 331.683 272.594 331.682 272.601 331.683C272.64 331.686 272.947 331.714 273.217 331.738C273.351 331.75 273.475 331.761 273.551 331.768C273.591 331.772 273.614 331.774 273.62 331.774C273.704 331.782 273.576 331.772 273.483 331.757C271.702 329.422 273.964 327.528 273.983 327.53C273.988 327.53 273.995 327.531 273.997 327.531C273.999 327.531 274.001 327.531 274.001 327.531C273.998 327.531 273.991 327.53 273.976 327.529C273.859 327.519 273.394 327.477 272.27 327.377C267.78 326.975 252.785 325.632 207.54 321.577L207.159 325.82C252.405 329.875 267.4 331.218 271.891 331.62C273.013 331.72 273.48 331.762 273.599 331.773C273.614 331.774 273.625 331.775 273.632 331.775C273.633 331.776 273.637 331.776 273.641 331.776C273.643 331.776 273.651 331.777 273.656 331.777C273.675 331.779 275.937 329.885 274.156 327.55C274.1 327.542 274.036 327.535 274.029 327.534C274.026 327.534 274.021 327.533 274.019 327.533C274.016 327.533 274.013 327.532 274.011 327.532C274 327.531 273.971 327.529 273.934 327.525C273.857 327.518 273.732 327.507 273.598 327.495C273.329 327.471 273.019 327.443 272.979 327.439C272.978 327.439 272.976 327.439 272.975 327.439C272.974 327.439 272.973 327.439 272.972 327.439C272.971 327.439 272.966 327.438 272.963 327.438C270.736 328.983 272.195 331.607 272.582 331.681C272.586 331.681 272.59 331.682 272.592 331.682C272.594 331.682 272.595 331.682 272.596 331.682C272.601 331.683 272.611 331.684 272.625 331.685C272.654 331.688 272.704 331.692 272.781 331.699C272.935 331.713 273.194 331.736 273.598 331.772L273.979 327.529ZM207.563 321.579C207.385 321.562 207.283 321.415 207.295 321.274L203.05 320.915C202.838 323.419 204.689 325.572 207.136 325.818L207.563 321.579ZM207.294 321.286L210.417 286.672L206.174 286.289L203.051 320.903L207.294 321.286ZM210.418 286.662C210.427 286.552 210.539 286.421 210.721 286.436L211.08 282.191C208.617 281.983 206.388 283.785 206.173 286.3L210.418 286.662ZM210.71 286.435C211.115 286.472 211.374 286.495 211.528 286.509C211.605 286.516 211.656 286.52 211.684 286.523C211.699 286.524 211.707 286.525 211.711 286.525C211.712 286.525 211.713 286.525 211.713 286.525C211.712 286.525 211.711 286.525 211.71 286.525C211.672 286.521 209.787 284.176 212.089 282.282C212.092 282.282 212.095 282.282 212.09 282.282C212.051 282.278 211.743 282.251 211.473 282.226C211.338 282.214 211.213 282.203 211.136 282.196C211.098 282.193 211.071 282.19 211.061 282.19C211.06 282.189 211.059 282.189 211.058 282.189C211.058 282.189 211.057 282.189 211.057 282.189C211.056 282.189 211.052 282.189 211.049 282.188C208.747 284.119 210.67 286.432 210.674 286.432C210.675 286.432 210.677 286.432 210.677 286.432C210.678 286.433 210.679 286.433 210.68 286.433C210.685 286.433 210.694 286.434 210.709 286.435C210.826 286.446 211.291 286.487 212.412 286.588C216.896 286.99 231.883 288.333 277.129 292.387L277.509 288.144C232.263 284.09 217.277 282.747 212.792 282.345C211.671 282.244 211.206 282.203 211.09 282.192C211.075 282.191 211.066 282.19 211.062 282.19C211.061 282.19 211.061 282.19 211.061 282.19C211.061 282.19 211.06 282.19 211.06 282.19C211.06 282.19 211.061 282.19 211.062 282.19C211.066 282.19 212.99 284.503 210.687 286.433C210.682 286.433 210.676 286.432 210.682 286.433C210.692 286.434 210.718 286.436 210.756 286.439C210.833 286.446 210.958 286.458 211.093 286.47C211.362 286.494 211.672 286.521 211.711 286.525C211.711 286.525 211.717 286.526 211.72 286.526C214.023 284.631 212.137 282.286 212.099 282.283C212.098 282.282 212.097 282.282 212.096 282.282C212.095 282.282 212.094 282.282 212.093 282.282C212.088 282.282 212.079 282.281 212.065 282.279C212.036 282.277 211.986 282.272 211.909 282.265C211.755 282.252 211.495 282.228 211.091 282.192L210.71 286.435ZM277.141 292.388C277.315 292.403 277.387 292.535 277.377 292.636L281.616 293.064C281.87 290.54 279.989 288.352 277.497 288.143L277.141 292.388ZM277.375 292.66L274.272 327.273L278.515 327.654L281.618 293.04L277.375 292.66ZM274.263 327.463V327.474H278.523V327.463H274.263Z" fill="black" mask="url(#path-3-inside-1_525_16134)"/>
<path d="M235.9 128.901L244.421 121.445L252.409 124.108L261.462 125.706H273.177L282.763 124.641L285.425 126.771L288.621 139.019L292.881 148.604L299.271 158.19L305.661 163.515L306.727 166.178L303.531 170.97L296.076 182.686L295.543 187.479L300.869 184.816L305.661 183.751L309.389 186.413L312.052 190.674L312.584 195.999L309.389 202.922L303.531 206.649L296.076 208.247L284.893 206.117L283.295 216.235L281.928 229.548C263.929 232.51 252.685 234.98 240.693 237.536L243.888 218.365L231.108 214.105L222.055 208.247L217.262 200.792L214.599 192.804L215.132 180.556L216.197 168.308L220.457 152.332L225.782 141.149L235.9 128.901Z" fill="#FFD7B1"/>
<path d="M381.678 144.843C378.555 135.523 368.268 129.358 358.796 130.711C356.792 124.494 350.31 120.079 343.789 120.486C337.287 120.913 331.376 126.132 330.196 132.532C328.476 132.176 326.746 132.237 325.108 132.634C319.441 118.044 310.925 107.615 293.018 101.144C287.361 99.1091 281.338 100.686 276.363 97.1149C270.034 92.5466 266.249 87.1135 258.507 84.1832C246.308 79.5641 233.62 81.8737 228.126 94.9783C225.297 101.765 228.34 115.47 242.451 121.859C242.35 121.92 242.258 121.991 242.156 122.052C223.354 135.503 213.973 156.727 213.464 186.955C213.2 200.884 218.633 209.695 232.674 215.779C235.94 217.193 239.175 218.272 242.38 219.035C239.592 237.115 238.605 238.346 238.758 239.007C239.603 238.793 240.447 238.6 241.332 238.407C242.828 232.129 243.825 225.74 244.781 219.543C253.867 221.182 263.777 220.622 277.574 215.067C278.204 214.802 278.499 214.09 278.255 213.469C277.991 212.839 277.299 212.544 276.658 212.788C260.44 219.33 247.579 219.554 233.64 213.541C220.485 207.853 215.683 199.907 215.917 186.996C216.354 161.397 223.456 137.233 245.137 122.999C256.36 127.353 268.345 127.353 280.331 125.664C283.017 125.288 284.604 126.295 285.225 128.818C288.379 141.882 292.672 155.18 304.037 163.228C305.421 164.205 305.838 165.507 305.116 166.708C301.29 172.965 296.467 177.523 294.728 184.727C294.565 185.602 294.605 185.998 294.483 186.365C293.73 187.494 295.145 188.868 296.254 187.962C298.34 187.494 301.901 184.788 304.485 185.185C309.674 185.958 312.533 191.717 311.546 196.244C310.539 200.843 306.265 205.025 300.893 206.632C294.117 208.667 289.111 205.706 282.844 203.254C282.213 202.99 281.511 203.305 281.246 203.936C281.002 204.557 281.308 205.269 281.928 205.513C282.528 205.757 283.098 206.001 283.688 206.246C282.824 207.212 281.033 221.212 281.135 230.807C281.135 230.857 281.135 230.888 281.155 230.939C281.949 230.827 282.762 230.725 283.576 230.644C283.546 226.981 283.709 223.196 284.065 219.34C287.738 221.711 293.639 220.642 296.701 219.879C304.444 217.956 309.582 215.23 314.741 209.634C320.062 203.865 323.847 197.923 326.228 190.607C330.735 197.964 338.864 199.978 343.778 197.262C345.6 196.275 347.034 194.677 348.855 193.639C352.874 191.36 357.88 192.205 362.357 191.025C370.883 188.746 375.869 177.9 372.033 169.943C380.508 165.192 384.812 154.071 381.709 144.853L381.678 144.843ZM242.614 94.7443C239.297 95.3242 236.825 99.2515 237.781 102.497C238.015 103.27 237.446 104.054 236.611 104.054C236.072 104.054 235.584 103.708 235.441 103.179C234.088 98.5698 237.435 93.1571 242.187 92.3329C242.858 92.2312 243.499 92.6585 243.621 93.33C243.733 94.0015 243.296 94.6324 242.614 94.7443ZM368.167 152.25C368.065 152.871 367.546 153.288 366.966 153.288C366.193 153.288 365.643 152.606 365.745 151.874C366.396 147.773 363.873 143.347 360.007 141.791C359.376 141.526 359.081 140.814 359.325 140.193C359.569 139.563 360.302 139.267 360.933 139.512C365.877 141.496 368.98 146.99 368.167 152.25Z" fill="black"/>
<ellipse cx="272.642" cy="154.225" rx="3.19516" ry="3.19515" fill="black"/>
<ellipse cx="241.756" cy="139.314" rx="3.19516" ry="3.19515" fill="black"/>
<path d="M292.663 198.401C292.001 198.401 291.452 198.93 291.442 199.591C291.432 200.263 291.961 200.823 292.632 200.843C295.583 200.924 298.177 200.131 300.66 198.544C301.23 198.177 301.392 197.424 301.036 196.855C300.67 196.285 299.917 196.122 299.347 196.478C297.19 197.862 295.135 198.452 292.693 198.391H292.663V198.401Z" fill="black"/>
<path d="M261.854 141.628C262.159 141.028 261.925 140.295 261.325 139.98C260.725 139.664 259.992 139.908 259.677 140.509C256.533 146.603 251.873 151.039 245.433 154.071C242.279 155.557 238.768 156.32 237.069 160.166C235.431 163.869 237.324 167.379 239.155 170.869C239.46 171.469 240.203 171.703 240.803 171.388C241.404 171.083 241.638 170.34 241.322 169.74C239.867 166.952 238.077 163.92 239.308 161.142C240.559 158.304 243.449 157.693 246.471 156.279C253.409 153.003 258.446 148.211 261.844 141.628H261.854Z" fill="black"/>
<path d="M277.96 141.272C277.349 140.987 276.617 141.241 276.332 141.852C276.047 142.462 276.301 143.185 276.912 143.48C283.545 146.613 287.941 150.663 291.186 156.605C291.512 157.205 292.255 157.408 292.845 157.093C293.435 156.767 293.659 156.025 293.333 155.435C289.833 149.014 285.092 144.65 277.96 141.272Z" fill="black"/>
<path d="M243.347 131.779C249.411 129.775 254.641 130.792 259.809 134.994C260.328 135.421 261.101 135.35 261.529 134.821C261.956 134.292 261.875 133.529 261.356 133.102C255.567 128.391 249.431 127.201 242.594 129.459C241.953 129.673 241.607 130.365 241.821 131.006C242.035 131.647 242.726 132.003 243.367 131.779H243.347Z" fill="black"/>
<path d="M249.849 182.142C249.411 184.686 249.065 187.27 247.153 188.949C245.494 190.404 243.368 190.089 241.943 188.379C241.516 187.85 240.743 187.789 240.224 188.216C239.705 188.644 239.624 189.417 240.061 189.936C242.36 192.724 246.064 193.161 248.76 190.791C251.243 188.613 251.711 185.744 252.25 182.57C252.362 181.908 251.924 181.278 251.253 181.155C250.602 181.044 249.961 181.491 249.839 182.153L249.849 182.142Z" fill="black"/>
<path d="M111.822 380.253C111.822 380.253 140.046 319.012 140.046 318.48C140.046 317.947 146.462 321.579 151.761 324.87C158.103 328.908 162.027 331.532 166.139 334.988C172.348 340.269 175.637 343.531 179.453 347.769C181.546 349.933 182.854 351.533 185.31 354.692L191.701 364.277L190.083 380.253H111.822Z" fill="#FFD7B1"/>
<path d="M113.471 379.383C114.366 377.267 140.596 317.686 140.708 317.523C135.448 314.735 129.323 311.927 123.493 309.617C117.205 314.959 127.847 326.487 131.714 332.103C125.65 345.859 116.36 366.248 110.805 379.434C103.815 379.577 128.631 379.078 76.731 380.126C76.0493 380.126 75.5101 380.676 75.5101 381.357C75.5101 382.039 76.0595 382.558 76.731 382.558H76.7514C177.081 380.543 111.11 382.171 189.993 381.286L190.206 378.844C103.286 379.282 128.264 379.109 113.481 379.373L113.471 379.383Z" fill="black"/>
<path d="M329.625 320.61L323.235 312.622L336.015 298.244L347.731 289.723L359.446 283.866L372.227 278.54L383.41 277.475L389.268 282.268L403.114 301.971L410.036 317.947L413.764 336.053L412.699 350.431L410.569 360.549L403.646 373.33L395.126 381.318L373.292 394.098L253.474 453.209L249.746 453.741L245.486 451.611L244.953 447.351L247.083 443.623L239.096 443.091L235.9 439.363L236.965 434.038L240.161 430.31L235.368 431.375L229.51 430.31L226.847 427.115L227.912 422.322L233.238 416.464L229.51 416.997L223.12 415.932L219.925 411.672L222.055 406.879L243.888 394.098L245.486 391.968H234.835L232.173 389.838L232.705 386.111L238.03 381.85L246.018 379.188L257.201 378.123L274.242 381.318L340.808 353.094L344.536 349.899L345.068 344.573L342.406 337.118L336.015 327.533L329.625 320.61Z" fill="#FFD7B1"/>
<path d="M396.797 290.5C399.748 287.264 402.21 282.096 402.902 278.178C402.79 278.158 402.678 278.148 402.556 278.128C402.963 277.334 402.465 276.551 401.752 276.388C397.245 275.38 384.883 273.641 367.617 279.277C351.511 284.527 335.252 295.556 325.19 308.061C320.703 313.636 317.986 319.904 317.315 325.947C315.036 320.128 313.082 314.776 311.597 309.485L314.354 273.976C314.405 273.295 313.917 272.725 313.245 272.664L293.893 270.944C283.332 388.683 284.584 374.754 284.482 375.873C282.356 376.718 278.245 378.356 275.966 379.088C272.171 380.126 269.292 379.556 263.319 377.715C258.029 376.117 246.765 376.484 236.561 381.5C234.912 382.313 231.077 384.603 230.965 388.286C230.904 390.107 231.87 391.908 233.417 392.854C235.787 394.309 238.595 393.658 243.377 393.058C238.656 395.52 226.641 401.991 222.286 405.216C220.312 406.63 219.02 409.184 219.05 411.595C219.142 415.014 222.418 418.433 229.571 417.731C229.825 417.7 230.069 417.67 230.324 417.639C226.986 420.579 225.145 423.754 225.593 426.175C226.671 431.741 231.779 432.758 237.375 431.985C235.36 434.223 234.485 436.462 234.546 438.059C234.638 439.921 235.441 441.508 236.876 442.668C238.687 444.123 241.495 444.835 244.771 444.805C241.027 450.146 245.127 454.949 252.656 454.796C253.155 454.786 248.2 457.055 364.433 400.261C388.811 386.851 394.101 384.796 400.328 378.722C423.383 356.42 416.495 315.824 396.797 290.51V290.5ZM317.59 333.263C317.834 333.873 318.566 334.25 319.279 333.873C324.986 337.149 333.106 336.478 339.251 333.588C342.354 338.329 345.732 345.747 342.385 350.315C341.225 351.892 338 352.757 335.914 353.703C335.68 353.815 307.364 366.268 307.202 366.34L311.098 316.098C312.92 321.481 315.127 327.056 317.6 333.252L317.59 333.263ZM398.619 376.952C392.768 382.649 388.159 384.399 363.303 398.084L252.331 452.344C246.216 452.558 243.337 448.722 248.597 444.245C249.136 444.194 247.946 444.591 264.042 437.204C264.652 436.92 264.917 436.197 264.642 435.587C264.357 434.976 263.625 434.712 263.024 434.986C258.934 436.879 248.149 441.824 247.803 442.058C247.752 442.058 247.702 442.058 247.651 442.058C243.784 442.709 240.244 442.21 238.412 440.745C234.902 437.927 238.616 433.409 242.391 430.876C242.441 430.845 242.472 430.795 242.523 430.754L256.187 424.446C256.797 424.161 257.062 423.438 256.787 422.828C256.502 422.207 255.77 421.953 255.17 422.228C252.29 423.561 241.454 428.546 241.068 428.76C235.696 430.082 229.021 431.029 227.994 425.718C227.688 424.059 230.141 419.928 236.377 416.316C236.51 416.245 236.611 416.143 236.703 416.042L249.655 410.079C250.266 409.795 250.54 409.072 250.255 408.462C249.97 407.841 249.248 407.577 248.638 407.861C248.475 407.943 233.824 414.678 234.729 414.261C231.443 415.095 226.946 416.082 223.893 414.678C222.428 413.976 221.523 412.796 221.492 411.545C221.462 409.937 222.377 408.146 223.72 407.19C228.167 403.883 241.21 396.914 245.636 394.635C248.404 393.251 247.62 390.138 244.334 390.473C237.68 391.338 236.082 391.633 234.688 390.779C232.664 389.537 232.582 386.19 237.639 383.697C247.162 379.007 257.896 378.63 262.597 380.055C273.097 383.29 274.491 382.049 279.731 380.36C305.543 370.501 327.845 359.452 338.59 355.27C340.686 354.456 343.066 353.53 344.348 351.79C345.956 349.603 346.587 346.479 346.027 343.437C344.023 332.622 335.191 324.787 328.395 317.187C327.093 315.712 325.841 312.812 325.536 311.734C333.584 300.247 350.504 287.447 368.37 281.628C371.036 280.763 377.832 278.779 380.752 278.952C382.635 279.074 383.591 279.247 384.863 280.305C387.03 282.096 391.68 288.119 393.409 290.205C398.558 296.441 402.77 303.431 405.924 311.001C414.908 332.601 416.363 359.818 398.609 376.982L398.619 376.952Z" fill="black"/>
<path d="M113.31 169.961C114.47 168.774 115.855 167.488 117.509 167.587C121.142 167.955 123.435 173.423 125.755 175.752C127.76 177.757 130.485 178.935 132.427 180.958C137.715 186.444 128.507 193.332 126.627 198.304C125.611 200.984 125.872 204.437 128.147 206.173C131.645 208.834 137.022 205.858 140.979 207.791C146.347 210.408 145.062 217.017 142.094 222.826C137.112 232.565 129.712 241.836 118.723 241.503C113.454 241.341 108.157 238.194 106.305 233.266C104.452 228.329 106.88 221.945 111.853 220.209C109.308 223.977 103.85 225.425 99.7765 223.411C95.703 221.396 93.5358 216.181 94.9836 211.874C97.5374 204.293 108.355 202.288 111.332 194.86C110.261 197.522 102.034 193.287 100.856 192.495C96.5572 189.609 97.7802 185.895 101.431 182.163C107.024 176.435 107.825 175.608 113.31 169.988V169.961Z" fill="#FFEBF1"/>
<path d="M178.781 62.626L210.785 38.152L216.904 42.3879L204.667 81.4521L195.254 82.3934L192.9 72.039L180.193 73.451L178.781 62.626Z" fill="white"/>
<path d="M179.722 63.0966L210.944 39.5599C212.482 40.6479 214.055 41.6641 215.665 42.6352L203.726 80.9814C203.483 81.6828 203.929 81.9227 204.667 81.9227C205.116 81.9227 205.455 81.431 205.608 80.9814L222.157 30.4327C222.508 29.4166 221.303 28.5713 220.467 29.2368L178.781 61.6847C178.313 62.0533 178.403 62.629 178.781 63.0966C179.149 63.5642 179.255 63.4653 179.722 63.0966Z" fill="black"/>
<path d="M148.727 101.863L147.689 103.2L119.768 139.169L119.131 139.99L118.377 139.274C115.376 136.426 108.921 132.78 103.095 129.806C100.206 128.331 97.5092 127.039 95.5345 126.116C94.5473 125.655 93.7412 125.286 93.1824 125.032C93.0681 124.981 92.9641 124.934 92.8711 124.892C89.5232 127.894 86.979 129.634 85.0206 130.503C82.9756 131.41 81.385 131.441 80.2105 130.699C79.0917 129.992 78.6523 128.76 78.4422 127.893C78.3457 127.495 78.2854 127.118 78.2418 126.845C78.2361 126.809 78.2307 126.775 78.2255 126.743C78.2086 126.639 78.196 126.567 78.1859 126.516C78.126 126.41 78.096 126.31 78.0809 126.24C78.0514 126.102 78.0579 125.987 78.0636 125.928C78.0752 125.805 78.1064 125.701 78.1248 125.644C78.1657 125.517 78.2267 125.375 78.2896 125.24C78.4199 124.959 78.6183 124.578 78.8672 124.121C79.3679 123.202 80.1072 121.916 81.0057 120.39C82.8045 117.335 85.2599 113.286 87.7673 109.209C90.2751 105.131 92.8377 101.022 94.8518 97.8463C95.8586 96.259 96.7301 94.9021 97.39 93.8981C97.7196 93.3966 97.999 92.9793 98.2172 92.6638C98.4188 92.3724 98.6064 92.1112 98.737 91.969C98.7373 91.9686 98.7376 91.9683 98.7379 91.968L99.4306 92.6053C111.318 79.6025 109.52 98.693 109.52 98.693L148.727 101.863ZM148.727 101.863L147.044 101.687L110.519 97.8515L148.727 101.863Z" fill="#FBEA88" stroke="black" stroke-width="1.88261"/>
<path d="M191.02 155.818L176.628 123.097L175.96 121.577L174.999 122.931L148.949 159.619L148.341 160.474L149.257 160.986C152.898 163.019 158.313 168.051 162.891 172.673C165.162 174.965 167.199 177.128 168.668 178.718C169.403 179.512 169.995 180.163 170.403 180.615C170.488 180.709 170.565 180.795 170.634 180.871C168.797 184.973 167.917 187.925 167.686 190.054C167.445 192.278 167.9 193.802 168.964 194.694C169.977 195.544 171.284 195.586 172.172 195.522C172.577 195.493 172.952 195.436 173.223 195.395C173.261 195.389 173.296 195.383 173.33 195.378C173.431 195.363 173.503 195.354 173.553 195.348C173.675 195.374 173.782 195.372 173.854 195.364C173.994 195.35 174.102 195.308 174.157 195.285C174.269 195.236 174.358 195.175 174.407 195.14C174.514 195.062 174.63 194.961 174.74 194.86C174.967 194.651 175.269 194.346 175.628 193.97C176.35 193.213 177.349 192.118 178.529 190.797C180.89 188.154 183.999 184.583 187.118 180.954C190.239 177.324 193.373 173.632 195.786 170.747C196.992 169.304 198.02 168.061 198.776 167.126C199.154 166.659 199.467 166.266 199.701 165.961C199.919 165.679 200.111 165.421 200.206 165.254L200.206 165.254C201.322 163.304 202.042 161.677 202.426 160.32C202.808 158.97 202.878 157.816 202.599 156.861C202.309 155.867 201.67 155.185 200.853 154.772C200.069 154.377 199.149 154.24 198.246 154.232C196.442 154.216 194.401 154.715 192.862 155.189C192.129 155.415 191.491 155.641 191.02 155.818Z" fill="#FBEA88" stroke="black" stroke-width="1.88261"/>
<mask id="path-19-inside-2_525_16134" fill="white">
<path d="M204.765 80.2948L196.654 81.7156C196.241 81.7875 195.836 81.5178 195.746 81.0682L193.894 71.3116C193.804 70.8799 193.408 70.6102 192.985 70.6821L181.574 72.6334C181.116 72.7233 180.693 72.3906 180.657 71.932L179.92 62.3732C179.866 61.6539 178.957 61.3841 178.508 61.9596L146.945 102.641C143.717 106.795 160.218 85.5463 106.192 155.137C105.23 154.436 119.896 165.146 137.224 177.807L149.715 160.182L175.756 123.503L205.521 81.5268C205.925 80.9692 205.431 80.1869 204.747 80.3038L204.765 80.2948ZM120.804 157.089C120.328 156.747 120.211 156.073 120.562 155.596C122.864 152.377 176.008 78.3852 176.898 77.2162C177.788 76.0832 179.362 77.5041 178.508 78.6281C177.6 79.7881 122.873 156.064 122.315 156.846C121.928 157.358 121.227 157.412 120.804 157.089ZM191.959 87.0999C191.069 88.2599 135.884 165.155 135.327 165.946C134.958 166.414 134.32 166.549 133.807 166.189C133.331 165.847 133.214 165.173 133.564 164.678C135.875 161.477 189.657 86.8569 190.547 85.6879C190.925 85.2113 191.5 85.3282 191.959 85.6879C192.436 86.0476 192.319 86.6233 191.959 87.0999Z"/>
</mask>
<path d="M204.765 80.2948L196.654 81.7156C196.241 81.7875 195.836 81.5178 195.746 81.0682L193.894 71.3116C193.804 70.8799 193.408 70.6102 192.985 70.6821L181.574 72.6334C181.116 72.7233 180.693 72.3906 180.657 71.932L179.92 62.3732C179.866 61.6539 178.957 61.3841 178.508 61.9596L146.945 102.641C143.717 106.795 160.218 85.5463 106.192 155.137C105.23 154.436 119.896 165.146 137.224 177.807L149.715 160.182L175.756 123.503L205.521 81.5268C205.925 80.9692 205.431 80.1869 204.747 80.3038L204.765 80.2948ZM120.804 157.089C120.328 156.747 120.211 156.073 120.562 155.596C122.864 152.377 176.008 78.3852 176.898 77.2162C177.788 76.0832 179.362 77.5041 178.508 78.6281C177.6 79.7881 122.873 156.064 122.315 156.846C121.928 157.358 121.227 157.412 120.804 157.089ZM191.959 87.0999C191.069 88.2599 135.884 165.155 135.327 165.946C134.958 166.414 134.32 166.549 133.807 166.189C133.331 165.847 133.214 165.173 133.564 164.678C135.875 161.477 189.657 86.8569 190.547 85.6879C190.925 85.2113 191.5 85.3282 191.959 85.6879C192.436 86.0476 192.319 86.6233 191.959 87.0999Z" fill="#F8D512"/>
<path d="M204.765 80.2948L205.608 81.9785L204.44 78.4404L204.765 80.2948ZM196.654 81.7156L196.977 83.5704L196.979 83.57L196.654 81.7156ZM195.746 81.0682L193.896 81.4193L193.898 81.4284L193.9 81.4374L195.746 81.0682ZM193.894 71.3116L195.743 70.9604L195.74 70.944L195.737 70.9276L193.894 71.3116ZM192.985 70.6821L192.669 68.8262L192.668 68.8264L192.985 70.6821ZM181.574 72.6334L181.257 70.7777L181.234 70.7816L181.212 70.786L181.574 72.6334ZM180.657 71.932L178.78 72.0768L178.78 72.0792L180.657 71.932ZM179.92 62.3732L178.042 62.514L178.043 62.518L179.92 62.3732ZM178.508 61.9596L177.024 60.8006L177.02 60.8056L178.508 61.9596ZM146.945 102.641L148.432 103.796L148.432 103.795L146.945 102.641ZM106.192 155.137L105.083 156.659L106.559 157.735L107.679 156.292L106.192 155.137ZM137.224 177.807L136.114 179.327L137.656 180.454L138.76 178.895L137.224 177.807ZM149.715 160.182L148.18 159.092L148.179 159.094L149.715 160.182ZM175.756 123.503L177.291 124.592L177.292 124.592L175.756 123.503ZM205.521 81.5268L203.997 80.4209L203.991 80.4293L203.985 80.4378L205.521 81.5268ZM204.747 80.3038L203.905 78.6202L205.065 82.1595L204.747 80.3038ZM120.804 157.089L121.949 155.594L121.926 155.576L121.901 155.559L120.804 157.089ZM120.562 155.596L122.078 156.712L122.086 156.701L122.093 156.691L120.562 155.596ZM176.898 77.2162L175.418 76.0531L175.409 76.0643L175.4 76.0756L176.898 77.2162ZM178.508 78.6281L179.99 79.7887L179.998 79.7781L180.007 79.7673L178.508 78.6281ZM122.315 156.846L123.818 157.98L123.833 157.959L123.848 157.938L122.315 156.846ZM191.959 87.0999L193.453 88.2461L193.457 88.24L193.462 88.234L191.959 87.0999ZM135.327 165.946L136.805 167.112L136.837 167.072L136.866 167.03L135.327 165.946ZM133.807 166.189L132.71 167.719L132.718 167.724L132.726 167.73L133.807 166.189ZM133.564 164.678L132.038 163.576L132.033 163.583L132.029 163.589L133.564 164.678ZM190.547 85.6879L189.072 84.5187L189.06 84.5329L189.049 84.5473L190.547 85.6879ZM191.959 85.6879L190.797 87.1693L190.811 87.1801L190.825 87.1906L191.959 85.6879ZM204.44 78.4404L196.329 79.8612L196.979 83.57L205.09 82.1492L204.44 78.4404ZM196.332 79.8608C196.956 79.7523 197.488 80.1789 197.592 80.6989L193.9 81.4374C194.184 82.8566 195.525 83.8228 196.977 83.5704L196.332 79.8608ZM197.596 80.717L195.743 70.9604L192.044 71.6627L193.896 81.4193L197.596 80.717ZM195.737 70.9276C195.444 69.5228 194.109 68.5812 192.669 68.8262L193.301 72.538C192.707 72.6391 192.163 72.2371 192.051 71.6955L195.737 70.9276ZM192.668 68.8264L181.257 70.7777L181.892 74.4891L193.303 72.5378L192.668 68.8264ZM181.212 70.786C181.887 70.6536 182.484 71.151 182.534 71.7848L178.78 72.0792C178.902 73.6303 180.344 74.793 181.936 74.4808L181.212 70.786ZM182.534 71.7872L181.797 62.2285L178.043 62.518L178.78 72.0768L182.534 71.7872ZM181.797 62.2324C181.61 59.744 178.5 58.9116 177.024 60.8006L179.991 63.1186C179.415 63.8566 178.121 63.5638 178.042 62.514L181.797 62.2324ZM177.02 60.8056L145.458 101.487L148.432 103.795L179.995 63.1136L177.02 60.8056ZM145.458 101.485C145.257 101.745 145.132 101.905 145.063 101.994C145.028 102.039 145.008 102.065 144.999 102.077C144.996 102.08 144.996 102.081 144.996 102.08C144.996 102.08 144.997 102.079 144.997 102.079C144.998 102.078 145 102.075 145.001 102.074C145.003 102.071 145.011 102.061 145.017 102.055C145.043 102.023 147.62 101.749 148.051 104.275C148.022 104.318 147.986 104.369 147.98 104.376C147.977 104.379 147.974 104.384 147.973 104.386C147.972 104.387 147.971 104.388 147.97 104.389C147.97 104.389 147.97 104.39 147.969 104.39C147.969 104.39 147.97 104.389 147.972 104.386C148.008 104.341 148.175 104.125 148.3 103.964C148.362 103.884 148.413 103.819 148.43 103.797C148.432 103.794 148.433 103.792 148.434 103.792C148.434 103.791 148.433 103.792 148.432 103.794C148.432 103.794 148.429 103.798 148.427 103.8C148.422 103.806 148.206 104.035 147.962 104.22C145.572 103.913 145.446 101.5 145.452 101.492C145.454 101.49 145.457 101.486 145.458 101.485C145.459 101.484 145.46 101.483 145.459 101.483C145.459 101.484 145.457 101.486 145.455 101.489C145.445 101.501 145.424 101.528 145.389 101.574C145.249 101.754 144.888 102.219 144.13 103.196C141.099 107.102 131.718 119.187 104.705 153.983L107.679 156.292C134.692 121.496 144.073 109.411 147.105 105.505C147.863 104.528 148.224 104.063 148.364 103.881C148.399 103.836 148.421 103.808 148.432 103.794C148.435 103.79 148.437 103.787 148.439 103.785C148.44 103.784 148.442 103.781 148.443 103.779C148.445 103.778 148.448 103.774 148.45 103.771C148.456 103.763 148.33 101.35 145.941 101.043C145.696 101.228 145.48 101.457 145.475 101.463C145.473 101.466 145.47 101.469 145.469 101.471C145.467 101.473 145.466 101.475 145.465 101.476C145.463 101.478 145.461 101.481 145.458 101.484C145.44 101.509 145.388 101.575 145.326 101.655C145.202 101.814 145.032 102.034 144.993 102.083C144.991 102.087 144.988 102.09 144.986 102.093C144.985 102.095 144.982 102.098 144.98 102.101C144.978 102.103 144.974 102.108 144.972 102.112C144.966 102.119 144.929 102.17 144.9 102.214C145.331 104.739 147.909 104.465 147.935 104.434C147.94 104.427 147.948 104.417 147.951 104.414C147.955 104.409 147.958 104.405 147.959 104.404C147.961 104.401 147.964 104.397 147.967 104.393C147.978 104.379 148 104.351 148.035 104.306C148.105 104.216 148.23 104.055 148.432 103.796L145.458 101.485ZM107.301 153.616C107.286 153.605 107.274 153.597 107.266 153.591C107.262 153.588 107.258 153.585 107.255 153.583C107.254 153.582 107.251 153.58 107.248 153.578C107.246 153.576 107.241 153.573 107.238 153.57C107.226 153.562 104.785 153.805 104.649 156.244C104.813 156.434 105.011 156.606 105.019 156.612C105.022 156.614 105.027 156.618 105.028 156.619C105.031 156.621 105.034 156.623 105.035 156.624C105.038 156.626 105.042 156.629 105.046 156.632C105.054 156.638 105.065 156.646 105.08 156.657C105.139 156.7 105.256 156.786 105.428 156.911C105.771 157.161 106.332 157.572 107.088 158.123C108.598 159.227 110.883 160.895 113.739 162.981C119.451 167.154 127.45 172.996 136.114 179.327L138.335 176.287C129.671 169.956 121.672 164.113 115.96 159.941C113.104 157.855 110.819 156.186 109.309 155.083C108.553 154.531 107.992 154.121 107.649 153.871C107.478 153.745 107.361 153.66 107.303 153.618C107.288 153.607 107.278 153.599 107.271 153.594C107.267 153.592 107.266 153.59 107.265 153.59C107.264 153.589 107.265 153.59 107.267 153.592C107.269 153.593 107.273 153.596 107.276 153.598C107.284 153.604 107.481 153.776 107.646 153.965C107.509 156.405 105.068 156.647 105.057 156.64C105.054 156.637 105.049 156.634 105.047 156.633C105.045 156.631 105.044 156.63 105.045 156.631C105.045 156.631 105.047 156.632 105.05 156.635C105.057 156.64 105.068 156.648 105.083 156.659L107.301 153.616ZM138.76 178.895L151.251 161.271L148.179 159.094L135.688 176.718L138.76 178.895ZM151.25 161.272L177.291 124.592L174.221 122.413L148.18 159.092L151.25 161.272ZM177.292 124.592L207.056 82.6157L203.985 80.4378L174.22 122.414L177.292 124.592ZM207.044 82.6326C208.47 80.6679 206.727 78.0552 204.43 78.4482L205.065 82.1595C204.134 82.3186 203.38 81.2706 203.997 80.4209L207.044 82.6326ZM205.59 81.9875L205.608 81.9785L203.923 78.6112L203.905 78.6202L205.59 81.9875ZM121.901 155.559C122.256 155.813 122.364 156.323 122.078 156.712L119.045 154.48C118.058 155.822 118.4 157.681 119.707 158.619L121.901 155.559ZM122.093 156.691C123.242 155.084 137.102 135.784 150.788 116.736C157.631 107.213 164.429 97.7538 169.572 90.6027C172.144 87.0271 174.301 84.0289 175.844 81.8882C176.615 80.8177 177.232 79.9623 177.67 79.3566C177.889 79.0536 178.062 78.814 178.188 78.6415C178.25 78.5552 178.3 78.4869 178.337 78.4364C178.356 78.4111 178.37 78.3914 178.381 78.3766C178.393 78.3604 178.397 78.3553 178.396 78.3568L175.4 76.0756C174.488 77.2743 121.317 151.303 119.03 154.501L122.093 156.691ZM178.379 78.3793C178.293 78.4879 178.059 78.6707 177.707 78.6823C177.408 78.6922 177.206 78.5715 177.106 78.4821C177.003 78.391 176.91 78.2509 176.88 78.0551C176.845 77.8228 176.916 77.6107 177.009 77.489L180.007 79.7673C181.135 78.2822 180.602 76.5533 179.609 75.6694C179.11 75.2259 178.402 74.8922 177.583 74.9192C176.713 74.9479 175.948 75.378 175.418 76.0531L178.379 78.3793ZM177.025 77.4676C176.083 78.6716 121.316 155.003 120.782 155.753L123.848 157.938C124.124 157.551 137.942 138.291 151.809 118.977C158.742 109.321 165.685 99.6536 170.952 92.328C173.585 88.6651 175.799 85.5881 177.383 83.3908C178.175 82.2921 178.808 81.4142 179.258 80.7934C179.483 80.4827 179.661 80.2379 179.789 80.0623C179.853 79.9744 179.903 79.9057 179.941 79.8555C179.983 79.7979 179.995 79.7827 179.99 79.7887L177.025 77.4676ZM120.812 155.712C120.941 155.542 121.133 155.44 121.323 155.415C121.494 155.392 121.726 155.423 121.949 155.594L119.66 158.583C120.906 159.538 122.797 159.332 123.818 157.98L120.812 155.712ZM190.466 85.9537C189.547 87.1505 134.339 164.08 133.788 164.862L136.866 167.03C136.866 167.03 136.866 167.03 136.867 167.029C136.868 167.027 136.869 167.026 136.871 167.023C136.874 167.019 136.878 167.013 136.883 167.006C136.893 166.992 136.907 166.972 136.924 166.948C136.959 166.9 137.006 166.834 137.067 166.749C137.187 166.581 137.358 166.343 137.575 166.04C138.01 165.433 138.632 164.566 139.414 163.476C140.978 161.295 143.182 158.222 145.815 154.553C151.081 147.215 158.059 137.493 165.048 127.759C172.036 118.025 179.035 108.28 184.342 100.896C186.995 97.2044 189.226 94.103 190.821 91.8886C191.618 90.7812 192.256 89.8964 192.708 89.2706C192.935 88.9575 193.114 88.7104 193.243 88.533C193.307 88.4442 193.358 88.3742 193.396 88.3228C193.438 88.2655 193.453 88.2454 193.453 88.2461L190.466 85.9537ZM133.849 164.78C133.937 164.668 134.089 164.56 134.297 164.523C134.517 164.485 134.735 164.54 134.889 164.648L132.726 167.73C134.133 168.717 135.878 168.288 136.805 167.112L133.849 164.78ZM134.904 164.659C135.278 164.927 135.343 165.425 135.1 165.767L132.029 163.589C131.085 164.921 131.384 166.768 132.71 167.719L134.904 164.659ZM135.091 165.78C136.247 164.179 150.271 144.722 164.116 125.522C171.038 115.921 177.917 106.385 183.12 99.1749C185.721 95.5699 187.904 92.5472 189.464 90.3893C190.244 89.3102 190.867 88.448 191.31 87.8376C191.531 87.5322 191.707 87.2908 191.833 87.117C191.897 87.03 191.947 86.9611 191.985 86.9102C192.003 86.8846 192.018 86.8646 192.029 86.8496C192.041 86.8332 192.046 86.8276 192.045 86.8285L189.049 84.5473C188.14 85.7418 134.329 160.403 132.038 163.576L135.091 165.78ZM192.023 86.8572C191.944 86.9558 191.813 87.0746 191.623 87.1585C191.435 87.2415 191.254 87.262 191.112 87.2537C190.861 87.2389 190.762 87.1415 190.797 87.1693L193.121 84.2066C192.698 83.8746 192.082 83.539 191.333 83.495C190.487 83.4452 189.651 83.7878 189.072 84.5187L192.023 86.8572ZM190.825 87.1906C190.715 87.1075 190.585 86.9678 190.494 86.7664C190.405 86.568 190.385 86.38 190.393 86.2395C190.408 85.9946 190.5 85.908 190.456 85.9658L193.462 88.234C193.778 87.8152 194.108 87.2025 194.152 86.4606C194.202 85.6112 193.856 84.7607 193.093 84.1853L190.825 87.1906Z" fill="black" mask="url(#path-19-inside-2_525_16134)"/>
<path d="M420.995 120.655C425.452 111.264 421.379 107.925 413.249 114.859C406.659 106.685 402.021 109.197 404.808 119.597C403.506 119.76 402.288 119.987 401.193 120.281C397.944 121.15 396.102 122.505 396.004 124.092C395.849 126.617 399.965 128.353 402.348 129.124C397.776 138.901 402.6 141.963 411.449 133.613C418.521 143.661 424.336 142.025 421.195 130.512C431.556 128.866 431.57 123.43 420.995 120.655ZM420.292 111.749C420.782 111.749 421.191 111.871 421.504 112.116C422.879 113.202 422.332 116.494 420.409 120.506C419.223 120.218 417.947 119.973 416.597 119.781C415.645 118.144 414.635 116.636 413.608 115.313C415.245 113.916 418.154 111.749 420.292 111.749ZM413.783 130.348C412.488 130.312 411.2 130.223 409.883 130.078C408.581 127.837 407.445 125.447 406.567 123.151C407.356 122.041 408.158 121.004 409.098 119.894C411.518 119.857 413.89 120.002 416.243 120.327C417.015 121.673 417.677 122.965 418.294 124.31C416.947 126.452 415.415 128.487 413.783 130.348ZM418.579 124.955C419.344 126.687 419.981 128.396 420.458 130.015C418.664 130.262 416.657 130.387 414.536 130.362C416.031 128.621 417.402 126.778 418.577 124.955H418.579ZM413.283 130.91C412.708 131.545 412.127 132.15 411.545 132.717C411.11 132.076 410.676 131.404 410.253 130.7C411.61 130.838 412.423 130.876 413.283 130.91ZM409.167 129.992C407.002 129.72 404.969 129.305 403.173 128.773C403.969 127.163 404.98 125.445 406.172 123.715C407.031 125.907 408.022 127.972 409.165 129.994L409.167 129.992ZM406.328 122.489C406.033 121.676 405.767 120.877 405.542 120.098C406.436 120.003 407.369 119.941 408.33 119.909C407.585 120.809 406.969 121.607 406.328 122.489ZM409.607 119.3C410.782 117.958 411.984 116.743 413.171 115.693C414.095 116.883 415.003 118.228 415.868 119.683C413.782 119.42 411.663 119.291 409.607 119.3ZM416.969 120.431C418.078 120.605 419.142 120.812 420.14 121.054C419.705 121.92 419.207 122.815 418.655 123.724C418.195 122.739 417.714 121.759 416.969 120.431ZM404.728 116.476C404.394 114.195 404.334 110.58 406.602 110.58C408.726 110.58 411.467 113.569 412.81 115.236C411.483 116.41 410.138 117.786 408.832 119.309C407.638 119.334 406.484 119.409 405.383 119.527C405.095 118.463 404.868 117.436 404.727 116.476H404.728ZM400.899 127.98C393.415 124.935 396.218 121.234 404.962 120.163C405.231 121.102 405.551 122.07 405.921 123.056C404.576 124.965 403.458 126.841 402.598 128.592C402.001 128.401 401.433 128.197 400.899 127.98ZM407.498 136.076C404.96 137.783 402.923 138.303 401.909 137.504C400.556 136.435 401.064 133.227 402.916 129.299C404.886 129.89 407.135 130.339 409.529 130.62C410.048 131.506 410.579 132.345 411.115 133.13C409.89 134.292 408.669 135.288 407.5 136.076H407.498ZM419.418 139.672C417.53 139.672 414.645 137.133 411.878 133.197C412.601 132.493 413.323 131.735 414.036 130.931C416.252 130.985 418.437 130.899 420.618 130.595C421.448 133.608 422.458 139.672 419.418 139.672ZM421.032 129.929C420.511 128.15 419.807 126.268 418.949 124.364C419.623 123.28 420.218 122.219 420.726 121.199C425.358 122.399 428.476 124.264 428.363 126.12C428.257 127.862 425.319 129.258 421.032 129.929Z" fill="black"/>
<path d="M404.188 116.793C404.998 116.793 405.654 116.13 405.654 115.311C405.654 114.493 404.998 113.83 404.188 113.83C403.379 113.83 402.723 114.493 402.723 115.311C402.723 116.13 403.379 116.793 404.188 116.793Z" fill="#F8D512"/>
<path d="M416.96 140.147C417.838 140.147 418.551 139.426 418.551 138.538C418.551 137.649 417.838 136.929 416.96 136.929C416.081 136.929 415.369 137.649 415.369 138.538C415.369 139.426 416.081 140.147 416.96 140.147Z" fill="#F8D512"/>
<path d="M421.546 119.658C422.52 119.658 423.309 118.86 423.309 117.876C423.309 116.892 422.52 116.094 421.546 116.094C420.573 116.094 419.784 116.892 419.784 117.876C419.784 118.86 420.573 119.658 421.546 119.658Z" fill="#87AB99"/>
<path d="M406.266 138.321C407.118 138.321 407.808 137.623 407.808 136.763C407.808 135.902 407.118 135.204 406.266 135.204C405.415 135.204 404.725 135.902 404.725 136.763C404.725 137.623 405.415 138.321 406.266 138.321Z" fill="#87AB99"/>
<path d="M92.5523 281.287C99.7845 266.051 93.1753 260.633 79.9856 271.883C69.2937 258.621 61.7686 262.698 66.2906 279.571C64.1775 279.835 62.2022 280.204 60.425 280.68C55.1537 282.091 52.1649 284.289 52.007 286.864C51.7543 290.96 58.4324 293.776 62.2998 295.027C54.8809 310.891 62.7075 315.858 77.0657 302.312C88.5385 318.613 97.9729 315.959 92.8767 297.28C109.687 294.609 109.71 285.79 92.5523 281.287ZM91.4125 266.837C92.2078 266.837 92.871 267.035 93.3792 267.433C95.61 269.195 94.7228 274.537 91.602 281.046C89.6783 280.578 87.6083 280.181 85.4177 279.87C83.873 277.213 82.2336 274.766 80.5684 272.621C83.2242 270.353 87.9442 266.837 91.4125 266.837ZM80.8527 297.013C78.751 296.955 76.6609 296.81 74.5248 296.575C72.4117 292.94 70.5685 289.061 69.1444 285.337C70.4249 283.537 71.7255 281.853 73.2501 280.053C77.1777 279.992 81.0249 280.227 84.8434 280.755C86.0952 282.939 87.169 285.035 88.171 287.218C85.9861 290.693 83.4998 293.994 80.8527 297.013ZM88.6333 288.263C89.8736 291.073 90.9072 293.846 91.6824 296.473C88.7711 296.874 85.5153 297.077 82.0729 297.036C84.4989 294.212 86.724 291.221 88.6304 288.263H88.6333ZM80.0401 297.925C79.107 298.955 78.1653 299.937 77.2207 300.857C76.5145 299.818 75.8111 298.726 75.1249 297.585C77.327 297.809 78.6448 297.87 80.0401 297.925ZM73.362 296.436C69.8507 295.994 66.5518 295.321 63.6377 294.458C64.9297 291.846 66.5691 289.059 68.5042 286.251C69.8966 289.808 71.5044 293.158 73.3591 296.438L73.362 296.436ZM68.7568 284.262C68.2773 282.944 67.8467 281.647 67.4821 280.384C68.932 280.23 70.445 280.128 72.004 280.076C70.7953 281.536 69.7961 282.831 68.7568 284.262ZM74.0769 279.089C75.9833 276.912 77.9328 274.94 79.8593 273.236C81.358 275.167 82.8308 277.35 84.2348 279.71C80.8498 279.283 77.4131 279.074 74.0769 279.089ZM86.0206 280.924C87.8208 281.205 89.5463 281.542 91.1656 281.934C90.4593 283.339 89.6525 284.791 88.7567 286.266C88.0102 284.669 87.2293 283.078 86.0206 280.924ZM66.1614 274.508C65.6187 270.806 65.5211 264.942 69.2018 264.942C72.6471 264.942 77.0944 269.79 79.2736 272.496C77.1203 274.4 74.9382 276.633 72.8194 279.103C70.8814 279.144 69.0095 279.266 67.2237 279.458C66.7557 277.73 66.3882 276.064 66.1585 274.508H66.1614ZM59.9484 293.172C47.8066 288.231 52.3544 282.227 66.5403 280.488C66.9767 282.012 67.4964 283.583 68.0965 285.183C65.9145 288.28 64.0999 291.323 62.7046 294.165C61.737 293.855 60.8154 293.524 59.9484 293.172ZM70.6546 306.306C66.5375 309.076 63.2329 309.921 61.5877 308.623C59.3914 306.89 60.2154 301.684 63.2214 295.312C66.4169 296.27 70.066 296.999 73.9506 297.455C74.7918 298.892 75.6531 300.253 76.5231 301.528C74.5363 303.412 72.5553 305.029 70.6575 306.306H70.6546ZM89.9942 312.142C86.9307 312.142 82.2509 308.022 77.7605 301.635C78.9348 300.494 80.1062 299.263 81.2632 297.96C84.8578 298.047 88.4036 297.907 91.9408 297.414C93.2873 302.303 94.9267 312.142 89.9942 312.142ZM92.6126 296.334C91.7685 293.448 90.6258 290.394 89.2333 287.305C90.3272 285.546 91.2919 283.824 92.1159 282.169C99.6324 284.117 104.691 287.142 104.507 290.153C104.335 292.981 99.5692 295.245 92.6126 296.334Z" fill="black"/>
<path d="M65.2855 275.021C66.5984 275.021 67.6628 273.945 67.6628 272.617C67.6628 271.29 66.5984 270.214 65.2855 270.214C63.9726 270.214 62.9083 271.29 62.9083 272.617C62.9083 273.945 63.9726 275.021 65.2855 275.021Z" fill="#F8D512"/>
<path d="M86.0068 312.911C87.4323 312.911 88.5879 311.743 88.5879 310.301C88.5879 308.86 87.4323 307.691 86.0068 307.691C84.5813 307.691 83.4257 308.86 83.4257 310.301C83.4257 311.743 84.5813 312.911 86.0068 312.911Z" fill="#F8D512"/>
<path d="M93.4472 279.67C95.0265 279.67 96.3068 278.375 96.3068 276.778C96.3068 275.181 95.0265 273.886 93.4472 273.886C91.8679 273.886 90.5876 275.181 90.5876 276.778C90.5876 278.375 91.8679 279.67 93.4472 279.67Z" fill="#87AB99"/>
<path d="M68.6573 309.949C70.0384 309.949 71.158 308.817 71.158 307.421C71.158 306.024 70.0384 304.892 68.6573 304.892C67.2762 304.892 66.1566 306.024 66.1566 307.421C66.1566 308.817 67.2762 309.949 68.6573 309.949Z" fill="#87AB99"/>
</svg>
