<?xml version="1.0" encoding="utf-8"?>
<!-- Generator: Adobe Illustrator 27.0.0, SVG Export Plug-In . SVG Version: 6.00 Build 0)  -->
<svg version="1.1" id="Layer_1" xmlns="http://www.w3.org/2000/svg" xmlns:xlink="http://www.w3.org/1999/xlink" x="0px" y="0px"
	 viewBox="0 0 1300 400" style="enable-background:new 0 0 1300 400;" xml:space="preserve">
<style type="text/css">
	.st0{fill:#FFFFFF;}
	.st1{clip-path:url(#SVGID_00000000943988623198721000000015413233424492489869_);fill:#FEFCEB;}
	.st2{clip-path:url(#SVGID_00000000943988623198721000000015413233424492489869_);fill:#A72D18;}
	.st3{clip-path:url(#SVGID_00000000943988623198721000000015413233424492489869_);}
	.st4{clip-path:url(#SVGID_00000091717155521883687540000010979796446196143498_);}
	.st5{clip-path:url(#SVGID_00000000943988623198721000000015413233424492489869_);fill:#FAEC39;}
	.st6{clip-path:url(#SVGID_00000000943988623198721000000015413233424492489869_);fill:#F8D512;}
	.st7{clip-path:url(#SVGID_00000000943988623198721000000015413233424492489869_);fill:#486758;}
	
		.st8{clip-path:url(#SVGID_00000000943988623198721000000015413233424492489869_);fill-rule:evenodd;clip-rule:evenodd;fill:#FFD7B1;}
	
		.st9{clip-path:url(#SVGID_00000000943988623198721000000015413233424492489869_);fill-rule:evenodd;clip-rule:evenodd;fill:#87AB99;}
	.st10{clip-path:url(#SVGID_00000000943988623198721000000015413233424492489869_);fill-rule:evenodd;clip-rule:evenodd;}
	.st11{clip-path:url(#SVGID_00000000943988623198721000000015413233424492489869_);fill:#FFEBF1;}
	.st12{clip-path:url(#SVGID_00000014626062673939160980000015227031913811160997_);fill:#18292D;}
	
		.st13{clip-path:url(#SVGID_00000000943988623198721000000015413233424492489869_);fill-rule:evenodd;clip-rule:evenodd;fill:#F8D512;}
	.st14{clip-path:url(#SVGID_00000149345515290679867890000006531108349475670202_);fill:#18292D;}
	.st15{clip-path:url(#SVGID_00000000943988623198721000000015413233424492489869_);fill:#CE4C7A;}
	.st16{clip-path:url(#SVGID_00000082333851953931113820000016842725720606900155_);}
	.st17{clip-path:url(#SVGID_00000000943988623198721000000015413233424492489869_);fill:#87AB99;}
</style>
<rect class="st0" width="1300" height="400"/>
<g>
	<defs>
		<rect id="SVGID_1_" width="1300" height="400"/>
	</defs>
	<clipPath id="SVGID_00000162349924421416516950000013094384392611653296_">
		<use xlink:href="#SVGID_1_"  style="overflow:visible;"/>
	</clipPath>
	<path style="clip-path:url(#SVGID_00000162349924421416516950000013094384392611653296_);fill:#FEFCEB;" d="M386,367
		c232.4-20.4,300.88-24.96,303.21-16.46C726.38,369.87,877.2,384.4,1032,360s149.71-100.79,146.71-144.96
		c-0.67-36.5-27.2-121.4-128-169s-232.67-33.5-286-20.5c-57.5,16.33-238.51,22.8-413.71,0c-175.2-22.8-217.79,78-228.29,121
		C115.55,223.04,153.6,387.4,386,367z"/>
	<path style="clip-path:url(#SVGID_00000162349924421416516950000013094384392611653296_);fill:#A72D18;" d="M785.48,296.05
		l-29.96-17.94c-61.64,7.44-101.48,29.08-101.48,29.08s-20.72-21.26-91.22-38.12l-47.73,18.74c1.02-7.83,2.21-14.69,3.65-18.74
		c8.69-24.74,25.82-41.2,49.21-51.1c41.95-17.8,46.41-15.08,51.78-16.52c3.3-0.89,5.95,0.21,5.55,3.7
		c-0.09,0.92-0.37,1.88-0.57,2.79c-1.15,4.92,0.09,11.32,4.55,14.06c10.74,6.62,22.05,8.12,32.08,0.47
		c2.67-2.03,5.82-2.97,4.35-10.32c-0.35-1.72-1.05-3.59-0.26-5.17c0.67-1.45,2.6-2.11,4.16-2.38c6.64-1.24,9.15,0.47,12.22,0.71
		c11.87,0.88,25.13,3.75,36.49,6.98c13.54,3.87,24.37,9.53,36.22,16.63c9.88,5.92,15.4,15.62,20.32,26.03
		C781.01,268.05,784.56,281.93,785.48,296.05L785.48,296.05z"/>
	<g style="clip-path:url(#SVGID_00000162349924421416516950000013094384392611653296_);">
		<defs>
			<path id="SVGID_00000161619180250584870280000009356532226271008396_" d="M785.48,296.05l-29.96-17.94
				c-61.64,7.44-101.48,29.08-101.48,29.08s-20.72-21.26-91.22-38.12l-47.73,18.74c1.02-7.83,2.21-14.69,3.65-18.74
				c8.69-24.74,25.82-41.2,49.21-51.1c41.95-17.8,46.41-15.08,51.78-16.52c3.3-0.89,5.95,0.21,5.55,3.7
				c-0.09,0.92-0.37,1.88-0.57,2.79c-1.15,4.92,0.09,11.32,4.55,14.06c10.74,6.62,22.05,8.12,32.08,0.47
				c2.67-2.03,5.82-2.97,4.35-10.32c-0.35-1.72-1.05-3.59-0.26-5.17c0.67-1.45,2.6-2.11,4.16-2.38c6.64-1.24,9.15,0.47,12.22,0.71
				c11.87,0.88,25.13,3.75,36.49,6.98c13.54,3.87,24.37,9.53,36.22,16.63c9.88,5.92,15.4,15.62,20.32,26.03
				C781.01,268.05,784.56,281.93,785.48,296.05L785.48,296.05z"/>
		</defs>
		<clipPath id="SVGID_00000003794238931888585310000003946173952087691183_">
			<use xlink:href="#SVGID_00000161619180250584870280000009356532226271008396_"  style="overflow:visible;"/>
		</clipPath>
		<path style="clip-path:url(#SVGID_00000003794238931888585310000003946173952087691183_);" d="M784.07,294.63L784.07,294.63
			l2.82,2.84l0.01-0.01L784.07,294.63z M773.02,255.8c6.07,12.88,9.56,26.51,10.48,40.38l3.99-0.26
			c-0.95-14.37-4.56-28.49-10.85-41.82L773.02,255.8z M753.48,230.63c9.32,5.59,14.63,14.79,19.54,25.17l3.62-1.71
			c-4.93-10.44-10.66-20.64-21.1-26.89L753.48,230.63z M717.74,214.21c13.3,3.8,23.96,9.36,35.74,16.43l2.06-3.43
			c-11.91-7.14-22.91-12.91-36.7-16.84L717.74,214.21z M681.65,207.3c11.69,0.86,24.8,3.7,36.09,6.91l1.09-3.85
			c-11.44-3.25-24.84-6.16-36.89-7.05L681.65,207.3z M669.94,206.56c6.37-1.19,7.75,0.43,11.7,0.74l0.31-3.99
			c-2.19-0.17-5.83-1.97-12.74-0.68L669.94,206.56z M667.23,207.82c0.07-0.16,0.28-0.41,0.82-0.68c0.53-0.26,1.19-0.45,1.86-0.57
			l-0.68-3.94c-0.9,0.15-1.98,0.43-2.97,0.93c-0.98,0.49-2.07,1.29-2.67,2.59L667.23,207.82z M667.64,211.75
			c-0.23-1.11-0.42-1.69-0.53-2.51c-0.1-0.7-0.03-1.1,0.1-1.37l-3.58-1.78c-0.65,1.3-0.63,2.63-0.48,3.69
			c0.13,0.94,0.45,2.16,0.58,2.77L667.64,211.75z M662.54,224.06c0.29-0.22,0.6-0.44,0.94-0.67c0.33-0.23,0.7-0.48,1.07-0.76
			c0.73-0.55,1.53-1.25,2.18-2.22c1.35-2.03,1.7-4.72,0.91-8.66l-3.92,0.79c0.69,3.41,0.2,4.86-0.32,5.65
			c-0.29,0.44-0.69,0.82-1.25,1.24c-0.29,0.21-0.59,0.42-0.93,0.66c-0.34,0.23-0.71,0.49-1.09,0.78L662.54,224.06z M628.2,223.7
			c11.17,6.88,23.43,8.69,34.34,0.36l-2.43-3.18c-9.14,6.98-19.5,5.77-29.82-0.59L628.2,223.7z M622.75,207.48
			c-0.65,2.78-0.62,5.95,0.19,8.85c0.82,2.9,2.49,5.67,5.26,7.37l2.09-3.41c-1.69-1.04-2.87-2.83-3.5-5.05
			c-0.63-2.22-0.65-4.71-0.15-6.85L622.75,207.48z M623.28,204.95c-0.07,0.76-0.29,1.44-0.53,2.55l3.9,0.87
			c0.16-0.72,0.51-1.95,0.61-3.04L623.28,204.95z M620.25,203.38c1.4-0.38,2.26-0.21,2.63,0c0.15,0.09,0.25,0.19,0.32,0.37
			c0.08,0.19,0.16,0.55,0.09,1.17l3.97,0.45c0.26-2.31-0.48-4.34-2.36-5.44c-1.68-0.98-3.79-0.92-5.69-0.41L620.25,203.38z
			 M568.73,219.81c20.93-8.88,32.42-12.6,39.3-14.29c3.42-0.84,5.72-1.18,7.48-1.4c1.71-0.21,3.21-0.33,4.73-0.74l-1.04-3.86
			c-1.17,0.31-2.24,0.39-4.18,0.63c-1.89,0.23-4.34,0.6-7.95,1.48c-7.18,1.76-18.89,5.58-39.91,14.49L568.73,219.81z M520.62,269.73
			c8.48-24.15,25.17-40.21,48.11-49.92l-1.56-3.68c-23.85,10.1-41.42,26.95-50.32,52.28L520.62,269.73z M517.07,288.06
			c1.02-7.85,2.19-14.51,3.55-18.33l-3.77-1.34c-1.53,4.28-2.73,11.34-3.75,19.15L517.07,288.06z M562.09,267.21l-47.73,18.74
			l1.46,3.72l47.73-18.74L562.09,267.21z M654.04,307.19c1.43-1.4,1.43-1.4,1.43-1.4c0,0,0,0,0,0c0,0,0,0-0.01-0.01
			c0-0.01-0.01-0.01-0.02-0.02c-0.02-0.02-0.04-0.04-0.06-0.06c-0.05-0.05-0.12-0.12-0.22-0.21c-0.19-0.18-0.47-0.43-0.84-0.76
			c-0.74-0.65-1.87-1.58-3.43-2.74c-3.13-2.32-8.01-5.56-15.09-9.31c-14.16-7.51-37.13-17.1-72.52-25.56l-0.93,3.89
			c35.11,8.39,57.75,17.87,71.58,25.2c6.91,3.67,11.62,6.8,14.58,8.99c1.48,1.1,2.52,1.96,3.19,2.54c0.33,0.29,0.57,0.51,0.72,0.65
			c0.07,0.07,0.13,0.12,0.16,0.15c0.02,0.02,0.03,0.03,0.03,0.03c0,0,0,0,0,0c0,0,0,0,0,0c0,0,0,0,0,0
			C652.61,308.59,652.61,308.58,654.04,307.19z M755.28,276.13c-31,3.74-56.52,11.05-74.29,17.43c-8.89,3.19-15.85,6.15-20.59,8.32
			c-2.37,1.08-4.19,1.97-5.42,2.58c-0.62,0.31-1.08,0.55-1.4,0.71c-0.16,0.08-0.28,0.15-0.36,0.19c-0.04,0.02-0.07,0.04-0.09,0.05
			c-0.01,0.01-0.02,0.01-0.03,0.01c0,0-0.01,0-0.01,0c0,0,0,0,0,0c0,0,0,0,0.95,1.76c0.95,1.76,0.95,1.76,0.95,1.76c0,0,0,0,0,0
			c0,0,0,0,0,0c0,0,0.01-0.01,0.02-0.01c0.02-0.01,0.04-0.02,0.08-0.04c0.07-0.04,0.18-0.1,0.33-0.17c0.3-0.16,0.75-0.39,1.34-0.68
			c1.19-0.6,2.96-1.46,5.29-2.52c4.65-2.12,11.51-5.04,20.28-8.19c17.55-6.3,42.78-13.53,73.42-17.22L755.28,276.13z M786.51,294.34
			l-29.96-17.94l-2.06,3.43l29.96,17.94L786.51,294.34z M785.49,296.05l1.41,1.41l0.64-0.64l-0.06-0.9L785.49,296.05z
			 M774.82,254.94l1.81-0.85l0,0L774.82,254.94z M754.51,228.92l-1.03,1.72l0,0L754.51,228.92z M718.29,212.28l0.55-1.92l0,0
			L718.29,212.28z M681.8,205.31l-0.15,1.99l0.01,0L681.8,205.31z M669.58,204.6l0.34,1.97l0.01,0l0.01,0L669.58,204.6z
			 M665.41,206.98l1.79,0.89l0.01-0.03l0.01-0.03L665.41,206.98z M665.68,212.15l1.96-0.39l0-0.01L665.68,212.15z M661.33,222.47
			l-1.21-1.59l0,0L661.33,222.47z M629.25,221.99l1.05-1.7l0,0L629.25,221.99z M624.7,207.94l1.95,0.45l0-0.01l0-0.01L624.7,207.94z
			 M625.28,205.14l-1.99-0.23l0,0.02l0,0.02L625.28,205.14z M619.73,201.45l0.52,1.93l0,0L619.73,201.45z M567.95,217.96l0.78,1.84
			l0,0L567.95,217.96z M518.74,269.07l1.88,0.67l0-0.01L518.74,269.07z M515.09,287.81l-1.98-0.26l-0.44,3.36l3.15-1.24
			L515.09,287.81z M562.82,269.07l0.47-1.95l-0.61-0.15l-0.58,0.23L562.82,269.07z M654.04,307.19l-1.43,1.4l1.06,1.08l1.33-0.72
			L654.04,307.19z M755.52,278.11l1.03-1.72l-0.59-0.35l-0.68,0.08L755.52,278.11z M785.48,296.05l-1.03,1.72l1.34,0.8l1.1-1.1
			L785.48,296.05z"/>
	</g>
	<path style="clip-path:url(#SVGID_00000162349924421416516950000013094384392611653296_);fill:#FAEC39;" d="M497.95,323.65
		l11.8,3.34c-1.79,2.71-3.12,6.03-4.17,8.97c-13.54-3.81-22.59-6.44-22.59-6.71c0-1.03,19.98-21.34,20.62-21.97l-6.06,15.55
		c-0.13,0.34,0.06,0.72,0.41,0.82H497.95z"/>
	<path style="clip-path:url(#SVGID_00000162349924421416516950000013094384392611653296_);fill:#F8D512;" d="M718.89,358.84
		l-66.95,10.14c0,0-10.53,13.22-25.75,0c0,0-23.38-6.32-51.24-13.92c0.92-3.93,1.03-7.23,0.76-9.44l59.56,16.75l82.95-12.32
		C718.05,352.92,718.42,356.03,718.89,358.84L718.89,358.84z"/>
	<path style="clip-path:url(#SVGID_00000162349924421416516950000013094384392611653296_);fill:#FAEC39;" d="M817,343.96
		l-26.85,4.07c-0.51-2.9-1.14-5.71-2.15-8.41l11.67-1.96v-11.27L817,343.96z"/>
	<path style="clip-path:url(#SVGID_00000162349924421416516950000013094384392611653296_);fill:#486758;" d="M498.96,322.58
		l13.11-33.64c13.87,4.94,49.6,17.33,81.53,27.37c31.93,10.03,42.95,27.75,44.47,35.35c6.39-24.63,109.85-41.43,160.78-46.75v31.93
		l-10.83,1.71l-3.99-6.27c-10.03-7.75-13.3,0.57-13.68,5.7c-1.82-7.3-6.46-11.02-8.55-11.97c-10.03-5.02-11.78,5.89-11.4,11.97
		l-5.13-5.7c-10.03-5.93-12.16,5.51-11.97,11.97c-10.49-9.58-14.25-0.57-14.82,5.13l-83.24,11.97l-59.29-16.53l-1.14-2.28
		c-4.1-9.12-11.21-4.18-14.25-0.57c1.14-3.04,1.94-10.49-3.99-15.96c-5.93-5.47-11.21,2.28-13.11,6.84l-1.71-7.98
		c-5.47-9.12-12.92-0.76-15.96,4.56c-4.1-12.77-12.35-7.22-15.96-2.85L498.96,322.58z"/>
	
		<path style="clip-path:url(#SVGID_00000162349924421416516950000013094384392611653296_);fill-rule:evenodd;clip-rule:evenodd;fill:#FFD7B1;" d="
		M792.36,360.56l-5.29-24.32c-9.55-12.94-16.22-5.31-16.85,1.14l-3.86-7.38c-11.87-11.67-17.52-0.28-15.96,8.55l-4.56-6.27
		c-13.26-5.04-11.58,7.23-10.95,15.22c-1.45-4.8-8.3-11.88-14.13-4.95c-5.63,6.69-0.61,23.22,1.71,32.5
		c7.47,9.31,12.74,6.45,15.96,1.14c10.93,9.76,17.46-3.76,15.96-6.59c7.68,11.81,17.66,4.87,19.95-1.96
		C785.59,376.09,792.69,368.62,792.36,360.56z M501.24,349.95l8.55-23.38c10.03-10.95,15.2-2.28,16.53,3.42l3.42-6.84
		c11.4-7.3,13.87,3.42,13.68,9.69l5.13-7.98c14.6-3.65,13.68,11.78,11.4,19.95c2.09-4.56,7.75-11.97,13.68-5.13
		c5.93,6.84-1.71,27.18-6.27,36.49c-8.67,8.21-15.77-1.14-18.24-6.84c-10.03,10.03-16.34,0.76-18.24-5.13
		c-8.21,7.75-14.82,0.95-17.1-3.42C502.84,363.52,500.86,354.7,501.24,349.95z"/>
	
		<path style="clip-path:url(#SVGID_00000162349924421416516950000013094384392611653296_);fill-rule:evenodd;clip-rule:evenodd;fill:#87AB99;" d="
		M616.41,326.57c-5.47-5.02-71.46-27.18-103.76-37.63l49.6-20.52c52.91,10.95,83.24,29.65,91.79,37.63
		c26.45-15.51,78.68-26.23,101.48-29.65l42.76,28.51c-19.16,0-76.4,11.78-102.62,17.67c-36.94,7.3-54.16,22.43-58.15,29.08
		C635.22,339.34,622.49,329.8,616.41,326.57z"/>
	
		<path style="clip-path:url(#SVGID_00000162349924421416516950000013094384392611653296_);fill-rule:evenodd;clip-rule:evenodd;" d="
		M788.31,337.47c-2.53-5.8-6.79-10.8-12.89-9.17c-3.38,0.92-5.23,2.83-5.65,6.19c-0.63-1.74-1.38-3.29-2.42-4.79
		c-4.87-7.06-13.3-6.78-16.5-2.25c-1.42,2.02-1.67,4.6-1.54,7.05c-2.77-3.56-7.21-6.08-11.36-4.26c-2.44,1.07-4.26,3.57-4.9,6.71
		c-0.26,1.36-0.31,2.94-0.24,4.31c-4.16-4.5-14.02-3.23-15.49,6.73l-81.91,12.15l-58.91-16.55c-1.09-4.95-4.58-7.47-9.02-7.47
		c-2.25,0-4.02,1.11-5.36,2.94c0.81-5.03,0.18-10.31-3.7-13.68c-3.47-3.02-8.14-3.4-11.38-0.31c-1.14,1.09-2.04,2.52-2.74,3.93
		c-1.3-8.81-8.28-11.59-13.67-7.48c-1.77,1.36-3.02,3.23-4.02,5.24c-0.49-2.08-1.97-4.11-4.4-5.3c-4.14-2.02-8.64-1.19-12.29,3.41
		l-9.87-2.77l12.74-31.77c84.85,28.63,78.72,26.24,87.19,29.66c16.27,6.57,32.81,15.26,36.53,32.42c0.24,1.09,1.72,1,2.12,0.11
		c9.76-27.99,129.59-43.43,159.05-46.73v30.27l-9.36,1.39L788.31,337.47z M791.39,362.61c0.49,3.74-2.97,6.96-6.51,7.62
		c-3.72,0.69-7.79-0.94-9.99-3.99c-0.13-1.1-2.6-20.67-2.81-25.16c-0.43-6.46-0.7-9.22,3.63-10.57
		c7.88-2.46,12.28,10.14,13.48,18.33C789.19,348.84,790.72,357.47,791.39,362.61z M765.9,374.8c-3.43,0.93-7.44-0.71-9.75-3.99
		c-0.09-0.13-0.2-0.22-0.33-0.3c-3.48-32.44-5.86-37.95-3.17-41.8c1.94-2.74,6.13-2.86,8.9-1.4c4.91,2.56,6.7,8.7,7.87,14.14
		c0.03,0.22,0.62,1.54,3.31,25.17C772.39,370.37,769.53,373.8,765.9,374.8L765.9,374.8z M748.01,378.07
		c-2.77,0.91-6.07,0.26-8.32-1.61c-3.77-29.98-5.35-34.67-4.49-39.08c0.82-4.06,4.01-6.66,7.91-5.1c2.7,1.08,5.7,4.14,6.8,8.37
		c0.25,1.02,3.69,29.66,3.91,31.76C752.97,374.75,750.67,377.2,748.01,378.07L748.01,378.07z M728.55,379.18
		c-6.28-2.04-6.72-10.37-8-17.25c-1.44-7.82-3.25-18.68,4.5-20.72c3.22-0.86,6.28,0.58,7.26,3.39c0.81,2.31,1.28,4.32,1.65,6.42
		c0.03,0.15,2.71,19.02,3.55,25.77C735.29,379.16,731.62,380.17,728.55,379.18L728.55,379.18z M573.89,354.81
		c-1.06,4.49-5.05,15.11-6.78,19.38c-1.42,3.5-6.02,4.59-9.42,3.43c-3.57-1.22-6.32-4.65-6.74-8.39c3.47-8.1,7.75-19.52,11.85-27.04
		c1-2,2.54-4.02,4.75-3.86C575.33,338.44,575.64,347.29,573.89,354.81L573.89,354.81z M538.91,372.25
		c-3.45-0.88-6.14-4.27-6.53-8.27c0-0.05-0.03-0.09-0.03-0.14c1.26-4.38,10.76-25.66,11.57-28.56c1.66-3.74,3.12-8.21,6.16-9.66
		c2.75-1.3,6.58,0.28,8.44,3.16c3.64,5.61,0.82,13.37-1.25,19.74c-2.85,6.28-5.74,13.77-8.39,19.98c-2.14,3.1-6.3,4.68-9.96,3.75
		V372.25z M521.75,366.31c-2.92-0.6-5.43-2.75-6.46-5.52c2.96-7.16,9.35-23.48,9.6-24.18c1.92-4.78,3.67-9.62,5.76-12.05
		c1.58-1.84,3.74-2.87,5.65-2.67c5.22,0.53,7.02,8.5,5.42,13.08c-0.43,1.58,0.87-2.09-12.11,29.21
		C527.46,365.97,524.33,366.83,521.75,366.31L521.75,366.31z M504.24,357.69c-3.82-4.18-1.61-10.26,0.35-15.63
		c3.05-8.39,6.63-21.42,15.29-19.14c3.66,0.96,5.41,4.14,4.51,7.17c-0.03,0.15-0.34,2.2-1.55,5.65c-0.05,0.15-6.46,16.6-9.62,24.27
		C510.13,361,506.43,360.06,504.24,357.69L504.24,357.69z M563.49,269.72c63.2,15.15,86.03,33.58,89.57,36.72l-15.34,42.16
		c-5.44-16.12-21.17-24.27-36.93-30.62c-12.44-5.03-16.51-5.58-85.45-29.09L563.49,269.72L563.49,269.72z M795.56,303.83
		c-33.89,3.78-129.52,16.92-154,40.63c1.13-3.09,11.79-32.4,13.66-37.56c4.07-2.15,42.69-21.92,100.13-28.92L795.56,303.83
		L795.56,303.83z M799.37,303.66l-43.15-27.74c-0.22-0.13-0.47-0.2-0.72-0.17c-56.76,6.85-95.4,26.13-100.96,29.03
		c-3.83-3.48-26.39-21.88-90.86-37.3c-0.22-0.05-0.45-0.03-0.66,0.05c-54.92,21.87-51.09,20.32-51.39,20.49
		c-0.22,0.12-0.4,0.33-0.48,0.53l-13.58,33.88c-0.24,0.61,0.1,1.29,0.72,1.46l10.32,2.9c-2.79,4.42-4.26,9.58-6.06,14.52
		c-2.06,5.66-4.63,12.7,0.09,17.86c2.71,2.94,7.04,4.12,10.87,3.08c1.44,3.12,4.4,5.51,7.81,6.21c2.89,0.57,6.32-0.22,8.9-2
		c0.02,0,0.04,0.01,0.05,0.01c0.13,0,0.24-0.03,0.36-0.07c2.52,8.83,12.48,10.8,18.57,5.03c1.43,4.8,5.85,8.82,11.28,8.82
		c3.56,0,7.21-1.67,8.66-5.25c1.79-4.4,5.8-15.08,6.89-19.7c0.88-3.79,1.05-6.92,0.82-9.33l58.2,16.34c0.15,0.04,0.3,0.05,0.46,0.03
		l81.62-12.11c-0.2,4.02,0.54,8.17,1.27,12.09c1.44,7.73,2,16.5,9.48,18.93c3.81,1.23,8.17,0.11,10.99-2.67
		c5.41,3.89,13.28,2.29,16.63-4.58c0.12-0.06,0.22-0.15,0.31-0.25c2.89,2.85,7.02,4.14,10.68,3.14c3.76-1.03,6.82-4.18,7.97-7.9
		c2.31,2.23,5.52,3.56,8.74,3.56c5.72,0,11.11-4.65,10.39-10.26c-0.66-5.08-1.34-8.94-2.07-13.02c-0.13-0.7-0.81-5.45-2.36-9.74
		l9.79-1.45c0.54-0.08,0.94-0.54,0.94-1.09c0-0.15-0.01-32.62-0.01-32.47c-0.01-0.36-0.22-0.72-0.5-0.89L799.37,303.66z"/>
	
		<path style="clip-path:url(#SVGID_00000162349924421416516950000013094384392611653296_);fill-rule:evenodd;clip-rule:evenodd;fill:#FFD7B1;" d="
		M565.67,107.07c9.12-15.51,22.05-8.36,27.37-2.85c-1.14-9.69,4.56-20.52,23.38-25.66c15.05-4.1,27.18-17.29,31.36-23.38
		c15.39,15.39,22.24,12.54,38.77,20.52c13.23,6.39,16.15,16.72,15.96,21.09l5.7-7.41c15.51-11.86,21.66,0,22.81,7.41
		c0,17.33-16.34,22.81-24.52,23.38c-6.84,46.07-31.74,64.04-43.33,67.28l3.99,30.22c-17.79,18.24-35.92,7.6-42.76,0l4.56-31.93
		c-22.81-10.49-34.59-42.38-37.63-57.01C583.91,136.72,554.27,126.46,565.67,107.07z"/>
	
		<path style="clip-path:url(#SVGID_00000162349924421416516950000013094384392611653296_);fill-rule:evenodd;clip-rule:evenodd;" d="
		M597.29,65.49c14.06-4.39,25.99-14.41,32.74-27.5c0.1-0.21,0.28-0.37,0.47-0.46v-0.01c0.94-0.49,1.96,0.54,1.47,1.47
		c-6.35,12.71-18.77,23.83-34.02,28.59c-0.57,0.16-1.19-0.11-1.37-0.71C596.41,66.29,596.73,65.67,597.29,65.49z M656.24,38.83
		c0.47-0.37,1.15-0.31,1.55,0.13c7.19,8.54,17.65,14.06,28.75,15.19c0.6,0.06,1.05,0.59,0.99,1.19c-0.06,0.56-0.53,0.99-1.09,0.99
		c-0.16-0.05-17.61-0.86-30.33-15.95C655.72,39.92,655.78,39.23,656.24,38.83L656.24,38.83z M700.91,97.41
		c-0.07,1.11,1.39,1.6,2.02,0.65c0.95-1.48,5.53-7.09,6.76-8.45c8.29-7.53,17.9-3.56,20.33,5.32c1.3,12.71-9.99,23.86-23.03,23.42
		c-0.51-0.01-1.02,0.36-1.11,0.9c-2.62,14.54-9.76,36.79-20.23,49.46c-19.61,23.64-46.8,27.96-70.28,2.59
		c-15.4-16.62-18.37-28.24-22.73-43.19c-0.15-0.51-0.63-0.83-1.15-0.79c-5.92,0.54-11.76,2.31-18.69-0.72
		c-5.89-3.8-8.73-11.82-6.32-18.29c4.16-11.21,17.42-11.67,25.46-3.07c0.11,0.13,0.26,0.21,0.4,0.27c0.82,0.61,1.94-0.13,1.73-1.11
		c-0.11-0.5-0.19-1.01-0.28-1.52c0.03-4.87,2.43-10.02,6.64-14.06c8.8-8.39,21.9-10.28,32.67-16.4c5.33-3.05,10.7-8.95,14.64-15.71
		c8.8,8.41,10.16,9.64,24.31,14.29c5.2,1.72,10.57,3.52,15.34,6.23C694.2,81.11,701.36,88.42,700.91,97.41L700.91,97.41z
		 M521.27,262.7c9.31-21.2,25.11-35.6,46.68-44.73c41.92-17.79,46.43-15.08,51.78-16.52c1.98-0.53,4.29-0.47,5.22,1.35l-1.73,12.56
		c-0.09,0.66,0.42,1.25,1.09,1.25c0.54,0,1.01-0.4,1.09-0.95c5.44-39.56,3.95-27.79,4.13-30.04c10.45,5.75,21.73,6.58,32.85,2.75
		c1.3,4.23,0.85,5.74,3.37,29.41c0.05,0.57,0.53,0.99,1.09,0.99c0.65,0,1.16-0.56,1.09-1.21l-1.18-11.96
		c0.82-0.52,1.84-0.83,2.83-1.01c6.65-1.25,9.14,0.47,12.22,0.71c11.87,0.88,25.13,3.75,36.49,6.98
		c9.17,2.62,17.24,6.13,25.22,10.36c-4.01-13.53-14.65-22.86-17.92-35.73c-4.51-18.07,7.02-36.3,11.88-53.59
		c11.73-42.22-13.72-98.89-75.11-112.58c-7.21-1.57-15.24-2.93-21.86-0.19h-0.01c-8.77-2.3-16.59-0.16-24.99,3.43
		c-20.32,8.67-38.27,22.98-51.93,41.4c-9.38,12.65-20.49,29.64-23.2,48.79c-1.13,8.1-0.4,16.44-0.19,23.96
		c0.67,22.09-18.19,37.86-27.57,56C501.9,214.85,500.09,253.99,521.27,262.7L521.27,262.7z"/>
	<path style="clip-path:url(#SVGID_00000162349924421416516950000013094384392611653296_);" d="M652.72,139.3
		c0.07-0.6-0.36-1.15-0.96-1.22l-8.56-1.03c-1.23-0.15-2.03-1.38-1.67-2.56l6.38-20.59c0.18-0.58-0.14-1.19-0.72-1.37
		c-0.58-0.19-1.19,0.14-1.38,0.72l-6.38,20.59c-0.78,2.5,0.91,5.09,3.5,5.39l8.56,1.03C652.09,140.34,652.65,139.91,652.72,139.3z"
		/>
	<path style="clip-path:url(#SVGID_00000162349924421416516950000013094384392611653296_);" d="M710.74,103.92
		c3.93-1.54,7.36-4.53,9.39-8.24c0.29-0.53,0.09-1.2-0.43-1.49c-0.53-0.29-1.2-0.1-1.49,0.43c-1.79,3.25-4.8,5.9-8.26,7.25
		C708.6,102.39,709.38,104.45,710.74,103.92L710.74,103.92z"/>
	<path style="clip-path:url(#SVGID_00000162349924421416516950000013094384392611653296_);" d="M586.98,114.98
		c-3.86-0.48-7.56-2.62-9.91-5.73c-0.36-0.49-1.05-0.57-1.54-0.22c-0.49,0.36-0.58,1.05-0.22,1.54c2.73,3.62,6.89,6.02,11.39,6.58
		c0.6,0.07,1.15-0.35,1.23-0.95C588.01,115.6,587.58,115.05,586.98,114.98L586.98,114.98z"/>
	<path style="clip-path:url(#SVGID_00000162349924421416516950000013094384392611653296_);" d="M667.49,146.48
		c-0.53-0.3-1.19-0.13-1.5,0.4c-3.87,6.7-12.02,9.68-19.27,7.07c-0.57-0.2-1.2,0.09-1.4,0.66c-0.2,0.57,0.09,1.2,0.66,1.4
		c8.2,2.94,17.48-0.36,21.92-8.04C668.2,147.45,668.02,146.78,667.49,146.48z"/>
	<path style="clip-path:url(#SVGID_00000162349924421416516950000013094384392611653296_);" d="M666.24,96.65
		c4.2-5.1,11.69-5.97,16.95-1.98c0.49,0.37,1.17,0.28,1.54-0.21c0.36-0.49,0.27-1.17-0.21-1.54c-6.19-4.71-15.03-3.68-19.97,2.33
		c-0.38,0.47-0.32,1.16,0.15,1.55C665.17,97.18,665.86,97.11,666.24,96.65z"/>
	<path style="clip-path:url(#SVGID_00000162349924421416516950000013094384392611653296_);" d="M628.46,95.81
		c0.49,0.37,1.17,0.28,1.54-0.21c0.36-0.49,0.27-1.17-0.21-1.54c-6.13-4.66-14.99-3.73-19.97,2.33c-0.38,0.47-0.32,1.16,0.15,1.55
		c0.47,0.38,1.16,0.32,1.55-0.15C615.71,92.68,623.21,91.81,628.46,95.81z"/>
	<circle style="clip-path:url(#SVGID_00000162349924421416516950000013094384392611653296_);" cx="620.97" cy="100.23" r="4.56"/>
	<circle style="clip-path:url(#SVGID_00000162349924421416516950000013094384392611653296_);" cx="675.7" cy="100.23" r="4.56"/>
	<path style="clip-path:url(#SVGID_00000162349924421416516950000013094384392611653296_);" d="M984.33,157.04
		c0.55,0.2,1.14,0.34,1.77,0.41l-0.2,1.99c-0.81-0.08-1.55-0.26-2.25-0.52L984.33,157.04z M979.34,153.88
		c0.29,0.21,0.57,0.42,0.85,0.63c0.28,0.21,0.55,0.41,0.81,0.6l-1.18,1.61c-0.28-0.2-0.55-0.41-0.83-0.62
		c-0.28-0.21-0.55-0.41-0.83-0.62L979.34,153.88z M977.26,152.4c0.7,0.48,1.4,0.97,2.08,1.47l-1.18,1.62
		c-0.67-0.49-1.35-0.97-2.04-1.44L977.26,152.4z M968.59,147.07c1.48,0.82,2.95,1.68,4.39,2.56l-1.04,1.71
		c-1.42-0.87-2.86-1.71-4.32-2.52L968.59,147.07z M959.58,142.41c1.52,0.74,3.03,1.49,4.53,2.27l-0.92,1.78
		c-1.49-0.77-2.99-1.51-4.49-2.25L959.58,142.41z M952.73,139.16c0.76,0.36,1.52,0.71,2.29,1.07l-0.85,1.81
		c-0.76-0.36-1.52-0.71-2.28-1.07L952.73,139.16z M950.09,137.95c0.88,0.39,1.76,0.8,2.64,1.21l-0.85,1.81
		c-0.87-0.41-1.74-0.8-2.61-1.19L950.09,137.95z M939.32,133.59c1.81,0.66,3.62,1.35,5.42,2.08l-0.75,1.85
		c-1.78-0.72-3.57-1.41-5.36-2.06L939.32,133.59z M928.25,130.05c1.86,0.52,3.72,1.07,5.57,1.66l-0.61,1.9
		c-1.83-0.59-3.66-1.13-5.49-1.64L928.25,130.05z M916.92,127.41c1.9,0.36,3.8,0.76,5.69,1.2l-0.45,1.95
		c-1.86-0.44-3.73-0.83-5.61-1.18L916.92,127.41z M905.41,125.74c1.93,0.19,3.85,0.43,5.78,0.7l-0.29,1.98
		c-1.89-0.27-3.79-0.51-5.69-0.69L905.41,125.74z M893.79,125.11c1.94,0.02,3.88,0.08,5.82,0.18l-0.11,2
		c-1.9-0.1-3.81-0.16-5.73-0.18L893.79,125.11z M882.17,125.54c1.94-0.16,3.88-0.28,5.81-0.35l0.07,2c-1.9,0.07-3.81,0.18-5.72,0.34
		L882.17,125.54z M870.63,127.02c1.92-0.33,3.84-0.62,5.75-0.87l0.25,1.98c-1.88,0.24-3.77,0.53-5.66,0.86L870.63,127.02z
		 M862.08,128.8c0.95-0.23,1.89-0.45,2.83-0.65l0.43,1.95c-0.93,0.2-1.86,0.42-2.79,0.65L862.08,128.8z M859.23,129.54
		c0.97-0.27,1.92-0.52,2.85-0.74l0.47,1.94c-0.91,0.22-1.84,0.46-2.79,0.73L859.23,129.54z M848.07,133.35
		c1.86-0.75,3.71-1.44,5.53-2.06l0.65,1.89c-1.78,0.61-3.6,1.28-5.43,2.02L848.07,133.35z M837.39,138.35
		c1.74-0.94,3.51-1.82,5.27-2.65l0.85,1.81c-1.73,0.81-3.46,1.68-5.17,2.6L837.39,138.35z M827.36,144.58
		c1.59-1.15,3.24-2.24,4.92-3.28l1.05,1.7c-1.64,1.02-3.25,2.09-4.8,3.2L827.36,144.58z M818.35,152.27
		c1.37-1.4,2.83-2.75,4.35-4.04l1.29,1.53c-1.48,1.25-2.89,2.56-4.21,3.91L818.35,152.27z M811.09,161.7
		c0.99-1.71,2.11-3.36,3.34-4.95l1.58,1.23c-1.18,1.52-2.25,3.1-3.19,4.72L811.09,161.7z M806.89,172.9
		c0.36-1.99,0.91-3.92,1.62-5.79l1.87,0.71c-0.67,1.76-1.18,3.58-1.52,5.44L806.89,172.9z M806.54,181.91
		c-0.1-1.02-0.16-2.02-0.17-3.01l2-0.02c0.01,0.93,0.06,1.87,0.16,2.83L806.54,181.91z M806.95,184.93
		c-0.16-0.97-0.3-1.97-0.41-3.01l1.99-0.2c0.1,1,0.23,1.96,0.39,2.89L806.95,184.93z M811.16,196.36c-1.08-1.62-1.99-3.46-2.72-5.53
		l1.89-0.67c0.68,1.93,1.52,3.62,2.5,5.09L811.16,196.36z M820.74,204.05c-1.96-0.77-3.76-1.79-5.39-3.09l1.25-1.56
		c1.46,1.16,3.09,2.08,4.87,2.79L820.74,204.05z M832.76,206c-2.11,0.01-4.14-0.11-6.07-0.4l0.3-1.98c1.82,0.27,3.74,0.39,5.76,0.38
		L832.76,206z M841.76,205.21c-1.01,0.16-2,0.29-2.98,0.4l-0.23-1.99c0.95-0.11,1.92-0.24,2.9-0.39L841.76,205.21z M845.05,204.49
		c-1.03,0.3-2.12,0.54-3.28,0.72l-0.31-1.98c1.08-0.17,2.09-0.39,3.03-0.66L845.05,204.49z M855.6,196.36
		c-1.07,1.99-2.54,3.75-4.45,5.18l-1.2-1.6c1.67-1.25,2.95-2.78,3.89-4.52L855.6,196.36z M857.89,183.27
		c0.16,2.3,0.1,4.54-0.22,6.66l-1.98-0.3c0.3-1.95,0.35-4.04,0.2-6.22L857.89,183.27z M856.13,173.56c0.3,1.06,0.57,2.13,0.8,3.19
		l-1.95,0.43c-0.22-1.02-0.48-2.05-0.77-3.07L856.13,173.56z M855.35,170.96c0.27,0.83,0.53,1.7,0.78,2.6l-1.93,0.54
		c-0.25-0.88-0.5-1.73-0.76-2.53L855.35,170.96z M850.8,161c0.97,1.47,1.84,3.07,2.63,4.85l-1.83,0.81
		c-0.75-1.69-1.56-3.19-2.47-4.55L850.8,161z M843.12,153.14c1.55,1.15,2.93,2.32,4.18,3.57l-1.42,1.41
		c-1.16-1.17-2.47-2.28-3.95-3.37L843.12,153.14z M836.28,148.72c0.81,0.47,1.58,0.93,2.32,1.39l-1.05,1.7
		c-0.73-0.45-1.48-0.9-2.28-1.36L836.28,148.72z M833.85,147.33c0.81,0.46,1.62,0.92,2.43,1.4l-1.01,1.73
		c-0.8-0.47-1.61-0.93-2.41-1.38L833.85,147.33z M823.91,142.1c1.67,0.81,3.34,1.66,5.01,2.54l-0.93,1.77
		c-1.65-0.87-3.3-1.71-4.95-2.51L823.91,142.1z M813.64,137.54c1.73,0.69,3.45,1.42,5.17,2.19l-0.81,1.83
		c-1.7-0.76-3.4-1.47-5.11-2.16L813.64,137.54z M803.06,133.75c1.78,0.56,3.56,1.16,5.33,1.79l-0.67,1.88
		c-1.74-0.62-3.49-1.21-5.25-1.77L803.06,133.75z M792.22,130.79c1.83,0.43,3.64,0.89,5.45,1.38l-0.53,1.93
		c-1.78-0.49-3.57-0.94-5.37-1.36L792.22,130.79z M781.19,128.64c1.86,0.29,3.71,0.62,5.53,0.97l-0.38,1.96
		c-1.8-0.35-3.62-0.67-5.46-0.96L781.19,128.64z M770.05,127.26c1.88,0.17,3.74,0.38,5.58,0.6l-0.25,1.98
		c-1.82-0.23-3.66-0.42-5.52-0.6L770.05,127.26z M761.65,126.66c0.94,0.05,1.87,0.1,2.8,0.16l-0.13,2
		c-0.92-0.06-1.84-0.11-2.77-0.16L761.65,126.66z M759.02,126.45c1.08,0.1,1.96,0.17,2.63,0.21l-0.1,2
		c-0.71-0.04-1.64-0.11-2.72-0.21L759.02,126.45z M748.3,125.48c1.89,0.14,3.71,0.31,5.38,0.46l-0.19,1.99
		c-1.66-0.16-3.47-0.32-5.34-0.46L748.3,125.48z M737.48,125c1.79,0,3.61,0.06,5.42,0.14l-0.09,2c-1.78-0.08-3.58-0.13-5.33-0.14
		L737.48,125z M726.57,125.89c1.66-0.35,3.51-0.58,5.46-0.72l0.14,2c-1.89,0.13-3.64,0.35-5.19,0.68L726.57,125.89z M719.1,130.29
		c0.47-0.95,1.21-1.73,2.12-2.35l1.13,1.65c-0.7,0.48-1.18,1.01-1.46,1.58L719.1,130.29z M983.65,158.92
		c-0.52-0.19-0.79-0.76-0.6-1.28c0.19-0.52,0.76-0.79,1.28-0.6L983.65,158.92z M981.01,155.11c0.45,0.33,0.54,0.95,0.22,1.4
		c-0.33,0.45-0.95,0.54-1.4,0.22L981.01,155.11z M976.13,154.05c-0.46-0.31-0.57-0.93-0.26-1.39c0.31-0.46,0.93-0.57,1.39-0.26
		L976.13,154.05z M972.98,149.63c0.47,0.29,0.62,0.9,0.33,1.38s-0.9,0.62-1.38,0.33L972.98,149.63z M967.61,148.82
		c-0.48-0.27-0.66-0.88-0.39-1.36s0.88-0.66,1.36-0.39L967.61,148.82z M964.11,144.68c0.49,0.25,0.68,0.86,0.43,1.35
		s-0.86,0.68-1.35,0.43L964.11,144.68z M958.7,144.21c-0.5-0.24-0.7-0.84-0.46-1.34c0.24-0.5,0.84-0.7,1.34-0.46L958.7,144.21z
		 M955.01,140.23c0.5,0.24,0.71,0.83,0.48,1.33c-0.24,0.5-0.83,0.71-1.33,0.48L955.01,140.23z M949.27,139.78
		c-0.5-0.23-0.73-0.82-0.5-1.32c0.23-0.5,0.82-0.73,1.32-0.5L949.27,139.78z M944.74,135.67c0.51,0.21,0.76,0.79,0.55,1.3
		c-0.21,0.51-0.79,0.76-1.3,0.55L944.74,135.67z M938.63,135.47c-0.52-0.19-0.79-0.76-0.6-1.28c0.19-0.52,0.76-0.79,1.28-0.6
		L938.63,135.47z M933.82,131.71c0.53,0.17,0.82,0.73,0.65,1.26c-0.17,0.53-0.73,0.82-1.26,0.65L933.82,131.71z M927.71,131.97
		c-0.53-0.15-0.84-0.7-0.7-1.23c0.15-0.53,0.7-0.84,1.23-0.7L927.71,131.97z M922.61,128.61c0.54,0.13,0.87,0.66,0.75,1.2
		c-0.13,0.54-0.66,0.87-1.2,0.75L922.61,128.61z M916.55,129.37c-0.54-0.1-0.9-0.63-0.8-1.17c0.1-0.54,0.63-0.9,1.17-0.8
		L916.55,129.37z M911.19,126.45c0.55,0.08,0.93,0.59,0.85,1.13c-0.08,0.55-0.59,0.93-1.13,0.85L911.19,126.45z M905.21,127.73
		c-0.55-0.05-0.95-0.54-0.9-1.09c0.05-0.55,0.54-0.95,1.09-0.9L905.21,127.73z M899.61,125.3c0.55,0.03,0.97,0.5,0.94,1.05
		s-0.5,0.97-1.05,0.94L899.61,125.3z M893.77,127.11c-0.55,0-1-0.46-0.99-1.01c0-0.55,0.46-1,1.01-0.99L893.77,127.11z
		 M887.97,125.19c0.55-0.02,1.02,0.41,1.04,0.96s-0.41,1.02-0.96,1.04L887.97,125.19z M882.33,127.53
		c-0.55,0.05-1.03-0.36-1.08-0.91c-0.05-0.55,0.36-1.03,0.91-1.08L882.33,127.53z M876.38,126.15c0.55-0.07,1.05,0.32,1.12,0.86
		s-0.32,1.05-0.86,1.12L876.38,126.15z M870.97,128.99c-0.54,0.09-1.06-0.27-1.16-0.81c-0.09-0.54,0.27-1.06,0.81-1.16
		L870.97,128.99z M864.92,128.14c0.54-0.12,1.07,0.22,1.19,0.76c0.12,0.54-0.22,1.07-0.76,1.19L864.92,128.14z M859.77,131.47
		c-0.53,0.15-1.08-0.16-1.23-0.7c-0.15-0.53,0.16-1.08,0.7-1.23L859.77,131.47z M853.59,131.29c0.52-0.18,1.09,0.1,1.27,0.62
		s-0.1,1.09-0.62,1.27L853.59,131.29z M848.82,135.2c-0.51,0.21-1.09-0.04-1.3-0.55c-0.21-0.51,0.04-1.09,0.55-1.3L848.82,135.2z
		 M842.66,135.7c0.5-0.23,1.1-0.02,1.33,0.48c0.23,0.5,0.02,1.1-0.48,1.33L842.66,135.7z M838.34,140.11
		c-0.49,0.26-1.09,0.08-1.35-0.41c-0.26-0.49-0.08-1.09,0.41-1.35L838.34,140.11z M832.28,141.3c0.47-0.29,1.09-0.15,1.38,0.32
		c0.29,0.47,0.15,1.09-0.32,1.38L832.28,141.3z M828.53,146.21c-0.45,0.32-1.07,0.22-1.4-0.23c-0.32-0.45-0.22-1.07,0.23-1.4
		L828.53,146.21z M822.7,148.22c0.42-0.36,1.05-0.31,1.41,0.12s0.31,1.05-0.12,1.41L822.7,148.22z M819.78,153.66
		c-0.39,0.4-1.02,0.4-1.41,0.02c-0.4-0.39-0.4-1.02-0.02-1.41L819.78,153.66z M814.43,156.75c0.34-0.44,0.97-0.52,1.4-0.18
		c0.44,0.34,0.52,0.97,0.18,1.4L814.43,156.75z M812.82,162.7c-0.28,0.48-0.89,0.64-1.37,0.37s-0.64-0.89-0.37-1.37L812.82,162.7z
		 M808.5,167.11c0.2-0.52,0.77-0.78,1.29-0.58s0.78,0.77,0.58,1.29L808.5,167.11z M808.85,173.26c-0.1,0.54-0.62,0.9-1.16,0.8
		c-0.54-0.1-0.9-0.62-0.8-1.16L808.85,173.26z M806.37,178.9c-0.01-0.55,0.44-1,0.99-1.01s1,0.44,1.01,0.99L806.37,178.9z
		 M808.92,184.6c0.09,0.54-0.27,1.06-0.82,1.15c-0.54,0.09-1.06-0.28-1.15-0.82L808.92,184.6z M808.44,190.83
		c-0.18-0.52,0.09-1.09,0.61-1.28c0.52-0.18,1.09,0.09,1.28,0.61L808.44,190.83z M812.83,195.26c0.31,0.46,0.18,1.08-0.28,1.39
		c-0.46,0.31-1.08,0.18-1.39-0.28L812.83,195.26z M815.35,200.96c-0.43-0.34-0.5-0.97-0.16-1.41c0.34-0.43,0.97-0.5,1.41-0.16
		L815.35,200.96z M821.47,202.19c0.51,0.2,0.77,0.78,0.56,1.3c-0.2,0.51-0.78,0.77-1.3,0.56L821.47,202.19z M826.69,205.6
		c-0.55-0.08-0.92-0.59-0.84-1.14c0.08-0.55,0.59-0.92,1.14-0.84L826.69,205.6z M832.74,204c0.55,0,1,0.44,1.01,0.99
		s-0.44,1-0.99,1.01L832.74,204z M838.78,205.62c-0.55,0.06-1.04-0.33-1.11-0.88s0.33-1.04,0.88-1.11L838.78,205.62z M844.49,202.57
		c0.53-0.15,1.09,0.15,1.24,0.68c0.15,0.53-0.15,1.09-0.68,1.24L844.49,202.57z M851.14,201.54c-0.44,0.33-1.07,0.24-1.4-0.2
		c-0.33-0.44-0.24-1.07,0.2-1.4L851.14,201.54z M853.84,195.42c0.26-0.49,0.87-0.67,1.35-0.41c0.49,0.26,0.67,0.87,0.41,1.35
		L853.84,195.42z M857.67,189.93c-0.08,0.55-0.59,0.92-1.14,0.84s-0.92-0.59-0.84-1.14L857.67,189.93z M855.9,183.41
		c-0.04-0.55,0.38-1.03,0.93-1.07c0.55-0.04,1.03,0.38,1.07,0.93L855.9,183.41z M856.93,176.74c0.12,0.54-0.22,1.07-0.76,1.19
		c-0.54,0.12-1.07-0.22-1.19-0.76L856.93,176.74z M853.44,171.57c-0.17-0.53,0.12-1.09,0.65-1.26s1.09,0.12,1.26,0.65L853.44,171.57
		z M853.43,165.85c0.22,0.5,0,1.1-0.51,1.32s-1.1,0-1.32-0.51L853.43,165.85z M849.13,162.11c-0.31-0.46-0.18-1.08,0.28-1.39
		s1.08-0.18,1.39,0.28L849.13,162.11z M847.29,156.71c0.39,0.39,0.39,1.02,0,1.41c-0.39,0.39-1.02,0.39-1.41,0L847.29,156.71z
		 M841.93,154.75c-0.44-0.33-0.54-0.95-0.21-1.4c0.33-0.44,0.95-0.54,1.4-0.21L841.93,154.75z M838.6,150.11
		c0.47,0.29,0.62,0.91,0.33,1.38c-0.29,0.47-0.91,0.62-1.38,0.33L838.6,150.11z M832.86,149.07c-0.48-0.27-0.65-0.88-0.38-1.36
		s0.88-0.65,1.36-0.38L832.86,149.07z M828.92,144.63c0.49,0.26,0.68,0.86,0.42,1.35c-0.26,0.49-0.86,0.68-1.35,0.42L828.92,144.63z
		 M823.03,143.9c-0.5-0.24-0.7-0.84-0.46-1.34s0.84-0.7,1.34-0.46L823.03,143.9z M818.82,139.73c0.5,0.22,0.73,0.82,0.51,1.32
		s-0.82,0.73-1.32,0.51L818.82,139.73z M812.9,139.4c-0.51-0.21-0.76-0.79-0.56-1.3c0.21-0.51,0.79-0.76,1.3-0.56L812.9,139.4z
		 M808.39,135.55c0.52,0.19,0.79,0.76,0.6,1.28c-0.19,0.52-0.76,0.79-1.28,0.6L808.39,135.55z M802.46,135.66
		c-0.53-0.17-0.82-0.73-0.65-1.25s0.73-0.82,1.25-0.65L802.46,135.66z M797.67,132.17c0.53,0.15,0.85,0.7,0.7,1.23
		c-0.15,0.53-0.7,0.85-1.23,0.7L797.67,132.17z M791.77,132.74c-0.54-0.13-0.87-0.66-0.75-1.2c0.13-0.54,0.66-0.87,1.2-0.75
		L791.77,132.74z M786.72,129.62c0.54,0.11,0.9,0.63,0.79,1.17s-0.63,0.9-1.17,0.79L786.72,129.62z M780.88,130.62
		c-0.55-0.09-0.92-0.6-0.83-1.14c0.09-0.55,0.6-0.92,1.14-0.83L780.88,130.62z M775.63,127.86c0.55,0.07,0.94,0.57,0.87,1.12
		c-0.07,0.55-0.57,0.94-1.12,0.87L775.63,127.86z M769.87,129.25c-0.55-0.05-0.95-0.54-0.9-1.09s0.54-0.95,1.09-0.9L769.87,129.25z
		 M764.46,126.82c0.55,0.04,0.97,0.51,0.93,1.06s-0.51,0.97-1.06,0.93L764.46,126.82z M758.84,128.44c-0.55-0.05-0.95-0.54-0.9-1.09
		c0.05-0.55,0.54-0.95,1.09-0.9L758.84,128.44z M753.68,125.94c0.55,0.05,0.95,0.54,0.9,1.09s-0.54,0.95-1.09,0.9L753.68,125.94z
		 M748.15,127.47c-0.55-0.04-0.96-0.52-0.92-1.07s0.52-0.96,1.07-0.92L748.15,127.47z M742.9,125.14c0.55,0.03,0.98,0.49,0.95,1.05
		c-0.03,0.55-0.49,0.98-1.05,0.95L742.9,125.14z M737.48,127c-0.55,0-1-0.45-1-1c0-0.55,0.45-1,1-1L737.48,127z M732.04,125.17
		c0.55-0.04,1.03,0.38,1.07,0.93c0.04,0.55-0.38,1.03-0.93,1.07L732.04,125.17z M726.99,127.85c-0.54,0.11-1.07-0.23-1.19-0.77
		c-0.11-0.54,0.23-1.07,0.77-1.19L726.99,127.85z M721.23,127.94c0.46-0.31,1.08-0.2,1.39,0.26c0.31,0.46,0.2,1.08-0.26,1.39
		L721.23,127.94z M720.9,131.17c-0.24,0.5-0.84,0.7-1.34,0.46s-0.7-0.84-0.46-1.34L720.9,131.17z M761.6,127.65l-0.05,1
		L761.6,127.65z M835.77,149.59l-0.5,0.86L835.77,149.59z M855.16,173.83l-0.96,0.27L855.16,173.83z M841.61,204.22l-0.15-0.99
		L841.61,204.22z M807.54,181.81l0.99-0.1L807.54,181.81z M862.32,129.77l0.24,0.97L862.32,129.77z M952.3,140.06l0.42-0.91
		L952.3,140.06z M978.75,154.69l0.59-0.81L978.75,154.69z M986.1,157.44c0.55,0.06,0.95,0.55,0.89,1.1s-0.55,0.95-1.1,0.89
		L986.1,157.44z"/>
	
		<circle style="clip-path:url(#SVGID_00000162349924421416516950000013094384392611653296_);fill:#FFEBF1;" cx="1030.5" cy="173.5" r="56.5"/>
	<g style="clip-path:url(#SVGID_00000162349924421416516950000013094384392611653296_);">
		<defs>
			<circle id="SVGID_00000137107853434057545930000005674688152192866702_" cx="1030.5" cy="173.5" r="56.5"/>
		</defs>
		<clipPath id="SVGID_00000075129527004465959230000015356408007540572298_">
			<use xlink:href="#SVGID_00000137107853434057545930000005674688152192866702_"  style="overflow:visible;"/>
		</clipPath>
		<path style="clip-path:url(#SVGID_00000075129527004465959230000015356408007540572298_);fill:#18292D;" d="M1030.5,118
			c30.65,0,55.5,24.85,55.5,55.5h2c0-31.76-25.74-57.5-57.5-57.5V118z M975,173.5c0-30.65,24.85-55.5,55.5-55.5v-2
			c-31.76,0-57.5,25.74-57.5,57.5H975z M1030.5,229c-30.65,0-55.5-24.85-55.5-55.5h-2c0,31.76,25.74,57.5,57.5,57.5V229z
			 M1086,173.5c0,30.65-24.85,55.5-55.5,55.5v2c31.76,0,57.5-25.74,57.5-57.5H1086z"/>
	</g>
	
		<polygon style="clip-path:url(#SVGID_00000162349924421416516950000013094384392611653296_);fill-rule:evenodd;clip-rule:evenodd;fill:#F8D512;" points="
		1001.83,191.32 994.5,149.93 1021.5,165.82 1037.96,150.96 1043.26,172.4 1075.68,174.45 1045.72,204.58 	"/>
	
		<path style="clip-path:url(#SVGID_00000162349924421416516950000013094384392611653296_);fill-rule:evenodd;clip-rule:evenodd;" d="
		M1016.25,169.88l-16.56-16.12l20.59,12.46L1016.25,169.88L1016.25,169.88z M1044.01,179.03l-15.39,2.89l-11.22-10.93l20.01-18.17
		L1044.01,179.03L1044.01,179.03z M1068.29,174.47l-22.72,4.26l-1.33-5.28L1068.29,174.47z M1046.13,203.19l-16.17-19.77l43.44-8.15
		L1046.13,203.19L1046.13,203.19z M1004.56,191.02l23.49-7.23l15.56,19.03L1004.56,191.02z M995,151.59l31.67,30.83l-24.41,7.51
		L995,151.59z M1001.02,191.8l45.12,13.62l0.38-0.38l29.77-30.47l1.45-1.47l-33.94-1.44l-5.5-21.81l-16.65,15.12l-29.06-17.59
		l0.39,1.98l7.94,41.92L1001.02,191.8z"/>
	<path style="clip-path:url(#SVGID_00000162349924421416516950000013094384392611653296_);" d="M1043.76,202.33l-39.06-11.79
		l-0.29,0.96l39.06,11.79L1043.76,202.33z M1015.77,169.73L1015.77,169.73l0.96,0.29l0,0L1015.77,169.73z M1019.95,165.85
		l-4.03,3.66l0.67,0.74l4.03-3.66L1019.95,165.85z M999.43,154.19l20.59,12.46l0.52-0.86l-20.59-12.46L999.43,154.19z
		 M1016.6,169.52l-16.56-16.12l-0.7,0.72l16.56,16.12L1016.6,169.52z M1044.16,178.55L1044.16,178.55l-0.29,0.96l0,0L1044.16,178.55
		z M1036.92,152.94l6.61,26.21l0.97-0.24l-6.61-26.21L1036.92,152.94z M1017.73,171.36l20.01-18.17l-0.67-0.74l-20.01,18.17
		L1017.73,171.36z M1028.96,181.56l-11.22-10.93l-0.7,0.72l11.22,10.93L1028.96,181.56z M1043.92,178.54l-15.39,2.89l0.18,0.98
		l15.39-2.89L1043.92,178.54z M1044.22,173.95l24.05,1.02l0.04-1l-24.05-1.02L1044.22,173.95z M1046.06,178.61l-1.33-5.28
		l-0.97,0.24l1.33,5.28L1046.06,178.61z M1068.2,173.98l-22.72,4.26l0.18,0.98l22.72-4.26L1068.2,173.98z M1045.65,203.04
		L1045.65,203.04l0.96,0.29l0,0L1045.65,203.04z M1073.04,174.92l-27.27,27.92l0.72,0.7l27.27-27.92L1073.04,174.92z
		 M1030.05,183.92l43.44-8.15l-0.18-0.98l-43.44,8.15L1030.05,183.92z M1046.51,202.87l-16.17-19.77l-0.77,0.63l16.17,19.77
		L1046.51,202.87z M1027.67,184.1l15.56,19.03l0.77-0.63l-15.56-19.03L1027.67,184.1z M1004.71,191.49l23.49-7.23l-0.29-0.96
		l-23.49,7.23L1004.71,191.49z M1002.75,189.85l-7.26-38.35l-0.98,0.19l7.26,38.35L1002.75,189.85z M1026.52,181.95l-24.41,7.51
		l0.29,0.96l24.41-7.51L1026.52,181.95z M994.65,151.95l31.67,30.83l0.7-0.72l-31.67-30.83L994.65,151.95z M1000.42,191.39
		l0.11,0.51l0.98-0.2l-0.11-0.51L1000.42,191.39z M992.48,149.47l7.94,41.92l0.98-0.19l-7.94-41.92L992.48,149.47z M992.1,147.49
		l0.39,1.98l0.98-0.19l-0.39-1.98L992.1,147.49z M1021.91,164.55l-29.06-17.59l-0.52,0.86l29.06,17.59L1021.91,164.55z
		 M1037.96,149.49l-16.65,15.12l0.67,0.74l16.65-15.12L1037.96,149.49z M1044.28,171.55l-5.5-21.81l-0.97,0.24l5.5,21.81
		L1044.28,171.55z M1077.76,172.61l-33.94-1.44l-0.04,1l33.94,1.44L1077.76,172.61z M1076.64,174.93l1.45-1.47l-0.71-0.7l-1.45,1.47
		L1076.64,174.93z M1046.87,205.4l29.77-30.47l-0.72-0.7l-29.77,30.47L1046.87,205.4z M1046.48,205.78l0.38-0.38l-0.7-0.71
		l-0.38,0.38L1046.48,205.78z M1000.87,192.28l45.12,13.62l0.29-0.96l-45.12-13.62L1000.87,192.28z M1021.75,165.39l-27-15.89
		l-0.51,0.86l27,15.89L1021.75,165.39z M1037.63,150.59l-16.46,14.86l0.67,0.74l16.46-14.86L1037.63,150.59z M1043.75,172.28
		l-5.3-21.43l-0.97,0.24l5.3,21.43L1043.75,172.28z M1075.71,173.95l-32.42-2.05l-0.06,1l32.42,2.05L1075.71,173.95z
		 M1046.08,204.93l29.95-30.13l-0.71-0.7l-29.95,30.13L1046.08,204.93z M1001.68,191.8l43.9,13.26l0.29-0.96l-43.9-13.26
		L1001.68,191.8z M994.01,150.02l7.32,41.39l0.98-0.17L995,149.85L994.01,150.02z M1016.25,169.88l-0.34-0.37
		c-0.07,0.06-0.12,0.14-0.14,0.23L1016.25,169.88z M1020.28,166.22l0.34,0.37c0.12-0.11,0.18-0.26,0.16-0.42
		c-0.02-0.16-0.1-0.3-0.24-0.38L1020.28,166.22z M999.69,153.76l0.26-0.43c-0.22-0.13-0.5-0.08-0.65,0.12
		c-0.16,0.2-0.14,0.49,0.05,0.66L999.69,153.76z M1016.25,169.88l-0.35,0.36c0.13,0.12,0.3,0.17,0.47,0.13
		c0.17-0.04,0.3-0.17,0.35-0.34L1016.25,169.88z M1044.01,179.03l-0.14,0.48c0.17,0.05,0.36,0.01,0.49-0.12
		c0.13-0.12,0.18-0.31,0.14-0.48L1044.01,179.03z M1037.4,152.82l0.48-0.12c-0.04-0.17-0.17-0.31-0.34-0.36
		c-0.17-0.05-0.35-0.01-0.48,0.11L1037.4,152.82z M1017.39,170.99l-0.34-0.37c-0.1,0.09-0.16,0.22-0.16,0.36s0.05,0.27,0.15,0.37
		L1017.39,170.99z M1028.62,181.92l-0.35,0.36c0.12,0.11,0.28,0.16,0.44,0.13L1028.62,181.92z M1044.01,179.03l0.14-0.48
		c-0.08-0.02-0.16-0.03-0.24-0.01L1044.01,179.03z M1044.25,173.46l0.02-0.5c-0.16-0.01-0.31,0.06-0.41,0.18
		c-0.1,0.12-0.14,0.28-0.1,0.44L1044.25,173.46z M1045.58,178.74l-0.48,0.12c0.06,0.26,0.32,0.42,0.58,0.37L1045.58,178.74z
		 M1068.29,174.47l0.09,0.49c0.25-0.05,0.42-0.27,0.41-0.53s-0.22-0.45-0.48-0.46L1068.29,174.47z M1046.13,203.19l-0.36-0.35
		c-0.06,0.06-0.1,0.13-0.12,0.2L1046.13,203.19z M1073.4,175.27l0.36,0.35c0.15-0.16,0.19-0.39,0.08-0.59s-0.32-0.3-0.53-0.26
		L1073.4,175.27z M1029.96,183.42l-0.09-0.49c-0.17,0.03-0.32,0.15-0.38,0.32c-0.06,0.17-0.03,0.35,0.08,0.49L1029.96,183.42z
		 M1046.13,203.19l-0.39,0.32c0.12,0.14,0.3,0.21,0.48,0.17c0.18-0.04,0.33-0.17,0.38-0.35L1046.13,203.19z M1043.62,202.81
		l-0.14,0.48c0.21,0.06,0.44-0.02,0.56-0.2c0.12-0.18,0.11-0.42-0.03-0.59L1043.62,202.81z M1028.05,183.78l0.39-0.32
		c-0.13-0.16-0.34-0.22-0.53-0.16L1028.05,183.78z M1004.56,191.02l-0.15-0.48c-0.21,0.06-0.35,0.26-0.35,0.48
		c0,0.22,0.14,0.41,0.36,0.48L1004.56,191.02z M1002.26,189.94l-0.49,0.09c0.03,0.14,0.11,0.26,0.23,0.34
		c0.12,0.07,0.27,0.09,0.41,0.05L1002.26,189.94z M1026.66,182.43l0.15,0.48c0.17-0.05,0.3-0.19,0.34-0.36s-0.01-0.35-0.14-0.48
		L1026.66,182.43z M995,151.59l0.35-0.36c-0.16-0.15-0.39-0.19-0.59-0.08c-0.19,0.1-0.3,0.32-0.25,0.53L995,151.59z M1000.91,191.29
		l-0.49,0.09l0,0.01L1000.91,191.29z M992.97,149.37l0.49-0.09l0,0L992.97,149.37z M992.59,147.39l0.26-0.43
		c-0.17-0.1-0.38-0.1-0.54,0.02c-0.16,0.11-0.24,0.31-0.2,0.51L992.59,147.39z M1021.65,164.98l-0.26,0.43
		c0.19,0.11,0.43,0.09,0.6-0.06L1021.65,164.98z M1038.3,149.86l0.48-0.12c-0.04-0.17-0.17-0.31-0.34-0.36
		c-0.17-0.05-0.35-0.01-0.48,0.11L1038.3,149.86z M1043.8,171.67l-0.48,0.12c0.05,0.21,0.24,0.37,0.46,0.38L1043.8,171.67z
		 M1077.73,173.11l0.36,0.35c0.14-0.14,0.18-0.35,0.11-0.53s-0.25-0.31-0.44-0.32L1077.73,173.11z M1076.28,174.58l-0.36-0.35l0,0
		L1076.28,174.58z M1046.52,205.05l0.35,0.36l0.01-0.01L1046.52,205.05z M1046.13,205.43l-0.14,0.48c0.18,0.05,0.37,0.01,0.5-0.12
		L1046.13,205.43z M1001.02,191.8l-0.49,0.1c0.04,0.18,0.17,0.32,0.34,0.38L1001.02,191.8z M1021.5,165.82l-0.25,0.43
		c0.19,0.11,0.43,0.09,0.59-0.06L1021.5,165.82z M1037.96,150.96l0.49-0.12c-0.04-0.17-0.17-0.31-0.34-0.36s-0.35-0.01-0.48,0.11
		L1037.96,150.96z M1043.26,172.4l-0.49,0.12c0.05,0.21,0.24,0.37,0.45,0.38L1043.26,172.4z M1075.68,174.45l0.35,0.35
		c0.14-0.14,0.18-0.35,0.11-0.53c-0.07-0.18-0.24-0.31-0.44-0.32L1075.68,174.45z M1045.72,204.58l-0.14,0.48
		c0.18,0.05,0.37,0,0.5-0.13L1045.72,204.58z M1001.83,191.32l-0.49,0.09c0.03,0.19,0.17,0.34,0.35,0.39L1001.83,191.32z
		 M994.5,149.93l0.25-0.43c-0.17-0.1-0.38-0.09-0.54,0.02c-0.16,0.11-0.24,0.31-0.21,0.5L994.5,149.93z"/>
	<path style="clip-path:url(#SVGID_00000162349924421416516950000013094384392611653296_);" d="M550.13,144.95
		c0.37-0.24,0.77-0.44,1.22-0.6l-0.66-1.89c-0.61,0.21-1.15,0.49-1.65,0.81L550.13,144.95z M546.96,148.16
		c0.18-0.21,0.36-0.42,0.53-0.62c0.17-0.2,0.34-0.4,0.51-0.59l-1.51-1.31c-0.17,0.2-0.35,0.41-0.52,0.61
		c-0.17,0.2-0.34,0.4-0.52,0.61L546.96,148.16z M544.97,150.35c0.68-0.72,1.35-1.45,1.99-2.2l-1.51-1.31
		c-0.63,0.72-1.27,1.43-1.94,2.13L544.97,150.35z M536.31,158.38c1.51-1.26,2.99-2.55,4.44-3.88l-1.35-1.47
		c-1.42,1.31-2.88,2.57-4.37,3.82L536.31,158.38z M529.44,163.89c0.77-0.6,1.53-1.2,2.3-1.81l-1.24-1.57
		c-0.76,0.6-1.53,1.21-2.29,1.81L529.44,163.89z M527.05,165.72c0.8-0.6,1.6-1.21,2.39-1.83l-1.23-1.57
		c-0.78,0.61-1.57,1.21-2.35,1.8L527.05,165.72z M517.08,172.46c1.71-1.04,3.4-2.12,5.07-3.25l-1.12-1.66
		c-1.64,1.11-3.31,2.18-4.99,3.2L517.08,172.46z M506.47,178.17c1.81-0.85,3.61-1.76,5.38-2.71l-0.95-1.76
		c-1.74,0.94-3.51,1.83-5.29,2.66L506.47,178.17z M495.29,182.67c1.91-0.64,3.79-1.34,5.66-2.09l-0.75-1.86
		c-1.83,0.74-3.68,1.42-5.55,2.05L495.29,182.67z M483.65,185.84c1.97-0.41,3.93-0.89,5.86-1.41l-0.53-1.93
		c-1.9,0.52-3.81,0.98-5.75,1.39L483.65,185.84z M471.72,187.62c2.02-0.18,4.01-0.42,5.99-0.71l-0.29-1.98
		c-1.94,0.29-3.9,0.52-5.87,0.7L471.72,187.62z M462.69,188.03c1.01,0,2.02-0.02,3.02-0.05l-0.06-2c-0.98,0.03-1.97,0.05-2.96,0.05
		L462.69,188.03z M459.51,187.96c1.09,0.05,2.16,0.07,3.18,0.06l-0.01-2c-1,0-2.03-0.02-3.1-0.06L459.51,187.96z M446.87,186.46
		c2.12,0.41,4.23,0.74,6.29,0.98l0.24-1.99c-2.01-0.24-4.07-0.56-6.14-0.96L446.87,186.46z M434.61,183.04
		c1.99,0.75,4.02,1.4,6.07,1.97l0.53-1.93c-2-0.55-3.97-1.19-5.9-1.92L434.61,183.04z M423.23,177.17c1.73,1.21,3.58,2.31,5.52,3.29
		l0.91-1.78c-1.86-0.95-3.63-2-5.28-3.15L423.23,177.17z M414.29,167.86c1.11,1.87,2.46,3.58,3.99,5.14l1.43-1.4
		c-1.43-1.47-2.68-3.05-3.7-4.77L414.29,167.86z M411.09,158.63c0.15,1.11,0.36,2.18,0.65,3.22l1.93-0.53
		c-0.26-0.95-0.46-1.94-0.59-2.95L411.09,158.63z M410.81,155.5c0.04,1,0.13,2.04,0.27,3.13l1.98-0.26
		c-0.14-1.03-0.22-2.01-0.26-2.95L410.81,155.5z M414.01,143.3c-1.22,1.68-2.11,3.63-2.65,5.88l1.95,0.46
		c0.47-2.01,1.26-3.71,2.32-5.16L414.01,143.3z M424.56,136.41c-2.12,0.64-4.07,1.48-5.8,2.55l1.05,1.7
		c1.55-0.96,3.34-1.73,5.33-2.34L424.56,136.41z M433.75,134.76c-1.05,0.09-2.08,0.2-3.08,0.34l0.28,1.98
		c0.97-0.14,1.96-0.24,2.98-0.33L433.75,134.76z M437.65,134.79c-1.21-0.14-2.51-0.15-3.9-0.03l0.17,1.99
		c1.27-0.11,2.44-0.09,3.51,0.03L437.65,134.79z M449.14,144.46c-0.88-2.6-2.25-4.89-4.22-6.61l-1.31,1.51
		c1.64,1.43,2.84,3.39,3.64,5.75L449.14,144.46z M450.47,155.81c0.06-1.28,0.06-2.55,0-3.8l-2,0.1c0.06,1.18,0.06,2.39,0,3.61
		L450.47,155.81z M450.24,158.94c0.1-0.99,0.18-2.03,0.23-3.13l-2-0.09c-0.05,1.07-0.12,2.07-0.22,3.02L450.24,158.94z
		 M446.13,170.92c1.24-1.8,2.18-3.66,2.86-5.75l-1.9-0.62c-0.62,1.9-1.47,3.58-2.61,5.23L446.13,170.92z M439.81,177.92
		c0.8-0.75,1.54-1.47,2.24-2.18l-1.43-1.4c-0.67,0.68-1.4,1.39-2.18,2.12L439.81,177.92z M437.57,179.99
		c0.75-0.68,1.5-1.37,2.24-2.07l-1.37-1.46c-0.74,0.69-1.48,1.37-2.21,2.04L437.57,179.99z M428.17,187.77
		c1.61-1.21,3.2-2.47,4.79-3.79l-1.28-1.54c-1.56,1.3-3.13,2.54-4.71,3.73L428.17,187.77z M418.05,194.61
		c1.74-1.05,3.45-2.14,5.15-3.29l-1.12-1.66c-1.67,1.13-3.35,2.2-5.06,3.23L418.05,194.61z M407.27,200.36
		c1.86-0.87,3.68-1.78,5.47-2.73l-0.94-1.77c-1.76,0.94-3.55,1.83-5.37,2.68L407.27,200.36z M395.98,204.99
		c1.94-0.69,3.84-1.42,5.7-2.18l-0.76-1.85c-1.83,0.75-3.7,1.47-5.61,2.15L395.98,204.99z M387.28,207.81
		c0.98-0.29,1.96-0.58,2.92-0.89l-0.6-1.91c-0.95,0.3-1.91,0.59-2.88,0.88L387.28,207.81z M384.68,208.66
		c1.09-0.37,1.97-0.66,2.6-0.85l-0.56-1.92c-0.68,0.2-1.6,0.51-2.68,0.87L384.68,208.66z M374.07,212.13
		c1.85-0.55,3.66-1.13,5.34-1.68l-0.63-1.9c-1.66,0.55-3.45,1.12-5.27,1.66L374.07,212.13z M363.05,214.59
		c1.76-0.2,3.66-0.56,5.59-1.01l-0.45-1.95c-1.88,0.44-3.7,0.78-5.36,0.97L363.05,214.59z M354.26,212.77
		c0.73,0.86,1.76,1.38,2.91,1.66l0.49-1.94c-0.9-0.23-1.5-0.58-1.86-1.01L354.26,212.77z M549.04,143.28
		c-0.46,0.3-0.6,0.92-0.3,1.38c0.3,0.46,0.92,0.6,1.38,0.3L549.04,143.28z M548,146.94c0.36-0.42,0.32-1.05-0.1-1.41
		c-0.42-0.36-1.05-0.32-1.41,0.1L548,146.94z M543.52,148.98c-0.38,0.4-0.36,1.03,0.04,1.41s1.03,0.36,1.41-0.04L543.52,148.98z
		 M540.75,154.5c0.41-0.37,0.43-1.01,0.06-1.41c-0.37-0.41-1.01-0.43-1.41-0.06L540.75,154.5z M535.02,156.84
		c-0.42,0.35-0.48,0.98-0.13,1.41c0.35,0.42,0.98,0.48,1.41,0.13L535.02,156.84z M531.74,162.08c0.43-0.34,0.51-0.97,0.16-1.4
		s-0.97-0.51-1.4-0.16L531.74,162.08z M525.85,164.12c-0.44,0.33-0.53,0.96-0.2,1.4s0.96,0.53,1.4,0.2L525.85,164.12z
		 M522.15,169.21c0.46-0.31,0.58-0.93,0.27-1.39c-0.31-0.46-0.93-0.58-1.39-0.27L522.15,169.21z M516.04,170.76
		c-0.47,0.29-0.62,0.9-0.34,1.37c0.29,0.47,0.9,0.62,1.37,0.34L516.04,170.76z M511.85,175.46c0.49-0.26,0.67-0.87,0.41-1.35
		c-0.26-0.49-0.87-0.67-1.35-0.41L511.85,175.46z M505.62,176.36c-0.5,0.23-0.71,0.83-0.48,1.33c0.23,0.5,0.83,0.71,1.33,0.48
		L505.62,176.36z M500.94,180.58c0.51-0.21,0.76-0.79,0.55-1.3c-0.21-0.51-0.79-0.76-1.3-0.55L500.94,180.58z M494.65,180.77
		c-0.52,0.18-0.8,0.74-0.63,1.27s0.74,0.8,1.27,0.63L494.65,180.77z M489.52,184.43c0.53-0.15,0.85-0.7,0.7-1.23
		c-0.15-0.53-0.7-0.85-1.23-0.7L489.52,184.43z M483.24,183.88c-0.54,0.11-0.89,0.64-0.77,1.18c0.11,0.54,0.64,0.89,1.18,0.77
		L483.24,183.88z M477.72,186.91c0.55-0.08,0.92-0.59,0.84-1.14c-0.08-0.55-0.59-0.92-1.14-0.84L477.72,186.91z M471.55,185.62
		c-0.55,0.05-0.96,0.53-0.91,1.08c0.05,0.55,0.53,0.96,1.08,0.91L471.55,185.62z M465.71,187.98c0.55-0.02,0.99-0.48,0.97-1.03
		s-0.48-0.99-1.03-0.97L465.71,187.98z M459.59,185.96c-0.55-0.02-1.02,0.41-1.04,0.96c-0.02,0.55,0.41,1.02,0.96,1.04
		L459.59,185.96z M453.16,187.45c0.55,0.07,1.05-0.33,1.11-0.87s-0.33-1.05-0.87-1.11L453.16,187.45z M447.26,184.5
		c-0.54-0.11-1.07,0.25-1.17,0.79c-0.11,0.54,0.25,1.07,0.79,1.17L447.26,184.5z M440.67,185.01c0.53,0.15,1.08-0.16,1.23-0.7
		s-0.16-1.08-0.7-1.23L440.67,185.01z M435.31,181.16c-0.52-0.19-1.09,0.07-1.29,0.58c-0.19,0.52,0.07,1.09,0.58,1.29L435.31,181.16
		z M428.75,180.46c0.49,0.25,1.09,0.05,1.34-0.44s0.05-1.09-0.44-1.34L428.75,180.46z M424.38,175.53
		c-0.45-0.32-1.08-0.21-1.39,0.24c-0.32,0.45-0.21,1.08,0.24,1.39L424.38,175.53z M418.29,173.01c0.39,0.39,1.02,0.4,1.41,0.02
		s0.4-1.02,0.02-1.41L418.29,173.01z M416.01,166.84c-0.28-0.47-0.9-0.63-1.37-0.35s-0.63,0.9-0.35,1.37L416.01,166.84z
		 M411.73,161.85c0.15,0.53,0.69,0.85,1.23,0.7c0.53-0.15,0.85-0.69,0.7-1.23L411.73,161.85z M412.81,155.42
		c-0.02-0.55-0.49-0.98-1.04-0.96s-0.98,0.49-0.96,1.04L412.81,155.42z M411.36,149.18c-0.13,0.54,0.21,1.08,0.74,1.2
		c0.54,0.13,1.08-0.21,1.2-0.74L411.36,149.18z M415.63,144.48c0.32-0.45,0.23-1.07-0.22-1.4c-0.45-0.32-1.07-0.23-1.4,0.22
		L415.63,144.48z M418.76,138.96c-0.47,0.29-0.61,0.91-0.32,1.38c0.29,0.47,0.91,0.61,1.38,0.32L418.76,138.96z M425.14,138.32
		c0.53-0.16,0.83-0.72,0.67-1.25c-0.16-0.53-0.72-0.83-1.25-0.67L425.14,138.32z M430.67,135.1c-0.55,0.08-0.93,0.58-0.85,1.13
		c0.08,0.55,0.58,0.93,1.13,0.85L430.67,135.1z M437.43,136.78c0.55,0.06,1.04-0.33,1.11-0.88c0.06-0.55-0.33-1.04-0.88-1.11
		L437.43,136.78z M444.92,137.85c-0.42-0.36-1.05-0.32-1.41,0.1c-0.36,0.42-0.32,1.05,0.1,1.41L444.92,137.85z M447.24,145.11
		c0.18,0.52,0.75,0.8,1.27,0.62c0.52-0.18,0.8-0.75,0.62-1.27L447.24,145.11z M450.46,152.01c-0.03-0.55-0.5-0.98-1.05-0.95
		c-0.55,0.03-0.98,0.5-0.95,1.05L450.46,152.01z M448.25,158.73c-0.06,0.55,0.34,1.04,0.89,1.1c0.55,0.06,1.04-0.34,1.1-0.89
		L448.25,158.73z M448.99,165.17c0.17-0.53-0.12-1.09-0.64-1.26s-1.09,0.12-1.26,0.64L448.99,165.17z M444.48,169.78
		c-0.31,0.45-0.2,1.08,0.26,1.39s1.08,0.2,1.39-0.26L444.48,169.78z M442.04,175.74c0.39-0.39,0.38-1.03-0.01-1.41
		c-0.39-0.39-1.03-0.38-1.41,0.01L442.04,175.74z M436.22,178.51c-0.41,0.37-0.44,1-0.07,1.41c0.37,0.41,1,0.44,1.41,0.07
		L436.22,178.51z M432.96,183.99c0.43-0.35,0.48-0.98,0.13-1.41c-0.35-0.43-0.98-0.48-1.41-0.13L432.96,183.99z M426.96,186.17
		c-0.44,0.33-0.53,0.96-0.2,1.4c0.33,0.44,0.96,0.53,1.4,0.2L426.96,186.17z M423.2,191.32c0.46-0.31,0.58-0.93,0.27-1.39
		c-0.31-0.46-0.93-0.58-1.39-0.27L423.2,191.32z M417.02,192.9c-0.47,0.28-0.63,0.9-0.34,1.37c0.28,0.47,0.9,0.63,1.37,0.34
		L417.02,192.9z M412.73,197.63c0.49-0.26,0.67-0.87,0.41-1.35s-0.87-0.67-1.35-0.41L412.73,197.63z M406.42,198.54
		c-0.5,0.23-0.72,0.83-0.48,1.33c0.23,0.5,0.83,0.72,1.33,0.48L406.42,198.54z M401.67,202.8c0.51-0.21,0.76-0.79,0.55-1.3
		c-0.21-0.51-0.79-0.76-1.3-0.55L401.67,202.8z M395.3,203.11c-0.52,0.19-0.79,0.76-0.6,1.28c0.19,0.52,0.76,0.79,1.28,0.6
		L395.3,203.11z M390.19,206.93c0.53-0.17,0.82-0.73,0.66-1.25s-0.73-0.82-1.25-0.66L390.19,206.93z M384.03,206.77
		c-0.52,0.18-0.8,0.75-0.62,1.27s0.75,0.8,1.27,0.62L384.03,206.77z M379.4,210.45c0.52-0.17,0.81-0.74,0.63-1.26
		c-0.17-0.52-0.74-0.81-1.26-0.63L379.4,210.45z M373.5,210.21c-0.53,0.16-0.83,0.71-0.68,1.24c0.16,0.53,0.71,0.83,1.24,0.68
		L373.5,210.21z M368.64,213.58c0.54-0.13,0.87-0.66,0.75-1.2s-0.66-0.87-1.2-0.75L368.64,213.58z M362.83,212.6
		c-0.55,0.06-0.94,0.56-0.88,1.11s0.56,0.94,1.11,0.88L362.83,212.6z M357.17,214.43c0.54,0.13,1.08-0.19,1.21-0.73
		c0.13-0.54-0.19-1.08-0.73-1.21L357.17,214.43z M355.79,211.48c-0.36-0.42-0.99-0.48-1.41-0.12c-0.42,0.36-0.48,0.99-0.12,1.41
		L355.79,211.48z M386.99,206.85l-0.28-0.96L386.99,206.85z M439.12,177.19l-0.69-0.73L439.12,177.19z M449.47,155.76l-1-0.04
		L449.47,155.76z M433.84,135.76l0.08,1L433.84,135.76z M412.08,158.5l0.99-0.13L412.08,158.5z M462.69,187.03l0-1L462.69,187.03z
		 M528.83,163.1l0.62,0.79L528.83,163.1z M546.21,147.5l-0.76-0.66L546.21,147.5z M551.35,144.36c0.52-0.18,0.8-0.75,0.62-1.27
		c-0.18-0.52-0.75-0.8-1.27-0.62L551.35,144.36z"/>
	
		<circle style="clip-path:url(#SVGID_00000162349924421416516950000013094384392611653296_);fill:#FFEBF1;" cx="304.5" cy="210.79" r="56.5"/>
	<g style="clip-path:url(#SVGID_00000162349924421416516950000013094384392611653296_);">
		<defs>
			<circle id="SVGID_00000028317835274480945820000004121120302743301013_" cx="304.5" cy="210.79" r="56.5"/>
		</defs>
		<clipPath id="SVGID_00000128465466908200621430000012901719373868787902_">
			<use xlink:href="#SVGID_00000028317835274480945820000004121120302743301013_"  style="overflow:visible;"/>
		</clipPath>
		<path style="clip-path:url(#SVGID_00000128465466908200621430000012901719373868787902_);fill:#18292D;" d="M304.5,155.29
			c30.65,0,55.5,24.85,55.5,55.5h2c0-31.76-25.74-57.5-57.5-57.5V155.29z M249,210.79c0-30.65,24.85-55.5,55.5-55.5v-2
			c-31.76,0-57.5,25.74-57.5,57.5H249z M304.5,266.29c-30.65,0-55.5-24.85-55.5-55.5h-2c0,31.76,25.74,57.5,57.5,57.5V266.29z
			 M360,210.79c0,30.65-24.85,55.5-55.5,55.5v2c31.76,0,57.5-25.74,57.5-57.5H360z"/>
	</g>
	<polygon style="clip-path:url(#SVGID_00000162349924421416516950000013094384392611653296_);fill:#CE4C7A;" points="345.93,217.65 
		286.64,199.78 310.36,166.96 	"/>
	<g style="clip-path:url(#SVGID_00000162349924421416516950000013094384392611653296_);">
		<defs>
			<polygon id="SVGID_00000099620118106346899820000016747955108078334865_" points="345.93,217.65 286.64,199.78 310.36,166.96 			
				"/>
		</defs>
		<clipPath id="SVGID_00000159461706547889572060000015088027547865212351_">
			<use xlink:href="#SVGID_00000099620118106346899820000016747955108078334865_"  style="overflow:visible;"/>
		</clipPath>
		<path style="clip-path:url(#SVGID_00000159461706547889572060000015088027547865212351_);" d="M308.72,168.11l35.57,50.68
			l3.27-2.3l-35.57-50.68L308.72,168.11z M288.27,200.95l23.71-32.81l-3.24-2.34l-23.71,32.81L288.27,200.95z M346.51,215.73
			l-59.29-17.87l-1.15,3.83l59.29,17.87L346.51,215.73z M310.36,166.96l1.64-1.15c-0.37-0.53-0.98-0.85-1.62-0.85
			c-0.65,0-1.26,0.3-1.63,0.83L310.36,166.96z M286.64,199.78l-1.62-1.17c-0.38,0.52-0.48,1.2-0.27,1.81
			c0.21,0.61,0.7,1.09,1.32,1.27L286.64,199.78z M345.93,217.65l-0.58,1.91c0.82,0.25,1.7-0.05,2.2-0.74
			c0.5-0.69,0.51-1.62,0.02-2.32L345.93,217.65z"/>
	</g>
	<path style="clip-path:url(#SVGID_00000162349924421416516950000013094384392611653296_);" d="M309,165.63
		c0.64-0.9,1.89-1.11,2.79-0.46s1.11,1.89,0.46,2.79l-46.75,65.36c-0.64,0.9-1.89,1.11-2.79,0.46s-1.11-1.89-0.46-2.79L309,165.63z"
		/>
	<path style="clip-path:url(#SVGID_00000162349924421416516950000013094384392611653296_);" d="M410.71,93.43
		c-0.74-2.54-1.75-5.22-2.97-7.94c0.96-1.55,1.81-3.06,2.53-4.52c6.61,1.71,11.06,4.37,10.9,7.02
		C421.02,90.48,416.83,92.47,410.71,93.43z M408.41,107.33c-2.69,0-6.81-3.62-10.76-9.24c1.03-1,2.06-2.09,3.08-3.23
		c3.16,0.08,6.28-0.05,9.39-0.48C411.3,98.68,412.74,107.33,408.41,107.33z M391.4,102.2c-3.62,2.44-6.53,3.18-7.97,2.04
		c-1.93-1.52-1.21-6.1,1.44-11.7c2.81,0.84,6.02,1.48,9.43,1.88c0.74,1.26,1.5,2.46,2.26,3.58
		C394.82,99.65,393.07,101.08,391.4,102.2L391.4,102.2z M381.99,90.65c-10.68-4.34-6.68-9.62,5.8-11.15
		c0.38,1.34,0.84,2.72,1.37,4.13c-1.92,2.72-3.51,5.4-4.74,7.9C383.56,91.25,382.75,90.96,381.99,90.65z M387.45,74.24
		c-0.48-3.25-0.56-8.41,2.67-8.41c3.03,0,6.94,4.26,8.86,6.64c-1.89,1.67-3.81,3.64-5.68,5.81c-1.7,0.04-3.35,0.14-4.92,0.31
		C387.97,77.07,387.65,75.61,387.45,74.24L387.45,74.24z M404.91,79.88c1.58,0.25,3.1,0.54,4.52,0.89
		c-0.62,1.24-1.33,2.51-2.12,3.81C406.66,83.17,405.98,81.77,404.91,79.88z M394.41,78.27c1.68-1.91,3.39-3.65,5.08-5.15
		c1.32,1.7,2.61,3.62,3.85,5.69C400.37,78.44,397.35,78.25,394.41,78.27z M389.73,82.82c-0.42-1.16-0.8-2.3-1.12-3.41
		c1.27-0.14,2.61-0.22,3.98-0.27C391.53,80.42,390.65,81.56,389.73,82.82z M393.78,93.52c-3.09-0.39-5.99-0.98-8.55-1.74
		c1.14-2.3,2.58-4.75,4.28-7.22C390.74,87.69,392.15,90.64,393.78,93.52L393.78,93.52z M399.66,94.83
		c-0.82,0.91-1.65,1.77-2.48,2.58c-0.62-0.91-1.24-1.87-1.84-2.88C397.27,94.73,398.43,94.78,399.66,94.83z M407.21,86.33
		c1.09,2.47,2,4.91,2.68,7.22c-2.56,0.35-5.42,0.53-8.45,0.5C403.58,91.56,405.53,88.94,407.21,86.33L407.21,86.33z M400.37,94.03
		c-1.85-0.05-3.69-0.18-5.56-0.39c-1.86-3.2-3.48-6.61-4.73-9.88c1.13-1.58,2.27-3.06,3.61-4.65c3.45-0.05,6.84,0.15,10.19,0.62
		c1.1,1.92,2.04,3.76,2.93,5.68C404.88,88.47,402.7,91.37,400.37,94.03z M409.65,67.49c0.7,0,1.28,0.17,1.73,0.52
		c1.96,1.55,1.18,6.25-1.56,11.97c-1.69-0.41-3.51-0.76-5.44-1.03c-1.36-2.34-2.8-4.49-4.26-6.37
		C402.45,70.59,406.61,67.49,409.65,67.49z M410.66,80.2c6.36-13.4,0.55-18.16-11.05-8.27c-9.4-11.66-16.02-8.08-12.04,6.76
		c-1.86,0.23-3.59,0.56-5.16,0.98c-4.63,1.24-7.26,3.17-7.4,5.44c-0.22,3.6,5.65,6.08,9.05,7.18c-6.52,13.95,0.36,18.32,12.98,6.4
		c10.09,14.33,18.38,12,13.9-4.42C425.72,91.91,425.74,84.16,410.66,80.2z"/>
	
		<ellipse style="clip-path:url(#SVGID_00000162349924421416516950000013094384392611653296_);fill:#F8D512;" cx="386.68" cy="72.58" rx="2.09" ry="2.11"/>
	
		<ellipse style="clip-path:url(#SVGID_00000162349924421416516950000013094384392611653296_);fill:#F8D512;" cx="404.9" cy="105.71" rx="2.27" ry="2.29"/>
	
		<ellipse style="clip-path:url(#SVGID_00000162349924421416516950000013094384392611653296_);fill:#87AB99;" cx="411.44" cy="76.24" rx="2.51" ry="2.54"/>
	<path style="clip-path:url(#SVGID_00000162349924421416516950000013094384392611653296_);fill:#87AB99;" d="M389.65,105.4
		c1.21,0,2.2-1,2.2-2.22s-0.98-2.22-2.2-2.22c-1.21,0-2.2,1-2.2,2.22S388.43,105.4,389.65,105.4z"/>
	<path style="clip-path:url(#SVGID_00000162349924421416516950000013094384392611653296_);" d="M881.07,289.08
		c-0.92-3.13-2.16-6.45-3.67-9.8c1.19-1.91,2.23-3.78,3.13-5.57c8.16,2.11,13.65,5.4,13.45,8.66
		C893.79,285.45,888.62,287.9,881.07,289.08z M878.23,306.24c-3.32,0-8.4-4.47-13.27-11.4c1.27-1.24,2.55-2.57,3.8-3.99
		c3.9,0.09,7.75-0.06,11.59-0.59C881.8,295.56,883.58,306.24,878.23,306.24z M857.24,299.91c-4.47,3.01-8.05,3.92-9.84,2.51
		c-2.38-1.88-1.49-7.53,1.77-14.44c3.47,1.04,7.43,1.83,11.64,2.32c0.91,1.56,1.85,3.04,2.79,4.42
		C861.45,296.76,859.3,298.52,857.24,299.91L857.24,299.91z M845.62,285.65c-13.17-5.36-8.24-11.88,7.15-13.76
		c0.47,1.65,1.04,3.36,1.69,5.09c-2.37,3.36-4.34,6.66-5.85,9.75C847.57,286.39,846.57,286.04,845.62,285.65z M852.37,265.4
		c-0.59-4.02-0.69-10.38,3.3-10.38c3.74,0,8.56,5.26,10.93,8.2c-2.34,2.07-4.7,4.49-7,7.17c-2.1,0.04-4.13,0.18-6.07,0.38
		C853.01,268.9,852.61,267.09,852.37,265.4L852.37,265.4z M873.91,272.36c1.95,0.31,3.83,0.67,5.58,1.1
		c-0.77,1.52-1.64,3.1-2.61,4.7C876.07,276.43,875.23,274.7,873.91,272.36z M860.96,270.37c2.07-2.36,4.18-4.5,6.27-6.35
		c1.63,2.09,3.22,4.46,4.75,7.02C868.3,270.58,864.58,270.36,860.96,270.37z M855.18,275.99c-0.52-1.43-0.99-2.84-1.38-4.21
		c1.57-0.17,3.21-0.28,4.91-0.33C857.39,273.03,856.31,274.43,855.18,275.99z M860.18,289.19c-3.81-0.48-7.39-1.21-10.55-2.15
		c1.4-2.84,3.18-5.86,5.28-8.91C856.42,282,858.16,285.64,860.18,289.19L860.18,289.19z M867.43,290.81
		c-1.01,1.12-2.03,2.18-3.06,3.18c-0.77-1.13-1.53-2.31-2.27-3.55C864.48,290.68,865.91,290.75,867.43,290.81z M876.75,280.33
		c1.35,3.05,2.47,6.06,3.31,8.91c-3.16,0.43-6.69,0.66-10.43,0.61C872.26,286.78,874.68,283.54,876.75,280.33L876.75,280.33z
		 M868.31,289.82c-2.28-0.06-4.55-0.22-6.87-0.48c-2.29-3.94-4.29-8.15-5.84-12.19c1.39-1.95,2.8-3.78,4.45-5.73
		c4.26-0.07,8.44,0.19,12.58,0.76c1.36,2.37,2.52,4.64,3.61,7.01C873.88,282.96,871.18,286.55,868.31,289.82z M879.77,257.08
		c0.86,0,1.58,0.21,2.13,0.65c2.42,1.91,1.46,7.71-1.93,14.77c-2.09-0.51-4.33-0.94-6.71-1.28c-1.68-2.88-3.45-5.54-5.26-7.87
		C870.88,260.89,876,257.08,879.77,257.08z M881,272.76c7.85-16.53,0.68-22.41-13.64-10.2c-11.6-14.39-19.77-9.97-14.86,8.34
		c-2.29,0.29-4.44,0.69-6.36,1.2c-5.72,1.53-8.96,3.92-9.13,6.71c-0.27,4.44,6.97,7.5,11.17,8.86c-8.05,17.21,0.44,22.6,16.02,7.9
		c12.45,17.69,22.69,14.81,17.16-5.46C899.59,287.21,899.62,277.64,881,272.76z"/>
	<path style="clip-path:url(#SVGID_00000162349924421416516950000013094384392611653296_);fill:#F8D512;" d="M851.42,265.96
		c1.42,0,2.58-1.17,2.58-2.61s-1.15-2.61-2.58-2.61s-2.58,1.17-2.58,2.61S849.99,265.96,851.42,265.96z"/>
	
		<ellipse style="clip-path:url(#SVGID_00000162349924421416516950000013094384392611653296_);fill:#F8D512;" cx="873.9" cy="304.24" rx="2.8" ry="2.83"/>
	<path style="clip-path:url(#SVGID_00000162349924421416516950000013094384392611653296_);fill:#87AB99;" d="M881.97,271
		c1.71,0,3.1-1.4,3.1-3.14s-1.39-3.14-3.1-3.14c-1.71,0-3.1,1.4-3.1,3.14S880.26,271,881.97,271z"/>
	
		<ellipse style="clip-path:url(#SVGID_00000162349924421416516950000013094384392611653296_);fill:#87AB99;" cx="855.07" cy="301.11" rx="2.71" ry="2.74"/>
</g>
</svg>
