<?xml version="1.0" encoding="utf-8"?>
<!-- Generator: Adobe Illustrator 28.1.0, SVG Export Plug-In . SVG Version: 6.00 Build 0)  -->
<svg version="1.1" id="Layer_1" xmlns="http://www.w3.org/2000/svg" xmlns:xlink="http://www.w3.org/1999/xlink" x="0px" y="0px"
	 viewBox="0 0 271 150" style="enable-background:new 0 0 271 150;" xml:space="preserve">
<style type="text/css">
	.st0{fill:#5185F7;}
	.st1{fill:#FFFFFF;}
</style>
<g>
	<circle class="st0" cx="135.5" cy="75" r="45"/>
	<path class="st1" d="M135.3,100.2c-0.1,0-0.2-0.1-0.3-0.1c-3-0.7-4.7-3.7-3.6-6.6c0.9-2.5,2-5,3-7.5c0.2-0.4,0.1-0.6-0.2-0.8
		c-1.1-0.8-2.1-1.7-3.2-2.5c-0.4,0.8-0.9,1.5-1.3,2.2c-1,1.8-2.6,2.7-4.7,2.7c-4.4,0-8.7,0-13.1,0c-2.9,0-5-2.3-4.9-5.1
		c0.1-2.6,2.2-4.7,4.8-4.7c3.4,0,6.8,0,10.2,0c0.3,0,0.5,0,0.6-0.3c2.4-4.3,4.9-8.6,7.3-12.9c0-0.1,0.1-0.1,0.1-0.3
		c-0.8,0-1.6,0-2.4,0c-0.1,0-0.3,0.2-0.4,0.4c-0.9,1.6-1.7,3.2-2.7,4.8c-1.1,1.8-2.8,2.6-4.8,2.4c-2-0.3-3.4-1.5-4.1-3.5
		c-0.4-1.2-0.3-2.5,0.3-3.6c1.4-2.7,2.9-5.4,4.4-8.1c0.9-1.6,2.4-2.3,4.2-2.3c3.7,0,7.4,0,11.1,0c0.2,0,0.4,0,0.7,0
		c-0.3-1.5-0.3-3,0.2-4.4c1-2.5,2.8-4,5.4-4.5c0.1,0,0.2-0.1,0.3-0.1c0.6,0,1.2,0,1.8,0c0.1,0,0.2,0.1,0.3,0.1
		c3.2,0.6,5.7,3.3,5.9,6.5c0.2,3.4-1.8,6.4-5,7.4c-0.3,0.1-0.5,0.1-0.8,0.2c1,1.6,2,3.1,3,4.7c0.2-0.1,0.3-0.2,0.5-0.3
		c1.2-0.7,2.5-1.4,3.7-2.1c1.8-0.9,3.6-0.7,5.1,0.6c2.7,2.1,2.4,6.3-0.5,8.1c-2.6,1.6-5.3,3-7.9,4.5c-2.5,1.4-5.2,0.7-6.7-1.7
		c-0.4-0.7-0.9-1.3-1.3-2.1c-0.9,1.5-1.7,3-2.6,4.4c0.2,0.2,0.4,0.3,0.5,0.4c1.7,1.3,3.4,2.6,5,4c1.7,1.3,2.3,3.5,1.6,5.5
		c-1.5,3.9-3.1,7.9-4.7,11.8c-0.6,1.4-1.7,2.3-3.1,2.7c-0.2,0.1-0.4,0.1-0.6,0.2L135.3,100.2L135.3,100.2z M131.5,57.5
		c-2.2,0-4.4,0-6.6,0c-0.7,0-1.2,0.3-1.5,0.9c-1.4,2.6-2.8,5.2-4.2,7.8c-0.3,0.6-0.3,1.2,0.1,1.8c0.4,0.6,1,0.8,1.6,0.7
		c0.6-0.1,1-0.5,1.3-1c1-1.9,2-3.7,3-5.6c0.3-0.6,0.8-1,1.5-1c2.1,0,4.2,0,6.2,0c0.3,0,0.7,0.2,1,0.4c0.7,0.5,0.7,1.3,0.2,2.2
		c-3.1,5.4-6.2,10.9-9.3,16.3c-0.4,0.7-1,1-1.8,1c-3.7,0-7.4,0-11.1,0c-1.2,0-1.9,0.7-1.9,1.7c0,1,0.8,1.7,1.9,1.7c4.3,0,8.7,0,13,0
		c0.8,0,1.4-0.3,1.8-1.1c0.7-1.2,1.4-2.4,2.1-3.6c0.7-1.2,1.7-1.4,2.8-0.5c1.8,1.4,3.6,2.9,5.4,4.3c1,0.8,1.2,1.4,0.7,2.6
		c-1.1,2.8-2.2,5.6-3.4,8.4c-0.5,1.1,0.1,2.2,1.2,2.5c0.9,0.2,1.6-0.3,2-1.3c1.4-3.6,2.9-7.2,4.3-10.7c0.5-1.2,0.3-1.8-0.7-2.6
		c-2-1.6-4.1-3.2-6.1-4.9c-0.9-0.8-1.1-1.5-0.5-2.5c1.4-2.5,2.9-4.9,4.3-7.4c0.8-1.4,2.1-1.4,3-0.1c0.9,1.4,1.8,2.7,2.7,4.1
		c0.5,0.8,1.4,1.1,2.3,0.6c2.7-1.5,5.3-3,8-4.4c0.5-0.3,0.8-0.8,0.9-1.3c0.1-0.7-0.2-1.2-0.7-1.6c-0.6-0.4-1.2-0.4-1.8-0.1
		c-1.6,0.9-3.3,1.8-4.9,2.7c-1.2,0.7-1.9,0.5-2.7-0.7c-1.5-2.4-3.1-4.7-4.6-7.1c-0.3-0.5-0.7-1-1.3-1.3c-0.4-0.2-0.7-0.5-1-0.7
		c-0.2-0.1-0.5-0.3-0.7-0.3C135.8,57.5,133.6,57.5,131.5,57.5L131.5,57.5z M143.5,56.3c2.2,0,3.9-1.7,3.9-3.9c0-2.2-1.7-4-3.9-4
		c-2.1,0-3.9,1.7-3.9,3.9C139.6,54.6,141.3,56.3,143.5,56.3L143.5,56.3z"/>
</g>
</svg>
