<svg width="123" height="120" viewBox="0 0 123 120" fill="none" xmlns="http://www.w3.org/2000/svg">
<path d="M104.903 45.4074C104.466 45.9036 104.037 46.4073 103.59 46.8943C103.058 47.4736 102.429 47.9309 101.766 48.3525C100.791 48.9718 99.8389 49.6252 98.8761 50.2629C97.5927 51.1126 96.3084 51.9606 95.025 52.8103C94.1019 53.4214 93.1805 54.0354 92.2573 54.6462C91.1481 55.3797 90.0374 56.1106 88.928 56.8434C87.6535 57.6851 86.3797 58.5281 85.1054 59.3701C83.8502 60.1995 82.5941 61.0274 81.3393 61.8578C79.9201 62.797 78.5031 63.7393 77.0839 64.6779C75.8395 65.5008 74.5919 66.3197 73.3471 67.1421C72.0338 68.0101 70.7222 68.8804 69.4098 69.7492C68.7094 70.2128 68.0084 70.6754 67.3082 71.1393C67.2309 71.1904 67.1459 71.2374 67.0853 71.3049C66.9091 71.5012 66.6794 71.5773 66.4324 71.5985C65.4387 71.684 64.4537 71.6219 63.4743 71.4286C62.5812 71.2522 61.709 71.01 60.8409 70.7346C59.3317 70.2564 57.8994 69.6201 56.5709 68.7625C56.1719 68.5049 55.8164 68.1765 55.4565 67.8625C55.1421 67.5883 54.9516 67.239 54.847 66.8257C54.2797 64.5873 53.697 62.3527 53.1206 60.117C52.5182 57.7805 51.9191 55.4427 51.3144 53.1067C50.6305 50.4658 49.939 47.8268 49.2562 45.1854C48.4857 42.2057 47.7238 39.2243 46.9534 36.2446C46.1946 33.3093 45.4289 30.3759 44.6682 27.4412C44.1678 25.5112 43.6703 23.5805 43.1736 21.6496C43.1389 21.5145 43.1151 21.376 43.0972 21.2378C43.0555 20.917 43.1426 20.7617 43.4135 20.6557C43.6536 20.5618 43.8987 20.6319 44.059 20.8598C44.2001 21.0599 44.3172 21.2767 44.4571 21.4776C45.0519 22.3318 45.7384 23.1083 46.5137 23.8007C47.2956 24.4991 48.0686 25.2143 48.9037 25.8456C50.0739 26.7299 51.2719 27.5836 52.5055 28.3763C53.9455 29.3015 55.4224 30.1725 56.9106 31.0188C58.1346 31.7147 59.3915 32.355 60.6472 32.9932C61.7782 33.5678 62.9224 34.1171 64.0702 34.6577C64.9132 35.0546 65.7663 35.4308 66.624 35.795C68.0299 36.3919 69.44 36.9792 70.8544 37.5555C71.9783 38.0135 73.1063 38.4621 74.2415 38.8911C75.1798 39.2455 76.1285 39.5733 77.0778 39.8972C78.0373 40.2246 78.9982 40.5481 79.9671 40.8456C81.3022 41.2554 82.6433 41.6465 83.986 42.032C85.0266 42.3308 86.0689 42.6263 87.1186 42.8906C88.2926 43.1862 89.471 43.4695 90.6563 43.7138C92.1732 44.0267 93.696 44.3119 95.2219 44.5782C96.8065 44.8548 98.4048 45.041 100.009 45.1518C101.475 45.253 102.944 45.3053 104.413 45.1924C104.609 45.1774 104.806 45.1613 105.002 45.1456L104.903 45.4076L104.903 45.4074Z" fill="#F8CC71"/>
<path d="M78.2408 27.1622C78.3483 27.2243 78.45 27.3016 78.5643 27.3465C79.4553 27.6974 80.3567 28.0229 81.2388 28.3944C81.9782 28.7057 82.6956 29.0697 83.4241 29.4076C83.8043 29.5839 84.1891 29.7502 84.5686 29.9282C85.4327 30.3337 86.2905 30.7524 87.1583 31.1498C88.7992 31.901 90.3946 32.7428 91.9933 33.5777C92.6435 33.9172 93.3111 34.2272 93.9418 34.5992C94.6932 35.0423 95.4197 35.5285 96.1459 36.0128C96.9499 36.5489 97.7517 37.0892 98.5348 37.6545C99.3848 38.2679 100.22 38.9021 101.046 39.5473C101.479 39.8848 101.88 40.2648 102.087 40.7946C102.283 41.2964 102.307 41.789 101.991 42.2629C101.848 42.4781 101.649 42.6187 101.416 42.6963C100.889 42.8714 100.347 42.9021 99.7936 42.8543C98.7954 42.7682 97.7954 42.7038 96.796 42.6334C96.6803 42.6254 96.5593 42.6207 96.4469 42.6442C96.0667 42.7237 95.7623 42.5827 95.4895 42.3388C94.2978 41.273 93.0381 40.292 91.759 39.3347C90.3048 38.2461 88.8029 37.2264 87.2658 36.2595C85.6688 35.2547 84.0423 34.2987 82.3621 33.4389C81.3055 32.8981 80.2432 32.368 79.1747 31.8512C78.4832 31.5167 77.7798 31.2054 77.0743 30.9013C76.3142 30.5737 75.5446 30.2682 74.7805 29.9497C74.5011 29.8333 74.2314 29.6921 73.9475 29.589C73.0158 29.2509 72.0868 28.9032 71.1435 28.5992C69.2266 27.9817 67.294 27.4164 65.3282 26.9729C62.7227 26.3851 60.0939 25.9523 57.4231 25.7981C56.1883 25.7268 54.9538 25.6975 53.7186 25.7604C53.242 25.7848 52.7654 25.8242 52.2913 25.8794C51.9516 25.919 51.699 25.8681 51.4834 25.5496C51.2985 25.2765 51.0141 25.0676 50.7624 24.8432C50.0856 24.2395 49.4644 23.5706 48.6818 23.0913C48.2052 22.7995 47.9393 22.3458 47.8235 21.8201C47.7114 21.3111 47.8643 20.8441 48.2311 20.4718C48.3476 20.3537 48.5186 20.2584 48.6802 20.2209C49.3031 20.0767 49.9248 19.9578 50.5777 19.967C51.7563 19.9837 52.9306 20.0404 54.0982 20.1876C55.5431 20.37 56.9752 20.6313 58.3965 20.9534C59.5093 21.2056 60.6327 21.4115 61.7437 21.6714C62.5818 21.8674 63.4098 22.109 64.2387 22.3426C65.9923 22.8367 67.6787 23.5236 69.3894 24.1426C70.3518 24.4908 71.344 24.7557 72.3173 25.0747C73.2145 25.369 74.104 25.6869 74.9983 25.9901C75.1134 26.0292 75.2378 26.041 75.3578 26.0651L78.2405 27.1623L78.2408 27.1622Z" fill="#F8CC71"/>
<path d="M65.4648 73.7671C65.3042 74.0878 65.1714 74.3456 65.0447 74.6063C64.7091 75.2971 64.375 75.9884 64.0427 76.6808C63.5544 77.6986 63.0662 78.7168 62.5812 79.7362C62.0461 80.8609 61.5154 81.9879 60.9814 83.1131C60.4825 84.1647 59.9819 85.2156 59.4812 86.2665C58.9858 87.3068 58.4899 88.3467 57.9935 89.3863C57.5022 90.4156 57.0097 91.4445 56.5185 92.4736C56.0223 93.5136 55.5273 94.5541 55.031 95.5937C54.4145 96.8857 53.7974 98.1774 53.1802 99.4691C52.9394 99.9732 52.6974 100.477 52.4567 100.981C52.3876 101.126 52.3326 101.264 52.3318 101.439C52.3307 101.743 52.0382 101.989 51.7647 101.913C51.0397 101.711 50.329 101.813 49.6213 101.975C48.2871 102.28 47.0506 102.805 45.9632 103.652C45.6663 103.884 45.4053 104.146 45.2236 104.481C45.097 104.714 44.761 104.846 44.5464 104.75C44.3052 104.642 44.1583 104.339 44.2312 104.08C44.3701 103.587 44.515 103.096 44.6567 102.604C44.9723 101.508 45.2857 100.412 45.6039 99.3166C45.948 98.1318 46.2983 96.9487 46.6429 95.7641C46.9617 94.6688 47.2763 93.5725 47.5935 92.477C47.9142 91.3701 48.2368 90.264 48.5572 89.1571C48.8709 88.0728 49.183 86.9878 49.4962 85.9033C49.8127 84.8075 50.1294 83.7117 50.4469 82.6162C50.7675 81.5094 51.0899 80.4032 51.4105 79.2963C51.8052 77.9325 52.1987 76.5683 52.5931 75.2044C52.9098 74.1086 53.226 73.0129 53.5445 71.9176C53.7133 71.3366 53.8848 70.7562 54.0601 70.1772C54.0901 70.0779 54.1341 69.9777 54.1933 69.8935C54.4461 69.5332 54.7927 69.4826 55.1151 69.7828C55.88 70.4952 56.7359 71.0734 57.6565 71.5608C58.5447 72.0308 59.4649 72.4135 60.4365 72.6871C61.4067 72.9605 62.3862 73.1477 63.3908 73.193C63.7855 73.2107 64.1824 73.182 64.5783 73.1717C64.7064 73.1684 64.8343 73.1498 64.9624 73.1496C65.3641 73.149 65.5807 73.4604 65.4654 73.7671L65.4648 73.7671Z" fill="#F8CC71"/>
<path d="M76.6848 24.3909C77.8529 24.8356 79.0279 25.2629 80.1874 25.7294C81.4218 26.2261 82.6458 26.7493 83.8662 27.28C84.9039 27.7315 85.9341 28.2007 86.9597 28.6797C87.8686 29.1039 88.7695 29.5455 89.6681 29.991C90.7443 30.5244 91.8246 31.0513 92.8844 31.616C94.0267 32.2247 95.1552 32.8602 96.2756 33.5086C97.8411 34.4148 99.3714 35.3783 100.844 36.4295C101.956 37.2232 103.049 38.0442 104.035 38.9943C104.708 39.6433 105.349 40.3247 105.83 41.1362C106.094 41.5817 106.3 42.0477 106.345 42.5746C106.418 43.4428 105.728 44.4941 104.799 44.6263C104.753 44.6329 104.703 44.64 104.666 44.6639C104.069 45.0468 103.381 45.0689 102.711 45.1281C100.757 45.3006 98.8133 45.1308 96.8841 44.8335C95.2823 44.5867 93.6856 44.2965 92.099 43.9655C90.7295 43.6798 89.3747 43.3218 88.0191 42.973C86.9006 42.6854 85.788 42.374 84.6779 42.0544C83.8818 41.8252 83.0925 41.5723 82.3042 41.3172C80.9383 40.8753 79.5697 40.4411 78.2134 39.9707C77.0217 39.5574 75.8423 39.1077 74.6637 38.6585C73.0166 38.0304 71.3673 37.4069 69.7335 36.7454C68.49 36.2418 67.2673 35.6856 66.0387 35.1459C65.1731 34.7658 64.3078 34.3842 63.4513 33.9846C62.5735 33.5754 61.7035 33.1497 60.8358 32.7199C59.9993 32.306 59.1626 31.8919 58.3394 31.4525C57.0942 30.7879 55.8523 30.1164 54.6247 29.4205C53.0002 28.4995 51.4187 27.507 49.8924 26.4301C48.5366 25.4738 47.2271 24.4585 46.0658 23.2659C45.5511 22.7371 45.0732 22.1764 44.7132 21.53C44.5556 21.247 44.4255 20.9397 44.3398 20.6278C44.0634 19.6214 44.445 18.7695 45.3658 18.2707C45.8218 18.0238 46.3096 17.8704 46.817 17.7689C48.065 17.519 49.3247 17.5305 50.5857 17.6004C52.3592 17.6987 54.117 17.9353 55.8612 18.2646C57.1102 18.5004 58.3571 18.7505 59.5968 19.0292C60.6431 19.2642 61.6812 19.5393 62.7177 19.8156C63.8784 20.1249 65.0378 20.441 66.19 20.7805C67.1411 21.0609 68.0835 21.3729 69.0256 21.6828C70.1897 22.0659 71.3536 22.4504 72.5105 22.8541C73.9106 23.3429 75.3034 23.8523 76.6993 24.3529L76.6853 24.3911L76.6848 24.3909ZM93.7962 42.0838C93.8785 42.1151 93.9477 42.1535 94.022 42.1677C94.8238 42.3217 95.6232 42.4909 96.4292 42.6191C97.6869 42.8188 98.9524 42.9563 100.229 42.9287C100.79 42.9166 101.352 42.8701 101.885 42.675C102.512 42.4458 102.638 42.1358 102.352 41.5385C102.095 41.0038 101.708 40.5656 101.286 40.1593C100.518 39.4212 99.6806 38.7678 98.8127 38.1528C96.4175 36.4562 93.8786 34.9965 91.2786 33.644C89.6226 32.7825 87.9477 31.9558 86.2645 31.1482C84.8965 30.492 83.5076 29.8789 82.1208 29.2635C81.0965 28.8089 80.0642 28.3709 79.0282 27.9436C77.8406 27.4539 76.6496 26.9709 75.4509 26.5091C74.3504 26.0852 73.239 25.689 72.1298 25.2878C70.922 24.8507 69.7176 24.4015 68.4992 23.9948C66.9717 23.4847 65.4337 23.0049 63.8955 22.5263C62.926 22.2246 61.9548 21.9251 60.973 21.668C59.5623 21.2982 58.1429 20.9615 56.7242 20.6228C55.2361 20.2675 53.7306 20.0028 52.2125 19.8138C51.0747 19.672 49.9324 19.5769 48.7896 19.7217C48.401 19.7709 48.0113 19.8817 47.6462 20.0257C47.2647 20.1762 47.1684 20.4733 47.3211 20.8602C47.3976 21.0542 47.4849 21.2546 47.6129 21.4154C47.9176 21.7981 48.2266 22.1827 48.5751 22.5244C49.4866 23.4185 50.5181 24.1655 51.5728 24.8795C52.0463 25.2 52.5333 25.5003 53.0087 25.8177C53.1639 25.9212 53.2821 25.9242 53.3943 25.764C53.5263 25.5749 53.7328 25.5672 53.9313 25.5728C55.168 25.6089 56.4065 25.6176 57.6401 25.6991C59.7968 25.8415 61.9342 26.1561 64.0532 26.5796C65.2196 26.8128 66.3799 27.0805 67.5346 27.3666C68.4059 27.5825 69.2684 27.8378 70.1271 28.1009C71.243 28.4426 72.3614 28.7799 73.4604 29.1711C75.2758 29.8174 77.0713 30.5181 78.818 31.3367C79.5259 31.6685 80.2507 31.9667 80.9446 32.3259C82.1769 32.9638 83.4034 33.6151 84.6107 34.2991C87.3599 35.8562 89.9474 37.6498 92.3402 39.717C92.8699 40.1747 93.3824 40.6532 93.8886 41.1374C94.2303 41.4646 94.2114 41.6545 93.859 41.9724C93.8356 41.9934 93.8261 42.0294 93.796 42.0842L93.7962 42.0838ZM76.9484 37.0412C76.9584 37.0202 76.9684 36.9991 76.9783 36.978C76.9663 36.9589 76.9582 36.9287 76.9414 36.9223C76.3979 36.719 75.8532 36.5196 75.3095 36.3168C74.9621 36.1874 74.6147 36.0571 74.2697 35.9213C74.1297 35.8661 73.9983 35.7892 73.858 35.7347C73.8088 35.7157 73.7452 35.7343 73.6879 35.7357C73.6831 35.7609 73.678 35.7861 73.673 35.8116C74.767 36.216 75.8384 36.6789 76.9485 37.041L76.9484 37.0412ZM92.3374 41.7035C92.3313 41.7342 92.3253 41.7649 92.3189 41.7954C92.6941 41.91 93.0761 41.9911 93.5358 42.0378C93.3956 41.8133 93.2941 41.6402 93.0925 41.6367C92.8412 41.6322 92.5892 41.6789 92.3374 41.7035Z" fill="#A67C66"/>
<path d="M59.3269 72.2249C58.0254 71.7106 56.7923 71.0841 55.706 70.1918C55.2701 69.8336 54.8946 69.4234 54.5732 68.9575C54.2964 68.5564 54.4587 68.1734 54.5873 67.7921C54.642 67.6301 54.8153 67.5795 54.9709 67.6466C55.1057 67.7046 55.2381 67.793 55.34 67.8983C56.2272 68.8152 57.2643 69.5225 58.4008 70.0861C58.9647 70.3659 59.532 70.6489 60.1223 70.8622C61.3655 71.3116 62.6387 71.6505 63.9742 71.6833C64.5378 71.6971 65.0937 71.6577 65.6376 71.4971C65.7258 71.4711 65.8218 71.4495 65.9118 71.4561C66.0697 71.4673 66.204 71.5332 66.2733 71.6918C66.3423 71.8498 66.3177 72.0003 66.1977 72.1109C66.0625 72.2355 65.9886 72.3832 65.9323 72.5525C65.8579 72.7774 65.6566 72.856 65.454 72.9248C64.8931 73.1155 64.3112 73.1657 63.7256 73.1539C62.7879 73.135 61.8666 72.9901 60.9656 72.7301C60.4165 72.5717 59.873 72.3942 59.3268 72.2252L59.3269 72.2249Z" fill="#A67C66"/>
<path d="M44.0811 105.07C44.2377 104.87 44.3777 104.653 44.5545 104.473C45.0075 104.012 45.5461 103.659 46.0994 103.331C47.0984 102.739 48.1487 102.26 49.2649 101.936C49.7579 101.794 50.2577 101.666 50.7812 101.738C51.3531 101.817 51.6376 102.332 51.3751 102.847C51.2818 103.031 51.1434 103.198 50.9993 103.348C50.5254 103.839 49.9622 104.217 49.3763 104.56C48.3953 105.134 47.3719 105.62 46.274 105.924C45.8609 106.038 45.4286 106.088 45.0022 106.147C44.8694 106.166 44.7213 106.136 44.5901 106.096C44.0754 105.94 43.9153 105.594 44.0804 105.07L44.0811 105.07Z" fill="#A67C66"/>
<path d="M106.423 44.5875C106.284 44.7709 106.152 44.9604 106.005 45.1366C105.509 45.73 104.962 46.2762 104.343 46.7371C103.04 47.7058 101.746 48.6879 100.405 49.6009C89.4748 57.0423 78.504 64.4222 67.3777 71.5685C67.1632 71.7062 67.0146 71.8733 66.9035 72.1064C65.9951 74.0149 65.0748 75.918 64.1592 77.8233C63.5217 79.1494 62.8863 80.4767 62.249 81.8029C61.4396 83.4872 60.6289 85.1707 59.82 86.8551C59.1678 88.2132 58.5187 89.5726 57.8663 90.9306C57.0774 92.5729 56.2857 94.2136 55.4966 95.8558C54.8441 97.2137 54.1938 98.5728 53.5421 99.931C53.3552 100.321 53.1535 100.704 52.9825 101.1C52.8117 101.496 52.6455 101.897 52.5222 102.309C52.3361 102.931 52.0154 103.465 51.5512 103.907C51.2221 104.221 50.8796 104.524 50.5181 104.799C49.4986 105.576 48.3779 106.176 47.1838 106.637C46.1749 107.027 45.144 107.311 44.0434 107.182L43.4537 106.957C43.4459 106.936 43.4442 106.907 43.429 106.894C42.9164 106.47 42.867 105.92 43.0283 105.332C43.3126 104.295 43.6158 103.264 43.9117 102.231C44.4166 100.469 44.9218 98.7057 45.4275 96.943C45.8365 95.5173 46.2466 94.0918 46.656 92.6659C47.1682 90.8808 47.6794 89.0957 48.1917 87.3106C48.5976 85.896 49.0047 84.4819 49.4106 83.0673C49.926 81.2711 50.4404 79.4746 50.9564 77.6783C51.3691 76.2415 51.7843 74.8053 52.1968 73.3683C52.7027 71.6057 53.2074 69.8429 53.7123 68.08C53.8055 67.7543 53.8881 67.4251 53.9952 67.1041C54.0617 66.9044 54.0486 66.7219 53.994 66.5233C53.1279 63.3814 52.2479 60.2432 51.4081 57.094C48.8133 47.3646 46.2764 37.6199 43.8547 27.8458C43.4954 26.3954 43.2043 24.9277 42.9 23.4642C42.7428 22.708 42.6995 21.9376 42.6954 21.1645C42.6876 19.6265 43.5895 18.3683 45.0033 17.8016C45.6933 17.5253 46.4172 17.3977 47.1521 17.3274C48.6938 17.1798 50.2318 17.2657 51.7675 17.4203C53.8617 17.6309 55.9295 18.0033 57.9862 18.4407C60.8897 19.0582 63.7567 19.8176 66.5957 20.6807C71.0911 22.0482 75.5256 23.5927 79.8649 25.3989C82.0862 26.3235 84.2979 27.2734 86.4917 28.2608C88.7814 29.2914 91.0198 30.4304 93.2385 31.6078C95.6238 32.8735 97.9395 34.2522 100.172 35.7705C101.65 36.7764 103.077 37.8499 104.371 39.091C104.97 39.6664 105.53 40.2769 105.997 40.967C106.287 41.395 106.532 41.8458 106.672 42.3461C106.8 42.8032 106.849 43.2621 106.681 43.724C106.65 43.8082 106.657 43.9063 106.647 43.9978L106.423 44.5875ZM44.1927 22.4864C44.1664 22.4931 44.14 22.5001 44.1137 22.5069C44.1493 22.7561 44.1698 23.0085 44.2238 23.2538C44.5914 24.9306 44.9268 26.6157 45.3447 28.2798C48.4329 40.5717 51.589 52.8458 54.9683 65.0614C55.1385 65.6764 55.4033 66.2225 55.8195 66.6875C56.192 67.1036 56.5837 67.5112 57.0148 67.8643C58.5802 69.1461 60.3823 69.9492 62.3463 70.3959C63.3538 70.6251 64.3761 70.7324 65.4075 70.6042C66.1759 70.5089 66.9017 70.3021 67.5678 69.8624C72.861 66.368 78.1805 62.9136 83.4598 59.3983C88.914 55.7665 94.3353 52.0853 99.7626 48.4133C100.846 47.6805 101.891 46.893 102.953 46.1288C103.05 46.0588 103.137 45.9745 103.229 45.897C103.118 45.8434 103.04 45.84 102.963 45.8479C101.997 45.9472 101.029 45.954 100.059 45.9049C97.0985 45.7547 94.1923 45.2348 91.3053 44.5941C88.8873 44.0576 86.4968 43.4144 84.1217 42.7125C81.4771 41.9313 78.8588 41.07 76.2651 40.1353C72.6704 38.8398 69.1164 37.4401 65.63 35.8747C64.0213 35.1525 62.4195 34.4137 60.8313 33.6473C58.5064 32.5254 56.2257 31.3177 53.9929 30.0208C51.9924 28.8591 50.0349 27.6307 48.1845 26.2384C46.9417 25.3033 45.7487 24.3108 44.7249 23.1314C44.5422 22.921 44.3697 22.7016 44.1923 22.4862L44.1927 22.4864ZM45.037 103.338C45.1736 103.25 45.2585 103.191 45.3478 103.139C46.0453 102.737 46.7222 102.292 47.4463 101.946C48.7262 101.333 50.047 100.831 51.5362 101.002C55.8327 92.0575 60.1273 83.1174 64.4323 74.1562C60.5939 74.2142 57.3397 72.8702 54.4954 70.4388C54.332 70.6531 45.1198 102.862 45.037 103.338ZM74.1279 37.9197C78.3609 39.5247 83.4292 41.2299 88.6191 42.5597C91.3358 43.2558 94.0717 43.8566 96.8501 44.2488C98.5633 44.4908 100.283 44.666 102.016 44.5755C102.609 44.5446 103.202 44.46 103.786 44.3542C104.114 44.2948 104.441 44.1722 104.742 44.025C105.422 43.6933 105.592 43.2328 105.316 42.5232C105.22 42.2745 105.1 42.027 104.946 41.8103C104.67 41.4206 104.381 41.036 104.06 40.6825C103.091 39.6134 101.97 38.7158 100.814 37.8597C98.2076 35.929 95.4058 34.3121 92.5559 32.7799C90.921 31.901 89.2529 31.0821 87.585 30.2664C84.9187 28.9622 82.1965 27.781 79.4447 26.6705C76.6168 25.529 73.7684 24.4395 70.8744 23.4761C69.1236 22.893 67.3663 22.327 65.6005 21.7914C63.3424 21.1066 61.0617 20.5027 58.7596 19.9812C56.3659 19.4391 53.9573 18.9837 51.5132 18.7391C50.0356 18.5913 48.5553 18.5131 47.0736 18.6897C46.5269 18.7547 45.9877 18.8581 45.4783 19.0771C44.5825 19.4624 44.3655 19.987 44.7974 20.8631C45.0019 21.2778 45.2732 21.6682 45.5625 22.031C46.324 22.9859 47.2447 23.7802 48.1972 24.5364C50.5911 26.4374 53.1852 28.0344 55.8438 29.5294C58.8795 31.2367 62.0022 32.7727 65.175 34.2065C67.8691 35.424 70.5994 36.5551 74.1282 37.9195L74.1279 37.9197ZM55.1538 68.0357C55.0727 68.2883 55.0125 68.5002 54.9363 68.7063C54.8618 68.9069 54.9058 69.0676 55.0579 69.2107C55.3807 69.5136 55.6826 69.8418 56.0255 70.1197C57.236 71.1009 58.6124 71.7797 60.0797 72.2836C61.1668 72.6569 62.279 72.92 63.4325 72.9294C63.9066 72.9332 64.3821 72.8508 64.8553 72.7939C64.9513 72.7824 65.0786 72.7316 65.1243 72.6576C65.2482 72.457 65.3358 72.2343 65.4494 71.996C61.4551 72.091 58.0761 70.7333 55.1537 68.0359L55.1538 68.0357ZM44.4458 105.855C44.6604 105.855 44.7986 105.875 44.9279 105.85C45.3166 105.776 45.7114 105.713 46.087 105.594C47.5126 105.14 48.8135 104.441 49.9874 103.514C50.2784 103.284 50.5347 103.008 50.7976 102.744C50.8822 102.659 50.9368 102.545 51.051 102.375C50.8423 102.358 50.7069 102.319 50.5834 102.342C50.1718 102.42 49.7544 102.49 49.3576 102.619C48.0142 103.055 46.7816 103.712 45.668 104.58C45.3385 104.837 45.0438 105.14 44.7447 105.433C44.6425 105.533 44.5753 105.669 44.4461 105.855L44.4458 105.855Z" fill="#65352B"/>
<path d="M75.4719 26.0725C79.3731 27.5713 82.5171 28.8627 85.6215 30.2492C87.8932 31.264 90.1366 32.3382 92.3493 33.4758C94.1462 34.3996 95.9121 35.3801 97.6277 36.4474C99.0366 37.3236 100.412 38.2523 101.622 39.3961C101.992 39.7462 102.313 40.1535 102.626 40.5581C102.773 40.7474 102.874 40.9838 102.949 41.2139C103.209 42.0039 102.916 42.6844 102.175 43.0603C101.773 43.2638 101.341 43.3813 100.897 43.4047C100.233 43.4396 99.5661 43.4738 98.9037 43.4403C97.0799 43.348 95.2851 43.0294 93.5024 42.6514C91.1712 42.1571 88.8572 41.5886 86.5767 40.8965C84.4313 40.2454 82.2933 39.5683 80.1623 38.8716C77.2413 37.9166 74.3667 36.832 71.5089 35.704C68.64 34.5718 65.8024 33.3648 62.9988 32.0797C60.6205 30.9897 58.2681 29.8447 55.9696 28.5941C53.8251 27.4273 51.7074 26.2137 49.7579 24.7342C49.2012 24.3116 48.6655 23.8555 48.1598 23.3732C47.825 23.054 47.5317 22.6798 47.2753 22.2935C47.1061 22.0381 46.9888 21.7265 46.9305 21.4242C46.813 20.8134 47.0522 20.3253 47.5738 19.9854C47.9322 19.7517 48.3336 19.6319 48.7536 19.5656C49.6012 19.432 50.453 19.442 51.3045 19.5025C53.1018 19.63 54.8753 19.9212 56.6294 20.3255C58.1765 20.6821 59.7253 21.0359 61.2588 21.4451C62.8154 21.8607 64.3603 22.3229 65.8989 22.8012C67.5829 23.3247 69.2611 23.8687 70.9286 24.4424C72.6957 25.0504 74.4472 25.7037 75.4723 26.0729L75.4719 26.0725ZM75.807 27.4669C72.9556 26.416 70.0937 25.4005 67.1998 24.4774C65.4756 23.9273 63.7464 23.3894 62.0044 22.8991C59.5203 22.2002 57.0183 21.568 54.4711 21.1332C53.0428 20.8895 51.6123 20.6716 50.1587 20.6679C49.6319 20.6667 49.1074 20.6955 48.5988 20.8513C48.0829 21.0097 47.9941 21.188 48.2933 21.6276C48.5409 21.9913 48.8363 22.3294 49.1482 22.641C49.8609 23.3531 50.6927 23.9199 51.5029 24.5131C51.899 24.8031 52.294 24.9045 52.7942 24.8735C55.547 24.7035 58.2744 24.9777 60.9871 25.4309C64.0562 25.9438 67.0628 26.7103 70.028 27.6496C73.1611 28.642 76.2212 29.8232 79.2107 31.1861C81.954 32.4368 84.6238 33.8296 87.1953 35.4065C90.1582 37.2236 92.9772 39.2331 95.4884 41.6501C95.6207 41.7776 95.762 41.8557 95.9429 41.8843C97.1891 42.0819 98.4385 42.2588 99.7031 42.2507C100.168 42.2476 100.634 42.1886 101.096 42.1335C101.266 42.1133 101.437 42.047 101.593 41.9731C101.825 41.8636 101.871 41.7513 101.762 41.5219C101.667 41.3236 101.559 41.1196 101.411 40.9614C101.012 40.5364 100.613 40.1064 100.171 39.7288C98.9604 38.6945 97.6129 37.8509 96.2536 37.03C94.2535 35.8217 92.2008 34.7069 90.0911 33.7035C87.803 32.6151 85.5137 31.526 83.1915 30.5141C80.7507 29.4506 78.2705 28.4786 75.8074 27.4665L75.807 27.4669ZM93.242 41.3592C93.2558 41.3368 93.2699 41.3144 93.2837 41.292C93.195 41.2102 93.1091 41.1249 93.0173 41.0467C91.7446 39.9632 90.4073 38.965 89.0243 38.0274C85.1629 35.4098 81.0489 33.2597 76.7618 31.4362C73.9649 30.2464 71.1102 29.2138 68.1917 28.3582C65.555 27.5849 62.8873 26.9509 60.1717 26.5275C58.2772 26.2322 56.3731 26.0445 54.4538 26.0324C54.3348 26.0315 54.2156 26.0407 54.0967 26.0455C54.1592 26.1654 54.2293 26.2214 54.3055 26.2664C56.1691 27.3612 58.0822 28.3639 60.0191 29.3211C62.6692 30.6308 65.3602 31.8519 68.0862 32.9943C72.9041 35.0134 77.7884 36.8562 82.7617 38.4604C85.8973 39.4719 89.0592 40.3886 92.2662 41.1466C92.5904 41.2232 92.9168 41.2888 93.2424 41.3593L93.242 41.3592Z" fill="#65352B"/>
</svg>
