<svg width="50" height="75" viewBox="0 0 50 75" fill="none" xmlns="http://www.w3.org/2000/svg">
<path fill-rule="evenodd" clip-rule="evenodd" d="M38.176 33.4043C38.3616 33.462 38.5483 33.5196 38.7339 33.5749C39.2501 33.731 39.8033 33.9051 40.3299 34.0132C41.0154 34.1538 41.7276 34.3807 42.2623 34.8683C43.1091 35.6406 43.2448 36.7563 42.7472 37.7856C42.6254 38.0366 42.4665 38.266 42.2809 38.4713C43.1705 39.3072 43.9778 40.22 44.6958 41.3333C46.5795 44.2553 47.1896 47.6289 47.0585 51.0986C46.7604 58.9735 41.4585 64.4668 36.2157 69.4545C35.4989 70.1367 34.7693 70.8189 34.0792 71.5323C34.1105 72.1267 34.0804 72.6732 33.766 73.2148C33.4575 73.7445 32.9634 74.0784 32.3857 74.2129C31.0994 74.5107 29.7295 74.6596 28.4154 74.7641C26.8251 74.889 25.2222 74.9407 23.6273 74.9419C21.9976 74.9419 20.3598 74.8914 18.7348 74.7641C17.4102 74.6608 16.0229 74.5131 14.7262 74.2129C14.1485 74.0796 13.6544 73.7445 13.3459 73.2148C13.0304 72.6744 13.0002 72.1279 13.0316 71.5335C12.3402 70.8201 11.6118 70.1367 10.895 69.4557C5.65223 64.468 0.349148 58.9747 0.0522118 51.0998C-0.0788576 47.6301 0.530093 44.2553 2.41494 41.3345C3.72563 39.3012 5.33674 37.9333 7.19955 36.4921C7.45589 36.2939 8.38845 35.5925 8.8153 35.1266C8.79094 34.8575 8.7979 34.5849 8.83385 34.3339C8.86749 34.1009 8.92549 33.8739 9.01132 33.6601C8.7805 33.0212 8.83502 32.4435 9.06468 31.8575C8.97652 31.5824 8.91389 31.2894 8.87097 31.0035C8.07644 30.05 7.83402 28.7181 8.44645 27.624C8.54272 27.4054 8.67959 27.2144 8.84313 27.0463L9.83253 26.3845C10.0239 26.2981 10.2188 26.2236 10.4125 26.1611C11.4471 25.8225 12.6267 25.6459 13.7031 25.5174C15.6065 25.2892 17.5494 25.1667 19.4818 25.1019C19.1106 24.1062 18.6884 23.1455 18.2175 22.1714C18.0737 21.8736 17.9438 21.5685 17.8301 21.2563L17.271 18.5721C17.2629 18.4171 17.2594 18.261 17.2606 18.1049C17.2629 17.8275 17.2803 17.544 17.3151 17.2582C17.155 16.8018 17.1887 16.3058 17.3858 15.8866L17.4206 15.0688C17.4241 14.9967 17.4288 14.9235 17.4346 14.8514C17.5134 13.9254 17.8614 12.961 18.4796 12.2753C18.9088 11.7985 19.4679 11.5691 20.0432 11.5511C20.0501 11.4934 20.0583 11.4358 20.0652 11.3781C20.0826 11.2544 20.1081 11.1331 20.1429 11.0142C20.3448 10.3345 20.8308 9.82284 21.4583 9.55261C21.9222 9.35325 22.4523 9.28599 22.9487 9.35685C23.0589 9.18631 23.1749 8.96773 23.2387 8.85724L23.2573 8.82361C23.6424 8.14745 24.3093 7.77755 25.0517 7.70549C25.6768 7.64423 26.3589 7.78715 26.9353 8.05738C26.9481 8.04657 26.9609 8.03576 26.9725 8.02615C27.0618 7.95049 27.1499 7.87603 27.2416 7.80517C27.9271 7.27193 28.7773 7.33678 29.5022 7.74151C29.6704 7.83519 29.8328 7.94568 29.9882 8.06939L39.9425 2.24217C41.7833 1.16368 46.5783 -1.92047 48.2254 1.74015C50.3561 6.50449 42.6242 8.72633 40.1374 10.0726C37.7259 11.3793 35.3017 12.4638 32.8717 13.7273C32.8694 13.7285 33.2035 15.7858 32.4078 17.514C32.4449 18.4784 32.2071 19.456 31.7362 20.2883C31.2664 21.1194 30.5844 21.7763 29.7516 22.2111C29.6797 22.3384 29.602 22.7395 29.5764 22.8644C29.421 23.6018 29.254 24.2444 28.8237 24.8689C28.7889 24.9493 28.7564 25.0514 28.7251 25.1715C30.1367 25.2436 31.5506 25.3505 32.9471 25.5174C34.0235 25.6459 35.2031 25.8225 36.2378 26.1611C36.4408 26.2284 36.6484 26.3065 36.8491 26.3989L38.0774 27.3513C38.6968 28.2112 38.7304 29.2597 38.3407 30.1677C38.2931 30.6937 38.2061 31.305 38.0414 31.8418C38.2444 32.3535 38.3152 32.8591 38.1783 33.4043H38.176Z" fill="white"/>
<path d="M33.0384 36.2886C33.0284 36.2663 33.0185 36.244 33.0086 36.2217C32.8042 35.7274 32.8265 35.1935 33.0284 34.7303C33.1412 34.4714 33.3109 34.2335 33.5289 34.0378C33.1969 33.6625 32.7101 33.1732 32.3224 33.032C32.0263 32.9242 31.8442 32.9688 31.7377 33.0357C31.7773 33.1484 31.7179 33.2748 31.6015 33.3231C31.4801 33.3726 31.3438 33.3206 31.2967 33.2054C31.2497 33.0902 31.3079 32.9564 31.4293 32.9069C31.4516 32.8982 31.4751 32.892 31.4974 32.8895C31.6436 32.7483 31.926 32.6059 32.414 32.7842C32.8525 32.944 33.3852 33.4779 33.7382 33.8755C33.8547 33.795 33.9822 33.7257 34.1185 33.6699C34.2548 33.6142 34.3935 33.5733 34.5335 33.5473C34.5013 33.0159 34.5013 32.2627 34.6982 31.8391C34.9175 31.3684 35.2172 31.2705 35.4216 31.2656C35.439 31.2507 35.46 31.2396 35.4823 31.2297C35.6025 31.1801 35.74 31.2321 35.787 31.3473C35.8341 31.4625 35.7759 31.5963 35.6545 31.6459C35.5381 31.6942 35.4068 31.6459 35.3547 31.5393C35.2321 31.5666 35.0723 31.6645 34.9385 31.9506C34.7639 32.3234 34.7664 33.0146 34.7961 33.5151C35.0884 33.499 35.3758 33.5473 35.6396 33.6501C36.1103 33.8347 36.5043 34.1951 36.7086 34.6906L36.7198 34.7179C36.8684 34.6943 37.0035 34.6931 37.1273 34.7142L37.1323 34.6968C37.141 34.6993 40.0705 35.6395 41.1779 35.8587C41.7675 35.9752 42.237 36.1362 42.517 36.3827C42.839 36.6664 42.9208 37.0367 42.673 37.5322C42.4265 38.0265 41.7254 38.5108 40.8509 38.683C40.203 38.8106 39.4549 38.7734 38.7191 38.4476C38.729 38.5306 38.7389 38.6136 38.7488 38.6966C38.8491 39.5748 38.8913 40.4754 38.8083 41.1257C38.7624 41.4874 38.6993 41.781 38.6311 42.0188C38.5444 42.3173 38.449 42.5279 38.3636 42.6741C38.3462 42.7051 38.3314 42.7311 38.3177 42.7484C38.2186 42.8735 37.9474 42.985 37.8061 42.9949C37.7715 42.9974 37.7393 42.9962 37.7083 42.9937L37.7108 42.9999C37.686 42.9949 37.6587 42.9887 37.6302 42.9813C37.5745 42.9689 37.5373 42.9553 37.5336 42.954C37.2376 42.8611 36.8003 42.653 36.2169 42.2009C35.6979 41.7996 35.0909 41.1319 34.5409 40.4407C34.4864 40.3726 34.4331 40.3032 34.3799 40.2351C34.0913 40.9932 33.5859 41.5531 33.0334 41.9234C32.2927 42.4189 31.4553 42.5713 30.9313 42.3979C30.4049 42.222 30.2017 41.9036 30.229 41.4738C30.2525 41.1009 30.4705 40.6562 30.805 40.157C31.0168 39.8399 32.8625 36.483 32.8674 36.4855C32.9145 36.4174 32.9727 36.353 33.0408 36.291L33.0384 36.2886Z" fill="#3D200C"/>
<path d="M34.0877 39.85L34.0827 39.8438L34.2165 39.3495C34.4902 38.0724 34.4333 36.5785 34.3936 35.9629C34.0976 36.1029 33.7346 36.2887 33.446 36.4782C33.3184 36.5624 33.228 36.6529 33.1698 36.7532C33.1561 36.7631 33.145 36.7742 33.1363 36.7842C32.9889 36.9601 32.5417 37.9015 32.5281 37.9312C32.0698 38.7896 31.4851 39.8562 31.1358 40.3777C30.8373 40.8236 30.6428 41.2063 30.6242 41.4974C30.6094 41.7316 30.7345 41.9112 31.0553 42.0177C31.474 42.1577 32.1714 42.0177 32.8105 41.5891C33.3296 41.241 33.8027 40.7034 34.0493 39.9701C34.0629 39.9305 34.0753 39.8896 34.0877 39.8487V39.85Z" fill="white"/>
<path d="M38.6493 37.9525L38.6517 37.9711C38.6852 37.9884 38.7174 38.0058 38.7508 38.0219C39.4445 38.3663 40.1592 38.4133 40.7712 38.2919C41.5255 38.1433 42.1176 37.7481 42.3146 37.3542C42.467 37.0507 42.4286 36.8364 42.2514 36.6804C42.0322 36.4871 41.6246 36.3533 41.0982 36.2493C40.4404 36.1192 39.1559 35.7402 38.2008 35.4479C37.8429 35.262 37.164 35.1369 37.164 35.1369C37.0402 35.0911 36.894 35.0849 36.7193 35.1208C36.4902 35.1691 36.0839 35.3054 35.6875 35.4491C36.0839 35.8987 37.0055 36.8885 38.0225 37.5883L38.046 37.6044C38.0993 37.6404 38.1525 37.6763 38.2058 37.7097V37.7011C38.3371 37.7791 38.5068 37.8745 38.648 37.9513L38.6493 37.9525Z" fill="white"/>
<path d="M34.6895 38.9828C35.2035 38.7091 35.6507 38.4836 36.135 38.2842C36.6305 38.081 37.0096 37.9423 37.6277 37.7937C37.3737 37.6091 37.1285 37.4109 36.8956 37.209C36.794 37.2362 36.5549 37.3056 36.1796 37.4443C35.6717 37.6314 34.8257 38.0278 34.7923 38.0426C34.7712 38.3511 34.7378 38.6694 34.6895 38.9828Z" fill="#FFC300"/>
<path d="M35.0494 40.4339C36.2534 39.786 36.9 39.4503 38.3914 39.1109C38.3803 38.9883 38.3666 38.8644 38.353 38.7418C38.3332 38.5684 38.3109 38.3949 38.2874 38.2252L38.2415 38.1992C37.4574 38.3714 36.8752 38.5535 36.3364 38.774C35.8223 38.9846 35.1757 39.288 34.5663 39.6089C34.5539 39.6621 34.5403 39.7166 34.5254 39.7687C34.6307 39.9086 34.7409 40.0511 34.8524 40.1911C34.9168 40.2728 34.9825 40.3533 35.0494 40.4339Z" fill="#FFC300"/>
<path d="M38.4004 41.1653C37.2757 41.413 37.3686 41.449 36.5176 41.9271C36.8669 42.1922 37.1419 42.3594 37.3549 42.4622C37.4528 42.4994 37.5829 42.5254 37.7204 42.492C37.9991 42.4238 38.1787 42.1476 38.222 42.0213V42.0188L38.2245 42.0151V42.0089C38.2902 41.7995 38.3521 41.5245 38.4029 41.1641L38.4004 41.1653Z" fill="#FFC300"/>
<path d="M36.0842 41.5615C37.2262 40.9372 36.9946 40.9273 38.4476 40.6127C38.4588 40.3166 38.4513 39.9884 38.4315 39.6465C37.1036 39.9562 36.4768 40.2696 35.4004 40.848C35.632 41.1106 35.8637 41.3547 36.0842 41.5615Z" fill="#FFC300"/>
<path d="M35.9443 36.3105L35.9072 36.3229L35.7362 36.3836C35.595 36.4344 35.4328 36.5001 35.2717 36.5682C35.1194 36.6326 34.962 36.7007 34.8221 36.7639C34.8246 36.9733 34.8246 37.2037 34.8184 37.4464C35.1206 37.3089 35.6334 37.0798 35.9939 36.9472C36.1686 36.8828 36.316 36.8333 36.4349 36.7936C36.2565 36.6252 36.093 36.4617 35.9443 36.3105Z" fill="#FFC300"/>
<path d="M34.8048 36.1903C34.8903 36.1531 34.9782 36.1147 35.0674 36.0776C35.2383 36.0057 35.4068 35.9376 35.548 35.8868C35.4402 35.7679 35.3523 35.6688 35.2904 35.5957C35.0885 35.6713 34.9088 35.7406 34.7812 35.7902C34.7887 35.8856 34.7974 36.0218 34.806 36.189L34.8048 36.1903Z" fill="#FFC300"/>
<path d="M34.122 34.338C34.1666 34.3962 34.1555 34.4804 34.0972 34.5238C34.039 34.5684 33.956 34.556 33.9114 34.4978C33.9114 34.4978 33.8644 34.4371 33.7863 34.3404C33.6154 34.4953 33.4816 34.6836 33.3924 34.888C33.2351 35.2497 33.2153 35.6659 33.3701 36.0511C33.7913 35.7947 34.2991 35.5581 34.5766 35.4355V35.4392C34.9185 35.3079 35.767 34.9796 36.3257 34.8112C36.1609 34.4346 35.8562 34.1596 35.4933 34.0171C35.2852 33.9354 35.0585 33.897 34.8281 33.9081C34.8405 34.0308 34.8504 34.1063 34.8504 34.1076C34.8603 34.1807 34.8095 34.2475 34.7364 34.2575C34.6633 34.2674 34.5964 34.2166 34.5865 34.1435C34.5865 34.1435 34.5766 34.0667 34.5642 33.9428C34.4651 33.9639 34.3673 33.9936 34.2707 34.0345C34.174 34.0741 34.0824 34.1224 33.9981 34.1782C34.0774 34.2748 34.1232 34.3355 34.1232 34.3355L34.122 34.338Z" fill="#FFC300"/>
<path fill-rule="evenodd" clip-rule="evenodd" d="M30.6907 9.2661C30.734 9.3206 30.7786 9.37634 30.822 9.43332C31.3088 10.0663 31.7931 11.1811 32.0867 12.2402C32.1041 12.3034 32.1214 12.3678 32.1375 12.431C34.1925 11.4153 45.5924 5.7717 47.22 4.83647C47.4579 4.70022 47.6635 4.54538 47.8381 4.37691C48.268 3.96318 48.5058 3.47142 48.5715 2.9747C48.6383 2.47673 48.5343 1.97258 48.2816 1.53284C48.185 1.36561 48.0661 1.20706 47.9261 1.06089C47.4417 0.557974 46.8174 0.502232 46.1337 0.666981C45.3966 0.844116 44.5779 1.27643 43.7801 1.69759C42.2962 2.48169 32.4026 8.26522 30.6895 9.26857L30.6907 9.2661Z" fill="white"/>
<path d="M18.8827 12.614C19.5157 11.9365 20.3815 12.2412 20.6788 12.3762C20.7073 12.2362 20.7358 11.9984 20.768 11.7197C20.7891 11.5401 20.8114 11.3444 20.8411 11.135C20.8522 11.0595 20.8683 10.9864 20.8906 10.9158C21.0244 10.4797 21.3415 10.2035 21.7119 10.0499C22.0612 9.90498 22.4588 9.87153 22.7834 9.9186C22.8701 9.93099 22.9531 9.94957 23.0299 9.9731C23.4064 10.0895 23.7174 9.56061 24.1001 8.91029L24.1199 8.87561C24.3677 8.45445 24.7876 8.26245 25.2521 8.21909C25.7972 8.16831 26.4128 8.32686 26.855 8.54735C27.3047 8.7728 27.5363 8.58327 27.8546 8.32314C27.9314 8.26121 28.012 8.19432 28.1086 8.12247C28.469 7.85243 28.9261 7.86854 29.4253 8.13734C29.714 8.29218 30.0212 8.53744 30.3321 8.86198C31.7553 8.02833 42.023 2.02431 43.5317 1.22658C44.3567 0.791795 45.204 0.344622 46.0104 0.151383C46.8701 -0.0554814 47.6653 0.0250347 48.307 0.692699C48.4754 0.868595 48.6204 1.06183 48.7393 1.2687C49.0502 1.80878 49.1765 2.43061 49.0948 3.04253C49.013 3.65569 48.7244 4.2577 48.2029 4.75938C47.9998 4.9551 47.7595 5.13595 47.4808 5.29574C45.7924 6.26689 33.9491 12.1272 32.2545 12.9646C32.3958 13.6991 32.4168 14.3569 32.2496 14.7458C32.0192 15.2834 31.7182 15.8087 31.3825 16.1815C31.0666 16.5321 30.7111 16.7563 30.3383 16.7563C30.0918 16.7563 30.0311 16.8764 29.9196 17.0994C29.8304 17.2778 29.7189 17.5007 29.5133 17.7757C29.3869 17.9442 29.3002 18.0891 29.2321 18.2018C28.9645 18.6465 28.9113 18.7345 28.116 18.6936C27.7184 18.6726 27.4199 18.6713 27.213 18.7419C27.047 18.7989 26.9306 18.9191 26.8488 19.1482L26.8389 19.1755C26.7088 19.5285 26.5107 19.858 26.2158 20.0624C25.9049 20.2792 25.5048 20.3522 24.9945 20.1702L24.9759 20.1627C24.577 20.0166 24.5324 20.1057 24.4234 20.3299C24.3503 20.4798 24.2599 20.6644 24.1137 20.875C23.8189 21.3048 23.4832 21.5203 23.1166 21.5575C22.7561 21.5934 22.3882 21.4485 22.0191 21.1586C21.6264 20.8502 20.7197 20.045 19.8774 19.0491C19.336 18.4099 18.8195 17.689 18.4739 16.9631C18.0812 16.1357 17.9747 15.3491 18.0354 14.6653C18.1159 13.7611 18.49 13.0327 18.8802 12.614H18.8827ZM30.6901 9.26704C30.7334 9.32154 30.778 9.37729 30.8214 9.43427C31.3082 10.0672 31.7925 11.1821 32.0861 12.2412C32.1034 12.3044 32.1208 12.3688 32.1369 12.4319C34.1919 11.4162 45.5917 5.77264 47.2194 4.83742C47.4572 4.70116 47.6628 4.54632 47.8375 4.37786C48.2673 3.96413 48.5052 3.47236 48.5708 2.97564C48.6377 2.47768 48.5337 1.97352 48.281 1.53378C48.1843 1.36656 48.0654 1.208 47.9254 1.06183C47.4411 0.558918 46.8168 0.503176 46.133 0.667925C45.396 0.84506 44.5772 1.27737 43.7795 1.69853C42.2955 2.48263 32.402 8.26616 30.6888 9.26952L30.6901 9.26704Z" fill="#3D200C"/>
<path d="M20.5052 12.8816C20.3863 12.8197 19.7149 12.5014 19.2714 12.977C18.9469 13.3251 18.6347 13.9395 18.5666 14.7125C18.5133 15.3107 18.6075 16.0032 18.9568 16.7377C19.2788 17.4153 19.7694 18.0978 20.2847 18.7073C21.0997 19.6698 21.9718 20.4464 22.3496 20.7425C22.611 20.9481 22.8525 21.0522 23.0668 21.0311C23.2737 21.0113 23.4793 20.8664 23.6787 20.5753C23.8038 20.3932 23.8831 20.2309 23.9488 20.0984C24.2089 19.5682 24.3142 19.3539 25.1602 19.666L25.1751 19.6722C25.4984 19.7874 25.7375 19.7503 25.9134 19.6276C26.1066 19.4939 26.2441 19.256 26.3407 18.9934L26.3494 18.9699C26.4931 18.5686 26.7148 18.3505 27.0443 18.2391C27.3329 18.1412 27.686 18.14 28.1455 18.1635C28.6224 18.1883 28.6484 18.1449 28.7785 17.9281C28.8491 17.8105 28.9395 17.6606 29.0907 17.4587C29.2616 17.2307 29.3632 17.0276 29.4449 16.8641C29.6518 16.4491 29.7633 16.2249 30.3393 16.2249C30.5449 16.2249 30.7691 16.0701 30.9884 15.8273C31.2844 15.5003 31.5532 15.0271 31.7626 14.5403C31.9335 14.1426 31.8245 13.2904 31.573 12.3849C31.2956 11.384 30.8459 10.341 30.4 9.76009C29.9714 9.20267 29.5477 8.80876 29.1737 8.60686C28.8652 8.44087 28.6051 8.41486 28.4267 8.5474C28.3474 8.60686 28.2657 8.67375 28.1889 8.73692C27.7182 9.12216 27.3738 9.40211 26.617 9.0243C26.2503 8.84097 25.7437 8.70843 25.3014 8.75055C24.9942 8.77904 24.7242 8.89547 24.5756 9.14693L24.5557 9.18162C24.0553 10.0314 23.6503 10.7226 22.8723 10.4835C22.8228 10.4686 22.7671 10.4562 22.7064 10.4476C22.466 10.4129 22.17 10.4377 21.9136 10.5442C21.677 10.6421 21.4776 10.813 21.3958 11.0756C21.3834 11.1177 21.3723 11.1636 21.3648 11.2143C21.3376 11.4076 21.314 11.6045 21.293 11.7854C21.236 12.2821 21.1902 12.6735 21.0378 12.8507C20.8855 13.029 20.7108 13.0538 20.5015 12.8854L20.5052 12.8816Z" fill="#B8B8B8"/>
<path fill-rule="evenodd" clip-rule="evenodd" d="M13.0924 69.2008C10.6732 67.0752 5.73319 62.2888 3.85531 57.1531C1.67518 51.1924 3.06873 46.9945 3.48369 45.97C4.20214 46.3937 6.303 46.7442 9.32668 46.9858C12.9982 47.2794 18.067 47.4614 23.6635 47.4614C29.26 47.4614 34.3288 47.2794 38.0003 46.9858C41.1157 46.7368 43.25 46.3714 43.904 45.9316C44.2991 46.8867 45.7571 51.1156 43.5485 57.1531C41.709 62.181 36.935 66.8757 34.4663 69.0645L33.7218 70.1075C33.7218 70.1075 32.5054 71.1443 32.1003 71.5048C31.6953 71.8652 31.289 72.2257 30.1184 72.3607C28.9466 72.4957 23.6759 72.6766 21.964 72.7212C20.2521 72.7658 16.0814 72.2195 15.7692 72.0114C15.4571 71.8033 15.6565 71.5506 15.1164 71.2347C14.5763 70.9189 12.9995 69.2974 12.9995 69.2974C13.0304 69.2652 13.0651 69.2342 13.0973 69.202L13.0924 69.2008Z" fill="#FFC300"/>
<path d="M23.6627 43.8164C29.2592 43.8164 34.328 43.9985 37.9995 44.2921C41.3329 44.5596 43.5452 44.9585 44.0196 45.4404C44.084 45.449 44.1422 45.4887 44.172 45.5506C44.1782 45.5642 46.497 50.2465 43.9218 57.2861C41.3564 64.2997 33.202 70.6481 33.1784 70.6667C33.0917 70.7348 32.9666 70.7187 32.8997 70.632C32.8316 70.5453 32.8477 70.4202 32.9344 70.3533C32.9579 70.3347 41.0219 64.0557 43.5477 57.1511C45.7563 51.1136 44.2983 46.8834 43.9032 45.9296C43.2491 46.3694 41.1136 46.7348 37.9995 46.9838C34.328 47.2774 29.2592 47.4594 23.6627 47.4594C18.0662 47.4594 12.9974 47.2774 9.32586 46.9838C6.30217 46.741 4.20132 46.3904 3.48287 45.968C3.0679 46.9925 1.67312 51.1904 3.85448 57.1511C6.38021 64.0569 14.4442 70.3359 14.4677 70.3533C14.5544 70.4214 14.5693 70.5465 14.5024 70.632C14.4343 70.7187 14.3104 70.7335 14.2237 70.6667C14.2002 70.6481 6.047 64.2997 3.48039 57.2861C0.990587 50.4807 3.07533 45.8789 3.22274 45.5679C3.40483 45.0279 5.70264 44.5819 9.32586 44.2921C12.9974 43.9985 18.0662 43.8164 23.6627 43.8164ZM37.9673 44.6897C34.3081 44.3974 29.2505 44.2153 23.6627 44.2153C18.0749 44.2153 13.016 44.3961 9.35807 44.6897C5.80669 44.9734 3.61046 45.3128 3.61046 45.6385C3.61046 45.9643 5.80669 46.3025 9.35807 46.5862C13.0172 46.8797 18.0749 47.0606 23.6627 47.0606C29.2505 47.0606 34.3094 46.8797 37.9673 46.5862C41.5187 46.3013 43.7149 45.9631 43.7149 45.6385C43.7149 45.314 41.5187 44.9746 37.9673 44.6897Z" fill="#3D200C"/>
<path d="M23.5595 71.2067C21.45 71.2067 19.5424 71.3009 18.165 71.452C16.8891 71.5932 16.0988 71.7369 16.0988 71.8509C16.0988 71.9648 16.8879 72.1098 18.165 72.2497C19.5424 72.4021 21.4488 72.495 23.5595 72.495C25.6703 72.495 27.5767 72.4009 28.9541 72.2497C30.23 72.1085 31.0203 71.9648 31.0203 71.8509H31.4191C31.4191 72.2027 30.4938 72.4814 28.9975 72.6461C27.6027 72.7997 25.6802 72.8951 23.5595 72.8951C21.4389 72.8951 19.5164 72.7997 18.1216 72.6461C16.6252 72.4814 15.7012 72.2027 15.7012 71.8509C15.7012 71.4991 16.6265 71.2204 18.1216 71.0556C19.5164 70.902 21.4389 70.8066 23.5595 70.8066V71.2055V71.2067Z" fill="#3D200C"/>
<path fill-rule="evenodd" clip-rule="evenodd" d="M37.9682 44.6912C34.309 44.3989 29.2514 44.2168 23.6635 44.2168C18.0757 44.2168 13.0168 44.3976 9.35894 44.6912C5.80756 44.9749 3.61133 45.3143 3.61133 45.6401C3.61133 45.9659 5.80756 46.304 9.35894 46.5877C13.0181 46.8813 18.0757 47.0621 23.6635 47.0621C29.2514 47.0621 34.3102 46.8813 37.9682 46.5877C41.5195 46.3028 43.7158 45.9646 43.7158 45.6401C43.7158 45.3155 41.5195 44.9761 37.9682 44.6912Z" fill="#FFC300"/>
<path fill-rule="evenodd" clip-rule="evenodd" d="M37.5606 47.0185C36.8285 47.4879 24.8886 48.2089 19.167 48.298C13.4454 48.3885 5.78521 47.5325 4.83884 48.6585C3.89247 49.7845 3.3078 53.8784 4.79425 59.0661C4.82769 59.1813 4.85371 59.2941 4.876 59.4068C4.48085 58.6673 4.13402 57.9129 3.85531 57.1499C1.67518 51.1892 3.06873 46.9912 3.48369 45.9668C4.20214 46.3904 6.303 46.741 9.32668 46.9825C12.9982 47.2761 18.067 47.4582 23.6635 47.4582C29.26 47.4582 33.9299 47.2897 37.5618 47.016L37.5606 47.0185Z" fill="white"/>
<path fill-rule="evenodd" clip-rule="evenodd" d="M36.8199 44.6057C36.7815 44.6057 23.7961 44.3345 15.8337 44.7395C7.85886 45.1446 7.56529 45.7565 9.97705 46.2718C11.3297 46.5617 14.0437 46.7995 17.1133 46.9754C14.1602 46.8949 11.5168 46.7611 9.35894 46.5877C5.80756 46.3028 3.61133 45.9646 3.61133 45.6401C3.61133 45.3155 5.80756 44.9761 9.35894 44.6912C13.0181 44.3989 18.0757 44.2168 23.6635 44.2168C28.689 44.2168 33.2846 44.363 36.8199 44.6057Z" fill="white"/>
<path fill-rule="evenodd" clip-rule="evenodd" d="M27.8975 45.4143H22.0558C22.664 43.5166 23.9399 38.7389 23.3044 33.6416C22.8969 30.3726 22.3295 27.9175 21.7003 25.9505C21.071 23.9834 20.3798 22.5081 19.7208 21.1913C19.1423 20.0344 18.9107 18.9072 18.9181 17.9422C18.9268 16.8323 19.2476 15.9516 19.7122 15.5094C20.137 15.1043 20.4764 14.9136 20.7564 14.895C21.0066 14.8789 21.2296 15.0139 21.4451 15.2641C22.0707 15.9937 22.9526 15.4165 23.4394 15.0981C23.5026 15.0573 23.5583 15.0201 23.5856 15.004C23.7268 14.9198 23.8234 14.7971 23.9213 14.6733C23.9547 14.6311 23.9882 14.589 24.0129 14.5605C24.1083 14.4515 24.2285 14.3859 24.4911 14.615C24.8751 14.9507 25.1786 15.1923 25.4895 15.3025C25.8413 15.4276 26.172 15.388 26.5659 15.1341C26.8038 14.9817 27.2621 14.9953 27.739 15.0114C28.3249 15.03 28.9356 15.0498 29.3951 14.7798C29.4212 14.7649 29.4472 14.7562 29.4732 14.7562C29.5735 14.7525 29.6974 14.8269 29.8324 14.952C29.9984 15.1068 30.1631 15.3285 30.313 15.5849C30.6549 16.1671 30.9126 16.8992 30.9324 17.4009C30.9547 17.9595 30.8209 18.5777 30.5001 19.1277C30.2238 19.5996 29.8076 20.0208 29.2329 20.3081C28.3088 20.7702 28.1329 21.5766 27.9533 22.3929C27.8492 22.871 27.7427 23.3529 27.4714 23.7208C26.7133 24.7464 26.2513 30.7083 26.4668 36.285C26.6105 39.9937 27.0503 43.5525 27.8988 45.4155L27.8975 45.4143Z" fill="#FFC300"/>
<path fill-rule="evenodd" clip-rule="evenodd" d="M27.0736 15.0116C26.6797 15.3374 26.0219 15.7462 25.2948 15.6347C24.123 15.4551 23.3302 15.4117 22.9066 16.2206C22.483 17.0295 23.7217 18.9693 23.0416 18.428C22.3628 17.8867 22.0048 16.8511 21.5093 16.3556C21.0138 15.8601 19.977 16.2652 19.9325 17.3924C19.8879 18.5184 22.6762 21.1457 21.9144 20.7716C21.1526 20.3975 19.878 19.051 19.878 19.051C19.878 19.051 19.1657 18.6993 19.7058 20.0061C20.2471 21.3129 22.7691 24.5571 23.4454 31.2251C24.1218 37.893 23.6548 42.1616 22.7047 44.2204C22.587 44.4755 22.4272 44.6675 22.2389 44.81C22.8831 42.6212 23.8765 38.2634 23.3005 33.6455C22.893 30.3766 22.3256 27.9214 21.6964 25.9544C21.0671 23.9873 20.3759 22.512 19.7169 21.1952C19.1384 20.0383 18.9068 18.9111 18.9142 17.9461C18.9229 16.8362 19.2437 15.9555 19.7082 15.5133C20.1331 15.1082 20.4725 14.9175 20.7525 14.8989C21.0027 14.8828 21.2257 15.0178 21.4412 15.268C22.0668 15.9976 22.9487 15.4204 23.4355 15.102C23.4987 15.0612 23.5544 15.024 23.5817 15.0079C23.7229 14.9237 23.8195 14.801 23.9174 14.6772C23.9508 14.635 23.9843 14.5929 24.009 14.5644C24.1044 14.4554 24.2246 14.3898 24.4872 14.6189C24.8712 14.9546 25.1747 15.1962 25.4856 15.3064C25.8374 15.4315 26.1681 15.3919 26.562 15.138C26.6834 15.0599 26.8618 15.0252 27.0699 15.0129L27.0736 15.0116Z" fill="white"/>
<path d="M9.28728 28.7017C9.28728 28.7017 8.84383 29.2628 9.53379 29.9528C10.3266 30.7468 13.297 31.1841 13.3044 31.1841L13.2251 31.7093C13.2165 31.7093 10.0751 31.246 9.15722 30.3281C8.13529 29.3062 8.86117 28.3833 8.86365 28.3809L9.28728 28.7004V28.7017Z" fill="#3D200C"/>
<path d="M9.88297 30.3496C9.88297 30.3496 9.92137 31.3963 10.1865 31.7357C10.4441 32.0677 10.2955 32.3452 10.127 32.6586C10.0229 32.8543 9.90527 33.0723 9.99445 33.2816C10.0428 33.3931 10.0898 33.4947 10.1307 33.5839C10.3772 34.1165 10.4751 34.3259 10.039 34.638C9.96596 34.69 9.92137 34.8213 9.89907 34.97C9.86687 35.1868 9.88792 35.4122 9.94243 35.5187L9.468 35.7553C9.37138 35.5621 9.32679 35.2078 9.37262 34.892C9.4135 34.6157 9.52498 34.3519 9.73061 34.2045C9.80741 34.15 9.76281 34.0521 9.64761 33.8056C9.6055 33.7152 9.55843 33.6136 9.50516 33.4885C9.31564 33.0463 9.49649 32.7094 9.65752 32.4083C9.73928 32.2572 9.81112 32.121 9.76405 32.0615C9.39739 31.5896 9.35156 30.3694 9.35156 30.3657L9.88173 30.3496H9.88297Z" fill="#3D200C"/>
<path d="M9.97144 35.959C9.60107 36.8719 8.58657 37.63 7.34042 38.5615C4.44185 40.7268 0.228997 43.8756 0.54239 51.8777C0.844635 59.6134 6.95519 65.2272 11.4505 69.3583C12.4365 70.2638 13.3457 71.0987 14.1075 71.8779C14.4741 72.1107 14.4432 72.5579 14.4122 73.0138C14.3874 73.3606 14.3639 73.7173 14.5856 73.7669C18.656 74.6773 28.4096 74.6897 32.5382 73.7669C32.76 73.7173 32.7364 73.3606 32.7117 73.0138C32.6795 72.5579 32.6497 72.1107 33.0164 71.8779C33.7782 71.1 34.6874 70.2638 35.6734 69.3583C40.1687 65.2285 46.2792 59.6146 46.5815 51.8777C46.8949 43.8756 42.682 40.7268 39.7834 38.5615C38.5373 37.63 37.5228 36.8719 37.1524 35.959C37.0905 35.7311 37.1784 35.3942 37.2292 35.2344C37.2974 35.2691 37.3655 35.305 37.4336 35.3409L37.5414 35.3979L37.5686 35.5168C37.7656 36.3876 38.7987 37.1606 40.103 38.1354C43.092 40.3688 47.4374 43.6155 47.1141 51.8987C46.8032 59.8562 40.5998 65.5555 36.0351 69.7485C35.0404 70.6615 34.125 71.5038 33.3744 72.273L33.3471 72.3015L33.3149 72.3201C33.2047 72.382 33.2245 72.6768 33.2455 72.9778C33.2852 73.5489 33.3261 74.1348 32.6559 74.2847C28.3316 75.2509 18.6734 75.2236 14.4741 74.2847C13.8052 74.1348 13.8449 73.5501 13.8845 72.9778C13.9056 72.6768 13.9254 72.382 13.8152 72.3201L13.7829 72.3015L13.7557 72.273C13.005 71.5038 12.0884 70.6627 11.095 69.7485C6.53031 65.5555 0.328093 59.8562 0.0171775 51.8987C-0.307364 43.6155 4.03803 40.3688 7.02703 38.1354C8.33139 37.1606 9.36571 36.3889 9.56143 35.5168L9.58868 35.3979L9.69645 35.3409C9.76458 35.305 9.83271 35.2691 9.90083 35.2344C9.95162 35.3942 10.0396 35.7311 9.97764 35.959H9.97144Z" fill="#3D200C"/>
<path d="M37.831 29.8804C37.831 29.8804 37.7208 31.591 37.3541 32.0618C37.3071 32.1224 37.3801 32.2575 37.4606 32.4086C37.6217 32.7096 37.8025 33.0465 37.613 33.4887C37.5597 33.6139 37.5114 33.7154 37.4706 33.8059C37.3566 34.0524 37.3108 34.1502 37.3876 34.2047C37.5944 34.3521 37.7047 34.616 37.7456 34.8922C37.7926 35.2081 37.7468 35.5623 37.6502 35.7556L37.1757 35.519C37.229 35.4112 37.2513 35.187 37.2191 34.9702C37.1968 34.8216 37.1522 34.6903 37.0791 34.6383C36.6431 34.3273 36.741 34.1168 36.9875 33.5841C37.0283 33.4949 37.0766 33.3934 37.1237 33.2819C37.2129 33.0725 37.0965 32.8533 36.9912 32.6588C36.824 32.3454 36.6741 32.0679 36.9317 31.736C37.1968 31.3953 37.2984 29.8507 37.2984 29.8457L37.8285 29.8804H37.831Z" fill="#3D200C"/>
<path d="M37.8151 28.3809C37.8151 28.3809 38.5434 29.3062 37.5202 30.3281C36.6011 31.2472 33.461 31.708 33.4523 31.7093L33.373 31.1841C33.3817 31.1841 36.3509 30.7456 37.1449 29.9528C37.8349 29.2628 37.3927 28.7029 37.3914 28.7017L37.8151 28.3821V28.3809Z" fill="#3D200C"/>
<path d="M16.169 32.0265C16.0229 32.0129 15.9163 31.8841 15.9287 31.7379C15.9423 31.5918 16.0712 31.4852 16.2161 31.4976C18.4185 31.702 21.5636 31.8928 24.7347 31.8928C27.1043 31.8928 29.4814 31.7862 31.4733 31.4989C31.6182 31.4778 31.7532 31.5794 31.773 31.7243C31.7941 31.8692 31.6925 32.0043 31.5476 32.0241C29.5235 32.3164 27.1229 32.4242 24.7335 32.4242C21.5599 32.4242 18.3925 32.2322 16.1665 32.0253L16.169 32.0265Z" fill="#3D200C"/>
<path d="M10.1764 31.8887C10.1764 31.8887 10.9729 32.1538 11.6381 32.2875L12.3144 32.4226L12.2364 32.814L11.5601 32.679C10.8738 32.5415 10.0501 32.2677 10.0488 32.2665L10.1764 31.8887Z" fill="#3D200C"/>
<path fill-rule="evenodd" clip-rule="evenodd" d="M30.6935 10.1975C30.1138 9.72183 29.43 9.21396 29.0807 9.14459C28.4044 9.00958 28.5406 9.82093 29.1253 10.7661C29.7112 11.7124 30.1621 13.1989 29.6654 12.7034C29.1699 12.2079 28.449 10.5852 27.0517 9.95471C25.6544 9.32421 24.6498 9.31554 25.8291 10.5815C27.0071 11.8475 28.0439 14.0548 27.3676 13.3339C26.6912 12.613 25.6557 11.3966 24.5297 11.2615C23.4037 11.1265 23.0878 11.8029 23.2687 12.7034C23.4483 13.6039 23.8992 13.9644 23.1783 13.6039C22.4573 13.2435 21.7364 12.1175 21.4205 12.9734C21.1047 13.8294 20.0047 13.7848 19.3928 13.7848C19.1128 13.7848 18.8069 14.3026 18.5566 14.865C18.5591 14.8117 18.5628 14.7609 18.5666 14.7089C18.6347 13.9359 18.9468 13.3215 19.2714 12.9734C19.7148 12.499 20.3862 12.8161 20.5051 12.8781C20.7157 13.0465 20.8891 13.0205 21.0415 12.8434C21.1926 12.6662 21.2384 12.2748 21.2967 11.7781C21.3177 11.5972 21.34 11.4015 21.3685 11.207C21.3759 11.1575 21.3859 11.1104 21.3995 11.0683C21.48 10.8057 21.6807 10.6348 21.9173 10.5369C22.1737 10.4304 22.4685 10.4056 22.71 10.4403C22.7707 10.449 22.8265 10.4613 22.876 10.4762C23.6527 10.7153 24.059 10.0241 24.5594 9.17432L24.5792 9.13964C24.7267 8.88818 24.9979 8.77174 25.3051 8.74325C25.7473 8.70114 26.2527 8.83368 26.6206 9.01701C27.3775 9.39481 27.7206 9.11487 28.1926 8.72963C28.2694 8.66645 28.3511 8.6008 28.4304 8.54011C28.6088 8.40632 28.8689 8.43358 29.1773 8.59956C29.5514 8.80147 29.9751 9.19414 30.4037 9.7528C30.5015 9.87915 30.5981 10.0278 30.6947 10.1938L30.6935 10.1975Z" fill="white"/>
<path d="M10.0924 33.9199C10.0924 33.9199 10.8889 34.185 11.5541 34.3188L12.2304 34.4538L12.1524 34.8452L11.4761 34.7102C10.7898 34.5727 9.96608 34.299 9.96484 34.2977L10.0924 33.9199Z" fill="#3D200C"/>
<path d="M37.0586 32.2665C37.0586 32.2665 36.2323 32.5415 35.5473 32.679L34.871 32.814L34.793 32.4226L35.4693 32.2875C36.1357 32.1538 36.9285 31.8899 36.931 31.8887L37.0586 32.2665Z" fill="#3D200C"/>
<path d="M37.1406 34.2977C37.1406 34.2977 36.3144 34.5727 35.6294 34.7102L34.953 34.8452L34.875 34.4538L35.5513 34.3188C36.2178 34.1862 37.0105 33.9212 37.013 33.9199L37.1406 34.2977Z" fill="#3D200C"/>
<path d="M18.4617 33.4761C18.3514 33.4687 18.2684 33.3745 18.2759 33.2643C18.2833 33.154 18.3787 33.0723 18.4877 33.0785C20.1029 33.1862 21.9474 33.2692 23.8216 33.2903C25.3935 33.3076 26.9926 33.2816 28.5076 33.1912C28.6178 33.185 28.712 33.268 28.7182 33.3782C28.7244 33.4872 28.6414 33.5826 28.5311 33.5888C27.0137 33.6805 25.4034 33.7065 23.8178 33.6879C21.9226 33.6668 20.072 33.5839 18.4604 33.4761H18.4617Z" fill="#3D200C"/>
<path d="M35.199 28.3723C35.308 28.3847 35.3873 28.4838 35.3749 28.5928C35.3625 28.7018 35.2634 28.7811 35.1544 28.7687C33.5008 28.5755 31.5845 28.4181 29.6781 28.3091C28.7379 28.2546 27.8002 28.2125 26.8984 28.1815L26.9467 27.7852C27.8423 27.8161 28.7714 27.8582 29.6992 27.9115C31.6192 28.0217 33.5441 28.1791 35.199 28.3735V28.3723Z" fill="#3D200C"/>
<path d="M33.1148 28.9849C33.225 28.9923 33.308 29.0877 33.3006 29.1967C33.2931 29.3057 33.1978 29.3899 33.0888 29.3825C31.8488 29.2958 30.5903 29.2264 29.3875 29.1806C28.4795 29.1447 27.6 29.1224 26.7812 29.1112L26.8296 28.7148C27.6422 28.7248 28.5092 28.7483 29.4011 28.783C30.6225 28.83 31.886 28.8982 33.1148 28.9849Z" fill="#3D200C"/>
<path d="M17.0144 27.8481C17.1247 27.8407 17.2188 27.9237 17.2262 28.0339C17.2337 28.1429 17.1507 28.2383 17.0404 28.2457C15.6345 28.3399 14.3599 28.4786 13.2859 28.6297C11.9927 28.8118 10.9906 29.0113 10.3972 29.1773C10.292 29.207 10.1817 29.145 10.152 29.0398C10.1223 28.9345 10.1842 28.8242 10.2895 28.7945C10.8964 28.6236 11.9184 28.4204 13.2314 28.2358C14.3165 28.0835 15.6011 27.9447 17.0144 27.8494V27.8481Z" fill="#3D200C"/>
<path d="M24.6096 19.4993C24.7384 19.5675 24.788 19.7285 24.7186 19.8573C24.6505 19.9862 24.4894 20.0357 24.3606 19.9663C24.3569 19.9651 23.2582 19.3916 22.3638 17.8853C21.4707 16.3803 21.4707 15.9492 21.4707 15.948C21.4707 15.8006 21.5896 15.6816 21.737 15.6816C21.8844 15.6816 22.0033 15.8006 22.0033 15.948C22.0033 15.948 22.0033 16.2366 22.8221 17.6153C23.6397 18.9927 24.6084 19.4969 24.6108 19.4993H24.6096Z" fill="#3D200C"/>
<path d="M27.0872 18.3595C27.1727 18.4784 27.1467 18.6432 27.029 18.7299C26.9113 18.8166 26.7453 18.7894 26.6586 18.6717L26.3687 18.279C25.3988 16.9635 23.1543 13.9212 23.1543 13.1062C23.1543 12.9588 23.2732 12.8398 23.4206 12.8398C23.568 12.8398 23.6869 12.9588 23.6869 13.1062C23.6869 13.7503 25.8572 16.6922 26.7949 17.9631C26.8927 18.0957 26.9794 18.2134 27.0872 18.3595Z" fill="#3D200C"/>
<path d="M30.087 16.5917C30.1056 16.7007 30.0313 16.8023 29.9235 16.8209C29.8145 16.8395 29.7129 16.7651 29.6943 16.6574C29.625 16.2449 29.0898 15.332 28.4358 14.3472C27.4386 12.8459 26.1776 11.2033 25.8308 10.8639C25.7528 10.7871 25.7515 10.6608 25.8283 10.5827C25.9051 10.5047 26.0315 10.5035 26.1095 10.5803C26.4675 10.9308 27.757 12.6068 28.7665 14.1267C29.4466 15.1511 30.0065 16.1173 30.0858 16.5917H30.087Z" fill="#3D200C"/>
<path d="M28.2577 10.0467C28.1834 9.96621 28.1884 9.83986 28.2689 9.76554C28.3494 9.69122 28.4757 9.69617 28.5501 9.77669C28.5538 9.78164 29.9275 11.2458 30.4824 12.7261C31.0361 14.2026 31.0361 14.5073 31.0361 14.5073C31.0361 14.6176 30.947 14.7067 30.8367 14.7067C30.7265 14.7067 30.6373 14.6176 30.6373 14.5073C30.6373 14.5073 30.6373 14.2707 30.1096 12.8648C29.5831 11.4613 28.2614 10.0504 28.2565 10.0467H28.2577Z" fill="#3D200C"/>
<path d="M21.7567 46.2759C21.7034 46.4122 21.5498 46.4803 21.4136 46.427C21.2773 46.375 21.2092 46.2214 21.2612 46.0839C21.2674 46.0666 23.5776 40.148 22.7737 33.7055C22.3699 30.4675 21.8112 28.0471 21.1918 26.1122C20.5725 24.1761 19.8912 22.7231 19.2434 21.4274C18.624 20.1899 18.3775 18.9785 18.3849 17.9392C18.3948 16.6794 18.7813 15.6575 19.3424 15.1236C19.8639 14.6269 20.3136 14.3903 20.7199 14.3631C21.1572 14.3346 21.5189 14.5377 21.8446 14.918C22.1655 15.2933 22.796 14.8796 23.144 14.6517C23.1986 14.6158 23.2481 14.5835 23.3088 14.5476C23.3658 14.5142 23.4327 14.4287 23.502 14.342C23.5342 14.3011 23.5664 14.2602 23.611 14.2107C23.8922 13.8899 24.2217 13.678 24.8374 14.2156C25.1743 14.5105 25.4344 14.7198 25.6636 14.8016C25.8519 14.8684 26.0401 14.84 26.2767 14.6876C26.6521 14.446 27.1909 14.4634 27.7533 14.4807C28.2649 14.4968 28.7975 14.5142 29.1245 14.3209C29.2286 14.2602 29.3376 14.228 29.4503 14.2243C29.7042 14.2144 29.9569 14.342 30.1911 14.5612C30.3942 14.7508 30.5924 15.0159 30.7683 15.3144C31.1498 15.9635 31.4372 16.7946 31.4607 17.3781C31.4868 18.0296 31.3307 18.7518 30.9553 19.3935C30.6308 19.9472 30.1428 20.4426 29.4677 20.7796C28.7727 21.1276 28.6229 21.8102 28.4717 22.5026C28.3553 23.0353 28.2376 23.5716 27.8957 24.0349C27.1971 24.98 26.7834 30.7846 26.9952 36.2647C27.1575 40.4614 27.6913 44.4389 28.7504 45.8399C28.8384 45.9576 28.8149 46.1235 28.6984 46.2127C28.5807 46.3007 28.4148 46.2772 28.3268 46.1607C27.1946 44.6656 26.631 40.5741 26.4663 36.2845C26.2507 30.7078 26.7128 24.7459 27.4709 23.7203C27.7434 23.3511 27.8487 22.8693 27.9527 22.3924C28.1311 21.5748 28.3082 20.7697 29.2323 20.3076C29.8083 20.0202 30.2233 19.5991 30.4995 19.1271C30.8216 18.5771 30.9541 17.959 30.9318 17.4004C30.912 16.8987 30.6543 16.1666 30.3125 15.5844C30.1626 15.3292 29.9978 15.1063 29.8318 14.9514C29.6968 14.8263 29.5729 14.752 29.4726 14.7557C29.4466 14.7557 29.4206 14.7644 29.3946 14.7793C28.935 15.0493 28.3243 15.0295 27.7384 15.0109C27.2615 14.996 26.8032 14.9812 26.5654 15.1335C26.1715 15.3862 25.8407 15.4259 25.4889 15.302C25.178 15.1918 24.8745 14.9502 24.4905 14.6145C24.2279 14.3841 24.109 14.451 24.0124 14.56C23.9876 14.5885 23.9542 14.6306 23.9207 14.6727C23.8229 14.7966 23.7262 14.918 23.585 15.0035C23.5578 15.0196 23.502 15.0567 23.4389 15.0976C22.952 15.416 22.0701 15.9944 21.4445 15.2636C21.2302 15.0134 21.006 14.8784 20.7558 14.8945C20.4759 14.913 20.1365 15.1038 19.7116 15.5089C19.2471 15.9511 18.9262 16.8318 18.9176 17.9417C18.9101 18.9066 19.1418 20.0339 19.7203 21.1908C20.3792 22.5076 21.0704 23.9841 21.6997 25.9499C22.329 27.917 22.8963 30.3721 23.3038 33.6411C24.1239 40.2124 21.7641 46.2573 21.7579 46.2747L21.7567 46.2759Z" fill="#3D200C"/>
<path d="M31.0445 15.8184C31.1411 15.7081 31.3096 15.6982 31.4186 15.7948C31.5288 15.8914 31.5387 16.0599 31.4409 16.1689C31.4396 16.1714 30.8017 16.8886 30.3867 16.8886C30.2604 16.8886 30.1712 16.8651 30.0931 16.844C30.0684 16.8366 30.051 16.8329 30.0102 16.9097C29.9804 16.9654 29.9457 17.041 29.9086 17.1227C29.6943 17.5885 29.3759 18.2772 28.6637 18.4989C28.3268 18.6042 27.9923 18.6203 27.7012 18.6327C27.4163 18.6451 27.1884 18.6562 27.1549 18.7244C26.9481 19.1369 26.2024 19.7277 26.1999 19.729C26.0847 19.8194 25.9187 19.8008 25.8283 19.6856C25.7379 19.5704 25.7577 19.4044 25.8716 19.314C25.8729 19.314 26.5269 18.795 26.6805 18.4878C26.8539 18.1409 27.2206 18.1248 27.6777 18.1038C27.9353 18.0926 28.2301 18.079 28.5051 17.9923C28.9919 17.8399 29.2508 17.2788 29.4255 16.8998C29.4664 16.8118 29.5023 16.7325 29.5394 16.6619C29.7785 16.2086 29.9581 16.2581 30.2294 16.33C30.279 16.3436 30.3347 16.3584 30.3867 16.3584C30.5651 16.3584 31.0432 15.8184 31.0445 15.8171V15.8184Z" fill="#3D200C"/>
<path d="M18.371 16.5655C18.3004 16.4379 18.3463 16.2756 18.4739 16.205C18.6014 16.1344 18.7637 16.1802 18.8343 16.3078C18.8368 16.3128 19.7101 17.8835 20.2019 18.6416C20.6664 19.36 20.8918 19.5099 20.8931 19.5111C21.0157 19.5929 21.0479 19.7576 20.9674 19.8803C20.8856 20.0029 20.7209 20.0351 20.5982 19.9546C20.5982 19.9546 20.2836 19.7453 19.7572 18.9314C19.2567 18.1585 18.3735 16.5704 18.371 16.5655Z" fill="#3D200C"/>
<path d="M27.0795 26.6904C29.5074 26.7672 31.6789 26.9158 33.4106 27.1165C36.1333 27.4311 37.8167 27.9315 37.8167 28.5435C37.8167 29.1554 36.1333 29.6558 33.4106 29.9705C30.8229 30.269 27.253 30.4536 23.3126 30.4536C19.3723 30.4536 15.8023 30.269 13.2147 29.9705C10.492 29.6558 8.80859 29.1554 8.80859 28.5435C8.80859 27.9315 10.492 27.4311 13.2147 27.1165C15.4183 26.8625 18.3367 26.6904 21.5871 26.6445L21.7581 27.1747C18.4569 27.2168 15.4964 27.3878 13.2754 27.6442C10.845 27.9254 9.34124 28.2462 9.34124 28.5435C9.34124 28.8408 10.845 29.1616 13.2754 29.4428C15.8407 29.7388 19.3896 29.9222 23.3126 29.9222C27.2356 29.9222 30.7845 29.7388 33.3499 29.4428C35.7802 29.1616 37.284 28.8408 37.284 28.5435C37.284 28.2462 35.7802 27.9254 33.3499 27.6442C31.6219 27.4447 29.448 27.2961 27.0139 27.2205L27.0795 26.6904Z" fill="#3D200C"/>
<path d="M47.3105 3.98168C47.3749 3.94824 47.4554 3.97301 47.4889 4.03742C47.5223 4.10184 47.4975 4.18235 47.4331 4.2158L40.1347 8.02854C40.0702 8.06199 39.9897 8.03721 39.9563 7.9728C39.9228 7.90839 39.9476 7.82787 40.012 7.79443L47.3105 3.98168Z" fill="#3D200C"/>
<path d="M47.8526 3.12621C47.917 3.09277 47.9975 3.11754 48.0309 3.18195C48.0644 3.24637 48.0396 3.32688 47.9752 3.36033L42.3007 6.32456C42.2363 6.358 42.1558 6.33323 42.1223 6.26882C42.0889 6.2044 42.1136 6.12389 42.178 6.09044L47.8526 3.12621Z" fill="#3D200C"/>
<path d="M48.0697 2.3059C48.1341 2.27245 48.2146 2.29723 48.2481 2.36164C48.2815 2.42605 48.2567 2.50657 48.1923 2.54002L44.2421 4.6037C44.1777 4.63715 44.0972 4.61237 44.0637 4.54796C44.0303 4.48355 44.055 4.40303 44.1195 4.36959L48.0697 2.3059Z" fill="#3D200C"/>
<path d="M36.4584 9.54809C36.5228 9.51464 36.6033 9.53942 36.6367 9.60383C36.6702 9.66824 36.6454 9.74876 36.581 9.7822L32.6308 11.8459C32.5663 11.8793 32.4858 11.8546 32.4524 11.7901C32.4189 11.7257 32.4437 11.6452 32.5081 11.6118L36.4584 9.54809Z" fill="#3D200C"/>
<path d="M34.9176 9.61449C34.982 9.57856 35.0625 9.6021 35.0972 9.66651C35.1331 9.73092 35.1096 9.81144 35.0452 9.84612L32.3795 11.3214C32.3151 11.3561 32.2346 11.3338 32.1999 11.2694C32.1652 11.205 32.1875 11.1245 32.2519 11.0898L34.9176 9.61449Z" fill="#3D200C"/>
<path d="M33.761 9.52074C33.8254 9.48481 33.9059 9.50835 33.9406 9.57276C33.9753 9.63717 33.953 9.71769 33.8886 9.75237L31.9537 10.8239C31.8893 10.8585 31.8088 10.8362 31.7741 10.7718C31.7394 10.7074 31.7617 10.6269 31.8261 10.5922L33.761 9.52197V9.52074Z" fill="#3D200C"/>
<path fill-rule="evenodd" clip-rule="evenodd" d="M11.031 29.8073C11.031 29.8073 13.9593 30.2123 16.573 30.4378C19.1866 30.6632 20.2222 30.5728 20.0426 30.7982C19.8617 31.0237 16.1233 30.9333 13.8701 30.5728C11.6169 30.2123 10.175 29.5818 11.031 29.8073Z" fill="white"/>
<path fill-rule="evenodd" clip-rule="evenodd" d="M11.9766 31.6113C11.9766 31.6113 14.5902 32.0164 16.753 32.2877C18.9158 32.5577 19.3209 32.5131 19.1413 32.6481C18.9616 32.7831 12.9242 32.5577 11.9778 31.6113H11.9766Z" fill="white"/>
<path fill-rule="evenodd" clip-rule="evenodd" d="M11.5723 28.0973C11.5723 28.0973 14.9069 27.7814 17.2493 27.6018C19.5917 27.4222 20.263 27.4408 19.9075 27.3317C19.552 27.2227 13.9147 27.2872 11.5723 28.0973Z" fill="white"/>
<path fill-rule="evenodd" clip-rule="evenodd" d="M12.4712 33.1431C12.4712 33.1431 15.8504 33.594 17.5623 33.729C19.2742 33.864 19.6793 33.864 19.2742 33.999C18.8692 34.134 16.751 34.2245 15.0391 34.0449C13.3272 33.864 11.4344 32.8284 12.4712 33.1431Z" fill="white"/>
<path fill-rule="evenodd" clip-rule="evenodd" d="M15.9875 72.3418C15.9875 72.3418 17.7898 72.8373 21.034 72.9723C24.2781 73.1073 25.8104 72.8819 25.6296 73.0627C25.45 73.2436 21.6199 73.4232 19.4571 73.2882C17.2943 73.1531 15.4474 72.3876 15.9875 72.3418Z" fill="white"/>
<path fill-rule="evenodd" clip-rule="evenodd" d="M43.4255 49.2722C43.4255 49.2722 44.1019 52.4259 42.8842 55.9402C41.6678 59.4544 39.7305 61.5726 39.9101 60.9408C40.0897 60.3103 41.9379 57.8317 42.5684 55.1734C43.1989 52.5151 43.2447 51.2083 43.2447 51.2083C43.2447 51.2083 43.0638 49.0009 43.4243 49.2709L43.4255 49.2722Z" fill="#3D200C"/>
<path fill-rule="evenodd" clip-rule="evenodd" d="M42.8403 51.2095C42.8403 51.2095 42.4353 54.4537 41.5335 56.4814C40.633 58.5092 40.5871 58.4188 40.633 58.1029C40.6776 57.787 41.6698 55.2192 42.0748 53.4169C42.4799 51.6145 42.7053 50.5777 42.8403 51.2095Z" fill="#3D200C"/>
<path d="M38.2947 54.3184C38.5177 54.3184 38.7184 54.4175 38.8621 54.5772C39.0008 54.7321 39.0875 54.9439 39.0875 55.1768C39.0875 55.4097 39.0008 55.6215 38.8621 55.7763C38.7184 55.9361 38.5177 56.0352 38.2947 56.0352C38.0718 56.0352 37.8711 55.9361 37.7274 55.7763C37.5887 55.6215 37.502 55.4097 37.502 55.1768C37.502 54.9439 37.5874 54.7321 37.7274 54.5772C37.8711 54.4175 38.0718 54.3184 38.2947 54.3184ZM38.571 54.8399C38.4991 54.7593 38.4013 54.711 38.2947 54.711C38.1882 54.711 38.0903 54.7606 38.0185 54.8399C37.9417 54.9253 37.8946 55.0442 37.8946 55.178C37.8946 55.3118 37.9417 55.4307 38.0185 55.5162C38.0903 55.5955 38.1882 55.645 38.2947 55.645C38.4013 55.645 38.4991 55.5955 38.571 55.5162C38.6478 55.4307 38.6948 55.3118 38.6948 55.178C38.6948 55.0442 38.6478 54.9253 38.571 54.8399Z" fill="#3D200C"/>
<path d="M33.8207 58.8457C34.0263 58.8457 34.2109 58.9374 34.3434 59.0848C34.471 59.2272 34.5503 59.4229 34.5503 59.6372C34.5503 59.8515 34.471 60.0473 34.3434 60.1897C34.2109 60.3371 34.0263 60.4288 33.8207 60.4288C33.6151 60.4288 33.4305 60.3371 33.2979 60.1897C33.1691 60.0473 33.0898 59.8515 33.0898 59.6372C33.0898 59.4229 33.1691 59.2272 33.2979 59.0848C33.4305 58.9374 33.6151 58.8457 33.8207 58.8457ZM34.0759 59.3251C34.0102 59.252 33.9198 59.2062 33.8207 59.2062C33.7216 59.2062 33.6324 59.252 33.5655 59.3251C33.4949 59.4031 33.4503 59.5134 33.4503 59.636C33.4503 59.7586 33.4937 59.8689 33.5655 59.9469C33.6312 60.02 33.7216 60.0658 33.8207 60.0658C33.9198 60.0658 34.009 60.02 34.0759 59.9469C34.1465 59.8689 34.1898 59.7586 34.1898 59.636C34.1898 59.5134 34.1465 59.4031 34.0759 59.3251Z" fill="#3D200C"/>
<path d="M34.9874 61.4785C35.1175 61.4785 35.2339 61.5367 35.3182 61.6296C35.3999 61.7201 35.4495 61.8439 35.4495 61.9802C35.4495 62.1164 35.3987 62.2403 35.3182 62.3295C35.2339 62.4236 35.1175 62.4806 34.9874 62.4806C34.8574 62.4806 34.7409 62.4224 34.6567 62.3295C34.5749 62.2391 34.5254 62.1152 34.5254 61.9802C34.5254 61.8452 34.5762 61.7201 34.6567 61.6296C34.7409 61.5367 34.8574 61.4785 34.9874 61.4785ZM35.1485 61.782C35.1063 61.7349 35.0494 61.7064 34.9874 61.7064C34.9255 61.7064 34.8673 61.7349 34.8264 61.782C34.7818 61.8315 34.7533 61.9022 34.7533 61.979C34.7533 62.0558 34.7806 62.1264 34.8264 62.1759C34.8685 62.2217 34.9255 62.2515 34.9874 62.2515C35.0494 62.2515 35.1076 62.223 35.1485 62.1759C35.1931 62.1264 35.2215 62.0558 35.2215 61.979C35.2215 61.9022 35.1943 61.8315 35.1485 61.782Z" fill="#3D200C"/>
<path d="M31.2933 62.8887C31.4741 62.8887 31.6364 62.9692 31.7541 63.0992C31.8668 63.2244 31.9362 63.3965 31.9362 63.5861C31.9362 63.7756 31.8668 63.9478 31.7541 64.0729C31.6376 64.2029 31.4741 64.2835 31.2933 64.2835C31.1124 64.2835 30.9502 64.2029 30.8337 64.0729C30.721 63.9478 30.6504 63.7756 30.6504 63.5861C30.6504 63.3965 30.7198 63.2256 30.8337 63.0992C30.9502 62.9692 31.1137 62.8887 31.2933 62.8887ZM31.5175 63.3111C31.4593 63.2467 31.38 63.2058 31.2933 63.2058C31.2066 63.2058 31.1273 63.2454 31.0691 63.3111C31.0071 63.3804 30.9687 63.4771 30.9687 63.5848C30.9687 63.6926 31.0071 63.7904 31.0691 63.8598C31.1273 63.9242 31.2066 63.9639 31.2933 63.9639C31.38 63.9639 31.4593 63.9242 31.5175 63.8598C31.5794 63.7904 31.6178 63.6938 31.6178 63.5848C31.6178 63.4758 31.5794 63.3804 31.5175 63.3111Z" fill="#3D200C"/>
<path d="M38.2716 60.5508C38.4252 60.5508 38.5627 60.6189 38.6618 60.7292C38.7572 60.8357 38.8166 60.9819 38.8166 61.1416C38.8166 61.3014 38.7572 61.4488 38.6618 61.5541C38.5627 61.6644 38.424 61.7325 38.2716 61.7325C38.1192 61.7325 37.9805 61.6644 37.8814 61.5541C37.786 61.4476 37.7266 61.3014 37.7266 61.1416C37.7266 60.9819 37.786 60.8357 37.8814 60.7292C37.9805 60.6189 38.1192 60.5508 38.2716 60.5508ZM38.4624 60.91C38.4128 60.8555 38.3459 60.8208 38.2716 60.8208C38.1973 60.8208 38.1304 60.8543 38.0808 60.91C38.0276 60.9682 37.9954 61.0512 37.9954 61.1429C37.9954 61.2345 38.0276 61.3163 38.0808 61.3758C38.1304 61.4303 38.1973 61.4649 38.2716 61.4649C38.3459 61.4649 38.4128 61.4315 38.4624 61.3758C38.5156 61.3175 38.5478 61.2345 38.5478 61.1429C38.5478 61.0512 38.5156 60.9682 38.4624 60.91Z" fill="#3D200C"/>
<path d="M34.8168 65.3105C34.9469 65.3105 35.0645 65.3688 35.1488 65.4617C35.2305 65.5521 35.2801 65.676 35.2801 65.8122C35.2801 65.9485 35.2293 66.0724 35.1488 66.1628C35.0645 66.2569 34.9469 66.3139 34.8168 66.3139C34.6867 66.3139 34.5691 66.2557 34.4848 66.1628C34.4031 66.0724 34.3535 65.9485 34.3535 65.8122C34.3535 65.676 34.4043 65.5521 34.4848 65.4617C34.5691 65.3675 34.6867 65.3105 34.8168 65.3105ZM34.9791 65.6153C34.9369 65.5682 34.88 65.5397 34.8168 65.5397C34.7536 65.5397 34.6966 65.5682 34.6545 65.6153C34.6099 65.6648 34.5814 65.7354 34.5814 65.8135C34.5814 65.8915 34.6087 65.9609 34.6545 66.0104C34.6966 66.0575 34.7536 66.086 34.8168 66.086C34.88 66.086 34.9369 66.0575 34.9791 66.0104C35.0237 65.9609 35.0521 65.8903 35.0521 65.8135C35.0521 65.7367 35.0249 65.6661 34.9791 65.6153Z" fill="#3D200C"/>
<path d="M31.0001 66.3945C31.1958 66.3945 31.3717 66.4812 31.4993 66.6224C31.622 66.7587 31.6975 66.9445 31.6975 67.1501C31.6975 67.3558 31.622 67.5416 31.4993 67.6778C31.373 67.819 31.1958 67.9058 31.0001 67.9058C30.8044 67.9058 30.6285 67.819 30.5009 67.6778C30.3783 67.5416 30.3027 67.3558 30.3027 67.1501C30.3027 66.9445 30.3783 66.7587 30.5009 66.6224C30.6273 66.4812 30.8044 66.3945 31.0001 66.3945ZM31.2429 66.8529C31.1797 66.7822 31.093 66.7389 31.0001 66.7389C30.9072 66.7389 30.8193 66.7822 30.7573 66.8529C30.6892 66.9272 30.6483 67.0325 30.6483 67.1501C30.6483 67.2678 30.6905 67.3719 30.7573 67.4474C30.8205 67.518 30.9072 67.5614 31.0001 67.5614C31.093 67.5614 31.1797 67.518 31.2429 67.4474C31.311 67.3719 31.3519 67.2678 31.3519 67.1501C31.3519 67.0325 31.3098 66.9272 31.2429 66.8529Z" fill="#3D200C"/>
<path d="M30.5402 70.1465C30.6702 70.1465 30.7867 70.2047 30.8709 70.2976C30.9527 70.388 31.0022 70.5119 31.0022 70.6469C31.0022 70.7819 30.9514 70.9071 30.8709 70.9975C30.7867 71.0904 30.6702 71.1486 30.5402 71.1486C30.4101 71.1486 30.2924 71.0904 30.2094 70.9975C30.1277 70.9071 30.0781 70.7832 30.0781 70.6469C30.0781 70.5107 30.1289 70.3868 30.2094 70.2976C30.2937 70.2035 30.4101 70.1465 30.5402 70.1465ZM30.7012 70.45C30.6591 70.4029 30.6021 70.3744 30.5402 70.3744C30.4782 70.3744 30.42 70.4029 30.3791 70.45C30.3345 70.4995 30.306 70.5701 30.306 70.6469C30.306 70.7237 30.3333 70.7943 30.3791 70.8439C30.4212 70.8909 30.4782 70.9194 30.5402 70.9194C30.6021 70.9194 30.6603 70.8909 30.7012 70.8439C30.7458 70.7943 30.7743 70.725 30.7743 70.6469C30.7743 70.5689 30.747 70.4995 30.7012 70.45Z" fill="#3D200C"/>
<path d="M32.9132 68.1348C33.0433 68.1348 33.1597 68.193 33.2439 68.2859C33.3257 68.3763 33.3752 68.5002 33.3752 68.6364C33.3752 68.7727 33.3245 68.8966 33.2439 68.987C33.1597 69.0811 33.0433 69.1381 32.9132 69.1381C32.7831 69.1381 32.6667 69.0799 32.5825 68.987C32.5007 68.8966 32.4512 68.7727 32.4512 68.6364C32.4512 68.5002 32.502 68.3763 32.5825 68.2859C32.6667 68.193 32.7831 68.1348 32.9132 68.1348ZM33.0742 68.4383C33.0321 68.3912 32.9751 68.3627 32.9132 68.3627C32.8513 68.3627 32.7931 68.3912 32.7522 68.4383C32.7076 68.4878 32.6791 68.5584 32.6791 68.6352C32.6791 68.712 32.7063 68.7826 32.7522 68.8322C32.7943 68.8792 32.8513 68.9077 32.9132 68.9077C32.9751 68.9077 33.0334 68.8792 33.0742 68.8322C33.1188 68.7826 33.1473 68.712 33.1473 68.6352C33.1473 68.5584 33.1201 68.4878 33.0742 68.4383Z" fill="#3D200C"/>
<path d="M37.4293 63.6328C37.5061 63.6328 37.5755 63.6675 37.6262 63.7232C37.6746 63.7765 37.7043 63.8496 37.7043 63.9313C37.7043 64.0131 37.6746 64.0862 37.6262 64.1394C37.5767 64.1952 37.5073 64.2299 37.4293 64.2299C37.3513 64.2299 37.2831 64.1952 37.2323 64.1394C37.184 64.0862 37.1543 64.0131 37.1543 63.9313C37.1543 63.8496 37.184 63.7777 37.2323 63.7232C37.2819 63.6675 37.3513 63.6328 37.4293 63.6328ZM37.5247 63.8137C37.4999 63.7864 37.4652 63.7691 37.4293 63.7691C37.3934 63.7691 37.3587 63.7864 37.3339 63.8137C37.3079 63.8434 37.2906 63.8843 37.2906 63.9313C37.2906 63.9784 37.3067 64.0193 37.3339 64.049C37.3587 64.0763 37.3934 64.0936 37.4293 64.0936C37.4652 64.0936 37.4999 64.0763 37.5247 64.049C37.5507 64.0193 37.568 63.9784 37.568 63.9313C37.568 63.8843 37.5519 63.8434 37.5247 63.8137Z" fill="#3D200C"/>
<path d="M34.2496 63.7734C34.3264 63.7734 34.3958 63.8081 34.4466 63.8626C34.4949 63.9159 34.5246 63.9902 34.5246 64.0707C34.5246 64.1512 34.4949 64.2256 34.4466 64.2788C34.397 64.3346 34.3276 64.3693 34.2496 64.3693C34.1716 64.3693 34.1034 64.3346 34.0526 64.2788C34.0043 64.2256 33.9746 64.1512 33.9746 64.0707C33.9746 63.9902 34.0043 63.9159 34.0526 63.8626C34.1022 63.8069 34.1716 63.7734 34.2496 63.7734ZM34.345 63.9543C34.3202 63.927 34.2855 63.9097 34.2496 63.9097C34.2137 63.9097 34.179 63.927 34.1542 63.9543C34.1282 63.984 34.1109 64.0249 34.1109 64.072C34.1109 64.119 34.127 64.1599 34.1542 64.1896C34.179 64.2169 34.2137 64.2342 34.2496 64.2342C34.2855 64.2342 34.3202 64.2169 34.345 64.1896C34.371 64.1599 34.3883 64.119 34.3883 64.072C34.3883 64.0249 34.3722 63.984 34.345 63.9543Z" fill="#3D200C"/>
<path d="M30.6012 59.2695C30.678 59.2695 30.7473 59.3042 30.7981 59.3587C30.8464 59.412 30.8762 59.4863 30.8762 59.5668C30.8762 59.6473 30.8464 59.7204 30.7981 59.7749C30.7486 59.8307 30.6792 59.8653 30.6012 59.8653C30.5231 59.8653 30.455 59.8307 30.4042 59.7749C30.3559 59.7217 30.3262 59.6486 30.3262 59.5668C30.3262 59.4851 30.3559 59.4132 30.4042 59.3587C30.4538 59.303 30.5231 59.2695 30.6012 59.2695ZM30.6965 59.4504C30.6718 59.4231 30.6371 59.4058 30.6012 59.4058C30.5652 59.4058 30.5306 59.4231 30.5058 59.4504C30.4798 59.4801 30.4624 59.521 30.4624 59.5681C30.4624 59.6151 30.4785 59.656 30.5058 59.6845C30.5306 59.7118 30.5652 59.7291 30.6012 59.7291C30.6371 59.7291 30.6718 59.7118 30.6965 59.6845C30.7238 59.6548 30.7399 59.6139 30.7399 59.5681C30.7399 59.5222 30.7238 59.4801 30.6965 59.4504Z" fill="#3D200C"/>
<path d="M37.2728 58.418C37.4016 58.418 37.518 58.4749 37.601 58.5679C37.6815 58.657 37.7311 58.7797 37.7311 58.9147C37.7311 59.0497 37.6815 59.1723 37.601 59.2615C37.518 59.3544 37.4016 59.4114 37.2728 59.4114C37.144 59.4114 37.0275 59.3544 36.9445 59.2615C36.864 59.1723 36.8145 59.0497 36.8145 58.9147C36.8145 58.7797 36.864 58.657 36.9445 58.5679C37.0275 58.4749 37.144 58.418 37.2728 58.418ZM37.4326 58.719C37.3905 58.6731 37.3347 58.6447 37.2728 58.6447C37.2108 58.6447 37.1539 58.6731 37.113 58.719C37.0684 58.7685 37.0411 58.8379 37.0411 58.9147C37.0411 58.9915 37.0684 59.0609 37.113 59.1104C37.1551 59.1562 37.2108 59.1847 37.2728 59.1847C37.3347 59.1847 37.3917 59.1562 37.4326 59.1104C37.4772 59.0609 37.5044 58.9915 37.5044 58.9147C37.5044 58.8379 37.4772 58.7685 37.4326 58.719Z" fill="#3D200C"/>
<path d="M33.2884 55.752C33.4172 55.752 33.5337 55.8089 33.6167 55.9018C33.6972 55.991 33.7467 56.1137 33.7467 56.2487C33.7467 56.3837 33.6972 56.5063 33.6167 56.5955C33.5337 56.6884 33.4172 56.7454 33.2884 56.7454C33.1596 56.7454 33.0431 56.6884 32.9601 56.5955C32.8796 56.5063 32.8301 56.3837 32.8301 56.2487C32.8301 56.1137 32.8796 55.991 32.9601 55.9018C33.0431 55.8089 33.1596 55.752 33.2884 55.752ZM33.4482 56.053C33.4061 56.0071 33.3503 55.9786 33.2884 55.9786C33.2265 55.9786 33.1695 56.0071 33.1286 56.053C33.084 56.1025 33.0568 56.1719 33.0568 56.2487C33.0568 56.3255 33.084 56.3948 33.1286 56.4444C33.1707 56.4902 33.2265 56.5187 33.2884 56.5187C33.3503 56.5187 33.4073 56.4902 33.4482 56.4444C33.4928 56.3948 33.52 56.3255 33.52 56.2487C33.52 56.1719 33.4928 56.1025 33.4482 56.053Z" fill="#3D200C"/>
<path fill-rule="evenodd" clip-rule="evenodd" d="M39.8972 48.4609C39.8972 48.4609 34.8457 52.3901 33.4435 54.0735C32.04 55.7569 31.4863 56.2537 31.4863 56.2537C31.4863 56.2537 38.7043 50.5655 39.8972 48.4609Z" fill="#3D200C"/>
<path fill-rule="evenodd" clip-rule="evenodd" d="M39.6869 50.9863C39.6869 50.9863 38.0728 52.1086 36.5306 53.652C34.9872 55.1955 34.3555 55.8272 34.3555 55.8272C34.3555 55.8272 39.2657 52.4604 39.6869 50.9863Z" fill="#3D200C"/>
<path fill-rule="evenodd" clip-rule="evenodd" d="M37.3715 48.8828C37.3715 48.8828 34.8457 50.4262 33.7941 51.6191C32.7412 52.812 32.3906 53.1625 32.3906 53.1625C32.3906 53.1625 36.9503 49.6545 37.3715 48.8828Z" fill="#3D200C"/>
<path fill-rule="evenodd" clip-rule="evenodd" d="M15.0082 49.9707C15.0082 49.9707 12.4825 51.5141 11.4308 52.707C10.3779 53.8999 10.0273 54.2504 10.0273 54.2504C10.0273 54.2504 14.587 50.7424 15.0082 49.9707Z" fill="#3D200C"/>
<path fill-rule="evenodd" clip-rule="evenodd" d="M26.9823 22.3762C26.9823 22.3762 26.6664 25.0791 26.4422 27.0164C26.2168 28.9538 26.2168 29.0888 26.1263 28.7283C26.0359 28.3679 26.2614 23.1418 26.9823 22.375V22.3762Z" fill="#3D200C"/>
<path fill-rule="evenodd" clip-rule="evenodd" d="M25.9459 31.1602C25.9459 31.1602 26.216 37.1976 26.1256 38.8191C26.0351 40.4406 25.8097 38.0077 25.7651 36.9722C25.7205 35.9354 25.4381 31.891 25.9447 31.1602H25.9459Z" fill="#3D200C"/>
<path fill-rule="evenodd" clip-rule="evenodd" d="M25.5833 20.6172C25.5833 20.6172 25.4037 22.8704 25.1324 24.2218C24.8624 25.5733 24.8624 26.2496 24.8624 25.7987C24.8624 25.3478 24.772 21.2935 25.5833 20.6172Z" fill="#3D200C"/>
<path opacity="0.64" fill-rule="evenodd" clip-rule="evenodd" d="M1.84187 47.2927C1.84187 47.2927 2.5182 45.1745 3.55376 44.814C4.59056 44.4535 4.95103 45.4903 4.50014 47.0214C4.04925 48.5524 3.01616 54.134 5.94199 59.8618C8.86782 65.5896 8.73528 65.7197 6.70752 63.3315C4.67975 60.9432 0.0841399 55.4917 1.84187 47.2914V47.2927Z" fill="#FFC300"/>
<path opacity="0.64" fill-rule="evenodd" clip-rule="evenodd" d="M10.8239 36.7339C11.7839 36.018 15.1222 35.8681 16.2023 38.2266C17.2825 40.5851 13.3 41.1016 11.5299 41.2887C6.93555 41.7743 8.01942 38.8249 10.8226 36.7339H10.8239Z" fill="#FFC300"/>
<path opacity="0.64" fill-rule="evenodd" clip-rule="evenodd" d="M5.72408 41.4605C5.72408 41.4605 6.69027 40.4484 7.56604 40.8671C8.44181 41.2858 7.62674 43.2615 6.1056 43.8041C4.58447 44.3467 3.36806 43.6914 5.72408 41.4605Z" fill="#FFC300"/>
</svg>
