<svg width="700" height="400" viewBox="0 0 700 400" fill="none" xmlns="http://www.w3.org/2000/svg">
<rect width="700" height="400" rx="20" fill="white"/>
<path d="M603.188 171.803L484.533 378.175L184.96 316.57L603.188 171.803Z" fill="#E3DEAA"/>
<path d="M184.962 318.326C185.154 318.326 185.349 318.296 185.541 318.23L601.63 174.716C602.549 174.398 603.036 173.394 602.718 172.474C602.4 171.555 601.396 171.068 600.477 171.386L184.388 314.901C183.468 315.219 182.982 316.223 183.299 317.142C183.552 317.87 184.234 318.326 184.966 318.326H184.962Z" fill="#FFFCDD"/>
<path d="M63.9067 171.803L182.561 378.175L482.13 316.57L63.9067 171.803Z" fill="#E3DEAA"/>
<path d="M482.639 318.326C482.447 318.326 482.252 318.296 482.064 318.23L65.9749 174.716C65.0555 174.398 64.5689 173.394 64.8869 172.474C65.2049 171.555 66.2086 171.068 67.1281 171.386L483.217 314.901C484.137 315.219 484.623 316.223 484.305 317.142C484.053 317.87 483.371 318.326 482.639 318.326Z" fill="#FFFCDD"/>
<path d="M259.227 277.109L332.678 157.306V308.398L259.227 277.109Z" fill="#FFFCDD"/>
<path d="M406.131 277.109L332.68 157.306V308.398L406.131 277.109Z" fill="#EFEBC4"/>
<path d="M98.9553 158.629C98.9553 158.629 89.6801 161.264 65.1723 145.147C62.8583 146.756 59.8585 145.737 56.1614 143.572C53.0697 142.844 51.0967 141.821 51.6139 140.691C52.1579 139.523 55.5178 140.611 56.3913 140.749C56.2802 140.664 52.3073 138.894 51.453 138.438C49.4837 137.385 50.2423 135.381 52.0966 135.975C53.6597 136.473 57.1499 137.871 57.3299 137.933C57.1882 137.806 53.3532 135.385 52.6368 134.948C50.5335 133.661 51.6637 131.14 54.1079 132.569C55.7707 133.538 58.621 135.343 58.9122 135.431C58.8662 135.285 57.0962 133.439 56.1231 132.27C54.5255 130.343 55.9469 128.715 58.1153 130.569C59.8355 132.033 64.1111 135.347 64.1111 135.347C64.1111 135.347 64.2375 131.638 66.2833 131.73C68.3407 131.83 67.9307 138.316 67.9307 138.316C67.9307 138.316 83.2361 149.69 97.9133 151.261C104.319 153.112 98.9553 158.625 98.9553 158.625V158.629Z" fill="#FCC7A5"/>
<path d="M63.3863 140.213C63.3404 140.201 63.2944 140.182 63.2599 140.144C61.4516 138.401 62.5703 136.182 63.5243 135.144C63.6047 135.056 63.758 135.037 63.8422 135.129C63.9457 135.217 63.9495 135.363 63.8652 135.462C63.03 136.374 62.034 138.316 63.5817 139.807C63.6775 139.899 63.6813 140.048 63.5932 140.14C63.5358 140.194 63.463 140.22 63.3902 140.217L63.3863 140.213Z" fill="#CE7755"/>
<path d="M133.198 162.03C133.198 162.03 141.948 166.088 168.674 154.004C170.708 155.958 173.831 155.418 177.819 153.862C180.983 153.629 183.094 152.928 182.761 151.728C182.409 150.491 178.918 151.039 178.034 151.039C178.156 150.974 182.359 149.847 183.275 149.533C185.385 148.801 184.949 146.706 183.025 147.001C181.405 147.246 177.739 148.081 177.551 148.116C177.712 148.012 181.88 146.223 182.654 145.901C184.933 144.959 184.209 142.292 181.577 143.319C179.781 144.016 176.685 145.35 176.386 145.392C176.455 145.258 178.489 143.71 179.635 142.706C181.516 141.055 180.367 139.224 177.93 140.718C175.999 141.894 171.26 144.499 171.26 144.499C171.26 144.499 171.716 140.817 169.682 140.587C167.636 140.361 167.023 146.836 167.023 146.836C167.023 146.836 150.127 155.671 135.381 154.927C128.765 155.755 133.201 162.034 133.201 162.034L133.198 162.03Z" fill="#FCC7A5"/>
<path d="M171.21 149.402C171.26 149.398 171.306 149.386 171.344 149.352C173.406 147.915 172.647 145.547 171.869 144.371C171.8 144.272 171.655 144.229 171.555 144.302C171.436 144.375 171.41 144.521 171.479 144.628C172.161 145.659 172.839 147.735 171.076 148.965C170.969 149.041 170.942 149.187 171.015 149.29C171.065 149.352 171.134 149.39 171.207 149.398L171.21 149.402Z" fill="#CE7755"/>
<path d="M128.366 153.415C128.366 153.415 122.807 151.779 119.252 150.231C119.378 146.431 120.65 142.316 120.65 142.316L113.842 140.749C113.842 140.749 112.52 146.837 112.298 149.315C107.126 149.978 100.234 150.396 100.234 150.396C100.234 150.396 94.8165 165.663 112.409 167.169C117.037 167.567 128.27 160.675 128.366 153.415Z" fill="#FCC7A5"/>
<path d="M114.275 143.114L119.692 144.325C119.692 144.325 118.773 147.018 118.589 149.922C116.754 147.815 113.995 147.65 112.865 149.409C113.137 146.965 114.275 143.114 114.275 143.114Z" fill="#EFB692"/>
<path d="M104.035 150.244C95.9087 165.488 111.409 168.258 126.922 153.125C129.722 153.248 133.477 154.271 134.722 154.205C133.423 161.216 134.584 164.036 136.73 165.553C135.446 168.745 135.408 190.417 135.802 200.884C126.044 211.749 92.4032 196.995 89.1122 193.785C88.3115 188.778 87.756 181.196 89.3919 165.373C89.8516 160.933 93.1962 153.589 95.4298 150.926C97.8664 150.018 101.985 149.892 104.031 150.248L104.035 150.244Z" fill="#00A99B"/>
<path d="M103.071 170.493C100.631 165.651 95.8381 167.401 95.9914 170.183C96.1485 172.964 101.903 174.914 101.669 178.362C104.696 174.585 110.73 174.999 110.124 171.148C109.523 167.298 105.267 168.739 103.071 170.493Z" fill="#FEF9EF"/>
<path d="M105.79 149.915C103.062 154.168 101.269 160.6 106.993 161.159C112.541 161.703 116.655 161.071 124.593 152.145C126.019 152.589 127.233 153.049 127.233 153.049C127.233 153.049 119.586 166.496 105.591 163.979C93.9519 161.884 103.208 149.923 103.208 149.923H105.79V149.915Z" fill="#FEF9EF"/>
<path d="M185.654 123.491C191.355 130.747 187.309 140.014 178.647 135.122C182.807 149.209 170.647 147.071 164.33 139.244C161.66 151.791 152.308 146.792 149.848 138.39C145.431 148.543 135.769 147.029 130.815 138.007C129.654 148.432 114.356 142.267 114.831 136.214C113.004 144.884 104.02 146.543 99.1927 138.244C98.3651 143.535 85.8756 138.988 88.0479 134.141C82.4965 137.988 71.6161 133.693 73.7041 127.889C70.3901 129.49 66.1835 126.242 68.2255 123.732C60.7203 123.498 52.6672 114.698 56.644 110.369C50.5869 109.894 44.8134 98.619 56.3949 96.8949C46.0508 92.2133 51.6596 86.4895 57.6899 88.612C49.5219 83.5625 56.6133 72.8851 66.5858 78.4556C61.9424 65.9431 70.302 59.2386 82.1134 65.0926C90.3083 53.4114 133.06 48.316 150.814 70.4217C170.054 80.0341 185.646 123.487 185.646 123.487L185.654 123.491Z" fill="black"/>
<path d="M156.716 117.238C153.268 139.24 130.821 150.726 109.635 147.408C88.4522 144.091 76.5565 127.222 80.0046 105.216C83.4526 83.2175 103.29 68.8622 124.477 72.1838C145.663 75.5016 160.16 95.2397 156.712 117.238H156.716Z" fill="#FCC7A5"/>
<path d="M154.5 117.261C154.5 117.261 155.715 112.874 161.231 112.939C167.043 113.016 168.353 120.824 164.702 124.915C161.051 128.996 154.665 128.248 153.132 124.482L154.504 117.265L154.5 117.261Z" fill="#FCC7A5"/>
<path d="M162.098 115.037C158.447 113.93 154.651 120.133 159.298 124.148C157.716 119.256 159.857 117.899 162.271 120.432C162.42 118.915 161.604 117.85 159.336 117.746C159.75 115.765 162.095 115.034 162.095 115.034L162.098 115.037Z" fill="#D48566"/>
<path d="M114.007 106.01C113.275 108.174 107.076 109.776 108.762 112.833C109.804 114.729 112.911 114.81 113.47 111.435C113.796 109.481 114.007 106.006 114.007 106.006V106.01Z" fill="#F37258"/>
<path d="M123.94 124.248C123.576 126.435 126.587 128.757 130.671 129.439C134.751 130.121 138.357 128.899 138.724 126.715C139.088 124.528 136.077 122.206 131.993 121.524C127.909 120.842 124.308 122.064 123.94 124.248Z" fill="#F37258"/>
<path d="M81.961 117.251C81.597 119.439 84.6083 121.761 88.6923 122.443C92.7725 123.125 96.3776 121.902 96.7415 119.719C97.1055 117.535 94.0942 115.209 90.0102 114.527C85.9262 113.849 82.3249 115.068 81.961 117.251Z" fill="#F37258"/>
<path d="M97.3346 88.7806C101.369 87.8305 102.005 92.244 99.3651 92.1367C96.5301 92.0179 94.1126 92.9489 93.7755 92.6615C93.0169 92.0256 95.0666 89.3131 97.3385 88.7806H97.3346Z" fill="#EF4A23"/>
<path d="M133.88 96.176C130.075 94.5286 128.669 98.762 131.29 99.1259C134.102 99.5091 136.316 100.85 136.703 100.624C137.558 100.13 136.017 97.0993 133.88 96.176Z" fill="#EF4A23"/>
<path d="M98.8186 120.58C102.136 119.116 102.707 122.438 109.366 123.587C116.162 124.76 117.679 121.656 120.507 124.763C122.813 127.3 118.472 138.617 107.358 136.556C96.1636 134.468 95.6579 121.974 98.8186 120.58Z" fill="#542425"/>
<path d="M115.46 135.443C113.353 136.604 110.656 137.167 107.361 136.558C104.277 135.984 102.005 134.62 100.396 132.915C102.396 132.604 105.005 132.612 108.273 133.179C111.391 133.719 113.748 134.539 115.456 135.447L115.46 135.443Z" fill="#ED756D"/>
<path d="M99.9998 120.236C102.394 119.945 103.582 122.585 109.371 123.585C115.229 124.596 117.163 122.431 119.401 123.807C118.799 126.979 113.455 128.454 108.758 127.584C104.103 126.718 99.4098 123.378 100.004 120.236H99.9998Z" fill="#FFFCDD"/>
<path d="M126.221 108.668C124.167 112.116 125.137 116.48 128.386 118.422C131.638 120.364 135.944 119.146 137.998 115.698C140.055 112.25 139.082 107.886 135.833 105.94C132.577 104.002 128.274 105.22 126.217 108.668H126.221Z" fill="#FFFCDD"/>
<path d="M126.649 109.704C125.381 111.827 125.979 114.524 127.986 115.719C129.994 116.918 132.649 116.164 133.917 114.041C135.185 111.915 134.584 109.222 132.58 108.022C130.573 106.827 127.918 107.578 126.649 109.704Z" fill="#353636"/>
<path d="M131.14 110.784C131.029 111.5 131.489 112.163 132.159 112.267C132.833 112.37 133.466 111.88 133.581 111.163C133.692 110.451 133.236 109.788 132.565 109.677C131.891 109.577 131.251 110.071 131.14 110.784Z" fill="#FFFCDD"/>
<path d="M127.038 113.191C126.965 113.635 127.253 114.045 127.674 114.11C128.092 114.175 128.486 113.869 128.555 113.424C128.62 112.984 128.341 112.57 127.919 112.505C127.502 112.44 127.107 112.746 127.038 113.191Z" fill="#FFFCDD"/>
<path d="M139.889 110.393C139.889 110.393 135.576 103.176 127.377 106.367C136.012 99.7544 139.889 110.393 139.889 110.393Z" fill="#EF4A23"/>
<path d="M98.841 103.838C99.5957 107.777 97.1936 111.55 93.4774 112.267C89.7574 112.979 86.1254 110.367 85.3707 106.424C84.6121 102.478 87.0181 98.7084 90.7343 97.992C94.4582 97.2794 98.0863 99.8961 98.8448 103.838H98.841Z" fill="#FFFCDD"/>
<path d="M94.4281 104.016C94.8955 106.445 93.4128 108.774 91.118 109.214C88.8231 109.655 86.5857 108.042 86.1183 105.613C85.6509 103.18 87.1336 100.855 89.4284 100.414C91.7233 99.9737 93.9607 101.587 94.4281 104.019V104.016Z" fill="#353636"/>
<path d="M89.8372 103.505C89.6955 104.218 89.0403 104.682 88.3737 104.551C87.7071 104.417 87.278 103.739 87.4159 103.03C87.5538 102.322 88.209 101.854 88.8794 101.981C89.546 102.119 89.9828 102.8 89.841 103.509L89.8372 103.505Z" fill="#FFFCDD"/>
<path d="M92.8691 107.169C92.7848 107.609 92.3787 107.897 91.9573 107.816C91.5435 107.736 91.2753 107.31 91.3634 106.87C91.4554 106.433 91.8577 106.142 92.2753 106.222C92.689 106.303 92.9572 106.728 92.8691 107.165V107.169Z" fill="#FFFCDD"/>
<path d="M85.3979 100.808C85.3979 100.808 91.9147 95.4981 98.535 101.291C92.6733 92.1267 85.3979 100.808 85.3979 100.808Z" fill="#EF4A23"/>
<path d="M145.394 45.45C153.7 37.5578 162.94 38.7685 159.297 49.9822C168.07 46.6415 169.722 51.1431 166.473 55.3497C175.886 50.9285 190.919 57.2882 183.441 67.4331C188.95 66.8814 196.26 74.3905 190.126 77.4362C199.313 77.4592 206.121 88.1903 199.995 95.7146C209.991 99.6339 213.96 117.935 199.662 115.935C203.037 124.479 196.961 133.191 189.72 125.222C190.471 135.478 171.56 136.172 168.99 123.985C164.408 129.161 158.604 122.241 158.416 118.912C150.822 125.268 150.895 109.721 155.845 106.725C146.777 107.426 144.551 99.063 147.512 96.6992C138.149 102.304 135.26 89.125 141.179 87.4585C134.716 88.0945 136.218 81.4972 140.398 81.9148C135.107 81.0873 133.414 78.0032 139.72 76.8692C135.494 75.264 127.38 66.7856 123.939 74.7966C120.166 83.5814 115.706 77.214 114.764 71.1723C110.561 87.4853 103.788 79.2637 100.523 74.5092C102.366 86.8187 86.9305 81.8535 84.8387 75.6318C80.8772 81.3785 72.284 74.3138 76.4063 69.0652C69.2152 69.8237 64.093 58.8896 71.6557 57.2423C66.9166 54.3804 65.6561 42.8678 75.5635 45.8331C69.1501 40.1132 76.4293 40.3124 79.7356 41.7721C77.5595 34.5963 87.6354 27.4513 93.5507 33.3244C90.6773 21.559 100.339 23.0723 103.481 27.0988C104.596 19.9652 121.545 18.6128 121.407 31.5544C128.41 27.4628 130.805 33.2593 129.502 37.0636C138.199 29.704 148.88 33.7305 145.398 45.4423L145.394 45.45Z" fill="#353636"/>
<path d="M401.466 230.821C401.466 230.821 397.628 230.664 394.57 229.837C394.226 226.753 394.639 222.749 394.639 222.749L387.602 222.255C387.602 222.255 387.349 227.641 387.464 229.664C383.368 230.814 378.403 231.718 378.403 231.718C378.403 231.718 375.848 244.686 390.218 243.809C394 243.583 402.244 236.687 401.463 230.821H401.466Z" fill="#FCC7A5"/>
<path d="M387.756 224.698L393.855 224.821C393.855 224.821 393.809 227.847 393.495 229.548C392.192 227.418 388.602 227.97 387.993 229.702C387.729 227.556 387.756 224.698 387.756 224.698Z" fill="#EFB692"/>
<path d="M380.014 231.325C379.064 243.715 400.009 246.133 399.764 230.395C402.308 230.594 416.418 236.306 421.808 245.29C420.333 247.351 414.449 251.067 412.357 252.711C411.499 252.247 410.832 250.719 409.778 249.589C410.698 256.178 412.138 265.473 414.671 272.556L372.532 288.636C372.746 280.537 372.666 251.489 372.597 250.604C372.03 251.305 371.068 252.791 369.862 254.431C367.268 253.343 359.728 248.937 360.019 248.183C363.897 238.218 376.673 231.915 380.007 231.329L380.014 231.325Z" fill="#EF4A23"/>
<path d="M381.213 230.837C381.791 237.587 384.676 240.939 390.338 240.748C396.005 240.556 399.135 234.855 399.188 230.384C399.587 230.331 401.177 230.683 401.177 230.683C401.177 230.683 402.376 242.062 390.4 243.016C378.42 243.974 379.109 231.526 379.109 231.526L381.213 230.837Z" fill="#FFFCDD"/>
<path d="M435.317 184.843C435.309 210.466 415.315 227.522 390.642 227.514C365.969 227.51 345.975 210.45 345.979 184.824C345.979 159.201 365.985 139.356 390.657 139.363C415.33 139.363 435.321 159.224 435.317 184.843Z" fill="#FCC7A5"/>
<path d="M433.527 185.042C433.527 185.042 434.128 179.836 440.408 178.932C447.032 177.981 449.909 186.628 446.484 191.927C443.059 197.214 435.665 197.505 433.255 193.494L433.527 185.042Z" fill="#FCC7A5"/>
<path d="M441.769 181.174C437.424 180.565 434.206 188.292 440.206 192.027C437.535 186.748 439.731 184.825 442.926 187.277C442.826 185.526 441.711 184.461 439.114 184.744C439.233 182.419 441.769 181.174 441.769 181.174Z" fill="#D48566"/>
<path d="M347.478 185.042C347.478 185.042 346.876 179.836 340.597 178.932C333.973 177.981 331.096 186.628 334.513 191.923C337.938 197.214 345.332 197.505 347.742 193.494L347.474 185.042H347.478Z" fill="#FCC7A5"/>
<path d="M339.238 181.173C343.586 180.568 346.797 188.295 340.797 192.027C343.471 186.751 341.276 184.824 338.081 187.276C338.181 185.525 339.296 184.46 341.893 184.748C341.774 182.426 339.238 181.173 339.238 181.173Z" fill="#D48566"/>
<path d="M393.119 182.789C392.682 185.471 385.725 188.563 388.303 191.819C389.897 193.838 393.555 193.325 393.555 189.26C393.555 186.904 393.122 182.789 393.122 182.789H393.119Z" fill="#F37258"/>
<path d="M407.04 199.06C407.04 201.696 411.028 203.83 415.947 203.83C420.867 203.83 424.859 201.692 424.859 199.06C424.859 196.428 420.87 194.29 415.947 194.29C411.024 194.29 407.04 196.428 407.04 199.06Z" fill="#F37258"/>
<path d="M356.432 199.06C356.432 201.696 360.42 203.83 365.343 203.83C370.266 203.83 374.255 201.692 374.255 199.06C374.255 196.428 370.266 194.29 365.343 194.29C360.42 194.29 356.432 196.428 356.432 199.06Z" fill="#F37258"/>
<path d="M377.96 199.949C381.428 197.627 382.738 201.278 390.511 201.251C398.449 201.225 399.549 197.409 403.372 200.366C406.491 202.78 403.828 216.472 390.821 216.35C377.719 216.216 374.658 202.159 377.96 199.949Z" fill="#542425"/>
<path d="M399.769 213.472C397.612 215.208 394.666 216.384 390.815 216.349C387.206 216.315 384.36 215.219 382.195 213.606C384.398 212.859 387.356 212.346 391.176 212.334C394.819 212.323 397.65 212.782 399.769 213.472Z" fill="#ED756D"/>
<path d="M379.223 199.323C381.878 198.519 383.751 201.273 390.506 201.25C397.348 201.227 399.11 198.392 401.915 199.503C401.869 203.216 396.107 205.955 390.609 205.905C385.161 205.851 379.177 203.005 379.223 199.327V199.323Z" fill="#FFFCDD"/>
<path d="M406.638 180.978C404.999 185.292 406.968 190.046 411.037 191.602C415.109 193.153 419.745 190.912 421.388 186.598C423.032 182.277 421.059 177.526 416.99 175.974C412.914 174.427 408.282 176.668 406.638 180.982V180.978Z" fill="#FFFCDD"/>
<path d="M409.456 182.06C408.444 184.719 409.659 187.654 412.168 188.612C414.681 189.57 417.539 188.186 418.551 185.524C419.566 182.861 418.348 179.93 415.838 178.969C413.325 178.015 410.467 179.398 409.456 182.057V182.06Z" fill="#353636"/>
<path d="M414.764 182.386C414.783 183.221 415.434 183.88 416.216 183.861C417.001 183.842 417.622 183.16 417.61 182.328C417.591 181.501 416.944 180.838 416.162 180.846C415.377 180.869 414.752 181.555 414.768 182.382L414.764 182.386Z" fill="#FFFCDD"/>
<path d="M410.601 185.928C410.608 186.445 411.014 186.851 411.505 186.844C411.988 186.836 412.378 186.407 412.367 185.89C412.348 185.376 411.953 184.966 411.466 184.978C410.98 184.989 410.593 185.415 410.604 185.928H410.601Z" fill="#FFFCDD"/>
<path d="M422.476 180.223C422.476 180.223 416.147 172.905 407.492 178.154C415.959 168.94 422.476 180.223 422.476 180.223Z" fill="#734431"/>
<path d="M374.649 180.978C376.288 185.292 374.319 190.046 370.251 191.602C366.178 193.153 361.542 190.912 359.899 186.598C358.255 182.277 360.228 177.526 364.297 175.974C368.373 174.427 373.005 176.668 374.653 180.982L374.649 180.978Z" fill="#FFFCDD"/>
<path d="M371.825 182.06C372.836 184.719 371.622 187.654 369.113 188.612C366.599 189.57 363.741 188.186 362.726 185.524C361.715 182.861 362.929 179.93 365.439 178.969C367.952 178.015 370.81 179.398 371.825 182.057V182.06Z" fill="#353636"/>
<path d="M366.512 182.386C366.497 183.221 365.845 183.88 365.06 183.861C364.278 183.842 363.654 183.16 363.669 182.328C363.685 181.501 364.332 180.838 365.117 180.846C365.903 180.869 366.531 181.555 366.512 182.382V182.386Z" fill="#FFFCDD"/>
<path d="M370.676 185.928C370.668 186.445 370.262 186.851 369.776 186.844C369.289 186.836 368.902 186.407 368.914 185.89C368.933 185.376 369.328 184.966 369.814 184.978C370.301 184.989 370.688 185.415 370.676 185.928Z" fill="#FFFCDD"/>
<path d="M358.81 180.223C358.81 180.223 365.139 172.905 373.793 178.154C365.326 168.94 358.81 180.223 358.81 180.223Z" fill="#734431"/>
<path d="M366.507 165.747C370.921 163.95 372.434 168.854 369.411 169.203C366.17 169.571 363.588 171.061 363.147 170.793C362.174 170.203 364.021 166.755 366.507 165.743V165.747Z" fill="#353636"/>
<path d="M415.562 166.718C410.945 165.523 410.102 170.584 413.144 170.53C416.408 170.465 419.163 171.595 419.561 171.273C420.446 170.561 418.155 167.388 415.562 166.718Z" fill="#353636"/>
<path d="M425.58 137.211C431.694 137.514 434.702 132.514 431.204 128.304C442.981 133.388 448.709 124.634 440.881 120.427C451.203 120.645 446.13 113.447 442.552 111.688C459.125 112.079 452.992 86.054 433.189 90.0576C447.191 82.5485 434.909 80.5372 428.151 83.4335C439.893 68.2354 408.072 55.8416 402.854 79.8169C398.191 72.3117 392.287 78.2921 393.732 84.5139C388.284 72.8289 371.614 84.7361 381.64 94.586C371.35 91.6552 375.917 100.394 379.445 101.892C369.775 99.3864 369.592 108.543 376.273 112.42C362.883 111.7 374.197 125.795 381.48 127.128C388.763 128.461 418.753 136.874 425.58 137.211Z" fill="#353636"/>
<path d="M406.231 120.562C406.231 120.562 421.781 99.092 434.98 98.3564C440.225 107.547 438.539 119.098 438.539 119.098L406.227 120.558L406.231 120.562Z" fill="#FBE167"/>
<path d="M406.843 121.12C406.843 121.12 407.13 97.2095 397.721 87.9229C387.706 91.3441 381.324 101.113 381.324 101.113L406.843 121.12Z" fill="#FBE167"/>
<path d="M385.062 121.046C388.012 110.311 395.954 107.231 398.276 118.817C403.72 111.909 407.141 115.162 406.505 120.353C411.96 112.2 426.925 111.085 425.687 123.445C429.825 120.479 439.165 123.855 435.687 129.314C442.751 123.035 455.222 129.62 452.092 141.095C461.896 140.083 466.784 151.918 454.432 156.569C463.849 159.132 461.754 174.579 452.26 170.763C457.643 179.521 452.674 191.202 444.939 181.544C443.694 188.195 438.594 183.31 436.893 180.441C433.794 189.49 423.661 176.249 430.109 168.043C423.197 172.74 418.879 162.384 420.14 158.955C415.278 168.139 410.428 160.653 414.378 156.511C409.516 159.982 402.36 161.496 400.93 154.094C396.318 155.737 389.334 150.462 393.839 146.619C389.717 147.098 377.794 142.953 380.614 152.128C383.434 161.304 365.217 157.607 361.65 152.672C364.332 162.453 356.531 168.518 351.712 165.767C358.926 175.859 352.118 181.119 347.547 176.54C349.873 185.54 336.514 185.685 337.356 179.176C331.97 183.084 327.982 175.36 333.253 170.499C325.093 172.932 323.944 157.251 333.238 155.427C325.453 153.236 328.924 147.638 332.246 147.447C327.162 142.06 331.552 133.409 339.015 135.961C331.234 126.816 346.356 118.828 350.739 120.989C348.306 114.158 353.512 107.959 359.435 119.506C363.121 112.729 367.734 116.794 368.469 120.755C371.979 110.315 382.388 109.089 385.07 121.046H385.062Z" fill="#353636"/>
<path d="M300.887 241.494C312.319 241.257 326.751 232.138 328.483 214.075C332.073 209.266 332.927 204.757 331.977 204.083C330.659 203.148 329.506 207.301 328.828 207.883C328.793 207.753 328.927 202.095 328.82 201.202C328.575 199.129 326.847 198.892 326.383 200.658C325.985 202.175 325.387 205.554 325.383 205.742C325.326 205.566 324.449 201.21 324.315 200.443C323.908 198.171 321.315 198.175 321.579 201.37C321.729 203.16 322.525 206.604 322.502 206.88C322.391 206.795 320.257 204.297 319.399 203.144C318.001 201.267 315.959 202.309 316.966 204.658C317.798 206.596 321.077 211.634 321.077 211.634C321.077 211.634 316.043 211.672 315.802 213.178C315.499 215.082 322.039 214.898 322.039 214.898C322.039 214.898 318.123 233.479 302.466 234.15C302.159 235.897 301.378 239.988 300.883 241.494H300.887Z" fill="#FCC7A5"/>
<path d="M256.741 230.48C256.741 230.48 260.526 229.618 264.177 228.235C264.239 224.411 263.17 220.216 263.17 220.216L270.085 218.979C270.085 218.979 271.108 225.158 271.211 227.656C276.372 228.583 280.671 228.932 280.671 228.932C280.671 228.932 283.575 241.341 270.33 243.019C265.695 243.605 258.327 239.084 256.749 230.476L256.741 230.48Z" fill="#FCC7A5"/>
<path d="M269.862 221.577L264.468 222.221C264.468 222.221 264.989 228.623 265.108 230.412C266.659 228.339 269.295 227.772 270.326 229.699C270.1 226.14 269.862 221.581 269.862 221.581V221.577Z" fill="#EFAE87"/>
<path d="M281.391 229.32C279.529 246.518 265.25 246.706 255.902 230.428C253.22 230.462 240.451 234.523 238.877 249.422C238.796 250.185 245.811 251.744 245.792 252.564C245.608 260.425 246.37 277.355 247.075 280.52H293.29C293.29 280.52 292.49 258.023 292.352 247.354C290.877 246.97 301.332 247.626 301.868 247.219C303.32 246.112 303.922 234.454 302.002 230.868C301.773 230.435 292.586 229.634 281.395 229.324L281.391 229.32Z" fill="#00A99B"/>
<path d="M277.633 228.507C278.583 234.116 276.392 238.157 270.603 239.219C263.209 240.575 259.052 235.932 258.144 229.817C256.205 230.499 252.727 231.009 252.727 231.009C252.727 231.009 253.784 245.463 270.093 244.847C285.594 244.268 283.019 228.687 283.019 228.687L277.633 228.503V228.507Z" fill="#FFFCDD"/>
<path d="M303.993 230.065C304.486 237.615 304.159 243.585 303.012 247.976C301.177 248.167 298.277 247.685 298.277 247.685C299.261 244.758 299.966 238.241 298.783 229.989C301.012 229.889 303.993 230.065 303.993 230.065Z" fill="#FFFCDD"/>
<path d="M237.417 249.866C244.505 252.507 250.316 253.91 254.853 254.076C255.565 252.371 255.933 249.456 255.933 249.456C252.845 249.559 246.405 248.356 238.838 244.851C238.103 246.962 237.417 249.866 237.417 249.866Z" fill="#FFFCDD"/>
<path d="M226.265 199.293C233.491 222.724 259.761 231.697 282.323 224.74C304.88 217.778 315.175 197.523 307.949 174.092C300.72 150.664 276.84 138.156 254.279 145.117C231.717 152.074 219.036 175.866 226.265 199.293Z" fill="#FCC7A5"/>
<path d="M277.272 182.392C278.372 184.656 285.363 185.552 283.938 189.127C283.061 191.337 279.682 191.855 278.601 188.249C277.977 186.158 277.272 182.392 277.272 182.392Z" fill="#F37258"/>
<path d="M267.936 195.555C268.633 197.892 265.664 200.842 261.297 202.149C256.933 203.451 252.826 202.612 252.129 200.275C251.428 197.938 254.401 194.984 258.768 193.682C263.136 192.379 267.239 193.214 267.936 195.555Z" fill="#F37258"/>
<path d="M309.245 188.712C309.946 191.049 306.973 194.002 302.605 195.305C298.238 196.611 294.135 195.772 293.437 193.435C292.74 191.098 295.709 188.145 300.077 186.842C304.444 185.539 308.547 186.375 309.245 188.715V188.712Z" fill="#F37258"/>
<path d="M290.857 160.172C286.321 159.685 286.229 164.597 289.102 164.118C292.183 163.601 294.949 164.286 295.282 163.922C296.021 163.122 293.412 160.44 290.857 160.172Z" fill="#353636"/>
<path d="M251.492 177.361C255.419 175.04 257.537 179.472 254.725 180.227C251.706 181.028 249.473 182.802 249.017 182.61C248.013 182.189 249.281 178.664 251.492 177.365V177.361Z" fill="#353636"/>
<path d="M257.781 186.219C252.705 187.525 252.012 194.015 251.943 193.739C250.897 189.674 253.318 185.529 257.341 184.495C261.36 183.46 265.482 185.927 266.524 189.988C266.593 190.264 263.21 184.82 257.781 186.219Z" fill="#6E3233"/>
<path d="M288.586 203.481C286.613 201.496 285.272 203.722 280.169 202.673C274.959 201.604 274.74 198.949 271.836 200.385C269.469 201.558 269.403 210.906 277.962 212.549C286.586 214.197 290.463 205.37 288.586 203.481Z" fill="#542425"/>
<path d="M288.721 177.347C288.464 181.756 291.629 185.53 295.793 185.775C299.954 186.017 303.54 182.641 303.801 178.232C304.057 173.818 300.893 170.048 296.728 169.799C292.564 169.558 288.978 172.937 288.721 177.347Z" fill="#FFFCDD"/>
<path d="M293.563 176.912C293.403 179.633 295.356 181.958 297.923 182.111C300.49 182.261 302.701 180.18 302.862 177.46C303.019 174.736 301.069 172.415 298.502 172.261C295.931 172.112 293.721 174.196 293.563 176.916V176.912Z" fill="#353636"/>
<path d="M298.501 175.687C298.753 176.441 299.539 176.859 300.248 176.618C300.956 176.376 301.328 175.576 301.075 174.817C300.822 174.066 300.041 173.649 299.328 173.882C298.616 174.131 298.244 174.936 298.497 175.687H298.501Z" fill="#FFFCDD"/>
<path d="M295.716 180.114C295.874 180.585 296.36 180.838 296.805 180.689C297.245 180.543 297.479 180.041 297.318 179.57C297.157 179.106 296.674 178.846 296.234 178.995C295.793 179.145 295.563 179.643 295.72 180.11L295.716 180.114Z" fill="#FFFCDD"/>
<path d="M302.958 172.088C302.958 172.088 295.077 167.23 288.691 174.509C293.767 163.663 302.958 172.088 302.958 172.088Z" fill="#734431"/>
<path d="M211.702 145.835C205.825 125.288 220.399 102.305 246.106 109.086C271.813 115.867 293.103 110.14 291.808 97.4932C290.513 84.8466 320.059 92.348 302.432 120.775C310.37 117.078 311.879 101.305 317.503 102.508C324.541 104.018 333.245 122.821 305.37 141.915C319.653 140.18 322.786 152.156 305.5 161.021C288.218 169.887 255.063 174.308 239.62 166.519C244.758 186.912 220.579 207.554 220.579 207.554C220.579 207.554 201.048 200.049 195.458 181.882C189.869 163.715 204.167 154.248 204.167 154.248C204.167 154.248 193.305 151.742 195.7 147.585C198.094 143.429 206.707 148.382 206.707 148.382C206.707 148.382 197.78 140.62 201.81 136.023C205.841 131.426 211.699 145.831 211.699 145.831L211.702 145.835Z" fill="#353636"/>
<path d="M228.683 198.966C228.683 198.966 226.664 194.376 220.668 195.319C214.347 196.319 214.151 205.035 218.775 208.912C223.4 212.781 230.238 210.958 231.315 206.613L228.687 198.962L228.683 198.966Z" fill="#FCC7A5"/>
<path d="M220.05 197.754C223.854 195.973 228.969 202.133 224.54 207.24C225.494 201.658 222.942 200.52 220.713 203.662C220.31 202.034 221.031 200.743 223.486 200.275C222.72 198.183 220.05 197.758 220.05 197.758V197.754Z" fill="#D48566"/>
<path d="M488.814 103.807C489.056 116.895 490.764 122.817 469.839 134.043C456.648 141.119 453.955 159.708 483.864 147.517C463.962 167.872 484.979 186.2 497.879 156.405C478.949 214.581 551.572 215.16 559.916 154.903C567.215 187.514 593.45 157.183 579.563 133.384C607.304 158.972 598.515 107.018 563.506 88.7471C533.317 96.5358 488.822 103.811 488.822 103.811L488.814 103.807Z" fill="#353636"/>
<path d="M577.301 158.056C581.082 159.133 603.513 158.137 612.436 124.764C615.045 125.254 616.049 124.312 618.374 121.024C620.757 119.205 622.064 117.569 621.183 116.791C620.259 115.998 617.784 118.228 617.095 118.687C617.156 118.572 619.688 115.6 620.24 114.879C621.531 113.213 620.183 111.837 618.815 113.067C617.669 114.102 615.329 116.508 615.198 116.638C615.271 116.469 617.631 112.902 618.079 112.255C619.393 110.343 617.447 108.612 615.896 110.78C614.846 112.255 613.091 114.91 612.873 115.09C612.858 114.941 613.666 112.676 614.049 111.293C614.819 108.493 612.858 107.761 611.708 110.194C610.796 112.121 608.892 116.718 608.892 116.718C608.892 116.718 606.023 113.876 605.325 114.377C603.188 115.929 607.417 120.775 607.417 120.775C607.417 120.775 593.924 157.064 576.469 150.088C571.677 154.156 575.374 157.508 577.301 158.052V158.056Z" fill="#FCC7A5"/>
<path d="M556.637 146.803C556.637 146.803 555.894 146.7 552.76 146.305C552.572 144.106 552.825 140.601 552.825 140.601L546.316 140.83C546.316 140.83 546.247 144.378 546.439 146.573C544.649 147.167 542.182 147.677 542.182 147.677C542.182 147.677 543.726 151.914 551.431 151.397C559.131 150.883 556.637 146.803 556.637 146.803Z" fill="#FCC7A5"/>
<path d="M552.423 143.209V146.071C552.423 146.071 550.278 143.738 546.738 146.335C546.627 143.738 546.849 142.872 546.849 142.872L552.419 143.213L552.423 143.209Z" fill="#EBAD86"/>
<path d="M557.775 147.596C562.53 147.676 574.192 147.672 579.268 149.875C581.601 154.327 581.463 162.932 579.303 165.445C569.533 165.472 564.361 162.173 564.361 162.173L557.775 147.596Z" fill="#00A99B"/>
<path d="M577.415 149.292C578.414 151.48 579.671 158.878 578.005 165.345C578.51 165.908 582.142 165.774 582.598 165.452C583.935 160.575 583.518 153.686 582.066 150.472C580.87 149.644 577.418 149.296 577.418 149.296L577.415 149.292Z" fill="#006F67"/>
<path d="M553.244 150.904C555.244 151.16 558.42 148.463 556.964 146.98C564.611 148.413 568.228 150.145 570.224 157.93C572.185 165.592 574.703 176.511 580.472 203.942C572.549 206.631 542.502 208.727 527.702 208.279C527.269 203.203 534.058 178.79 533.303 153.137C534.51 150.448 536.617 148.957 541.387 147.823C545.655 150.965 548.846 151.428 553.248 150.904H553.244Z" fill="#00A99B"/>
<path d="M554.784 146.494C555.757 147.077 557.822 150.264 553.247 150.908C549.343 151.456 544.524 148.927 544.167 147.333C542.305 146.736 539.505 147.678 539.459 148.402C542.191 151.854 548.025 154.494 554.883 153.571C561.124 152.735 559.956 148.694 558.619 147.272C557.075 146.039 554.787 146.494 554.787 146.494H554.784Z" fill="#006F67"/>
<path d="M487.387 89.9775C493.884 97.3563 495.371 113.88 484.851 116.324C474.33 118.769 465.994 131.266 465.994 131.266C465.994 131.266 459.638 115.294 467.798 107.455C475.959 99.6205 487.387 89.9814 487.387 89.9814V89.9775Z" fill="#EF4A23"/>
<path d="M487.443 89.9622C488.78 99.701 480.891 114.298 470.773 110.524C460.655 106.747 446.802 112.562 446.802 112.562C446.802 112.562 448.595 96.4637 461.26 91.5177C471.8 87.4031 487.446 89.9622 487.446 89.9622H487.443Z" fill="#FFFCDD"/>
<path d="M486.703 92.7939C485.232 97.6365 480.738 106.23 473.459 105.624C466.18 105.019 459.077 102.908 455.614 105.95C457.591 99.7973 465.448 97.5177 471.517 99.146C477.585 100.778 486.707 92.7939 486.707 92.7939H486.703Z" fill="#EF4A23"/>
<path d="M581.244 41.8893C557.204 18.2895 524.21 18.6841 504.1 38.4873C494.082 48.3563 494.132 61.7078 494.132 61.7078C494.132 61.7078 487.178 67.0676 485.584 81.7677C484.849 88.5182 489.147 112.961 501.706 110.049C501.706 110.049 531.114 102.398 547.664 97.418C564.793 95.1001 591.994 90.4721 591.994 90.4721C601.055 71.7876 589.73 50.2144 581.248 41.8855L581.244 41.8893Z" fill="#353636"/>
<path d="M501.611 108.357C507.308 134.608 534.425 147.021 559.702 141.535C584.976 136.049 598.83 114.747 593.133 88.4926C587.436 62.2455 562.537 46.3577 537.263 51.8401C511.985 57.3263 495.918 82.1061 501.611 108.353V108.357Z" fill="#FCC7A5"/>
<path d="M541.587 106.233C541.722 106.72 542.319 106.965 542.967 106.796C543.583 106.616 543.99 106.092 543.859 105.605C543.721 105.138 543.108 104.862 542.472 105.026C541.836 105.214 541.449 105.751 541.587 106.237V106.233Z" fill="#E37A5D"/>
<path d="M543.194 101.697C543.328 102.183 543.926 102.428 544.573 102.26C545.194 102.08 545.596 101.559 545.466 101.064C545.332 100.597 544.715 100.317 544.079 100.482C543.443 100.674 543.056 101.206 543.194 101.693V101.697Z" fill="#E37A5D"/>
<path d="M547.255 104.78C547.393 105.262 547.986 105.507 548.634 105.339C549.251 105.163 549.657 104.634 549.526 104.144C549.389 103.676 548.776 103.396 548.14 103.565C547.5 103.757 547.117 104.293 547.251 104.78H547.255Z" fill="#E37A5D"/>
<path d="M566.565 100.803C566.695 101.289 567.297 101.534 567.94 101.366C568.557 101.186 568.963 100.661 568.837 100.174C568.699 99.7069 568.086 99.4311 567.45 99.5958C566.814 99.7835 566.427 100.32 566.565 100.806V100.803Z" fill="#E37A5D"/>
<path d="M568.174 96.2778C568.308 96.7643 568.906 97.0095 569.55 96.8409C570.17 96.6609 570.573 96.1398 570.442 95.6495C570.308 95.1821 569.691 94.9024 569.059 95.0671C568.423 95.2587 568.036 95.7912 568.171 96.2778H568.174Z" fill="#E37A5D"/>
<path d="M572.228 99.3665C572.366 99.8492 572.96 100.094 573.607 99.9258C574.224 99.7496 574.63 99.2247 574.5 98.7305C574.366 98.2631 573.749 97.9834 573.117 98.1482C572.481 98.3397 572.094 98.8723 572.228 99.3626V99.3665Z" fill="#E37A5D"/>
<path d="M503.49 108.161C503.49 108.161 501.716 102.962 495.08 103.429C488.085 103.927 487.058 113.425 491.743 118.091C496.429 122.75 504.068 121.401 505.647 116.758L503.49 108.161Z" fill="#FCC7A5"/>
<path d="M494.189 106.02C498.507 104.43 503.518 111.633 498.2 116.793C499.763 110.79 497.089 109.307 494.357 112.529C494.07 110.713 494.978 109.376 497.702 109.089C497.066 106.733 494.185 106.02 494.185 106.02H494.189Z" fill="#D48566"/>
<path d="M552.364 90.4912C553.348 93.0657 560.896 94.7016 559.011 98.4677C557.842 100.801 554.107 101.046 553.264 97.008C552.781 94.6672 552.364 90.4912 552.364 90.4912Z" fill="#F37258"/>
<path d="M540.076 110.928C540.62 113.545 537.099 116.487 532.211 117.502C527.322 118.518 522.92 117.219 522.376 114.602C521.832 111.986 525.353 109.039 530.242 108.024C535.13 107.009 539.528 108.308 540.072 110.924L540.076 110.928Z" fill="#F37258"/>
<path d="M593.084 99.8951C593.628 102.512 590.107 105.458 585.219 106.473C580.33 107.488 575.928 106.19 575.384 103.573C574.844 100.956 578.365 98.0102 583.25 96.9987C588.138 95.9835 592.54 97.2822 593.08 99.8989L593.084 99.8951Z" fill="#F37258"/>
<path d="M572.823 73.8446C567.919 72.8906 567.36 78.2389 570.54 77.986C573.95 77.7102 576.904 78.7178 577.302 78.3538C578.183 77.5493 575.586 74.3771 572.823 73.8446Z" fill="#353636"/>
<path d="M530.154 82.8969C534.66 80.7324 536.552 85.7665 533.415 86.3297C530.043 86.9235 527.438 88.6437 526.963 88.3946C525.909 87.843 527.622 84.1153 530.154 82.9008V82.8969Z" fill="#353636"/>
<path d="M569.354 104.429C565.281 101.51 565.339 107.448 558.04 108.953C550.589 110.494 548.214 104.774 545.67 110.137C543.589 114.512 550.907 135.277 563.059 132.496C575.3 129.68 573.227 107.206 569.35 104.429H569.354Z" fill="#542425"/>
<path d="M553.655 129.806C556.287 132.078 559.463 133.319 563.065 132.495C566.436 131.718 568.719 129.449 570.183 126.511C567.854 125.787 564.9 125.576 561.314 126.323C557.896 127.036 555.402 128.312 553.655 129.806Z" fill="#ED756D"/>
<path d="M567.947 103.709C565.173 102.985 564.388 107.64 558.039 108.95C551.618 110.279 548.967 106.218 546.726 108.502C549.791 112.727 554.063 115.762 559.204 114.585C564.296 113.413 566.905 108.846 567.947 103.705V103.709Z" fill="#FFFCDD"/>
<path d="M530.712 95.4905C525.111 96.7509 524.138 103.839 524.073 103.532C523.061 99.0458 525.846 94.5864 530.287 93.5864C534.723 92.5865 539.152 95.4215 540.164 99.904C540.232 100.207 536.704 94.1381 530.716 95.4867L530.712 95.4905Z" fill="#6E3233"/>
<path d="M577.441 85.7132C571.844 86.9737 570.867 94.0613 570.798 93.7586C569.787 89.2762 572.576 84.8129 577.012 83.813C581.449 82.8131 585.881 85.6481 586.893 90.1306C586.958 90.4332 583.433 84.3608 577.445 85.7132H577.441Z" fill="#6E3233"/>
<path d="M500.116 104.065C500.116 104.065 518.67 94.7401 512.578 79.358C543.415 86.8632 578.244 45.0003 592.661 84.304C591.377 50.6091 527.662 33.1084 498.786 72.4849C491.476 84.3922 500.116 104.065 500.116 104.065Z" fill="#353636"/>
<path d="M499.269 94.3159C500.518 86.01 510.728 91.0671 506.614 97.1931C516.019 94.9289 513.862 108.081 505.434 104.56C508.962 114.709 497.836 112.039 497.511 107.208C487.458 109.33 487.328 99.2236 494.174 98.3846C486.094 93.8562 495.905 87.1938 499.265 94.3121L499.269 94.3159Z" fill="#FFFCDD"/>
<path d="M504.739 102.439C503.405 104.684 500.501 105.431 498.252 104.098C496.003 102.768 495.256 99.8681 496.586 97.6116C497.915 95.3627 500.819 94.6233 503.072 95.9489C505.317 97.2783 506.064 100.182 504.739 102.439Z" fill="#FFC233"/>
<path d="M527.468 22.5647C497.632 29.5795 479.173 59.7191 486.088 89.9967C494.804 75.6912 517.075 67.8833 538.131 62.9334C558.16 58.225 581.61 57.6426 594.743 65.2934C594.709 65.1478 594.682 65.0023 594.644 64.8605C587.499 34.4642 557.424 15.5268 527.465 22.5685L527.468 22.5647Z" fill="#EF4A23"/>
<path d="M484.664 78.638C484.76 82.3964 485.227 86.1969 486.097 90.0051C514.394 71.2095 566.819 61.3519 594.752 65.298C594.718 65.1524 594.691 65.0068 594.652 64.8651C593.794 61.2216 592.607 57.743 591.128 54.452C574.853 52.9464 555.307 54.3754 534.864 59.1796C515.52 63.7272 498.242 70.6271 484.664 78.638Z" fill="#FFFCDD"/>
<path d="M531.245 25.3992C531.482 26.4987 530.41 27.6634 528.85 28.0005C527.287 28.3377 525.831 27.7209 525.59 26.6252C525.353 25.5256 526.425 24.361 527.988 24.0238C529.551 23.6867 531.007 24.3035 531.245 25.3992Z" fill="#FFFCDD"/>
<path d="M534.128 38.6857C534.366 39.7853 533.297 40.9499 531.734 41.2909C530.171 41.628 528.715 41.0112 528.473 39.9155C528.236 38.816 529.309 37.6513 530.872 37.3142C532.435 36.977 533.891 37.59 534.128 38.6896V38.6857Z" fill="#FFFCDD"/>
<path d="M497.988 51.0535C498.226 52.153 497.153 53.3177 495.594 53.6548C494.031 53.992 492.571 53.3752 492.334 52.2795C492.096 51.1799 493.169 50.0153 494.732 49.6781C496.291 49.341 497.751 49.9578 497.988 51.0535Z" fill="#FFFCDD"/>
<path d="M573.835 34.6121C574.072 35.7116 573 36.8763 571.44 37.2173C569.881 37.5544 568.421 36.9376 568.184 35.8381C567.946 34.7385 569.019 33.5738 570.578 33.2367C572.141 32.8996 573.601 33.5164 573.839 34.6121H573.835Z" fill="#FFFCDD"/>
<path d="M537.536 54.3836C537.773 55.4831 536.704 56.6478 535.141 56.9849C533.578 57.3221 532.119 56.7091 531.881 55.6095C531.644 54.51 532.716 53.3453 534.276 53.0082C535.839 52.671 537.294 53.2879 537.532 54.3836H537.536Z" fill="#FFFCDD"/>
<path d="M511.213 37.4754C511.45 38.5749 510.377 39.7396 508.818 40.0767C507.259 40.4139 505.799 39.797 505.562 38.7013C505.324 37.6018 506.397 36.4371 507.956 36.1C509.519 35.7628 510.979 36.3797 511.217 37.4754H511.213Z" fill="#FFFCDD"/>
<path d="M555.962 27.7648C556.199 28.8643 555.126 30.029 553.563 30.3661C552 30.7032 550.544 30.0864 550.303 28.9907C550.065 27.8912 551.138 26.7265 552.697 26.3894C554.261 26.0522 555.72 26.6652 555.958 27.7648H555.962Z" fill="#FFFCDD"/>
<path d="M514.574 52.9533C514.812 54.0529 513.739 55.2175 512.18 55.5547C510.62 55.8918 509.161 55.275 508.923 54.1793C508.686 53.0798 509.758 51.9151 511.318 51.578C512.881 51.237 514.34 51.8576 514.578 52.9533H514.574Z" fill="#FFFCDD"/>
<path d="M559.323 43.2566C559.564 44.3562 558.488 45.5208 556.929 45.858C555.365 46.1951 553.91 45.5821 553.668 44.4826C553.431 43.383 554.503 42.2184 556.063 41.8812C557.626 41.5441 559.085 42.1609 559.323 43.2566Z" fill="#FFFCDD"/>
<path d="M494.542 68.6501C494.779 69.7496 493.707 70.9143 492.147 71.2515C490.584 71.5886 489.124 70.9718 488.887 69.8761C488.649 68.7765 489.722 67.6119 491.285 67.2709C492.848 66.9337 494.308 67.5506 494.546 68.6463L494.542 68.6501Z" fill="#FFFCDD"/>
<path d="M586.452 48.3533C586.689 49.4528 585.617 50.6175 584.057 50.9546C582.494 51.2918 581.035 50.675 580.797 49.5793C580.56 48.4797 581.632 47.3151 583.195 46.9779C584.759 46.6408 586.214 47.2576 586.456 48.3533H586.452Z" fill="#FFFCDD"/>
<path d="M587.101 95.9053C584.259 95.9168 583.056 100.759 584.358 102.1C590.365 104.771 592.756 105.774 592.756 105.774L595.541 98.9204C595.541 98.9204 591.27 97.3764 587.101 95.9053Z" fill="#353636"/>
<path d="M588.862 96.3721C585.832 96.3874 584.552 101.548 585.943 102.973C592.349 105.82 594.893 106.892 594.893 106.892L597.858 99.5864C597.858 99.5864 593.306 97.939 588.866 96.3759L588.862 96.3721Z" fill="#FFFCDD"/>
<path d="M595.948 96.2559C590.703 96.2788 588.485 105.209 590.894 107.68C623.639 122.151 653.989 138.111 653.989 138.111L663.019 116.553C663.019 116.553 618.145 103.677 595.948 96.2597V96.2559Z" fill="#FFFCDD"/>
<path d="M599.679 97.4972C598.308 97.0451 597.059 96.6275 595.948 96.2559C590.703 96.2788 588.485 105.209 590.894 107.68C592.205 108.259 593.568 108.864 594.971 109.485C593.798 105.991 595.637 99.3936 599.675 97.501L599.679 97.4972Z" fill="#353636"/>
<path d="M637.872 109.518C633.995 108.257 630.099 106.993 626.272 105.748C621.226 108.418 618.973 116.782 620.506 121.214C624.18 122.846 627.865 124.486 631.497 126.099C630.206 121.084 632.643 112.556 637.872 109.518Z" fill="#353636"/>
<path d="M665.707 114.369C662.945 113.534 658.228 112.105 652.248 110.285C641.797 111.898 637.284 129.318 641.521 135.594C647.31 138.333 651.834 140.482 654.551 141.773C650.593 134.598 655.175 117.151 665.703 114.365L665.707 114.369Z" fill="#353636"/>
<path d="M665.436 130.182C662.383 137.725 657.429 142.836 654.372 141.598C651.315 140.361 651.307 133.243 654.357 125.699C657.41 118.156 662.364 113.045 665.421 114.282C668.482 115.52 668.486 122.638 665.436 130.182Z" fill="#FFFCDD"/>
<path d="M663.889 129.561C661.272 136.036 657.46 140.603 655.38 139.76C653.3 138.917 653.736 132.986 656.357 126.512C658.977 120.037 662.786 115.474 664.87 116.313C666.95 117.156 666.513 123.087 663.893 129.561H663.889Z" fill="#353636"/>
<path d="M663.025 116.642C660.953 117.875 658.321 121.657 656.355 126.511C653.911 132.552 653.367 138.123 654.999 139.521C657.072 138.284 659.704 134.506 661.669 129.652C664.113 123.61 664.654 118.04 663.025 116.642Z" fill="#00A99B"/>
<path d="M608.72 115.537C608.463 114.568 609.214 110.691 607.77 109.752C606.329 108.817 605.092 112.024 604.685 114.016C604.279 116.008 606.731 119.192 607.953 118.724C608.597 118.479 608.892 116.2 608.72 115.537Z" fill="#FCC7A5"/>
<path d="M537.33 149.3C531.016 151.376 521.94 156.518 516.963 162.36C517.664 165.368 523.848 173.432 526.679 173.903C530.016 172.67 536.793 166.785 536.793 166.785C536.793 166.785 542.096 155.66 537.33 149.3Z" fill="#00A99B"/>
<path d="M538.12 148.455C538.12 148.455 551.824 159.577 550.855 201.493C531.994 202.137 526.351 197.624 526.351 197.624C526.351 197.624 531.186 178.602 531.351 171.99C541.99 165.864 530.546 151.838 530.546 151.838L538.124 148.451L538.12 148.455Z" fill="#EF4A23"/>
<path d="M558.751 146.996C558.751 146.996 567.456 166.987 568.908 197.939C576.003 197.939 581.16 191.33 581.16 191.33L573.907 167.47C573.907 167.47 568.908 150.544 565.038 147.479C562.621 146.996 558.751 146.996 558.751 146.996Z" fill="#EF4A23"/>
<path d="M63.9067 171.786L182.561 378.158H482.13L63.9067 171.786Z" fill="#EFEBC4"/>
<path d="M182.56 378.152H482.129L320.918 298.603L182.56 378.152Z" fill="#E3DEAA"/>
<path d="M478.057 377.92C478.704 377.92 479.332 377.56 479.639 376.935C480.068 376.062 479.712 375.004 478.838 374.575L66.2888 171.019C65.4153 170.59 64.3617 170.946 63.9288 171.819C63.4997 172.693 63.856 173.75 64.7295 174.179L477.279 377.74C477.528 377.862 477.796 377.924 478.057 377.924V377.92Z" fill="#FFFCDD"/>
<path d="M603.184 171.779L484.529 378.152H184.957L603.184 171.779Z" fill="#FFFCDD"/>
<path d="M184.27 379.639C184.504 379.639 184.737 379.589 184.963 379.478L602.313 174.239C603.087 173.856 603.409 172.918 603.026 172.14C602.643 171.366 601.704 171.044 600.93 171.427L183.573 376.669C182.799 377.053 182.481 377.991 182.86 378.769C183.132 379.321 183.688 379.642 184.266 379.642L184.27 379.639Z" fill="#FFFCDD"/>
<path d="M241.557 251.683C241.557 251.683 239.301 269.118 249.032 280.949C247.863 283.309 248.377 285.653 250.897 288.76C251.468 289.833 253.311 293.538 254.978 292.768C256.069 292.266 253.725 288.941 253.464 288.155C253.56 288.247 255.502 290.293 256.142 290.929C257.805 292.576 258.77 291.358 258.253 290.266C257.606 288.883 256.023 287.056 255.935 286.891C256.073 287.01 258.636 289.174 259.537 289.753C260.985 290.684 261.586 289.358 261.077 288.596C260.081 287.102 258.15 285.339 258.027 285.086C258.165 285.102 259.973 286.588 261.203 287.308C262.908 288.305 263.552 286.328 262.743 285.447C261.33 283.903 257.997 280.907 257.997 280.907C257.997 280.907 262.636 280.853 262.261 278.968C261.889 277.075 254.545 278.095 254.545 278.095C254.545 278.095 246.744 265.551 249.032 253.288C247.346 253.024 244.959 252.797 241.546 251.683H241.557Z" fill="#FCC7A5"/>
<path d="M363.369 251.087C362.001 252.838 358.561 273.572 359.538 282.203C357.458 283.529 357.35 284.525 357.101 286.667C356.645 289.406 357.059 291.31 358.151 291.272C359.274 291.233 359.534 288.146 359.71 287.398C359.741 287.517 359.829 291.322 359.906 292.161C360.097 294.103 361.967 294.168 362.112 292.471C362.239 291.046 362.285 287.759 362.296 287.586C362.35 287.743 363.009 291.659 363.124 292.383C363.453 294.513 365.867 294.448 365.537 292C365.319 290.329 364.825 287.421 364.852 287.161C364.951 287.241 365.844 289.295 366.457 290.475C367.472 292.421 369.269 291.816 368.503 289.437C367.901 287.559 366.825 284.284 366.825 284.284C366.537 284.142 370.15 284.483 370.564 283.345C371.414 281.008 365.591 281.713 365.913 281.759C365.913 281.759 364.162 261.883 369.326 253.968L363.369 251.083V251.087Z" fill="#FCC7A5"/>
<path d="M419.572 247.053C421.319 248.424 429.656 267.718 430.79 276.33C433.127 277.116 433.472 278.058 434.23 280.077C435.334 282.625 435.391 284.579 434.322 284.801C433.223 285.035 432.227 282.104 431.874 281.418C431.874 281.537 432.706 285.253 432.828 286.088C433.112 288.019 431.315 288.533 430.763 286.92C430.3 285.567 429.461 282.391 429.407 282.223C429.395 282.391 429.694 286.345 429.759 287.077C429.955 289.222 427.595 289.743 427.323 287.287C427.131 285.617 426.913 282.671 426.825 282.43C426.744 282.533 426.376 284.744 426.062 286.035C425.549 288.165 423.656 288.015 423.829 285.521C423.959 283.552 424.216 280.116 424.216 280.116C424.465 279.909 421.036 281.112 420.362 280.108C418.971 278.047 424.794 277.326 424.495 277.445C424.495 277.445 421.266 257.477 414.347 251.037L419.572 247.057V247.053Z" fill="#FCC7A5"/>
<path d="M517.072 164.23C517.072 164.23 500.897 179.451 514.13 208.603C513.256 210.924 511.977 216.15 514.038 216.089C515.103 216.062 516.13 212.02 516.13 212.02C516.13 212.02 515.923 219.418 518.861 218.679C520.992 218.138 519.884 211.882 519.884 211.882C519.884 211.882 522.968 218.295 525.206 217.165C527.458 216.035 522.673 209.882 522.673 209.882C522.673 209.882 527.665 214.579 529.205 212.652C530.749 210.729 521.995 205.262 521.995 205.262C521.995 205.262 527.229 205.09 526.535 203.021C525.842 200.952 519.911 202.507 519.911 202.507C519.911 202.507 509.939 185.271 521.949 170.762C519.451 167.552 517.072 164.223 517.072 164.223V164.23Z" fill="#FCC7A5"/>
<path d="M517.967 161.157C518.346 163.1 522.3 169.049 527.848 173.409C527.104 174.229 524.511 175.49 524.174 175.528C522.277 175.444 515.082 167.678 514.971 164.613C515.515 163.352 517.971 161.157 517.971 161.157H517.967Z" fill="#006F67"/>
</svg>
