<?xml version="1.0" encoding="utf-8"?>
<!-- Generator: Adobe Illustrator 28.1.0, SVG Export Plug-In . SVG Version: 6.00 Build 0)  -->
<svg version="1.1" id="Layer_1" xmlns="http://www.w3.org/2000/svg" xmlns:xlink="http://www.w3.org/1999/xlink" x="0px" y="0px"
	 viewBox="0 0 270 150" style="enable-background:new 0 0 270 150;" xml:space="preserve">
<style type="text/css">
	.st0{fill:#4A27A5;}
	.st1{fill:#FFFFFF;}
</style>
<g>
	<circle class="st0" cx="135.5" cy="75.5" r="45"/>
	<path class="st1" d="M136.6,98.8L136.6,98.8v1l0,0V98.8z M136.1,76.6v22.7h1V76.6H136.1z M159.3,76.1h-22.7v1h22.7V76.1z
		 M159.8,77.2L159.8,77.2L159.8,77.2L159.8,77.2L159.8,77.2L159.8,77.2L159.8,77.2L159.8,77.2L159.8,77.2L159.8,77.2L159.8,77.2
		L159.8,77.2v-0.1l0,0v0l0,0v0l0,0v0l0,0v0l0,0v0l0,0v0l0,0v0l0,0v0l0,0v0l0,0v0l0,0v0l0,0v0l0,0v0l0,0v0l0,0v0l0,0v0l0,0v0l0,0v0
		l0,0v0l0,0v0l0,0v0l0,0v0l0,0v0l0,0v0l0,0v0l0,0v0l0,0v0l0,0v0l0,0v0l0,0v0l0,0v0l0,0h-1l0,0v0l0,0v0l0,0v0l0,0v0l0,0v0l0,0v0l0,0
		v0l0,0v0l0,0v0l0,0v0l0,0v0l0,0v0l0,0v0l0,0v0l0,0v0l0,0v0l0,0v0l0,0v0l0,0v0l0,0v0l0,0v0l0,0v0l0,0v0l0,0v0l0,0v0l0,0v0l0,0v0l0,0
		v0l0,0v0l0,0v0l0,0v0l0,0v0l0,0v0l0,0v0l0,0v0l0,0v0l0,0v0l0,0H159.8z M159.8,95.7c0-6.2,0-12.3,0-18.5h-1c0,6.2,0,12.3,0,18.5
		H159.8z M155.8,99.8c1.2,0,2.3-0.4,3-1.1c0.7-0.7,1.1-1.8,1.1-3h-1c0,1-0.3,1.8-0.8,2.3c-0.5,0.5-1.2,0.8-2.3,0.8L155.8,99.8
		L155.8,99.8z M137.2,99.8c6.2,0,12.4,0,18.6,0v-1c-6.2,0-12.4,0-18.6,0V99.8z M136.6,99.8h0.6v-1h-0.6V99.8z M133.8,99.8h0.6v-1
		h-0.6V99.8z M115.3,99.8c6.2,0,12.3,0,18.5,0v-1c-6.2,0-12.3,0-18.5,0V99.8z M111.1,95.8c0,1.2,0.4,2.3,1.1,3
		c0.7,0.7,1.8,1.1,3,1.1v-1c-1,0-1.8-0.3-2.3-0.8s-0.8-1.2-0.8-2.3C112.1,95.8,111.1,95.8,111.1,95.8z M111.1,77.2v18.6h1V77.2
		H111.1z M111.1,76.6v0.5h1v-0.5H111.1z M134.4,76.1h-22.7v1h22.7V76.1z M134.9,99.4V76.6h-1v22.7H134.9z M111.6,74.9h22.7v-1h-22.7
		V74.9z M111.1,73.8L111.1,73.8L111.1,73.8L111.1,73.8L111.1,73.8L111.1,73.8L111.1,73.8L111.1,73.8L111.1,73.8L111.1,73.8
		L111.1,73.8L111.1,73.8V74l0,0v0l0,0v0l0,0v0l0,0v0l0,0v0l0,0v0l0,0v0l0,0v0l0,0v0l0,0v0l0,0v0l0,0v0l0,0v0l0,0v0l0,0v0l0,0v0l0,0
		v0l0,0v0l0,0v0l0,0v0l0,0v0l0,0v0l0,0v0l0,0v0l0,0v0l0,0v0l0,0v0l0,0v0l0,0v0l0,0l1,0l0,0v0l0,0v0l0,0v0l0,0v0l0,0v0l0,0v0l0,0v0
		l0,0v0l0,0v0l0,0v0l0,0v0l0,0v0l0,0v0l0,0v0l0,0v0l0,0v0l0,0v0l0,0v0l0,0v0l0,0v0l0,0v0l0,0v0l0,0v0l0,0v0l0,0v0l0,0v0l0,0v0l0,0v0
		l0,0v0l0,0v0l0,0v0l0,0v0l0,0v0l0,0v0l0,0v0l0,0L111.1,73.8z M111.1,55.3c0,6.2,0,12.4,0,18.6h1c0-6.2,0-12.4,0-18.6H111.1z
		 M115.2,51.2c-1.2,0-2.2,0.4-3,1.1c-0.7,0.7-1.1,1.8-1.1,3h1c0-1,0.3-1.8,0.8-2.3s1.2-0.8,2.3-0.8V51.2L115.2,51.2z M133.8,51.2
		c-6.2,0-12.4,0-18.6,0v1c6.2,0,12.4,0,18.6,0V51.2z M134.4,51.2h-0.5v1h0.5V51.2z M134.9,74.4V51.7h-1v22.7H134.9z M137.2,51.2
		h-0.6v1h0.6V51.2z M155.7,51.2c-6.2,0-12.3,0-18.5,0v1c6.2,0,12.4,0,18.5,0V51.2z M159.8,55.3c0-1.2-0.4-2.3-1.1-3
		c-0.7-0.7-1.8-1.1-3-1.1v1c1,0,1.8,0.3,2.3,0.8s0.8,1.3,0.8,2.3H159.8z M159.8,73.8V55.3h-1v18.6H159.8z M159.8,74.4v-0.5h-1v0.5
		H159.8z M136.6,74.9h22.7v-1h-22.7V74.9z M136.1,51.7v22.7h1V51.7H136.1z M110.2,97.6c-0.1-0.3-0.2-0.6-0.3-0.9l-1,0.3
		c0.1,0.3,0.2,0.6,0.3,0.9L110.2,97.6L110.2,97.6z M114,100.9c-1.9-0.4-3.1-1.5-3.7-3.3l-0.9,0.3c0.8,2.1,2.3,3.5,4.4,4
		C113.7,101.9,114,100.9,114,100.9z M114.3,101c-0.1,0-0.2-0.1-0.4-0.1l-0.2,1c0.1,0,0.1,0,0.3,0.1L114.3,101L114.3,101z M156.8,101
		h-42.6v1h42.7L156.8,101L156.8,101z M157.6,100.8c-0.3,0.1-0.6,0.2-0.9,0.3l0.3,1c0.3-0.1,0.6-0.2,0.9-0.3L157.6,100.8L157.6,100.8
		z M160.9,97c-0.4,1.9-1.5,3.1-3.3,3.7l0.3,0.9c2.1-0.7,3.5-2.2,4-4.4C161.9,97.3,160.9,97,160.9,97z M161,96.7
		c0,0.1-0.1,0.2-0.1,0.4l1,0.2c0-0.1,0-0.1,0.1-0.3L161,96.7L161,96.7z M161,54.2v42.7h1V54.2L161,54.2L161,54.2z M160.8,53.4
		c0.1,0.3,0.2,0.5,0.3,0.9l1-0.3c-0.1-0.3-0.2-0.6-0.3-0.9L160.8,53.4L160.8,53.4z M157,50.1c1.9,0.4,3.1,1.5,3.7,3.3l0.9-0.3
		c-0.8-2.1-2.2-3.5-4.4-4L157,50.1z M156.6,50c0.1,0,0.2,0.1,0.4,0.1l0.2-1c-0.1,0-0.1,0-0.3-0.1C157,49,156.6,50,156.6,50z
		 M114.1,50h42.7v-1h-42.6L114.1,50L114.1,50z M113.4,50.2c0.3-0.1,0.5-0.2,0.9-0.3l-0.3-1c-0.3,0.1-0.6,0.2-0.9,0.3L113.4,50.2
		L113.4,50.2z M110.1,54c0.4-1.9,1.5-3.1,3.3-3.7l-0.3-0.9c-2.1,0.8-3.5,2.2-4,4.4L110.1,54z M109.9,54.3c0-0.1,0.1-0.2,0.1-0.4
		l-1-0.2c0,0.1,0,0.1-0.1,0.3C109,54,109.9,54.3,109.9,54.3z M110,96.8V54.2h-1v42.7L110,96.8L110,96.8z M136.6,99.3v0.5h0.5v-0.5
		H136.6z M136.6,76.6v-0.5h-0.5v0.5H136.6z M159.3,76.6h0.5v-0.5h-0.5V76.6z M159.3,95.7h-0.5l0,0H159.3z M155.7,99.3v-0.5l0,0V99.3
		z M115.2,99.3v-0.5l0,0V99.3z M111.6,76.6v-0.5h-0.5v0.5H111.6z M134.3,76.6h0.5v-0.5h-0.5V76.6z M134.3,99.3v0.5h0.5v-0.5H134.3z
		 M111.6,74.4h-0.5v0.5h0.5V74.4z M111.6,55.2h0.5l0,0H111.6z M115.2,51.7v0.5l0,0V51.7z M134.3,51.7h0.5v-0.5h-0.5V51.7z
		 M134.3,74.4v0.5h0.5v-0.5H134.3z M155.7,51.7v0.5l0,0V51.7z M159.3,74.4v0.5h0.5v-0.5H159.3z M136.6,74.4h-0.5v0.5h0.5V74.4z
		 M136.6,51.7v-0.5h-0.5v0.5H136.6z M109.7,97.7l0.5-0.2l0,0L109.7,97.7z M113.8,101.4l-0.1,0.5l0,0L113.8,101.4L113.8,101.4z
		 M114.1,101.5L114,102l0.1,0h0.1V101.5z M156.8,101.5v0.5h0.1l0.1,0L156.8,101.5z M157.7,101.2l0.2,0.5l0,0L157.7,101.2z
		 M161.4,97.2l0.5,0.1l0,0L161.4,97.2z M161.5,96.8l0.5,0.2l0-0.1v-0.1H161.5z M161.5,54.2h0.5v-0.1l0-0.1L161.5,54.2z M161.2,53.3
		l0.5-0.2l0,0L161.2,53.3z M157.1,49.6l-0.1,0.5l0,0L157.1,49.6L157.1,49.6z M156.8,49.5L157,49l-0.1,0h-0.1V49.5z M114.1,49.5V49
		h-0.1l-0.1,0L114.1,49.5z M113.2,49.8l0.2,0.5l0,0L113.2,49.8z M109.6,53.9l0.5,0.1l0,0L109.6,53.9z M109.5,54.2L109,54l0,0.1v0.1
		L109.5,54.2L109.5,54.2z M109.5,96.8H109v0.1l0,0.1L109.5,96.8z"/>
	<path class="st1" d="M136.6,99.3h0.6c6.2,0,12.4,0,18.6,0c2.2,0,3.6-1.3,3.6-3.6c0-6.2,0-12.3,0-18.5v-0.6h-22.7L136.6,99.3
		L136.6,99.3L136.6,99.3z M134.4,99.3V76.6h-22.7v19.1c0,2.2,1.3,3.6,3.6,3.6c6.2,0,12.3,0,18.5,0L134.4,99.3L134.4,99.3z
		 M134.4,74.4V51.7h-0.5c-6.2,0-12.4,0-18.6,0c-2.2,0-3.6,1.4-3.6,3.6c0,6.2,0,12.4,0,18.6v0.6L134.4,74.4L134.4,74.4z M136.6,51.7
		v22.7h22.7V55.2c0-2.3-1.3-3.6-3.6-3.6c-6.2,0-12.3,0-18.5,0C137.2,51.7,136.6,51.7,136.6,51.7z M109.5,96.8V54.2
		c0-0.1,0.1-0.2,0.1-0.3c0.5-2,1.7-3.4,3.7-4.1c0.3-0.1,0.6-0.2,0.9-0.3h42.7c0.1,0,0.2,0.1,0.3,0.1c2,0.5,3.4,1.7,4.1,3.7
		c0.1,0.3,0.2,0.6,0.3,0.9v42.7c0,0.1-0.1,0.2-0.1,0.3c-0.5,2-1.7,3.4-3.7,4.1c-0.3,0.1-0.6,0.2-0.9,0.3h-42.7
		c-0.1,0-0.2-0.1-0.3-0.1c-2-0.5-3.4-1.7-4.1-3.7C109.7,97.4,109.6,97.1,109.5,96.8z"/>
	<path class="st1" d="M122.2,62.1L122.2,62.1l-0.7,0.7l0,0L122.2,62.1z M121.2,63h0.6v-1h-0.6V63z M118.6,63c0.9,0,1.8,0,2.7,0v-1
		c-0.9,0-1.8,0-2.7,0L118.6,63z M118,63.5c0-0.2,0.2-0.5,0.6-0.5l0-1c-0.9,0-1.6,0.6-1.6,1.5H118z M118.6,64c-0.2,0-0.4-0.1-0.5-0.2
		c-0.1-0.1-0.1-0.2-0.1-0.3h-1c0,0.4,0.2,0.8,0.4,1.1c0.3,0.3,0.7,0.4,1.1,0.4L118.6,64L118.6,64z M120.4,64c-0.6,0-1.2,0-1.8,0l0,1
		c0.6,0,1.2,0,1.8,0C120.4,65,120.4,64,120.4,64z M121.9,64h-1.5v1h1.5V64z M122.4,65.1L122.4,65.1L122.4,65.1L122.4,65.1
		L122.4,65.1L122.4,65.1L122.4,65.1L122.4,65.1L122.4,65.1L122.4,65.1L122.4,65.1L122.4,65.1v-0.1l0,0v0l0,0v0l0,0v0l0,0v0l0,0v0
		l0,0v0l0,0v0l0,0v0l0,0v0l0,0v0l0,0v0l0,0v0l0,0v0l0,0v0l0,0v0l0,0v0l0,0v0l0,0v0l0,0v0l0,0v0l0,0v0l0,0v0l0,0v0l0,0v0l0,0v0l0,0v0
		l0,0v0l0,0v0l0,0v0l0,0v0l0,0v0l0,0h-1l0,0v0l0,0v0l0,0v0l0,0v0l0,0v0l0,0v0l0,0v0l0,0v0l0,0v0l0,0v0l0,0v0l0,0v0l0,0v0l0,0v0l0,0
		v0l0,0v0l0,0v0l0,0v0l0,0v0l0,0v0l0,0v0l0,0v0l0,0v0l0,0v0l0,0v0l0,0v0l0,0v0l0,0v0l0,0v0l0,0v0l0,0v0l0,0v0l0,0v0l0,0v0l0,0v0l0,0
		v0l0,0v0l0,0H122.4z M122.4,67.3c0-0.8,0-1.5,0-2.2h-1c0,0.8,0,1.5,0,2.2L122.4,67.3L122.4,67.3z M123,68c-0.2,0-0.3-0.1-0.4-0.2
		s-0.2-0.2-0.2-0.5h-1c0,0.5,0.1,0.9,0.4,1.2c0.3,0.3,0.7,0.5,1.2,0.5L123,68L123,68z M123.6,67.3c0,0.3-0.1,0.5-0.2,0.5
		c-0.1,0.1-0.2,0.2-0.5,0.2v1c0.5,0,0.9-0.2,1.2-0.5s0.4-0.8,0.5-1.2C124.6,67.3,123.6,67.3,123.6,67.3z M123.6,66.3
		c0,0.3,0,0.7,0,1h1c0-0.3,0-0.7,0-1H123.6z M123.6,64.5L123.6,64.5L123.6,64.5L123.6,64.5L123.6,64.5L123.6,64.5L123.6,64.5
		L123.6,64.5L123.6,64.5L123.6,64.5v0.1l0,0v0l0,0v0l0,0v0l0,0v0l0,0v0l0,0v0l0,0v0l0,0v0l0,0v0l0,0v0l0,0v0l0,0v0l0,0v0l0,0v0l0,0
		v0l0,0v0l0,0v0l0,0v0l0,0v0l0,0v0l0,0v0l0,0v0l0,0v0l0,0v0l0,0v0l0,0v0l0,0v0l0,0v0l0,0v0l0,0v0l0,0v0l0,0v0l0,0v0l0,0v0l0,0v0l0,0
		v0l0,0v0l0,0v0l0,0v0l0,0v0l0,0v0l0,0v0l0,0v0l0,0v0l0,0v0l0,0v0l0,0v0l0,0v0l0,0v0l0,0v0l0,0v0l0,0v0l0,0v0l0,0v0l0,0v0l0,0v0l0,0
		v0l0,0v0l0,0v0l0,0v0l0,0v0l0,0v0l0,0v0l0,0v0l0,0v0l0,0v0l0,0v0l0,0v0l0,0v0l0,0v0l0,0v0l0,0v0l0,0v0l0,0v0l0,0v0l0,0v0l0,0v0l0,0
		v0l0,0v0l0,0v0l0,0v0l0,0v0l0,0v0l0,0v0l0,0v0l0,0v0l0,0v0l0,0v0l0,0v0l0,0v0l0,0v0l0,0v0l0,0v0l0,0v0l0,0v0l0,0v0l0,0v0l0,0v0l0,0
		l1,0l0,0v0l0,0v0l0,0v0l0,0v0l0,0v0l0,0v0l0,0v0l0,0v0l0,0v0l0,0v0l0,0v0l0,0v0l0,0v0l0,0v0l0,0v0l0,0v0l0,0v0l0,0v0l0,0v0l0,0v0
		l0,0v0l0,0v0l0,0v0l0,0v0l0,0v0l0,0v0l0,0v0l0,0v0l0,0v0l0,0v0l0,0v0l0,0v0l0,0v0l0,0v0l0,0v0l0,0v0l0,0v0l0,0v0l0,0v0l0,0v0l0,0v0
		l0,0v0l0,0v0l0,0v0l0,0v0l0,0v0l0,0v0l0,0v0l0,0v0l0,0v0l0,0v0l0,0v0l0,0v0l0,0v0l0,0v0l0,0v0l0,0v0l0,0v0l0,0v0l0,0v0l0,0v0l0,0v0
		l0,0v0l0,0v0l0,0v0l0,0v0l0,0v0l0,0v0l0,0v0l0,0v0l0,0v0l0,0v0l0,0v0l0,0v0l0,0v0l0,0v0l0,0v0l0,0v0l0,0v0l0,0v0l0,0v0l0,0v0l0,0v0
		l0,0v0l0,0v0l0,0v0l0,0v0l0,0v0l0,0v0l0,0v0l0,0v0l0,0v0l0,0v0l0,0v0l0,0v0l0,0v0l0,0v0l0,0v0l0,0v0l0,0v0l0,0v0l0,0v0l0,0v0l0,0
		L123.6,64.5L123.6,64.5z M124.7,64h-0.6v1h0.6V64z M127.4,64c-0.9,0-1.8,0-2.7,0v1c0.9,0,1.8,0,2.7,0L127.4,64L127.4,64z M128,63.4
		c0,0.2,0,0.3-0.1,0.4s-0.2,0.2-0.5,0.2l0,1c0.5,0,0.9-0.2,1.2-0.5c0.3-0.3,0.4-0.8,0.3-1.3L128,63.4L128,63.4z M127.3,63
		c0.5,0,0.6,0.2,0.7,0.4l1-0.2c-0.2-0.8-0.9-1.2-1.7-1.2L127.3,63L127.3,63z M124.1,63c1.1,0,2.1,0,3.2,0v-1c-1,0-2.1,0-3.2,0V63z
		 M123.6,61.9L123.6,61.9L123.6,61.9L123.6,61.9L123.6,61.9L123.6,61.9L123.6,61.9L123.6,61.9L123.6,61.9L123.6,61.9V62l0,0v0l0,0v0
		l0,0v0l0,0v0l0,0v0l0,0v0l0,0v0l0,0v0l0,0v0l0,0v0l0,0v0l0,0v0l0,0v0l0,0v0l0,0v0l0,0v0l0,0v0l0,0v0l0,0v0l0,0v0l0,0v0l0,0v0l0,0v0
		l0,0v0l0,0v0l0,0v0l0,0v0l0,0v0l0,0v0l0,0v0l0,0h1l0,0v0l0,0v0l0,0v0l0,0v0l0,0v0l0,0v0l0,0v0l0,0v0l0,0v0l0,0v0l0,0v0l0,0v0l0,0v0
		l0,0v0l0,0v0l0,0v0l0,0v0l0,0v0l0,0v0l0,0v0l0,0v0l0,0v0l0,0v0l0,0v0l0,0v0l0,0v0l0,0v0l0,0v0l0,0v0l0,0v0l0,0v0l0,0v0l0,0v0l0,0v0
		l0,0v0l0,0H123.6z M123.6,59.6c0,0.8,0,1.5,0,2.3h1c0-0.8,0-1.6,0-2.4L123.6,59.6L123.6,59.6z M123.2,59c0.2,0.1,0.2,0.1,0.3,0.2
		c0,0.1,0.1,0.2,0.1,0.4h1c0-0.3-0.1-0.6-0.2-0.9c-0.2-0.3-0.5-0.5-0.8-0.6C123.6,58.1,123.2,59,123.2,59z M122.4,59.6
		c0-0.2,0.1-0.4,0.2-0.5c0.1-0.1,0.3-0.1,0.6,0l0.3-0.9c-0.5-0.2-1-0.1-1.5,0.2c-0.4,0.3-0.7,0.8-0.7,1.3
		C121.4,59.6,122.4,59.6,122.4,59.6z M122.4,62.5c0-1,0-2,0-2.9l-1,0c0,1,0,1.9,0,2.9H122.4z M121.9,62.5V63h1.3l-1-0.9
		C122.2,62.1,121.9,62.5,121.9,62.5z M121.3,62.5V62l0,0V62.5z M118.6,62.5V62h0L118.6,62.5L118.6,62.5z M117.5,63.5h0.5l0,0H117.5z
		 M118.6,64.5l0-0.5l0,0L118.6,64.5z M121.9,64.5h0.5V64h-0.5V64.5z M121.9,67.3h-0.5l0,0H121.9z M123,68.5V69l0,0V68.5z
		 M124.1,67.3h0.5l0,0H124.1z M124.1,64.5V64h-0.5v0.5H124.1z M127.4,64.5V65h0L127.4,64.5L127.4,64.5z M128.5,63.3l0.5-0.1l0,0
		L128.5,63.3z M127.3,62.5V63l0,0V62.5z M124.1,62.5h-0.5V63h0.5V62.5z M124.1,62h0.5H124.1z M124.1,59.6h0.5l0,0H124.1z
		 M123.4,58.6l-0.2,0.5l0,0L123.4,58.6z M121.9,59.6h0.5v0L121.9,59.6L121.9,59.6z M121.9,62.5h-0.5v0.2l0.2,0.2
		C121.6,62.9,121.9,62.5,121.9,62.5z"/>
	<path class="st1" d="M121.9,62.5c0-1,0-2,0-2.9c0-0.8,0.7-1.3,1.5-1c0.5,0.2,0.7,0.6,0.7,1c0,0.8,0,1.6,0,2.3v0.5
		c1.1,0,2.2,0,3.2,0c0.6,0,1.1,0.3,1.2,0.8c0.1,0.7-0.3,1.2-1.1,1.2c-0.9,0-1.8,0-2.7,0h-0.6v1.8c0,0.3,0,0.7,0,1
		c0,0.8-0.4,1.2-1.1,1.2c-0.7,0-1.1-0.4-1.1-1.2c0-0.8,0-1.5,0-2.2v-0.6h-1.5c-0.6,0-1.2,0-1.8,0c-0.7,0-1.1-0.4-1.1-1
		c0-0.5,0.4-1,1.1-1c0.9,0,1.8,0,2.7,0L121.9,62.5L121.9,62.5L121.9,62.5z"/>
	<path class="st1" d="M125,88.3L125,88.3l-0.9-0.4l0,0L125,88.3z M124.6,87.2c-0.1,0.1-0.3,0.3-0.4,0.4l0.7,0.7
		c0.2-0.2,0.3-0.3,0.4-0.4L124.6,87.2z M126.8,85.1c-0.7,0.7-1.4,1.4-2.2,2.2l0.7,0.7c0.7-0.7,1.4-1.4,2.2-2.2L126.8,85.1
		L126.8,85.1z M126.9,84.3c0.1,0.1,0.1,0.3,0.1,0.4c0,0.1-0.1,0.2-0.2,0.4l0.7,0.7c0.3-0.3,0.4-0.6,0.5-1c0.1-0.4,0-0.7-0.2-1
		L126.9,84.3L126.9,84.3z M125.9,84.2c0.2-0.2,0.4-0.2,0.5-0.2s0.3,0.1,0.5,0.3l0.8-0.5c-0.3-0.4-0.7-0.7-1.2-0.8
		c-0.5,0-1,0.1-1.3,0.5L125.9,84.2z M123.4,86.8c0.9-0.9,1.7-1.7,2.5-2.6l-0.7-0.7c-0.8,0.8-1.7,1.7-2.5,2.6L123.4,86.8L123.4,86.8z
		 M122.2,86.4c0.1,0.1,0.3,0.2,0.4,0.4l0.7-0.7c-0.2-0.2-0.3-0.3-0.4-0.4C122.9,85.7,122.2,86.4,122.2,86.4z M120.1,84.2
		c0.7,0.7,1.4,1.4,2.2,2.2l0.7-0.7c-0.7-0.7-1.4-1.4-2.2-2.2C120.8,83.5,120.1,84.2,120.1,84.2z M119.2,84.2
		c0.1-0.1,0.3-0.2,0.4-0.2c0.1,0,0.3,0.1,0.4,0.2l0.7-0.7c-0.3-0.3-0.7-0.5-1.1-0.5c-0.4,0-0.8,0.1-1.1,0.4L119.2,84.2L119.2,84.2z
		 M119.2,85.1c-0.2-0.2-0.2-0.4-0.2-0.5c0-0.1,0.1-0.3,0.2-0.4l-0.7-0.8c-0.4,0.3-0.6,0.7-0.6,1.2c0,0.4,0.2,0.9,0.5,1.2L119.2,85.1
		L119.2,85.1z M121.8,87.6c-0.9-0.9-1.7-1.7-2.5-2.5l-0.7,0.7c0.8,0.9,1.7,1.7,2.6,2.6C121.1,88.3,121.8,87.6,121.8,87.6z
		 M121.4,88.8c0.1-0.1,0.3-0.3,0.4-0.4l-0.7-0.7c-0.2,0.2-0.3,0.3-0.4,0.4L121.4,88.8L121.4,88.8z M119.2,90.9
		c0.7-0.7,1.4-1.4,2.2-2.2l-0.7-0.7c-0.7,0.7-1.4,1.4-2.2,2.2L119.2,90.9L119.2,90.9z M119.1,91.7c-0.1-0.2-0.2-0.3-0.1-0.4
		c0-0.1,0.1-0.3,0.2-0.4l-0.7-0.7c-0.3,0.3-0.5,0.6-0.5,1c0,0.4,0.1,0.8,0.3,1.1L119.1,91.7L119.1,91.7z M120.1,91.8
		c-0.2,0.2-0.4,0.2-0.5,0.2c-0.1,0-0.3-0.1-0.4-0.3l-0.8,0.6c0.3,0.4,0.7,0.6,1.2,0.7c0.5,0,0.9-0.2,1.3-0.5L120.1,91.8L120.1,91.8z
		 M122.6,89.2c-0.9,0.9-1.7,1.7-2.5,2.6l0.7,0.7c0.8-0.8,1.7-1.7,2.5-2.6C123.3,89.9,122.6,89.2,122.6,89.2z M123.8,89.6
		c-0.1-0.1-0.3-0.3-0.4-0.4l-0.7,0.7c0.2,0.2,0.3,0.3,0.4,0.4L123.8,89.6z M125.9,91.7c-0.7-0.7-1.4-1.4-2.1-2.1l-0.7,0.7
		c0.7,0.7,1.4,1.4,2.2,2.1L125.9,91.7L125.9,91.7z M126.4,92C126.4,92,126.4,92,126.4,92c-0.1,0-0.1,0-0.2,0
		c-0.1-0.1-0.2-0.1-0.3-0.2l-0.7,0.7c0.2,0.2,0.4,0.3,0.6,0.4c0.2,0.1,0.5,0.2,0.8,0.1L126.4,92L126.4,92z M127,91.5
		c-0.1,0.1-0.2,0.2-0.3,0.3c-0.1,0.1-0.2,0.1-0.3,0.2l0.2,1c0.3-0.1,0.5-0.2,0.7-0.3c0.2-0.2,0.4-0.4,0.5-0.6L127,91.5L127,91.5z
		 M126.8,90.9c0.1,0.1,0.2,0.2,0.2,0.3c0,0.1,0,0.1,0,0.2l0.9,0.5c0.4-0.7,0.1-1.4-0.3-1.8L126.8,90.9L126.8,90.9z M124.2,88.4
		c0.9,0.9,1.7,1.7,2.6,2.5l0.7-0.7c-0.8-0.8-1.7-1.7-2.6-2.5L124.2,88.4z M124.6,88l-0.5-0.2l0.8,0.6L124.6,88L124.6,88z M125,87.6
		l-0.3-0.3l0,0L125,87.6L125,87.6z M127.1,85.4l-0.4-0.3l0,0L127.1,85.4z M127.3,84.1l-0.4,0.3l0,0L127.3,84.1z M125.6,83.9
		l-0.4-0.4l0,0L125.6,83.9z M123.1,86.5l-0.3,0.4l0.4,0.3l0.3-0.3C123.4,86.8,123.1,86.5,123.1,86.5z M122.6,86l-0.4,0.3l0,0
		L122.6,86z M120.5,83.9l-0.3,0.4l0,0L120.5,83.9z M118.9,83.8l0.3,0.4l0,0L118.9,83.8z M118.9,85.4l0.4-0.3l0,0L118.9,85.4z
		 M121.4,88l0.4,0.3l0.3-0.3l-0.3-0.3L121.4,88z M121.1,88.4l0.3,0.3l0,0L121.1,88.4L121.1,88.4z M118.9,90.6l0.4,0.3l0,0
		L118.9,90.6z M118.8,92l-0.4,0.3l0,0L118.8,92L118.8,92z M120.5,92.1l-0.3-0.4l0,0L120.5,92.1z M123,89.6l0.3-0.4l-0.3-0.3
		l-0.3,0.3L123,89.6L123,89.6z M123.4,90l-0.4,0.3l0,0L123.4,90z M125.6,92.1l-0.3,0.4l0,0L125.6,92.1z M126.5,92.4l-0.1-0.5l0,0
		L126.5,92.4z M127.4,91.8l-0.4-0.3l0,0L127.4,91.8z M127.2,90.6l0.4-0.3l0,0L127.2,90.6z M124.6,88l0.3-0.4l-0.5-0.5l-0.3,0.6
		C124.1,87.8,124.6,88,124.6,88z"/>
	<path class="st1" d="M124.6,88c0.9,0.9,1.7,1.7,2.6,2.5c0.3,0.3,0.5,0.8,0.3,1.2c-0.2,0.3-0.6,0.6-0.9,0.7c-0.3,0.1-0.7-0.2-1-0.4
		c-0.7-0.7-1.4-1.4-2.1-2.1c-0.1-0.1-0.2-0.2-0.4-0.4c-0.9,0.9-1.7,1.7-2.5,2.5c-0.5,0.5-1.2,0.5-1.7-0.1c-0.4-0.5-0.3-1,0.1-1.5
		c0.7-0.7,1.4-1.4,2.2-2.2c0.1-0.1,0.2-0.2,0.4-0.4c-0.9-0.9-1.7-1.7-2.5-2.5c-0.5-0.5-0.5-1.2,0-1.7c0.5-0.4,1-0.4,1.5,0.1
		c0.7,0.7,1.4,1.4,2.2,2.2c0.1,0.1,0.2,0.2,0.4,0.4c0.8-0.9,1.7-1.7,2.5-2.6c0.6-0.6,1.3-0.5,1.8,0.2c0.3,0.5,0.2,1-0.2,1.4
		c-0.7,0.7-1.4,1.4-2.2,2.2C124.8,87.7,124.7,87.9,124.6,88L124.6,88L124.6,88z"/>
	<path class="st1" d="M149,86.5L149,86.5h-1l0,0H149z M152.4,86c-1.3,0-2.6,0-3.9,0v1c1.3,0,2.6,0,3.9,0L152.4,86L152.4,86z
		 M153,84.8c0.1,0.4,0,0.8-0.1,0.9c-0.1,0.2-0.3,0.3-0.5,0.3v1c0.6,0,1.1-0.3,1.3-0.8c0.3-0.4,0.4-1,0.3-1.6L153,84.8L153,84.8z
		 M152.3,84c0.2,0,0.4,0.1,0.5,0.2c0.1,0.1,0.2,0.3,0.2,0.6l1-0.1c-0.1-0.5-0.2-0.9-0.5-1.2c-0.3-0.3-0.7-0.5-1.2-0.5L152.3,84
		L152.3,84z M144.7,84c2.5,0,5,0,7.6,0v-1c-2.5,0-5,0-7.6,0V84z M144.5,84c0,0,0.1,0,0.2,0v-1c-0.1,0-0.2,0-0.4,0L144.5,84z M144,85
		c0-0.7,0.3-0.9,0.5-1l-0.2-1c-0.9,0.2-1.3,1-1.3,1.9L144,85L144,85z M144.5,86c-0.2,0-0.5-0.3-0.5-1h-1c0,0.9,0.4,1.8,1.3,2
		L144.5,86L144.5,86z M144.9,86c-0.2,0-0.2,0-0.3,0l-0.2,1c0.2,0,0.4,0,0.5,0V86z M148.5,86h-3.7v1h3.7V86z M148.5,86.5H148V87h0.5
		V86.5z M152.4,86.5V87l0,0V86.5z M153.5,84.7l0.5-0.1l0,0L153.5,84.7z M152.3,83.5V84l0,0V83.5z M144.5,83.5l0.1,0.5l0,0
		L144.5,83.5z M143.5,85H143l0,0H143.5z M144.4,86.5l0.1-0.5l0,0L144.4,86.5z M148.5,86.5h0.5V86h-0.5V86.5z"/>
	<path class="st1" d="M148.5,86.5h-3.7c-0.1,0-0.3,0-0.4,0c-0.6-0.1-0.9-0.7-0.9-1.5c0-0.8,0.4-1.4,0.9-1.5c0.1,0,0.2,0,0.3,0
		c2.5,0,5,0,7.6,0c0.7,0,1.1,0.4,1.2,1.2c0.1,1-0.3,1.8-1.1,1.8C151.1,86.5,149.8,86.5,148.5,86.5L148.5,86.5L148.5,86.5z"/>
	<path class="st1" d="M149,65.5L149,65.5h-1l0,0H149z M152.4,65c-1.3,0-2.6,0-3.9,0v1c1.3,0,2.6,0,3.9,0L152.4,65L152.4,65z
		 M153,63.8c0.1,0.4,0,0.8-0.1,1c-0.1,0.2-0.3,0.3-0.5,0.3v1c0.6,0,1.1-0.3,1.3-0.8c0.3-0.4,0.4-1,0.3-1.6L153,63.8L153,63.8z
		 M152.3,63c0.2,0,0.4,0.1,0.5,0.2c0.1,0.1,0.2,0.3,0.2,0.6l1-0.1c-0.1-0.5-0.2-0.9-0.5-1.2c-0.3-0.3-0.7-0.5-1.2-0.5L152.3,63
		L152.3,63z M144.7,63c2.5,0,5,0,7.6,0v-1c-2.5,0-5,0-7.6,0V63z M144.5,63c0,0,0.1,0,0.2,0v-1c-0.1,0-0.2,0-0.4,0L144.5,63z M144,64
		c0-0.7,0.3-0.9,0.5-1l-0.2-1c-0.9,0.2-1.3,1-1.3,1.9L144,64L144,64z M144.5,65c-0.2,0-0.5-0.3-0.5-1h-1c0,0.9,0.4,1.8,1.3,2
		L144.5,65L144.5,65z M144.9,65c-0.2,0-0.2,0-0.3,0l-0.2,1c0.2,0,0.4,0,0.5,0V65z M148.5,65h-3.7v1h3.7V65z M148.5,65.5H148V66h0.5
		V65.5z M152.4,65.5V66l0,0V65.5z M153.5,63.7l0.5-0.1l0,0L153.5,63.7z M152.3,62.5V63l0,0V62.5z M144.5,62.5l0.1,0.5l0,0
		L144.5,62.5z M143.5,64H143l0,0H143.5z M144.4,65.5l0.1-0.5l0,0L144.4,65.5z M148.5,65.5h0.5V65h-0.5V65.5z"/>
	<path class="st1" d="M148.5,65.5h-3.7c-0.1,0-0.3,0-0.4,0c-0.6-0.1-0.9-0.7-0.9-1.5c0-0.8,0.4-1.4,0.9-1.5c0.1,0,0.2,0,0.3,0
		c2.5,0,5,0,7.6,0c0.7,0,1.1,0.4,1.2,1.2c0.1,1-0.3,1.8-1.1,1.8C151.1,65.5,149.8,65.5,148.5,65.5L148.5,65.5L148.5,65.5z"/>
	<path class="st1" d="M149,92.5L149,92.5h-1l0,0H149z M152.4,92c-1.3,0-2.6,0-3.9,0v1c1.3,0,2.6,0,3.9,0L152.4,92L152.4,92z
		 M153,90.8c0.1,0.4,0,0.8-0.1,0.9c-0.1,0.2-0.3,0.3-0.5,0.3v1c0.6,0,1.1-0.3,1.3-0.8c0.3-0.4,0.4-1,0.3-1.6L153,90.8L153,90.8z
		 M152.3,90c0.2,0,0.4,0.1,0.5,0.2c0.1,0.1,0.2,0.3,0.2,0.6l1-0.1c-0.1-0.5-0.2-0.9-0.5-1.2c-0.3-0.3-0.7-0.5-1.2-0.5L152.3,90
		L152.3,90z M144.7,90c2.5,0,5,0,7.6,0v-1c-2.5,0-5,0-7.6,0V90z M144.5,90c0,0,0.1,0,0.2,0v-1c-0.1,0-0.2,0-0.4,0L144.5,90z M144,91
		c0-0.7,0.3-0.9,0.5-1l-0.2-1c-0.9,0.2-1.3,1-1.3,1.9L144,91L144,91z M144.5,92c-0.2,0-0.5-0.3-0.5-1h-1c0,0.9,0.4,1.8,1.3,2
		L144.5,92L144.5,92z M144.9,92c-0.2,0-0.2,0-0.3,0l-0.2,1c0.2,0,0.4,0,0.5,0V92z M148.5,92h-3.7v1h3.7V92z M148.5,92.5H148V93h0.5
		V92.5z M152.4,92.5V93l0,0V92.5z M153.5,90.7l0.5-0.1l0,0L153.5,90.7z M152.3,89.5V90l0,0V89.5z M144.5,89.5l0.1,0.5l0,0
		L144.5,89.5z M143.5,91H143l0,0H143.5z M144.4,92.5l0.1-0.5l0,0L144.4,92.5z M148.5,92.5h0.5V92h-0.5V92.5z"/>
	<path class="st1" d="M148.5,92.5h-3.7c-0.1,0-0.3,0-0.4,0c-0.6-0.1-0.9-0.7-0.9-1.5c0-0.8,0.4-1.4,0.9-1.5c0.1,0,0.2,0,0.3,0
		c2.5,0,5,0,7.6,0c0.7,0,1.1,0.4,1.2,1.2c0.1,1-0.3,1.8-1.1,1.8C151.1,92.5,149.8,92.5,148.5,92.5L148.5,92.5L148.5,92.5z"/>
</g>
</svg>
