<svg width="700" height="400" viewBox="0 0 700 400" fill="none" xmlns="http://www.w3.org/2000/svg">
<mask id="mask0_283_10036" style="mask-type:alpha" maskUnits="userSpaceOnUse" x="0" y="0" width="700" height="400">
<rect width="700" height="400" rx="20" fill="#0563C1"/>
</mask>
<g mask="url(#mask0_283_10036)">
<path d="M114.63 337.442C199.259 318.792 303.263 392.259 347.57 373.522C389.544 391.358 566.454 429.866 614.825 241.776C663.195 53.6859 526.212 21.0764 474.411 53.6859C447.927 76.7467 393.878 131.336 380.468 91.5202C362.214 37.3248 179.779 -5.7928 122 53.6856C59.0384 78.1878 30 356.092 114.63 337.442Z" fill="#FEFCEB"/>
<path d="M394.084 352.957C370.956 333.639 351.068 329.598 329.342 314.863C318.242 307.311 311.619 295.129 311.619 281.467C340.287 285.47 371.053 296.038 385.208 321.418C390.642 331.145 392.914 341.867 394.084 352.948V352.957Z" fill="#EC732E"/>
<path d="M349.434 395.973C346.93 394.639 347.751 395.239 315.584 362.365C308.4 355.026 301.39 346.74 291.499 343.008C285.427 340.726 279.345 338.213 273.061 336.54C256.817 332.247 241.85 326.388 229.648 314.476C227.869 312.735 226.148 310.84 225.297 308.51C224.524 306.373 224.524 303.531 226.071 301.684C229.165 298.049 235.904 300.205 238.601 303.241C236.987 300.862 235.662 298.29 234.685 295.593C233.603 292.654 233.341 289.095 236.174 286.978C238.949 284.909 241.821 286.05 244.18 288.003C242.981 286.321 241.686 284.599 240.98 282.54C209.624 288.757 177.804 305.3 164.974 334.935C156.572 354.34 155.218 375.979 154 397.095L349.434 397.511V395.973Z" fill="#EC732E"/>
<path d="M212.176 361.804C211.654 361.766 211.171 362.056 210.987 362.549L198.341 396.805C198.215 397.153 198.263 397.549 198.476 397.849C198.689 398.159 199.037 398.342 199.414 398.342L217.166 398.381C217.494 398.381 217.813 398.236 218.026 397.985C218.239 397.733 218.345 397.395 218.287 397.066L213.192 362.771C213.114 362.259 212.699 361.853 212.176 361.804Z" fill="black"/>
<path d="M229.519 177.715C225.492 168.451 229.855 155.395 232.54 150.025C240.595 143.58 270.803 144.99 284.9 146.5L293.962 127.872L301.011 146.5H316.618C333.534 148.111 336.085 161.268 335.246 167.646C341.287 156.771 348.839 156.737 351.86 158.08C355.888 158.919 362.836 163.819 358.405 176.708C353.975 189.596 342.126 192.147 336.756 191.812C327.895 228.866 316.282 242.493 311.583 244.675C319.639 245.481 320.31 251.724 319.639 254.744C322.156 259.779 306.549 269.848 312.59 290.49C317.423 307.003 327.023 314.488 331.218 316.166C346.49 323.718 379.45 340.735 389.116 348.388C398.783 356.041 415.967 375.071 423.351 383.63L431.91 397.224H350.35L301.011 348.388L294.969 344.36L280.872 338.822C242.609 328.753 228.344 315.495 225.995 310.125C221.162 298.042 231.365 299.384 237.071 301.566C229.821 284.65 238.078 285.12 243.113 287.469C236.266 272.164 245.966 272.365 251.671 274.379C240.394 251.019 244.623 241.486 248.147 239.64C236.87 230.377 229.687 209.601 227.505 200.371C217.436 204.801 208.542 199.531 205.353 196.343C202.333 190.134 199.11 176.607 210.388 172.177C221.665 167.746 227.841 174.023 229.519 177.715Z" fill="#FFD7B1"/>
<path d="M463.699 396.68H433.291C433.262 396.612 433.272 396.535 433.223 396.467C422.839 379.75 409.816 364.725 394.81 352.088C371.605 332.663 351.726 328.67 329.981 313.925C319.084 306.509 312.761 294.626 312.761 281.477C312.761 268.327 318.069 265.756 320.564 256.59C324.537 253.805 327.718 249.851 329.739 245.026C335.734 248.246 344.59 251.194 351.223 249.667C362.284 247.134 361.733 238.451 357.527 228.019C361.501 229.111 366.055 227.787 368.84 224.741C375.134 217.905 370.387 206.438 362.671 205.529C374.931 200.279 378.092 191.345 375.83 184.993C374.322 180.758 369.613 177.471 365.233 178.389C369.362 175.904 372.059 171.205 372.117 166.371C372.253 155.436 360.215 148.745 351.716 152.835C351.745 149.992 350.363 147.169 348.09 145.448C345.818 143.727 342.927 142.479 340.201 143.272C336.314 130.645 332.253 117.679 323.909 107.45C315.565 97.2008 301.797 90.2297 289.073 93.7491C285.573 94.7256 284.248 95.3444 280.699 94.5999C253.105 88.8084 225.549 107.247 221.343 136.456C220.811 140.004 221.266 139.579 218.675 141.164C216.141 142.702 196.717 149.083 202.46 168.798C194.938 166.709 187.812 178.408 185.163 183.891C181.711 191.045 180.841 199.738 184.235 206.931C187.619 214.134 195.711 219.22 203.543 217.847C197.548 224.992 197.423 237.098 203.775 243.933C210.127 250.788 221.701 251.939 229.281 246.495C232.549 252.761 237.461 259.249 244.654 259.423C245.969 263.996 247.777 268.221 250.117 272.475C243.697 270.039 238.06 276.304 239.694 282.27C239.975 283.266 240.323 284.049 240.806 284.948C238.544 284.407 236.745 285.151 235.489 286.099C232.733 288.158 232.046 291.774 233.603 296.019C234.048 297.256 234.58 298.465 235.169 299.644C226.941 296.328 221.72 302.091 224.215 308.936C225.153 311.508 226.999 313.529 228.846 315.327C242.141 328.312 258.51 333.91 272.761 337.681C277.731 339.006 282.672 340.901 287.439 342.728C295.676 345.88 298.993 346.789 311.939 360.287C315.313 363.806 315.255 363.69 342.164 391.188C344.146 393.218 346.041 395.326 348.371 396.718H335.54C334.912 396.718 334.4 397.231 334.4 397.859C334.4 398.488 334.912 399 335.54 399H463.69C464.318 399 464.831 398.488 464.831 397.859C464.831 397.231 464.318 396.718 463.69 396.718L463.699 396.68ZM243.562 133.923C255.512 129.581 265.781 120.048 271.002 108.446C271.263 107.865 271.93 107.604 272.51 107.865C273.09 108.126 273.351 108.794 273.09 109.374C267.531 121.721 257.059 131.447 244.345 136.069C242.895 136.553 242.16 134.464 243.572 133.923H243.562ZM262.793 147.836C270.499 148.02 278.215 148.213 285.94 148.387C288.135 143.272 290.339 138.158 292.534 133.043C292.805 132.405 293.23 130.316 294.226 130.916C294.758 131.254 294.99 134.309 295.135 134.967C297.272 144.829 297.272 145.612 298.316 146.763C299.698 148.319 302.106 148.348 304.175 148.068C309.242 147.401 314.482 147.768 319.51 148.706C326.955 150.118 331.335 154.043 333.278 163.934C333.8 166.564 333.384 169.629 333.355 172.327C336.285 167.231 340.143 160.966 345.925 159.197C358.803 155.348 363.193 173.806 352.364 184.316C348.41 188.116 342.908 190.494 336.865 190.33C336.324 190.291 335.801 190.717 335.705 191.277C334.235 199.709 328.521 219.075 322.362 229.807C319.49 234.835 315.749 239.553 311.533 243.498C307.501 244.175 304.842 246.882 302.551 250.305C290.871 257.731 275.884 258.736 262.841 250.498C261.159 246.66 259.564 242.918 257.059 240.549C254.952 238.567 252.051 237.446 249.131 238.306C236.426 223.871 233.826 214.879 229.417 199.593C229.262 199.07 228.759 198.732 228.218 198.771C223.248 199.225 216.364 202.203 210.224 197.814C202.354 192.177 201.416 179.714 210.592 174.183C217.031 170.267 224.969 172.685 228.691 178.186C229.397 179.221 231.022 178.524 230.751 177.306C229.039 169.426 229.852 160.657 232.82 152.477C237.335 146.328 254.971 147.643 262.783 147.836H262.793ZM296.653 255.835L297.049 259.896C292.766 267.448 287.961 273.558 278.785 270.174C271.746 267.602 267.608 260.757 264.466 254.095C274.85 259.587 286.346 259.848 296.653 255.835ZM344.764 390.53C313.476 358.546 317.566 362.791 313.592 358.653C300.443 344.962 296.914 343.86 288.26 340.543C283.436 338.687 278.437 336.782 273.351 335.419C259.38 331.725 243.359 326.253 230.441 313.645C228.788 312.03 227.144 310.241 226.361 308.105C225.723 306.364 225.655 303.928 226.932 302.41C229.397 299.509 235.256 301.259 237.693 303.928C241.096 308.946 245.699 313.065 250.987 315.849C251.162 315.936 251.336 315.985 251.519 315.985C252.709 315.985 253.105 314.389 252.051 313.828C244.451 309.826 238.554 302.922 235.75 295.187C235.053 293.282 234.27 289.811 236.852 287.878C237.538 287.365 239.607 285.828 243.34 288.777C248.271 295.545 254.198 302.12 261.033 308.105C261.507 308.52 262.232 308.472 262.648 307.998C263.064 307.524 263.015 306.799 262.542 306.384C257.475 301.946 243.649 287.82 241.88 281.593C241.145 278.924 242.547 275.821 245.003 274.689C248 273.297 250.881 274.883 252.283 276.923C253.347 278.489 259.332 285.489 262.435 288.187C262.909 288.603 263.634 288.545 264.05 288.071C264.466 287.597 264.408 286.872 263.934 286.456C256.315 279.843 249.76 268.917 246.907 259.007C241.58 240.907 250.465 237.494 255.474 242.193C261.198 247.607 263.663 267.061 277.992 272.292C299.292 280.143 299.64 245.683 313.003 245.606C317.769 245.471 319.635 250.643 318.533 255.275C316.251 264.412 310.469 268.086 310.469 281.438C310.469 294.791 317.151 307.921 328.695 315.772C350.382 330.488 370.628 334.781 393.34 353.799C407.63 365.837 420.084 380.059 430.139 395.829C416.932 395.49 426.803 395.897 353.805 395.916C349.976 395.916 347.559 393.412 344.755 390.501L344.764 390.53Z" fill="black"/>
<circle cx="258.535" cy="179.633" r="4.02768" transform="rotate(2.6853 258.535 179.633)" fill="black"/>
<circle cx="307.055" cy="171.523" r="4.02768" transform="rotate(2.6853 307.055 171.523)" fill="black"/>
<path d="M305.779 211.214C305.19 211.446 304.9 212.104 305.132 212.694C305.721 214.202 306.321 215.758 306.447 217.315C306.688 220.409 304.948 222.488 301.603 222.275C300.123 222.179 298.634 221.656 297.194 221.144C296.604 220.931 295.946 221.241 295.734 221.84C295.521 222.44 295.83 223.087 296.43 223.3C298.228 223.938 300.085 224.576 302.018 224.576C306.485 224.576 309.057 221.405 308.728 217.141C308.574 215.236 307.878 213.448 307.259 211.862C307.027 211.272 306.369 210.992 305.779 211.214Z" fill="black"/>
<path d="M275.951 210.75C276.106 210.75 287.728 210.305 287.573 210.295C288.201 210.276 288.694 209.744 288.665 209.106C288.636 208.478 288.143 208.052 287.476 208.014L277.266 208.42L280.428 186.259C280.515 185.631 280.08 185.06 279.461 184.963C278.823 184.867 278.262 185.311 278.165 185.93L274.81 209.454C274.714 210.141 275.245 210.76 275.941 210.76L275.951 210.75Z" fill="black"/>
<path d="M293.919 173.34C297.88 168.154 304.876 166.324 310.873 168.899C311.452 169.139 312.123 168.88 312.372 168.301C312.622 167.722 312.353 167.052 311.775 166.802C304.725 163.78 296.654 166.015 292.106 171.958C291.725 172.463 291.817 173.174 292.322 173.556C292.827 173.937 293.538 173.845 293.919 173.34Z" fill="black"/>
<path d="M246.635 178.878C251.177 174.29 258.455 173.683 263.695 177.539C264.2 177.912 264.922 177.8 265.294 177.295C265.666 176.79 265.564 176.069 265.049 175.696C258.921 171.179 250.352 171.851 245.007 177.263C244.56 177.716 244.565 178.433 245.019 178.88C245.462 179.327 246.188 179.322 246.636 178.869L246.635 178.878Z" fill="black"/>
<path d="M340.413 176.977C344.135 175.527 347.374 172.684 349.298 169.175C349.598 168.623 349.395 167.927 348.844 167.628C348.293 167.318 347.597 167.531 347.297 168.082C345.634 171.118 342.82 173.593 339.591 174.85C339.001 175.082 338.711 175.74 338.943 176.329C339.175 176.919 339.833 177.209 340.423 176.977H340.413Z" fill="black"/>
<path d="M224.001 187.168C220.395 186.714 216.943 184.722 214.758 181.831C214.381 181.328 213.655 181.231 213.162 181.608C212.66 181.986 212.563 182.701 212.94 183.204C215.531 186.636 219.466 188.899 223.73 189.44C224.349 189.517 224.929 189.082 225.007 188.444C225.084 187.816 224.639 187.245 224.011 187.168H224.001Z" fill="black"/>
<path d="M348.5 56.5001C357.7 49.3001 368.333 49.1668 372.5 50.0001C368.1 32.8 381 21.5001 388 18.0002C404.4 13.6002 415.833 20.8335 419.5 25.0002L434 10.5C442.667 4.66667 464.9 -3.8 484.5 9C504.1 21.8 507.333 45.3333 506.5 55.5C533.7 55.1 543.167 70.6667 544.5 78.5C549.7 101.3 534.333 118.333 526 124C505.2 140 486.667 135.667 480 131.5C460.4 150.3 438.5 146.333 430 142C417.6 132.4 410.833 131 409 131.5C395 137.1 383.5 136.833 379.5 136C374.333 136.167 361.2 133.7 350 122.5C338.8 111.3 336 96.1667 336 90C336.333 81.8334 339.3 63.7001 348.5 56.5001Z" fill="#FFEBF1"/>
<path d="M539.589 67.092C532.405 58.3031 520.329 53.6621 507.837 54.7837C509.548 33.1838 495.896 11.3712 475.601 3.63618C454.282 -4.49521 431.396 7.32963 419.271 23.4667C410.637 14.7842 396.395 12.5024 385.518 18.2359C374.747 23.9212 368.598 36.7805 370.725 48.7117C355.99 46.604 340.094 57.4523 335.888 78.182C331.702 98.8344 340.549 121.459 361.307 132.085C373.084 138.118 387.51 139.781 402.747 134.754C410.879 132.066 413.228 132.249 421.311 137.828C431.212 144.654 441.964 147.874 454.03 146.24C464.037 144.886 473.658 139.926 480.6 132.578C501.794 144.074 531.632 127.647 542.122 107.788C549.219 94.3384 548.175 77.6019 539.579 67.0823L539.589 67.092ZM540.111 106.734C529.891 126.081 500.788 141.425 481.615 130.615C481.344 129.794 480.271 129.562 479.681 130.219C473.049 137.635 463.593 142.653 453.731 143.978C443.23 145.399 432.808 142.962 422.617 135.943C413.992 129.997 410.918 129.639 402.032 132.578C387.49 137.364 373.741 135.885 362.352 130.055C342.821 120.048 334.08 98.6217 338.131 78.6268C342.241 58.3901 358.078 48.1896 371.953 51.2449C372.774 51.4286 373.509 50.6842 373.306 49.8527C370.541 38.6369 376.371 25.6325 386.591 20.2374C396.811 14.8422 410.84 17.3754 418.536 25.9903C419.049 26.5704 419.919 26.4544 420.316 25.8936C431.696 9.90151 454.069 -2.14571 474.789 5.75363C494.581 13.3049 507.759 34.8661 505.439 55.9246C505.352 56.6788 506.029 57.2879 506.715 57.1815C518.762 55.6829 530.974 60.1305 537.829 68.5133C545.864 78.3464 546.802 94.058 540.121 106.714L540.111 106.734Z" fill="black"/>
<path d="M422.826 67.7522C423.013 72.0922 422.99 76.5022 422.756 80.9822L422.546 103.312C421.846 103.219 421.076 103.172 420.236 103.172C419.396 103.172 418.556 103.172 417.716 103.172C416.876 103.172 416.06 103.196 415.266 103.242C414.52 103.242 413.866 103.242 413.306 103.242C413.213 101.236 413.143 99.0655 413.096 96.7322C413.096 94.3989 413.073 92.0189 413.026 89.5922C413.026 87.1655 412.956 84.7855 412.816 82.4522C412.723 80.1189 412.56 77.9722 412.326 76.0122C412 76.5255 411.626 77.3422 411.206 78.4622C410.786 79.5355 410.366 80.6555 409.946 81.8222C409.526 82.9889 409.13 84.0155 408.756 84.9022C408.383 85.7889 408.103 86.2322 407.916 86.2322C407.683 86.2322 407.403 85.9989 407.076 85.5322C406.796 85.0189 406.493 84.3889 406.166 83.6422C405.886 82.8955 405.583 82.1022 405.256 81.2622C404.93 80.4222 404.65 79.6522 404.416 78.9522C404.183 78.2522 403.973 77.6689 403.786 77.2022C403.646 76.7355 403.576 76.5022 403.576 76.5022C403.203 80.8889 403.063 85.3222 403.156 89.8022C403.296 94.2822 403.506 98.6922 403.786 103.032C402.293 103.266 400.66 103.359 398.886 103.312C397.113 103.266 395.48 103.242 393.986 103.242C393.893 103.242 393.823 103.172 393.776 103.032C393.73 102.846 393.683 102.402 393.636 101.702C393.59 101.002 393.543 99.9522 393.496 98.5522C393.496 97.1055 393.496 95.2155 393.496 92.8822C393.496 90.5489 393.496 87.6555 393.496 84.2022C393.543 80.7489 393.566 76.6422 393.566 71.8822C393.613 67.1222 393.66 61.5689 393.706 55.2222C394.313 55.0355 395.013 54.9189 395.806 54.8722C396.6 54.8255 397.416 54.8255 398.256 54.8722C399.096 54.8722 399.936 54.8955 400.776 54.9422C401.616 54.9422 402.433 54.9189 403.226 54.8722H403.296C403.716 55.3389 404.136 56.0622 404.556 57.0422C404.976 57.9755 405.373 58.9789 405.746 60.0522C406.12 61.1255 406.47 62.1522 406.796 63.1322C407.17 64.1122 407.543 64.8822 407.916 65.4422C408.056 65.5822 408.196 65.6522 408.336 65.6522C408.476 65.6989 408.686 65.2555 408.966 64.3222C409.293 63.3889 409.62 62.3155 409.946 61.1022C410.32 59.8422 410.716 58.6055 411.136 57.3922C411.603 56.1789 412.046 55.2922 412.466 54.7322C412.793 54.7789 413.376 54.7789 414.216 54.7322C415.103 54.6855 416.036 54.6389 417.016 54.5922C418.043 54.5455 419.07 54.5222 420.096 54.5222C421.17 54.4755 422.08 54.4522 422.826 54.4522C422.64 58.9322 422.64 63.3655 422.826 67.7522ZM441.725 54.0322C442.845 54.0789 444.455 54.0789 446.555 54.0322H448.235V54.3122C448.235 58.3255 448.165 62.3622 448.025 66.4222C447.931 70.4822 447.838 74.5655 447.745 78.6722C447.698 82.7322 447.698 86.7922 447.745 90.8522C447.791 94.9122 447.931 98.9255 448.165 102.892C447.791 103.266 446.998 103.476 445.785 103.522C444.618 103.616 443.335 103.639 441.935 103.592C440.581 103.546 439.275 103.476 438.015 103.382C436.755 103.336 435.891 103.382 435.425 103.522C435.751 99.3222 435.891 95.0989 435.845 90.8522C435.798 86.6055 435.705 82.4055 435.565 78.2522C435.471 74.0522 435.401 69.9222 435.355 65.8622C435.355 61.7555 435.565 57.7422 435.985 53.8222V53.6822C436.218 53.6355 436.661 53.6589 437.315 53.7522C438.015 53.7989 438.528 53.8222 438.855 53.8222C439.695 53.8689 440.651 53.9389 441.725 54.0322ZM467.818 90.1522C467.818 89.8255 467.818 89.5455 467.818 89.3122L467.958 86.6522C468.192 85.1589 468.472 83.7355 468.798 82.3822C469.172 80.9822 469.802 79.6289 470.688 78.3222C471.202 77.3422 471.972 76.1989 472.998 74.8922C474.072 73.5389 474.982 72.2089 475.728 70.9022C476.475 69.5955 476.825 68.3822 476.778 67.2622C476.732 66.1422 475.868 65.2789 474.188 64.6722C473.115 64.2055 472.275 64.1122 471.668 64.3922C471.108 64.6255 470.618 65.0222 470.198 65.5822C469.778 66.0955 469.382 66.6555 469.008 67.2622C468.635 67.8689 468.145 68.2889 467.538 68.5222C466.092 68.6622 464.645 68.6855 463.198 68.5922C461.798 68.4989 460.398 68.4289 458.998 68.3822V68.3122C459.092 66.5389 459.488 64.8122 460.188 63.1322C460.888 61.4055 461.845 59.8655 463.058 58.5122C464.272 57.1589 465.695 56.0622 467.328 55.2222C468.962 54.3355 470.782 53.8455 472.788 53.7522C474.935 53.5655 476.965 53.7755 478.878 54.3822C480.838 54.9889 482.518 55.9222 483.918 57.1822C485.365 58.4422 486.462 59.9589 487.208 61.7322C487.955 63.5055 488.212 65.4189 487.978 67.4722C487.792 68.9655 487.395 70.3189 486.788 71.5322C486.182 72.7455 485.482 73.8655 484.688 74.8922C483.942 75.9189 483.218 76.7589 482.518 77.4122C481.865 78.0189 481.188 78.7889 480.488 79.7222C479.508 81.0755 478.762 82.4289 478.248 83.7822C477.782 85.1355 477.385 86.6289 477.058 88.2622C476.965 88.6355 476.872 89.0322 476.778 89.4522C476.685 89.8722 476.685 90.2689 476.778 90.6422V90.7122C475.332 90.8989 473.885 90.9455 472.438 90.8522C471.038 90.7589 469.615 90.7589 468.168 90.8522H468.098C467.912 90.6655 467.818 90.4322 467.818 90.1522ZM476.148 103.242H476.008L468.098 103.172H467.888C467.795 102.659 467.725 102.006 467.678 101.212C467.678 100.419 467.678 99.6255 467.678 98.8322C467.725 98.0389 467.748 97.2922 467.748 96.5922C467.795 95.8922 467.818 95.3789 467.818 95.0522C468.285 94.8655 468.938 94.7255 469.778 94.6322C470.665 94.5389 471.552 94.4922 472.438 94.4922C473.325 94.4922 474.142 94.5389 474.888 94.6322C475.682 94.6789 476.242 94.7722 476.568 94.9122C476.568 94.9589 476.545 95.3555 476.498 96.1022C476.452 96.8022 476.405 97.6189 476.358 98.5522C476.312 99.4855 476.265 100.396 476.218 101.282C476.172 102.169 476.148 102.776 476.148 103.102V103.172V103.242Z" fill="black"/>
<circle cx="409" cy="163" r="13" fill="#FFEBF1" stroke="black" stroke-width="2"/>
<circle cx="394" cy="191" r="10" fill="#FFEBF1" stroke="black" stroke-width="2"/>
<path d="M115.195 271.955C125.217 250.842 116.058 243.335 97.7805 258.924C82.9644 240.547 72.5367 246.195 78.8029 269.577C75.8747 269.943 73.1374 270.454 70.6747 271.114C63.3701 273.069 59.2285 276.115 59.0097 279.683C58.6595 285.36 67.9136 289.262 73.2727 290.996C62.9922 312.978 73.8377 319.861 93.7343 301.09C109.633 323.679 122.706 320.002 115.644 294.118C138.939 290.417 138.97 278.194 115.195 271.955ZM113.615 251.932C114.717 251.932 115.636 252.206 116.34 252.757C119.432 255.199 118.202 262.601 113.878 271.621C111.212 270.973 108.344 270.422 105.308 269.991C103.167 266.31 100.896 262.919 98.5882 259.946C102.268 256.804 108.809 251.932 113.615 251.932ZM98.982 293.748C96.0697 293.667 93.1734 293.466 90.2133 293.14C87.2851 288.103 84.7309 282.728 82.7576 277.567C84.532 275.073 86.3343 272.739 88.4469 270.245C93.8895 270.16 99.2207 270.486 104.512 271.219C106.247 274.244 107.735 277.148 109.123 280.174C106.096 284.989 102.65 289.564 98.982 293.748ZM109.764 281.622C111.483 285.516 112.915 289.358 113.989 292.999C109.955 293.554 105.443 293.836 100.673 293.78C104.035 289.865 107.118 285.722 109.76 281.622H109.764ZM97.8561 295.011C96.5631 296.439 95.2581 297.799 93.9492 299.074C92.9705 297.634 91.9957 296.121 91.0449 294.54C94.0964 294.85 95.9225 294.934 97.8561 295.011ZM88.602 292.947C83.7363 292.336 79.1649 291.402 75.1267 290.207C76.9171 286.587 79.1888 282.724 81.8703 278.834C83.7999 283.762 86.0279 288.405 88.598 292.951L88.602 292.947ZM82.2204 276.078C81.556 274.252 80.9593 272.454 80.454 270.704C82.4632 270.49 84.5598 270.35 86.7202 270.277C85.0452 272.301 83.6607 274.095 82.2204 276.078ZM89.5927 268.909C92.2344 265.892 94.9359 263.16 97.6055 260.799C99.6823 263.474 101.723 266.499 103.669 269.77C98.9781 269.179 94.2157 268.889 89.5927 268.909ZM106.143 271.452C108.638 271.842 111.029 272.309 113.273 272.852C112.294 274.799 111.176 276.811 109.935 278.854C108.901 276.642 107.818 274.437 106.143 271.452ZM78.6239 262.561C77.8719 257.432 77.7366 249.305 82.8371 249.305C87.6114 249.305 93.7741 256.023 96.7938 259.773C93.8099 262.412 90.7863 265.506 87.8501 268.929C85.1646 268.986 82.5706 269.155 80.0959 269.42C79.4474 267.026 78.9382 264.717 78.6199 262.561H78.6239ZM70.0143 288.425C53.1891 281.578 59.4911 273.258 79.149 270.848C79.7538 272.96 80.4739 275.137 81.3054 277.354C78.2817 281.646 75.7673 285.862 73.8337 289.801C72.4929 289.371 71.2158 288.912 70.0143 288.425ZM84.8503 306.625C79.145 310.463 74.5657 311.634 72.286 309.836C69.2425 307.434 70.3843 300.221 74.5498 291.39C78.9779 292.718 84.0347 293.727 89.4176 294.359C90.5833 296.351 91.7769 298.237 92.9824 300.003C90.2293 302.614 87.4841 304.855 84.8542 306.625H84.8503ZM111.65 314.712C107.405 314.712 100.92 309.003 94.6972 300.152C96.3244 298.571 97.9476 296.865 99.551 295.059C104.532 295.18 109.446 294.987 114.347 294.303C116.213 301.078 118.485 314.712 111.65 314.712ZM115.278 292.806C114.108 288.807 112.525 284.575 110.595 280.295C112.111 277.857 113.448 275.471 114.59 273.178C125.006 275.877 132.016 280.069 131.761 284.241C131.522 288.16 124.918 291.298 115.278 292.806Z" fill="black"/>
<path d="M77.4104 263.273C79.2298 263.273 80.7047 261.781 80.7047 259.942C80.7047 258.102 79.2298 256.611 77.4104 256.611C75.5911 256.611 74.1162 258.102 74.1162 259.942C74.1162 261.781 75.5911 263.273 77.4104 263.273Z" fill="#FADF4F"/>
<path d="M106.123 315.778C108.098 315.778 109.7 314.159 109.7 312.161C109.7 310.164 108.098 308.544 106.123 308.544C104.148 308.544 102.546 310.164 102.546 312.161C102.546 314.159 104.148 315.778 106.123 315.778Z" fill="#FADF4F"/>
<path d="M116.436 269.714C118.624 269.714 120.398 267.92 120.398 265.707C120.398 263.494 118.624 261.7 116.436 261.7C114.247 261.7 112.473 263.494 112.473 265.707C112.473 267.92 114.247 269.714 116.436 269.714Z" fill="#87AB99"/>
<path d="M82.081 311.674C83.9949 311.674 85.5463 310.105 85.5463 308.17C85.5463 306.235 83.9949 304.666 82.081 304.666C80.1672 304.666 78.6157 306.235 78.6157 308.17C78.6157 310.105 80.1672 311.674 82.081 311.674Z" fill="#87AB99"/>
<path d="M560.752 186.439C573.906 158.73 561.885 148.877 537.897 169.337C518.452 145.218 504.766 152.631 512.99 183.319C509.147 183.799 505.555 184.47 502.322 185.336C492.736 187.902 487.3 191.899 487.013 196.582C486.553 204.032 498.699 209.154 505.732 211.43C492.24 240.28 506.474 249.314 532.587 224.677C553.452 254.325 570.611 249.499 561.342 215.527C591.915 210.669 591.957 194.629 560.752 186.439ZM558.679 160.161C560.126 160.161 561.332 160.52 562.256 161.243C566.313 164.448 564.7 174.163 559.024 186.001C555.525 185.151 551.761 184.428 547.777 183.863C544.967 179.031 541.986 174.58 538.957 170.678C543.787 166.555 552.372 160.161 558.679 160.161ZM539.474 215.041C535.652 214.936 531.851 214.672 527.966 214.244C524.123 207.633 520.77 200.579 518.18 193.805C520.509 190.531 522.875 187.469 525.647 184.195C532.791 184.084 539.787 184.512 546.732 185.473C549.009 189.444 550.962 193.256 552.784 197.226C548.81 203.547 544.289 209.55 539.474 215.041ZM553.625 199.127C555.88 204.238 557.76 209.281 559.17 214.059C553.875 214.788 547.954 215.157 541.693 215.083C546.106 209.946 550.152 204.508 553.62 199.127H553.625ZM537.996 216.699C536.299 218.574 534.587 220.358 532.869 222.032C531.584 220.142 530.305 218.156 529.057 216.081C533.062 216.488 535.459 216.599 537.996 216.699ZM525.851 213.99C519.465 213.188 513.465 211.963 508.165 210.395C510.515 205.643 513.497 200.574 517.016 195.468C519.549 201.936 522.473 208.029 525.846 213.996L525.851 213.99ZM517.476 191.851C516.604 189.454 515.82 187.094 515.157 184.797C517.794 184.517 520.546 184.333 523.381 184.237C521.183 186.893 519.366 189.248 517.476 191.851ZM527.151 182.442C530.618 178.482 534.164 174.897 537.668 171.798C540.393 175.309 543.072 179.28 545.625 183.572C539.469 182.796 533.219 182.416 527.151 182.442ZM548.873 185.779C552.147 186.291 555.285 186.904 558.23 187.617C556.946 190.172 555.478 192.812 553.849 195.494C552.492 192.59 551.071 189.697 548.873 185.779ZM512.755 174.11C511.768 167.378 511.591 156.713 518.285 156.713C524.551 156.713 532.639 165.53 536.602 170.451C532.686 173.915 528.718 177.975 524.864 182.469C521.34 182.543 517.935 182.764 514.687 183.113C513.836 179.971 513.168 176.94 512.75 174.11H512.755ZM501.456 208.056C479.373 199.069 487.644 188.15 513.444 184.987C514.238 187.759 515.183 190.616 516.275 193.525C512.306 199.159 509.006 204.692 506.468 209.861C504.709 209.296 503.033 208.695 501.456 208.056ZM520.927 231.943C513.439 236.98 507.429 238.516 504.437 236.156C500.443 233.004 501.941 223.537 507.408 211.947C513.22 213.689 519.857 215.015 526.921 215.844C528.451 218.457 530.018 220.934 531.6 223.252C527.987 226.678 524.384 229.619 520.932 231.943H520.927ZM556.1 242.555C550.528 242.555 542.017 235.063 533.851 223.447C535.986 221.372 538.117 219.133 540.221 216.762C546.758 216.921 553.207 216.667 559.64 215.77C562.089 224.661 565.071 242.555 556.1 242.555ZM560.862 213.806C559.327 208.557 557.249 203.003 554.716 197.385C556.706 194.185 558.46 191.054 559.959 188.044C573.629 191.587 582.829 197.089 582.495 202.564C582.182 207.707 573.514 211.826 560.862 213.806Z" fill="black"/>
<path d="M511.162 175.045C513.55 175.045 515.486 173.087 515.486 170.673C515.486 168.258 513.55 166.301 511.162 166.301C508.775 166.301 506.839 168.258 506.839 170.673C506.839 173.087 508.775 175.045 511.162 175.045Z" fill="#FADF4F"/>
<path d="M548.846 243.955C551.439 243.955 553.54 241.829 553.54 239.208C553.54 236.586 551.439 234.461 548.846 234.461C546.254 234.461 544.152 236.586 544.152 239.208C544.152 241.829 546.254 243.955 548.846 243.955Z" fill="#FADF4F"/>
<path d="M562.381 183.499C565.253 183.499 567.582 181.144 567.582 178.24C567.582 175.335 565.253 172.981 562.381 172.981C559.509 172.981 557.18 175.335 557.18 178.24C557.18 181.144 559.509 183.499 562.381 183.499Z" fill="#87AB99"/>
<path d="M517.293 238.568C519.804 238.568 521.841 236.509 521.841 233.97C521.841 231.43 519.804 229.371 517.293 229.371C514.781 229.371 512.745 231.43 512.745 233.97C512.745 236.509 514.781 238.568 517.293 238.568Z" fill="#87AB99"/>
</g>
</svg>
