<svg width="1300" height="400" viewBox="0 0 1300 400" fill="none" xmlns="http://www.w3.org/2000/svg">
<mask id="mask0_320_17121" style="mask-type:alpha" maskUnits="userSpaceOnUse" x="0" y="0" width="1300" height="400">
<rect width="1300" height="400" rx="20" fill="#0563C1"/>
</mask>
<g mask="url(#mask0_320_17121)">
<path d="M471.881 360.447C592.681 337.647 650.881 350.947 664.881 360.447C683.214 379.78 777.081 395.847 1005.88 305.447C1234.68 215.047 1190.55 115.781 1139.88 77.4475C986.281 -12.9525 767.548 31.4475 677.381 64.9475C616.548 90.2808 465.981 132.048 350.381 96.4476C234.781 60.8476 175.381 89.2806 156.381 106.947C139.881 125.947 104.581 176.548 125.381 234.948C146.181 293.348 201.048 331.614 225.881 343.448C257.548 358.614 351.081 383.247 471.881 360.447Z" fill="#FEFCEB"/>
<path d="M997.802 303.468C994.85 303.482 978.706 319.947 978.706 319.947C978.706 319.947 977.2 321.822 959.222 332.807C936.376 346.767 963.152 330.934 941.874 333.351C890.214 339.219 769.532 281.293 812.296 237.794C824.759 225.116 835.308 221.757 852.149 227.452C865.231 231.877 871.986 244.874 873.646 258.583C875.539 274.217 866.257 281.149 854.686 291.832C828 316.468 761.667 286.864 761.667 286.864C761.667 286.864 633.803 228.35 645.238 191.569" stroke="black" stroke-width="2" stroke-linecap="round" stroke-linejoin="round" stroke-dasharray="6 6"/>
<circle cx="56.5" cy="56.5" r="55.5" transform="matrix(0.985293 0.170873 0.170873 -0.985293 925.438 357.902)" fill="#FCF1B0" stroke="#18292D" stroke-width="2"/>
<path d="M991 294.469C990.443 294.469 989.992 294.018 989.992 293.461V275.008C989.992 274.451 990.443 274 991 274C991.557 274 992.009 274.451 992.009 275.008V293.461C992.009 294.018 991.557 294.469 991 294.469Z" fill="black"/>
<path d="M991 352C990.443 352 989.992 351.548 989.992 350.992V332.539C989.992 331.983 990.443 331.531 991 331.531C991.557 331.531 992.009 331.983 992.009 332.539V350.992C992.009 351.548 991.557 352 991 352Z" fill="black"/>
<path d="M977.185 300.193C976.927 300.193 976.668 300.094 976.471 299.898L963.424 286.85C963.031 286.456 963.031 285.818 963.424 285.424C963.818 285.031 964.456 285.031 964.85 285.424L977.898 298.472C978.291 298.866 978.291 299.504 977.898 299.898C977.701 300.095 977.443 300.193 977.185 300.193Z" fill="black"/>
<path d="M1017.86 340.872C1017.61 340.872 1017.35 340.773 1017.15 340.576L1004.1 327.528C1003.71 327.135 1003.71 326.496 1004.1 326.102C1004.5 325.708 1005.14 325.708 1005.53 326.102L1018.58 339.15C1018.97 339.544 1018.97 340.182 1018.58 340.576C1018.38 340.773 1018.12 340.872 1017.87 340.872H1017.86Z" fill="black"/>
<path d="M971.461 314.009H953.008C952.451 314.009 952 313.557 952 313C952 312.444 952.451 311.992 953.008 311.992H971.461C972.018 311.992 972.469 312.443 972.469 313C972.469 313.557 972.018 314.009 971.461 314.009Z" fill="black"/>
<path d="M1028.99 314.009H1010.54C1009.98 314.009 1009.53 313.557 1009.53 313C1009.53 312.444 1009.98 311.992 1010.54 311.992H1028.99C1029.55 311.992 1030 312.443 1030 313C1030 313.557 1029.55 314.009 1028.99 314.009Z" fill="black"/>
<path d="M964.135 340.872C963.877 340.872 963.619 340.773 963.422 340.576C963.029 340.183 963.029 339.544 963.422 339.15L976.47 326.102C976.864 325.708 977.502 325.708 977.896 326.102C978.289 326.496 978.289 327.134 977.896 327.528L964.848 340.576C964.651 340.773 964.393 340.872 964.135 340.872H964.135Z" fill="black"/>
<path d="M1004.82 300.193C1004.56 300.193 1004.3 300.094 1004.1 299.898C1003.71 299.504 1003.71 298.865 1004.1 298.472L1017.15 285.424C1017.55 285.031 1018.18 285.031 1018.58 285.424C1018.97 285.818 1018.97 286.456 1018.58 286.85L1005.53 299.898C1005.33 300.095 1005.07 300.193 1004.82 300.193H1004.82Z" fill="black"/>
<circle cx="990.5" cy="313.5" r="15.5" fill="#FADF4F"/>
<path d="M991.001 329.64C981.826 329.64 974.361 322.176 974.361 313.001C974.361 303.826 981.826 296.361 991.001 296.361C1000.18 296.361 1007.64 303.826 1007.64 313.001C1007.64 322.176 1000.18 329.64 991.001 329.64ZM991.001 298.378C982.938 298.378 976.378 304.938 976.378 313.001C976.378 321.064 982.938 327.624 991.001 327.624C999.064 327.624 1005.62 321.064 1005.62 313.001C1005.62 304.938 999.064 298.378 991.001 298.378Z" fill="black"/>
<path d="M983.522 295.957C983.126 295.957 982.751 295.722 982.59 295.334L979.059 286.81C978.846 286.296 979.091 285.706 979.605 285.493C980.119 285.28 980.709 285.524 980.922 286.039L984.453 294.563C984.666 295.077 984.422 295.666 983.907 295.88C983.781 295.932 983.65 295.957 983.522 295.957Z" fill="black"/>
<path d="M1002.01 340.584C1001.61 340.584 1001.24 340.35 1001.08 339.961L997.546 331.438C997.333 330.923 997.577 330.333 998.091 330.12C998.606 329.907 999.195 330.151 999.409 330.666L1002.94 339.189C1003.15 339.704 1002.91 340.294 1002.39 340.507C1002.27 340.559 1002.14 340.584 1002.01 340.584H1002.01Z" fill="black"/>
<path d="M972.948 306.53C972.819 306.53 972.689 306.505 972.563 306.453L964.039 302.922C963.524 302.709 963.28 302.119 963.493 301.605C963.706 301.091 964.296 300.846 964.81 301.059L973.334 304.59C973.848 304.804 974.093 305.393 973.88 305.907C973.719 306.296 973.343 306.53 972.948 306.53Z" fill="black"/>
<path d="M1017.57 325.017C1017.45 325.017 1017.32 324.992 1017.19 324.94L1008.67 321.409C1008.15 321.196 1007.91 320.606 1008.12 320.091C1008.33 319.576 1008.92 319.333 1009.44 319.546L1017.96 323.077C1018.48 323.29 1018.72 323.88 1018.51 324.394C1018.35 324.782 1017.97 325.017 1017.58 325.017H1017.57Z" fill="black"/>
<path d="M964.425 325.017C964.029 325.017 963.654 324.783 963.493 324.394C963.28 323.88 963.524 323.29 964.039 323.077L972.563 319.546C973.078 319.333 973.667 319.577 973.88 320.091C974.093 320.606 973.848 321.196 973.334 321.409L964.81 324.94C964.684 324.992 964.553 325.017 964.425 325.017Z" fill="black"/>
<path d="M1009.05 306.53C1008.66 306.53 1008.28 306.296 1008.12 305.908C1007.91 305.393 1008.15 304.804 1008.67 304.591L1017.19 301.06C1017.7 300.846 1018.29 301.091 1018.51 301.605C1018.72 302.12 1018.48 302.709 1017.96 302.922L1009.44 306.453C1009.31 306.506 1009.18 306.53 1009.05 306.53Z" fill="black"/>
<path d="M979.99 340.584C979.862 340.584 979.731 340.559 979.605 340.506C979.091 340.293 978.846 339.703 979.059 339.19L982.59 330.666C982.804 330.151 983.393 329.907 983.907 330.12C984.422 330.333 984.666 330.923 984.453 331.437L980.922 339.961C980.761 340.349 980.386 340.584 979.99 340.584Z" fill="black"/>
<path d="M998.477 295.956C998.348 295.956 998.218 295.932 998.091 295.879C997.577 295.666 997.333 295.076 997.546 294.562L1001.08 286.038C1001.29 285.524 1001.88 285.28 1002.39 285.493C1002.91 285.706 1003.15 286.296 1002.94 286.81L999.409 295.334C999.248 295.722 998.873 295.956 998.477 295.956H998.477Z" fill="black"/>
<path d="M290.815 219.795C292.947 221.104 293.732 223.381 294.818 225.76C298.596 234.038 296.442 217.671 301.647 224.734C318.135 247.105 335.049 270.156 366.786 274.705C399.422 279.382 470.9 276.574 458.5 240.4C453.061 224.532 444.903 211.088 428.164 209.989C413.894 209.053 405.362 225.293 404 240.4C401.944 263.21 424.165 265.222 449.5 277.4C482.291 293.162 506.639 289.039 542.5 282.9C580.756 276.352 627.092 248.898 633.5 242.947" stroke="black" stroke-width="2" stroke-linecap="round" stroke-linejoin="round" stroke-dasharray="6 6"/>
<circle cx="251.5" cy="207.896" r="55.5" fill="#FCF1B0" stroke="#18292D" stroke-width="2"/>
<path d="M254.464 206.678H230.352C230.346 206.533 230.33 206.391 230.33 206.244C230.33 200.586 234.929 195.984 240.582 195.984C240.689 195.984 240.796 195.993 240.901 196.001L241.024 196.011C241.359 196.037 241.687 195.896 241.902 195.637C242.118 195.378 242.195 195.031 242.109 194.705C241.784 193.463 241.625 192.282 241.625 191.097C241.625 183.324 247.95 177 255.725 177C263.499 177 269.433 182.901 269.783 190.435C269.796 190.717 269.923 190.982 270.134 191.169C270.346 191.356 270.62 191.449 270.906 191.427L270.985 191.421C271.486 191.382 271.888 190.992 271.942 190.493C272.244 187.7 274.594 185.594 277.406 185.594C280.44 185.594 282.908 188.063 282.908 191.097C282.908 191.915 282.732 192.701 282.387 193.434C282.215 193.8 282.269 194.233 282.526 194.545C282.784 194.857 283.197 194.991 283.591 194.891C284.483 194.661 285.403 194.544 286.324 194.544C292.276 194.544 297.1 199.197 297.305 205.136C297.306 205.152 297.306 205.168 297.308 205.183C297.317 205.3 297.316 205.417 297.316 205.534C297.316 211.314 292.807 216.131 287.025 216.503C286.557 216.545 286.09 216.545 285.622 216.503C285.591 216.501 285.56 216.499 285.529 216.499H270.318C269.043 215.852 267.605 215.478 266.08 215.478H236.152C234.879 214.865 233.752 214.001 232.837 212.943H254.464C259.649 212.943 263.867 208.723 263.867 203.537C263.867 198.35 259.649 194.13 254.464 194.13C251.89 194.13 249.399 195.203 247.63 197.075C247.055 197.683 246.752 198.478 246.775 199.315C246.798 200.151 247.146 200.928 247.754 201.503C248.362 202.079 249.155 202.381 249.993 202.359C250.829 202.336 251.607 201.988 252.181 201.38C252.781 200.745 253.592 200.395 254.464 200.395C256.196 200.395 257.604 201.805 257.604 203.537C257.604 205.269 256.195 206.679 254.464 206.679V206.678Z" fill="#5185F7" stroke="black" stroke-width="2"/>
<path d="M213.264 210.855C212.688 210.855 212.22 210.386 212.22 209.811C212.22 209.235 212.688 208.767 213.264 208.767H254.464C257.347 208.767 259.692 206.42 259.692 203.537C259.692 200.653 257.347 198.307 254.464 198.307C253.012 198.307 251.662 198.888 250.664 199.945C250.472 200.148 250.214 200.264 249.935 200.272C249.671 200.282 249.392 200.178 249.189 199.986C248.986 199.794 248.87 199.535 248.862 199.257C248.854 198.978 248.956 198.713 249.147 198.51C250.524 197.054 252.462 196.219 254.464 196.219C258.498 196.219 261.78 199.502 261.78 203.537C261.78 207.572 258.498 210.855 254.464 210.855L213.264 210.855ZM224.879 217.566C224.304 217.566 223.836 218.035 223.836 218.611C223.836 219.186 224.304 219.655 224.879 219.655H266.08C268.963 219.655 271.308 222.001 271.308 224.885C271.308 227.769 268.963 230.115 266.08 230.115C264.627 230.115 263.278 229.533 262.279 228.478C262.075 228.261 261.798 228.151 261.521 228.151C261.264 228.151 261.004 228.246 260.803 228.437C260.601 228.627 260.485 228.887 260.477 229.165C260.47 229.445 260.571 229.709 260.763 229.912C262.139 231.368 264.078 232.203 266.08 232.203C270.114 232.203 273.396 228.92 273.396 224.885C273.396 220.849 270.114 217.566 266.08 217.566L224.879 217.566ZM244.345 221.801H210.044C209.468 221.801 209 222.27 209 222.845C209 223.421 209.468 223.889 210.044 223.889H244.344C247.227 223.889 249.573 226.236 249.573 229.12C249.573 232.003 247.227 234.349 244.344 234.349C242.893 234.349 241.543 233.768 240.545 232.712C240.353 232.509 240.094 232.393 239.816 232.385H239.786C239.518 232.385 239.264 232.486 239.069 232.67C238.651 233.065 238.632 233.728 239.028 234.146C240.404 235.602 242.342 236.438 244.345 236.438C248.379 236.438 251.661 233.155 251.661 229.12C251.661 225.084 248.379 221.801 244.345 221.801Z" fill="black"/>
<path d="M415.562 313.864C422.617 299.001 416.17 293.716 403.302 304.691C392.871 291.753 385.53 295.729 389.941 312.191C387.88 312.448 385.953 312.808 384.219 313.272C379.077 314.649 376.161 316.793 376.007 319.305C375.76 323.302 382.275 326.049 386.048 327.27C378.811 342.745 386.446 347.591 400.453 334.376C411.646 350.279 420.85 347.69 415.878 329.467C432.278 326.862 432.3 318.257 415.562 313.864ZM414.45 299.768C415.226 299.768 415.873 299.961 416.368 300.349C418.545 302.068 417.679 307.279 414.635 313.629C412.758 313.173 410.738 312.785 408.601 312.482C407.094 309.891 405.495 307.503 403.871 305.41C406.461 303.198 411.066 299.768 414.45 299.768ZM404.148 329.207C402.098 329.15 400.059 329.009 397.975 328.779C395.913 325.233 394.115 321.449 392.726 317.815C393.975 316.059 395.244 314.417 396.731 312.661C400.563 312.601 404.316 312.831 408.041 313.346C409.262 315.476 410.31 317.521 411.287 319.651C409.156 323.041 406.73 326.261 404.148 329.207ZM411.738 320.67C412.948 323.412 413.957 326.117 414.713 328.68C411.873 329.071 408.697 329.269 405.338 329.23C407.705 326.474 409.876 323.557 411.736 320.67H411.738ZM403.355 330.096C402.445 331.102 401.526 332.059 400.605 332.957C399.916 331.943 399.229 330.878 398.56 329.765C400.708 329.983 401.994 330.042 403.355 330.096ZM396.84 328.643C393.415 328.213 390.196 327.556 387.353 326.715C388.614 324.165 390.213 321.446 392.101 318.708C393.459 322.177 395.028 325.446 396.837 328.646L396.84 328.643ZM392.347 316.768C391.88 315.482 391.46 314.216 391.104 312.984C392.518 312.833 393.994 312.734 395.515 312.683C394.336 314.108 393.361 315.371 392.347 316.768ZM397.538 311.72C399.397 309.596 401.299 307.673 403.179 306.011C404.641 307.894 406.078 310.024 407.447 312.327C404.145 311.91 400.792 311.706 397.538 311.72ZM409.19 313.51C410.946 313.785 412.629 314.114 414.209 314.496C413.52 315.867 412.733 317.283 411.859 318.722C411.131 317.164 410.369 315.612 409.19 313.51ZM389.815 307.251C389.286 303.64 389.191 297.919 392.782 297.919C396.143 297.919 400.481 302.649 402.607 305.288C400.507 307.146 398.378 309.324 396.311 311.735C394.42 311.774 392.594 311.893 390.852 312.08C390.395 310.395 390.037 308.769 389.813 307.251H389.815ZM383.754 325.46C371.909 320.639 376.346 314.782 390.185 313.086C390.611 314.573 391.118 316.105 391.703 317.665C389.575 320.687 387.804 323.656 386.443 326.428C385.499 326.125 384.6 325.803 383.754 325.46ZM394.199 338.273C390.182 340.975 386.958 341.799 385.354 340.533C383.211 338.842 384.015 333.764 386.947 327.547C390.065 328.482 393.625 329.193 397.414 329.637C398.235 331.039 399.075 332.368 399.924 333.611C397.986 335.449 396.053 337.027 394.202 338.273H394.199ZM413.066 343.966C410.077 343.966 405.512 339.947 401.131 333.716C402.277 332.603 403.42 331.402 404.548 330.13C408.055 330.215 411.514 330.079 414.965 329.598C416.279 334.367 417.878 343.966 413.066 343.966ZM415.621 328.544C414.797 325.729 413.682 322.749 412.324 319.736C413.391 318.019 414.332 316.34 415.136 314.725C422.469 316.626 427.404 319.577 427.225 322.514C427.057 325.273 422.407 327.482 415.621 328.544Z" fill="black"/>
<path d="M388.966 307.751C390.247 307.751 391.285 306.701 391.285 305.406C391.285 304.11 390.247 303.061 388.966 303.061C387.685 303.061 386.646 304.11 386.646 305.406C386.646 306.701 387.685 307.751 388.966 307.751Z" fill="#FADF4F"/>
<path d="M409.17 344.715C410.561 344.715 411.688 343.576 411.688 342.169C411.688 340.763 410.561 339.623 409.17 339.623C407.78 339.623 406.652 340.763 406.652 342.169C406.652 343.576 407.78 344.715 409.17 344.715Z" fill="#FADF4F"/>
<path d="M416.43 312.284C417.971 312.284 419.22 311.021 419.22 309.464C419.22 307.906 417.971 306.643 416.43 306.643C414.89 306.643 413.641 307.906 413.641 309.464C413.641 311.021 414.89 312.284 416.43 312.284Z" fill="#87AB99"/>
<path d="M392.252 341.826C393.599 341.826 394.692 340.722 394.692 339.359C394.692 337.997 393.599 336.893 392.252 336.893C390.905 336.893 389.812 337.997 389.812 339.359C389.812 340.722 390.905 341.826 392.252 341.826Z" fill="#87AB99"/>
<path d="M1015.85 184.281C1022.24 170.813 1016.4 166.024 1004.74 175.969C995.287 164.246 988.635 167.849 992.632 182.764C990.764 182.998 989.018 183.324 987.447 183.744C982.788 184.992 980.146 186.934 980.006 189.211C979.783 192.832 985.686 195.321 989.105 196.427C982.547 210.45 989.465 214.841 1002.16 202.866C1012.3 217.276 1020.64 214.93 1016.13 198.419C1030.99 196.058 1031.01 188.261 1015.85 184.281ZM1014.84 171.508C1015.54 171.508 1016.13 171.683 1016.58 172.034C1018.55 173.592 1017.77 178.314 1015.01 184.068C1013.31 183.655 1011.48 183.303 1009.54 183.028C1008.17 180.68 1006.73 178.517 1005.25 176.62C1007.6 174.616 1011.77 171.508 1014.84 171.508ZM1005.5 198.183C1003.65 198.131 1001.8 198.003 999.911 197.795C998.043 194.582 996.414 191.153 995.155 187.861C996.287 186.27 997.437 184.781 998.784 183.19C1002.26 183.136 1005.66 183.344 1009.03 183.811C1010.14 185.741 1011.09 187.594 1011.97 189.524C1010.04 192.596 1007.84 195.514 1005.5 198.183ZM1012.38 190.448C1013.48 192.932 1014.39 195.383 1015.08 197.705C1012.5 198.059 1009.63 198.239 1006.58 198.203C1008.73 195.706 1010.69 193.063 1012.38 190.448H1012.38ZM1004.79 198.988C1003.96 199.899 1003.13 200.767 1002.29 201.58C1001.67 200.662 1001.05 199.697 1000.44 198.688C1002.39 198.886 1003.55 198.94 1004.79 198.988ZM998.883 197.672C995.779 197.282 992.863 196.686 990.287 195.924C991.429 193.615 992.879 191.151 994.589 188.669C995.82 191.813 997.241 194.775 998.881 197.674L998.883 197.672ZM994.812 186.911C994.389 185.746 994.008 184.599 993.686 183.483C994.967 183.347 996.305 183.257 997.683 183.211C996.614 184.502 995.731 185.646 994.812 186.911ZM999.515 182.338C1001.2 180.413 1002.92 178.671 1004.63 177.164C1005.95 178.871 1007.25 180.801 1008.49 182.887C1005.5 182.51 1002.46 182.325 999.515 182.338ZM1010.07 183.96C1011.66 184.209 1013.19 184.507 1014.62 184.853C1014 186.095 1013.28 187.378 1012.49 188.682C1011.83 187.271 1011.14 185.864 1010.07 183.96ZM992.518 178.288C992.038 175.016 991.952 169.832 995.206 169.832C998.251 169.832 1002.18 174.118 1004.11 176.51C1002.21 178.194 1000.28 180.167 998.404 182.351C996.691 182.387 995.036 182.495 993.457 182.664C993.044 181.137 992.719 179.664 992.516 178.288H992.518ZM987.026 194.787C976.293 190.419 980.313 185.112 992.853 183.575C993.239 184.922 993.698 186.311 994.229 187.725C992.3 190.463 990.696 193.153 989.462 195.665C988.607 195.39 987.793 195.098 987.026 194.787ZM996.49 206.397C992.851 208.846 989.929 209.592 988.475 208.445C986.534 206.913 987.262 202.312 989.919 196.679C992.744 197.526 995.97 198.17 999.404 198.573C1000.15 199.843 1000.91 201.047 1001.68 202.173C999.921 203.839 998.17 205.268 996.493 206.397H996.49ZM1013.59 211.556C1010.88 211.556 1006.74 207.914 1002.77 202.268C1003.81 201.26 1004.84 200.172 1005.87 199.019C1009.05 199.096 1012.18 198.973 1015.31 198.537C1016.5 202.858 1017.95 211.556 1013.59 211.556ZM1015.9 197.582C1015.15 195.031 1014.14 192.331 1012.91 189.601C1013.88 188.046 1014.73 186.524 1015.46 185.061C1022.11 186.783 1026.58 189.457 1026.41 192.118C1026.26 194.618 1022.05 196.62 1015.9 197.582Z" fill="black"/>
<path d="M991.744 178.742C992.905 178.742 993.845 177.791 993.845 176.617C993.845 175.444 992.905 174.492 991.744 174.492C990.583 174.492 989.643 175.444 989.643 176.617C989.643 177.791 990.583 178.742 991.744 178.742Z" fill="#FADF4F"/>
<path d="M1010.06 212.235C1011.32 212.235 1012.34 211.202 1012.34 209.928C1012.34 208.654 1011.32 207.621 1010.06 207.621C1008.8 207.621 1007.78 208.654 1007.78 209.928C1007.78 211.202 1008.8 212.235 1010.06 212.235Z" fill="#FADF4F"/>
<path d="M1016.64 182.852C1018.03 182.852 1019.16 181.708 1019.16 180.296C1019.16 178.885 1018.03 177.74 1016.64 177.74C1015.24 177.74 1014.11 178.885 1014.11 180.296C1014.11 181.708 1015.24 182.852 1016.64 182.852Z" fill="#87AB99"/>
<path d="M994.724 209.617C995.945 209.617 996.935 208.616 996.935 207.382C996.935 206.147 995.945 205.146 994.724 205.146C993.503 205.146 992.514 206.147 992.514 207.382C992.514 208.616 993.503 209.617 994.724 209.617Z" fill="#87AB99"/>
<path d="M633.347 64.3147C642.683 44.6472 634.152 37.6541 617.126 52.1762C603.324 35.057 593.61 40.3187 599.447 62.0999C596.719 62.4409 594.17 62.9169 591.875 63.5315C585.071 65.3528 581.213 68.1898 581.009 71.5139C580.683 76.8018 589.303 80.437 594.296 82.0523C584.719 102.529 594.822 108.941 613.356 91.4551C628.166 112.498 640.345 109.073 633.766 84.9604C655.466 81.5126 655.495 70.1273 633.347 64.3147ZM631.876 45.6628C632.903 45.6628 633.759 45.9176 634.415 46.4311C637.294 48.7059 636.149 55.6015 632.121 64.0037C629.638 63.4003 626.965 62.8869 624.138 62.4859C622.144 59.0568 620.027 55.8976 617.878 53.1281C621.306 50.2012 627.399 45.6628 631.876 45.6628ZM618.245 84.6156C615.532 84.5407 612.834 84.3533 610.076 84.0498C607.349 79.3577 604.969 74.3509 603.131 69.5427C604.784 67.2192 606.463 65.0455 608.431 62.722C613.501 62.6433 618.467 62.9469 623.396 63.6289C625.012 66.4471 626.398 69.1529 627.692 71.9712C624.871 76.4571 621.662 80.7181 618.245 84.6156ZM628.289 73.3203C629.89 76.948 631.224 80.527 632.224 83.9186C628.466 84.4358 624.264 84.6981 619.82 84.6456C622.952 80.9992 625.824 77.1391 628.285 73.3203H628.289ZM617.196 85.7924C615.991 87.1228 614.776 88.3895 613.557 89.5775C612.645 88.2358 611.737 86.8267 610.851 85.3539C613.694 85.6425 615.395 85.7212 617.196 85.7924ZM608.575 83.8699C604.043 83.3002 599.784 82.4308 596.023 81.3177C597.69 77.9449 599.807 74.3471 602.305 70.7232C604.102 75.314 606.178 79.6388 608.572 83.8736L608.575 83.8699ZM602.631 68.1561C602.012 66.4546 601.456 64.7795 600.985 63.1492C602.857 62.9506 604.81 62.8194 606.822 62.752C605.262 64.637 603.972 66.3085 602.631 68.1561ZM609.498 61.4778C611.959 58.6671 614.476 56.1224 616.962 53.9226C618.897 56.4148 620.798 59.233 622.611 62.2798C618.241 61.7289 613.805 61.4591 609.498 61.4778ZM624.916 63.8463C627.24 64.2098 629.467 64.6445 631.557 65.1505C630.646 66.9643 629.604 68.8381 628.448 70.7419C627.484 68.6807 626.476 66.627 624.916 63.8463ZM599.28 55.564C598.58 50.7858 598.454 43.2156 603.205 43.2156C607.653 43.2156 613.393 49.4741 616.206 52.9669C613.427 55.4254 610.61 58.3073 607.875 61.4965C605.373 61.549 602.957 61.7064 600.652 61.9537C600.048 59.7239 599.573 57.5728 599.277 55.564H599.28ZM591.26 79.6575C575.587 73.2791 581.457 65.529 599.77 63.2842C600.333 65.2517 601.004 67.2791 601.778 69.3441C598.962 73.3428 596.619 77.2703 594.818 80.9392C593.569 80.5382 592.38 80.111 591.26 79.6575ZM605.081 96.6118C599.766 100.187 595.5 101.278 593.376 99.6024C590.541 97.3651 591.605 90.6456 595.485 82.4195C599.61 83.6562 604.321 84.5969 609.335 85.1853C610.421 87.0404 611.533 88.798 612.656 90.4432C610.091 92.8754 607.534 94.9628 605.084 96.6118H605.081ZM630.045 104.145C626.091 104.145 620.05 98.8266 614.253 90.5819C615.769 89.1091 617.281 87.5201 618.775 85.8374C623.415 85.9498 627.992 85.7699 632.558 85.1328C634.296 91.4438 636.412 104.145 630.045 104.145ZM633.425 83.7387C632.336 80.0136 630.861 76.0711 629.063 72.0836C630.475 69.8125 631.72 67.5902 632.784 65.454C642.487 67.9687 649.017 71.8737 648.78 75.76C648.558 79.4102 642.405 82.3333 633.425 83.7387Z" fill="black"/>
<path d="M598.151 56.2256C599.846 56.2256 601.219 54.8363 601.219 53.1226C601.219 51.4088 599.846 50.0195 598.151 50.0195C596.456 50.0195 595.082 51.4088 595.082 53.1226C595.082 54.8363 596.456 56.2256 598.151 56.2256Z" fill="#FADF4F"/>
<path d="M624.896 105.139C626.736 105.139 628.228 103.63 628.228 101.77C628.228 99.9088 626.736 98.4004 624.896 98.4004C623.056 98.4004 621.564 99.9088 621.564 101.77C621.564 103.63 623.056 105.139 624.896 105.139Z" fill="#FADF4F"/>
<path d="M634.502 62.227C636.541 62.227 638.193 60.5558 638.193 58.4944C638.193 56.4329 636.541 54.7617 634.502 54.7617C632.463 54.7617 630.811 56.4329 630.811 58.4944C630.811 60.5558 632.463 62.227 634.502 62.227Z" fill="#87AB99"/>
<path d="M602.502 101.315C604.284 101.315 605.73 99.854 605.73 98.0513C605.73 96.2485 604.284 94.7871 602.502 94.7871C600.719 94.7871 599.273 96.2485 599.273 98.0513C599.273 99.854 600.719 101.315 602.502 101.315Z" fill="#87AB99"/>
<path d="M761.887 252.093C759.511 255.992 755.975 257.193 751.777 257.8C746.054 258.61 740.344 259.905 734.648 260.985C723.135 263.157 711.635 265.316 700.135 267.501C697.732 254.265 692.589 241.933 682.021 232.961C678.822 230.249 674.84 227.726 670.71 226.647L670.008 225.648C684.329 225.419 698.636 225.162 712.957 224.933C715.306 224.892 717.614 224.771 719.922 224.582C722.406 224.407 724.876 224.893 727.387 224.582C725.915 214.733 724.579 204.883 722.784 195.074C721.879 190.109 720.584 185.157 719.49 180.192L742.99 177.467C742.99 177.467 743.044 177.575 743.071 177.629C746.162 183.687 748.983 189.893 751.507 196.194C756.528 208.823 760.402 221.938 763.02 235.282C764.127 240.935 764.91 247.209 761.887 252.107V252.093Z" fill="#EC732E"/>
<path d="M627.598 271.236C629.191 273.583 630.351 275.634 631.215 278.967C632.43 283.703 633.469 288.492 634.293 293.309C635.804 302.039 636.641 310.863 636.871 319.727C636.938 322.318 636.898 322.669 634.968 324.382C633.253 325.907 631.526 327.418 629.852 329.01C626.626 332.032 623.508 335.176 620.579 338.495C616.246 343.379 612.102 348.574 608.58 354.065C605.745 358.464 601.358 360.812 601.318 366.748C601.318 367.801 601.426 368.934 600.805 369.77C599.577 371.457 596.364 370.863 595.487 372.739C594.609 374.655 597.282 376.679 596.85 378.756C596.526 380.389 594.582 381.01 593.138 381.887C588.063 384.976 589.494 393.166 593.395 396.593C595.487 398.415 598.146 399.494 600.265 401.275C603.302 403.839 604.976 407.603 606.676 411.192C608.364 414.781 610.321 418.478 613.682 420.623C619.567 424.388 622.779 421.365 623.845 416.022C625.276 408.831 628.097 401.248 631.553 394.745C634.968 388.336 640.124 383.033 643.404 376.611C646.927 369.689 649.748 362.215 652.582 354.983C658.278 340.532 662.948 325.515 664.379 309.986C665.202 301.162 664.527 292.473 664.028 283.703C663.974 282.853 663.934 282.003 663.893 281.139C663.434 271.978 661.221 262.857 657.644 254.424C655.848 250.201 653.689 246.113 652.42 241.701C651.475 238.422 651.043 234.887 651.718 231.501C651.786 231.177 652.353 228.856 652.865 227.075C653.203 225.901 653.513 224.97 653.635 224.97C651.232 224.673 648.884 224.228 646.495 224.201C646.265 224.201 646.022 224.201 645.793 224.201C645.685 224.201 645.59 224.201 645.482 224.201" fill="#EC732E"/>
<path d="M771.388 375.747C767.568 372.644 763.897 369.257 759.713 366.653C755.434 363.995 751.101 361.418 746.539 359.287C738.481 355.522 729.883 353.148 721.487 350.314C713.524 347.643 705.56 344.459 698.73 339.507C694.343 336.323 690.564 334.65 689.646 329.441C688.647 323.721 688.931 317.528 688.283 311.726C686.987 300.311 684.908 288.991 682.074 277.86C679.712 268.604 676.823 259.47 673.435 250.538C671.816 246.288 669.494 242.078 668.158 237.747C666.875 233.592 667.982 230.623 668.738 226.238C669.4 226.333 670.047 226.454 670.709 226.63C674.839 227.709 678.834 230.232 682.02 232.944C692.575 241.916 697.731 254.248 700.134 267.484C702.428 280.113 702.239 293.552 701.861 305.681C701.834 306.612 701.794 307.543 701.767 308.461C701.578 314.37 700.647 320.253 699.013 325.947C713.051 330.103 726.441 336.39 738.643 344.445C742.409 346.941 746.066 349.599 749.589 352.419C751.196 353.701 752.896 354.996 754.368 356.44C755.636 357.722 756.554 359.098 758.376 359.664C759.956 360.15 761.818 360.487 762.642 361.918C763.168 362.849 763.101 364.036 763.627 364.967C764.018 365.655 764.693 366.141 765.314 366.626C768.23 368.947 770.362 372.199 771.375 375.761L771.388 375.747Z" fill="#EC732E"/>
<path d="M635.763 268.918C634.305 268.742 589.709 283.422 588.467 284.569C585.781 287.051 563.348 307.047 560.784 309.638C558.867 311.567 557.018 313.537 555.209 315.561C554.116 316.762 553.036 318.003 551.97 319.244C549.58 322.024 547.259 324.871 544.978 327.758C543.237 327.906 541.63 327.893 540.119 327.731C532.87 326.908 528.214 322.415 524.002 315.426C524.002 315.426 523.975 315.439 523.962 315.426C523.786 315.385 523.435 314.657 523.462 314.616C523.476 314.589 523.503 314.576 523.516 314.549C524.34 313.483 525.19 312.431 526.054 311.405C526.054 311.405 526.067 311.378 526.081 311.378C529.347 307.411 532.789 303.688 536.272 299.991C537.77 298.399 539.268 296.82 540.766 295.228C546.651 288.967 566.534 262.266 572.864 256.343C576.171 253.24 580.733 250.946 584.647 248.693C589.237 246.048 593.839 243.444 598.469 240.881C609.996 234.512 623.008 226.255 636.33 224.717C639.273 224.379 642.229 224.258 645.185 224.217C648.087 224.177 650.948 224.029 653.796 224.717" fill="#EC732E"/>
<path d="M642.296 224.689C636.911 232.34 634.441 241.11 634.576 250.46C637.356 248.031 640.137 245.616 642.917 243.188C642.053 248.76 641.257 255.115 640.393 260.687C642.485 259.055 644.564 257.422 646.656 255.776C646.481 258.258 647.601 260.674 649.126 262.63C650.651 264.6 652.554 266.219 654.282 268.013C659.371 273.302 662.813 280.17 663.987 287.416" fill="#EC732E"/>
<path d="M620.501 188C620.501 180.4 625.834 178.5 628.501 178.5L637.001 187.5C633.401 179.1 632.834 167.667 633.001 163C651.001 167.4 666.168 157.833 671.501 152.5L675.501 157L670.001 159.5C667.601 163.5 670.334 170.167 672.001 173L682.001 171.5L683.001 172C685.001 180.5 685.501 191.5 683.001 199.5C681.001 205.9 674.834 209.833 672.001 211L667.001 235C659.801 243.8 654.001 236.667 652.001 232L656.001 212C646.801 209.6 639.501 201 637.001 197C635.401 199.4 632.001 200 630.501 200C627.168 199.167 620.501 195.6 620.501 188Z" fill="#FFD7B1"/>
<path d="M667.501 234.5C659.901 243.7 654.001 236.667 652.001 232C650.65 229.5 651.501 244.5 656.501 252.5C660.501 258.9 663.168 273.834 664.001 280.5C666.801 302.1 663.501 319.834 661.501 326C665.501 328 674.601 332.2 679.001 333C683.401 333.8 688.168 332 690.001 331L688.501 317L687.001 300.5L683.001 281.5L678.001 263C675.501 256.334 670.301 242.7 669.501 241.5C668.701 240.3 667.835 236.334 667.501 234.5Z" fill="#FFEBF1"/>
<path d="M510.501 325.5L524.501 315L545.501 327.5C544.334 330.167 541.801 336.8 541.001 342C540.201 347.2 540.668 350.5 541.001 351.5C541.401 357.1 538.834 362.5 537.501 364.5C536.001 366.667 532.301 370.7 529.501 369.5C526.701 368.3 527.334 364 528.001 362L520.001 373.5L512.501 384C511.001 385 507.201 386.4 504.001 384C500.801 381.6 502.668 376.667 504.001 374.5L511.501 364.5C509.901 366.1 506.501 366.5 505.001 366.5C499.801 364.1 501.834 358.5 503.501 356C495.901 357.6 495.668 352.667 496.501 350L499.501 347C491.101 346.2 493.667 340.333 496.001 337.5L510.501 325.5Z" fill="#FFD7B1"/>
<path d="M637.501 385.5C633.901 389.9 630.001 397.667 628.501 401H668.001L669.001 388.5L718.001 400L791.501 403C776.301 373.4 748.834 359 737.001 355.5C730.834 353.667 716.001 348.8 706.001 344C696.001 339.2 691.168 333.334 690.001 331C684.001 333.8 678.501 333.167 676.501 332.5L662.001 326L657.501 341C657.901 343.4 650.001 362 646.001 371C644.668 374 641.101 381.1 637.501 385.5Z" fill="#FF4785"/>
<path d="M672.001 173C667.201 165 669.002 160.333 670.502 159L695.501 151.5C695.501 147.1 701.501 140.666 704.501 138L759.001 115.5C761.801 99.4996 775.168 86.833 781.501 82.4996L818.501 64.4996H820.001C839.601 29.6996 868.501 17.6665 880.501 16C887.168 12.6667 904.301 7.1 919.501 11.5C934.701 15.9 947.168 28.3333 951.501 34C956.334 39.6667 967.301 56.8 972.501 80C977.701 103.2 976.001 123.333 974.501 130.5C974.501 136.5 968.834 154.333 966.001 162.5C964.168 167 958.401 178.6 950.001 189C941.601 199.4 928.168 206 922.501 208C913.301 211.6 903.334 210.5 899.501 209.5C880.301 210.3 862.501 201.5 856.001 197L811.501 193.5C797.501 193.1 782.334 180 776.501 173.5C760.334 175.333 725.801 179.3 717.001 180.5C708.201 181.7 702.001 175.667 700.001 172.5L697.501 169.5L672.001 173Z" fill="#9FBCAD"/>
<path d="M938.801 20.7911C921.227 7.33915 900.562 5.43672 882.381 14.8814C856.384 20.6966 833.924 38.0613 820.683 62.5365C811.342 67.0969 803.986 70.6724 787.06 78.7273C773.117 85.3926 762.049 98.3318 758.566 114.9L706.965 136.367C703.712 137.716 700.945 139.915 698.96 142.722C697.192 145.231 695.869 147.822 695.006 150.412L678.484 155.742C677.472 153.785 676.352 151.896 675.164 150.237C680.361 143.072 676.041 135.179 669.819 131.145C661.18 125.546 648.763 128.285 643.121 136.812C640.893 140.185 639.463 144.489 636.696 147.174C635.413 142.128 630.811 138.499 626.532 135.382C617.286 128.649 606.96 121.35 595.069 123.077C587.281 124.21 580.478 129.513 576.415 136.245C569.626 147.511 575.389 160.923 571.421 173.376C568.708 181.89 561.972 189.729 553.131 191.024C547.84 191.807 542.401 190.215 537.137 191.146C527.135 192.927 520.561 205.164 524.611 214.474C526.095 217.888 528.701 221.774 526.676 224.89C525.272 227.049 522.235 227.467 519.725 226.941C517.214 226.415 514.879 225.174 512.328 224.782C498.425 222.583 494.052 238.383 493.269 252.496C492.878 259.471 490.3 266.136 483.186 268.754C478.152 270.602 472.132 269.483 468.109 265.934C474.912 271.533 482.376 277.389 491.177 277.861C498.56 278.253 504.378 274.191 510.479 270.683C507.32 278.212 500.76 284.243 492.986 286.78C504.216 297.682 504.04 297.668 505.201 298.194C507.901 299.409 510.911 297.412 513.043 295.347C519.32 289.249 524.017 281.531 526.527 273.152C526.527 278.469 527.837 283.272 525.502 288.331C527.432 288.75 529.389 289.168 531.36 289.006C533.33 288.844 535.328 288.008 536.448 286.389C541.253 279.359 536.381 269.105 545.06 255.774C548.137 251.038 554.306 251.281 559.057 248.448C567.155 243.618 571.839 233.66 570.395 224.351C577.616 227.305 587.78 224.31 593.125 218.643C598.484 212.977 599.887 203.937 596.526 196.894C600.765 196.934 604.045 194.303 606.083 190.579C612.548 178.787 603.262 162.448 611.576 150.682C616.058 144.327 624.116 142.384 630.797 149.765C628.449 150.048 623.9 150.048 622.361 153.219C621.187 155.634 623.238 157.159 625.142 158.44C623.657 159.034 622.334 159.776 621.281 161.085C618.352 164.687 620.255 168.276 622.267 171.218C623.859 173.552 625.6 175.778 627.423 177.95C619.284 179.151 617.569 190.039 623.63 196.826C627.193 200.833 632.97 201.994 636.993 198.013C638.383 200.644 642.932 205.07 642.986 205.124C646.846 208.848 650.922 211.088 655.417 212.396L653.217 223.919C649.343 223.15 640.124 223.595 636.237 224.04C621.457 225.74 606.974 235.387 582.151 249.311C578.723 251.241 575.173 253.238 572.406 255.828C565.468 262.318 548.205 286.375 537.002 298.221C533.006 302.512 528.107 307.558 522.937 314.196C522.816 314.358 522.748 314.669 522.937 315.073C515.405 321.32 495.645 334.813 493.661 340.034C491.933 344.487 494.592 347.549 498.466 346.834C497.075 348.157 495.82 349.357 495.577 351.3C495.145 354.849 498.236 357.952 502.623 356.481C498.155 363.241 503.595 369.569 509.129 366.196C506.632 369.556 502.016 375.344 501.53 379.243C501.098 382.927 503.581 385.868 507.644 385.868C513.975 385.868 515.162 380.781 526.716 364.442C525.92 369.002 529.591 372.389 534.424 368.652C539.526 364.712 542.212 357.844 541.294 351.165C540.201 343.286 543.764 333.868 546.612 326.69C562.013 307.369 566.184 306.02 588.86 285.039C590.115 284.162 614.127 276.094 627.315 271.965C628.786 274.164 629.798 276.121 630.581 279.089C633.996 292.379 635.859 305.791 636.21 319.701C636.277 322.143 636.277 322.292 634.522 323.843C611.711 344.676 611.063 350.558 605.165 357.25C602.857 359.868 600.67 362.351 600.643 366.709C600.67 369.272 600.63 369.744 597.984 370.473C596.796 370.797 595.474 371.175 594.893 372.429C593.827 374.764 596.58 376.774 596.203 378.582C595.946 379.864 594.205 380.43 592.788 381.28C587.416 384.546 588.603 393.221 592.963 397.026C594.718 398.551 596.648 399.428 598.848 400.979C580.073 446.395 556.924 491.662 529.888 534.837C529.389 534.783 528.943 534.662 528.687 535.121C526.649 538.912 523.409 543.972 521.533 549.261C519.833 554.064 518.712 558.435 518.307 561.903C518.267 562.267 518.523 562.591 518.888 562.632C519.117 562.659 532.264 570.808 552.996 576.583L551.012 588.146C550.621 588.078 550.337 588.348 550.27 588.658C548.164 599.412 555.466 562.24 540.713 637.285C538.108 636.934 535.544 638.486 534.774 641.117L534.532 641.967C533.749 644.638 535.152 647.458 537.771 648.484L603.329 674.173C604.126 674.483 604.99 674.605 605.853 674.524L649.64 670.476C654.526 670.031 656.416 663.811 652.393 660.802C653.689 653.907 652.137 650.035 647.872 644.233C643.201 637.878 631.634 632.657 624.224 633.44C622.618 630.97 617.38 623.28 616.935 622.942C613.655 618.584 611.954 616.466 606.825 606.954L599.644 583.396C608.553 583.545 618.703 582.857 628.759 581.237C631.553 581.494 633.173 581.561 632.808 581.534C634.63 581.656 635.589 579.362 634.185 578.148C622.712 568.15 634.064 560.324 634.185 559.623L634.239 559.569C641.865 550.92 632.646 546.441 631.877 540.113C631 532.908 640.758 528.442 641.717 520.63C641.879 519.281 641.757 517.931 641.636 516.636C641.258 512.561 641.298 510.74 645.334 504.817C651.287 496.074 647.318 498.907 655.43 471.652C663.084 445.963 667.673 415.686 669.724 389.74C669.913 389.659 670.048 389.484 670.089 389.268C689.823 394.584 708.706 397.984 728.79 402.383C731.557 402.99 733.474 405.553 733.272 408.346C731.368 435.196 731.895 446.111 726.806 469.035C725.888 473.204 721.232 493.672 721.232 493.955C721.232 495.588 751.048 503.346 751.183 503.373L753.586 531.167L749.388 555.562C748.996 555.508 748.713 555.764 748.659 556.074C746.553 566.828 753.856 529.656 739.103 604.687C736.498 604.323 733.933 605.888 733.164 608.519L732.921 609.369C732.138 612.027 733.542 614.861 736.16 615.886L801.718 641.575C802.528 641.886 803.379 642.007 804.243 641.926L848.029 637.879C852.942 637.433 854.778 631.173 850.783 628.204C852.078 621.296 850.526 617.424 846.274 611.636C841.537 605.213 829.929 600.073 822.613 600.842C819.765 596.443 815.621 590.574 815.324 590.345C812.031 585.973 810.343 583.869 805.214 574.356L796.535 545.874L793.957 508.271C797.683 508.068 832.993 506.247 832.264 502.563C827.04 476.078 824.422 477.67 824.57 471.437C824.719 463.786 822.694 461.87 818.037 459.307C813.057 456.568 812.22 455.03 813.394 448.473C814.528 442.172 814.136 440.215 809.264 434.67C806.362 431.364 805.43 430.163 803.595 424.038C801.826 418.169 800.585 415.821 796.333 408.616C789.813 397.593 783.726 387.339 772.051 375.803C772.051 375.722 772.091 375.627 772.051 375.546C771.011 371.849 768.784 368.49 765.774 366.088C764.478 364.941 764.208 365.09 763.817 363.268C763.182 360.3 761.765 359.909 758.62 359.005C757.338 358.613 756.569 357.763 755.664 356.778C754.153 355.119 752.857 354.093 750.873 352.515C749.104 351.354 730.478 334.678 699.865 325.462C702.74 315.114 702.429 307.248 702.564 305.669C702.942 293.432 703.118 280.452 700.931 267.971C701.066 267.944 749.32 258.756 751.925 258.392C764.343 256.624 766.139 247.53 763.709 235.091C759.984 216.053 753.599 196.799 744.043 177.937L776.356 174.199C787.195 185.735 798.654 193.089 814.46 194.33C818.685 194.667 799.154 193.129 855.763 197.582C869.477 205.866 885.08 210.345 900.913 210.561C901.588 210.534 912.17 212.734 925.6 207.431C956.132 195.423 977.067 155 976.527 109.153C976.082 72.0621 961.653 38.1827 938.855 20.7641L938.801 20.7911ZM700.027 143.491C701.862 140.887 704.441 138.849 707.464 137.581L758.256 116.452C757.783 118.989 757.702 120.014 757.554 121.228C755.124 127.246 753.748 133.452 753.356 139.834C752.843 148.658 755.016 156.538 759.714 164.026C762.022 167.71 764.924 171.177 768.798 173.16C769.243 173.39 769.756 173.538 770.282 173.633C764.276 174.334 722.082 179.219 716.912 179.812C711.405 180.433 705.966 178.49 702.375 174.591C696.274 167.979 693.291 159.79 696.126 151.154C696.949 148.577 698.259 146 700.027 143.491ZM726.644 223.986C726.509 223.986 669.886 224.944 669.63 225.12L672.168 211.735C685.22 206.122 686.813 191.766 684.329 177.64C684.423 175.818 684.329 173.903 684.073 172.014L697.462 170.3C701.633 176.992 707.019 181.229 714.888 181.229C716.534 181.229 717.533 181.027 718.991 180.878C722.797 197.757 721.92 192.158 726.644 223.973V223.986ZM677.499 230.422C680.563 236.48 683.492 241.203 686.543 247.072L679.146 244.684C678.552 244.495 678.039 245.183 678.43 245.695L687.433 257.569L683.33 256.233C682.993 256.112 682.601 256.314 682.507 256.678C681.292 261.036 680.482 266.244 680.806 270.751C674.827 249.838 670.507 243.199 668.766 237.56C667.457 233.336 668.82 230.287 669.279 226.995C672.195 227.508 675.029 228.857 677.499 230.422ZM646.238 255.262L641.258 259.161C642.027 254.02 642.77 248.286 643.539 243.28C643.633 242.687 642.932 242.295 642.473 242.687L635.211 249.015C635.413 234.092 642.513 225.794 642.878 224.917C648.884 224.728 648.331 224.985 652.623 225.484C651.908 227.71 651.084 231.11 651.044 231.367C648.263 245.169 661.99 254.56 663.232 281.666C657.995 265.853 646.711 263.991 647.305 255.815C647.345 255.248 646.697 254.911 646.252 255.262H646.238ZM657.253 212.923C660.519 217.442 667.362 221.774 668.888 222.057C666.741 233.04 667.916 227.197 666.445 234.902C661.342 240.069 656.956 239.516 652.879 232.621C653.527 229.248 655.808 217.24 656.659 212.788C656.861 212.842 657.064 212.869 657.253 212.923ZM664.973 310.027C665.905 299.975 664.879 289.708 664.487 281.1C663.232 255.734 651.165 246.235 652.029 233.714C656.227 240.501 661.315 241.742 667.092 236.089C668.172 242.727 673.949 248.758 681.427 278.037C684.248 289.114 686.327 300.488 687.622 311.822C688.257 317.542 688.027 325.732 689.188 330.387C686.57 331.885 683.479 332.654 680.442 332.505C678.066 332.411 677.108 332.033 662.49 325.611C663.691 320.214 664.501 315.06 664.96 310.041L664.973 310.027ZM694.02 152.112C692.279 155.31 690.308 162.866 690.646 169.855L672.181 172.216C669.67 167.602 669.077 163.513 670.372 159.736L694.02 152.112ZM643.876 204.22C642.689 203.073 638.18 198.135 637.843 197.002C638.045 196.327 637.168 195.855 636.723 196.408C633.281 200.631 627.936 199.74 624.602 195.99C621.335 192.333 619.742 186.073 623.225 181.674C624.332 180.271 626.599 179.178 628.462 179.205C628.57 179.34 635.521 187.26 636.439 188.137C637.249 188.893 638.545 188.029 638.153 186.99C634.819 178.153 633.47 174.064 633.983 163.945C643.795 167.345 661.531 163.608 671.844 153.988C672.815 154.892 673.733 155.904 674.624 157.01C669.643 158.71 669.455 158.481 669.266 159.007C667.659 163.352 668.321 168.006 671.277 173.255C671.398 173.457 671.614 173.592 671.844 173.592C671.979 173.592 672.087 173.565 681.845 172.324C685.314 185.452 685.935 202.331 674.246 209.28C664.366 215.095 652.029 212.073 643.903 204.247L643.876 204.22ZM540.012 351.368C541.483 361.986 533.033 370.136 529.659 368.84C528.485 368.395 527.931 366.979 527.904 365.859C527.864 364.482 528.39 363.133 528.889 361.824C528.943 361.676 528.93 361.541 528.889 361.406C530.037 359.774 530.874 358.519 531.454 357.399C531.846 356.63 530.698 356.036 530.307 356.792C528.687 359.895 525.083 364.037 516.998 376.518C513.556 381.874 511.545 383.547 510.479 384.019C510.168 384.154 509.817 384.262 509.466 384.357C514.11 380.363 509.142 373.968 504.918 377.934C504.189 378.622 503.676 379.459 503.163 380.322C502.731 381.065 503.851 381.712 504.283 380.984C505.093 379.594 506.159 377.934 507.847 378.002C508.913 378.056 509.885 379.041 510.02 380.215C510.155 381.334 509.601 382.562 508.589 383.412C508.225 383.723 508.306 384.316 508.751 384.505C504.958 385.058 502.448 382.738 502.839 379.432C503.446 374.467 513.894 362.364 519.077 355.753C519.603 355.078 518.577 354.282 518.051 354.957C516.553 356.873 512.76 361.528 512.652 361.663C511.936 362.553 510.141 363.983 508.764 364.928C504.31 368.017 500.031 362.971 503.581 357.399C505.619 354.174 507.185 353.945 507.347 353.257C508.67 352.069 509.763 351.084 510.708 350.059C511.289 349.425 510.33 348.548 509.75 349.182C508.252 350.801 506.051 352.582 505.039 353.621C504.391 354.134 503.635 354.7 502.785 355.051C501.233 355.685 499.923 355.766 498.911 355.267C497.413 354.512 496.657 353.135 496.859 351.476C497.035 350.005 498.047 349.047 499.208 347.927C500.544 346.646 501.246 345.836 501.665 345.391C502.623 344.581 504.013 342.827 504.864 341.68C505.417 341.033 504.445 340.183 503.878 340.83C500.801 344.446 500.76 344.541 500.139 344.878C496.279 346.969 493.229 344.73 494.862 340.52C496.697 335.69 515.878 322.629 523.679 316.153C528.876 324.639 534.653 329.119 544.533 328.417C541.834 335.393 538.972 343.947 539.998 351.368H540.012ZM554.576 315.276C547.233 311.997 541.186 307.14 536.651 300.529C537.73 299.382 539.215 297.817 541.105 295.806C545.249 302.498 551.498 307.774 558.787 310.769C556.546 313.103 555.642 314.129 554.589 315.289L554.576 315.276ZM593.8 396.068C590.034 392.776 588.914 385.153 593.449 382.414C594.961 381.496 597.08 380.808 597.458 378.852C597.93 376.545 595.379 374.467 596.041 372.983C596.378 372.268 597.269 372.025 598.308 371.728C601.386 370.891 601.953 369.879 601.926 367.1V366.709C601.953 362.85 603.883 360.664 606.123 358.114C612.197 351.179 613.318 344.784 635.373 324.828C637.451 322.993 637.573 322.481 637.505 319.674C637.222 308.084 635.872 296.94 633.524 285.984C633.47 280.627 633.713 275.284 634.05 269.928C634.914 269.685 635.494 269.55 635.71 269.537C636.048 269.564 636.345 269.307 636.385 268.97C636.426 268.619 636.169 268.295 635.818 268.255C633.996 268.052 589.346 282.84 587.996 284.081C584.068 287.697 563.471 305.952 559.732 309.757C552.402 306.87 546.126 301.581 542.023 294.848C542.023 294.835 541.996 294.821 541.982 294.808C548.664 287.293 567.277 262.413 573.283 256.8C575.942 254.317 579.411 252.361 582.772 250.472C613.291 233.283 623.9 225.781 641.312 224.971C636.277 232.419 633.767 240.973 633.915 250.458C633.915 251.012 634.576 251.295 634.995 250.944L642 244.832C641.244 249.919 640.502 255.599 639.733 260.578C639.638 261.158 640.313 261.549 640.772 261.185L646.009 257.083C646.9 266.231 660.276 268.687 663.327 287.508C663.354 287.67 663.448 287.805 663.556 287.913C663.974 295.132 664.352 302.552 663.664 309.906C662.449 323.236 658.697 337.471 651.907 354.727C649.113 361.865 646.292 369.353 642.77 376.302C639.571 382.549 634.28 388.108 630.919 394.422C627.301 401.195 624.548 408.818 623.144 415.875C622.078 421.204 619.176 423.174 614.384 420.3C607.419 416.496 606.69 404.933 599.968 400.264C597.566 398.456 595.568 397.66 593.773 396.082L593.8 396.068ZM559.813 569.094C570.935 580.158 582.759 583.437 597.026 579.389L605.394 606.887C587.443 616.857 564.685 600.41 552.133 589.063L555.709 568.325L559.813 569.108V569.094ZM596.284 578.242C583.137 581.872 572.514 579.187 562.175 569.553C574.282 571.887 586.16 574.316 596.688 576.299C596.405 577.743 596.405 577.716 596.297 578.242H596.284ZM594.353 611.245C598.308 611.096 602.209 610.138 605.921 608.101C607.473 610.961 608.715 613.147 609.781 614.928C605.948 615.441 602.857 617.64 601.143 621.121L594.353 611.245ZM551.296 590.062C561.203 599.02 577.36 611.042 592.801 611.272C608.013 633.426 600.522 622.511 602.681 625.654L616.314 644.085C616.368 644.301 616.476 644.355 616.854 644.841C614.681 650.629 614.195 657.038 615.707 663.069C611.779 663.15 608.688 663.028 607.244 662.583L557.923 643.491C566.238 632.239 562.134 615.711 547.624 608.829L551.309 590.048L551.296 590.062ZM646.778 645.003C651.678 651.668 652.002 654.946 651.111 660.37C644.025 661.085 627.882 662.718 617.043 663.042C614.438 653.071 617.515 641.913 624.966 634.694C631.917 634.289 642.554 639.255 646.778 645.003ZM623.333 634.505C620.836 637.109 618.852 640.145 617.434 643.424L608.053 630.728C608.053 630.728 608.161 630.633 608.202 630.552C609.565 627.26 612.697 624.818 616.22 624.184C620.12 629.378 622.375 633.048 623.346 634.505H623.333ZM615.342 623.05C611.819 623.887 608.742 626.343 607.217 629.608L603.734 624.899L601.926 622.254C602.007 622.187 602.088 622.119 602.141 622.011C603.694 618.571 606.758 616.439 610.524 616.142C612.359 619.097 613.507 620.595 615.342 623.05ZM628.057 571.712C628.88 574.356 630.581 576.785 633.281 579.146C633.753 579.551 633.456 580.239 632.835 580.253C605.313 578.607 554.927 565.033 519.657 561.444C520.116 558.179 521.169 554.145 522.735 549.733C524.516 544.727 527.513 539.991 529.605 536.159C573.04 540.855 614.114 550.097 632.579 559.312C629.299 562.537 626.694 567.354 628.057 571.725V571.712ZM791.298 489.665L795.132 545.523C779.447 550.003 766.975 545.496 754.827 530.951L751.008 486.777C764.168 485.59 778.489 487.007 791.312 489.651L791.298 489.665ZM814.663 611.514C814.717 611.73 814.838 611.798 815.203 612.27C813.03 618.058 812.544 624.467 814.055 630.498C810.141 630.579 807.05 630.458 805.606 630.012L756.272 610.921C760.591 605.078 761.657 596.956 759.106 590.102C756.825 584.003 751.912 579.065 745.973 576.245C747.255 569.742 748.376 563.994 749.658 557.464C759.565 566.423 775.722 578.445 791.163 578.674C806.375 600.828 798.884 589.913 801.044 593.057L814.676 611.487L814.663 611.514ZM792.715 578.674C796.67 578.526 800.571 577.568 804.283 575.53C805.835 578.391 807.077 580.576 808.143 582.357C804.31 582.87 801.219 585.069 799.505 588.55L792.715 578.674ZM750.508 556.492L754.598 532.719C766.867 546.953 779.515 551.325 795.388 546.832L803.757 574.329C785.805 584.3 763.048 567.853 750.495 556.506L750.508 556.492ZM845.168 612.432C850.054 619.084 850.391 622.362 849.487 627.8C842.4 628.515 826.257 630.147 815.419 630.471C812.814 620.5 815.891 609.342 823.342 602.124C830.28 601.746 840.943 606.671 845.181 612.432H845.168ZM821.709 601.935C819.211 604.539 817.227 607.575 815.81 610.853L806.429 598.157C806.429 598.157 806.537 598.062 806.578 597.982C807.941 594.689 811.072 592.247 814.595 591.613C818.496 596.808 820.737 600.478 821.722 601.921L821.709 601.935ZM813.718 590.48C810.195 591.316 807.131 593.772 805.592 597.037L802.11 592.328L800.301 589.684C800.382 589.616 800.463 589.535 800.517 589.441C802.069 586 805.133 583.882 808.899 583.572C810.883 586.783 812.166 588.402 813.718 590.48ZM830.685 501.578C799.329 486.467 753.937 478.007 722.77 492.822C724.485 485.077 726.226 477.535 727.967 469.71C759.849 457.404 794.862 460.278 824.152 477.13C825.447 480.935 827.499 485.617 830.685 501.578ZM802.312 424.456C804.202 430.744 805.187 432.093 808.251 435.574C812.8 440.755 813.151 442.306 812.071 448.284C811.558 451.171 811.018 454.139 812.625 456.716C813.745 458.497 815.581 459.509 817.362 460.481C825.771 465.109 822.1 469.102 823.612 475.336C794.362 458.956 759.835 456.285 728.291 468.198C733.15 445.868 732.61 435.695 734.54 408.468C734.797 405.027 732.435 401.883 729.047 401.141C709.03 396.756 689.944 393.329 670.089 387.959C670.399 373.333 669.508 401.479 670.858 367.1C670.899 366.223 669.603 366.223 669.562 367.046C666.485 445.045 652.663 470.56 648.709 492.768C647.629 498.826 646.954 500.135 644.227 504.129C640.043 510.268 639.908 512.359 640.313 516.784C640.704 521.075 640.704 522.95 635.481 529.319C632.808 532.584 630.028 535.944 630.554 540.302C631.391 547.156 639.962 550.853 633.551 558.368C615.369 549.139 574.606 539.856 531.319 535.067C556.938 494.077 580.302 449.269 599.928 401.843C605.691 406.768 606.285 416.307 612.967 420.921C601.818 463.719 595.906 490.96 570.908 535.175C570.476 535.917 571.623 536.551 572.042 535.809C596.162 493.132 602.857 465.648 614.114 421.636C619.648 424.726 623.292 422.122 624.48 416.158C625.857 409.223 628.57 401.735 632.12 395.056C635.467 388.782 640.65 383.412 643.984 376.909C648.493 368.058 658.251 344.082 662.233 326.906C677.553 333.625 678.134 333.828 681.184 333.828C684.234 333.828 687.069 333.059 689.62 331.669C691.159 335.663 694.722 337.43 698.367 340.075C725.241 359.531 760.227 348.332 793.296 406.106C798.101 414.512 800.018 416.792 802.326 424.47L802.312 424.456ZM701.228 305.696C701.093 307.342 701.417 315.33 698.407 325.786C698.313 326.124 698.502 326.488 698.852 326.582C712.755 330.698 726.037 336.891 738.306 344.999C742.045 347.469 751.642 354.39 754.692 357.709C755.637 358.735 756.609 359.801 758.229 360.3C760.78 361.15 761.981 361.015 762.535 363.592C762.656 364.159 762.778 364.752 763.102 365.305C764.127 367.127 767.542 368.098 770.012 373.779C766.935 371.215 763.655 368.355 760.078 366.142C756.218 363.74 751.642 360.988 746.837 358.735C731.166 351.408 713.241 349.236 699.136 339.022C690.74 332.937 690.079 334.111 689.445 319.229C688.918 307.005 686.219 292.069 683.357 280.33C683.371 280.263 683.384 280.196 683.371 280.128C682.574 272.896 680.739 268.592 683.614 257.731L689.04 259.485C689.634 259.687 690.146 258.985 689.755 258.473L680.752 246.6L687.676 248.839C688.23 249.015 688.716 248.434 688.459 247.935C685.557 242.201 682.736 237.587 679.807 232.055C701.498 248.34 702.078 278.657 701.242 305.737L701.228 305.696ZM762.386 235.414C764.654 247.018 763.263 255.531 751.696 257.178C747.12 257.825 751.17 257.204 706.546 265.651C704.805 253.251 696.747 242.161 685.962 235.765C682.196 231.812 677.013 227.913 671.776 226.28C680.86 226.051 727.373 225.241 727.495 225.228C727.859 225.187 728.102 224.85 728.048 224.486C723.324 192.805 724.242 198.202 720.3 180.757C722.662 180.487 713.214 181.58 742.639 178.166C752.182 196.921 758.661 216.309 762.4 235.401L762.386 235.414ZM786.399 181.877C765.059 164.404 753.91 141.71 760.011 114.374C763.29 99.5056 773.616 86.6204 787.627 79.9282C796.967 75.4757 809.466 69.4985 818.159 65.2484C813.974 68.4057 790.353 128.271 811.315 165.497C817.74 176.884 831.4 190.12 835.652 192.59C837.177 193.494 838.729 194.586 840.43 195.153L814.514 193.116C804.108 192.293 794.376 188.42 786.399 181.89V181.877ZM856.263 196.462C856.222 196.435 856.263 196.462 856.182 196.408C811.464 169.248 796.94 108.734 821.722 63.373C822.289 62.6849 838.108 28.5087 878.223 17.2965C852.672 33.258 836.097 70.0787 836.583 110.866C837.163 159.02 860.663 199.174 892.517 208.807C879.789 207.404 867.412 203.208 856.263 196.462ZM925.087 206.284C903.653 214.744 876.428 208.416 856.695 177.937C822.748 125.492 836.677 40.0717 882.921 16.0957C901.493 6.40818 921.659 9.32253 938.018 21.8435C960.505 39.0327 974.745 72.5208 975.191 109.22C975.731 154.541 955.133 194.451 925.087 206.284Z" fill="black"/>
<path d="M902.802 27.2539C875.077 30.4651 853.764 67.7985 854.291 112.256C854.804 155.256 876.886 196.475 908.309 196.205C922.522 196.044 935.763 187.044 945.576 170.88C955.335 154.811 960.558 133.547 960.288 111.001C959.735 64.4119 934.67 23.6109 902.802 27.2674V27.2539ZM900.655 43.3773C899.967 42.8781 900.75 41.8122 901.438 42.3384C933.306 65.8556 941.189 110.421 919.242 143.437C918.783 144.138 917.676 143.437 918.162 142.722C939.691 110.34 932.024 66.5167 900.669 43.3773H900.655ZM944.455 170.192C936.181 183.819 923.588 195.032 907.634 194.883C930.877 189.473 948.491 153.934 947.978 111.123C947.479 68.3247 929.028 33.231 905.663 28.3468C906 28.3468 906.027 28.3198 906.675 28.3198C935.021 28.3198 958.439 65.2889 958.979 111.001C959.249 133.304 954.093 154.325 944.455 170.192Z" fill="black"/>
<path d="M439.097 41.1799L443.565 31.9004L448.405 41.1799L459.575 43.0358L451.756 50.8306L453.618 61.5949L443.565 56.7695L433.884 61.5949L435.745 50.8306L427.926 43.0358L439.097 41.1799Z" fill="#FCF1B0"/>
<path d="M382.873 112.447L376.17 117.272L367.979 114.674L370.585 122.469L365.372 129.521H374.309L379.149 136.202L381.756 128.407L389.947 125.809L382.873 120.613V112.447Z" fill="#FCF1B0"/>
<path d="M445.799 134.346L446.171 127.665L451.384 131.377L458.086 129.521L455.48 136.202L459.203 141.399L452.129 141.77L447.66 146.966L446.171 140.656L439.841 138.429L445.799 134.346Z" fill="#FCF1B0"/>
<path d="M512.821 103.167L516.917 97.5994L518.406 104.281L524.363 106.879L518.778 110.962L518.406 117.643L513.193 113.189L507.236 115.045L509.47 108.735L506.491 102.796L512.821 103.167Z" fill="#FCF1B0"/>
<path d="M457.923 138.574L483.635 145.776L480.73 147.729L489.656 150.494L491.827 159.548L497.908 151.756L507.457 151.826L502.301 144.243L506.03 135.229L503.055 136.22L512.021 114.135L513.237 113.774L517.971 118.121C518.273 118.392 518.755 118.201 518.785 117.801L519.268 110.96L524.786 107.314C525.108 107.103 525.058 106.612 524.696 106.462L518.806 104.098L517.449 97.4877C517.368 97.087 516.845 96.9568 516.594 97.2874L512.473 102.636L506.141 102.185C505.749 102.155 505.497 102.576 505.688 102.906L509.045 108.596L506.462 114.956C506.311 115.327 506.663 115.717 507.045 115.597L510.815 114.475L501.828 136.611L496.732 138.314L489.485 132.675L488.912 142.17L484.66 145.035L457.059 137.302L456.053 135.83L458.727 129.369C458.888 128.989 458.526 128.598 458.124 128.728L451.48 130.952L446.303 126.925C445.992 126.685 445.55 126.885 445.519 127.276V127.386L423.697 104.98L427.055 105.17L423.416 99.8315L423.808 98.8198L444.273 88.7335C444.434 88.6534 444.544 88.4831 444.544 88.3028V57.5129L453.39 62.1505C453.732 62.3307 454.164 62.0403 454.093 61.6396L452.254 50.9523L460.044 43.3801C460.325 43.0996 460.175 42.6188 459.773 42.5587L449.007 40.9962L444.193 31.2704C444.012 30.9099 443.499 30.9099 443.328 31.2704L438.513 40.9962L427.748 42.5587C427.356 42.6188 427.195 43.0996 427.477 43.3801L435.267 50.9523L433.427 61.6396C433.357 62.0403 433.779 62.3307 434.131 62.1505L443.579 57.2024V88.0324L424.341 97.5177L425.778 93.8418L419.556 95.6447L414.54 91.5581L414.339 98.0085L408.891 101.504L413.153 103.037L383.511 117.65L383.612 112.111C383.612 111.711 383.159 111.48 382.838 111.711L376.073 116.699L368.112 113.974C367.74 113.844 367.368 114.205 367.499 114.585L370.163 122.538L365.097 129.229C364.855 129.55 365.097 130 365.479 130C365.579 130 373.992 129.93 373.892 129.93L378.717 136.801C378.948 137.132 379.45 137.052 379.571 136.671L380.988 132.184L405.223 163.975L406.147 166.74L403.805 169.845L407.705 169.815L409.947 173L411.123 169.294L414.852 168.152L412.661 166.59L446.263 143.192L447.278 147.409C447.369 147.799 447.882 147.909 448.133 147.589L452.505 141.99L459.36 142.04C459.783 142.03 459.964 141.589 459.763 141.289L457.923 138.584V138.574ZM510.041 108.766C510.101 108.626 510.081 108.465 510.01 108.345L506.995 103.247L512.664 103.648C512.835 103.658 512.986 103.588 513.086 103.457L516.725 98.7397L517.921 104.569C517.951 104.729 518.062 104.86 518.212 104.92L523.49 107.033L518.534 110.298C518.413 110.379 518.333 110.519 518.323 110.669L517.901 116.749L513.699 112.893C513.327 112.552 513.267 112.863 507.769 114.415L510.061 108.766H510.041ZM434.553 60.8483L436.272 50.8722C436.302 50.7119 436.252 50.5517 436.131 50.4415L428.854 43.3801L438.905 41.9277C439.066 41.9077 439.197 41.8075 439.267 41.6673L443.76 32.5926L448.253 41.6673C448.324 41.8075 448.465 41.9077 448.615 41.9277L458.667 43.3801L451.4 50.4415C451.289 50.5517 451.239 50.7119 451.259 50.8722L452.978 60.8483C452.566 60.628 455.179 62.0002 443.992 56.1407C443.851 56.0706 443.68 56.0706 443.539 56.1407L434.553 60.8483ZM378.958 135.439L374.545 129.169C374.455 129.039 374.304 128.969 374.153 128.969L366.464 129.029L371.087 122.909C371.188 122.779 371.208 122.618 371.158 122.468L368.725 115.206L375.993 117.7C376.143 117.751 376.314 117.73 376.435 117.63L382.617 113.073C382.617 113.213 382.476 120.976 382.486 120.735C382.486 120.896 382.556 121.046 382.687 121.136L388.949 125.583L381.601 127.827C381.451 127.877 381.33 127.987 381.28 128.147L378.968 135.449L378.958 135.439ZM411.826 165.979L411.686 165.878L411.756 161.992L408.62 164.306L406.047 163.424L381.36 131.052L382.114 128.668L390.155 126.214C390.537 126.094 390.618 125.593 390.296 125.363L383.451 120.495L383.481 118.742L414.41 103.497L414.983 103.698L416.631 109.948L420.602 104.84L422.29 104.94L445.459 128.728L445.137 134.137L439.237 138.113C438.905 138.334 438.976 138.855 439.368 138.975L445.73 140.948L446.022 142.18L411.826 165.999V165.979ZM452.274 141.008C452.123 141.008 451.983 141.078 451.892 141.198L447.992 146.197L446.615 140.447C446.575 140.277 446.454 140.147 446.283 140.097L440.614 138.344L445.881 134.798C446.002 134.718 446.082 134.578 446.092 134.428C446.092 134.327 446.484 127.927 446.464 128.288L451.118 131.913C451.249 132.014 451.41 132.044 451.57 131.994L457.461 130.02L455.099 135.74C455.038 135.89 455.058 136.06 455.149 136.19L458.466 141.068L452.294 141.028L452.274 141.008Z" fill="black"/>
<path d="M658.859 166.078C658.373 164.971 655.714 165.079 652.92 166.307C650.126 167.535 648.263 169.437 648.749 170.544C649.235 171.65 651.894 171.542 654.688 170.314C657.482 169.086 659.345 167.184 658.859 166.078Z" fill="black"/>
<path d="M654.97 173.808C655.658 174.118 656.481 173.808 656.792 173.12C657.116 172.432 656.805 171.622 656.117 171.312C655.429 171.002 654.605 171.312 654.295 172C653.971 172.688 654.281 173.498 654.97 173.821V173.808Z" fill="black"/>
<path d="M631.539 193.846C630.986 193.657 630.46 193.468 630.122 193.184C631.58 192.942 632.228 191.552 630.784 190.567C630.379 190.284 629.947 190.027 629.501 189.784C630.676 189.164 631.769 188.111 631.58 186.803C631.297 184.954 628.084 183.564 626.221 183.2C625.385 183.025 625.115 184.306 625.965 184.468C627.315 184.738 628.556 185.291 629.542 186.06C631.243 187.41 629.731 188.327 627.693 189.191C627.153 189.42 627.166 190.176 627.693 190.391C628.934 190.891 630.001 191.565 630.23 191.781C629.744 192.132 629.056 191.7 628.705 192.24C628.61 192.388 628.57 192.564 628.61 192.739C628.152 193.684 630.338 195.114 631.324 195.114C632.052 195.114 632.228 194.075 631.526 193.846H631.539Z" fill="black"/>
<path d="M668.925 178.354C670.059 178.826 670.153 180.418 669.074 181.039C668.331 181.471 668.966 182.591 669.722 182.172C671.746 181.025 671.557 178.044 669.438 177.167C668.655 176.829 668.142 178.03 668.939 178.367L668.925 178.354Z" fill="black"/>
<path d="M660.87 193.466C661.086 194.303 662.342 193.979 662.126 193.142C661.275 189.904 657.428 188.501 654.661 190.444C653.96 190.943 654.702 191.996 655.404 191.51C657.388 190.107 660.236 191.065 660.87 193.466Z" fill="black"/>
</g>
</svg>
