<svg width="123" height="120" viewBox="0 0 123 120" fill="none" xmlns="http://www.w3.org/2000/svg">
<path fill-rule="evenodd" clip-rule="evenodd" d="M18.6556 44.4766C22.011 70.0896 26.9314 106.175 28.7701 108.966H28.7733C28.8281 109.047 28.8731 109.134 28.9182 109.221C30.5412 112.148 34.5503 114.309 39.2388 115.87C52.6444 120.333 69.8561 120.333 83.2584 115.87C87.9502 114.309 91.9561 112.145 93.5791 109.221C93.6209 109.134 93.6692 109.047 93.724 108.966H93.7272C95.5659 106.175 100.486 70.0896 103.842 44.4766C102.57 47.4681 94.4292 50.2503 91.7403 51.0231C74.7765 55.9081 47.7175 55.9081 30.7537 51.0231C28.0681 50.2503 19.9243 47.4681 18.6523 44.4766H18.6556Z" fill="#E6EE9C"/>
<path d="M19.7511 46.9003C21.3579 59.1272 23.2804 73.3473 25.045 85.1685C26.8837 97.4791 28.5228 107.001 29.3794 108.489C29.3922 108.508 29.4083 108.524 29.4212 108.543C29.4566 108.595 29.4888 108.653 29.5243 108.714C29.55 108.762 29.579 108.817 29.608 108.878C30.3068 110.118 31.495 111.223 33.0181 112.205C34.815 113.364 37.053 114.337 39.481 115.145C46.0984 117.347 53.669 118.449 61.2493 118.449C68.8296 118.449 76.4002 117.347 83.0176 115.145C85.4456 114.337 87.6836 113.364 89.4805 112.205C91.0004 111.226 92.1918 110.121 92.8906 108.878C92.9196 108.817 92.9486 108.762 92.9743 108.714C93.0065 108.653 93.042 108.598 93.0774 108.543C93.0903 108.521 93.1064 108.502 93.1225 108.479C93.9822 106.966 95.6149 97.4565 97.4504 85.1652C99.2182 73.3441 101.137 59.1239 102.744 46.897C102.065 47.4348 101.253 47.9436 100.377 48.417C97.4053 50.027 93.628 51.2829 91.9503 51.7659C83.3976 54.2293 72.317 55.4594 61.2461 55.4594C50.1752 55.4594 39.0946 54.2293 30.5418 51.7659C28.8641 51.2829 25.0869 50.027 22.1147 48.417C21.2388 47.9436 20.4273 47.4348 19.7479 46.897L19.7511 46.9003ZM23.5187 85.3939C21.6542 72.9061 19.5804 57.4656 17.8995 44.614C17.8351 44.2662 18.0186 43.912 18.3567 43.7671C18.7496 43.5996 19.2004 43.7832 19.3679 44.176C19.7801 45.1453 21.1615 46.1468 22.8489 47.0613C25.6987 48.6037 29.3439 49.8145 30.9701 50.2814C39.3812 52.703 50.3136 53.9137 61.2525 53.9137C72.1914 53.9137 83.1239 52.703 91.5349 50.2814C93.1579 49.8145 96.8063 48.6005 99.6562 47.0613C101.344 46.1468 102.728 45.1453 103.137 44.176C103.269 43.8669 103.594 43.6672 103.945 43.7155C104.367 43.7703 104.664 44.1567 104.609 44.5785C102.925 57.4334 100.851 72.8933 98.9831 85.3939C97.1155 97.888 95.412 107.619 94.417 109.326C94.3976 109.365 94.3719 109.403 94.3461 109.439C94.3397 109.452 94.3332 109.461 94.3268 109.474C94.3075 109.506 94.2946 109.535 94.2849 109.558C94.2849 109.558 94.2688 109.587 94.2624 109.603C93.4348 111.094 92.0598 112.388 90.3241 113.509C88.421 114.736 86.0639 115.76 83.5103 116.61C76.7222 118.87 68.9841 120.001 61.259 120.001C53.5338 120.001 45.7957 118.87 39.0076 116.61C36.4541 115.76 34.0969 114.736 32.1938 113.509C30.471 112.398 29.1056 111.116 28.2748 109.638C28.2587 109.613 28.2426 109.587 28.2298 109.558C28.2201 109.535 28.204 109.506 28.1847 109.474C28.175 109.458 28.1654 109.442 28.1557 109.426C28.1493 109.416 28.1396 109.406 28.1332 109.394C27.1413 107.887 25.4186 98.0619 23.5251 85.3939H23.5187Z" fill="#454B53"/>
<path d="M19.6526 43.4673C19.6076 43.8827 19.2533 44.1789 18.8605 44.1338C18.4676 44.0855 18.1842 43.712 18.2293 43.2966C20.2612 25.0158 29.5256 12.7728 41.2825 6.50966C47.4523 3.22511 54.3112 1.58928 61.1702 1.59572C68.0291 1.60216 74.8913 3.2541 81.0708 6.53542C92.9145 12.8276 102.256 25.1028 104.275 43.2934C104.32 43.7088 104.037 44.0823 103.644 44.1306C103.251 44.1789 102.897 43.8794 102.852 43.464C100.894 25.8402 91.8712 13.9611 80.43 7.88466C74.4501 4.70638 67.8069 3.11241 61.167 3.10275C54.5302 3.09631 47.8935 4.6774 41.9233 7.85568C30.569 13.9096 21.6202 25.7565 19.6526 43.4673Z" fill="#454B53"/>
<path d="M52.4894 0.777344H70.0167C70.358 0.777344 70.635 1.05428 70.635 1.39561V5.00861C70.635 5.34995 70.358 5.62688 70.0167 5.62688H52.4894C52.148 5.62688 51.8711 5.34995 51.8711 5.00861V1.39561C51.8711 1.05428 52.148 0.777344 52.4894 0.777344Z" fill="#FBBB78"/>
<path d="M52.4861 0H70.0135C70.3967 0 70.7412 0.157787 70.9956 0.408958C71.2468 0.66335 71.4046 1.01113 71.4046 1.39432V5.00732C71.4046 5.39052 71.2468 5.7383 70.9956 5.99269C70.9763 6.01201 70.9538 6.03133 70.9312 6.04743C70.6865 6.2664 70.3612 6.39843 70.0102 6.39843H52.4829C52.0997 6.39843 51.7551 6.24064 51.5008 5.98947C51.2496 5.7383 51.0918 5.39052 51.0918 5.0041V1.39432C51.0918 1.01113 51.2496 0.66657 51.5008 0.412178C51.7519 0.157787 52.0997 0 52.4829 0L52.4861 0ZM69.8589 1.54889H52.6439V4.84954H69.8589V1.54889Z" fill="#454B53"/>
<path fill-rule="evenodd" clip-rule="evenodd" d="M45.1362 33.9844C39.984 34.506 35.3437 35.2724 31.457 36.2224C27.3223 37.2303 24.0055 38.499 21.7578 39.9674C19.7549 41.2748 18.6504 42.7109 18.6504 44.2147C18.6504 45.7186 19.7549 47.1547 21.7578 48.4621C24.0055 49.9273 27.3223 51.196 31.457 52.2071C35.3469 53.1571 39.9872 53.9203 45.1362 54.4451C50.092 54.9475 55.5341 55.2244 61.2531 55.2244C66.9721 55.2244 72.4142 54.9475 77.37 54.4451C82.5223 53.9235 87.1625 53.1571 91.0493 52.2071C95.184 51.1992 98.5007 49.9305 100.748 48.4621C102.751 47.1547 103.856 45.7186 103.856 44.2147C103.856 42.7109 102.751 41.2748 100.748 39.9674C98.5007 38.5022 95.184 37.2335 91.0493 36.2224C87.1593 35.2724 82.5191 34.5092 77.37 33.9844C72.4142 33.482 66.9721 33.2051 61.2531 33.2051C55.5341 33.2051 50.092 33.482 45.1362 33.9844Z" fill="#F5F5F5"/>
<path fill-rule="evenodd" clip-rule="evenodd" d="M21.3652 48.1913C21.4908 48.2815 21.6228 48.3716 21.7581 48.4586C24.0058 49.9237 27.3225 51.1925 31.4572 52.2036C35.3472 53.1535 39.9874 53.9167 45.1365 54.4416C50.0923 54.9439 55.5344 55.2209 61.2534 55.2209C66.9724 55.2209 72.4145 54.9439 77.3703 54.4416C82.5225 53.9199 87.1628 53.1535 91.0495 52.2036C95.1842 51.1957 98.501 49.9269 100.749 48.4586C100.884 48.3716 101.016 48.2815 101.142 48.1913C93.938 43.6541 78.7839 40.5273 61.2534 40.5273C43.7228 40.5273 28.572 43.6541 21.3652 48.1913Z" fill="#6BC9DC"/>
<path d="M45.2129 34.7495C42.6722 35.0071 40.2506 35.3259 37.9836 35.6962C35.6973 36.0697 33.572 36.498 31.6367 36.9681C29.5919 37.4673 27.7532 38.0308 26.1528 38.6491C24.5878 39.2544 23.2514 39.9113 22.1791 40.6101C21.2452 41.2187 20.5271 41.8531 20.057 42.4971C19.6416 43.0639 19.4259 43.6371 19.4259 44.2135C19.4259 44.7899 19.6448 45.3631 20.057 45.9298C20.5304 46.5738 21.2452 47.2082 22.1791 47.8168C23.2514 48.5156 24.5878 49.1725 26.1528 49.7779C27.7532 50.3961 29.5919 50.9597 31.6367 51.4588C33.5688 51.9289 35.6941 52.3572 37.9804 52.7307C40.2474 53.1011 42.669 53.4199 45.2097 53.6775C47.7053 53.9319 50.3265 54.1251 53.0476 54.2571C55.6688 54.3827 58.4091 54.4503 61.2493 54.4503C64.0895 54.4503 66.8298 54.3827 69.4511 54.2571C72.1721 54.1251 74.7933 53.9286 77.2889 53.6775C79.8296 53.4199 82.2512 53.1011 84.5182 52.7307C86.8045 52.3572 88.9298 51.9289 90.8651 51.4588C92.9099 50.9597 94.7486 50.3961 96.3491 49.7779C97.9141 49.1725 99.2504 48.5156 100.323 47.8168C101.257 47.2082 101.975 46.5738 102.445 45.9298C102.86 45.3631 103.076 44.7899 103.076 44.2135C103.076 43.6371 102.857 43.0639 102.445 42.4971C101.971 41.8531 101.257 41.2187 100.323 40.6101C99.2504 39.9081 97.9141 39.2544 96.3491 38.6491C94.7486 38.0308 92.9099 37.4673 90.8651 36.9681C88.933 36.498 86.8077 36.0697 84.5182 35.6962C82.2512 35.3259 79.8296 35.0071 77.2889 34.7495C74.7933 34.4951 72.1721 34.3019 69.4511 34.1698C66.8298 34.0442 64.0895 33.9766 61.2493 33.9766C58.4091 33.9766 55.6688 34.0442 53.0476 34.1698C50.3265 34.3019 47.7053 34.4983 45.2097 34.7495H45.2129ZM37.7357 34.1731C40.0284 33.7995 42.479 33.4775 45.0616 33.2135C47.5862 32.9591 50.2331 32.7594 52.9767 32.6274C55.6816 32.4954 58.4478 32.4277 61.2525 32.4277C64.0573 32.4277 66.8234 32.4954 69.5251 32.6274C72.2687 32.7594 74.9189 32.9591 77.4403 33.2135C80.0228 33.4743 82.4734 33.7963 84.7661 34.1731C87.0847 34.553 89.2486 34.9878 91.2258 35.4708C93.335 35.986 95.2413 36.5688 96.9029 37.2097C98.5678 37.8537 100.001 38.5589 101.16 39.3156C102.255 40.0305 103.105 40.7872 103.688 41.5826C104.3 42.4198 104.622 43.2989 104.622 44.2102C104.622 45.1215 104.3 46.0006 103.688 46.8379C103.105 47.6333 102.255 48.39 101.16 49.1049C99.9975 49.8648 98.5678 50.5668 96.9029 51.2108C95.2381 51.8516 93.335 52.4345 91.2258 52.9497C89.2486 53.4327 87.0847 53.8675 84.7661 54.2474C82.4734 54.621 80.0228 54.943 77.4403 55.207C74.9157 55.4614 72.2687 55.6611 69.5251 55.7931C66.8202 55.9251 64.0541 55.9928 61.2525 55.9928C58.451 55.9928 55.6816 55.9251 52.9767 55.7931C50.2331 55.6611 47.5829 55.4614 45.0583 55.207C42.4758 54.9462 40.0252 54.6242 37.7325 54.2474C35.414 53.8675 33.25 53.4327 31.2728 52.9497C29.1636 52.4345 27.2573 51.8516 25.5957 51.2108C23.9309 50.5668 22.4979 49.8616 21.3386 49.1049C20.2438 48.39 19.3936 47.6333 18.8108 46.8379C18.199 46.0006 17.877 45.1215 17.877 44.2102C17.877 43.2989 18.199 42.4198 18.8108 41.5826C19.3936 40.7872 20.2438 40.0305 21.3386 39.3156C22.5011 38.5557 23.9309 37.8537 25.5957 37.2097C27.2605 36.5688 29.1636 35.986 31.2728 35.4708C33.25 34.9878 35.414 34.553 37.7325 34.1731H37.7357Z" fill="#454B53"/>
<path fill-rule="evenodd" clip-rule="evenodd" d="M100.464 44.2113C100.464 44.3079 100.46 44.4013 100.454 44.4979C100.454 44.5237 100.454 44.5494 100.447 44.5752C100.447 44.5752 100.447 44.5817 100.447 44.5849C100.438 44.6718 100.428 44.7588 100.412 44.8425C100.328 45.4801 100.245 46.1273 100.158 46.7778C100.122 47.0354 100.09 47.293 100.055 47.5538C100.103 47.5828 100.154 47.6086 100.203 47.6376C100.274 47.6762 100.344 47.7181 100.412 47.7567C100.972 47.3832 101.455 47.0032 101.848 46.6168C102.08 46.3882 102.28 46.1595 102.447 45.9277C102.84 45.3899 103.056 44.8425 103.078 44.2983C103.078 44.2693 103.078 44.2403 103.078 44.2146C103.078 44.118 103.072 44.0213 103.059 43.928C103.024 43.6478 102.94 43.3709 102.805 43.0907C102.708 42.8943 102.589 42.6946 102.444 42.4982C101.971 41.8542 101.256 41.2198 100.322 40.6112C99.2496 39.9092 97.9132 39.2555 96.3482 38.6501C95.8491 38.4569 95.3274 38.2702 94.7832 38.0898C95.6043 38.4827 96.345 38.8917 96.9987 39.3199C98.0935 40.0348 98.9437 40.7915 99.5265 41.5869C100.138 42.4242 100.46 43.3033 100.46 44.2146L100.464 44.2113Z" fill="#B9B9B9"/>
<path fill-rule="evenodd" clip-rule="evenodd" d="M100.203 47.6384L100.055 47.5547C100.049 47.6127 100.039 47.6738 100.033 47.7318C100.02 47.8284 100.007 47.9282 99.9941 48.0248C100.107 47.954 100.216 47.8864 100.326 47.8155C100.355 47.7962 100.384 47.7769 100.413 47.7576L100.203 47.6384Z" fill="#5398A6"/>
<path fill-rule="evenodd" clip-rule="evenodd" d="M101.165 49.106C100.727 49.3926 100.253 49.6695 99.7414 49.9368C98.2054 61.5712 96.4375 74.5838 94.821 85.3874C92.9533 97.8815 91.2498 107.613 90.2516 109.319C90.2323 109.358 90.2065 109.397 90.1807 109.432L90.1614 109.468C90.1421 109.5 90.1292 109.529 90.1163 109.551L90.0938 109.596C89.2662 111.087 87.8912 112.382 86.1555 113.502C85.299 114.053 84.3555 114.565 83.3379 115.035C85.6435 114.249 87.7656 113.312 89.482 112.205C91.0019 111.226 92.1933 110.121 92.8921 108.878C92.9211 108.817 92.9501 108.762 92.9758 108.714C93.008 108.653 93.0435 108.598 93.0789 108.543C93.0918 108.521 93.1079 108.502 93.124 108.479C93.9837 106.966 95.6164 97.4565 97.4519 85.1652C99.165 73.7047 101.023 59.9869 102.601 48.0176C102.182 48.3911 101.702 48.755 101.161 49.106H101.165Z" fill="#ADB277"/>
</svg>
