<?xml version="1.0" encoding="utf-8"?>
<!-- Generator: Adobe Illustrator 28.1.0, SVG Export Plug-In . SVG Version: 6.00 Build 0)  -->
<svg version="1.1" id="Layer_1" xmlns="http://www.w3.org/2000/svg" xmlns:xlink="http://www.w3.org/1999/xlink" x="0px" y="0px"
	 viewBox="0 0 270 150" style="enable-background:new 0 0 270 150;" xml:space="preserve">
<style type="text/css">
	.st0{fill:#F8D512;}
	.st1{fill:#FFFFFF;}
</style>
<g>
	<circle class="st0" cx="135" cy="75" r="45"/>
	<path class="st1" d="M141.3,98.6L141.3,98.6L141.3,98.6L141.3,98.6L141.3,98.6L141.3,98.6L141.3,98.6L141.3,98.6L141.3,98.6
		L141.3,98.6L141.3,98.6L141.3,98.6v0.1l0,0v0l0,0v0l0,0v0l0,0v0l0,0v0l0,0v0l0,0v0l0,0v0l0,0v0l0,0v0l0,0v0l0,0v0l0,0v0l0,0v0l0,0
		v0l0,0v0l0,0v0l0,0v0l0,0v0l0,0v0l0,0v0l0,0v0l0,0v0l0,0v0l0,0v0l0,0v0l0,0v0l0,0v0l0,0v0l0,0v0l0,0v0l0,0v0l0,0v0l0,0v0l0,0v0l0,0
		v0l0,0v0l0,0v0l0,0v0l0,0v0l0,0v0l0,0v0l0,0v0l0,0v0l0,0v0l0,0v0l0,0v0l0,0v0l0,0v0l0,0v0l0,0v0l0,0v0l0,0v0l0,0v0l0,0v0l0,0v0l0,0
		v0l0,0v0l0,0v0l0,0v0l0,0v0l0,0v0l0,0v0l0,0v0l0,0v0l0,0v0l0,0v0l0,0v0l0,0v0l0,0v0l0,0v0l0,0v0l0,0v0l0,0v0l0,0v0l0,0v0l0,0v0l0,0
		v0l0,0v0l0,0v0l0,0v0l0,0v0l0,0v0l0,0v0l0,0v0l0,0v0l0,0v0l0,0v0l0,0v0l0,0v0l0,0v0l0,0v0l0,0v0l0,0v0l0,0v0l0,0v0l0,0v0l0,0v0l0,0
		v0l0,0v0l0,0v0l0,0v0l0,0v0l0,0v0l0,0v0l0,0v0l0,0v0l0,0v0l0,0v0l0,0v0l0,0v0l0,0v0l0,0v0l0,0v0l0,0v0l0,0v0l0,0v0l0,0v0l0,0v0l0,0
		v0l0,0v0l0,0v0l0,0v0l0,0v0l0,0v0l0,0v0l0,0v0l0,0v0l0,0v0l0,0v0l0,0v0l0,0v0l0,0v0l0,0v0l0,0v0l0,0v0l0,0v0l0,0v0l0,0v0l0,0v0l0,0
		v0l0,0v0l0,0v0l0,0v0l0,0v0l0,0v0l0,0v0l0,0v0l0,0v0l0,0v0l0,0v0l0,0v0l0,0v0l0,0v0l0,0v0l0,0v0l0,0v0l0,0v0l0,0v0l0,0v0l0,0v0l0,0
		v0l0,0v0l0,0v0l0,0l-0.4,0l0,0v0l0,0v0l0,0v0l0,0v0l0,0v0l0,0v0l0,0v0l0,0v0l0,0v0l0,0v0l0,0v0l0,0v0l0,0v0l0,0v0l0,0v0l0,0v0l0,0
		v0l0,0v0l0,0v0l0,0v0l0,0v0l0,0v0l0,0v0l0,0v0l0,0v0l0,0v0l0,0v0l0,0v0l0,0v0l0,0v0l0,0v0l0,0v0l0,0v0l0,0v0l0,0v0l0,0v0l0,0v0l0,0
		v0l0,0v0l0,0v0l0,0v0l0,0v0l0,0v0l0,0v0l0,0v0l0,0v0l0,0v0l0,0v0l0,0v0l0,0v0l0,0v0l0,0v0l0,0v0l0,0v0l0,0v0l0,0v0l0,0v0l0,0v0l0,0
		v0l0,0v0l0,0v0l0,0v0l0,0v0l0,0v0l0,0v0l0,0v0l0,0v0l0,0v0l0,0v0l0,0v0l0,0v0l0,0v0l0,0v0l0,0v0l0,0v0l0,0v0l0,0v0l0,0v0l0,0v0l0,0
		v0l0,0v0l0,0v0l0,0v0l0,0v0l0,0v0l0,0v0l0,0v0l0,0v0l0,0v0l0,0v0l0,0v0l0,0v0l0,0v0l0,0v0l0,0v0l0,0v0l0,0v0l0,0v0l0,0v0l0,0v0l0,0
		v0l0,0v0l0,0v0l0,0v0l0,0v0l0,0v0l0,0v0l0,0v0l0,0v0l0,0v0l0,0v0l0,0v0l0,0v0l0,0v0l0,0v0l0,0v0l0,0v0l0,0v0l0,0v0l0,0v0l0,0v0l0,0
		v0l0,0v0l0,0v0l0,0v0l0,0v0l0,0v0l0,0v0l0,0v0l0,0v0l0,0v0l0,0v0l0,0v0l0,0v0l0,0v0l0,0v0l0,0v0l0,0v0l0,0v0l0,0v0l0,0v0l0,0v0l0,0
		v0l0,0v0l0,0v0l0,0v0l0,0v0l0,0v0l0,0v0l0,0v0l0,0v0l0,0v0l0,0v0l0,0v0l0,0v0l0,0v0l0,0v0l0,0v0l0,0v0l0,0v0l0,0v0l0,0v0l0,0v0l0,0
		v0l0,0v0l0,0v0l0,0v0l0,0v0l0,0v0l0,0v0l0,0L141.3,98.6z M141.3,97.8c0,0.3,0,0.6,0,0.9h-0.4c0-0.3,0-0.6,0-0.9L141.3,97.8z
		 M142.5,96.8c-0.4-0.1-0.6,0-0.8,0.2c-0.2,0.2-0.3,0.4-0.4,0.8l-0.4,0c0-0.4,0.2-0.8,0.5-1.1c0.3-0.2,0.7-0.3,1.2-0.3L142.5,96.8
		L142.5,96.8z M146.4,97.4c-1.3-0.2-2.6-0.4-3.8-0.6l0.1-0.4c1.3,0.2,2.6,0.4,3.8,0.6L146.4,97.4z M148.6,95.4
		c0,0.6-0.3,1.1-0.7,1.5s-1,0.6-1.5,0.5l0.1-0.4c0.4,0.1,0.9-0.1,1.2-0.4c0.3-0.3,0.6-0.7,0.6-1.2L148.6,95.4L148.6,95.4z
		 M148.6,90.3c0,1.7,0,3.4,0,5.1h-0.4c0-1.7,0-3.4,0-5.1H148.6z M148.7,89.6c0,0.2,0,0.4,0,0.6h-0.4c0-0.2,0-0.5,0-0.7
		C148.3,89.6,148.7,89.6,148.7,89.6z M149.6,88.8c-0.5,0-0.8,0.3-0.9,0.8l-0.4-0.1c0.1-0.7,0.6-1.1,1.3-1.1L149.6,88.8L149.6,88.8z
		 M150.9,88.8c-0.5,0-0.9,0-1.3,0v-0.4c0.4,0,0.9,0,1.3,0L150.9,88.8L150.9,88.8z M151.7,87.5c0.1,0.2,0.2,0.4,0.2,0.5
		s0,0.3-0.1,0.5s-0.2,0.2-0.4,0.3c-0.2,0-0.3,0.1-0.6,0.1v-0.4c0.2,0,0.4,0,0.5,0s0.1-0.1,0.2-0.1c0,0,0-0.1,0-0.2
		c0-0.1-0.1-0.2-0.2-0.4L151.7,87.5z M148.9,82.2c0.9,1.8,1.8,3.5,2.8,5.3l-0.4,0.2c-0.9-1.8-1.8-3.5-2.8-5.3L148.9,82.2L148.9,82.2
		z M148.6,80.9c0,0.5,0.1,0.9,0.3,1.3l-0.4,0.2c-0.2-0.5-0.4-0.9-0.4-1.5C148.2,80.9,148.6,80.9,148.6,80.9z M148.3,75.9
		c0.4,1.7,0.3,3.3,0.3,5h-0.4c0-1.7,0.1-3.3-0.3-4.9C147.9,76,148.3,75.9,148.3,75.9z M136.5,65.2c5.8,0.7,10.6,5,11.8,10.8
		l-0.4,0.1c-1.2-5.6-5.9-9.8-11.5-10.4L136.5,65.2L136.5,65.2z M122.8,72.3c2.6-5,8.1-7.8,13.7-7.1l-0.1,0.4
		c-5.5-0.6-10.8,2.1-13.3,6.9C123.1,72.5,122.8,72.3,122.8,72.3z M123.2,86.3c-2.8-4.5-2.9-9.3-0.5-14l0.4,0.2
		c-2.4,4.6-2.2,9.2,0.5,13.6C123.6,86.1,123.2,86.3,123.2,86.3z M125.4,88.9c-0.7-0.8-1.5-1.7-2.1-2.6l0.3-0.2
		c0.6,0.9,1.3,1.7,2.1,2.6L125.4,88.9L125.4,88.9z M125.8,90.1c0-0.5-0.2-0.8-0.5-1.2l0.3-0.3c0.4,0.4,0.6,0.9,0.6,1.5L125.8,90.1
		L125.8,90.1z M125.8,98.4c0-2.8,0-5.5,0-8.3h0.4c0,2.8,0,5.6,0,8.3H125.8z M126.5,99.3c-0.2,0-0.4-0.1-0.5-0.2
		c-0.1-0.2-0.2-0.3-0.2-0.6h0.4c0,0.2,0,0.3,0.1,0.3c0,0,0.1,0.1,0.3,0.1L126.5,99.3L126.5,99.3z M140.7,101.8
		c-4.7-0.8-9.4-1.7-14.2-2.5l0.1-0.4c4.7,0.8,9.4,1.7,14.2,2.5L140.7,101.8z M141.1,101.8c-0.2,0-0.3,0-0.4-0.1l0.1-0.4
		c0.1,0,0.2,0,0.4,0.1L141.1,101.8L141.1,101.8z M142,104.1L142,104.1l-0.3-0.3l0,0L142,104.1z M140.9,103.8h0.9v0.4h-0.9V103.8z
		 M140.8,103.7c0.1,0,0.1,0,0.2,0.1c0,0,0.1,0,0.1,0l-0.1,0.4c0,0-0.1,0-0.1-0.1c0,0-0.1,0-0.1,0
		C140.7,104.1,140.8,103.7,140.8,103.7z M126.1,101.1c4.9,0.8,9.8,1.7,14.7,2.6l-0.1,0.4c-4.9-0.9-9.8-1.8-14.7-2.6L126.1,101.1z
		 M123.9,98.6c0,1.4,0.9,2.3,2.1,2.6l-0.1,0.4c-1.4-0.2-2.5-1.4-2.4-2.9L123.9,98.6L123.9,98.6z M123.9,90.7c0,2.6,0,5.3,0,7.9h-0.4
		c0.1-2.6,0-5.3,0-7.9H123.9z M123.7,90c0.2,0.2,0.3,0.5,0.3,0.7h-0.4c0-0.2-0.1-0.3-0.2-0.4C123.4,90.2,123.7,90,123.7,90z
		 M119.4,81.2c0.5,3.4,2,6.3,4.3,8.7l-0.3,0.3c-2.4-2.5-3.9-5.5-4.4-8.9L119.4,81.2L119.4,81.2z M119.9,74.1
		c-0.7,2.3-0.9,4.7-0.6,7.1l-0.4,0.1c-0.4-2.5-0.2-4.9,0.6-7.3L119.9,74.1L119.9,74.1z M124.5,67.1c-2.2,1.9-3.7,4.2-4.6,7l-0.4-0.1
		c0.9-2.8,2.5-5.2,4.7-7.2C124.2,66.8,124.5,67.1,124.5,67.1z M134.2,63.2c-3.7,0.2-6.9,1.5-9.7,3.9l-0.3-0.3c2.8-2.5,6.2-3.8,9.9-4
		L134.2,63.2L134.2,63.2z M142.2,65.1c-2.5-1.4-5.2-2-8-1.9l0-0.4c2.9-0.1,5.7,0.5,8.2,1.9C142.4,64.8,142.2,65.1,142.2,65.1z
		 M149.6,73.7c-1.4-3.8-3.8-6.6-7.3-8.6l0.2-0.3c3.6,2,6.1,4.9,7.5,8.8L149.6,73.7L149.6,73.7z M150.5,80.1c0.1-2.2-0.1-4.3-0.9-6.4
		l0.4-0.1c0.8,2.1,1,4.3,0.9,6.6L150.5,80.1L150.5,80.1z M151,82.1c-0.3-0.7-0.5-1.3-0.5-2h0.4c0,0.7,0.1,1.3,0.4,1.8
		C151.3,81.9,151,82.1,151,82.1z M153.4,86.9c-0.8-1.6-1.6-3.2-2.5-4.8l0.4-0.2c0.9,1.6,1.7,3.2,2.5,4.8L153.4,86.9L153.4,86.9z
		 M151.8,90.6c0.9-0.2,1.5-0.7,1.8-1.4s0.3-1.5-0.1-2.3l0.4-0.2c0.5,1,0.5,1.9,0.1,2.7s-1.1,1.4-2,1.6
		C151.9,91,151.8,90.6,151.8,90.6z M150.7,90.8c0.4-0.1,0.8-0.1,1.1-0.1l0.1,0.4c-0.4,0.1-0.8,0.1-1.2,0.2
		C150.7,91.2,150.7,90.8,150.7,90.8z M150.5,91.4L150.5,91.4L150.5,91.4L150.5,91.4L150.5,91.4L150.5,91.4L150.5,91.4L150.5,91.4
		L150.5,91.4L150.5,91.4L150.5,91.4L150.5,91.4v-0.1l0,0v0l0,0v0l0,0v0l0,0v0l0,0v0l0,0v0l0,0v0l0,0v0l0,0v0l0,0v0l0,0v0l0,0v0l0,0
		v0l0,0v0l0,0v0l0,0v0l0,0v0l0,0v0l0,0v0l0,0v0l0,0v0l0,0v0l0,0h0.4l0,0v0l0,0v0l0,0v0l0,0v0l0,0v0l0,0v0l0,0v0l0,0v0l0,0v0l0,0v0
		l0,0v0l0,0v0l0,0v0l0,0v0l0,0v0l0,0v0l0,0v0l0,0v0l0,0v0l0,0v0l0,0v0l0,0v0l0,0v0l0,0v0l0,0v0l0,0v0l0,0v0l0,0v0l0,0H150.5z
		 M150.5,95.2c0-1.2,0-2.5,0-3.7h0.4c0,1.2,0,2.5,0,3.7L150.5,95.2L150.5,95.2z M147.4,99.2c1.8-0.5,3.1-2.1,3.1-4.1h0.4
		c0,2.2-1.4,3.9-3.4,4.4L147.4,99.2L147.4,99.2z M145.1,99.1c0.8,0.1,1.6,0.3,2.3,0.1l0.1,0.4c-0.9,0.2-1.7,0-2.5-0.1
		C145,99.5,145.1,99.1,145.1,99.1z M143.4,98.9c0.6,0.1,1.1,0.2,1.7,0.2l-0.1,0.4c-0.5-0.1-1.1-0.2-1.7-0.2L143.4,98.9z
		 M143.2,101.9c0-0.9,0-1.8,0-2.8h0.4c0,1,0,1.9,0,2.8L143.2,101.9L143.2,101.9z M142.2,103.6c0.7-0.3,1-0.9,1-1.7h0.4
		c0,0.9-0.4,1.6-1.2,2.1L142.2,103.6L142.2,103.6z M141.7,103.8c0.2-0.1,0.3-0.2,0.5-0.2l0.2,0.3c-0.2,0.1-0.3,0.2-0.5,0.2
		L141.7,103.8L141.7,103.8z M141.1,98.6h-0.2H141.1z M141.1,97.8h0.2v0L141.1,97.8L141.1,97.8z M142.5,96.6l0,0.2l0,0L142.5,96.6z
		 M146.4,97.2l0,0.2l0,0L146.4,97.2z M148.4,95.4h0.2H148.4z M148.4,90.3h-0.2H148.4z M148.5,89.6l0.2,0l0,0L148.5,89.6z
		 M149.6,88.6v-0.2l0,0V88.6z M150.9,88.6v0.2l0,0V88.6z M151.5,87.6l0.2-0.1l0,0L151.5,87.6z M148.8,82.3l-0.2,0.1l0,0L148.8,82.3z
		 M148.4,81h0.2H148.4z M148.1,76l-0.2,0l0,0L148.1,76z M136.4,65.4l0,0.2l0,0L136.4,65.4z M122.9,72.5l0.2,0.1l0,0L122.9,72.5z
		 M123.4,86.2l0.2-0.1l0,0L123.4,86.2z M125.5,88.8l0.2-0.1l0,0L125.5,88.8z M126,90.1h-0.2H126z M126,98.5h0.2l0,0H126z
		 M126.5,99.1l0-0.2l0,0L126.5,99.1z M140.7,101.6l0-0.2l0,0L140.7,101.6z M141.1,101.7h0.2v0.2l-0.2,0
		C141.1,101.9,141.1,101.7,141.1,101.7z M141.8,104v-0.2h0.5l-0.3,0.3L141.8,104z M140.9,104v0.2h-0.1L140.9,104z M140.7,103.9
		l0-0.2l0,0L140.7,103.9z M126,101.3l0,0.2l0,0L126,101.3z M123.7,98.6h-0.2H123.7z M123.7,90.7h0.2l0,0H123.7z M123.5,90.1l0.2-0.1
		l0,0L123.5,90.1z M119.2,81.3l0.2,0l0,0L119.2,81.3z M119.7,74.1l-0.2-0.1l0,0L119.7,74.1z M124.4,67l0.1,0.2l0,0L124.4,67z
		 M134.2,63v-0.2l0,0V63z M142.3,64.9l0.1-0.2l0,0L142.3,64.9z M149.8,73.6l0.2-0.1l0,0L149.8,73.6z M150.7,80.1h0.2H150.7z
		 M151.2,82l0.2-0.1l0,0L151.2,82z M153.6,86.8l0.2-0.1l0,0L153.6,86.8z M151.9,90.8l0.1,0.2l0,0L151.9,90.8z M150.7,91h-0.2v-0.2
		l0.2,0C150.7,90.8,150.7,91,150.7,91z M150.7,95.2h-0.2H150.7z M147.5,99.4l-0.1-0.2l0,0L147.5,99.4z M145.1,99.3l0,0.2l0,0
		L145.1,99.3z M143.4,99.1h-0.2v-0.2l0.2,0C143.4,98.9,143.4,99.1,143.4,99.1z M143.4,101.9h0.2H143.4z M142.3,103.8l0.1,0.2l0,0
		L142.3,103.8z M141.8,104l0.1,0.2l-0.2-0.3L141.8,104L141.8,104z"/>
	<path class="st1" d="M141.1,101.6c-0.2,0-0.3,0-0.4-0.1c-4.7-0.8-9.4-1.7-14.2-2.5c-0.4-0.1-0.5-0.2-0.5-0.6c0-2.8,0-5.6,0-8.3
		c0-0.5-0.2-0.9-0.5-1.3c-0.7-0.8-1.5-1.7-2.1-2.6c-2.7-4.5-2.9-9.1-0.5-13.8c2.6-5,8-7.7,13.5-7c5.7,0.7,10.4,4.9,11.7,10.6
		c0.4,1.6,0.3,3.3,0.3,4.9c0,0.5,0.1,0.9,0.3,1.4c0.9,1.8,1.8,3.5,2.8,5.3c0.4,0.8,0.2,1-0.6,1c-0.4,0-0.9,0-1.3,0
		c-0.6,0-1,0.4-1.1,1c0,0.2,0,0.5,0,0.7c0,1.7,0,3.4,0,5.1c0,1.1-1.1,1.9-2,1.8c-1.3-0.2-2.6-0.4-3.9-0.6c-0.8-0.1-1.4,0.3-1.4,1.2
		c0,0.3,0,0.6,0,0.9L141.1,101.6L141.1,101.6z M141.8,104c0.2-0.1,0.3-0.2,0.5-0.2c0.8-0.4,1.1-1.1,1.1-1.9c0-0.9,0-1.8,0-2.8
		c0.6,0.1,1.1,0.2,1.7,0.2c0.8,0.1,1.6,0.3,2.4,0.1c1.9-0.5,3.2-2.2,3.3-4.2c0-1.2,0-2.5,0-3.7V91c0.4-0.1,0.8-0.1,1.2-0.2
		c1.9-0.4,2.6-2.2,1.8-4c-0.8-1.6-1.6-3.2-2.5-4.8c-0.3-0.6-0.5-1.2-0.5-1.9c0.1-2.2-0.2-4.4-0.9-6.5c-1.4-3.8-3.9-6.7-7.4-8.7
		c-2.5-1.4-5.2-2-8.1-1.9c-3.7,0.2-7,1.5-9.8,4c-2.2,1.9-3.7,4.3-4.6,7.1c-0.8,2.3-1,4.7-0.6,7.2c0.5,3.4,2,6.4,4.4,8.9
		c0.1,0.1,0.2,0.4,0.2,0.6c0,2.6,0,5.3,0,7.9c0,1.5,1,2.5,2.3,2.8c4.9,0.8,9.8,1.7,14.7,2.6c0.1,0,0.1,0.1,0.2,0.1H141.8L141.8,104
		L141.8,104z"/>
	<path class="st1" d="M107,75.1c0.4-0.9,1.2-1.1,2.2-1.1c2,0.1,4.1,0,6.1,0c1.2,0,2,1,1.6,2c-0.3,0.6-0.8,0.9-1.5,1
		c-2.3,0-4.5,0-6.8,0c-0.8,0-1.3-0.5-1.6-1.1V75.1L107,75.1L107,75.1z"/>
	<path class="st1" d="M137,52c0,1.1,0,2.1,0,3.2c0,1-0.6,1.8-1.5,1.8c-0.9,0-1.5-0.7-1.5-1.8c0-2.1,0-4.3,0-6.4c0-1,0.6-1.8,1.5-1.8
		c0.9,0,1.5,0.7,1.5,1.8C137,49.9,137,51,137,52L137,52z"/>
	<path class="st1" d="M158,74c1.1,0,2.1,0,3.2,0c1,0,1.8,0.6,1.8,1.5c0,0.9-0.7,1.5-1.8,1.5c-2.1,0-4.3,0-6.4,0
		c-1,0-1.8-0.6-1.8-1.5c0-0.9,0.7-1.5,1.8-1.5C155.9,74,157,74,158,74L158,74z"/>
	<path class="st1" d="M123,61.1c-0.1,0.9-0.4,1.4-1,1.7c-0.6,0.3-1.2,0.2-1.7-0.2c-0.6-0.6-1.2-1.2-1.8-1.8c-1-1-2-2-3-3
		c-0.5-0.5-0.6-1.1-0.4-1.7c0.2-0.6,0.7-1.1,1.3-1.1c0.5,0,1,0.1,1.3,0.4c1.6,1.5,3.2,3.1,4.7,4.7C122.8,60.5,122.9,60.9,123,61.1
		L123,61.1L123,61.1z"/>
	<path class="st1" d="M148.9,63c-0.9,0-1.4-0.3-1.7-0.9c-0.3-0.6-0.3-1.2,0.2-1.8c0.4-0.4,0.8-0.8,1.2-1.2c1.2-1.2,2.4-2.4,3.6-3.6
		c0.5-0.5,1.1-0.7,1.8-0.5c0.6,0.2,1,0.7,1.1,1.3c0.1,0.5-0.1,1-0.5,1.4c-1.6,1.6-3.1,3.1-4.7,4.7C149.5,62.8,149.1,62.9,148.9,63z"
		/>
</g>
</svg>
