<?xml version="1.0" encoding="utf-8"?>
<!-- Generator: Adobe Illustrator 28.1.0, SVG Export Plug-In . SVG Version: 6.00 Build 0)  -->
<svg version="1.1" id="Layer_1" xmlns="http://www.w3.org/2000/svg" xmlns:xlink="http://www.w3.org/1999/xlink" x="0px" y="0px"
	 viewBox="0 0 270 150" style="enable-background:new 0 0 270 150;" xml:space="preserve">
<style type="text/css">
	.st0{fill:#A72D18;}
	.st1{fill:#FFFFFF;}
</style>
<g>
	<circle class="st0" cx="135" cy="75.5" r="45"/>
	<path class="st1" d="M148.7,88.8L148.7,88.8v-0.6l0,0V88.8z M142.6,82.4c-0.1,3.5,2.6,6.3,6.1,6.4v-0.6c-3.2-0.1-5.6-2.6-5.5-5.8
		L142.6,82.4L142.6,82.4z M148.8,76.3c-3.3-0.1-6.2,2.7-6.2,6.1h0.6c0.1-3,2.6-5.5,5.6-5.5L148.8,76.3L148.8,76.3z M155,82.8
		c0.1-3.5-2.6-6.4-6.1-6.4v0.6c3.1,0.1,5.6,2.6,5.5,5.8L155,82.8L155,82.8z M148.7,88.8c3.3,0.1,6.2-2.7,6.2-6.1h-0.6
		c-0.1,3-2.6,5.5-5.6,5.5L148.7,88.8L148.7,88.8z M125.6,89.9c0-3.5-2.7-6.3-6.1-6.3v0.6c3.1,0,5.6,2.6,5.5,5.7
		C125,89.9,125.6,89.9,125.6,89.9z M119.4,96c3.4,0,6.2-2.8,6.2-6.2H125c0,3.1-2.6,5.6-5.6,5.6V96z M113.3,89.7
		c0,3.5,2.7,6.3,6.1,6.3v-0.6c-3.1,0-5.6-2.6-5.5-5.7L113.3,89.7L113.3,89.7z M119.5,83.6c-3.4,0-6.2,2.7-6.2,6.2h0.6
		c0-3.1,2.5-5.6,5.6-5.6C119.5,84.2,119.5,83.6,119.5,83.6z M154.9,58.2v-6.6h-0.6v6.6H154.9z M128.4,65.2
		c8.8-2.2,17.5-4.5,26.3-6.7l-0.1-0.6c-8.7,2.2-17.5,4.5-26.3,6.7C128.3,64.6,128.4,65.2,128.4,65.2z M128.1,58.3v6.6h0.6v-6.6
		C128.7,58.3,128.1,58.3,128.1,58.3z M154.6,51.3c-8.8,2.3-17.6,4.5-26.3,6.7l0.2,0.6c8.7-2.2,17.5-4.5,26.3-6.7L154.6,51.3z
		 M118.5,99L118.5,99v-0.6l0,0V99z M120.4,98.4h-1.9V99h1.9V98.4z M120.7,98.3c-0.2,0-0.3,0.1-0.4,0.1l0.2,0.6
		c0.2-0.1,0.2-0.1,0.3-0.1L120.7,98.3L120.7,98.3z M123.7,97.3c-0.9,0.6-1.9,0.9-3,1.1l0.1,0.6c1.1-0.2,2.2-0.5,3.2-1.1L123.7,97.3z
		 M128,89.6c0,3.4-1.4,6-4.3,7.7l0.3,0.5c3-1.9,4.6-4.6,4.6-8.2C128.6,89.6,128,89.6,128,89.6z M128,68.6c0,7,0,14,0,21h0.6
		c0-7,0-14,0-21L128,68.6L128,68.6z M128.8,67.5c-0.2,0.1-0.5,0.2-0.6,0.4c-0.2,0.2-0.2,0.4-0.2,0.7h0.6c0-0.2,0-0.3,0.1-0.3
		c0,0,0.1-0.1,0.3-0.1C129,68.1,128.8,67.5,128.8,67.5z M150.8,61.9c-7.3,1.9-14.6,3.7-22,5.6l0.2,0.6c7.3-1.9,14.6-3.7,22-5.6
		C151,62.5,150.8,61.9,150.8,61.9z M154.6,61c-1.3,0.3-2.5,0.6-3.8,1l0.2,0.6c1.2-0.3,2.5-0.6,3.8-1C154.7,61.6,154.6,61,154.6,61z
		 M154.9,75.9V61.3h-0.6v14.6H154.9z M154,75.8c0.1,0.1,0.2,0.2,0.4,0.3l0.4-0.5c-0.2-0.1-0.3-0.2-0.4-0.4L154,75.8z M146.9,74.2
		c2.6-0.6,5,0,7.1,1.6l0.4-0.5c-2.3-1.7-4.8-2.3-7.6-1.7C146.8,73.6,146.9,74.2,146.9,74.2z M140.4,83.9c-0.6-4.6,2.1-8.7,6.6-9.8
		l-0.1-0.6c-4.8,1.1-7.7,5.5-7,10.4L140.4,83.9L140.4,83.9z M151.5,90.8c-4.9,1.8-10.5-1.6-11.2-6.8l-0.6,0.1
		c0.8,5.6,6.7,9.2,12,7.3L151.5,90.8L151.5,90.8z M157.3,82.4c0,3.9-2.2,7.1-5.8,8.4l0.2,0.6c3.8-1.4,6.2-4.8,6.2-8.9L157.3,82.4
		L157.3,82.4z M157.3,48.3c0,11.4,0,22.8,0,34.1h0.6c0-11.4,0-22.7,0-34.1H157.3z M157.3,47.7L157.3,47.7L157.3,47.7L157.3,47.7
		L157.3,47.7L157.3,47.7L157.3,47.7L157.3,47.7L157.3,47.7L157.3,47.7v0.1l0,0v0l0,0v0l0,0v0l0,0v0l0,0v0l0,0v0l0,0v0l0,0v0l0,0v0
		l0,0v0l0,0v0l0,0v0l0,0v0l0,0v0l0,0v0l0,0v0l0,0v0l0,0v0l0,0v0l0,0v0l0,0v0l0,0v0l0,0v0l0,0v0l0,0v0l0,0v0l0,0v0l0,0v0h0.6v0l0,0v0
		l0,0v0l0,0v0l0,0v0l0,0v0l0,0v0l0,0v0l0,0v0l0,0v0l0,0v0l0,0v0l0,0v0l0,0v0l0,0v0l0,0v0l0,0v0l0,0v0l0,0v0l0,0v0l0,0v0l0,0v0l0,0v0
		l0,0v0l0,0v0l0,0v0l0,0v0l0,0v0l0,0v0l0,0v0l0,0v0l0,0v0l0,0v0H157.3z M157.2,48.1c0.1,0,0.3,0,0.5-0.1l-0.1-0.6
		c-0.2,0-0.3,0.1-0.5,0.1L157.2,48.1L157.2,48.1z M126,56.1c10.4-2.7,20.8-5.3,31.2-8l-0.1-0.6c-10.4,2.7-20.8,5.3-31.2,8L126,56.1z
		 M125.6,56.6c0-0.2,0-0.3,0.1-0.3c0,0,0.1-0.1,0.3-0.1l-0.2-0.6c-0.3,0.1-0.5,0.2-0.6,0.4c-0.1,0.2-0.2,0.5-0.2,0.7
		C125,56.6,125.6,56.6,125.6,56.6z M125.6,82.5c0-8.6,0-17.2,0-25.9H125c0,8.6,0,17.2,0,25.9H125.6z M125.6,83.1v-0.7H125v0.7H125.6
		z M124.8,83c0.1,0.1,0.2,0.2,0.4,0.3l0.4-0.5c-0.2-0.1-0.3-0.2-0.4-0.3L124.8,83z M117.8,81.3c2.6-0.5,4.9,0.1,7,1.7l0.4-0.5
		c-2.2-1.7-4.7-2.3-7.4-1.8L117.8,81.3L117.8,81.3z M110.9,89.1c0.3-3.8,3.2-7,6.9-7.8l-0.1-0.6c-4,0.8-7,4.2-7.4,8.3
		C110.3,89,110.9,89.1,110.9,89.1z M116.5,97.9c-3.6-1.3-5.9-4.9-5.6-8.8l-0.6-0.1c-0.3,4.1,2.1,8,5.9,9.4
		C116.3,98.4,116.5,97.9,116.5,97.9z M118.6,98.4c-0.7-0.2-1.4-0.3-2.1-0.6l-0.2,0.6c0.7,0.3,1.5,0.4,2.2,0.6L118.6,98.4L118.6,98.4
		z M148.7,88.5v0.3l0,0V88.5z M142.9,82.4h0.3l0,0H142.9z M148.8,76.6v0.3l0,0V76.6z M154.6,82.8h-0.3l0,0H154.6z M148.7,88.5v-0.3
		l0,0V88.5z M125.3,89.8H125l0,0H125.3z M119.4,95.7v-0.3l0,0V95.7z M113.6,89.7h0.3l0,0H113.6z M119.5,83.9v-0.3l0,0V83.9z
		 M154.6,58.2l0.1,0.3l0.2-0.1v-0.2C154.9,58.2,154.6,58.2,154.6,58.2z M128.3,64.9H128v0.4l0.4-0.1L128.3,64.9z M128.3,58.3
		l-0.1-0.3l-0.2,0.1v0.2C128,58.3,128.3,58.3,128.3,58.3z M154.6,51.6h0.3v-0.4l-0.4,0.1C154.6,51.3,154.6,51.6,154.6,51.6z
		 M120.4,98.7V99h0.1L120.4,98.7z M120.8,98.6l0,0.3l0,0L120.8,98.6L120.8,98.6z M123.9,97.5l0.2,0.3l0,0L123.9,97.5z M128.3,89.6
		H128l0,0H128.3z M128.3,68.6h0.3H128.3z M128.9,67.8l-0.1-0.3l0,0L128.9,67.8z M150.9,62.2l-0.1-0.3l0,0L150.9,62.2z M154.6,61.3
		h0.3v-0.4l-0.4,0.1C154.6,61,154.6,61.3,154.6,61.3z M154.6,75.9l-0.2,0.2l0.5,0.4v-0.6C154.9,75.9,154.6,75.9,154.6,75.9z
		 M154.2,75.5l-0.2,0.2l0,0L154.2,75.5z M146.8,73.9l-0.1-0.3l0,0L146.8,73.9z M140,84l-0.3,0L140,84z M151.6,91l-0.1-0.3l0,0
		L151.6,91z M157.6,82.4h0.3l0,0H157.6z M157.6,47.7h0.3v-0.4l-0.4,0.1L157.6,47.7L157.6,47.7z M157.1,47.8l-0.1-0.3l0,0L157.1,47.8
		z M125.9,55.8l0.1,0.3l0,0L125.9,55.8z M125.3,56.6H125H125.3z M125.3,83.1l-0.2,0.2l0.5,0.4v-0.6H125.3z M124.9,82.8l0.2-0.2l0,0
		L124.9,82.8L124.9,82.8z M117.7,81l0.1,0.3l0,0L117.7,81z M110.6,89l0.3,0l0,0L110.6,89z M116.4,98.1l0.1-0.3l0,0L116.4,98.1z
		 M118.5,98.7V99l0.1-0.6C118.6,98.4,118.5,98.7,118.5,98.7z"/>
	<path class="st1" d="M148.7,88.5c3.1,0.1,5.9-2.6,5.9-5.8c0.1-3.3-2.5-6.1-5.8-6.1c-3.2-0.1-5.9,2.6-5.9,5.8
		C142.8,85.8,145.4,88.5,148.7,88.5L148.7,88.5L148.7,88.5z M119.5,83.9c-3.2,0-5.9,2.6-5.9,5.9c0,3.3,2.6,6,5.8,6
		c3.2,0,5.9-2.6,5.9-5.9C125.4,86.6,122.8,83.9,119.5,83.9z M154.6,51.6c-8.8,2.3-17.6,4.5-26.3,6.7v6.6c8.8-2.3,17.6-4.5,26.3-6.7
		C154.6,58.2,154.6,51.6,154.6,51.6z M118.5,98.8c-0.7-0.2-1.4-0.3-2.1-0.6c-3.7-1.4-6.1-5.1-5.8-9.1c0.3-3.9,3.3-7.3,7.1-8
		c2.6-0.5,5.1,0.1,7.2,1.8c0.1,0.1,0.2,0.2,0.4,0.3v-0.7c0-8.6,0-17.2,0-25.9c0-0.5,0.1-0.6,0.6-0.8c10.4-2.7,20.8-5.3,31.2-8
		c0.1,0,0.3-0.1,0.5-0.1v0.5c0,11.4,0,22.8,0,34.1c0,4-2.3,7.3-6,8.7c-5.1,1.8-10.9-1.7-11.6-7.1c-0.6-4.8,2.1-9,6.8-10.1
		c2.7-0.6,5.1,0,7.4,1.6c0.1,0.1,0.2,0.2,0.4,0.3V61.3c-1.3,0.3-2.5,0.6-3.8,1c-7.3,1.9-14.6,3.7-22,5.6c-0.5,0.1-0.6,0.3-0.6,0.8
		c0,7,0,14,0,21c0,3.5-1.5,6.2-4.4,8c-1,0.6-2,0.9-3.1,1.1c-0.1,0-0.2,0.1-0.4,0.1L118.5,98.8L118.5,98.8L118.5,98.8z"/>
</g>
</svg>
