<svg width="700" height="400" viewBox="0 0 700 400" fill="none" xmlns="http://www.w3.org/2000/svg">
<mask id="mask0_280_9359" style="mask-type:alpha" maskUnits="userSpaceOnUse" x="0" y="0" width="700" height="400">
<rect width="700" height="400" rx="20" fill="white"/>
</mask>
<g mask="url(#mask0_280_9359)">
<path d="M330.022 46.2456C186.485 -25.7123 117.238 46.2456 86.3882 101.353C55.5382 156.46 69.5877 268.197 117.238 310.268C164.889 352.339 223.545 376.273 292.487 356.472C361.429 336.67 412.061 404.02 487.207 376.273C608.409 331.522 620.278 230.642 626.67 202.459C633.061 174.276 639.732 12.3677 549.308 46.2456C458.884 80.1236 439.572 101.165 330.022 46.2456Z" fill="#FEFCEB"/>
<mask id="mask1_280_9359" style="mask-type:alpha" maskUnits="userSpaceOnUse" x="70" y="16" width="560" height="368">
<path d="M330.022 46.2456C186.485 -25.7123 117.238 46.2456 86.3882 101.353C55.5382 156.46 69.5877 268.197 117.238 310.268C164.889 352.339 223.545 376.273 292.487 356.472C361.429 336.67 412.061 404.02 487.207 376.273C608.409 331.522 620.278 230.642 626.67 202.459C633.061 174.276 639.732 12.3677 549.308 46.2456C458.884 80.1236 439.572 101.165 330.022 46.2456Z" fill="#FEFCEB"/>
</mask>
<g mask="url(#mask1_280_9359)">
</g>
<path d="M144.058 12.5778C144.058 6.73586 148.794 2 154.636 2H328.112C333.954 2 338.69 6.73586 338.69 12.5778V208.268C338.69 214.11 333.954 218.846 328.112 218.846H154.636C148.794 218.846 144.058 214.11 144.058 208.268V12.5778Z" fill="#FFC2D6"/>
<path d="M235.911 220.171L234.628 217.876H152.4C148.562 217.876 145.445 214.759 145.445 210.921V11.4304C145.445 7.59208 148.562 4.4553 152.4 4.4553H330.365C334.203 4.4553 337.32 7.59208 337.32 11.4304C337.34 204.808 337.27 196.119 337.38 196.43C338.171 196.169 338.973 195.919 339.775 195.658V11.4304C339.775 6.23915 335.556 2 330.365 2H152.4C147.209 2 143 6.23915 143 11.4304V210.911C143 216.102 147.209 220.321 152.4 220.321C240.43 220.251 235.349 220.472 235.911 220.161V220.171Z" fill="black"/>
<path d="M323.42 28.1866H234.618C230.096 28.1866 226.431 31.8523 226.431 36.3743V112.148C226.431 116.67 230.096 120.336 234.618 120.336H323.42C327.942 120.336 331.608 116.67 331.608 112.148V36.3743C331.608 31.8523 327.942 28.1866 323.42 28.1866Z" fill="white" stroke="black" stroke-width="2"/>
<path d="M272.836 65.8858C272.969 68.9858 272.953 72.1358 272.786 75.3358L272.636 91.2858C272.136 91.2192 271.586 91.1858 270.986 91.1858C270.386 91.1858 269.786 91.1858 269.186 91.1858C268.586 91.1858 268.003 91.2025 267.436 91.2358C266.903 91.2358 266.436 91.2358 266.036 91.2358C265.969 89.8025 265.919 88.2525 265.886 86.5858C265.886 84.9192 265.869 83.2192 265.836 81.4858C265.836 79.7525 265.786 78.0525 265.686 76.3858C265.619 74.7192 265.503 73.1858 265.336 71.7858C265.103 72.1525 264.836 72.7358 264.536 73.5358C264.236 74.3025 263.936 75.1025 263.636 75.9358C263.336 76.7692 263.053 77.5025 262.786 78.1358C262.519 78.7692 262.319 79.0858 262.186 79.0858C262.019 79.0858 261.819 78.9192 261.586 78.5858C261.386 78.2192 261.169 77.7692 260.936 77.2358C260.736 76.7025 260.519 76.1358 260.286 75.5358C260.053 74.9358 259.853 74.3858 259.686 73.8858C259.519 73.3858 259.369 72.9692 259.236 72.6358C259.136 72.3025 259.086 72.1358 259.086 72.1358C258.819 75.2692 258.719 78.4358 258.786 81.6358C258.886 84.8358 259.036 87.9858 259.236 91.0858C258.169 91.2525 257.003 91.3192 255.736 91.2858C254.469 91.2525 253.303 91.2358 252.236 91.2358C252.169 91.2358 252.119 91.1858 252.086 91.0858C252.053 90.9525 252.019 90.6358 251.986 90.1358C251.953 89.6358 251.919 88.8858 251.886 87.8858C251.886 86.8525 251.886 85.5025 251.886 83.8358C251.886 82.1692 251.886 80.1025 251.886 77.6358C251.919 75.1692 251.936 72.2358 251.936 68.8358C251.969 65.4358 252.003 61.4692 252.036 56.9358C252.469 56.8025 252.969 56.7192 253.536 56.6858C254.103 56.6525 254.686 56.6525 255.286 56.6858C255.886 56.6858 256.486 56.7025 257.086 56.7358C257.686 56.7358 258.269 56.7192 258.836 56.6858H258.886C259.186 57.0192 259.486 57.5358 259.786 58.2358C260.086 58.9025 260.369 59.6192 260.636 60.3858C260.903 61.1525 261.153 61.8858 261.386 62.5858C261.653 63.2858 261.919 63.8358 262.186 64.2358C262.286 64.3358 262.386 64.3858 262.486 64.3858C262.586 64.4192 262.736 64.1025 262.936 63.4358C263.169 62.7692 263.403 62.0025 263.636 61.1358C263.903 60.2358 264.186 59.3525 264.486 58.4858C264.819 57.6192 265.136 56.9858 265.436 56.5858C265.669 56.6192 266.086 56.6192 266.686 56.5858C267.319 56.5525 267.986 56.5192 268.686 56.4858C269.419 56.4525 270.153 56.4358 270.886 56.4358C271.653 56.4025 272.303 56.3858 272.836 56.3858C272.703 59.5858 272.703 62.7525 272.836 65.8858ZM291.835 56.0858C292.635 56.1192 293.785 56.1192 295.285 56.0858H296.485V56.2858C296.485 59.1525 296.435 62.0358 296.335 64.9358C296.268 67.8358 296.201 70.7525 296.135 73.6858C296.101 76.5858 296.101 79.4858 296.135 82.3858C296.168 85.2858 296.268 88.1525 296.435 90.9858C296.168 91.2525 295.601 91.4025 294.735 91.4358C293.901 91.5025 292.985 91.5192 291.985 91.4858C291.018 91.4525 290.085 91.4025 289.185 91.3358C288.285 91.3025 287.668 91.3358 287.335 91.4358C287.568 88.4358 287.668 85.4192 287.635 82.3858C287.601 79.3525 287.535 76.3525 287.435 73.3858C287.368 70.3858 287.318 67.4358 287.285 64.5358C287.285 61.6025 287.435 58.7358 287.735 55.9358V55.8358C287.901 55.8025 288.218 55.8192 288.685 55.8858C289.185 55.9192 289.551 55.9358 289.785 55.9358C290.385 55.9692 291.068 56.0192 291.835 56.0858Z" fill="black"/>
<path d="M312.614 45.9569C312.675 45.8309 312.727 45.7228 312.771 45.6327L313.32 44.6322C313.689 44.0994 314.062 43.6022 314.44 43.1408C314.845 42.6701 315.341 42.2652 315.926 41.9261C316.307 41.6436 316.817 41.3458 317.457 41.0328C318.123 40.7105 318.722 40.3668 319.254 40.0017C319.786 39.6365 320.147 39.2335 320.338 38.7925C320.528 38.3516 320.356 37.8575 319.821 37.3103C319.493 36.9302 319.187 36.7376 318.9 36.7326C318.641 36.7183 318.378 36.7801 318.111 36.918C317.854 37.0378 317.596 37.18 317.339 37.3446C317.082 37.5092 316.814 37.5799 316.537 37.5569C315.952 37.3414 315.39 37.0808 314.849 36.7752C314.326 36.4783 313.799 36.1904 313.267 35.9115L313.28 35.8845C313.647 35.2175 314.121 34.625 314.705 34.1071C315.297 33.5711 315.953 33.1551 316.673 32.8589C317.394 32.5627 318.147 32.4047 318.934 32.3848C319.73 32.347 320.524 32.4971 321.315 32.835C322.179 33.163 322.923 33.6223 323.548 34.213C324.192 34.8124 324.666 35.4857 324.972 36.2328C325.295 36.9887 325.436 37.7784 325.393 38.6019C325.351 39.4255 325.094 40.2117 324.621 40.9607C324.271 41.5022 323.865 41.9506 323.405 42.3058C322.945 42.6611 322.466 42.9629 321.969 43.2113C321.489 43.4683 321.053 43.6577 320.661 43.7794C320.296 43.8918 319.892 44.0629 319.448 44.2927C318.817 44.6323 318.277 45.0155 317.826 45.4421C317.394 45.8775 316.963 46.3799 316.532 46.9494C316.427 47.0761 316.317 47.2118 316.203 47.3565C316.088 47.5012 316.014 47.6543 315.981 47.8157L315.968 47.8427C315.375 47.6452 314.808 47.3936 314.267 47.088C313.744 46.7911 313.194 46.5259 312.619 46.2923L312.592 46.2793C312.554 46.1724 312.562 46.065 312.614 45.9569ZM313.39 52.5611L313.336 52.535L310.296 51.034L310.215 50.9949C310.274 50.7794 310.369 50.5142 310.499 50.1993C310.647 49.8931 310.795 49.5869 310.943 49.2808C311.108 48.9833 311.257 48.6995 311.387 48.4293C311.535 48.1679 311.64 47.9741 311.701 47.848C311.916 47.8629 312.194 47.9307 312.536 48.0512C312.895 48.1804 313.246 48.3276 313.588 48.4928C313.931 48.6581 314.237 48.8283 314.508 49.0034C314.805 49.1693 315.004 49.3096 315.104 49.4245C315.095 49.4426 315.012 49.5913 314.855 49.8708C314.707 50.1322 314.537 50.4387 314.345 50.7902C314.153 51.1417 313.965 51.4842 313.782 51.8177C313.599 52.1512 313.477 52.381 313.416 52.5071L313.403 52.5341L313.39 52.5611Z" fill="black"/>
<path d="M380.613 313.072C378.198 311.498 375.843 309.705 373.367 308.151C372.716 307.299 371.964 306.498 371.123 305.816C373.758 304.734 375.362 303.231 375.522 303.12C376.614 306.979 378.468 311.669 380.603 313.082L380.613 313.072Z" fill="#FCF1B0"/>
<path d="M554.679 304.002C532.772 295.404 509.931 300.062 486.25 305.584C488.535 305.043 486.14 310.269 486.25 320.922C486.03 321.002 486.32 320.681 486.25 320.922C484.406 329.55 479.667 337.525 476.6 339.429C475.578 340.07 474.185 340.571 473.023 340.281C473.002 340.281 472.992 340.261 472.962 340.261C469.034 339.048 435.481 332.544 402.741 324.406C398.943 323.494 396.297 322.382 396.187 318.493C396.136 316.81 395.726 314.896 395.385 313.222C392.579 303.281 394.072 281.423 380.292 288.088C378.639 283.177 374.349 277.826 369.309 276.393C373.698 271.512 375.281 264.266 373.327 258.003C371.383 251.719 365.951 246.668 359.567 245.135C362.644 233.67 354.567 222.145 342.701 221.223C343.683 214.168 339.634 206.722 333.211 203.686C329.663 202.032 325.554 201.771 321.776 202.754C332.659 196.971 362.734 187.861 383.83 185.827C388.791 185.286 393.741 185.446 398.722 185.717C398.492 185.717 397.755 196.15 397.925 199.277C398.056 201.431 398.617 202.894 400.05 204.498C402.285 207.023 403.351 207.303 406.388 208.797C418.714 214.9 439.135 209.299 442.352 196.632C443.054 193.826 441.334 183.121 441.935 182.059C442.236 181.558 442.817 181.307 443.399 181.257C444.09 181.197 444.551 181.417 445.182 181.628C445.964 181.899 448.149 182.179 451.997 183.061C465.566 186.128 478.524 191.579 491.522 197.031C510.293 204.928 525.796 218.267 534.165 236.767C543.845 258.163 550.8 280.822 554.719 303.992L554.679 304.002Z" fill="#76E15C"/>
<path d="M486.25 320.922C486.14 310.269 488.535 305.043 486.25 305.584C509.931 300.062 532.772 295.404 554.679 304.002L554.719 303.992C550.8 280.822 543.845 258.163 534.165 236.767C525.796 218.267 510.293 204.928 491.522 197.031C478.524 191.579 465.566 186.128 451.997 183.061C448.149 182.179 445.964 181.899 445.182 181.628C444.551 181.417 444.09 181.197 443.399 181.257C442.817 181.307 442.236 181.558 441.935 182.059C441.334 183.121 443.054 193.826 442.352 196.632C439.135 209.299 418.714 214.9 406.388 208.797C403.351 207.303 402.285 207.023 400.05 204.498C398.617 202.894 398.056 201.431 397.925 199.277C397.755 196.15 398.492 185.717 398.722 185.717C393.741 185.446 388.791 185.286 383.83 185.827C362.734 187.861 332.659 196.971 321.776 202.754C325.554 201.771 329.663 202.032 333.211 203.686C339.634 206.722 343.683 214.168 342.701 221.223C354.567 222.145 362.644 233.67 359.567 245.135C365.951 246.668 371.383 251.719 373.327 258.003C375.281 264.266 373.698 271.512 369.309 276.393C374.349 277.826 378.639 283.177 380.292 288.088C394.072 281.423 392.579 303.281 395.385 313.222C395.726 314.896 396.136 316.81 396.187 318.493C396.297 322.382 398.943 323.494 402.741 324.406C435.481 332.544 469.034 339.048 472.962 340.261C472.992 340.261 473.002 340.281 473.022 340.281C474.185 340.571 475.578 340.07 476.6 339.429C479.667 337.525 484.406 329.55 486.25 320.922ZM486.25 320.922C486.03 321.002 486.32 320.681 486.25 320.922Z" stroke="black" stroke-width="2" stroke-linejoin="round"/>
<path d="M294.607 200.268C288.885 202.132 284.205 206.742 281.288 212.094C278.041 218.016 276.278 221.895 275.426 228.619V229.451L274.734 228.018C268.952 224.5 264.823 223.468 258.148 222.336C251.644 221.213 244.509 222.256 239.358 226.314C220.667 192.952 227.121 204.457 225.718 201.962C225.348 201.34 225.317 200.519 225.558 199.967C232.894 181.538 253.679 168.61 275.105 172.188C275.817 172.318 276.308 172.689 276.678 173.26C281.88 181.688 288.384 191.058 294.607 200.258V200.268Z" fill="#FADF4F" stroke="black" stroke-width="2" stroke-linejoin="round"/>
<path d="M221.289 337.224C221.239 336.552 220.627 336.051 219.986 336.081L189.27 338.166C188.598 338.216 188.087 338.797 188.127 339.469C188.167 340.11 188.718 340.651 189.43 340.611L220.146 338.527C220.818 338.477 221.329 337.895 221.289 337.224Z" fill="black"/>
<path d="M234.478 353.85L193.81 379.615C193.239 379.976 193.068 380.738 193.429 381.309C193.79 381.88 194.551 382.051 195.123 381.69L235.79 355.924C236.362 355.563 236.532 354.802 236.171 354.231C235.811 353.659 235.049 353.489 234.478 353.85Z" fill="black"/>
<path d="M248.949 366.607C248.297 366.397 247.616 366.748 247.405 367.389L238.075 395.941C237.815 396.732 238.406 397.544 239.238 397.544C239.749 397.544 240.23 397.213 240.4 396.702L249.731 368.151C249.941 367.509 249.59 366.818 248.949 366.607Z" fill="black"/>
<path d="M467.211 338.904L489.953 296.593L488.895 306.113C491.734 305.3 493.442 304.841 497.358 303.997C503.391 302.703 506.8 302.117 513.224 301.353C517.247 300.737 519.844 300.525 524.86 300.295C528.842 300.13 531.348 300.141 537.553 300.824C541.152 301.279 543.118 301.641 546.545 302.41L546.016 306.641L544.958 319.864L543.371 330.442L540.727 344.193L539.14 354.242L533.322 366.935L527.504 376.455L515.869 387.033H471.442L334.459 360.588L329.699 359.002L328.112 356.886L327.055 352.655L329.699 348.953L332.872 346.308L329.699 344.193L326.526 340.491L325.468 336.788L326.526 332.557L331.286 329.913L328.112 327.268L325.468 324.095L324.939 319.335L326.526 316.162L329.699 314.046L334.459 313.517L340.277 315.104L337.104 311.93L334.988 308.228L333.93 305.055L336.046 300.824L342.392 297.65L349.268 298.708L366.721 305.055L379.944 314.046L377.828 310.344L375.713 305.055L374.655 298.708L376.241 292.89L378.886 289.188L386.29 287.601L391.05 291.304L392.637 297.65L394.224 306.641L395.282 314.046L397.926 323.037L467.211 338.904Z" fill="#FFD7B1"/>
<path d="M260.414 222.548L274.694 227.837L276.81 223.077L279.454 214.614L283.157 209.325L288.445 203.508L295.85 199.805H302.726L309.601 202.45L313.832 207.739L315.948 205.094L323.881 201.921L331.286 202.979L338.161 207.21L342.392 214.614L342.921 221.49L350.855 223.606L357.201 229.423L359.846 236.828L359.317 245.29L364.077 246.877L370.424 252.695L374.126 260.099L373.068 269.619L369.366 275.966L376.77 281.255L380.473 287.601L375.184 294.477V303.468L370.953 307.17L368.837 306.113L350.326 298.708L341.335 298.179L335.517 300.824L333.93 307.699L338.69 314.046L331.286 313.517L325.468 317.219L324.939 324.095L331.286 329.913L326.526 333.086L325.468 337.846L328.112 342.606L333.93 346.308L328.112 349.482L326.526 354.771L330.757 359.531L328.112 363.233L323.352 368.522L317.006 372.224L311.717 372.753L304.312 370.108L299.023 364.291L291.09 366.406L283.685 364.291L277.868 359.002L275.752 351.597L269.934 353.184L263.588 352.655L257.241 348.424L254.068 344.722L253.01 337.846L253.539 331.499H250.894L242.432 328.326L237.143 323.566L233.97 316.69L233.441 309.286L235.027 303.997L233.441 302.939L227.094 297.65L223.921 290.246V283.37L227.094 275.966L221.805 270.677L219.161 265.917V257.983L222.863 250.05L227.094 246.877L234.499 244.761L233.441 242.117V236.299L235.027 231.01L240.845 224.663L249.836 222.019L260.414 222.548Z" fill="#87AB99"/>
<path d="M555.371 385.408H519.223C530.497 377.661 536.651 366.166 540.018 353.439C545.82 331.542 544.588 325.569 548.095 301.647C547.304 301.387 546.542 301.136 545.75 300.906C545.7 301.006 545.69 301.096 545.67 301.196C542.052 328.886 542.633 334.007 537.643 352.818C533.213 369.524 524.715 379.806 514.553 385.418C469.365 385.448 473.234 385.368 472.692 385.458C472.342 385.378 333.001 358.911 332.52 358.811C330.866 358.029 328.481 356.435 328.08 354.752C327.749 353.138 329.042 350.262 331.648 348.979C333.221 348.198 336.027 347.987 337.661 348.538C337.841 348.598 338.022 348.609 338.202 348.578C341.459 349.541 351.31 352.757 355.439 352.757C356.061 352.757 356.602 352.276 356.662 351.645C356.722 350.974 356.221 350.372 355.549 350.312C349.697 349.771 343.934 347.697 338.272 346.043C335.416 345.211 332.47 344.349 330.135 342.585C327.719 340.772 326.417 338.086 326.797 335.741C327.148 333.586 330.245 330.66 332.74 331.492C336.568 332.834 358.636 340.331 362.675 340.331C363.306 340.331 363.837 339.85 363.897 339.208C363.958 338.537 363.457 337.935 362.775 337.885C354.698 337.204 346.51 332.905 337.07 330.259C333.863 329.357 330.836 328.505 328.621 326.421C326.296 324.236 324.933 320.197 326.767 317.481C327.8 315.968 329.774 314.956 332.079 314.765C334.344 314.585 336.659 315.126 338.833 315.697C338.974 315.738 339.114 315.738 339.254 315.717C339.916 316.168 340.597 316.579 341.329 316.94C350.368 321.39 359.217 325.138 367.646 328.064C368.287 328.285 368.988 327.944 369.209 327.312C369.429 326.671 369.099 325.97 368.457 325.749C360.129 322.853 351.37 319.145 342.421 314.745C339.565 313.332 337.28 311.077 336.158 308.532C335.045 306.027 335.185 303.912 336.558 302.248C338.503 299.913 342.912 298.761 346.59 299.633C356.762 302.028 370.702 306.698 379.391 315.297C380.433 316.329 382.087 314.966 381.275 313.743C379.571 311.188 371.484 298.079 379.14 290.954C381.225 289.01 384.271 288.348 386.556 289.341C392.609 291.956 391.687 302.078 392.91 308.021C392.98 308.362 393.101 309.123 393.261 310.125C395.285 322.703 396.137 324.236 397.48 324.587C413.835 328.836 430.521 332.704 447.057 336.071C452.429 337.164 469.155 340.952 473.665 340.952C480.509 340.952 483.676 333.636 485.48 327.994C489.669 314.916 490.601 299.613 490.942 287.747C490.962 287.066 490.431 286.504 489.749 286.484C489.018 286.484 488.507 286.995 488.487 287.677C488.456 288.679 488.416 289.731 488.376 290.774C486.623 294.632 483.636 299.232 481.311 304.253C470.698 327.182 473.705 320.057 466.419 337.505C458.602 336.162 425.15 329.247 398.362 322.292C397.229 320.378 395.566 308.823 395.295 307.53C394.333 302.84 394.734 297.398 392.72 292.708C390.655 287.907 386.416 285.332 381.425 286.875C379.662 281.484 375.823 277.675 371.364 275.851C375.162 270.72 376.394 263.775 374.48 257.682C372.526 251.379 367.305 246.237 361.011 244.303C363.336 232.889 355.63 221.845 344.035 220.171C344.496 212.956 340.307 205.72 333.722 202.613C327.198 199.557 319.151 200.96 313.96 205.57C310.081 199.276 301.202 196.61 294.247 199.106C289.918 200.519 285.899 203.535 282.772 207.604C275.998 196.65 267.9 183.542 261.166 172.628C260.815 172.057 260.053 171.877 259.482 172.228C258.911 172.588 258.73 173.34 259.081 173.911C265.375 184.113 273.803 197.753 281.249 209.789C280.898 210.35 280.547 210.901 280.227 211.492C277.14 217.145 275.467 220.913 274.535 226.475C269.223 223.388 265.124 222.276 258.37 221.123C257.628 220.993 256.906 220.913 256.175 220.843C248.719 208.085 242.746 197.713 236.162 186.679C235.821 186.098 235.069 185.907 234.478 186.258C233.897 186.609 233.706 187.36 234.057 187.942C240.341 198.474 245.983 208.255 253.249 220.692C246.795 220.692 241.323 222.907 238.186 225.693C232.794 230.213 230.6 237.879 232.774 243.862C225.799 245.075 219.816 250.587 218.193 257.512C216.519 264.587 219.586 272.364 225.519 276.503C219.566 286.765 223.605 299.593 233.877 304.804C231.482 310.937 232.263 318.213 235.981 323.675C239.599 328.956 245.802 332.303 252.176 332.504C250.382 338.717 252.347 345.943 257.167 350.282C261.847 354.481 268.712 355.423 274.725 352.848C276.318 364.332 288.615 370.706 298.857 365.625C301.172 370.506 306.694 373.833 312.547 373.833C319.331 373.833 326.847 369.403 330.926 360.735C332.179 361.376 472.121 387.933 472.672 387.813C473.204 387.913 467.912 387.823 555.371 387.853C556.052 387.853 556.594 387.302 556.594 386.631C556.594 385.959 556.042 385.408 555.371 385.408ZM375.332 308.823C374.721 307.85 374.009 306.928 373.268 306.147C373.689 305.916 374.1 305.666 374.51 305.395C374.901 306.688 375.392 307.981 375.964 309.243C375.763 309.093 375.533 308.973 375.332 308.833V308.823ZM282.361 212.665C285.418 207.043 290.479 202.303 296.833 200.92C303.257 199.587 310.141 202.733 312.496 208.075C312.847 208.877 313.92 209.067 314.521 208.406C318.96 203.565 326.657 201.992 332.65 204.808C338.573 207.594 342.361 214.579 341.459 221.053C341.359 221.745 341.86 222.386 342.571 222.446C353.054 223.278 360.711 233.069 358.576 243.722C352.132 241.798 344.786 243.041 339.354 246.999C338.803 247.4 338.683 248.162 339.084 248.713C339.485 249.264 340.256 249.384 340.798 248.983C350.719 241.748 368.097 245.396 372.125 258.384C373.959 264.246 372.486 271.001 368.377 275.591C367.776 276.262 368.076 277.345 368.958 277.585C373.468 278.858 377.557 282.556 379.14 287.867C374.991 290.383 372.396 295.494 373.859 302.81C371.053 304.884 370.201 304.403 369.951 305.525C362.364 301.437 353.926 298.811 347.131 297.207C343.133 296.265 337.561 297.137 334.644 300.645C331.748 304.132 332.85 308.883 335.727 312.46C322.207 310.336 319.782 323.875 328.842 329.628C327.81 330.169 326.998 330.81 326.226 331.682L285.188 246.789C293.586 254.295 305.261 254.936 314.1 249.905C314.691 249.575 314.892 248.823 314.561 248.232C314.23 247.64 313.479 247.44 312.887 247.771C302.144 253.894 288.414 250.146 282.281 239.393C282.081 239.032 281.71 238.841 281.329 238.801L276.659 229.13V228.74C277.451 222.436 278.994 218.838 282.371 212.645L282.361 212.665ZM313.559 371.338C308.257 371.769 303.076 368.882 301.042 364.523C304.609 362.198 307.015 358.249 307.375 353.99C307.436 353.319 306.934 352.727 306.253 352.667C305.602 352.607 304.99 353.108 304.93 353.79C304.168 362.909 292.704 367.69 284.466 363.18C280.387 360.955 277.611 356.686 277.12 352.086C292.153 350.162 300.661 334.598 295.009 321.199C294.748 320.578 294.017 320.287 293.405 320.548C292.784 320.808 292.493 321.53 292.754 322.151C295.239 328.044 294.678 335.069 291.281 340.491C285.598 349.551 275.727 349.741 275.467 349.811C275.206 349.821 274.975 349.901 274.735 350.092C269.353 352.848 263.02 352.226 258.801 348.448C254.271 344.369 252.687 337.334 255.042 331.722C255.383 330.93 254.792 329.978 253.84 330.028C247.687 330.419 241.483 327.373 238.006 322.292C230.379 311.087 238.326 295.173 250.122 291.906C250.773 291.726 251.154 291.054 250.974 290.393C250.793 289.741 250.122 289.361 249.46 289.541C242.986 291.335 237.434 296.326 234.949 302.569C225.278 297.618 222.362 285.572 228.214 276.803C228.605 276.222 228.425 275.42 227.824 275.07C222.191 271.743 219.075 264.437 220.578 258.073C222.061 251.719 228.114 246.568 234.648 246.097C235.53 246.037 236.061 245.085 235.651 244.303C232.925 239.142 234.739 231.786 239.789 227.547C243.568 224.25 250.292 222.206 257.969 223.538C264.773 224.711 268.542 225.723 273.823 228.88L278.934 239.443C278.904 239.653 278.904 239.874 278.984 240.084C283.594 251.559 278.022 264.657 266.527 269.277C265.034 269.878 265.926 272.163 267.439 271.552C276.659 267.844 283.243 258.754 283.003 247.881L324.713 334.167C323.41 337.525 325.003 342.525 330.195 345.532L330.756 346.684C328.421 347.767 326.767 349.731 325.996 351.936C324.883 355.092 326.106 357.387 328.842 359.432C325.464 366.858 319.321 370.877 313.579 371.338H313.559Z" fill="black"/>
<path d="M227.094 194.517L228.151 172.303L247.191 159.61L269.934 170.716C243.249 171.033 232.336 185.598 227.094 194.517Z" fill="#FFD7B1"/>
<path d="M224.449 199.988C224.429 200.208 225.327 200.479 225.428 200.679C225.428 200.439 225.478 200.218 225.568 199.988C226.289 198.174 226.101 196.749 227.094 195.045C227.514 189.353 228.608 182.528 229.209 173.89C234.019 168.578 240.921 164.691 247.756 160.813C254.14 163.649 266.683 169.106 273.107 172.303C275.352 172.323 272.9 171.827 275.115 172.198C275.456 172.258 275.776 172.388 276.047 172.578C275.907 172.358 276.012 171.335 275.752 171.245C267.103 167.948 255.442 161.154 246.653 157.676C246.483 157.606 234.447 152.876 234.607 152.936C233.545 152.555 232.413 152.164 231.3 152.395C231.29 152.285 231.29 152.184 231.25 152.074C230.178 149.278 228.955 146.101 226.54 143.766C224.135 141.431 219.996 140.048 216.759 141.962C213.993 143.586 213.071 146.763 211.908 149.458C209.724 154.579 205.885 158.177 201.636 159.089C197.217 160.041 191.745 157.235 191.174 152.715C190.933 150.831 191.174 148.025 188.959 146.723C187.195 145.68 184.439 145.921 181.904 150.36C179.609 154.379 175.64 157.616 171.19 157.185C167.362 156.824 163.825 152.535 165.258 148.967C165.508 148.336 165.208 147.624 164.576 147.374C163.955 147.123 163.233 147.424 162.983 148.055C160.938 153.146 165.448 159.109 170.96 159.63C175.379 160.041 180.551 157.656 184.028 151.583C184.74 150.33 186.203 147.955 187.706 148.847C188.648 149.408 188.518 151.332 188.728 153.036C189.48 158.969 196.255 162.757 202.137 161.494C207.158 160.422 211.648 156.283 214.143 150.431C215.145 148.075 215.967 145.269 217.981 144.077C220.136 142.804 223.113 143.876 224.816 145.53C226.841 147.494 227.953 150.4 228.935 152.956C229.035 153.217 229.226 153.407 229.446 153.537C228.163 155.101 228.077 152.976 224.449 199.988Z" fill="black"/>
<path d="M388.934 83.4493C390.203 81.3337 397.925 72.6952 401.627 68.6403C405.435 83.4493 429.658 79.0419 441.294 74.987C444.256 96.9889 457.337 109.894 463.507 113.596C460.546 118.25 457.337 124.35 456.103 126.818L452.93 138.983L456.103 134.752C458.218 133.518 463.084 131.578 465.623 133.694C468.162 135.81 469.854 138.454 470.383 139.512C471.088 141.098 471.864 145.33 469.325 149.561C466.787 153.792 463.684 155.907 462.45 156.436C461.568 157.494 458.218 159.398 451.872 158.552C445.525 157.706 442.175 154.673 441.294 153.263L440.765 170.187C441.47 175.829 441.453 189.968 441.453 195.045C441.453 201.392 435.402 204.967 434.418 205.623C432.832 206.681 424.898 211.441 413.263 209.854C403.954 208.585 399.985 203.513 398.751 200.516L400.569 168.072C399.688 167.719 395.175 167.12 388.405 165.427C381.635 163.735 375.711 152.734 373.596 147.445C372.362 141.98 370.105 129.357 370.951 122.587C372.009 114.125 377.827 103.547 378.356 100.903C378.885 98.2582 387.347 86.0937 388.934 83.4493Z" fill="#FFD7B1"/>
<path d="M397.949 70.6382C375.902 93.2771 360.528 128.092 375.892 154.82C378.167 158.779 380.943 162.797 385.793 165.333C389.711 167.387 393.991 168.79 398.5 169.582C398.35 174.432 396.536 196.42 396.306 198.675C396.236 199.346 396.717 199.947 397.398 200.028C398.07 200.098 398.681 199.617 398.751 198.935C398.951 197.051 400.725 175.976 400.946 169.973C410.426 171.145 419.806 169.762 429.167 167.788C429.828 167.648 430.249 166.996 430.119 166.335C429.978 165.673 429.317 165.253 428.666 165.383C414.285 168.409 399.913 169.933 386.956 163.158C382.656 160.903 380.131 157.235 378.036 153.587C363.314 127.962 378.327 94.3193 399.723 72.3319C399.863 72.1916 399.944 72.0112 400.004 71.8308C406.568 81.7823 424.166 82.2433 435.43 78.7657C437.204 78.2146 438.807 77.4228 440.451 76.7314C444.6 98.3581 455.744 110.985 462.499 114.142C457.147 120.165 453.569 128.243 451.595 138.765C451.475 139.427 451.896 140.058 452.557 140.188C453.209 140.319 453.85 139.908 454 139.256C454.852 135.448 459.392 133.043 463.15 133.935C466.948 134.837 469.955 138.565 470.295 142.814C471.167 153.838 456.416 162.988 444.941 154.89C444.279 154.429 443.818 153.808 442.736 153.557C442.756 152.024 440.571 151.884 440.321 153.337C438.797 162.406 440.611 185.075 441.453 194.405C441.513 195.047 442.044 195.518 442.676 195.518C443.397 195.518 443.969 194.897 443.898 194.175C443.588 190.778 442.977 183.592 442.566 176.006C447.817 180.916 469.634 184.644 480.848 176.627C482.161 175.685 486.521 172.308 487.463 168.299C487.733 167.167 486.881 161.725 486.691 158.809C497.735 156.373 508.488 146.532 512.106 128.122C516.425 106.125 508.849 83.0951 491.291 67.9223C485.949 63.3024 480.057 61.8693 474.755 58.3016C469.474 54.7639 466.457 46.0251 462.739 40.4831C443.468 11.7009 417.742 17.9143 406.227 29.2288C397.278 38.0278 394.021 52.9701 397.949 67.301C398.24 68.3533 398.631 69.3554 399.102 70.3075C398.701 70.2173 398.27 70.3075 397.959 70.6282L397.949 70.6382ZM437.585 29.6898C438.256 29.79 438.717 30.4113 438.627 31.0828C438.527 31.7542 437.906 32.1952 437.234 32.115C426.361 30.5717 416.149 37.7672 413.954 48.5004C413.844 49.0917 413.312 49.4825 412.741 49.4825C411.909 49.4825 411.408 48.7309 411.549 48.0093C414.014 36.0034 425.439 27.956 437.575 29.6998L437.585 29.6898Z" fill="black"/>
<path d="M397.949 70.6382C375.902 93.2771 360.528 128.092 375.892 154.82C378.167 158.779 380.943 162.797 385.793 165.333C389.711 167.387 393.991 168.79 398.5 169.582C398.35 174.432 396.536 196.42 396.306 198.675C396.236 199.346 396.717 199.947 397.398 200.028C398.07 200.098 398.681 199.617 398.751 198.935C398.951 197.051 400.725 175.976 400.946 169.973C410.426 171.145 419.806 169.762 429.167 167.788C429.828 167.648 430.249 166.996 430.119 166.335C429.978 165.673 429.317 165.253 428.666 165.383C414.285 168.409 399.913 169.933 386.956 163.158C382.656 160.903 380.131 157.235 378.036 153.587C363.314 127.962 378.327 94.3193 399.723 72.3319C399.863 72.1916 399.944 72.0112 400.004 71.8308C406.568 81.7823 424.166 82.2433 435.43 78.7657C437.204 78.2146 438.807 77.4228 440.451 76.7314C444.6 98.3581 455.744 110.985 462.499 114.142C457.147 120.165 453.569 128.243 451.595 138.765C451.475 139.427 451.896 140.058 452.557 140.188C453.209 140.319 453.85 139.908 454 139.256C454.852 135.448 459.392 133.043 463.15 133.935C466.948 134.837 469.955 138.565 470.295 142.814C471.167 153.838 456.416 162.988 444.941 154.89C444.279 154.429 443.818 153.808 442.736 153.557C442.756 152.024 440.571 151.884 440.321 153.337C438.797 162.406 440.611 185.075 441.453 194.405C441.513 195.047 442.044 195.518 442.676 195.518C443.397 195.518 443.969 194.897 443.898 194.175C443.588 190.778 442.977 183.592 442.566 176.006C447.817 180.916 469.634 184.644 480.848 176.627C482.161 175.685 486.521 172.308 487.463 168.299C487.733 167.167 486.881 161.725 486.691 158.809C497.735 156.373 508.488 146.532 512.106 128.122C516.425 106.125 508.849 83.0951 491.291 67.9223C485.949 63.3024 480.057 61.8693 474.755 58.3016C469.474 54.7639 466.457 46.0251 462.739 40.4831C443.468 11.7009 417.742 17.9143 406.227 29.2288C397.278 38.0278 394.021 52.9701 397.949 67.301C398.24 68.3533 398.631 69.3554 399.102 70.3075C398.701 70.2173 398.27 70.3075 397.959 70.6282L397.949 70.6382ZM437.585 29.6898C438.256 29.79 438.717 30.4113 438.627 31.0828C438.527 31.7542 437.906 32.1952 437.234 32.115C426.361 30.5717 416.149 37.7672 413.954 48.5004C413.844 49.0917 413.312 49.4825 412.741 49.4825C411.909 49.4825 411.408 48.7309 411.549 48.0093C414.014 36.0034 425.439 27.956 437.575 29.6998L437.585 29.6898Z" fill="black" fill-opacity="0.2"/>
<path d="M417.151 95.4919C417.531 94.9307 417.391 94.169 416.83 93.7882C416.269 93.4074 415.507 93.5477 415.126 94.1089C409.334 102.597 403.541 102.036 398.24 105.083C395.694 106.546 392.978 109.282 393.009 112.589C393.039 115.996 394.622 119.223 396.236 122.24C396.556 122.831 397.288 123.061 397.899 122.741C398.49 122.42 398.721 121.678 398.4 121.077C396.927 118.331 395.484 115.415 395.464 112.569C395.444 110.324 397.598 108.28 399.462 107.207C404.183 104.501 410.977 104.561 417.151 95.4919Z" fill="black"/>
<circle cx="429.129" cy="105.134" r="2.64446" fill="black"/>
<circle cx="400.569" cy="89.2671" r="2.64446" fill="black"/>
<path d="M397.92 82.7644C403.812 80.7902 412.742 81.4316 414.916 87.1339C415.107 87.6249 415.568 87.9256 416.059 87.9256C416.921 87.9256 417.512 87.0637 417.201 86.262C414.525 79.2268 404.434 77.9941 397.138 80.4394C396.497 80.6599 396.146 81.3514 396.366 81.9928C396.577 82.6342 397.268 82.9749 397.92 82.7644Z" fill="black"/>
<path d="M445.683 110.444C445.963 111.066 446.695 111.326 447.306 111.045C447.918 110.765 448.188 110.033 447.908 109.422C444.5 102.026 438.577 95.993 431.242 92.4453C430.63 92.1547 429.899 92.4052 429.608 93.0166C429.317 93.6279 429.568 94.3595 430.179 94.6501C436.904 97.9071 442.556 103.66 445.683 110.444Z" fill="black"/>
<path d="M461.427 146.602C462.659 145.219 463.291 143.285 463.1 141.451C463.03 140.78 462.429 140.289 461.757 140.359C461.086 140.429 460.595 141.03 460.665 141.702C460.926 144.187 458.971 146.372 456.476 146.392C455.794 146.392 455.253 146.953 455.263 147.635C455.263 148.306 455.815 148.847 456.486 148.847C456.646 148.807 459.352 148.937 461.437 146.602H461.427Z" fill="black"/>
<path d="M410.698 133.354C409.595 136.43 406.829 138.846 403.642 139.527C400.445 140.198 396.938 139.106 394.693 136.741C394.232 136.25 393.45 136.23 392.959 136.691C392.468 137.152 392.448 137.934 392.909 138.425C395.174 140.81 398.471 142.173 401.758 142.173C406.949 142.173 411.419 138.635 413.013 134.185C413.243 133.544 412.912 132.843 412.271 132.622C411.63 132.402 410.928 132.732 410.708 133.364L410.698 133.354Z" fill="black"/>
<path d="M167.162 68.0024C170.69 70.3776 171.742 75.9496 176.081 78.4951C178.557 79.9482 182.054 79.9282 183.968 77.6232C186.323 74.7871 184.81 70.2773 186.734 68.6438C188.017 67.5615 190.382 68.3933 191.795 69.8564C193.499 71.6102 194.581 74.0154 196.696 75.7592C200.955 79.2768 208.171 77.994 210.937 73.1636C211.267 72.5723 211.067 71.8307 210.476 71.49C209.884 71.1492 209.143 71.3597 208.802 71.9409C206.808 75.4285 201.366 76.4407 198.259 73.8651C196.525 72.432 195.333 69.9767 193.559 68.1427C191.334 65.8478 187.586 64.7053 185.151 66.7698C182.164 69.2952 183.828 73.9553 182.084 76.0598C181.002 77.3526 178.777 77.2324 177.324 76.3805C173.686 74.2459 172.634 68.724 168.525 65.968C162.833 62.1298 155.026 65.8879 154.495 72.7527C154.445 73.4241 154.946 74.0154 155.627 74.0655C156.299 74.1056 156.89 73.6146 156.94 72.9331C157.11 70.6882 158.594 68.5135 160.628 67.5314C162.652 66.5493 165.278 66.7297 167.152 67.9924L167.162 68.0024Z" fill="black"/>
<path d="M164.697 112.058C165.288 111.717 165.489 110.975 165.158 110.384C163.745 107.909 168.155 101.946 175.5 108.901C179.128 112.348 182.075 116.718 187.647 116.718C189.38 116.718 191.084 116.197 192.427 114.894C194.111 113.27 194.612 110.945 195.293 109.051C195.704 107.889 196.636 105.904 198.229 105.644C199.913 105.373 201.527 107.127 202.91 108.801C206.096 112.649 208.692 112.719 210.316 112.108C210.947 111.867 211.268 111.166 211.027 110.524C210.787 109.893 210.085 109.572 209.444 109.813C207.79 110.434 205.816 108.47 204.784 107.227C203.471 105.644 201.026 102.687 197.809 103.219C195.714 103.559 193.99 105.343 192.968 108.229C192.317 110.033 191.906 111.977 190.703 113.14C188.929 114.844 185.833 114.433 183.688 113.14C181.243 111.667 179.409 109.262 177.174 107.137C167.704 98.1576 160.237 106.746 163.013 111.617C163.344 112.208 164.096 112.408 164.687 112.078L164.697 112.058Z" fill="black"/>
<path d="M285.989 300.304C279.114 304.614 270.014 302.639 265.565 295.845C265.194 295.273 264.432 295.123 263.861 295.494C263.3 295.865 263.139 296.626 263.51 297.187C268.691 305.085 279.274 307.41 287.291 302.379C287.863 302.018 288.033 301.266 287.672 300.685C287.312 300.114 286.56 299.933 285.979 300.294L285.989 300.304Z" fill="black"/>
<path d="M325.925 284.64C334.824 281.494 339.604 271.753 336.628 262.783C336.417 262.142 335.726 261.791 335.074 262.002C334.433 262.212 334.082 262.903 334.293 263.555C336.848 271.251 332.759 279.62 325.093 282.325C324.451 282.556 324.121 283.247 324.351 283.889C324.572 284.52 325.263 284.861 325.915 284.64H325.925Z" fill="black"/>
<path d="M585.002 111.757C592.85 95.2252 585.678 89.347 571.366 101.554C559.765 87.1639 551.6 91.5867 556.506 109.896C554.213 110.182 552.07 110.582 550.142 111.099C544.422 112.63 541.179 115.015 541.008 117.809C540.733 122.254 547.98 125.309 552.176 126.667C544.126 143.88 552.618 149.27 568.198 134.571C580.647 152.259 590.884 149.38 585.354 129.112C603.594 126.213 603.619 116.643 585.002 111.757ZM583.765 96.0789C584.628 96.0789 585.348 96.2931 585.899 96.7247C588.32 98.6368 587.357 104.433 583.971 111.496C581.884 110.989 579.638 110.557 577.261 110.22C575.585 107.338 573.806 104.682 571.999 102.354C574.88 99.8938 580.002 96.0789 583.765 96.0789ZM572.307 128.822C570.027 128.759 567.759 128.601 565.441 128.346C563.148 124.402 561.148 120.194 559.603 116.152C560.992 114.199 562.404 112.372 564.058 110.419C568.32 110.352 572.494 110.608 576.638 111.181C577.996 113.55 579.161 115.824 580.248 118.193C577.877 121.964 575.18 125.546 572.307 128.822ZM580.75 119.327C582.096 122.377 583.217 125.385 584.058 128.236C580.899 128.671 577.367 128.891 573.631 128.847C576.264 125.782 578.678 122.537 580.747 119.327H580.75ZM571.426 129.811C570.413 130.929 569.391 131.994 568.366 132.993C567.6 131.865 566.837 130.68 566.092 129.442C568.482 129.685 569.912 129.751 571.426 129.811ZM564.179 128.195C560.369 127.716 556.79 126.985 553.628 126.05C555.03 123.215 556.808 120.19 558.908 117.144C560.419 121.003 562.164 124.638 564.176 128.198L564.179 128.195ZM559.182 114.986C558.662 113.556 558.195 112.148 557.799 110.778C559.372 110.611 561.014 110.5 562.706 110.444C561.394 112.028 560.31 113.433 559.182 114.986ZM564.955 109.373C567.024 107.01 569.139 104.871 571.229 103.022C572.856 105.117 574.454 107.486 575.977 110.047C572.304 109.584 568.575 109.357 564.955 109.373ZM577.915 111.364C579.868 111.669 581.74 112.035 583.497 112.46C582.731 113.985 581.856 115.56 580.884 117.16C580.074 115.427 579.226 113.701 577.915 111.364ZM556.366 104.402C555.777 100.385 555.671 94.0218 559.665 94.0218C563.404 94.0218 568.229 99.2826 570.594 102.219C568.257 104.285 565.89 106.708 563.591 109.388C561.488 109.432 559.457 109.565 557.519 109.773C557.011 107.898 556.612 106.09 556.363 104.402H556.366ZM549.625 124.654C536.45 119.293 541.385 112.778 556.777 110.891C557.251 112.545 557.815 114.249 558.466 115.985C556.098 119.346 554.129 122.647 552.615 125.732C551.565 125.394 550.565 125.035 549.625 124.654ZM561.242 138.906C556.774 141.911 553.188 142.828 551.403 141.419C549.02 139.539 549.914 133.89 553.176 126.976C556.643 128.015 560.603 128.806 564.818 129.301C565.731 130.86 566.665 132.337 567.609 133.72C565.454 135.765 563.304 137.519 561.245 138.906H561.242ZM582.226 145.237C578.902 145.237 573.824 140.767 568.952 133.837C570.226 132.599 571.497 131.263 572.753 129.849C576.653 129.943 580.501 129.792 584.339 129.257C585.8 134.561 587.579 145.237 582.226 145.237ZM585.068 128.085C584.152 124.953 582.912 121.639 581.401 118.288C582.588 116.379 583.635 114.511 584.529 112.715C592.685 114.829 598.174 118.111 597.974 121.378C597.787 124.446 592.616 126.903 585.068 128.085Z" fill="black"/>
<path d="M555.416 104.959C556.841 104.959 557.995 103.791 557.995 102.351C557.995 100.91 556.841 99.7424 555.416 99.7424C553.991 99.7424 552.836 100.91 552.836 102.351C552.836 103.791 553.991 104.959 555.416 104.959Z" fill="#FADF4F"/>
<path d="M577.899 146.072C579.446 146.072 580.699 144.804 580.699 143.24C580.699 141.676 579.446 140.408 577.899 140.408C576.352 140.408 575.098 141.676 575.098 143.24C575.098 144.804 576.352 146.072 577.899 146.072Z" fill="#FADF4F"/>
<path d="M585.974 110.003C587.688 110.003 589.077 108.598 589.077 106.865C589.077 105.132 587.688 103.728 585.974 103.728C584.26 103.728 582.871 105.132 582.871 106.865C582.871 108.598 584.26 110.003 585.974 110.003Z" fill="#87AB99"/>
<path d="M559.073 142.859C560.572 142.859 561.787 141.63 561.787 140.115C561.787 138.6 560.572 137.371 559.073 137.371C557.575 137.371 556.36 138.6 556.36 140.115C556.36 141.63 557.575 142.859 559.073 142.859Z" fill="#87AB99"/>
</g>
</svg>
