<svg xmlns="http://www.w3.org/2000/svg" xmlns:xlink="http://www.w3.org/1999/xlink" xml:space="preserve" id="Layer_1" x="0" y="0" style="enable-background:new 0 0 1300 400" version="1.0" viewBox="0 0 1300 400"><style>.st1{fill:#fefceb}.st1,.st2,.st3{clip-path:url(#SVGID_00000173863660989891141380000016594537000999836076_)}.st3{fill:#ffebf1}.st4{clip-path:url(#SVGID_00000034056909208563501780000010793829854959849119_);fill:#18292d}.st5{clip-path:url(#SVGID_00000173863660989891141380000016594537000999836076_);fill-rule:evenodd;clip-rule:evenodd;fill:#ff4785}.st6{clip-path:url(#SVGID_00000136391065591410183550000013469669106682302375_);fill:#18292d}.st7,.st8,.st9{clip-path:url(#SVGID_00000173863660989891141380000016594537000999836076_);fill:#f8d512}.st8,.st9{fill:#87ab99}.st9{fill:#9ae986}.st10,.st11{clip-path:url(#SVGID_00000162330988770335901490000015386630743150095028_);fill:#87ab99}.st11{clip-path:url(#SVGID_00000183247633094619700720000005574656520405190297_)}.st12{clip-path:url(#SVGID_00000019652623511822786200000011483448111263446421_)}.st13{clip-path:url(#SVGID_00000173863660989891141380000016594537000999836076_);fill:#d09df6}.st14{clip-path:url(#SVGID_00000044167469812131365710000002451291758754882973_)}.st15{fill:#ffd7b1}.st15,.st16{clip-path:url(#SVGID_00000173863660989891141380000016594537000999836076_);fill-rule:evenodd;clip-rule:evenodd}</style><switch><g><path d="M0 1h1300v400H0z" style="fill:#fff"/><defs><path id="SVGID_1_" d="M0 1h1300v400H0z"/></defs><clipPath id="SVGID_00000097483013376816323850000011746360739683678098_"><use xlink:href="#SVGID_1_" style="overflow:visible"/></clipPath><path d="M1063 354.6c-190 44.8-322.5-2-365-31-211.6 63.5-570.3 115.2-611-149 3.2-171.2 111.3-160 165-133 86.2 48 304.9 125.3 490.5 50.5s366.1-31.3 397-8.6c102 38.5 113.5 226.3-76.5 271.1z" style="clip-path:url(#SVGID_00000097483013376816323850000011746360739683678098_);fill:#fefceb"/><path d="M1040.2 187.4c.7.7 1.3 1.3 1.9 1.6l-.4 2c-1.3-.3-2-1.2-3-2.2l1.5-1.4zm-7.9-9.8c1.2 1.7 2.6 3.4 3.8 5l-1.6 1.2c-1.3-1.6-2.6-3.4-3.9-5.1l1.7-1.1zm-6.3-7.1.8-.6c.6.8 1 1.5 1.8 2.6l-1.6 1.2c-.8-1.1-1.2-1.7-1.8-2.6l.8-.6zm-1.2-2.9c1.2 1.2 1.5 1.5 2.1 2.4l-.9.5-.9.5c-.4-.5-.8-.9-1.8-2l1.5-1.4zm-8.6-8c1.7 1.5 3.1 2.8 4.3 4l-1.4 1.5c-1.2-1.1-2.6-2.4-4.3-3.9l1.4-1.6zm-6.5-5.9c.8.7 1.5 1.3 2.2 1.9l-1.3 1.5c-.7-.6-1.4-1.3-2.2-1.9l1.3-1.5zm-2.4-2.1c.7.6 1.5 1.3 2.4 2.1l-1.3 1.5c-.9-.8-1.7-1.5-2.4-2.1l1.3-1.5zm-7.3-1c.4-1-.8-2.4-.8-3.5.4-2 2.4-.5 3.4.4l-1.3 1.5c-2.4-2-.3-.1-.1-1.9.3.4 1.4 3 .6 4.3l-1.8-.8zm-7.7-.6c1.1.3 2.1.6 3 .8l-.4 2c-.9-.2-2-.5-3.1-.8l.5-2zm-3-.8c1 .3 2 .5 2.9.8l-.6 1.9c-1-.3-1.9-.5-2.9-.8l.6-1.9zm-11.9-2.3c2 .2 4 .6 6 .9l-.4 2c-2-.4-3.9-.7-5.9-.9l.3-2zm-12.2-.7c2 0 4 0 6.1.2l-.1 2c-2-.1-4-.2-6-.2v-2zm-12.1.9c2-.3 4-.5 6.1-.6l.1 2c-2 .1-4 .3-5.9.6l-.3-2zm-12 2.4c1.9-.5 3.9-1 5.9-1.4l.4 2c-2 .4-3.9.9-5.8 1.4l-.5-2zm-11.5 4c1.9-.8 3.8-1.5 5.7-2.2l.6 1.9c-1.9.7-3.8 1.4-5.6 2.1l-.7-1.8zm-10.8 5.5c1.7-1 3.5-2 5.3-3l.9 1.8c-1.8.9-3.5 1.9-5.2 2.9l-1-1.7zm-9.9 7.2c1.5-1.3 3.1-2.6 4.8-3.8l1.2 1.6c-1.6 1.2-3.2 2.4-4.7 3.7l-1.3-1.5zm-8.4 8.9c1.2-1.6 2.5-3.2 3.9-4.7l1.5 1.4c-1.4 1.5-2.6 3-3.8 4.5l-1.6-1.2zm-5.7 10.9c.6-1.9 1.4-3.8 2.4-5.7l1.8.9c-.9 1.8-1.7 3.6-2.3 5.4l-1.9-.6zm-1.4 9.3c0-1 0-2.1.1-3.1l2 .2c-.1 1-.1 1.9-.1 2.9h-2zm.3 3.1c-.1-1-.2-2.1-.3-3.2l2-.1c0 1 .1 2 .2 2.9l-1.9.4zm4.4 11.8c-1.1-1.8-2.1-3.7-2.9-5.6l1.9-.7c.7 1.8 1.6 3.6 2.7 5.3l-1.7 1zm8.7 9.1c-1.7-1.2-3.3-2.6-4.7-4.1l1.4-1.4c1.4 1.4 2.9 2.7 4.5 3.9l-1.2 1.6zm11.2 5.6c-2-.6-4-1.4-5.8-2.4l.9-1.8c1.8.9 3.6 1.6 5.5 2.2l-.6 2zm12.4 1.8c-2.1.1-4.2-.1-6.3-.4l.3-2c2 .3 4 .4 5.9.3l.1 2.1zm9.3-1.6c-1 .3-2 .6-3.1.8l-.4-2c1-.2 1.9-.5 2.9-.8l.6 2zm3.1-1.1c-1 .4-2 .8-3 1.1l-.6-1.9c1-.3 2-.7 2.9-1.1l.7 1.9zm10.8-7c-1.5 1.5-3.2 2.9-5.1 4.1l-1.1-1.7c1.8-1.1 3.3-2.4 4.8-3.8l1.4 1.4zm7.3-10.7c-.9 2-1.9 3.9-3.1 5.7l-1.7-1.1c1.1-1.7 2.1-3.5 3-5.4l1.8.8zm3.1-9.2c-.3 1.1-.5 2.1-.8 3.1l-1.9-.6c.3-1 .6-2 .8-3l1.9.5zm.7-3.3c-.2 1.1-.4 2.2-.7 3.3l-1.9-.5c.3-1.1.5-2.1.6-3.1l2 .3zm-.3-13.4c.5 2.2.7 4.4.8 6.7h-2c0-2.2-.3-4.3-.7-6.3l1.9-.4zm-5-12.4c1.1 2 2.1 4 2.9 6l-1.8.8c-.8-1.9-1.7-3.8-2.8-5.8l1.7-1zm-5.4-8.4c.6.9 1.3 1.8 1.9 2.7l-1.7 1.1-1.8-2.7 1.6-1.1zm-1.9-2.4c.6.8 1.3 1.6 1.9 2.5l-1.6 1.2-1.8-2.4 1.5-1.3zm-9-8.5c1.7 1.2 3.3 2.4 4.9 3.9l-1.4 1.5c-1.5-1.4-3-2.6-4.6-3.7l1.1-1.7zm-11.2-5.5c2 .7 3.9 1.5 5.7 2.4l-.9 1.8c-1.8-.9-3.6-1.6-5.5-2.3l.7-1.9zm-11.9-3.1c2 .4 4.1.8 6 1.3l-.5 1.9a56 56 0 0 0-5.9-1.2l.4-2zm-12.1-1.8c2 .3 4.1.6 6 .9l-.3 2-6-.9.3-2zm-9-1.4c1 .2 2 .3 3 .5l-.3 2c-1-.2-2-.3-3-.5l.3-2zm-3.1-.4c1 .1 2 .3 3.1.4l-.3 2c-1-.2-2-.3-3-.4l.2-2zm-12.3-.6c2-.1 4.1 0 6.1.1l-.1 2c-2-.1-4-.1-6-.1v-2zm-12.2 1.1c2-.3 4.1-.6 6.1-.8l.2 2c-2 .2-4 .4-6 .8l-.3-2zm-12 2.8c2-.6 4-1.1 5.9-1.5l.4 2c-1.9.4-3.9.9-5.8 1.5l-.5-2zm-11.5 4c1.9-.8 3.8-1.5 5.7-2.2l.7 1.9c-1.9.7-3.8 1.4-5.6 2.1l-.8-1.8zm-11.1 5.2c1.8-.9 3.6-1.8 5.5-2.7l.8 1.8c-1.8.8-3.6 1.7-5.4 2.7l-.9-1.8zm-10.7 6c1.7-1.1 3.5-2.1 5.3-3.1l1 1.7c-1.7 1-3.5 2-5.2 3.1L826 155zm-10.1 6.9c1.6-1.2 3.3-2.4 5-3.5l1.1 1.7c-1.7 1.1-3.3 2.3-4.9 3.5l-1.2-1.7zm-9.6 7.5c1.6-1.3 3.2-2.6 4.8-3.8l1.2 1.6c-1.6 1.2-3.2 2.5-4.7 3.8l-1.3-1.6zm-9.2 8.1c1.5-1.4 3-2.8 4.5-4.1l1.3 1.5c-1.5 1.3-3 2.7-4.5 4.1l-1.3-1.5zm-8.6 8.6c1.4-1.5 2.8-2.9 4.3-4.4l1.4 1.4c-1.4 1.4-2.8 2.9-4.2 4.3l-1.5-1.3zm-8.2 9.1c1.3-1.5 2.7-3.1 4-4.6l1.5 1.3c-1.4 1.5-2.7 3-4 4.5l-1.5-1.2zm-7.7 9.5c1.2-1.6 2.5-3.2 3.8-4.8l1.6 1.3c-1.3 1.6-2.5 3.2-3.7 4.8l-1.7-1.3zm-7.1 10c1.1-1.7 2.3-3.4 3.5-5l1.6 1.2c-1.2 1.7-2.3 3.3-3.4 5l-1.7-1.2zm-6.4 10.4c1-1.7 2-3.5 3.1-5.2l1.7 1.1c-1.1 1.7-2.1 3.5-3.1 5.2l-1.7-1.1zm-5.7 10.8c.8-1.8 1.8-3.6 2.7-5.5l1.8.9c-1 1.8-1.9 3.6-2.7 5.4l-1.8-.8zm-4.7 11.4c.6-1.9 1.4-3.8 2.2-5.8l1.9.8c-.8 1.9-1.5 3.8-2.1 5.6l-2-.6zm-2.9 12c.3-1.9.7-4 1.2-6.1l1.9.5c-.5 2-.9 4-1.2 5.8l-1.9-.2zm-.2 9.3c-.1-1-.2-2-.2-3.1h2c0 1 .1 2 .2 2.9l-2 .2zm293.2-79.8c-.9-.9.5-2.3 1.4-1.4l-1.4 1.4zm-2.6-6.2c.8 1-.8 2.3-1.6 1.2l1.6-1.2zm-5.5-3.8c-.8-1 .8-2.2 1.6-1.2l-1.6 1.2zm-2.1-6.3c.8 1-.9 2.2-1.6 1.2l1.6-1.2zm-5.3-3.5c-.9-.9.5-2.3 1.4-1.4l-1.4 1.4zm-2.8-5.5c1 .9-.4 2.4-1.4 1.5l1.4-1.5zm-5.6-2.4c-1-.9.4-2.4 1.3-1.5l-1.3 1.5zm-3-5.4c1 .8-.4 2.4-1.3 1.5l1.3-1.5zm-5.9-2.6c-1-.8.4-2.4 1.3-1.5l-1.3 1.5zm-3.5-5.6c1 .8-.3 2.4-1.3 1.5l1.3-1.5zm-.7 4c-.6 1.2-2.4.3-1.8-.9l1.8.9zm-6.5-.7c1.3.2.9 2.2-.4 2l.4-2zm-6.5.4c-1.3-.3-.8-2.3.5-1.9l-.5 1.9zm-5.4-3.3c1.3.2.9 2.2-.4 2l.4-2zm-6.3 1c-1.3-.1-1-2.2.2-2l-.2 2zm-5.8-2.5c1.3.1 1.2 2.1-.1 2l.1-2zm-6.1 1.8c-1.3 0-1.3-2 0-2v2zm-6.1-1.7c1.3-.1 1.4 1.9.1 2l-.1-2zm-5.8 2.6c-1.3.2-1.6-1.8-.3-2l.3 2zm-6.2-1c1.3-.3 1.7 1.7.4 2l-.4-2zm-5.4 3.3c-1.2.4-1.8-1.6-.5-1.9l.5 1.9zm-6.4-.1c1.2-.4 1.9 1.5.6 1.9l-.6-1.9zm-4.9 4c-1.2.5-2-1.4-.8-1.8l.8 1.8zm-6.3.7c1.1-.6 2.1 1.2.9 1.8l-.9-1.8zm-4.3 4.7c-1.1.7-2.2-1.1-1-1.7l1 1.7zm-6.1 1.7c1-.8 2.2.9 1.2 1.6l-1.2-1.6zm-3.5 5.3c-1 .9-2.3-.7-1.3-1.5l1.3 1.5zm-5.7 2.7c.9-1 2.4.4 1.5 1.4l-1.5-1.4zm-2.4 5.9c-.8 1.1-2.4-.1-1.6-1.2l1.6 1.2zm-4.9 4c.6-1.2 2.4-.2 1.8.9l-1.8-.9zm-.5 6.4c-.4 1.2-2.3.6-1.9-.6l1.9.6zm-3.2 5.4c.1-1.3 2.1-1.1 2 .2l-2-.2zm2.2 6.1c.2 1.3-1.8 1.6-2 .3l2-.3zm-.4 6.4c-.5-1.2 1.4-1.9 1.9-.7l-1.9.7zm4.5 4.5c.7 1.1-1 2.2-1.7 1.1l1.7-1.1zm2.3 6.1c-.9-.9.6-2.3 1.4-1.4l-1.4 1.4zm5.9 2.5c1.1.7-.1 2.4-1.2 1.6l1.2-1.6zm4.2 4.9c-1.2-.6-.3-2.4.9-1.8l-.9 1.8zm6.4.4c1.2.4.6 2.3-.6 1.9l.6-1.9zm5.5 3.3c-1.3-.2-1-2.2.3-2l-.3 2zm6.2-1.6c1.3-.1 1.4 2 .1 2l-.1-2zm6.4 1.2c-1.3.3-1.7-1.7-.4-2l.4 2zm5.3-3.7c1.2-.5 2 1.4.8 1.9l-.8-1.9zm6.5-1.2c-1.1.7-2.2-1-1.1-1.7l1.1 1.7zm3.7-5.4c.9-.9 2.3.5 1.4 1.4l-1.4-1.4zm5.6-3.7c-.7 1.1-2.4 0-1.7-1.1l1.7 1.1zm1.3-6.5c.5-1.2 2.4-.4 1.8.8l-1.8-.8zm4-5.2c-.4 1.2-2.3.7-1.9-.6l1.9.6zm-.4-6.7c.2-1.3 2.2-1 2 .3l-2-.3zm2.5-6.4c0 1.3-2 1.3-2 0h2zm-2.8-6.3c-.3-1.3 1.7-1.7 2-.4l-2 .4zm-.1-6.8c.5 1.2-1.4 2-1.8.8l1.8-.8zm-4.6-5c-.7-1.1 1.1-2.1 1.7-1l-1.7 1zm-1.8-6.6c.7 1.1-1 2.2-1.7 1.1l1.7-1.1zm-5.3-4c-.8-1 .8-2.3 1.6-1.3l-1.6 1.3zm-2.7-5.8c1 .9-.4 2.4-1.4 1.5l1.4-1.5zm-6-2.3c-1.1-.7.1-2.4 1.1-1.6l-1.1 1.6zm-4.2-4.8c1.2.6.3 2.4-.9 1.8l.9-1.8zm-6.4-.5c-1.2-.4-.6-2.3.7-1.9l-.7 1.9zm-5.3-3.6c1.3.3.8 2.3-.5 1.9l.5-1.9zm-6.4.7c-1.3-.2-.9-2.2.4-2l-.4 2zm-5.7-2.9c1.3.2 1 2.2-.3 2l.3-2zm-6.3 1.1c-1.3-.2-1-2.2.3-2l-.3 2zm-5.7-2.9c1.3.2 1 2.2-.3 2l.3-2zm-6.3 1.1c-1.3-.1-1-2.2.2-2l-.2 2zm-5.9-2.5c1.3 0 1.2 2.1-.1 2l.1-2zm-6.1 1.9c-1.3.1-1.3-2-.1-2l.1 2zm-6.2-1.6c1.3-.1 1.5 1.9.2 2l-.2-2zm-5.8 2.7c-1.3.2-1.6-1.8-.3-2l.3 2zm-6.3-.8c1.3-.3 1.7 1.7.4 2l-.4-2zm-5.4 3.5c-1.2.4-1.8-1.6-.6-1.9l.6 1.9zm-6.4-.1c1.2-.4 1.9 1.5.7 1.9l-.7-1.9zm-5 4.1c-1.2.5-2-1.4-.8-1.9l.8 1.9zm-6.3.6c1.2-.6 2 1.3.8 1.8l-.8-1.8zm-4.6 4.4c-1.1.6-2.1-1.2-.9-1.8l.9 1.8zm-6.3 1.2c1.1-.7 2.1 1.1 1 1.7l-1-1.7zm-4.2 4.8c-1.1.7-2.2-1-1.1-1.7l1.1 1.7zm-6.2 1.7c1.1-.7 2.2.9 1.1 1.7l-1.1-1.7zm-3.8 5.1c-1 .8-2.2-.9-1.2-1.6l1.2 1.6zm-6.1 2.1c1-.8 2.3.8 1.2 1.6l-1.2-1.6zm-3.4 5.4c-1 .8-2.3-.7-1.3-1.5l1.3 1.5zm-6 2.4c1-.9 2.3.7 1.3 1.5l-1.3-1.5zm-3.1 5.6c-.9.9-2.3-.6-1.4-1.5l1.4 1.5zm-5.8 2.8c.9-.9 2.3.5 1.4 1.4l-1.4-1.4zm-2.8 5.7c-.9 1-2.4-.5-1.4-1.4l1.4 1.4zm-5.6 3.1c.9-1 2.4.4 1.5 1.3l-1.5-1.3zm-2.5 5.9c-.8 1-2.4-.3-1.5-1.3l1.5 1.3zm-5.4 3.4c.8-1 2.4.3 1.6 1.3l-1.6-1.3zm-2.2 6.1c-.8 1-2.4-.2-1.6-1.2l1.6 1.2zm-5.2 3.7c.7-1.1 2.4.1 1.6 1.2l-1.6-1.2zm-1.8 6.1c-.7 1.1-2.4 0-1.7-1.1l1.7 1.1zm-5 4c.7-1.1 2.4 0 1.7 1.1l-1.7-1.1zm-1.4 6.3c-.6 1.1-2.4.1-1.7-1l1.7 1zm-4.7 4.3c.6-1.2 2.4-.2 1.8.9l-1.8-.9zm-.9 6.4c-.5 1.2-2.4.3-1.8-.9l1.8.9zm-4.3 4.7c.5-1.2 2.4-.4 1.9.8l-1.9-.8zm-.3 6.4c-.4 1.2-2.3.6-1.9-.6l1.9.6zm-3.6 5.3c.3-1.3 2.3-.8 1.9.5l-1.9-.5zm.8 6.3c-.2 1.3-2.2 1-2-.3l2 .3zm-2.4 6c0-1.3 2-1.3 2 0h-2zm2.2 2.8c.2 1.3-1.8 1.5-2 .3l2-.3zm151.1-130.4-.2 1 .2-1zm54.5 22.3.8-.6-.8.6zm9.8 36.7-1-.2 1 .2zm-23.6 27.3.3 1-.3-1zm-45-29h1-1zM992 151l.3-1-.3 1zm17 3.5.7-.8-.7.8zm17 16-.8.6-.1-.1.9-.5zm16.2 18.5c1.3.2.9 2.2-.4 2l.4-2z" style="clip-path:url(#SVGID_00000097483013376816323850000011746360739683678098_)"/><path d="M1093 180.5c-.3 73.9-112.7 73.9-113 0 .3-73.9 112.7-73.9 113 0z" style="clip-path:url(#SVGID_00000097483013376816323850000011746360739683678098_);fill:#ffebf1"/><g style="clip-path:url(#SVGID_00000097483013376816323850000011746360739683678098_)"><defs><path id="SVGID_00000093871843276082210360000009788029009324662408_" d="M1093 180.5c-.3 73.9-112.7 73.9-113 0 .3-73.9 112.7-73.9 113 0z"/></defs><clipPath id="SVGID_00000121251300753529275280000000226081022682576318_"><use xlink:href="#SVGID_00000093871843276082210360000009788029009324662408_" style="overflow:visible"/></clipPath><path d="M1036.5 126c30.1 0 54.5 24.4 54.5 54.5h4c0-32.3-26.2-58.5-58.5-58.5v4zM982 180.5c0-30.1 24.4-54.5 54.5-54.5v-4c-32.3 0-58.5 26.2-58.5 58.5h4zm54.5 54.5c-30.1 0-54.5-24.4-54.5-54.5h-4c0 32.3 26.2 58.5 58.5 58.5v-4zm54.5-54.5c0 30.1-24.4 54.5-54.5 54.5v4c32.3 0 58.5-26.2 58.5-58.5h-4z" style="clip-path:url(#SVGID_00000121251300753529275280000000226081022682576318_);fill:#18292d"/></g><path d="M1045.8 171.9c2.3-17.3 28.9-17.6 31.2-.9.4 2.8-18.9 2.4-21.3 2.4-1.9-.2-10.1 1.6-9.9-1.5zM1058.2 191.3c-.2-2.1-.7-1.7-.3-4.6 1-5.4 5.2-3 4.8 1.7.1.6.6 3.2-.2 3.2-.4-.2-4.2.4-4.3-.3z" style="clip-path:url(#SVGID_00000097483013376816323850000011746360739683678098_);fill-rule:evenodd;clip-rule:evenodd;fill:#ff4785"/><path d="M1042.1 174.7c-3.5-22.6 35.7-25.8 35.8-1.4.5 1.4-1.2 1.6-1.1.1-1.5-23.7-34.6-19.6-34.7 1.3z" style="clip-path:url(#SVGID_00000097483013376816323850000011746360739683678098_)"/><path d="M1043.5 177.2c-6.6.8-4.9-4.7-2.8-2.9-4.5 4.2 33.7 0 37 1.7 11-3.5-25.8-1.6-27.5-1.5h-4.9c-1.3-.6 0-1.4 1.1-1.1 3.6.9 38.8-3.7 34.2 2.4-10.3 2.8-25.6.2-37.1 1.4z" style="clip-path:url(#SVGID_00000097483013376816323850000011746360739683678098_)"/><path d="M1041.3 201c-1.4-3.5.6-22-.5-24.1 2.2-4.9 1.7 24.3.5 24.1zM1050.3 200.2c-.4 0-.5-.3-.5-.5-.9-33.6 2.7-23.1.5.5zM1069.8 200.3c-1-.1-.4-2.3-.6-3.5.3-4-.4-14.6-.2-18.5 1.9-1.7.7 3.4 1.1 6.2.4 6.2 0 9.4.2 14.9.1.4-.1.9-.5.9zM1079.1 200c-.3 0-.5-.2-.5-.5 0-3.6 0-5.5-.3-10.4-.2-7.1-1.2-14.8.8-12.1-.8 3.2 1.7 19 0 23zM1058 191zm5 .1zm-5-.1c.8.4 3.4-.1 4.4 0 1.2-14.4-6.7-10.5-4.4 0zm1.1 1.3c-4.7.3-3.2-14.3 2.7-11.4 1.2-1.1 2.2 9.9 1.6 10.9-.7.8-3 .2-4.3.5zM1060 156.4c-1.1.2-.3-5.4-.5-5.8 0-.3.2-.5.5-.5 1.1-.2.3 5.4.5 5.8 0 .2-.2.5-.5.5z" style="clip-path:url(#SVGID_00000097483013376816323850000011746360739683678098_)"/><path d="M1057.6 153.2c-2.5-1.3 4.8-1.8 4.9-.7-.9 1.2-3.4.4-4.9.7zM1001.8 166.6zm32.7 33.7c-.9-.3-.4-.7-.5-1.9.5-24.2 0-30.9-.4-32.6-7.7.5-24 0-31.5.7 1.1 40.8-1.2 46-1 1.2-2.5-5 26.6-1.6 29.3-2.8 1.7.1 3.2-.6 4.1.2.9 1.9 1.1 13.2.6 33.4-.2 1.1.2 1.6-.6 1.8z" style="clip-path:url(#SVGID_00000097483013376816323850000011746360739683678098_)"/><path d="M988.8 200.9c-1-.5-.8-3.1-.6-3.8 3.5-1.1 10.2-1.1 13.5.1-3.3 1.6-8.9-.5-12.7.6 0 .6 1 2.7-.2 3.1z" style="clip-path:url(#SVGID_00000097483013376816323850000011746360739683678098_)"/><path d="M991.5 197.1c-.5 0-.6-.5-.5-.9-1-7.9 5.7-3.6 10.2-4.6 2.7 2.1-8 .5-9 1.2-.5.2.6 3.6-.7 4.3z" style="clip-path:url(#SVGID_00000097483013376816323850000011746360739683678098_)"/><path d="M994.9 192.1c-2.9-6.4 1.8-5.3 6.4-5.1 2.5 1.9-4.3.7-5.9 1-.7.7.8 3.7-.5 4.1z" style="clip-path:url(#SVGID_00000097483013376816323850000011746360739683678098_)"/><path d="m1001 182.9-.1.2.1-.2zm-.1.2zm-3.7 4.4c-.4 0-.7-.4-.5-.7-.1-6.1 1.2-3.4 4.9-4 1.5 1.7-2.5 1-3.8 1.1 0 1.1.6 3.2-.6 3.6zM1018 164.9zm15.3.8c-1.2-.5-.3-2.4-.6-3.6-2.5-.1-10.9 0-14.6.1-.2 1.2.3 2.8-.3 3.4-1.1-.1-.7-.1-.8-2.3.2-2.2-.2-1.9.7-2.3 2.9 0 7.4-.1 10.8-.1 4.3.1 5.9-1 5.4 3.9-.1.4-.2.9-.6.9z" style="clip-path:url(#SVGID_00000097483013376816323850000011746360739683678098_)"/><path d="M1023.7 165.6c-.9-.5-.7-.4-.9-3.8 0-.3.2-.6.5-.6s.6.3.5.6c-.2 3.2 1.3 2.9-.1 3.8zM1028.6 165.7c-.6.5-1.1-4.9-.2-4.5.9.3 1.2 4.5.2 4.5z" style="clip-path:url(#SVGID_00000097483013376816323850000011746360739683678098_)"/><path d="M1007.4 196.4c-1.6-8.2 8.5-12.6 6.8-.5-.4 1.2-5.8.7-6.8.5" style="clip-path:url(#SVGID_00000097483013376816323850000011746360739683678098_);fill-rule:evenodd;clip-rule:evenodd;fill:#ff4785"/><path d="M1015.7 196zm-4.3-9.6c-4.4 0-4 7.2-3.5 9.7 1.7-.1 6.3-.1 7.5-.1-.1.1.9-10.5-4-9.6zm-4 10.8c-1.6-2.1-1.1-7.1.5-10 2-3.4 7.9-1.9 8.1 1.9.9 7 .4 7.5.2 7.7-.7.5-8.1.2-8.8.4z" style="clip-path:url(#SVGID_00000097483013376816323850000011746360739683678098_)"/><path d="M1020.8 172.3c.1 0 5-.8 4.9.3-.1.9 1.3 5.9-.3 5.8-5.7 0-4.7-1.2-4.6-6.1" style="clip-path:url(#SVGID_00000097483013376816323850000011746360739683678098_);fill-rule:evenodd;clip-rule:evenodd;fill:#ff4785"/><path d="M1021.4 180.2c.6.5 3-.1 4.1-.1-.3-7.7 2.4-7.8-4.3-7.5.3 2-.6 5.9.2 7.6zm1 1.3c-3.9.4-2.2-7.5-2-9.7 1.2-.3 4.7-.6 5.9-.1 1 1.9.2 5.5.3 8.1.1 2.2-2.8 1.3-4.2 1.7zM283.5 186.2c-.3-.4-.7-.7-1.2-1l1-1.7c.6.4 1.2.8 1.6 1.4l-1.4 1.3zm2.4 4.6c-.2-.5-.5-1.2-.7-1.7l1.8-.8c.3.6.5 1 .7 1.7l-1.8.8zm2.8 3c-1.7-.1-2-1.5-2.8-3l1.8-.8c.3 1 1.5 2.1.8 1.8l.2 2zm4.1-3.9c-.6-.8-1.1-1.3-1.4-1.4l-.3-2c1.5-.1 2.3 1 3.3 2.2l-1.6 1.2zm1.8 2.5-1.8-2.4 1.6-1.2 1.8 2.4-1.6 1.2zm7.3 9.6c-1.2-1.6-2.5-3.2-3.7-4.8l1.6-1.2c1.2 1.6 2.4 3.2 3.7 4.8l-1.6 1.2zm7.8 9.4c-1.3-1.5-2.6-3.1-3.9-4.6l1.5-1.3c1.3 1.6 2.6 3.1 3.9 4.6l-1.5 1.3zm8.4 8.8c-1.5-1.4-2.9-2.8-4.3-4.3l1.4-1.4c1.4 1.4 2.8 2.8 4.3 4.2l-1.4 1.5zm9.5 7.7c-1.7-1.2-3.3-2.4-4.9-3.7l1.3-1.5c1.5 1.3 3.1 2.5 4.8 3.6l-1.2 1.6zm10.6 6.2c-1.9-.9-3.7-1.9-5.4-2.9l1-1.7c1.7 1 3.4 1.9 5.3 2.8l-.9 1.8zm11.4 4.3c-2-.6-4-1.2-5.8-1.9l.7-1.9c1.8.7 3.7 1.3 5.7 1.8l-.6 2zm9 1.9c-1-.1-2-.3-3-.5l.4-2c1 .2 1.9.3 2.9.5l-.3 2zm3 .4c-1-.1-2-.3-3-.4l.3-2c1 .1 2 .3 2.9.4l-.2 2zm12 1.1c-2-.1-4-.2-6-.4l.2-2c2 .2 3.9.3 5.9.4l-.1 2zm12.1.1c-2 .1-4 .1-6 0v-2h6v2zm12-.8-6 .6-.1-2c2-.1 4-.3 5.9-.6l.2 2zm11.9-2.2c-1.9.5-3.9.9-5.9 1.3l-.4-2c2-.4 3.9-.8 5.8-1.3l.5 2zm11.5-4.2c-1.8.9-3.7 1.7-5.6 2.4l-.7-1.9c1.9-.7 3.7-1.5 5.4-2.3l.9 1.8zm9.9-7.2c-1.4 1.5-3 2.8-4.7 4l-1.2-1.6c1.6-1.1 3.1-2.4 4.4-3.8l1.5 1.4zm6.1-10.8c-.6 2.1-1.4 4-2.4 5.8l-1.7-1c.9-1.6 1.7-3.4 2.2-5.3l1.9.5zm.9-9.2v3.1l-2-.1v-2.9l2-.1zm-.2-3.3c.1 1.1.1 2.2.2 3.3l-2 .1c-.1-1.1-.1-2.2-.2-3.3l2-.1zm-2-13.3c.6 2.1 1 4.4 1.3 6.6l-2 .3c-.3-2.2-.7-4.4-1.3-6.4l2-.5zm-6.4-12.1c1.6 1.6 3 3.6 4 5.6l-1.8.9c-1-1.9-2.2-3.7-3.7-5.1l1.5-1.4zm-9-5.2c1.2.3 2.2.7 3.3 1.2l-.8 1.8c-.9-.4-1.9-.8-3-1.1l.5-1.9zm-3.4-.7c1.2.2 2.3.4 3.5.7l-.5 1.9c-1.1-.3-2.1-.5-3.2-.7l.2-1.9zm-13.9 1.9c2.2-.9 4.4-1.6 6.8-1.9l.3 2c-2.2.3-4.3.9-6.3 1.7l-.8-1.8zm-11 8.6c1.4-1.9 3.1-3.6 4.9-5l1.2 1.6c-1.7 1.3-3.2 2.9-4.6 4.7l-1.5-1.3zm-4.5 9.5c.3-1.2.6-2.3 1.1-3.4l1.9.7c-.4 1-.7 2-1 3.1l-2-.4zm-.4 3.3c0-1.1.2-2.2.4-3.3l1.9.5c-.2.9-.3 1.9-.4 2.9l-1.9-.1zm2.7 12.6c-.7-1.9-1.4-4-1.9-6.1l1.9-.5c.5 2 1.1 4 1.8 5.8l-1.8.8zm4.9 8.1-.9.5c-.5-.9-.9-1.6-1.5-2.8l1.8-.9c.6 1.2.9 1.8 1.4 2.7.1 0 .1 0-.8.5zm1.7 2.8c-1.1-.9-1.6-1.4-2.3-2.1-.2.2 1.6-1.7 1.4-1.5.7.7 1.3 1.1 2.3 2.1l-1.4 1.5zm9.5 8.1c-1.8-1.4-3.4-2.8-4.8-4l1.3-1.5c1.4 1.2 3 2.5 4.8 3.9l-1.3 1.6zm10 7.6c-1.7-1.3-3.4-2.5-5-3.7l1.2-1.6c1.6 1.2 3.2 2.5 5 3.7l-1.2 1.6zm10.3 7.1c-1.8-1.1-3.5-2.3-5.2-3.5l1.1-1.6c1.7 1.2 3.4 2.3 5.2 3.5l-1.1 1.6zM437 249c-1.8-1-3.6-2-5.4-3.1l1-1.7c1.8 1.1 3.6 2.1 5.4 3.1l-1 1.7zm11.3 5.4c-1.9-.8-3.8-1.6-5.7-2.6l.9-1.8c1.9.9 3.8 1.8 5.6 2.5l-.8 1.9zm9 3.1-3-.9.6-1.9c1 .3 2 .6 2.9.9l-.5 1.9zm3 .7c-1-.2-2-.5-3-.7l.5-1.9c1 .3 1.9.5 2.9.7l-.4 1.9zm12.2 1.7c-2.1-.2-4.1-.4-6.1-.7l.3-2c2 .3 4 .5 6 .6l-.2 2.1zm12.3.3c-2.1.1-4.1.1-6.2 0v-2h6.1l.1 2zm12.3-.8c-2 .2-4.1.4-6.1.5l-.1-2c2-.1 4-.3 6-.5l.2 2zm12.2-1.7c-2 .3-4 .7-6.1 1l-.3-2c2-.3 4-.6 6-1l.4 2zm12-2.5c-1.9.5-3.9.9-6 1.3l-.4-2c2-.4 4-.9 5.9-1.3l.5 2zm11.8-3.3c-1.9.6-3.8 1.2-5.9 1.7l-.5-1.9c2-.6 4-1.1 5.8-1.7l.6 1.9zm11.6-4.1c-1.7.7-3.6 1.4-5.7 2.2l-.7-1.9c2.1-.7 4-1.5 5.6-2.2l.8 1.9zm8.4-4.5c-.6.6-1.5 1.2-2.7 1.8l-1-1.7c1.1-.6 1.9-1.1 2.3-1.6l1.4 1.5zM285 184.9c.9 1-.6 2.3-1.5 1.3l1.5-1.3zm.2 4.2c-.6-1.2 1.3-2 1.8-.8l-1.8.8zm3.3 2.7c1.3-.1 1.5 1.9.2 2l-.2-2zm2.9-3.3c-1.3.2-1.6-1.8-.3-2l.3 2zm4.8 2.7c.8 1-.9 2.2-1.6 1.2l1.6-1.2zm2.1 6c-.8-1 .8-2.2 1.6-1.2l-1.6 1.2zm5.2 3.6c.8 1-.8 2.3-1.6 1.2l1.6-1.2zm2.2 6c-.8-1 .7-2.3 1.5-1.3l-1.5 1.3zm5.5 3.3c.9 1-.7 2.3-1.5 1.3l1.5-1.3zm2.6 5.8c-.9-.9.6-2.3 1.4-1.4l-1.4 1.4zm5.7 2.8c1 .9-.4 2.4-1.4 1.5l1.4-1.5zm3.2 5.5c-1-.8.3-2.4 1.3-1.5l-1.3 1.5zm6 2.1c1.1.7-.1 2.4-1.2 1.6l1.2-1.6zm4 5c-1.1-.6-.1-2.4 1-1.7l-1 1.7zm6.3 1c1.2.5.3 2.4-.9 1.8l.9-1.8zm4.8 4.2c-1.2-.4-.5-2.3.7-1.9l-.7 1.9zm6.4 0c1.3.3.7 2.3-.5 1.9l.5-1.9zm5.4 3.3c-1.3-.2-.9-2.2.4-2l-.4 2zm6.3-1.1c1.3.1 1 2.2-.2 2l.2-2zm5.7 2.6c-1.3-.1-1.1-2.1.2-2l-.2 2zm6.1-1.5c1.3 0 1.2 2.1-.1 2l.1-2zm6 2.2c-1.3 0-1.3-2 0-2v2zm5.9-2.1c1.3-.1 1.3 2 .1 2l-.1-2zm6.1 1.7c-1.3.1-1.4-1.9-.1-2l.1 2zm5.8-2.5c1.3-.2 1.5 1.8.2 2l-.2-2zm6.2 1.1c-1.3.3-1.6-1.8-.4-2l.4 2zm5.4-3.3c1.3-.3 1.8 1.6.5 1.9l-.5-1.9zm6.4.2c-1.2.5-1.9-1.5-.7-1.9l.7 1.9zm4.7-4.2c1.2-.6 2.1 1.2.9 1.8l-.9-1.8zm6.1-1.4c-1 .8-2.2-.9-1.2-1.6l1.2 1.6zm3.2-5.4c.9-1 2.4.4 1.5 1.4l-1.5-1.4zm5.2-3.6c-.6 1.1-2.4.1-1.7-1l1.7 1zm.4-6.3c.3-1.3 2.3-.7 1.9.5l-1.9-.5zm2.9-5.6c0 1.3-2.1 1.2-2-.1l2 .1zm-2.2-6.3c-.1-1.3 1.9-1.4 2-.1l-2 .1zm1.4-6.8c.2 1.3-1.8 1.6-2 .3l2-.3zm-3.3-6.1c-.4-1.2 1.6-1.8 1.9-.5l-1.9.5zm-.5-6.9c.6 1.1-1.2 2.1-1.8.9l1.8-.9zm-5.4-4.3c-.9-.9.5-2.3 1.4-1.4l-1.4 1.4zm-4.3-5.4c1.2.5.3 2.4-.8 1.8l.8-1.8zm-7 .1c-1.3-.2-1-2.2.3-2l-.3 2zm-6.8-2c1.3-.2 1.6 1.8.3 2l-.3-2zm-6 3.7c-1.2.5-2-1.3-.8-1.8l.8 1.8zm-6.8 1.8c1-.8 2.3.8 1.2 1.6l-1.2-1.6zm-3.4 6.2c-.8 1.1-2.4-.2-1.6-1.2l1.6 1.2zm-5 5c.5-1.2 2.4-.5 1.9.7l-1.9-.7zm.5 6.7c0 1.3-2 1.3-2 0h2zm-1.2 6.4c-.3-1.3 1.7-1.7 1.9-.5l-1.9.5zm3.8 5.4c.5 1.2-1.4 1.9-1.9.7l1.9-.7zm.7 6.5c-.6-1.2 1.2-2.1 1.8-.9l-1.8.9zm5.3 3.6c1 .8-.4 2.4-1.3 1.5l1.3-1.5zm3.4 5.6c-1-.8.3-2.4 1.3-1.5l-1.3 1.5zm6.1 2.4c1 .8-.3 2.4-1.3 1.6l1.3-1.6zm3.7 5.4c-1-.8.2-2.4 1.2-1.6l-1.2 1.6zm6.1 2.2c1.1.8-.1 2.4-1.2 1.6l1.2-1.6zm4 5.2c-1.1-.7.1-2.4 1.1-1.6l-1.1 1.6zm6.3 1.8c1.1.7 0 2.4-1.1 1.7l1.1-1.7zm4.2 5c-1.1-.7-.1-2.4 1-1.7l-1 1.7zm6.4 1.4c1.1.6.2 2.4-1 1.8l1-1.8zm4.6 4.6c-1.2-.5-.3-2.4.9-1.8l-.9 1.8zm6.5.8c1.2.5.4 2.4-.8 1.9l.8-1.9zm5.2 4c-1.2-.4-.6-2.3.6-1.9l-.6 1.9zm6.4-.4c1.3.3.8 2.2-.4 2l.4-2zm5.7 3.1c-1.3-.2-1-2.2.3-2l-.3 2zm6.3-1.4c1.3.1 1.1 2.1-.2 2l.2-2zm6 2.3c-1.3 0-1.3-2 0-2v2zm6.1-2c1.3-.1 1.3 2 .1 2l-.1-2zm6.2 1.7c-1.3.1-1.4-1.9-.1-2l.1 2zm5.9-2.5c1.3-.2 1.5 1.9.2 2l-.2-2zm6.3 1.2c-1.3.2-1.6-1.8-.3-2l.3 2zm5.7-2.9c1.3-.2 1.6 1.8.3 2l-.3-2zm6.4.8c-1.3.3-1.7-1.7-.4-2l.4 2zm5.5-3.3c1.3-.3 1.7 1.7.5 1.9l-.5-1.9zm6.4.4c-1.2.4-1.8-1.6-.5-1.9l.5 1.9zm5.3-3.6c1.2-.4 1.8 1.5.6 1.9l-.6-1.9zm6.5 0c-1.2.5-1.9-1.5-.7-1.9l.7 1.9zm5-4c1.2-.5 2 1.4.8 1.8l-.8-1.8zm6.4-.9c-1.1.6-2.1-1.1-1-1.7l1 1.7zm1.3-3.3c.9-.9 2.3.6 1.4 1.5l-1.4-1.5zm-94.1 14.7.3-1-.3 1zm-62.8-39.6-.7.7-.2-.2.9-.5zm-6.2-23.7-1-.2 1 .2zm31.6-18.6-.3 1 .3-1zm16.8 32.9h-1 1zm-78.2 31.8-.1 1 .1-1zm-65.2-50-.8.6.8-.6zm-6.8 1.1-.9.4.9-.4zm-4.5-5.1c-1.1-.7 0-2.4 1-1.7l-1 1.7z" style="clip-path:url(#SVGID_00000097483013376816323850000011746360739683678098_)"/><path d="M300 172.5c-.3 73.9-112.7 73.9-113 0 .3-73.9 112.7-73.9 113 0z" style="clip-path:url(#SVGID_00000097483013376816323850000011746360739683678098_);fill:#ffebf1"/><g style="clip-path:url(#SVGID_00000097483013376816323850000011746360739683678098_)"><defs><path id="SVGID_00000122719465129251225060000002504404341522096771_" d="M300 172.5c-.3 73.9-112.7 73.9-113 0 .3-73.9 112.7-73.9 113 0z"/></defs><clipPath id="SVGID_00000025434737855135845160000007629196169297620400_"><use xlink:href="#SVGID_00000122719465129251225060000002504404341522096771_" style="overflow:visible"/></clipPath><path d="M243.5 118c30.1 0 54.5 24.4 54.5 54.5h4c0-32.3-26.2-58.5-58.5-58.5v4zM189 172.5c0-30.1 24.4-54.5 54.5-54.5v-4c-32.3 0-58.5 26.2-58.5 58.5h4zm54.5 54.5c-30.1 0-54.5-24.4-54.5-54.5h-4c0 32.3 26.2 58.5 58.5 58.5v-4zm54.5-54.5c0 30.1-24.4 54.5-54.5 54.5v4c32.3 0 58.5-26.2 58.5-58.5h-4z" style="clip-path:url(#SVGID_00000025434737855135845160000007629196169297620400_);fill:#18292d"/></g><path d="M233.7 134.8c-5.1-1.2-7.3-4-12.4 3.2-.3.4 1.7 12.4-1.1 16.3-14.8 20.8-.5 23.1-3.9 28.9-4.5 7.5 8 .9 9.1 14.6.1 1.6 12.1 15.4 17.4 15.4 26.7 0 12.5-14.9 21.3-36.2 1.7-4.2-3.5.7 3.3-7.8 3.5-4.4-4.8-11.6-2.1-18 2.1-5.2-7.8-6.7-7.8-11.8-.7-12.9-17.4-.3-23.8-4.6" style="clip-path:url(#SVGID_00000097483013376816323850000011746360739683678098_);fill-rule:evenodd;clip-rule:evenodd;fill:#ff4785"/><path d="M264.3 175.5c-4.4-3 2.2-13.9-3.6-16.1-4.6-2.4-.4-4.1-6.2-6.9-3-1.7-3.4-1.1-5.4-5.4.2-3.3 3.4 3.9 4 3.3 5.2 2.3 5.3 3.5 6.7 7 8.6 4.5 1.9 11.3 4.9 17.2.4.2.1.9-.4.9zM226.3 174.7c-2.5-22.6 21.1-18.7 21.1-27.3-.2-.8 1-1 1.2-.3.5 7.7-14.8 8.1-18.7 15-4 4.9-.3 8.1-3.6 12.6zM250.9 175.8zm.3 1.7zm.6.6c-.9 0-.6-1.7-.9-2.3-.5-1.2-.7-2.2-.9-3.1.3-1.7-2.3-4-2.1-5.9 2.2-1 5.6 11.4 3.9 11.3z" style="clip-path:url(#SVGID_00000097483013376816323850000011746360739683678098_)"/><path d="M254.5 181.4c-1.5.4-2.3-1.5-.4-1.2 4.4-.2-3.7-9.8-.7-11.6 1.4 1.1.6 4.8 1.7 5.8 1.2 2 2.9 6.9-.6 7zM250.2 181.9c-4.9-1 1.9-5.4 1.8-1.4-.7.7-2-1.3-2.3 0 .8 0 1.7 1.1.5 1.4z" style="clip-path:url(#SVGID_00000097483013376816323850000011746360739683678098_)"/><path d="M247.4 182c-1.7-.8-1.9-3.7.2-4.6.7-.3 1.2.8.5 1.1-2.1.5 1 3.1-.7 3.5zM236.4 172.4c-1.7-.6.6-1.5 1.1-2.3 1.2-2.3 7.5-3.6 7.4.2-.3.2-.6.2-.9-.1-2.7-3.3-5.3 1-7.6 2.2z" style="clip-path:url(#SVGID_00000097483013376816323850000011746360739683678098_)"/><path d="M238.5 172zm2.1 1.5c-.8 0-1.9 0-2.8-.6-1.3-2.2 4 .6 5.6-1.8 4.3-2.2-.6 3.1-2.8 2.4zM236.2 169.7zm0 0zm-.3 1.1c-1.8-.5.7-1.7 1.1-2.2 1.6-2.3 7.5-3.6 8.3-.6-.2.3-.6.4-.8.2-3.3-2.2-6.1 1-8.6 2.6zM260.1 169.8c-.5 0-.8-.6-.5-1-.1-2.1-3.7-.7-5.1.2-3.6-.7 4.4-3.6 5.4-2 .6-.1 1.8 2.5.2 2.8z" style="clip-path:url(#SVGID_00000097483013376816323850000011746360739683678098_)"/><path d="M261 169.2c-.5 0-.8-.6-.5-1 1-3.4-5.2-1.8-7.1-.4-3.7-.6 5.4-4.2 6.8-2.5 1.5.6 2.8 3.1.8 3.9zM258.4 171.4c-1.6.4-6.1-2.1-3.1-2.3 1.6 1.6 3.7.6 5.1.9.5 1.1-1.2 1.4-2 1.4zM235.4 168.1c-2.9-2.2 10.4-6.3 10.9-2.6-1 1-2.7-.8-3.6-.2-3.1-.1-5 1.3-7.3 2.8z" style="clip-path:url(#SVGID_00000097483013376816323850000011746360739683678098_)"/><path d="M253.5 165.8c-2.6-2.5 9.2-4.1 8.4-.7-2.8-.6-5.6-1.3-8.4.7zM246.2 188c-1 .3-1.9-1.2-.5-1.3 2.5.4 3.7-2.4 6.5-1.1 1.6-.2 3.2-1.8 5.1.6.2.3.1.7-.1.9-1.4.2-1.7-1.8-3.6-.6-.6.2-1.3.5-1.9.2-2.1-.8-3.3 1.4-5.5 1.3z" style="clip-path:url(#SVGID_00000097483013376816323850000011746360739683678098_)"/><path d="M248.3 189.1zm2.1 1.1c-2.6.4-2.9-3.4-1-1.6 1.2 1.1 3.8-.7 5.2-.2 1.3.5 1.8-1.1 2.8-.6.6 2.6-5.3 1.5-7 2.4zM247.6 186c-1-.1-.6-1.2 0-1.5 3.2-2.5 3.8-.8 6.3-1.2 2.3-1.5 4.9 2.1 2.8 2.1-.9-.5-.8-1.9-2.4-1-2.9.7-3.6-1-6.7 1.6z" style="clip-path:url(#SVGID_00000097483013376816323850000011746360739683678098_)"/><path d="M249.3 200.1c-2 .5-7.9-2.1-4.7-2.6 3.4 2.8 15.1 1.4 15.4-3.8 2.2-.9 2.2-20.9 4.2-17-1.3 11.5 0 24-14.9 23.4z" style="clip-path:url(#SVGID_00000097483013376816323850000011746360739683678098_)"/><path d="M266.2 209.3c-1.6-1-7.3-21.2-3.6-18.7-.8 7 4.3 13.1 3.6 18.7zM240 218.6c-5.4-4.9-13.7-24-12.5-31.4 2.4 7.6 7.1 24.9 13 30.3.3.5 0 1.1-.5 1.1zM216.8 182.6c-12-5-6.6-18.3 1.4-23.8 9.6-7.8 13-25.1 29-17.8.7.3.3 1.4-.5 1.1-15.3-7.1-18.4 10.6-27.7 17.6-7.9 4.7-11.9 18.3-2 21.7.7.2.5 1.2-.2 1.2z" style="clip-path:url(#SVGID_00000097483013376816323850000011746360739683678098_)"/><path d="M228.4 204.3c-7-.4-7.7-7.6-7-11.2-7.9 5.2-14.4-8.1-7.2-12.5-.7 3.4-3.9 7.9.4 11.1 4.3 3.1 3.9-.1 7.4.2.8.2.7 1 .6 2.2-1.9 11.4 11.1 7.8 5.8 10.2zM266.6 172.9c-.5 0-.9-.4-.7-.9 5.1-5.9-2.9-7.4 1.3-15.6 1.9-7-9.4-10.8-9.3-16.7 1.2-.5 1.7 1.9 2.2 2.5 2.2 4.1 10.3 8.2 8.2 14.6-4 8 4.7 10.1-1.7 16.1z" style="clip-path:url(#SVGID_00000097483013376816323850000011746360739683678098_)"/><path d="M214.2 160.8c-.6 0-.9-.9-.3-1.1 4.4-2.6 2.7-14.7 3.3-20.6 1.9-10.5 15.5-13.3 21.3-4.7 1.9-2 3.4-3.9 5.4-2.1 5.5 2.5 10-7.7 18-.5 2.9 1.8 1.6 11.3-.3 8.1.8-1.4 1.5-5.4-.4-7.2-6.5-6.8-12.6 4-17.8.6-2-2-2.8 2.3-4.7 2.3-5.6-3.5-7.1-8.2-15.4-3.2-9.7 4.2-.8 24.3-9.1 28.4z" style="clip-path:url(#SVGID_00000097483013376816323850000011746360739683678098_)"/><path d="M236.6 154.2c-.7 0-.8-1-.2-1.2.4-.2.8-3-.5-2.9-7.4.2-3.6-9.1 1.2-9.7.2.3.1.7-.2.8-4 2.7-5.9 7.7-1.1 7.7 2.7-.3 3 4.9.8 5.3zM226.4 165.6c-1.5-.4.8-3-.6-3.6-4.2-2.7-1.4-8.9 2.2-10.4.6.5-.1 1.1-.4 1.5-7.5 6.9 3.1 7.7-1.2 12.5zM242.2 150.8c-3-2 6 .4 4.1-7.2 2.3-3.4 2.5 8.4-4.1 7.2zM257.8 152c-5.5-.5 1.5-4-6.7-6.9-.3-.1-.5-.5-.3-.8.1-.3.5-.5.8-.3 5.4 2.3 5.5 4.4 5.1 6.2 0 1.8 4.6-.3 4.5-1.4.5-.8-1-1.2-.5-2 4.1 0 .4 5.9-2.9 5.2zM262.3 157.1c-1 .3-2.7-1.1-.9-1.4 1 .3 1.7.1 2.2-.4 1.6-1.1-.2-4.6.7-6 2.5 1.6 1.6 8.1-2 7.8zM220 172.8c-2.6.9-4.5-6.9-1.9-4.5.1 1.3.3 3.2 1.8 3.3 1.1.1 2.4-1.2 3-5 .1-.8 1.3-.6 1.2.2-.8 5.3-3 6-4.1 6zM225.9 146.1c-1.3-.1 1-4.8-.2-6-1-3 2.5-7 4.2-7 2-.4 6.6 3.3 6.6 6.1-4.3-2.4-6.3-9.3-9.8-.8-.2 1.9 1.8 5.3-.8 7.7zM255.2 140.5c-.7.1-2-.4-1.5-1.3 1.1-.4 3.1.6 3.6-1.3 1.4-5.7-5.2-5.5-6.7-1.4-.7 1.4-1.2 1.6-6.1 1.7-.8 0-.8-1.2 0-1.2 7.6-.1 3-.6 7.5-3.8 5.6-4.8 10.1 7 3.2 7.3zM224.8 199.1c-2.3-1.1 3.3-1.5 1.4-6.1-.1-.3.1-.7.5-.7 1.9 1.1 1.5 5.9-1.9 6.8zM224.9 188.7c-2.8-.1-3-3.4-3.8-5.7-1.4-2.1-2.8-6.4.7-7.9 3.1-2.2 5 3.6 2.2 1.2-.3-.4-.5-.7-1.6-.1-2.8 1.2-1.3 4.4-.2 6.2 1 1.8.7 6 3.4 4.8 3.5-2.8-2.2-6.7.3-10.8.3-.7 1.5-.2 1.1.5-1 2-.3 3.7.3 5.4 1.2 2.2 1 6-2.4 6.4z" style="clip-path:url(#SVGID_00000097483013376816323850000011746360739683678098_)"/><path d="M225.7 184.4c-3.4-.2-1.6-8.8-.3-5.2-.7 1.4-.8 3.3.6 4.1.5.3.3 1.2-.3 1.1zM220.8 154.9c-1.8-.9 1.5-2.4.6-4-.8-4.1-2.7-5.6.5-10.1.4-.7 1.5 0 1 .7-4.4 4.7 2.9 9.6-2.1 13.4zM239.8 197.2c-3.3-2-7.2-5-8-8.3 3.2 1.1 4.5 5.6 8.3 7.1.5.4.3 1.2-.3 1.2zM854.7 248.6c-1.2-3.6-3.5-7-.4-10.4 11.4 2.8 12.2 8.7.4 10.4zm-1.9 11.6c-2.2 0-5.7-3-8.9-7.7 2.3-3.8 6.5-2.3 10.4-3.1.9 3.6 2.1 10.8-1.5 10.8zm-14.2-4.3c-7.9 5.3-9.3 0-5.4-8 3.2 1.3 8.3.3 9.7 4.5-1.4 1.4-2.9 2.6-4.3 3.5zm-7.8-9.6c-8.9-3.6-5.6-8 4.8-9.3 2.4 3.8-1.5 6.8-2.8 10-.7-.2-1.4-.4-2-.7zm4.6-13.6c-1.8-10.3 5.8-7.1 9.6-1.5-2.6 2.4-4.7 5.7-8.8 5.1-.4-1.3-.7-2.5-.8-3.6zm14.5 4.7c1.3.2 2.6.5 3.8.7-.5 1-1.1 2.1-1.8 3.2-.6-1.2-1.1-2.4-2-3.9zm-8.8-1.4c1.4-1.6 2.8-3 4.2-4.3 1.1 1.4 2.2 3 3.2 4.7-2.4-.2-4.9-.4-7.4-.4zm-3.9 3.8c-.4-1-.7-1.9-.9-2.8 1.1-.1 2.2-.2 3.3-.2-.9 1-1.6 2-2.4 3zm3.4 8.9c-2.6-.3-5-.8-7.1-1.4.9-1.9 2.1-3.9 3.6-6 1 2.6 2.2 5 3.5 7.4zm4.9 1.1c-.7.8-1.4 1.5-2.1 2.1l-1.5-2.4c1.6.2 2.6.3 3.6.3zm6.3-7.1c.9 2.1 1.7 4.1 2.2 6-2.1.3-4.5.4-7 .4 1.8-2 3.4-4.2 4.8-6.4zm-5.7 6.4c-5.6 1.2-6.8-4.4-8.6-8.5 6.7-10.1 20.2 0 8.6 8.5zm7.7-22c3.9.5 2.5 5 .1 10.4-4.2.1-6.1-3-8.1-6.2 2-1.7 5.5-4.2 8-4.2zm.8 10.5c5.3-11.1.5-15.1-9.2-6.9-7.8-9.7-13.3-6.7-10 5.6-11 .8-14.8 7.8-2.9 11.3-5.4 11.6.3 15.2 10.8 5.3 8.4 11.9 15.3 10 11.6-3.7 12.3-1.8 12.3-8.3-.3-11.6z" style="clip-path:url(#SVGID_00000097483013376816323850000011746360739683678098_)"/><path d="M834.7 233c2.3 0 2.3-3.5 0-3.5-2.2 0-2.2 3.6 0 3.5zM849.9 260.7c2.4 0 2.4-3.9 0-3.8-2.5 0-2.5 3.9 0 3.8z" style="clip-path:url(#SVGID_00000097483013376816323850000011746360739683678098_);fill:#f8d512"/><path d="M855.3 236.4c2.7 0 2.7-4.3 0-4.2-2.7 0-2.7 4.3 0 4.2zM837.2 258.6c2.4 0 2.4-3.7 0-3.7-2.4-.1-2.4 3.7 0 3.7z" style="clip-path:url(#SVGID_00000097483013376816323850000011746360739683678098_);fill:#87ab99"/><path d="M823.1 103.1c-2.1-6.5-6.3-12.8-.7-18.9 20.8 5 22.3 15.8.7 18.9zm-3.5 21c-4.1 0-10.3-5.5-16.3-14 4.2-7 11.9-4.3 18.9-5.6 1.8 6.5 4 19.6-2.6 19.6zm-25.7-7.7c-14.4 9.7-17-.1-9.9-14.6 5.9 2.4 15.1.6 17.7 8.3-2.7 2.4-5.3 4.6-7.8 6.3zm-14.3-17.5c-16.2-6.6-10.1-14.6 8.8-16.9 4.4 6.9-2.8 12.4-5.1 18.2-1.3-.4-2.6-.9-3.7-1.3zm8.3-24.9c-3.1-19.3 10.2-12.8 17.5-2.7-4.7 4.4-8.6 10.5-16.1 9.3-.6-2.3-1.1-4.5-1.4-6.6zm26.4 8.5c2.4.4 4.7.8 6.9 1.3-.9 1.9-2 3.8-3.2 5.8-1-2.1-2.1-4.2-3.7-7.1zm-15.9-2.4c2.5-2.9 5.1-5.5 7.7-7.8 2 2.6 4 5.5 5.8 8.6-4.5-.5-9-.8-13.5-.8zm-7.1 6.9c-.6-1.8-1.2-3.5-1.7-5.2 1.9-.2 3.9-.3 6-.4-1.6 2-2.9 3.7-4.3 5.6zm6.2 16.2c-4.7-.6-9.1-1.5-13-2.6 1.7-3.5 3.9-7.2 6.5-10.9 1.8 4.7 4 9.1 6.5 13.5zm8.9 2c-1.2 1.4-2.5 2.7-3.8 3.9-.9-1.4-1.9-2.8-2.8-4.4 2.9.3 4.7.4 6.6.5zm11.4-12.9c1.7 3.7 3 7.4 4.1 10.9-3.9.5-8.2.8-12.8.8 3.2-3.8 6.2-7.7 8.7-11.7zM807.4 104c-10.3 2.1-12.4-8.1-15.6-15.6 3.9-9.2 12.7-7.2 20.9-6.1 7.7 8.4.7 14.8-5.3 21.7zm14.1-40.2c7.1.9 4.5 9.2.3 18.9-7.7.2-11-5.5-14.7-11.2 3.5-3 9.8-7.7 14.4-7.7zM823 83c9.6-20.3.8-27.5-16.7-12.5C792 52.8 782 58.3 788 80.7c-20 1.4-27 14.3-5.3 20.6-9.9 21.1.5 27.8 19.7 9.7 15.3 21.7 27.9 18.2 21.1-6.7 22.4-3.5 22.4-15.3-.5-21.3z" style="clip-path:url(#SVGID_00000097483013376816323850000011746360739683678098_)"/><path d="M786.7 74.7c4.1.1 4.1-6.5 0-6.4-4.1-.1-4.1 6.4 0 6.4zM814.3 125.2c4.5.1 4.5-7 0-7-4.5-.1-4.5 7 0 7z" style="clip-path:url(#SVGID_00000097483013376816323850000011746360739683678098_);fill:#f8d512"/><path d="M824.2 80.9c4.9.1 4.9-7.8 0-7.7-4.9-.1-4.9 7.7 0 7.7zM791.2 121.2c4.3.1 4.3-6.8 0-6.7-4.3-.1-4.3 6.8 0 6.7z" style="clip-path:url(#SVGID_00000097483013376816323850000011746360739683678098_);fill:#87ab99"/><path d="M372.5 112.4c-1.5-4.8-4.6-9.3-.5-13.8 15.2 3.7 16.3 11.6.5 13.8zm-2.5 15.4c-3 0-7.5-4-11.9-10.2 3.1-5.1 8.7-3.1 13.8-4.1 1.3 4.8 2.9 14.3-1.9 14.3zm-18.9-5.6c-10.5 7.1-12.4-.1-7.2-10.7 4.3 1.7 11.1.4 12.9 6-1.9 1.8-3.8 3.4-5.7 4.7zm-10.4-12.8c-11.8-4.8-7.4-10.6 6.4-12.3 3.2 5-2 9.1-3.7 13.3-.9-.4-1.8-.7-2.7-1zm6.1-18.2c-2.3-14.1 7.5-9.4 12.8-2-3.4 3.2-6.3 7.6-11.7 6.8-.5-1.6-.9-3.3-1.1-4.8zm19.3 6.3c1.8.3 3.4.6 5 1-.7 1.4-1.5 2.8-2.3 4.2-.8-1.6-1.5-3.1-2.7-5.2zm-11.6-1.8c1.9-2.1 3.8-4 5.6-5.7 1.5 1.9 2.9 4 4.3 6.3-3.3-.4-6.7-.6-9.9-.6zm-5.2 5c-.5-1.3-.9-2.5-1.2-3.8 1.4-.1 2.9-.2 4.4-.3-1.2 1.5-2.2 2.7-3.2 4.1zm4.5 11.8c-3.4-.4-6.6-1.1-9.5-1.9 1.3-2.5 2.9-5.3 4.7-8 1.4 3.5 3 6.8 4.8 9.9zm6.5 1.5c-.9 1-1.8 2-2.7 2.9-.7-1-1.4-2.1-2-3.2 2 .2 3.3.2 4.7.3zm8.3-9.4c1.2 2.7 2.2 5.4 3 8-2.8.4-6 .6-9.3.5 2.3-2.7 4.5-5.6 6.3-8.5zm-7.5 8.5c-7.5 1.6-9-5.9-11.4-11.4 8.6-12.6 27.3-1.5 11.4 11.4zm10.2-29.3c5.2.7 3.3 6.7.2 13.8-5.6.1-8.1-4-10.7-8.2 2.6-2.2 7.2-5.6 10.5-5.6zm1.2 14c7-14.8.6-20.1-12.2-9.1-10.4-12.9-17.7-8.9-13.3 7.5-14.6 1-19.7 10.4-3.9 15-7.2 15.4.4 20.3 14.4 7.1 11.2 15.9 20.3 13.3 15.4-4.9 16.2-2.6 16.2-11.2-.4-15.6z" style="clip-path:url(#SVGID_00000097483013376816323850000011746360739683678098_)"/><path d="M345.9 91.7c3 0 3-4.7 0-4.7s-3 4.8 0 4.7zM366.1 128.6c3.3 0 3.3-5.1 0-5.1-3.3-.1-3.3 5.1 0 5.1z" style="clip-path:url(#SVGID_00000097483013376816323850000011746360739683678098_);fill:#f8d512"/><path d="M373.3 96.2c3.6.1 3.6-5.7 0-5.6-3.6 0-3.6 5.7 0 5.6zM349.2 125.7c3.2 0 3.2-5 0-4.9-3.2-.1-3.2 4.9 0 4.9z" style="clip-path:url(#SVGID_00000097483013376816323850000011746360739683678098_);fill:#87ab99"/><path d="M679.6 131.1c-6.1 3.1-35.4.6-24.1-11.1-.1-.5 25.9 3.1 23.9 3.2 1.8 1.8 2 6.1.2 7.9zm30.6-46.9s-60.5 1.8-103.6 45.3c6.1-2.4-95.7-78.9-126.9-12l48.2 132.9c.6.5 1.6 1.1 3.7 2 3.2-10.8 10.8-3 14.2 2.7-4.5-8.9 2.7-26.1 12.3-15-.5-5.5 6.7-6.6 9.9-3.1 3 2.8 4.7 7.9 6 11.5 49.9-19 60.5 15.3 105.1-13.4-7.2-9 7.5-23.8 16.3-45.1 8.8-16 35.5-16.3 48.1-5.3-57.5-173.2-10.8-32.8-33.3-100.5z" style="clip-path:url(#SVGID_00000097483013376816323850000011746360739683678098_);fill:#9ae986"/><path d="M695.1 173.8c0-.6-2.5-.8-2.8-1-1.3-.3-1.6 1.1-1.5 2.1 1.1 1.7 4.5 1.2 4.3-1.1zm-23.2-21.1c-.7-1.1-3.5-.1-4.5-.1-2.1.3-1.8 2.4-.9 3.7 1.4.3 2.7.7 3.9 1 1-1.3.8-3 1.8-4.4l-.3-.2zm11.2 2.3c-.4-1.6-4.1-1.1-5.3-1.4-2.9-.2-3.5 2.9-2.8 5.1 2.9 3.1 9.6.9 8.1-3.7zm4.9 9.7c3.7-2.1 2.1-5.2-1.5-5.8-1 1.9-2.7 3.6-4.7 4.3 1.8 2.1 3.1 2.8 6.2 1.5zm-33.7-12c2.1-.4 3.7-4.1.7-4.5-5.8-.4-7.2 2.6-.7 4.5zm-24.9-4.8c5.2-4.6 13.3-4 17.3.4 3.4-8 19.2-2.7 11.9 5.9 1.1.3 2.3.7 3.7 1.1-1.3-6.3 9.1-8.9 12.6-4.7 4.2-1.4 11.5-.7 12.1 4.8 10.2 1.6 8 13.6-1.4 13.6.6 1.1 1.2 2.1 2 3.1 3.7-7.3 16.7.7 8.8 6.5 3.4 1.8 7.5 1.9 10.3 4.8.7-.8 1.4-1.8 1.4-2.7 2.7-5.1 5.7 1.6.9 5.5.4.5.7 1.1.9 1.6 1-.3 2.3-.9 2.8-1.7 5-3 3.9 4.1-1.4 5 3 10.3-10.1-3-20.1-2.8-10.9-1.3-1 6.6-18.1.6 3.1 21.1-16.7 9.4-10.5 3.1 1.4-1.7-1.3-5-.9-6.9-4.4-.8-3.2-6.2.9-3.6l2.4-4.5c1-1.9 4.1-.6 3.3 1.4-.2.6-2.4 4.5-2.6 5-1.4 3.5 3 7.8-.4 11-1.4 1.1 2.7 3.8 3.9 2.5.9-.5-.1-6.3.1-7.1-.2-5.1 5.5-7.2 9.1-9.4 2-1.2 3.9 2 1.8 3.1l-4.1 2.4c3.5.5 4.7 2.2 6.2 1.4 4.3-6.6 19.9-.1 24.3 2.1-2.7-6.5-10.9-5.9-15.9-9.9-7.7-4.2-7.6-10.8-14.4-15.6-8.8-5.2-22.8-5.7-30.6-11.4-1.1.9-2.3 1-2.4 1 0-.9-.2-2.7-.3-3.6h.1c-2-1.8-9.7-2.7-11.2 1.2 6.9.9 15.2 5.4 16.8 13 1.2-2.2 4.5-.1 3.1 1.9-.9 1.3-2.6 3.7-3.5 4.9-2.6 2.6-.5 8-4.1 10.3 7.4 7.7 2.6-5.7 7.7-7.5 1.1-.7 3.9-1.7 5.1-2.3 2.2-.9 3.6 2.5 1.4 3.4l-3.9 1.6c3.3 1.5.6 5.9-1.9 3.1 1.3 11-11.3 8.9-12.5.9 4.9-4.7 1.8-8.1 5.6-12.1.4-16.1-23.3-10.2-16.3-20.4z" style="clip-path:url(#SVGID_00000097483013376816323850000011746360739683678098_)"/><g style="clip-path:url(#SVGID_00000097483013376816323850000011746360739683678098_)"><defs><path id="SVGID_00000129169799267539405620000002552770864656673465_" d="M695.1 173.8c0-.6-2.5-.8-2.8-1-1.3-.3-1.6 1.1-1.5 2.1 1.1 1.7 4.5 1.2 4.3-1.1zm-23.2-21.1c-.7-1.1-3.5-.1-4.5-.1-2.1.3-1.8 2.4-.9 3.7 1.4.3 2.7.7 3.9 1 1-1.3.8-3 1.8-4.4l-.3-.2zm11.2 2.3c-.4-1.6-4.1-1.1-5.3-1.4-2.9-.2-3.5 2.9-2.8 5.1 2.9 3.1 9.6.9 8.1-3.7zm4.9 9.7c3.7-2.1 2.1-5.2-1.5-5.8-1 1.9-2.7 3.6-4.7 4.3 1.8 2.1 3.1 2.8 6.2 1.5zm-33.7-12c2.1-.4 3.7-4.1.7-4.5-5.8-.4-7.2 2.6-.7 4.5zm-24.9-4.8c5.2-4.6 13.3-4 17.3.4 3.4-8 19.2-2.7 11.9 5.9 1.1.3 2.3.7 3.7 1.1-1.3-6.3 9.1-8.9 12.6-4.7 4.2-1.4 11.5-.7 12.1 4.8 10.2 1.6 8 13.6-1.4 13.6.6 1.1 1.2 2.1 2 3.1 3.7-7.3 16.7.7 8.8 6.5 3.4 1.8 7.5 1.9 10.3 4.8.7-.8 1.4-1.8 1.4-2.7 2.7-5.1 5.7 1.6.9 5.5.4.5.7 1.1.9 1.6 1-.3 2.3-.9 2.8-1.7 5-3 3.9 4.1-1.4 5 3 10.3-10.1-3-20.1-2.8-10.9-1.3-1 6.6-18.1.6 3.1 21.1-16.7 9.4-10.5 3.1 1.4-1.7-1.3-5-.9-6.9-4.4-.8-3.2-6.2.9-3.6l2.4-4.5c1-1.9 4.1-.6 3.3 1.4-.2.6-2.4 4.5-2.6 5-1.4 3.5 3 7.8-.4 11-1.4 1.1 2.7 3.8 3.9 2.5.9-.5-.1-6.3.1-7.1-.2-5.1 5.5-7.2 9.1-9.4 2-1.2 3.9 2 1.8 3.1l-4.1 2.4c3.5.5 4.7 2.2 6.2 1.4 4.3-6.6 19.9-.1 24.3 2.1-2.7-6.5-10.9-5.9-15.9-9.9-7.7-4.2-7.6-10.8-14.4-15.6-8.8-5.2-22.8-5.7-30.6-11.4-1.1.9-2.3 1-2.4 1 0-.9-.2-2.7-.3-3.6h.1c-2-1.8-9.7-2.7-11.2 1.2 6.9.9 15.2 5.4 16.8 13 1.2-2.2 4.5-.1 3.1 1.9-.9 1.3-2.6 3.7-3.5 4.9-2.6 2.6-.5 8-4.1 10.3 7.4 7.7 2.6-5.7 7.7-7.5 1.1-.7 3.9-1.7 5.1-2.3 2.2-.9 3.6 2.5 1.4 3.4l-3.9 1.6c3.3 1.5.6 5.9-1.9 3.1 1.3 11-11.3 8.9-12.5.9 4.9-4.7 1.8-8.1 5.6-12.1.4-16.1-23.3-10.2-16.3-20.4z"/></defs><clipPath id="SVGID_00000144319897184556815000000008079046797769412513_"><use xlink:href="#SVGID_00000129169799267539405620000002552770864656673465_" style="overflow:visible"/></clipPath><path d="m696 173.6-2 .4 2-.4zm-1.9.7c.1-.1.1-.1.1-.2l1.9-.6c.3.9 0 1.8-.7 2.4l-1.3-1.6zm.6.8-.8-.5 1.7 1.1c-.1-.1-.1-.1-.9-.6zm-1.1-.4.5-.4 1.3 1.5-.5.4-1.3-1.5zm-.1.1 1.4 1.5c-.3.2-.6.4-.9.4l-.5-1.9zm-1.3.2c.2 0 .6-.1 1.3-.2l.5 1.9c-.8.2-1.3.3-1.7.3l-.1-2zm-.9-.9c.5.4 1.1.8 1.4 1.1l-1.2 1.6c-.4-.3-1-.7-1.5-1.1l1.3-1.6zm.4-.1v1h-2v-1h2zm.1-.2-.1.1h-2c0-.5.2-1 .5-1.4l1.6 1.3zm.2 0-.2.1-1.5-1.3c.5-.6 1.4-.9 2.2-.7l-.5 1.9zm2.5.5-2.4-.6.4-2 2.4.6-.4 2zm-.2 0 .2.1.5-1.9c.2 0 .3.1.5.2l-1.2 1.6zm-.2-.3c0 .1.1.2.2.3l1.1-1.7c.3.2.5.4.6.8l-1.9.6zm0 .1v-.1l1.9-.6v.1l-1.9.6zm-21.2-21.3-2-.2 2 .2zm-1.6.7-.1-.1 1.5-1.3.3.3-1.7 1.1zm-1.2 2.7c0-1.3.4-2.7 1.1-3.8l1.7 1.1c-.5.8-.8 1.8-.8 2.8l-2-.1zm-.7.8c.2-.6.5-1.1 1.1-1.5l1.3 1.5c-.2.2-.4.4-.5.6l-1.9-.6zm-2.7-1.7c1.4.3 2.7.7 3.9 1.1l-.6 1.9c-1.2-.4-2.4-.7-3.8-1l.5-2zm.1-.8.6 1.3-1.8.8-.6-1.3 1.8-.8zm0-.5v.5l-1.8.8c-.3-.6-.3-1.3-.1-2l1.9.7zm.7-.5c-.4.1-.7.3-.7.5l-1.9-.6c.4-1.1 1.3-1.7 2.4-1.9l.2 2zm3.2-.4-3.2.4-.3-2 3.2-.4.3 2zm.4.1c-.1-.1-.2-.1-.3-.1l-.3-2c.8-.1 1.5.2 2.1.7l-1.5 1.4zm.1.1-.1-.1 1.5-1.4.1.1-1.5 1.4zm12.4.8-1.1 1.7 1.1-1.7zm-1.2 2.4c.1-.4 0-.8-.2-1.1l1.8-.9c.4.7.5 1.5.4 2.3l-2-.3zm-.5 1c.2-.3.4-.6.5-1l2 .3c-.1.7-.4 1.5-1 2l-1.5-1.3zm-.7.7.7-.7 1.5 1.4-.7.7-1.5-1.4zm-.6.5c.3-.1.5-.3.7-.5l1.5 1.4c-.4.4-.9.7-1.4 1l-.8-1.9zm-1.1.4c.3-.1.7-.2 1.1-.4l.7 1.9c-.4.2-.8.3-1.2.4l-.6-1.9zm-1.4.3c.1 0 .5-.1 1.3-.4l.6 1.9c-.9.3-1.5.4-1.8.5l-.1-2zm.3 0c.1.1.2.1.3.1l-.9 1.8c-.1 0-.2-.1-.3-.2l.9-1.7zm-2.9-1.6c.9.5 2.1 1.2 2.9 1.6l-.9 1.8c-.8-.4-2.1-1.1-2.9-1.6l.9-1.8zm.3-.4.2 1.1-2 .3-.2-1.1 2-.3zm-.1-.8.1.8-2 .3-.1-.8 2-.3zm.3-1.2c-.2.4-.3.8-.3 1.2l-2 .3c-.1-.9.1-1.8.6-2.6l1.7 1.1zm.6-.6c-.2.1-.4.3-.6.6l-1.7-1.1c.3-.5.7-.9 1.2-1.2l1.1 1.7zm1.1-.3c-.4 0-.8.1-1.1.3l-1-1.7c.7-.4 1.5-.6 2.3-.6l-.2 2zm3.8.4-3.8-.3.2-2 3.8.3-.2 2zm.6.3c-.1-.2-.3-.4-.6-.4l.2-2c.9.1 1.8.6 2.2 1.5l-1.8.9zm0 .1 1.7-1v.1l-1.7.9zm.1.1 1.7-1v.1l-1.7.9zm6.3 8.5-1.1 1.7 1.1-1.7zm-1.8.3c.3 0 .5-.1.8-.3l1.1 1.7c-.5.3-1 .5-1.6.6l-.3-2zm-2.6.1c.2 0 .9.1 2.5-.1l.3 2c-1.7.2-2.7.2-3.2.1l.4-2zm-1.7-1.8c.8.8 1.7 1.6 2.2 2.1l-1.3 1.5c-.5-.5-1.5-1.4-2.3-2.1l1.4-1.5zm.3 1.4c-.2.1-.4.2-.6.2l-.7-1.9c.2-.1.4-.1.6-.2l.7 1.9zm2.7-1.9c-.8.8-1.7 1.5-2.7 1.9l-.7-1.9c.8-.3 1.4-.8 2-1.4l1.4 1.4zm.7-.7-.7.7-1.5-1.4.7-.7 1.5 1.4zm1.2-1.9c-.3.7-.7 1.3-1.3 1.9l-1.5-1.4c.4-.4.7-.9.9-1.4l1.9.9zm1.2 1.3-2.5-.9.7-1.9 2.5.9-.7 1.9zm.2.1-.1-.1.7-1.9.6.3-1.2 1.7zm.3.5c0-.2-.1-.3-.3-.4l1.1-1.7c.6.4 1 1 1.2 1.7l-2 .4zm0 .1v-.2l2-.4v.2l-2 .4zm-.7 1.9c.6-.4.9-1.2.8-1.9l2-.4c.3 1.5-.3 3.2-1.6 4l-1.2-1.7zm-.9.6.8-.5 1.1 1.7-.8.5-1.1-1.7zm-32.6-12.1-1.1 1.7 1.1-1.7zm-4.2-1.8c1 .5 2.3 1.1 4 1.8l-.7 1.9c-1.8-.7-3.1-1.3-4.2-1.8l.9-1.9zm.4.2.1.3-1.9.7-.1-.3 1.9-.7zm0-.5c-.1.1-.1.3 0 .5l-1.9.7c-.2-.6-.2-1.3 0-2l1.9.8zm.8-.4c-.4 0-.7.2-.8.4l-1.8-.8c.4-1 1.4-1.6 2.5-1.7l.1 2.1zm3.3-.2-3.2.2-.1-2 3.2-.2.1 2zm.3.2c-.1-.1-.2-.2-.3-.1l-.1-2c.8 0 1.5.3 2 .9l-1.6 1.2zm.1.1-.1-.1 1.6-1.2.1.1-1.6 1.2zm.1.9c.1-.2.2-.6-.1-.9l1.6-1.2c.7.9.9 2.2.2 3.3l-1.7-1.2zm-.4.7.4-.7 1.7 1.1-.4.7-1.7-1.1zm-.3.2c.1-.1.2-.1.2-.2l1.7 1.1c-.2.4-.6.6-.9.9l-1-1.8zm-1 .5c.3-.1.6-.3 1.1-.5l1 1.7c-.5.3-.9.5-1.2.6l-.9-1.8zm-25.5-3.9 2 .2-2-.2zm-.5.3c.2-.4.5-.7.8-1l1.3 1.5c-.2.2-.4.4-.5.6l-1.6-1.1zm1.9 7.1c-2.6-1.4-3.5-4.7-1.9-7.1l1.7 1.1c-.9 1.4-.4 3.4 1.1 4.2l-.9 1.8zm4.8 1.3c-1.9-.1-3.5-.6-4.8-1.3l.9-1.8c1 .5 2.4.9 4 1l-.1 2.1zm4 1.6c-1.5-1-2.9-1.5-4-1.6l.2-2c1.5.1 3.3.8 4.9 1.9l-1.1 1.7zm5.6 7c-.5-2.6-3.2-5.5-5.6-7.1l1.1-1.7c2.9 1.9 5.9 5.1 6.5 8.4l-2 .4zm.2 1.2c-.1-.4-.1-.8-.2-1.2l2-.3c.1.4.1.8.2 1.3l-2 .2zm.3 2.2c-.1-.8-.2-1.5-.3-2.2l2-.3.3 2.1-2 .4zm-1.2 1.3 1.4-2 1.6 1.2-1.4 2-1.6-1.2zm-1.6 7.3c.3-2.9.4-5.3 1.6-7.4l1.6 1.1c-.8 1.6-1 3.9-1.2 6.4l-2-.1zm-.8.7c.4-.2.7-.5.8-.9l1.9.7c-.3.9-1 1.6-1.9 2l-.8-1.8zm-1.9 2.4c.3-1.1 1-1.9 1.9-2.4l.9 1.8c-.4.2-.7.6-.8 1l-2-.4zm.6 3c-.6-.9-.9-2-.6-3l1.9.5c-.1.5 0 .9.3 1.3l-1.6 1.2zm4.2 3.9c-1.9-1.3-3.3-2.8-4.2-4l1.6-1.2c.8 1 2 2.4 3.7 3.5l-1.1 1.7zm.5.3c-.2-.1-.3-.2-.5-.3l1.1-1.7c.1.1.3.2.4.2l-1 1.8zm.1.1-.1-.1 1-1.7.1.1-1 1.7zm5.8.1c-1.8 1-4 1-5.8 0l1-1.7c1.2.7 2.6.7 3.8 0l1 1.7zm3.1-5c-.1 2.1-1.3 4-3.1 5l-1-1.8c1.2-.7 2-1.9 2.1-3.3l2 .1zm.2-3-.1 3-2-.1.1-3 2 .1zm-1 1.2c-.2-.2-.5-.4-.7-.5l1.3-1.6c.2.2.4.3.6.5l-1.2 1.6zm.2.2-.2-.2 1.3-1.5-1.1 1.7zm3.7-.7c-.9 1.2-2.5 1.4-3.8.6l1.1-1.7c.4.2.8.2 1.1-.2l1.6 1.3zm.1-.1-1.7-1 1.7 1zm-.6-3.8c1.2.9 1.5 2.6.6 3.9l-1.6-1.2c.3-.4.2-.8-.2-1.1l1.2-1.6zm-.9-.7c.3.2.6.5.9.7l-1.2 1.6c-.3-.3-.7-.5-1-.8l1.3-1.5zm3.6.1-3.9 1.6-.8-1.8 3.9-1.6.8 1.8zm1.6-3.7c.6 1.4-.1 3.1-1.5 3.7l-.8-1.8c.4-.2.6-.6.4-1.1l1.9-.8zm-3.7-1.5c1.4-.6 3.1.1 3.7 1.5l-1.8.8c-.2-.4-.6-.6-1.1-.4l-.8-1.9zm-.6.2.6-.2.8 1.9-.6.2-.8-1.9zm-3.4 1.4 3.4-1.4.8 1.8-3.4 1.4-.8-1.8zm-1.3.7c.4-.3.8-.5 1.3-.7l.8 1.8c-.3.1-.6.3-1 .5l-1.1-1.6zm-1.6 1.4c.5-.5 1-1 1.6-1.4l1.1 1.7c-.4.3-.8.6-1.2 1l-1.5-1.3zm-1.1 1.8c.3-.7.7-1.3 1.2-1.9l1.5 1.3c-.4.4-.6.9-.9 1.4l-1.8-.8zm-.6 1.7c.1-.6.3-1.1.5-1.7l1.8.8c-.2.4-.3.8-.4 1.2l-1.9-.3zm0 .4v-.4l2 .4v.1l-2-.1zm-.2 4.1.2-4.1 2 .1-.2 4.1-2-.1zm-.2.3c.1-.1.2-.2.2-.3l2 .1c0 .8-.5 1.6-1.3 2l-.9-1.8zm-.3 0c.1.1.2 0 .3 0l1 1.8c-.4.2-1.3.5-2.2 0l.9-1.8zm-2.4-2c.6.7 1.4 1.4 2.4 2l-1 1.7c-1.2-.7-2.2-1.7-2.9-2.4l1.5-1.3zm2.4-2.2c-.4 1.5-1.3 2.7-2.5 3.7l-1.2-1.6c.9-.7 1.5-1.6 1.8-2.7l1.9.6zm.1-.6c0 .2-.1.4-.1.6l-1.9-.6v-.2l2 .2zm.6-4.7c-.2 1-.5 3-.6 4.7l-2-.2c.1-1.8.4-3.9.7-5l1.9.5zm.1-.4s0 .1-.1.4l-1.9-.5c.1-.2.1-.5.2-.7l1.8.8zm.9-1.2-1 1.4-1.6-1.2 1-1.4 1.6 1.2zm1.3-1.8-1.3 1.8-1.6-1.2 1.3-1.8 1.6 1.2zm2-2.7-2 2.8-1.6-1.2 2-2.8 1.6 1.2zm.2-.4-.2.3-1.6-1.2.2-.3 1.6 1.2zm-.6-3.9c1.3.9 1.6 2.7.7 3.9l-1.6-1.2c.3-.4.2-.9-.2-1.1l1.1-1.6zm-4 .7c.9-1.3 2.7-1.5 3.9-.7l-1.1 1.6c-.4-.3-.9-.2-1.1.2l-1.7-1.1zm-.1.1.1-.2 1.6 1.2-.1.2-1.6-1.2zm-6.3-10.2c3.5 2.3 7.2 6.3 8.1 10.6l-2 .4c-.7-3.6-4.2-7.4-7.2-9.3l1.1-1.7zm-6.6-2.4c2.1.2 4.4 1 6.6 2.5l-1.1 1.7c-2-1.3-4-2-5.7-2.2l.2-2zm-2.6-.7c.6.3 1.5.5 2.6.6l-.2 2c-1.3-.1-2.5-.4-3.4-.9l1-1.7zm.1.1-1.1 1.7 1.1-1.7zm.1.9c.2-.3.1-.8-.1-.9l-1.1 1.7c-.6-.4-.9-1.2-.4-1.9l1.6 1.1zm-.1.1.1-.1-1.7-1.1c.1-.1.1-.2.2-.3l1.4 1.5zm9.8-.8c-2.5-1.6-7.3-1.6-9.8.8l-1.3-1.5c3.3-3.1 8.8-3.1 12.2-1l-1.1 1.7zm.2.2c-.1-.1-.2-.1-.3-.2l1.1-1.7c.1.1.3.2.4.3l-1.2 1.6zm.5-.8-.2-1 .7 1.9c-.5.1-.1.3-.5-.9zm-.8 1.9-.2-1.8 2-.2.2 1.8-2 .2zm.1 1.8-.1-1.8 2-.1.1 1.8-2 .1zm4.1-.3c-1.4 1.1-2.7 1.2-3 1.2l-.1-2c.1 0 1-.1 1.9-.8l1.2 1.6zm-.9.2c-.1-.1-.2-.2-.3-.2l1.1-1.7c.1.1.2.1.3.2l-1.1 1.7zm1.3.8c-.5-.3-.9-.5-1.2-.7l1.1-1.7c.3.2.7.4 1.1.7l-1 1.7zm7.1 3.2c-3.4-1.2-5.7-2.4-7.2-3.2l1-1.7c1.4.8 3.6 1.8 6.9 3l-.7 1.9zm10.5 3c-4.3-1-7.7-2.1-10.4-3l.7-1.9c2.7 1 6 2 10.2 3l-.5 1.9zm.5.1c-.2 0-.4-.1-.6-.1l.5-1.9c.2.1.4.1.5.1l-.4 1.9zm5.8 1.7c-1.7-.6-3.6-1.2-5.8-1.7l.4-1.9c2.2.5 4.2 1.1 6 1.7l-.6 1.9zm5.1 2.4c-1.4-.9-3.1-1.7-5.1-2.4l.7-1.9c2.1.8 4 1.6 5.5 2.6l-1.1 1.7zm6 7.1c-1.6-2.8-2.8-5-6-7l1.1-1.7c3.6 2.3 5.1 4.9 6.6 7.7l-1.7 1zm.2.3-.2-.3 1.8-1 .2.3-1.8 1zm8.2 8.2c-3.6-2.4-6.6-5.3-8.3-8.3l1.7-1c1.5 2.6 4.2 5.3 7.6 7.6l-1 1.7zm10.1 4.5c-3.5-.9-7-2.5-10.1-4.5l1.1-1.7c2.9 1.9 6.2 3.4 9.5 4.2l-.5 2zm2 .9c-.6-.4-1.3-.7-1.9-.9l.5-1.9c.9.2 1.7.6 2.5 1.1l-1.1 1.7zm3.5 4.1c-.8-1.6-1.9-3.1-3.5-4.1l1.1-1.7c2 1.3 3.3 3.2 4.2 4.9l-1.8.9zm-14.1-6.2c6.4.8 11.9 3 15.4 4.8l-.9 1.8c-3.4-1.7-8.6-3.8-14.8-4.6l.3-2zm-9.3 2.2c2.6-2.8 5-2.6 9.3-2.1l-.3 2c-4.1-.3-5.1-.9-7.6 1.5l-1.4-1.4zm-.8.8.8-.8 1.5 1.4-.9.9-1.4-1.5zm-.3.3.3-.3 1.3 1.5-.1.1-1.5-1.3zm.7-.2c-.2-.1-.5-.1-.7.1l1.6 1.2c-.5.6-1.3.7-1.9.4l1-1.7zm-5.7-1.8c2.3.6 3.9.9 5.7 1.8l-1 1.7c-1.5-.7-3.1-1-5.2-1.6l.5-1.9zm4.4-.5-4.1 2.4-1-1.7 4.1-2.4 1 1.7zm1-3.9c.8 1.3.3 3.1-1 3.8l-1-1.7c.4-.2.5-.7.3-1.1l1.7-1zm-3.9-1c1.3-.8 3.1-.3 3.8 1l-1.7 1c-.2-.4-.7-.5-1.1-.3l-1-1.7zm-1.3.8 1.4-.8 1 1.7-1.4.8-1-1.7zm-4.1 2.4 4.1-2.4 1 1.7-4.1 2.4-1-1.7zm-1.6 1.2c.5-.5 1-.9 1.6-1.2l1 1.7c-.4.3-.9.6-1.2.9l-1.4-1.4zm-1.4 1.7c.4-.6.8-1.2 1.4-1.7l1.4 1.4c-.4.4-.8.8-1.1 1.3l-1.7-1zm-.9 1.9c.2-.7.5-1.3.8-1.9l1.7 1c-.3.5-.5.9-.6 1.4l-1.9-.5zm-.3 2c0-.7.2-1.3.3-1.9l1.9.6-.3 1.5-1.9-.2zm0 .3v-.3l2 .1v.1l-2 .1zm.4 6-.4-6 2-.1.4 6-2 .1zm-.1.3c.1-.1.1-.2.1-.3l2-.1c0 .7-.2 1.4-.7 1.9l-1.4-1.5zm-.3.1c.1 0 .2 0 .2-.1l1.4 1.4c-.3.3-.9.7-1.8.6l.2-1.9zm-.9-.3c.4.1.7.2.9.3l-.2 2c-.5-.1-1-.2-1.5-.4l.8-1.9zm-1.4-1.4c.1.3.3 1 1.4 1.4l-.8 1.8c-1.8-.8-2.4-2-2.6-2.9l2-.3zm.1.5-.3.4-1.5-1.3.3-.4 1.5 1.3zm1.6-5.2c.2 1.9-.3 3.7-1.6 5.2l-1.5-1.3c.9-1 1.3-2.3 1.1-3.6l2-.3zm-.1-.4c0 .1.1.3.1.5l-2 .2v-.1l1.9-.6zm-1-3.1.9 3.1-1.9.6-.9-3.1 1.9-.6zm-.2-.9.2.8-1.9.6-.2-.8 1.9-.6zm0-.8v.9l-2 .4c-.1-.5-.1-1-.1-1.5l2.1.2zm.2-.9-.3.9-2-.2c.1-.5.2-1.1.5-1.5l1.8.8zm.3-.4-.3.5-1.8-.9.3-.5 1.8.9zm2.2-4.3-2.2 4.2-1.8-.9 2.2-4.2 1.8.9zm.2-.4c0 .1-.1.3-.2.4l-1.8-.9v-.1l2 .6zm-1.4-3.4c1.2.7 1.8 2.1 1.4 3.4l-1.9-.6c.1-.4 0-.8-.4-1l.9-1.8zm-3.8 1.2c.7-1.4 2.4-1.9 3.8-1.2l-.9 1.8c-.4-.2-.9-.1-1.1.3l-1.8-.9zm-2.3 4.5 2.4-4.5 1.8.9-2.4 4.5-1.8-.9zm.1-1c.4.2.7.4 1.1.5l-.8 1.8-1.2-.6.9-1.7zm-3.7 1.2c.7-1.3 2.4-1.9 3.8-1.2l-.9 1.8c-.4-.2-.9-.1-1.1.3l-1.8-.9zm0 0 1.7 1.1-1.7-1.1zm1.2 3.8c-1.4-.7-1.9-2.4-1.2-3.8l1.8.9c-.2.4 0 .9.4 1.1l-1 1.8zm1.9 1c-.7-.3-1.3-.6-1.9-.9l.9-1.8 1.8.9-.8 1.8zm-.4.8c-.1-.6-.2-1.2-.2-1.8h2c0 .5 0 .9.1 1.4l-1.9.4zm.1.3-.1-.3 2-.4-1.9.7zm1.1 3.8-1.2-3.8 1.9-.6 1.2 3.8-1.9.6zm-.2.4c.2-.2.2-.4.2-.7l2-.1c.1.8-.2 1.5-.7 2.1l-1.5-1.3zm-.9 1 .8-.9 1.5 1.3-.8.9-1.5-1.3zm-.6 1.5c.1-.6.3-1.1.7-1.6l1.5 1.3c-.1.1-.2.3-.2.5l-2-.2zm3.4 6.7c-3-1.9-3.6-4.9-3.4-6.6l2 .2c-.1 1.1.3 3.3 2.5 4.7l-1.1 1.7zm1.4.7c-.5-.2-1-.5-1.4-.7l1.1-1.7c.3.2.7.4 1.1.6l-.8 1.8zm2.5.7c-.9-.1-1.7-.3-2.6-.7l.8-1.8c.7.3 1.3.5 2 .5l-.2 2zm4.8-1.6c-1.3 1.2-3 1.8-4.7 1.6l.2-2c1.1.1 2.3-.3 3.1-1.1l1.4 1.5zm1.8-4.7c.1 1.8-.6 3.5-1.8 4.7l-1.4-1.4c.9-.8 1.3-2 1.2-3.1l2-.2zm-.4-5.9.4 5.9-2 .1-.4-5.9 2-.1zm.2-.5c-.1.2-.1.4-.1.6l-2-.2c0-.4.1-.7.2-1l1.9.6zm.9 1.2-2.1-.6.5-1.9 2.1.6-.5 1.9zm4.3 1.3c-1.3-.5-2.8-.8-4.3-1.3l.5-1.9c1.7.5 3.3.8 4.8 1.5l-1 1.7zm6.4-1.1c-1.6 1.9-4.3 2.3-6.4 1.1l1-1.7c1.3.8 2.9.5 3.9-.6l1.5 1.2zm.9-.8-1 1-1.4-1.5.9-.9 1.5 1.4zm4.5-.5c-2.9-.2-3.2-.8-4.5.4l-1.5-1.4c1.7-1.9 3.1-1.3 6.2-1l-.2 2zm16.9 6.2c-1.8-1.2-8.4-5.1-16.9-6.1l.3-2c9 1.1 15.8 5.2 17.7 6.5l-1.1 1.6zm.5.3c-.2-.1-.3-.2-.5-.4l1.1-1.7c.2.1.5.3.5.4l-1.1 1.7zm3.1.1c-1 .6-2.2.6-3.1-.1l1.1-1.6c.3.2.7.2.9 0l1.1 1.7zm1.3-2.9c.2 1.1-.3 2.3-1.2 2.9l-1.1-1.7c.3-.2.4-.5.4-.8l1.9-.4zm-.6-2.1c.4 1.2.5 2 .6 2.1l-2 .4c0-.1-.2-.8-.5-1.9l1.9-.6zm4.3-2.2c-1.2 1.9-3.4 2.9-4.9 3.5l-.6-1.9c1.4-.5 3-1.3 3.9-2.6l1.6 1zm-.8-3.9c1.3.8 1.7 2.6.8 3.9l-1.7-1.1c.2-.4.1-.9-.2-1.1l1.1-1.7zm-3.9.8c.8-1.3 2.6-1.7 3.9-.8l-1.1 1.7c-.4-.2-.9-.1-1.1.2l-1.7-1.1zm-2.2 1.3c.7-.2 1.9-.7 2.2-1.3l1.7 1.1c-.8 1.1-2.1 1.7-3.3 2.1l-.6-1.9zm.2-1.3c.4.6.7 1.2 1 1.7l-1.8.9-.9-1.5 1.7-1.1zm2.8-4.7c-.1 2.6-1.8 4.8-3 6l-1.5-1.4c1.1-1.1 2.3-2.9 2.4-4.7l2.1.1zm-2.7-3c1.6.1 2.8 1.4 2.7 2.9l-2-.1c0-.4-.3-.8-.8-.8l.1-2zm-2.9 2.7c.1-1.6 1.4-2.8 2.9-2.7l-.1 2c-.4 0-.8.3-.8.8l-2-.1zm-1.2 2.1c.5-.5 1.1-1.4 1.1-2.1l2 .1c-.1 1.3-.9 2.4-1.6 3.3l-1.5-1.3zm-.5-1.6c.7.5 1.4 1 1.9 1.5l-1.4 1.5c-.5-.5-1.1-.9-1.7-1.3l1.2-1.7zm-3.5-1.6c1.3.3 2.5.9 3.6 1.6l-1.1 1.7c-.9-.6-1.9-1-3-1.3l.5-2zm-5.1-1.9c1.6.8 3.3 1.4 5 1.8l-.5 1.9c-1.8-.5-3.6-1.1-5.4-2l.9-1.7zm.4 1.6-.2.2-1.2-1.6.2-.1 1.2 1.5zm.5-.4-.5.4-1.3-1.5.5-.4 1.3 1.5zm1.8-6.4c.8 2.3.1 4.8-1.8 6.4l-1.3-1.5c1.2-1 1.7-2.7 1.2-4.2l1.9-.7zm0-.1v.1l-1.9.6v-.1l1.9-.6zm-3.7-3.4c1.7.4 3.1 1.7 3.7 3.3l-1.9.6c-.3-1-1.2-1.8-2.3-2l.5-1.9zm-2.5-.5 2.4.6-.4 2-2.4-.6.4-2zm-5.7 1.9c1.4-1.6 3.6-2.4 5.7-1.9l-.4 1.9c-1.4-.3-2.8.2-3.8 1.2l-1.5-1.2zm-.9 1.4c.2-.5.5-1 .9-1.4l1.5 1.3-.6.9-1.8-.8zm.3-2.3c.4.7.9 1.3 1.4 2l-1.5 1.3c-.6-.8-1.2-1.5-1.7-2.3l1.8-1zm-.2-.3.2.3-1.7 1-.2-.3 1.7-1zm-.3-.6.3.6-1.7 1-.3-.6 1.7-1zm1 1.4c-.7.1-1.3.1-1.8.2l-.1-2c.5 0 1-.1 1.7-.2l.2 2zm3.1-1.2c-.9.6-2 1-3.1 1.1l-.3-2c.8-.1 1.6-.4 2.3-.8l1.1 1.7zm.8-.5-.8.5-1.1-1.7.8-.5 1.1 1.7zm3.2-7.9c.7 3-.6 6.1-3.2 7.8l-1.1-1.7c1.9-1.2 2.8-3.5 2.3-5.7l2-.4zm0-.2v.2l-2 .4v-.2l2-.4zm-4.1-4.6c2.1.7 3.6 2.5 4.1 4.6l-2 .4c-.3-1.5-1.4-2.7-2.8-3.2l.7-1.8zm-3.1-1.1 3.1 1.1-.7 1.9-3.1-1.1.7-1.9zm-.1-1.4c.4.7.6 1.5.7 2.2l-2 .3c-.1-.6-.3-1.1-.5-1.6l1.8-.9zm-.1-.2.1.2-1.8.9-.1-.2 1.8-.9zm-5.1-3.4c2.2.2 4.1 1.5 5.1 3.5l-1.8.9c-.7-1.3-2-2.2-3.5-2.4l.2-2zm-3.8-.4 3.8.3-.2 2-3.8-.3.2-2zm-3.8.7c1.2-.5 2.5-.8 3.8-.7l-.2 2c-1-.1-1.9.1-2.8.5l-.8-1.8zm.9-.1.3.3-1.6 1.2-.2-.2 1.5-1.3zm-.1-.1.1.1-1.5 1.4-.1-.1 1.5-1.4zm-5.2-1.9c1.9-.2 3.9.5 5.2 1.9l-1.5 1.4c-.9-1-2.2-1.4-3.5-1.3l-.2-2zm-3.2.4 3.2-.4.3 2-3.2.4-.3-2zm-5.4 4.3c.8-2.3 2.9-4 5.3-4.3l.3 2c-1.8.2-3.2 1.4-3.7 2.9l-1.9-.6zm-.2 3.2c-.2-1-.1-2.1.2-3.2l1.9.6c-.2.7-.3 1.4-.1 2.1l-2 .5zm-2.3-2.2c1.1.3 2.3.7 3.6 1l-.5 1.9c-1.3-.4-2.6-.7-3.7-1.1l.6-1.8zm1 .9c-.2.3-.4.5-.6.7l-1.5-1.3c.2-.2.3-.3.4-.5l1.7 1.1zm.4-.7-.4.7-1.7-1.1.4-.7 1.7 1.1zm-.4-7.5c1.7 2.2 1.9 5.2.4 7.5l-1.7-1.1c1-1.5.9-3.6-.3-5.2l1.6-1.2zm-.1-.1.1.1-1.6 1.2-.1-.1 1.6-1.2zm-5-2.3c1.9-.1 3.8.7 5 2.3l-1.6 1.2c-.8-1-2.1-1.6-3.4-1.5v-2zm-3.3.2 3.2-.2.1 2-3.2.2-.1-2zm-5.6 3.8c1-2.3 3.2-3.7 5.7-3.9l.1 2c-1.8.1-3.3 1.1-3.9 2.6l-1.9-.7zm-.2.5c0-.1.1-.3.2-.5l1.8.8c0 .1-.1.2-.1.3l-1.9-.6zm-.4-2.2c.8.5 1.5 1.2 2.1 1.9l-1.6 1.2c-.4-.5-.9-1-1.6-1.4l1.1-1.7zm-16.6 1.3c4.9-4.4 12.3-4.2 16.6-1.3l-1.1 1.7c-3.7-2.4-10.1-2.6-14.2 1.1l-1.3-1.5zm66.4 26.7-1 .2 1.9-.5-.9.3zm-.4 1.3-.8-.5.2-.2.6.7zm0 0 .8.5-.2.2-.6-.7zm-.5.4-.6-.8.6.8zm-.5.3-.2-1 .2 1zm-1.5.2.1 1c-.2.1-.5 0-.6-.2l.5-.8zm-1.5-1.1-.6.8c-.3-.1-.5-.5-.4-.8h1zm0-.9h-1 1zm.3-.8-.8-.7.8.7zm1.2-.4-.2 1 .2-1zm2.5.5.2-1-.2 1zm.3.4.9-.3-.9.3zm.1.1 1-.2-1.9.5.9-.3zm-23.2-21.1-1-.1.2-2.2 1.5 1.6-.7.7zm.2.2.8-.6.4.5-.4.6-.8-.5zm-1 3.3h1c.1.3-.1.6-.4.7l-.6-.7zm-.8 1.1.9.3-.3.9-.9-.3.3-.9zm-3.8-1-.2 1c-.3 0-.6-.2-.7-.6l.9-.4zm-.6-1.3.9-.4-.9.4zm-.1-1.3.9.3-.9-.3zm1.6-1.2.1 1-.1-1zm3.2-.4-.1-1 .1 1zm1.2.5-.7.7.7-.7zm.1.1 1 .1-.2 2.2-1.5-1.6.7-.7zm11.2 2.3-.9.5-1.7-3.3 3.1 2-.5.8zm.2 1.7-1-.1 1 .1zm-.7 1.4.7.7-.7-.7zm-.6.8.7.7-.7-.7zm-1.1.7-.4-.9.4.9zm-1.1.4.3.9-.3-.9zm-1.6.4.1 1c-.1 0-.4 0-.5-.1l.4-.9zm-.3-.1.5-.9-.5.9zm-2.9-1.7-.5.9c-.3-.1-.5-.4-.5-.7l1-.2zm-.2-1.1-1 .1 1-.1zm-.1-.8 1-.1-1 .1zm1.4-2.8.5.9-.5-.9zm1.7-.4.1-1-.1 1zm3.8.4.1-1-.1 1zm1.4.9-.9.5.9-.5zm0 .1.9-.5-.9.5zm.1.1.9-.4 1.6 3.3-3.1-2 .6-.9zm4.9 9.7-.5-.8.5-.4.5.4-.5.8zm-1.2.5.1 1-.1-1zm-2.9.1-.2 1c-.2 0-.4-.1-.5-.2l.7-.8zm-2.2-2.1-.7.7-1.1-1.1 1.5-.6.3 1zm.6-.2-.4-.9.4.9zm2.3-1.7.7.7-.7-.7zm.7-.7.7.7-.7-.7zm1.1-1.7-.9-.4.4-.8.9.3-.4.9zm2.5.9-.3.9.3-.9zm1.1 1.2-1 .2 1-.2zm0 .2 1-.2-1 .2zm-1.2 3 .5.8-.5-.8zm-.8.5.5.8-.5.4-.5-.4.5-.8zm-33.7-12 .4-.9.2.1-.6.8zm-4.1-1.8-.4.9c-.2-.1-.5-.3-.5-.6l.9-.3zm-.1-.3.9-.3-.9.3zm0-1.3.9.4-.9-.4zm1.7-1 .1 1-.1-1zm3.2-.2-.1-1 .1 1zm1.2.5-.8.6.8-.6zm.1.2.8-.6-.8.6zm.1 2.1-.8-.6.8.6zm-.4.6-.8-.6.8.6zm-.6.6.5.9-.5-.9zm-1.1.6.4.9c-.3.2-.7.2-1-.1l.6-.8zm-24.9-4.8 1 .1c0 .2-.1.5-.3.6l-.7-.7zm-.7.8.8.5-.8-.5zm1.5 5.6.5-.9-.5.9zm4.4 1.2-.1 1 .1-1zm10.6 9.5 1-.2-1 .2zm.2 1.2-1 .1 1-.1zm.3 2.1 1-.2c.1.3 0 .6-.2.8l-.8-.6zm-1.4 2-.8-.6.8.6zm-1.4 6.9 1 .1-.1.3-.9-.4zm-1.4 1.5-.4-.9.4.9zm-1.4 1.7 1 .2-1-.2zm.5 2.2-.8.6.8-.6zm4.4 4-.5.9.5-.9zm.1 0-.5.9.5-.9zm4.8.1.5.9-.5-.9zm2.6-4.2h1-1zm.2-3h-1l.1-2 1.5 1.2-.6.8zm.6.5.6-.8-.6.8zm2.5-.3.8.5v.1l-.8-.6zm.1 0-.8-.5.8.5zm-.4-2.5.6-.8-.6.8zm-.9-.8-.6.8-1.3-1.1 1.5-.6.4.9zm3.9-1.6.4.9-.4-.9zm.9-2.3-.9.4.9-.4zm-2.3-1 .4.9-.4-.9zm-.6.2-.4-.9.4.9zm-3.4 1.4-.4-.9.4.9zm-1.1.6.6.8-.6-.8zm-1.4 1.2.8.6-.8-.6zm-1 1.6.9.4-.9-.4zm-.5 1.5 1 .2-1-.2zm0 .2h-1 1zm-.2 4.1h-1 1zm-.8 1.2-.5-.9.5.9zm-1.2 0-.5.9.5-.9zm-2.7-2.2-.7.7-.7-.8.9-.7.5.8zm2.2-3.2 1 .3-1-.3zm.1-.3 1 .1-1-.1zm.6-4.9-1-.2 1 .2zm.2-.5-.9-.4.1-.2.8.6zm1-1.4-.8-.6.8.6zm1.3-1.9.8.6-.8-.6zm2-2.7-.8-.6.8.6zm.2-.3.8.6-.8-.6zm-.4-2.6.6-.8-.6.8zm-2.5.4.8.6-.8-.6zm-.2.2.8.6-1.4 1.9-.4-2.3 1-.2zm-13.8-12.2-.1 1 .1-1zm-3-.8-.5.9h-.1l.6-.9zm-.1-.5-.7-.7.7.7zm11.3-.7.6-.8 1.5 1.1-1.8.6-.3-.9zm-.1 0-1 .1-.1-.9.9-.2.2 1zm.2 1.8 1-.1-1 .1zm.1 1.8.1 1-1 .1-.1-1 1-.1zm2.5-1-.6-.8.6-.5.6.4-.6.9zm1.5.9-.5.9.5-.9zm7 3.1-.3.9.3-.9zm10.3 3 .2-1-.2 1zm.5.2-.2 1 .2-1zm5.9 1.7.3-.9-.3.9zm11.7 9.9.9-.5-.9.5zm.1.3-.9.5.9-.5zm17.8 12.3.3-1-.3 1zm6.1 5.5.9-.5 1.4 2.7-2.7-1.4.4-.8zm-15.1-4.8.1-1-.1 1zm-8.5 1.9-.7-.7.7.7zm-.8.8.7.7-.7-.7zm-.2.2.8.6-.8-.6zm-.6.1.5-.9-.5.9zm-5.4-1.7-.3 1-2.4-.6 2.1-1.2.6.8zm4.1-2.4-.5-.9.5.9zm-1.8-3.1.5.9-.5-.9zm-1.4.8-.5-.9.5.9zm-4.1 2.3.5.9-.5-.9zm-1.4 1.1.7.7-.7-.7zm-1.3 1.6-.9-.5.9.5zm-.7 1.6-1-.3 1 .3zm-.3 1.7 1 .1-1-.1zm0 .2 1-.1-1 .1zm.4 6-1 .1 1-.1zm-.4 1.1-.7-.7.7.7zm-1.1.4.1-1-.1 1zm-1.2-.4.4-.9-.4.9zm-2-2.1-1 .2c-.1-.3 0-.7.2-.8l.8.6zm.3-.4.8.7-.8-.7zm1.4-4.4-1 .1 1-.1zm-.1-.3 1-.3-1 .3zm-.9-3.1-1 .3 1-.3zm-.3-.8-1 .3v-.1l1-.2zm0-1.2 1 .1-1-.1zm.3-1.2-.9-.4.9.4zm.3-.5-.9-.5.9.5zm2.2-4.2-.9-.5.9.5zm.1-.3-1-.3 1 .3zm-.8-2.2.5-.9-.5.9zm-2.5.8-.9-.5.9.5zm-2.4 4.5.9.5-.4.8-.9-.4.4-.9zm-1.1-.6-.5.9.5-.9zm-2.4.8.9.5v.1l-.9-.6zm-.1 0-.9-.5.1-.1.8.6zm.8 2.4-.5.9.5-.9zm1.9 1 .4-.9.6.3v.6h-1zm.2 1.5 1-.2-1 .2zm0 .2 1-.3-1 .3zm1.2 3.8 1-.3v.2l-1 .1zm-.5 1.4-.7-.7.7.7zm-.8.9-.8-.7.8.7zm-.5 1 1 .1-1-.1zm4.3 6.4.4-.9-.4.9zm2.2.6.1-1-.1 1zm4-1.4.7.7-.7-.7zm1.5-3.9 1-.1-1 .1zm-.4-5.9-1 .1v-.1h1zm.2-.8-1-.3.3-.9.9.2-.2 1zm2.1.6-.3 1 .3-1zm4.6 1.3-.5.9.5-.9zm5.2-.8-.8-.7.1-.1.7.8zm.9-.9.7.7-.7-.7zm5.3-.8.1-1-.1 1zm17.9 6.7.5-.8-.5.8zm2 0 .5.8-.5-.8zm.8-1.8 1-.2-1 .2zm-.5-2-1 .3-.3-.9.9-.3.4.9zm-1.4-3.4.3 1-.8.3-.4-.8.9-.5zm-1-1.6-.8.5-.4-.7.5-.6.7.8zm2.7-5.4h-1 1zm-1.7-1.9v-1 1zm-1.9 1.8h1-1zm-1.4 2.6.8.7-.7.8-.8-.7.7-.8zm-5.1-2.8.3-1-.3 1zm-5.2-1.9-.4.9-1.5-.7 1.3-1 .6.8zm.2-.2.6.8-.6-.8zm.5-.4-.6-.8.6.8zm1.5-5.3-.9.3.9-.3zm0-.1.9-.3-.9.3zm-3-2.7.2-1-.2 1zm-2.5-.5-.2 1 .2-1zm-4.7 1.5.8.7-.8-.7zm-.8 1.2.9.4-.6 1.5-1-1.2.7-.7zm-1.5-2.2-.9.5.9-.5zm-.2-.3.9-.5-.9.5zm-.3-.6-.9.5-.8-1.4 1.6-.1.1 1zm1.8-.1.1 1-.1-1zm2.6-1 .5.8-.5-.8zm.9-.6-.5-.8.5.8zm2.8-6.8 1-.2-1 .2zm-.1-.1-1 .2 1-.2zm-3.4-3.9.3-.9-.3.9zm-3.2-1.1-.3.9c-.5-.1-.7-.3-.7-.8l1-.1zm-.6-2 .9-.5-.9.5zm-.1-.1-.9.5.9-.5zm-4.3-2.9-.1 1 .1-1zm-3.8-.4.1-1-.1 1zm-3.3.6.4.9-.7.3-.5-.6.8-.6zm-.2-.3.7-.7-.7.7zm-.1-.1-.7.7.7-.7zm-4.4-1.6-.1-1 .1 1zm-3.2.4.1 1-.1-1zm-4.5 3.6.9.3-.9-.3zm-.2 2.7 1-.2.3 1.6-1.5-.4.2-1zm-3.6-1.1-.3 1-1.5-.5 1-1.2.8.7zm.4-.6.8.6-.8-.6zm.5-.6-.8-.6.8.6zm-.4-6.4-.8.6.8-.6zm-.1-.1.8-.6-.8.6zm-4.2-1.9.1 1-.1-1zm-3.2.2-.1-1 .1 1zm-4.8 3.2-.9-.4.9.4zm-.2.4 1 .3-.6 1.8-1.2-1.5.8-.6zm-17.2-.4-1-.1c0-.2.1-.5.3-.6l.7.7z" style="clip-path:url(#SVGID_00000144319897184556815000000008079046797769412513_);fill:#87ab99"/></g><path d="M551.9 122.4c-2.6-.6-2-4.6.6-4.4 3.2.1 2.5 5.2-.6 4.4zm-19.7-4.1c-2.5 11.3 12.1 8 17.9 13.7-1.7 7.9-5.3 18.3-2.6 26.7-11.2 4.1-2.1 21.9-.6 6.4 2.9-6.6 10.6 7.2 15.3 8-.1 4.7 3.5 8.4 7 10.6-1.2.7-2.3 1.7-3.1 3-3.3-1.9-5.4 3.6-1.6 4.2-2.4 4.9 4.8 4.7 7.6 5.7 2 .4 3.2-.4 4.4-1 5.9-1.9 7.9-6.9 6.2-13.1 4.8 2 8.3 3.6 11 6.6.9.9 2.3.9 3.2 0 2.4-4.3-4.7-6.6-8-8.8 5.6-1.5 6.2-10.8.5-6.4-1.5 4.6-8.5 1.7-11 4.5-1.1 3.2.8 7.7.2 10.7-.7.7-3.9 2.5-5.5 3.2l-4-1c.6-5.4 4.9-1.8 6.5-5.3.5-6.2-12.7-8.4-7.6-14.5.1-.1 7.4-3.2 7.5-3.3 2.7-1.1.9-5.4-1.8-4.1-1.8 1-8.6 3.2-9.8 4.9-2.8-1.9-5.8-4.1-8.1-6.4 4.7-1.2 5.3-6.2 5.4-10.1.3-2.9-4.3-3.3-4.5-.4l-.5 4.9c-10.2 7.4-2.5-20.6-1.8-23.5 3.8-.3 5.8-3.4 6.9-7.7.5-2.9-4-3.6-4.5-.7-.2.9-.9 2.3-1.2 2.6-2.2 3.9-3.9-3.2-12.6-3.5-9.3-1.9-7.5-5.1-3.1-8.5 1.4-1.2 2-.9 4-.9 6.4.6 9.5-1 14.4-.5 4.7 1.6 10.4 8.6 6.8 13.4-2.8 3.5-2.5 10.6-2.3 15.1 2.4 10.1 8.5 6.2 20.8 14.9 23.6 12.5 19.4 35.6 37.7 47.7-6.4-1-12.6-7.2-18.1-12.9-2-2.2-5.3 1.1-3.3 3.1 5.7 5.9 12.4 12.2 18.8 13.8 10.8 2.9 15.7-1.1 11.4-4.6-20.4-5.7-19.9-39.5-44.1-51-8.2-6-16.1-5.9-18.5-11.1-.9-6.2.7-11.4 3.4-16.6 1.1-8.7-8.6-18.9-17.7-16.1-7.7.6-18.3-1.5-21 8.3z" style="clip-path:url(#SVGID_00000097483013376816323850000011746360739683678098_)"/><g style="clip-path:url(#SVGID_00000097483013376816323850000011746360739683678098_)"><defs><path id="SVGID_00000041261850229081064590000011053457085747425168_" d="M551.9 122.4c-2.6-.6-2-4.6.6-4.4 3.2.1 2.5 5.2-.6 4.4zm-19.7-4.1c-2.5 11.3 12.1 8 17.9 13.7-1.7 7.9-5.3 18.3-2.6 26.7-11.2 4.1-2.1 21.9-.6 6.4 2.9-6.6 10.6 7.2 15.3 8-.1 4.7 3.5 8.4 7 10.6-1.2.7-2.3 1.7-3.1 3-3.3-1.9-5.4 3.6-1.6 4.2-2.4 4.9 4.8 4.7 7.6 5.7 2 .4 3.2-.4 4.4-1 5.9-1.9 7.9-6.9 6.2-13.1 4.8 2 8.3 3.6 11 6.6.9.9 2.3.9 3.2 0 2.4-4.3-4.7-6.6-8-8.8 5.6-1.5 6.2-10.8.5-6.4-1.5 4.6-8.5 1.7-11 4.5-1.1 3.2.8 7.7.2 10.7-.7.7-3.9 2.5-5.5 3.2l-4-1c.6-5.4 4.9-1.8 6.5-5.3.5-6.2-12.7-8.4-7.6-14.5.1-.1 7.4-3.2 7.5-3.3 2.7-1.1.9-5.4-1.8-4.1-1.8 1-8.6 3.2-9.8 4.9-2.8-1.9-5.8-4.1-8.1-6.4 4.7-1.2 5.3-6.2 5.4-10.1.3-2.9-4.3-3.3-4.5-.4l-.5 4.9c-10.2 7.4-2.5-20.6-1.8-23.5 3.8-.3 5.8-3.4 6.9-7.7.5-2.9-4-3.6-4.5-.7-.2.9-.9 2.3-1.2 2.6-2.2 3.9-3.9-3.2-12.6-3.5-9.3-1.9-7.5-5.1-3.1-8.5 1.4-1.2 2-.9 4-.9 6.4.6 9.5-1 14.4-.5 4.7 1.6 10.4 8.6 6.8 13.4-2.8 3.5-2.5 10.6-2.3 15.1 2.4 10.1 8.5 6.2 20.8 14.9 23.6 12.5 19.4 35.6 37.7 47.7-6.4-1-12.6-7.2-18.1-12.9-2-2.2-5.3 1.1-3.3 3.1 5.7 5.9 12.4 12.2 18.8 13.8 10.8 2.9 15.7-1.1 11.4-4.6-20.4-5.7-19.9-39.5-44.1-51-8.2-6-16.1-5.9-18.5-11.1-.9-6.2.7-11.4 3.4-16.6 1.1-8.7-8.6-18.9-17.7-16.1-7.7.6-18.3-1.5-21 8.3z"/></defs><clipPath id="SVGID_00000015347195895449087730000009950763206448399012_"><use xlink:href="#SVGID_00000041261850229081064590000011053457085747425168_" style="overflow:visible"/></clipPath><path d="M554.4 123.5c-.8.5-1.9.6-2.8.4l.7-2.9c.2 0 .4 0 .6-.1l1.5 2.6zm1.7-2.4c-.2 1-.8 1.8-1.7 2.3l-1.6-2.5c.2-.1.3-.3.4-.5l2.9.7zm-.5-2.8c.5.9.7 1.9.4 2.8l-2.9-.7c0-.2 0-.4-.1-.6l2.6-1.5zm-3-1.8c1.3.1 2.4.7 3.1 1.8l-2.6 1.6c-.1-.2-.4-.4-.6-.4l.1-3zm-.7 0c.2 0 .5-.1.7 0l-.1 3h-.2l-.4-3zm-.7.2c.2-.1.5-.1.7-.2l.4 3h-.2l-.9-2.8zm-.7.3c.2-.1.4-.2.7-.3l1 2.8-.1.1-1.6-2.6zm-1.7 2.3c.2-1 .9-1.8 1.7-2.3l1.5 2.6c-.2.1-.3.3-.3.5l-2.9-.8zm.4 2.9c-.5-.8-.7-1.9-.4-2.9l2.9.7c0 .2 0 .4.1.6l-2.6 1.6zm.4.5c-.1-.1-.3-.3-.4-.5l2.6-1.6s0 .1.1.2l-2.3 1.9zm.6.5c-.2-.1-.3-.3-.5-.5l2.2-2.1.2.1-1.9 2.5zm.7.4c-.3-.1-.5-.3-.7-.4l1.8-2.4-1.1 2.8zm.6.3c-.2-.1-.5-.1-.7-.3l1.4-2.7h.1l-.8 3zm-20.1-6.9 1.6 2.6-1.6-2.6zm5.7-3.1c-1.8 1.1-3 2.8-3.5 4.7l-2.9-.7c.7-2.7 2.4-5 4.8-6.5l1.6 2.5zm1-.7c-.3.2-.6.5-1 .7l-1.6-2.5c.3-.2.5-.4.8-.6l1.8 2.4zm3.6-1.5c-1.8.2-2.7.8-3.6 1.5l-1.8-2.4c1-.8 2.5-1.9 5.1-2.1l.3 3zm2.3 0h-2.3l-.3-3h2.6v3zm9.4-.3c-2.7.6-6.9.3-9.4.3l.1-3c2.2 0 6.2.2 8.6-.2l.7 2.9zm5.6-.1c-1.8-.5-3.8-.4-5.6.1l-.8-2.9c2.3-.6 4.8-.7 7.1-.1l-.7 2.9zm7 5.2c-1.5-2.6-4-4.5-7-5.2l.7-2.9c3.7.9 6.9 3.3 8.8 6.6l-2.5 1.5zm2.2 3.5c-.7-.9-1.4-2.1-2.3-3.5l2.6-1.5c.8 1.4 1.5 2.5 2.1 3.3l-2.4 1.7zm1.1 5.6c.5-2 .1-3.9-1-5.6l2.4-1.8c1.7 2.4 2.2 5.2 1.5 8l-2.9-.6zm-1.6 3.6c.8-1.3 1.4-2.5 1.6-3.6l2.9.7c-.4 1.5-1 2.9-2 4.5l-2.5-1.6zm-1.5 3.4c.4-1.7 1-2.6 1.5-3.4l2.5 1.6c-.4.7-.8 1.3-1.1 2.5l-2.9-.7zm-.5 3.2c.1-1.2.2-2.2.5-3.2l2.9.7c-.2.7-.3 1.6-.4 2.7l-3-.2zm.1 6.8-.2-6.7 3-.1.2 6.7-3 .1zm3 4.1c-1.7-.6-2.9-2.3-2.9-4.1l3-.1c0 .6.4 1.2 1 1.4l-1.1 2.8zm16.3 8.3c-7.4-4.3-12.9-7-16.3-8.3l1-2.8c3.7 1.3 9.4 4.2 16.8 8.5l-1.5 2.6zm24.7 30.4c-4.4-9.9-9.7-21.9-24.7-30.5l1.5-2.6c15.9 9.1 21.5 21.9 26 31.9l-2.8 1.2zm3.3 7c-1.1-2.1-2.2-4.5-3.3-6.9l2.7-1.2c1.1 2.5 2.1 4.7 3.2 6.7l-2.6 1.4zm16.4 13.7c-4.6-1.5-13.3-7.2-16.5-13.7l2.6-1.4c2.6 5.6 10.9 11.1 14.7 12.3l-.8 2.8zm.5.4c-.1-.2-.2-.3-.4-.4l.9-2.8c1 .3 1.7 1 2.2 1.9l-2.7 1.3zm0 .6c.1-.2.1-.4 0-.6l2.7-1.3c.4.9.5 1.9.2 2.9l-2.9-1zm-11 .7c5.9 1.1 8.8 1.9 11-.8l2.8 1c-2.5 4.9-7.7 4.1-14.6 2.7l.8-2.9zm-18-13.3c5 5.1 11.4 11.6 18 13.3l-.7 2.9c-7.5-2-14.1-8.6-19.5-14.2l2.2-2zm0-1.1c-.3.3-.3.8 0 1.1l-2.2 2.1c-1.4-1.5-1.4-3.9.1-5.3l2.1 2.1zm.4-.7c-.1.4-.4.7-.7.9.3-.2.6-.5.7-.9l-2.9-.7c.1-.4.4-.7.7-.9-.3.2-.6.5-.7.9l2.9.7zm.7.8c-.3-.3-.8-.3-1.1 0l-2.1-2.2c1.5-1.4 3.9-1.4 5.3.1l-2.1 2.1zm17.3 12.9c-6.4-1.7-12.6-8.2-17.3-12.9l2.2-2.1c4.2 4.3 10.3 10.6 15.9 12.1l-.8 2.9zm1.6.3c-.5-.1-1-.2-1.6-.4l.7-2.9 1.5.3-.6 3zm-9.3-13.6c2.7 5.1 6.8 8.6 10.4 10.9l-1.6 2.5c-3.8-2.5-8.3-6.4-11.4-12l2.6-1.4zm-3.3-7c1.1 2.6 2.2 4.9 3.3 7l-2.6 1.4c-1.2-2.2-2.3-4.7-3.4-7.2l2.7-1.2zm-24-29.8c14.6 8.4 19.9 20.4 24.1 29.8l-2.7 1.2c-4.1-9.3-9.1-20.5-22.8-28.4l1.4-2.6zm-16.1-8.2c2.4.9 7.1 3 16.1 8.2l-1.5 2.6c-8.9-5.1-13.5-7.1-15.6-7.9l1-2.9zm-4-5.5c.1 2.5 1.6 4.7 3.9 5.5l-1 2.8c-3.5-1.3-5.8-4.6-5.9-8.3h3zm-.1-6.8.2 6.8-3 .1-.2-6.8 3-.1zm0-.1v.1l-3 .1v-.3l3 .1zm.5-3.5c-.3 1-.4 2.2-.5 3.6l-3-.2c.1-1.5.3-2.8.6-4.1l2.9.7zm1.7-3.8c-.6 1-1.3 2.1-1.7 3.8l-2.9-.7c.5-2.2 1.3-3.6 2.1-4.7l2.5 1.6zm1.4-3.1c-.3 1-.7 2-1.4 3.1l-2.5-1.6c.6-.9.9-1.7 1.1-2.3l2.8.8zm-.8-4.4c.9 1.3 1.2 2.7.8 4.3l-2.9-.7c.2-.8.1-1.3-.3-1.9l2.4-1.7zm-2.3-3.6c.9 1.5 1.7 2.7 2.3 3.7l-2.4 1.8c-.8-1.1-1.6-2.4-2.5-3.9l2.6-1.6zm-6-4.5c2.5.6 4.7 2.2 6 4.5l-2.6 1.5c-.9-1.6-2.4-2.7-4.1-3.1l.7-2.9zm-4.9 0c1.6-.4 3.2-.5 4.8-.1l-.7 2.9c-1.1-.3-2.2-.3-3.3 0l-.8-2.8zm-9.8.4c3.1 0 7.3.2 9.9-.4l.8 2.9c-3.1.7-7.2.5-10.7.5v-3zm-2.1 0h2.1l-.1 3h-1.8l-.2-3zm-2.8 1.2c.8-.7 1.7-1.2 2.8-1.2l.3 3c-.7.1-.5.1-1.2.6l-1.9-2.4zm-1.1.8c.4-.3.8-.5 1.1-.8l1.8 2.4c-.4.3-.8.6-1.3.9l-1.6-2.5zm-2.9 3.9c.4-1.6 1.4-3 2.8-3.9l1.6 2.5c-.8.5-1.3 1.2-1.5 2.1l-2.9-.7zm.6 3.4c-.5-.7-.9-1.8-.6-3.4l2.9.6c-.1.6-.1.7.1 1.1l-2.4 1.7zm7 3.1c-3.8-1.1-5.1-1.2-7.1-3.1l2.6-1.6c-.1-.1-.1-.2-.2-.2 1.3.9 2.3 1.2 5.4 2l-.7 2.9zm4.9.9c-1.5-.2-3.3-.6-4.9-1l.7-2.9c1.5.4 3.3.7 4.6.9l-.4 3zm3.4 2.3c-1-1.1-2-2-3.4-2.2l.4-3c2.6.4 4.2 2.1 5.2 3.2l-2.2 2zm.2.2-.1-.1 2.2-2.1.1.1-2.2 2.1zm2.3 1.3c-.9-.3-1.7-.7-2.3-1.3l2.2-2c.1.1.6.4.8.5l-.7 2.8zm3.4-1.9c-.6 1.4-2.4 2.4-3.5 1.9l.7-2.9c.2 0-.2 0-.2.1-.1 0 .2-.2.4-.5l2.6 1.4zm1.3-2.8c-.3 1.2-1.1 2.5-1.3 2.9l-2.5-1.6c.2-.3.8-1.5.9-2l2.9.7zm.1-.4c0 .1 0 .2-.1.3l-2.9-.7v-.1l3 .5zm.9-.6c-.4-.1-.8.2-.9.6l-3-.5c.3-2.1 2.3-3.4 4.3-3.1l-.4 3zm.6.9c.1-.4-.2-.8-.6-.9l.5-3c2 .3 3.4 2.3 3.1 4.3l-3-.4zm-.1.4c0-.2.1-.3.1-.4l3 .5c0 .2-.1.5-.1.7l-3-.8zm-1.4 3.2c.3-.5 1.2-2.3 1.4-3.2l2.9.7c-.5 2-1.7 4-1.8 4.2l-2.5-1.7zm-4 2.8c1.5 0 2.9-.8 3.9-2.7l2.6 1.5c-1.5 2.5-3.7 4.1-6.4 4.2l-.1-3zm-2.2 4.1c.3-1.2.6-2.2.8-3l2.9.8c-.2.7-.5 1.7-.8 2.9l-2.9-.7zm-2.6 18.5c-.2-6.2 1.6-14.3 2.6-18.5l2.9.7c-1 4.2-2.7 12-2.5 17.7l-3 .1zm1.6 4.8c-.9-1.5-1.6-3.1-1.6-4.8l3-.1c0 .9.4 2.1 1.2 3.3l-2.6 1.6zm6.4-1.7c-1.2 1.7-3 2.5-5.2 2.4l.3-3c.8.2 2-.5 2.3-.8l2.6 1.4zm.6-5.5-.5 4.9-3-.3.5-4.9 3 .3zm.8-.7c-.4 0-.8.3-.8.7l-3-.3c.2-2.1 2-3.6 4.1-3.4l-.3 3zm.7.8c0-.4-.3-.8-.7-.8l.3-3c2.1.2 3.6 2 3.4 4.1l-3-.3zm-.4 5.1.5-5 3 .3-.5 5-3-.3zm-1.7 2.5c1.1-.9 1.6-1.8 1.7-2.5l3 .3c-.2 1.8-1.2 3.4-2.8 4.6l-1.9-2.4zm-2.3 1.3c.8-.3 1.6-.7 2.3-1.2l1.9 2.3c-.9.8-2 1.3-3.1 1.7l-1.1-2.8zm7.8 9c-2.9-1.9-5.9-4.1-8.3-6.5l2.1-2.1c2.2 2.2 5.1 4.3 7.9 6.2l-1.7 2.4zm3.7-1.4c-.7.3-1.2.7-1.7 1.2l-2.2-2c.7-.8 1.7-1.5 2.7-1.9l1.2 2.7zm7.5-3.3-7.5 3.3-1.2-2.7 7.5-3.3 1.2 2.7zm1 .4c-.2-.4-.6-.6-1-.4l-1.2-2.7c1.9-.8 4.1 0 5 1.9l-2.8 1.2zm0 .6c.1-.2.1-.4 0-.6l2.7-1.2c.5 1.1.4 2.3-.1 3.3l-2.6-1.5zm-.4.4c.2-.1.3-.2.4-.3l2.7 1.4c-.4.7-1 1.3-1.8 1.7l-1.3-2.8zm-7.4 3.2 7.4-3.3 1.2 2.7-7.4 3.3-1.2-2.7zm-.1.1 1.3 2.7h-.1l-1.2-2.7zm-2.1 3c.1-1.3.9-2.5 2.1-3l1.2 2.7c-.2.1-.3.3-.3.5l-3-.2zm0 .9c-.1-.3-.1-.7 0-.9l3 .2v.1l-3 .6zm1.2 3.1c-.6-.9-1-1.9-1.2-3.1l2.9-.6c.2.8.4 1.5.8 2.1l-2.5 1.6zm1 1.4c-.4-.4-.8-.9-1-1.4l2.6-1.6c.2.4.4.6.6.9l-2.2 2.1zm2.6 2.1c-.8-.6-1.7-1.2-2.6-2.1l2.2-2.1c.6.7 1.3 1.1 2.2 1.7l-1.8 2.5zm3.9 4.3c-.9-2.1-2.4-3.2-3.9-4.3l1.7-2.4c1.6 1.1 3.6 2.6 4.9 5.5l-2.7 1.2zm.1.1-.1-.2 2.8-1.2.1.2-2.8 1.2zm0 .5v-.5l2.7-1.2c.3.8.4 1.6.2 2.4l-2.9-.7zm-1.9.7c.9-.1 1.7.2 2-.7l2.9.7c-.5 2.4-3.1 3.1-4.9 3v-3zm-1 0h1v3h-.8l-.2-3zm-3.4 4c.4-1.5 1.3-2.9 2.6-3.7l1.7 2.5c-.6.4-1.1 1.1-1.4 2l-2.9-.8zm-.1.7.2-.6 2.9.7-.2.6-2.9-.7zm5 2.8-4-1 .7-2.9 4 1-.7 2.9zm1.9-.5c-.4.2-.7.4-1.2.5l-.5-3c-.4.1.2-.1.3-.2l1.4 2.7zm.6-.4-.6.3-1.4-2.6c.2-.1.5-.3.7-.4l1.3 2.7zm4.5-2.7c-1.1 1-3 2.1-4.5 2.8l-1.3-2.7c1-.5 3-1.6 3.6-2.2l2.2 2.1zm.2-5.5c.2 1.6.5 3.3.1 4.9l-2.9-.9c.2-.8-.1-2.5-.2-3.6l3-.4zm-.3-4c0 1.3.2 2.7.4 4l-3 .4c-.2-1.3-.4-2.8-.4-4.3l3-.1zm0-1.3c0 .4-.1.9-.1 1.3h-3c0-.5 0-1.1.1-1.6l3 .3zm.1-.3c0 .1-.1.2-.1.3l-3-.3c.1-.5.2-1 .4-1.4l2.7 1.4zm.8-.4c-.3 0-.6.1-.7.4l-2.7-1.4c.7-1.3 2.1-2.1 3.6-2l-.2 3zm1.2 0h-1.2l.2-3h1v3zm8.9-4c-1.5 3.5-6 3.9-9 4v-3c1.6 0 5.6-.5 6.2-2.1l2.8 1.1zm.1-.1c0 .1-.1.2 0 0l-2.9-1c.1-.2.2-.3.2-.4l2.7 1.4zm.9-.3c-.4-.1-.8 0-.9.4l-2.7-1.4c.9-1.7 2.9-2.4 4.7-1.8l-1.1 2.8zm.5 1c.1-.4 0-.8-.4-1l1.1-2.8c1.9.7 2.9 2.9 2.2 4.9l-2.9-1.1zm-3.8 3.7c1.7-.8 3.1-1.9 3.8-3.7l2.8 1.1c-1 2.7-3.2 4.4-5.3 5.4l-1.3-2.8zm6.2 6.6c-1.5-1.3-3.6-2.6-6.2-3.9l1.3-2.7c2.6 1.3 5.1 2.7 6.9 4.4l-2 2.2zm1.4 1.4-1.4-1.4 2-2.2c.5.4 1 .9 1.6 1.5l-2.2 2.1zm0 1c.3-.3.3-.8 0-1.1l2.1-2.1c1.5 1.5 1.4 3.9 0 5.3l-2.1-2.1zm0 0c.1-.1.2-.1 0 0l2 2.2c-.1.1-.1.1 0 0l-2-2.2zm-1.1 0c.3.3.8.3 1.1 0l2.1 2.2c-1.5 1.4-3.8 1.4-5.3-.1l2.1-2.1zm-1.4-1.3c.4.4.9.8 1.4 1.3l-2.1 2.1c-.5-.5-.9-.9-1.3-1.2l2-2.2zm-10.1-5.6c3.8 1.6 7.9 3.5 10.1 5.5l-2 2.2c-1.8-1.6-5.3-3.4-9.2-5l1.1-2.7zm-1.8 3.4c-.1-.6-.2-1.2-.2-1.8l3-.3c.1.6.1 1.1.2 1.7l-3 .4zm-.1 5.9c.7-1.5.5-3.4.1-6l3-.4c.3 2.3.7 5.1-.3 7.6l-2.8-1.2zm-5.5 3.9c1.2-.6 4.6-2.3 5.5-3.9l2.8 1.2c-1.1 2.5-5 4.4-6.9 5.4l-1.4-2.7zm-.6.3c.1-.1.4-.2.6-.3l1.3 2.7c-.1.1-.2.1-.4.2l-1.5-2.6zm-2.8.6c1.1.3 1.9-.2 2.9-.6l1.4 2.6c-.9.5-2.7 1.5-5 .9l.7-2.9zm-6.3-1.5 6.3 1.5-.7 2.9-6.3-1.5.7-2.9zm-.5-.9c-.1.4.1.8.6.9l-.7 2.9c-2-.5-3.3-2.5-2.8-4.5l2.9.7zm.3-1.5-.4 1.5-2.9-.7.4-1.5 2.9.7zm-1.2-1.9c.2.1.4.1.5.2l-1.5 2.6c-.2-.1.2.1.3.1l.7-2.9zm-.8-.8c-.1.4.2.8.7.8l-.4 3c-2.1-.3-3.5-2.1-3.3-4.2l3 .4zm.8-.7c-.4-.1-.8.2-.8.7l-3-.4c.3-2.1 2.1-3.5 4.2-3.3l-.4 3zm.8.2c-.3-.1-.5-.2-.7-.2l.3-3c.6.1 1.1.2 1.6.4l-1.2 2.8zm4.4-3c-1 .6-1.9 1.4-2.6 2.5l-2.5-1.6c.9-1.4 2.1-2.6 3.6-3.5l1.5 2.6zm-.8-3.2c.3.2.6.5.9.7l-1.8 2.4-.9-.6 1.8-2.5zm-2.8-2.3c.9 1 1.9 1.6 2.8 2.3l-1.7 2.4c-.9-.7-2.1-1.5-3.2-2.6l2.1-2.1zm-2.6-5.2c.4 2.1 1.3 3.9 2.6 5.2l-2.2 2.1c-1.8-1.8-2.9-4.1-3.4-6.8l3-.5zm-.1-1.2c0 .4 0 .8.1 1.2l-2.9.6c-.1-.6-.2-1.2-.1-1.9l2.9.1zm-12.4-11.2c3 3.8 7.6 7.3 11.7 9.9l-1.6 2.5c-4.2-2.7-9.2-6.4-12.5-10.6l2.4-1.8zm-5.8 2.7c.6-2 2.5-3.3 4.6-3.3v3c-.8 0-1.5.5-1.7 1.2l-2.9-.9zm-.4 4.1c-.2-1.3 0-2.7.4-4.1l2.9.9c-.3 1-.4 1.9-.3 2.7l-3 .5zm-.6.8c.4-.1.7-.4.6-.9l3-.4c.3 2.1-1.1 4-3.2 4.3l-.4-3zm-.3 0h.3l.4 3c-.5.1-1 0-1.4-.1l.7-2.9zm-.6-.6c0 .3.3.6.6.6l-.7 2.9c-1.4-.4-2.6-1.5-2.8-3.1l2.9-.4zm.5-4.8c-.5 1.7-.7 3.3-.5 4.8l-3 .4c-.3-2-.1-4.1.6-6.1l2.9.9zm4-4c-1.9.6-3.4 2.1-4 4l-2.9-.9c.9-2.9 3.2-5 5.9-6l1 2.9zm0-5.6c0 1.1.3 2.3.9 3.5l-2.8 1.2c-.6-1.5-1.1-3-1.1-4.6l3-.1zm2.6-18.9c-1.3 5.4-2.8 13-2.6 18.9l-3 .1c-.2-6.4 1.4-14.3 2.7-19.7l2.9.7zm.9-3.3c-.2.8-.5 1.9-.9 3.3l-2.9-.7c.3-1.4.6-2.5.9-3.4l2.9.8zm-1.4-2.3c.2.2.5.5.9.8l-1.7 2.4c-.5-.4-1-.8-1.3-1.1l2.1-2.1zm-.2-.2.1.2-2.2 2-.1-.2 2.2-2zm-2.3-1.7c1.1.3 1.6 1 2.3 1.7l-2.2 2c-.3-.3-.9-.8-.8-.9l.7-2.8zm0 0-.7 2.9.7-2.9zm-5.3-1.1c2.4.6 4.4.9 5.1 1l-.4 3c-.8-.1-2.9-.4-5.4-1.1l.7-2.9zm-7.9-3.6c.4.6 1.7 2.1 7.9 3.6l-.7 2.9c-6.4-1.6-8.6-3.3-9.6-4.8l2.4-1.7zm-.8-4.6c-.4 1.8-.1 3.3.8 4.6l-2.5 1.7c-1.4-2-1.8-4.5-1.3-7l3 .7zm.1-.2v.2l-2.9-.7v-.2l2.9.7zm19.9 3.6.8 1.3-.8-1.3zm.8-3.1 1.3-.8-1.3.8zm-1.9-1.1v-1.5 1.5zm-.4 0 .2 1.5-.2-1.5zm-.4.1-.5-1.4.5 1.4zm-.9 3.6-1.1 1-.1-.1 1.2-.9zm.7.6.6-1.4.1.1-.7 1.3zm-19.3-4 .8 1.3-3.1 1.9.9-3.5 1.4.3zm4.1-5.6-.8-1.3.8 1.3zm.9-.7-.9-1.2.9 1.2zm4.4-1.8-.1-1.5.1 1.5zm2.5 0v-1.5 1.5zm8.9-.3.4 1.4-.4-1.4zm14.3 5.8-1.3.8 1.3-.8zm2.2 3.5 1.2-.9-1.2.9zm-.6 10.8-1.3-.8 1.3.8zm-1.7 5.9h-1.5v-.1l1.5.1zm.1 6.6h-1.5 1.5zm2 2.8.5-1.4-.5 1.4zm16.6 8.4-.7 1.3.7-1.3zm25.3 31.1 1.4-.6-1.4.6zm3.2 6.9 1.3-.7-1.3.7zm15.6 13 .5-1.4-.5 1.4zm1.4 2.8 1.4.5-1.4-.5zm-12.8 1.8-.4 1.5.4-1.5zm-18.7-13.8 1.1-1-1.1 1zm0-3.2 1.5.4c0 .3-.2.6-.4.7l-1.1-1.1zm0 0-1.5-.4c0-.3.2-.6.4-.7l1.1 1.1zm3.2.1-1.1 1 1.1-1zm18.2 12.9.8-1.3-1.1 2.7.3-1.4zm-10.9-11.5 1.3-.7-1.3.7zm-3.3-7.1-1.4.6 1.4-.6zm-23.5-29.1-.7 1.3.7-1.3zm-15.9-8.1.5-1.4-.5 1.4zm-4.9-6.9h1.5-1.5zm-.1-6.7h1.5-1.5zm0-.2h-1.5v-.1l1.5.1zm2.4-8.1-1.3-.8 1.3.8zm.7-5.8 1.2-.9-1.2.9zm-2.4-3.8 1.3-.8-1.3.8zm-9.2-3.7-.4-1.4.4 1.4zm-10.2.4v1.5-1.5zm-2 0-.1-1.5.1 1.5zm-2 .9.9 1.2-.9-1.2zm-1.2.9.8 1.3-.8-1.3zm-2.2 2.9-1.5-.3 1.5.3zm.3 2.3 1.2-.9.1.1-1.3.8zm10.9 3.4-.2 1.5.2-1.5zm4.3 2.7-1.1 1 1.1-1zm.2.1 1.1-1-1.1 1zm3.3-.3-1.3-.7v-.1l1.3.8zm1.2-2.6-1.5-.2 1.5.2zm2.6-1.9-.2 1.5.2-1.5zm1.9 2.6-1.5-.2 1.5.2zm-1.8 4.3-1.3-.7.1-.1 1.2.8zm-5.2 3.4-1.4-.4.3-1.1h1.1v1.5zm-3.3 21.1h-1.5 1.5zm1.4 4-.2 1.5c-.5 0-.9-.2-1.1-.7l1.3-.8zm3.8-1.6 1.5.1c0 .2-.1.4-.2.6l-1.3-.7zm.4-4.9-1.5-.1 1.5.1zm4.5.4-1.5-.1 1.5.1zm-.4 5-1.5-.1 1.5.1zm-2.3 3.6.9 1.2-.9-1.2zm-2.7 1.5-1.1 1.1-1.7-1.7 2.3-.8.5 1.4zm8.1 6.3 1.1 1-.9.9-1.1-.7.9-1.2zm2.3-1.5-.6-1.4.6 1.4zm7.5-3.3.6 1.4-.6-1.4zm3 1.1-1.4.6 1.4-.6zm-.1 2-1.3-.7 1.3.7zm-1.1 1 .6 1.4-.6-1.4zm-7.4 3.3-.6-1.4.6 1.4zm-.1 0 .6 1.4-.6-1.4zm-1.3 1.8 1.5.1-1.5-.1zm.1.5 1.5-.3-1.5.3zm1 2.6 1.3-.8-1.3.8zm.8 1.1 1.1-1-1.1 1zm2.4 1.9.9-1.2-.9 1.2zm4.4 5 1.4-.6-1.4.6zm.1.1-1.4.6 1.4-.6zm.1 1.5 1.5.4-1.5-.4zm-3.4 1.8v1.5-1.5zm-.9 0-.8-1.2c.2-.2.5-.3.7-.3l.1 1.5zm-2 2.9-1.5-.4 1.5.4zm-.2.6-.4 1.5-1.5-.4.4-1.5 1.5.4zm4 1 .3 1.5c-.2.1-.5 0-.6 0l.3-1.5zm.8-.4.7 1.3-.7-1.3zm.7-.3.6 1.4-.6-1.4zm4-2.5 1.4.4c0 .2-.2.5-.4.6l-1-1zm-.1-4.2-1.5.2 1.5-.2zm-.4-4.2h1.5-1.5zm.1-1.5 1.5.2-1.5-.2zm.2-.8 1.3.7-1.3-.7zm2.2-1.2-.1 1.5.1-1.5zm1.1 0v1.5-1.5zm7.5-3 1.4.5-1.4-.5zm.2-.3-1.3-.7 1.3.7zm2.8-1 .5-1.4-.5 1.4zm1.3 2.9 1.4.5-1.4-.5zm-4.6 4.5-.7 1.3-2.9-1.4 2.9-1.3.7 1.4zm6.6 4.2 1-1.1-1 1.1zm1.5 1.4-1.1 1.1 1.1-1.1zm-.1 3.2 1 1.1-1-1.1zm0 0-1-1.1 1 1.1zm-3.2 0-1.1 1.1 1.1-1.1zm-1.3-1.3 1-1.1-1 1.1zm-9.7-5.3-1.5.2-.3-2.5 2.3 1-.5 1.3zm.2 1.8 1.5-.2-1.5.2zm-.2 6.7 1.4.6-1.4-.6zm-6.2 4.7.6 1.4-.6-1.4zm-.5.2.7 1.3-.7-1.3zm-11.4-4.9.7-1.3 1 .6-.3 1.1-1.4-.4zm-.2-.1.2-1.5h.2l-.4 1.5zm-1.9-2.5-1.5-.2 1.5.2zm2.5-2-.2 1.5.2-1.5zm1.2.3 1.3.8-.7 1.1-1.2-.5.6-1.4zm3-2.9.9-1.2 1.8 1.4-2 1.1-.7-1.3zm-.9-.7.9-1.2-.9 1.2zm-3-2.4-1.1 1 1.1-1zm-3-6-1.5.3 1.5-.3zm-.1-1.5.8-1.3c.7.3.8.6.7 1.3h-1.5zM550 162.8v-1.5c.5-.1.9.1 1.2.6l-1.2.9zm-3.1 2.2-1.4-.5 1.4.5zm-.4 3.5 1.5-.2-1.5.2zm-1.9 2.5.2 1.5-.2-1.5zm-2.6-1.9-1.5.2 1.5-.2zm.5-5.4-1.4-.5 1.4.5zm5-5 1.4-.6.6 1.5-1.5.5-.5-1.4zm-1-4.1h1.5-1.5zm3.6-22.7.9-1.2.9.6-.3 1-1.5-.4zm-1.1-.9-1.1 1 1.1-1zm-.2-.2 1.1-1-1.1 1zm-1.6-1.3.2-1.5h.1l-.3 1.5zm-14-5.2 1.2-.9-1.2.9zm-1-5.8-1.5-.3 1.5.3zm0-.2-.8-1.3 3.1-1.9-.9 3.5-1.4-.3z" style="clip-path:url(#SVGID_00000015347195895449087730000009950763206448399012_);fill:#87ab99"/></g><path d="M711.9 86.7c-4.8 13.4-16.1 22.7-29 25.2-1.4.3-2.5 1.3-2.7 2.7-1.1 7.2-.9 7.4-1.4 8.3-.3-.1-19.9-2.9-22.8-3-.4-1.1 0-1.1 1.1-9.7.2-1.3-.5-2.5-1.6-3.2-38.3-23.1-9.4-85.2 33.2-69.8 20 7.1 30.3 29.2 23.2 49.5z" style="clip-path:url(#SVGID_00000097483013376816323850000011746360739683678098_);fill:#f8d512"/><g style="clip-path:url(#SVGID_00000097483013376816323850000011746360739683678098_)"><defs><path id="SVGID_00000000926997775908926280000000197735796706381217_" d="M711.9 86.7c-4.8 13.4-16.1 22.7-29 25.2-1.4.3-2.5 1.3-2.7 2.7-1.1 7.2-.9 7.4-1.4 8.3-.3-.1-19.9-2.9-22.8-3-.4-1.1 0-1.1 1.1-9.7.2-1.3-.5-2.5-1.6-3.2-38.3-23.1-9.4-85.2 33.2-69.8 20 7.1 30.3 29.2 23.2 49.5z"/></defs><clipPath id="SVGID_00000161601664218425635940000001889325540970963389_"><use xlink:href="#SVGID_00000000926997775908926280000000197735796706381217_" style="overflow:visible"/></clipPath><path d="M688 39.1c18.9 6.7 28.7 27.6 21.9 46.9l3.8 1.3c7.5-21.3-3.4-44.6-24.4-52l-1.3 3.8zm-46.4 22.7c6.8-19.2 27.6-29.3 46.5-22.7l1.3-3.8c-21-7.4-44.1 3.9-51.6 25.1l3.8 1.4zm15 43.5c-14.2-8.8-20.9-26.8-15-43.5l-3.8-1.3c-6.6 18.5.8 38.5 16.7 48.2l2.1-3.4zm2.5 5.2c.3-2.2-.8-4.1-2.5-5.2l-2.1 3.4c.5.3.7.8.7 1.3l3.9.5zm-1.2 8.9c0-2.5.5-3.6 1.1-8.9l-4-.5c-.5 6.2-1.6 6.6-1 10.6l3.9-1.2zm21.5 1.6c-5.7-.9-19.1-2.8-23.3-3l-.1 4c3.4.2 17.5 2.2 22.3 2.9l1.1-3.9zm-1.1-6.6c-.7 4.3-.6 5.7-1.1 7.6l3.4 2c1.3-3.2.7-3.9 1.6-9l-3.9-.6zm4.2-4.5c-2.2.4-3.9 2.1-4.3 4.4l4 .6c.1-.5.5-.9 1.1-1.1l-.8-3.9zM710 86c-4.5 12.8-15.2 21.5-27.5 24l.8 3.9c13.6-2.7 25.5-12.4 30.5-26.5L710 86zm-21.3-48.8.7-1.9-.7 1.9zm-49 23.9 1.9.7-1.9-.7zm15.8 45.9 1.1-1.7-1.1 1.7zm1.6 3.2-2-.3 2 .3zM656 120l-1.9.6.4 1.4h1.4l.1-2zm22.8 3-.5 1.9 1.5.4.8-1.3-1.8-1zm1.4-8.4 2 .3-2-.3zm2.7-2.7.4 2-.4-2zm29-25.2 1.9.7-1.9-.7z" style="clip-path:url(#SVGID_00000161601664218425635940000001889325540970963389_)"/></g><path d="M826 394c-.2 1.6-.7 4.4-.9 5.8H674.4c.7-1.2 1.3-2.4 2-3.7-1.5.8-4.9 2.9-7.4 2.4 2.4-29.2-27.1-50.6-47.2-60.9 38.6-33 90.3-48.8 140.5-50.6 55.3-.9 69.8 62.7 63.7 107z" style="clip-path:url(#SVGID_00000097483013376816323850000011746360739683678098_);fill:#d09df6"/><g style="clip-path:url(#SVGID_00000097483013376816323850000011746360739683678098_)"><defs><path id="SVGID_00000076575061577155378070000000234431693827017605_" d="M826 394c-.2 1.6-.7 4.4-.9 5.8H674.4c.7-1.2 1.3-2.4 2-3.7-1.5.8-4.9 2.9-7.4 2.4 2.4-29.2-27.1-50.6-47.2-60.9 38.6-33 90.3-48.8 140.5-50.6 55.3-.9 69.8 62.7 63.7 107z"/></defs><clipPath id="SVGID_00000168083908114160774400000006031643613641226923_"><use xlink:href="#SVGID_00000076575061577155378070000000234431693827017605_" style="overflow:visible"/></clipPath><path d="m827.4 395.5-2.8-2.8 2.8 2.8zm-16.7-81.2c12.7 24.4 16.7 52.2 13.3 79.5l4 .5c3.5-28-.5-56.7-13.7-81.9l-3.6 1.9zm-48.3-25.2c17.8.5 39.7 8.6 48.4 25.2l3.5-1.9c-9.5-18.2-32.6-26.8-51.8-27.4l-.1 4.1zm-43.1 5.1c14.1-3.5 28.8-5.6 43-5.2l.1-4c-14.7-.5-29.8 1.7-44.1 5.3l1 3.9zm-96.1 44.9c27.5-25 60.4-35.7 96.1-44.9l-1-3.9c-35.8 9.2-69.6 20.1-97.8 45.8l2.7 3zm11.6 3.6c-3.8-2.2-8.2-4.2-11.8-6.7l-2.3 3.3c3.7 2.6 8.3 4.6 12 6.8l2.1-3.4zm-1-.3v4-4zm24 19.9c-6-7-16.4-15.9-23-19.7l-1.9 3.5c6 3.4 16.4 12.2 21.9 18.7l3-2.5zm10.9 18.8c-2.6-8.7-5.3-12.4-10.9-18.8l-3 2.6c5.5 6.4 7.5 8.9 10.1 17.4l3.8-1.2zm2.4 17.5c.3-5.9-.7-11.9-2.4-17.5l-3.8 1.2c1.6 5.2 2.4 10.7 2.2 16.1l4 .2zm.7-2.1h-2.7v4h2.7v-4zm3.6-2.1c-.9.5-2.6 1.4-4.5 2.3l1.8 3.6c1.8-.9 3.7-1.8 4.7-2.4l-2-3.5zm.8 6.4c.7-1.2 1.3-2.4 2-3.7l-3.5-1.9c-.7 1.3-1.3 2.4-2 3.6l3.5 2zm148.9-3H674.4v4h150.7v-4zm-1.1-4c-.2 1.5-.7 4.3-.9 5.8l4 .4c.2-1.4.7-4.2.9-5.7l-4-.5zm2 .2-2-.3c-.3 1.8 2.1 3 3.4 1.7L826 394zm-13.5-80.7-1.8.9 1.8-.9zm-50.1-26.2-.1 2 .1-2zm-43.5 5.2-.5-1.9.5 1.9zm-97 45.3-1.3-1.5c-.9.8-.8 2.4.2 3.1l1.1-1.6zm11.9 6.8-1 1.7c.3.2.7.3 1 .3v-2zm0 0 .9-1.8c-.3-.2-.6-.2-.9-.2v2zm22.5 19.2 1.5-1.3-1.5 1.3zm10.5 18.1-1.9.6 1.9-.6zm2.3 16.8-2-.1c-.1 1.1.9 2.1 2 2.1v-2zm2.7 0v2c.3 0 .6-.1.9-.2l-.9-1.8zm4.6-2.4 1.8.9c1-1.7-1.1-3.7-2.8-2.7l1 1.8zm-2 3.7-1.7-1c-.8 1.3.3 3 1.7 3v-2zm150.7 0v2c1 0 1.9-.8 2-1.8l-2-.2zm.9-5.8 2 .2c.3-1.8-2.1-3-3.4-1.7l1.4 1.5z" style="clip-path:url(#SVGID_00000168083908114160774400000006031643613641226923_)"/></g><path d="M652.5 359.5c-2-2.8-11.8-10.5-16.5-14-14 8-20.5 6-22 4l-33-60c4.8-2 14-13.8 18-19.5 1-2 1.6-7-4-11s-13 6.3-16 12c-2.3-14.3-10.5-49-20.5-31-11.8-8.7-15 3.4-13.5 13-8-10-12.3-4.2-13.5 0l2 7c-7.6-3.2-9.5 3.3-9.5 7l68.5 122.5c2.4 4.4 9.3 8.5 12.5 10 34.8 1.8 29.3.1 59-15.5 7.6-5.8-10.2-23.3-11.5-24.5zm25-133 19-39c18.6-11.4 42.1-4.6 36 23.5 34.5-8.5 27 36.5 5 32 .8 17.6 5 21.7 7 21.5l5.5 24c-3.2-1.2-24.3 3.2-34.5 5.5v-19.5c-22.1 5.5-27.8-20.8-29-36.5-9.2 0-9.8-7.7-9-11.5z" style="clip-path:url(#SVGID_00000097483013376816323850000011746360739683678098_);fill-rule:evenodd;clip-rule:evenodd;fill:#ffd7b1"/><path d="M836.2 398.5H676.7c2.4-7.2 5.9-13.9 10.3-20-1.5-7.9-12.9 19-12.7 20h-5.1c.2-4.1-.4-9.7-1.9-15-.1-.6-.6-2-.7-2.3-15.8 9.4-30.3 20.2-60 17.3-10.4-3.3-15.2-12.8-20.3-22-72.4-129.8-54.3-97.2-60-108.5-1.6-2.4-1-5.4 1.5-6.7 7.5-2.7 5.9 4 13.5 15.4 7 4.4-7.7-17.6-7.1-17.6-2.6-3.6-2-8.5 1.4-10.4 9.8-.1 13.3 19 15.7 26.4.3 1.5 2.5 1 2.2-.4-2.7-13.5-6.7-16.2-7.7-24.7-1.6-7.5 5.2-16.9 11.4-8.8 2.3 3 2.4 5.1 8.3 28.8.1.5.6.9 1.1.9 3.1.5-3.1-16.1-2.7-17-.3-7.6-7.7-14.4-2.3-17.1 15.1-3.9 14.2 45.7 18.2 38.3 1.1-5.6 4.6-14.3 11.1-15.1 19.5 2.1-4.6 23.9-11 29-2.2 1.6 33 59.3 32.9 60.9 7.7 5.7 12.2 1.9 23.1-3.9-4.3-2.8-9.8-5.2-14.1-8.1.3-.3.7-.6 1-.9-4.3-1 3 10.8 2.8 11.8-3.3 1.3-8.5 2.4-11.1-.3l-32.6-58.4c6.9-6.9 25.7-20.4 15.5-30.8 43.9-3.2 29.9-8.3 48.6-.2 10.1 2.1 10.6-5.2 17.1-5.6.2 0 23.3-3.4 23.9-3.5 2 14.4 11 29.3 27.4 25.9 0 .2 0 17.3.1 17.7.7-.2 1.5-.4 2.2-.6-.1-11.8-.1-13.8 0-17.4 10.4-2.1 17.9-7 23-13.2 5.8 6.7 5.9 15.9 8.8 25.2.8-.1 1.5-.1 2.3-.2-1.6-7.2-3.5-13.8-5.4-20 11.2 6.6 28.7-5.1 18.6-14 24.8.3 34.3-34.8 12.7-47 27.7-6.3 1.9-58-20.3-43.1-.1-9.6-6.2-19.3-16.5-23l-15.8-44.8c-.6-2.5-8.1 3-9.3 2.9 17.7 53.2 12.5 37.7 13.5 40.6-9.6.8-15.3 8.8-12.9 14.4-7.6-8.9-23-9.5-31.2-1.2-10.2 9.6-6.9 39.3 10.7 36.9-3 9.8-25.1 38.1-16.9 46.8-41 27.6-56-5.3-102.8 12.6-1.2-7.7-11.6-21.2-17.8-10.6-8.4-7.1-15.4 3.8-13.8 12.3-4.5-6.3-11.2-5.2-13 1.9-.2-.1-1.6-.6-2.7-1.5l-48.2-132.9c.6-2.2 1.5-4.1 2.7-6.1-18.5-4.1-19-5.7-19.4-2.5 4.7 2.1 48.2 164.8 61.3 152.3-2.9 3.8.1 7.8 1.6 11.3 16.7 26.1 56.8 112.9 75 125.9-218 .3 238.1 7 235.3-.1zm-198.3 0c4.6-1.8 8.5-3.5 12.7-5.6 1.8 1.6 3.1 3.1 8.2 5.6h-20.9zm42.8-176.2c17.5-34.6 16.4-32.4 17.4-33.9 25.7-12.8 38.4 1.9 31.4 27.5 25.2-21.1 39.3 28 7 25.6-.1 1.5 0 14.2 2.1 18.6-9.8 13.3-39.1 22-45.8.9-5.3-12.9-2.9-15.5-5.2-22.3 2.5-.3 4-5.4.6-3.3-8.1 5.2-13.1-5.8-7.5-13.1zm82.8-52.7c.2-.6.9-.9 1.5-.6 9.5 3 15.2 19.6 6.5 24.9-.5-.3-.7-1-.4-1.6 4.7-7.7 1.4-17.8-7-21.2-.5-.2-.8-.9-.6-1.5zm-184 98.5c-.3-2.7-.7-5.3-1.2-7.9 2.3-.1 4.5-.2 6.8-.4-2.7 2.2-4.3 5.1-5.6 8.3z" style="clip-path:url(#SVGID_00000097483013376816323850000011746360739683678098_);fill-rule:evenodd;clip-rule:evenodd"/><path d="M655 122.4c1.6-2.5-.8-1.2 17.1.8 4.3.6 6.1.8 6.6.9 2.1 2.8 1.2 7.5-2.5 7-5.8-.2-25.7.7-21.2-8.7zm17.2-39.7c1.2.3 2.5.4 3.7.4-1.7 12.4-3 25.1-3.9 37.7-2.3-.3-4.9-.7-7.3-1 2.3-11.9 5.4-25.7 7.5-37.1zm-6.8-6.6c-1.6-6.5 7.1-2.5 5 3.6-1.7-.6-4.2-2-5-3.6zm15-1.5c4.6-5.1 9.1 4.3-1.8 6 .3-2 .5-4.3 1.8-6zm-22.5 56.6c-.6 10.2 14.6 11.5 17.7 2.2 6.1.9 8.4-7.1 4.5-11.1-.8-.6-1.8-.6-5.7-1.1.9-12.7 2.2-25.6 3.9-38.2 21.1-3.6.1-24.2-2-2.2-1.2 0-2.5-.1-3.7-.4 2.1-19-21.4-5.8-2.6 1.6-2.1 11.3-5.3 25.6-7.5 37.5-1-.1-6.6-.9-7.3-.6-2 .5-2.3 2.6-2.6 3.4-1.9 4.6 0 7.9 5.3 8.9zM693.6 219.7c3.8 1 6.3-10.8 2.4-11.4-3.7-1-6.2 10.8-2.4 11.4zM696.3 202.9c5.9-3.2 7.9 7.7 9.1 2.3-1.7-8.1-15.6-4.2-9.1-2.3zM735.9 229.4c.2 6.7 6.8-5.2 1.5-8.7-5.1-1.7 2.7 5.4-1.5 8.7zM704.1 242.9c.8 5.2-5.4 5.8-8.7 3.3-5.4.8 3.5 4.7 5.5 3.8 7.1-.2 6.2-12.6 3.2-7.1zM497.5 96.1c1.1.7 49.1 136.6 51.2 136.2 4.6-.4-49.7-134.4-48.7-136 11.7-3.4 26.9-6.6 38.1-2.7.6.2 1.2-.1 1.4-.7-3.4-6.6-38.3-2.6-42 3.2zM644.1 234.8c-20.9-12-47-15.2-70.1-8.5-1.4.4-.8 2.6.6 2.2 23.3-6.7 49.5-3.2 70.2 9.4 1.5.9 2.6.1 2.4-.9 6.8-5.2 15.1-9.6 24.1-12.7 3.6-7.4-23.5 8.7-24.9 10.4l-38.9-105.3c8.2-9 18.3-16.3 29.3-21.3.6-.3.8-.9.6-1.5-8.8.1-27.5 15.1-32.3 23l39 105.2zM619.1 49.8c13.4 3 13.2 3 13.4 3 1.4 0 1.6-2 .3-2.3-.6.3-19-5.8-13.7-.7zM648.4 28.2c6.7 3.3-6.1-12.7-6-13.3-.8-1.3-2.8 0-1.9 1.3l7.9 12zM681.6 25.3c1.9.9 2.8-15.3 3.3-16 .2-1.5-2.1-1.8-2.3-.3.4.9-3.8 16.8-1 16.3zM719.5 41.5l10.5-6.1c3.4-6.2-10.9 4.1-11.6 4.1-1.3.7-.2 2.8 1.1 2zM727.5 69.3c-6.2 4.4 15.7 1.9 14.4-1.8-3.7-1.2-9.6 3.1-14.4 1.8z" style="clip-path:url(#SVGID_00000097483013376816323850000011746360739683678098_)"/></g></switch></svg>