<?xml version="1.0" encoding="utf-8"?>
<!-- Generator: Adobe Illustrator 28.1.0, SVG Export Plug-In . SVG Version: 6.00 Build 0)  -->
<svg version="1.1" id="Layer_1" xmlns="http://www.w3.org/2000/svg" xmlns:xlink="http://www.w3.org/1999/xlink" x="0px" y="0px"
	 viewBox="0 0 270 150" style="enable-background:new 0 0 270 150;" xml:space="preserve">
<style type="text/css">
	.st0{fill:#FFFFFF;}
	.st1{fill:#D09DF6;}
	.st2{fill:none;stroke:#FFFFFF;stroke-width:3;stroke-linecap:round;stroke-linejoin:round;stroke-miterlimit:10;}
	.st3{fill:none;stroke:#FFFFFF;stroke-width:3;stroke-linecap:round;stroke-linejoin:round;}
</style>
<g>
	<rect x="85" y="25" class="st0" width="100" height="100"/>
	<circle class="st1" cx="135" cy="75" r="45"/>
	<path class="st2" d="M149.9,72v10c0,0.7,0,1.3-0.1,1.9c-0.6,6.8-4.6,10.1-11.9,10.1h-1c-0.6,0-1.2,0.3-1.6,0.8l-3,4
		c-1.3,1.8-3.5,1.8-4.8,0l-3-4c-0.3-0.4-1-0.8-1.6-0.8h-1c-8,0-12-2-12-12V72c0-7.3,3.4-11.3,10.1-11.9c0.6-0.1,1.2-0.1,1.9-0.1h16
		C145.9,60,149.9,64,149.9,72z"/>
	<path class="st2" d="M159.9,62v10c0,7.3-3.4,11.3-10.1,11.9c0.1-0.6,0.1-1.2,0.1-1.9V72c0-8-4-12-12-12h-16c-0.7,0-1.3,0-1.9,0.1
		c0.6-6.7,4.6-10.1,11.9-10.1h16C155.9,50,159.9,54,159.9,62z"/>
	<path class="st3" d="M138.7,78.1L138.7,78.1"/>
	<path class="st3" d="M130,78.1L130,78.1"/>
	<path class="st3" d="M121.2,78.1L121.2,78.1"/>
</g>
</svg>
