<svg width="95" height="75" viewBox="0 0 95 75" fill="none" xmlns="http://www.w3.org/2000/svg">
<path fill-rule="evenodd" clip-rule="evenodd" d="M47.1269 61.0293C68.2875 61.0293 85.4668 64.1592 85.4668 68.0148C85.4668 71.8704 68.2875 75.0003 47.1269 75.0003C25.9663 75.0003 8.78711 71.8704 8.78711 68.0148C8.78711 64.1592 25.9663 61.0293 47.1269 61.0293Z" fill="#8FA9BD"/>
<path fill-rule="evenodd" clip-rule="evenodd" d="M53.7894 46.0699C53.5892 42.9727 54.1481 39.8094 55.5661 36.8457C58.782 30.1245 65.5667 26.2009 72.7844 26.1053C75.8611 26.0649 79.0167 26.72 82.008 28.1508C92.015 32.9387 96.416 44.6088 91.8296 54.1956C87.2431 63.7823 75.3946 67.6777 65.3876 62.8904C58.4746 59.5828 54.2366 52.9906 53.7894 46.0699Z" fill="#82B0D6"/>
<path fill-rule="evenodd" clip-rule="evenodd" d="M62.414 61.1568C60.8773 58.3721 59.9649 55.2961 59.7621 52.1598C59.5414 48.7488 60.158 45.2647 61.7198 42.0007C65.2507 34.6206 72.6886 30.2934 80.6135 30.1894C82.4755 30.165 84.3639 30.3736 86.2329 30.8304C93.1607 36.4954 95.7074 46.0905 91.8293 54.195C87.2429 63.7818 75.3944 67.6771 65.3874 62.8899C64.3325 62.3855 63.3406 61.8042 62.414 61.1575V61.1568Z" fill="#3F83C7"/>
<path fill-rule="evenodd" clip-rule="evenodd" d="M82.6302 40.9683C82.6302 40.9683 74.1862 39.4245 74.1862 47.5316L73.3418 44.2778L73.764 41.5913L75.1076 40.1714L77.5259 38.6744L79.2917 38.1367L81.9019 40.3626L82.6308 40.9683H82.6302Z" fill="#1A4B7B"/>
<path fill-rule="evenodd" clip-rule="evenodd" d="M91.4532 54.9378C86.6223 63.9804 75.1318 67.5524 65.3866 62.8903C64.3317 62.386 63.3391 61.8046 62.4132 61.1579C61.4091 59.3395 60.6718 57.3959 60.2246 55.3934C61.3802 55.6776 63.1274 56.4611 65.6708 57.9516C79.7266 66.187 91.3114 54.3828 91.3114 54.3828C91.3114 54.3828 91.3653 54.5888 91.4532 54.9385V54.9378Z" fill="#1A4B7B"/>
<path fill-rule="evenodd" clip-rule="evenodd" d="M52.7249 46.1377C52.6639 44.4797 52.8012 42.8114 53.1651 41.1656C53.5167 39.5756 54.0666 38.0081 54.8417 36.4983C56.576 33.0656 59.2157 30.3925 62.3302 28.5292C63.5878 27.7765 64.9173 27.1471 66.3065 26.6633C68.3655 25.9466 70.547 25.534 72.7755 25.4846C74.3917 25.4455 76.0298 25.595 77.6596 25.9382C79.2329 26.27 80.7959 26.7858 82.3211 27.4936C87.4683 29.9004 91.2168 34.062 93.1199 38.8621C95.0929 43.838 95.0763 49.4934 92.6605 54.5919C90.2338 59.7025 85.8431 63.2822 80.7324 64.9191C75.7706 66.5084 70.1287 66.2607 64.95 63.8007C61.405 62.1157 58.5285 59.6069 56.4535 56.6368C54.268 53.5088 52.9751 49.8688 52.7242 46.137L52.7249 46.1377ZM54.8532 46.0003C55.0617 49.3555 56.2122 52.6304 58.1615 55.4517C60.0267 58.1511 62.6215 60.4346 65.8239 61.9771C70.5137 64.237 75.634 64.4917 80.1479 63.0743C84.7805 61.6204 88.7747 58.4071 90.998 53.7969C93.2309 49.1745 93.2495 44.0382 91.5113 39.4896C89.8058 35.0264 86.4167 31.1175 81.6942 28.807C80.2833 28.1115 78.8325 27.5943 77.3683 27.2504C75.8463 26.8936 74.3109 26.721 72.7928 26.7242C70.6908 26.7339 68.6202 27.0656 66.6741 27.7284C65.3607 28.1763 64.0992 28.7666 62.9308 29.5045C60.0794 31.3036 57.7624 33.9363 56.2905 37.1913C55.6623 38.6029 55.2408 40.0556 55.0008 41.5185C54.7563 43.0122 54.7159 44.5162 54.8532 45.9997V46.0003Z" fill="#002752"/>
<path fill-rule="evenodd" clip-rule="evenodd" d="M35.1852 27.1114C38.3068 28.7867 40.9798 31.1396 42.9862 33.9609C43.2063 34.2708 43.4187 34.5865 43.6227 34.9073C43.787 35.1659 43.9461 35.4277 44.0995 35.6933C45.9224 38.8476 46.9599 42.4748 46.9599 46.3317C46.9599 58.4817 36.6622 68.3463 23.979 68.3463C11.2957 68.3463 0.998047 58.4817 0.998047 46.3317C0.998047 35.2884 9.50425 26.1335 20.5776 24.5564C21.6877 24.3985 22.8234 24.3164 23.979 24.3164C27.5843 24.3164 30.9972 25.1133 34.0354 26.5339C34.4249 26.7161 34.8086 26.9086 35.1852 27.1107V27.1114Z" fill="#1A4B7A"/>
<path fill-rule="evenodd" clip-rule="evenodd" d="M40.2224 30.7655C40.3572 30.9619 40.4887 31.1608 40.6171 31.3622C40.7672 31.5984 40.9122 31.8377 41.0527 32.0802C42.7139 34.9548 43.6603 38.2605 43.6603 41.7754C43.6603 52.9085 34.6549 65.0008 23.0669 64.1172C8.56527 63.0117 1.52521 52.963 1.46875 41.8768C3.39687 32.9028 11.0337 25.9147 20.5767 24.5564C21.6868 24.3985 22.8225 24.3164 23.9781 24.3164C27.5834 24.3164 30.9963 25.1133 34.0345 26.5339C34.424 26.7161 34.8077 26.9086 35.1843 27.1107C37.0373 28.1046 38.7319 29.3379 40.2231 30.7662L40.2224 30.7655Z" fill="#3F83C7"/>
<path fill-rule="evenodd" clip-rule="evenodd" d="M13.986 41.7489C13.986 41.7489 18.9575 36.037 23.4733 40.9057C24.5679 42.0864 24.8791 44.0684 24.8791 44.9821C24.8791 45.8958 25.8628 43.9279 25.8628 43.9279L25.0197 38.7973L21.8923 36.1621L17.6055 36.3732L14.7945 38.9032L13.3887 41.2926L13.986 41.7495V41.7489Z" fill="#1A4B7B"/>
<path fill-rule="evenodd" clip-rule="evenodd" d="M4.375 34.8418C7.85396 29.4104 13.7237 25.5317 20.5764 24.5564C21.6864 24.3985 22.8221 24.3164 23.9777 24.3164C27.5831 24.3164 30.9959 25.1133 34.0341 26.5339C34.4236 26.7161 34.8073 26.9086 35.1839 27.1107C38.3055 28.7861 40.9786 31.1389 42.985 33.9602C43.205 34.2701 43.4174 34.5858 43.6215 34.9066C43.7857 35.1652 43.9449 35.427 44.0982 35.6927C44.301 36.043 44.4935 36.3991 44.6763 36.7603C43.7992 38.3407 43.0812 39.5861 43.0812 39.5861L36.251 38.4806C38.0315 35.402 26.8054 20.3049 6.09074 33.7556C5.49787 34.1405 4.92617 34.5024 4.375 34.8418Z" fill="#82B0D6"/>
<path fill-rule="evenodd" clip-rule="evenodd" d="M35.4547 26.6066C37.0633 27.4337 38.559 28.4372 39.9173 29.5864C41.2981 30.7548 42.5333 32.0766 43.5997 33.5229L44.2747 34.4911L44.7822 35.297C45.7684 36.9434 46.5441 38.7208 47.0793 40.5943C47.6022 42.4243 47.889 44.3467 47.9179 46.3306C47.9525 49.5195 47.3115 52.5673 46.1091 55.3405C44.8772 58.1823 43.0543 60.7328 40.7989 62.8598C36.4698 66.9426 30.5256 69.454 23.9771 69.461C17.4298 69.4514 11.4857 66.9407 7.15909 62.856C2.70483 58.6507 -0.0343236 52.788 0.000324863 46.3306C0.0721884 40.5385 2.37246 35.2732 6.11835 31.2752C9.77569 27.3708 14.8061 24.6663 20.484 23.9105C21.0589 23.8322 21.6402 23.7732 22.2273 23.7353C22.8054 23.6981 23.3887 23.6808 23.9777 23.684C25.7936 23.6942 27.5613 23.9008 29.2578 24.2833C31.0152 24.6798 32.6969 25.2637 34.2779 26.0138L35.4547 26.6073V26.6066ZM34.9144 27.6134L33.7916 27.0539C32.2799 26.3577 30.6745 25.8193 28.9992 25.4613C27.3835 25.1161 25.7031 24.939 23.9784 24.9486C23.4201 24.9518 22.8664 24.9749 22.3184 25.0167C21.7628 25.059 21.2123 25.1212 20.6688 25.2021C15.3483 26.0093 10.6509 28.6124 7.29447 32.3531C3.92844 36.1048 1.92652 41.0031 1.99261 46.3312C2.02405 52.1939 4.58227 57.4746 8.65218 61.2654C12.6149 64.9567 18.0188 67.239 23.9777 67.23C29.936 67.2365 35.3392 64.9541 39.3 61.2609C41.3565 59.343 43.0216 57.0453 44.1791 54.4852C45.3116 51.9809 45.968 49.2295 45.9994 46.3306C46.0263 44.5109 45.8133 42.7419 45.3853 41.0506C44.9433 39.3034 44.2785 37.6383 43.4142 36.0875L42.9683 35.3214L42.3703 34.3968C41.4168 33.0051 40.3004 31.725 39.0434 30.5835C37.7941 29.4497 36.4107 28.4507 34.9144 27.6134Z" fill="#002752"/>
<path fill-rule="evenodd" clip-rule="evenodd" d="M57.4707 33.7032C63.9532 36.8587 68.4248 43.5119 68.4248 51.2007C68.4248 61.9346 59.71 70.6494 48.976 70.6494C38.2421 70.6494 29.5273 61.9346 29.5273 51.2007C29.5273 42.8388 34.8157 35.7032 42.2273 32.9569C42.2619 32.9441 42.2972 32.9313 42.3319 32.9184C42.6071 32.8184 42.885 32.724 43.1654 32.6361C45.0005 32.0612 46.9523 31.752 48.976 31.752C51.6138 31.752 54.1303 32.2781 56.4248 33.2316C56.779 33.3785 57.1274 33.5357 57.4707 33.7025V33.7032Z" fill="#82B0D6"/>
<path fill-rule="evenodd" clip-rule="evenodd" d="M68.3446 49.421C68.3978 50.0068 68.4248 50.6003 68.4248 51.2002C68.4248 61.9342 59.71 70.6489 48.976 70.6489C38.2421 70.6489 29.5273 61.9342 29.5273 51.2002C29.5273 50.6003 29.5543 50.0074 29.6075 49.4216C31.834 44.0505 36.2318 39.8028 41.7031 37.7759C41.7403 37.7618 41.7781 37.7483 41.816 37.7342C42.1124 37.6264 42.4121 37.525 42.7149 37.43C44.6925 36.8109 46.7958 36.4766 48.976 36.4766C51.8191 36.4766 54.5301 37.0444 57.0036 38.0717C57.3854 38.2302 57.7607 38.3995 58.131 38.5798C62.7238 40.8153 66.3792 44.6806 68.3446 49.421Z" fill="#3F83C7"/>
<path fill-rule="evenodd" clip-rule="evenodd" d="M67.7098 56.4397C63.3647 64.3601 42.5326 73.7646 30.7187 57.8584L30.7168 57.9046C33.4508 65.3392 40.5987 70.6481 48.9765 70.6481C57.8953 70.6481 65.4198 64.6321 67.7098 56.4403V56.4397ZM68.4695 54.3204C68.4811 54.2357 68.4869 54.1914 68.4869 54.1914C68.4817 54.2344 68.4759 54.2774 68.4695 54.3204Z" fill="#1A4B7A"/>
<path fill-rule="evenodd" clip-rule="evenodd" d="M57.7503 33.1282C61.1824 34.7381 64.0884 37.2931 66.1339 40.4577C68.1371 43.5561 69.3049 47.2423 69.353 51.2006C69.4012 56.8419 67.1554 61.9795 63.4737 65.6984C59.7785 69.4308 54.6383 71.7221 48.9759 71.7305C43.3141 71.7202 38.1848 69.4187 34.4819 65.6952C30.7861 61.9789 28.5095 56.8509 28.5294 51.2013C28.5525 46.8657 29.916 42.8446 32.249 39.5542C34.6288 36.1978 38.0077 33.6017 41.9416 32.1869L42.0513 32.1478L42.9233 31.8623C43.8941 31.5697 44.8944 31.3451 45.9204 31.202C46.9181 31.0621 47.9384 30.9961 48.9765 31.0095C50.324 31.0269 51.6387 31.1738 52.9091 31.442C54.2155 31.7179 55.4744 32.1189 56.673 32.6348L57.7503 33.1276V33.1282ZM57.1908 34.278L56.177 33.8289C55.0471 33.3759 53.8632 33.0313 52.639 32.8048C51.4526 32.5854 50.2284 32.4795 48.9765 32.4949C48.0166 32.5071 47.0741 32.5937 46.1546 32.7445C45.2133 32.8985 44.2964 33.1224 43.4084 33.4105L42.6128 33.689L42.5127 33.7269C38.9432 35.0884 35.9121 37.5247 33.7838 40.6245C31.7171 43.6338 30.505 47.2764 30.5256 51.2006C30.5442 56.2843 32.6276 60.8797 35.9712 64.2053C39.3077 67.5232 43.9037 69.5771 48.9759 69.5682C54.0474 69.5759 58.6338 67.5123 61.9768 64.2021C65.3345 60.8778 67.4525 56.2939 67.4955 51.2013C67.5398 47.5792 66.542 44.1875 64.7852 41.3046C62.963 38.3146 60.3342 35.8661 57.1901 34.2787L57.1908 34.278Z" fill="#002752"/>
<path fill-rule="evenodd" clip-rule="evenodd" d="M20.4158 41.8379C21.1845 41.8379 21.8081 42.4616 21.8081 43.2302C21.8081 43.9989 21.1845 44.6226 20.4158 44.6226C19.6471 44.6226 19.0234 43.9989 19.0234 43.2302C19.0234 42.4616 19.6477 41.8379 20.4158 41.8379Z" fill="#195285"/>
<path fill-rule="evenodd" clip-rule="evenodd" d="M20.4169 41.4707C21.389 41.4707 22.1776 42.2599 22.1776 43.2314C22.1776 44.2028 21.3883 44.992 20.4169 44.992C19.4455 44.992 18.6562 44.2028 18.6562 43.2314C18.6562 42.2599 19.4455 41.4707 20.4169 41.4707ZM20.4169 42.2073C19.8516 42.2073 19.3928 42.6661 19.3928 43.2314C19.3928 43.7966 19.8516 44.2554 20.4169 44.2554C20.9822 44.2554 21.441 43.7966 21.441 43.2314C21.441 42.6661 20.9822 42.2073 20.4169 42.2073Z" fill="#002752"/>
<path fill-rule="evenodd" clip-rule="evenodd" d="M13.5965 47.6566C13.4951 47.6983 13.1698 47.8016 12.6052 47.7169C12.0835 47.6386 11.6973 47.1901 11.6973 46.662C11.6973 46.134 12.0835 45.6861 12.6058 45.6078C12.8689 45.5687 13.1256 45.5655 13.3392 45.5809C13.8654 45.6194 14.2844 46.0364 14.3248 46.5626C14.3626 47.0553 14.0579 47.5051 13.5965 47.6572V47.6566Z" fill="#002752"/>
<path fill-rule="evenodd" clip-rule="evenodd" d="M12.763 46.6621C12.2125 46.5794 11.1724 46.1745 9.58437 44.5871C8.44482 43.4475 6.94338 36.591 12.6597 36.8803C12.7265 36.8836 12.7913 36.8893 12.8529 36.897C12.8439 36.8136 12.851 36.7347 12.8766 36.6635C15.2282 30.1868 23.1884 33.624 23.9481 34.6012C24.412 35.1973 24.2914 36.0096 23.8833 36.4126C24.2015 36.3645 24.727 36.5069 25.5843 37.0266C28.2933 38.6705 27.0203 41.5425 26.5108 42.7462C26.4826 42.8129 26.455 42.8675 26.4274 42.9117C26.4473 42.9284 26.4672 42.9464 26.4877 42.9657C28.0392 44.4247 28.9657 47.8055 27.2057 50.0981C25.8384 51.8793 21.8454 50.2778 20.4306 49.5495C20.3164 49.4898 20.2471 49.3686 20.2529 49.2396C20.2587 49.1106 20.3344 48.9823 20.4589 48.9476C25.7954 47.4443 25.1634 43.1049 25.9725 42.7648C25.7017 42.1957 25.4707 40.9349 25.284 40.2451C24.9831 39.1338 23.8018 37.7209 23.4778 37.5124C23.4778 37.5124 23.3186 36.9503 23.5317 36.6263C23.3238 36.6891 23.0832 36.6654 22.8278 36.5185C19.4265 34.5647 14.9401 38.2913 14.9401 38.2913C14.7444 38.324 14.5449 38.3125 14.3505 38.2676C14.3979 38.5146 14.387 38.6949 14.387 38.6949C14.387 38.6949 12.3197 40.2149 13.7403 46.4337C13.6094 46.5466 13.4406 46.6031 13.2622 46.6442C13.1166 46.6333 12.9427 46.6352 12.7637 46.6621H12.763ZM12.763 46.6621C13.0845 46.7103 13.2391 46.6493 13.2391 46.6493C13.2468 46.6474 13.2545 46.6461 13.2616 46.6442C13.4656 46.6589 13.6132 46.6987 13.6357 46.7282C16.0668 49.9236 19.7492 49.0439 19.7492 49.0439C19.7492 49.0439 20.9998 48.9284 19.2397 50.6878C16.91 53.0176 13.8673 52.6563 12.2003 49.4372C11.1262 47.3641 11.986 46.7776 12.763 46.6615V46.6621Z" fill="#195285"/>
<path fill-rule="evenodd" clip-rule="evenodd" d="M12.3847 36.2461C13.2567 34.1011 14.7068 33.0219 16.3007 32.5573C19.7026 31.5654 23.82 33.5506 24.3763 34.2667C24.6792 34.6529 24.8036 35.1059 24.7921 35.5358C24.7882 35.6905 24.7658 35.8419 24.7279 35.9863C24.7491 35.9933 24.7703 36.001 24.7915 36.0087C25.084 36.1146 25.4408 36.2853 25.8745 36.5445C26.948 37.1868 27.4799 38.0055 27.7071 38.8499C28.0959 40.2942 27.5268 41.854 27.1501 42.7748C27.9425 43.6352 28.5604 44.9423 28.744 46.3404C28.93 47.7597 28.6657 49.265 27.7314 50.5027C27.043 51.4151 25.82 51.6916 24.4719 51.5595C22.9647 51.4112 21.3042 50.769 20.3513 50.3185C20.1916 50.5457 19.9728 50.8139 19.6757 51.127C18.3359 52.5598 16.7273 53.1077 15.2227 52.8761C13.7764 52.6535 12.3982 51.6692 11.3742 49.8649C10.6799 48.6451 10.6331 47.7776 10.7601 47.2021C10.7819 47.1046 10.8095 47.0115 10.8422 46.9243C10.8326 46.9179 10.8236 46.9114 10.814 46.9044C10.2943 46.5406 9.66419 46.017 8.93721 45.2316C8.67735 44.9532 8.37834 44.4488 8.15826 43.7834C7.65265 42.2525 7.44925 39.8547 8.41235 38.2076C9.08864 37.0507 10.2911 36.1794 12.3835 36.2468L12.3847 36.2461ZM12.4829 45.5005C12.2051 43.8476 12.1775 42.5573 12.2731 41.5589C12.4425 39.7937 12.9879 38.8172 13.3799 38.3282C13.362 38.0459 13.4685 37.7674 13.6751 37.5685C13.9112 37.3408 14.2468 37.2484 14.5663 37.3222L14.6151 37.326C15.3254 36.8076 17.2323 35.5371 19.3388 35.1605C20.6445 34.9269 22.0189 35.0212 23.2644 35.7533C23.2791 35.7617 23.3022 35.7732 23.3118 35.7784C23.4248 35.7495 23.5396 35.7437 23.6513 35.7598C23.6782 35.6796 23.6936 35.5929 23.6968 35.5037C23.7032 35.3119 23.6519 35.1085 23.5178 34.9346C23.043 34.3244 19.4992 32.721 16.6112 33.6019C15.2856 34.0062 14.1197 34.9795 13.4614 36.8319C13.4813 37.018 13.4152 37.2028 13.2824 37.3337C13.1489 37.4659 12.9628 37.5294 12.7761 37.5063L12.6266 37.4973C11.0302 37.4518 10.1082 38.0222 9.65905 38.8929C9.08094 40.0132 9.25739 41.5294 9.60066 42.6612C9.78032 43.2535 10.0062 43.7353 10.2269 43.9419C10.7511 44.4283 11.2112 44.7838 11.6096 45.0456C11.9587 45.2753 12.2481 45.4164 12.4823 45.5005H12.4829ZM24.3134 37.0148C24.3077 37.0264 24.3019 37.0379 24.2955 37.0488C24.2968 37.0687 24.2987 37.0976 24.2987 37.0976C24.5714 37.3767 24.9288 37.8015 25.2522 38.2917C25.6153 38.8415 25.9426 39.4678 26.0876 40.0254C26.1806 40.3834 26.2846 40.8948 26.4 41.3844C26.5707 40.8659 26.7016 40.2711 26.667 39.6712C26.6214 38.8897 26.2659 38.1062 25.2913 37.5063C25.0064 37.3311 24.7626 37.2009 24.5528 37.1098C24.4642 37.0713 24.3853 37.0398 24.3134 37.0148ZM26.3917 43.7565C26.3243 43.8791 26.2473 44.017 26.2063 44.155C25.9567 44.9949 25.5903 46.119 24.7311 47.1694C24.0626 47.9868 23.1001 48.769 21.6506 49.3266C22.486 49.6872 23.589 50.0722 24.6176 50.1902C25.4498 50.2858 26.2416 50.2492 26.6759 49.6923C27.4106 48.751 27.6115 47.5903 27.4844 46.495C27.3631 45.4479 26.9506 44.454 26.3911 43.7565H26.3917ZM19.2682 49.6641C18.864 49.6949 18.2859 49.7064 17.6192 49.6236C17.1656 49.5665 16.6722 49.4671 16.1556 49.3054C15.6982 49.1623 15.2355 48.9583 14.7562 48.701C14.2763 48.443 13.804 48.119 13.3363 47.7019C13.2856 47.7058 13.2343 47.7058 13.1829 47.7019L12.9192 47.716C12.8833 47.7212 12.8474 47.725 12.8108 47.727C12.7986 47.7289 12.7864 47.7321 12.7742 47.7359C12.7659 47.7385 12.7537 47.7411 12.7428 47.743C12.7473 47.7956 12.6805 47.8931 12.6914 47.9836C12.7261 48.2582 12.8268 48.5964 13.0219 49.0109C13.6423 50.3294 14.5073 51.1463 15.5095 51.3747C16.5881 51.6204 17.7585 51.2232 18.7998 50.2492C19.018 50.0426 19.1611 49.8335 19.2682 49.6641ZM24.2627 37.104C24.2627 37.104 24.2627 37.1046 24.2621 37.1053C24.2621 37.1053 24.2621 37.104 24.2627 37.104ZM22.5707 37.3754C22.5098 37.3485 22.4482 37.3177 22.386 37.2824C21.521 36.7966 20.572 36.7806 19.6789 36.9583C17.4691 37.3972 15.5544 39.0321 15.5544 39.0321C15.4524 39.1168 15.3343 39.1797 15.2079 39.2163C15.1438 39.317 15.061 39.4062 14.9628 39.4787C14.9628 39.4787 14.2487 40.1729 14.2551 42.4553C14.2583 43.4363 14.4014 44.6651 14.7678 46.1979C14.8114 46.3891 14.8005 46.5848 14.7408 46.7645C14.9045 46.9981 15.0764 47.2072 15.2695 47.3862C15.6783 47.7661 16.1139 48.0439 16.5515 48.2313C16.9686 48.4097 17.3812 48.5155 17.7604 48.5688C18.8255 48.7189 19.6179 48.4989 19.6179 48.4989C19.6436 48.4924 19.6699 48.4886 19.6962 48.486C19.6962 48.486 19.7514 48.4835 19.8367 48.4892C19.9529 48.3744 20.0959 48.2903 20.2589 48.2428C21.8836 47.7693 22.8896 47.0167 23.5306 46.2044C24.5746 44.8813 24.6952 43.4241 24.9653 42.7812C24.9904 42.7222 25.0167 42.667 25.0443 42.6157C25.0051 42.4976 24.9666 42.3712 24.9288 42.2397C24.7587 41.6449 24.606 40.925 24.4764 40.4623C24.3654 40.0664 24.1081 39.6308 23.8412 39.2426C23.5043 38.7524 23.1546 38.3334 23.0071 38.2403C22.8293 38.1261 22.6991 37.9503 22.642 37.7469C22.642 37.7469 22.5983 37.5923 22.5707 37.3754Z" fill="#002752"/>
<path fill-rule="evenodd" clip-rule="evenodd" d="M78.1115 43.5126C77.6116 43.2733 77.0117 43.485 76.7724 43.9848C76.533 44.4847 76.7448 45.0846 77.2446 45.3239C77.7444 45.5633 78.3444 45.3515 78.5837 44.8517C78.823 44.3518 78.6113 43.7519 78.1115 43.5126Z" fill="#195285"/>
<path fill-rule="evenodd" clip-rule="evenodd" d="M78.2694 43.1797C78.9527 43.5063 79.2421 44.3269 78.9149 45.0096C78.5883 45.693 77.7676 45.9823 77.0849 45.6551C76.4016 45.3279 76.1122 44.5078 76.4394 43.8251C76.766 43.1418 77.5867 42.8524 78.2694 43.1797ZM77.9518 43.8444C77.6354 43.693 77.2556 43.8271 77.1042 44.1434C76.9527 44.4597 77.0868 44.8396 77.4032 44.991C77.7195 45.1424 78.0993 45.0083 78.2508 44.692C78.4022 44.3757 78.2681 43.9958 77.9518 43.8444Z" fill="#002752"/>
<path fill-rule="evenodd" clip-rule="evenodd" d="M81.2897 50.5733C80.9445 50.2365 80.8662 49.7032 81.1113 49.2778C81.375 48.821 81.9326 48.6253 82.4241 48.8178C82.607 48.8897 82.8174 48.9936 83.0189 49.1296C83.4559 49.4254 83.6111 49.9965 83.3834 50.4726C83.1556 50.9487 82.614 51.1867 82.1097 51.0321C81.5881 50.8723 81.3551 50.6465 81.2897 50.5727V50.5733Z" fill="#002752"/>
<path fill-rule="evenodd" clip-rule="evenodd" d="M73.0571 41.8946C73.052 41.849 73.0507 41.7951 73.0539 41.7322C73.1065 40.5901 73.1855 37.8439 75.9439 37.5693C76.8165 37.4826 77.2849 37.5686 77.5178 37.7265C77.3478 37.2549 77.5595 36.5683 78.1505 36.2732C79.1187 35.7894 86.6965 36.0819 86.1074 42.08C86.101 42.1461 86.0766 42.2109 86.0381 42.2731C86.0901 42.2904 86.1427 42.3103 86.1966 42.3328C90.8164 44.2622 87.0436 49.1053 85.7141 49.5743C83.8623 50.2275 82.889 50.1544 82.4231 50.0119C82.2922 49.9234 82.1556 49.856 82.0369 49.8098C81.9118 49.7097 81.7995 49.6019 81.7392 49.4633C85.2072 45.0931 84.1498 43.113 84.1498 43.113C84.1498 43.113 84.2095 42.9667 84.3404 42.7896C84.1703 42.7518 84.008 42.6857 83.8662 42.5862C83.8662 42.5862 81.7334 37.9523 78.3122 38.2096C78.0549 38.2289 77.8566 38.157 77.7161 38.0287C77.7616 38.3643 77.4241 38.748 77.4241 38.748C77.0898 38.7903 75.625 39.4589 74.9673 40.2218C74.5592 40.6953 73.9009 41.6032 73.4723 41.9504C73.9824 42.524 71.8464 45.7091 75.489 48.9102C75.5737 48.9847 75.5852 49.1143 75.5409 49.2182C75.4967 49.3222 75.3966 49.3915 75.2836 49.3959C73.8926 49.4364 70.1377 49.1925 69.7309 47.2708C69.208 44.798 71.215 42.4797 72.9898 41.9144C73.0135 41.9067 73.036 41.9003 73.0578 41.8946H73.0571ZM82.4225 50.0119C82.9916 50.3969 83.4485 51.1842 81.8187 52.4142C79.2881 54.3244 76.7511 53.4607 75.7924 50.7434C75.068 48.6908 76.0113 49.2541 76.0113 49.2541C76.0113 49.2541 78.5842 51.3382 81.709 49.7347C81.7385 49.72 81.8694 49.7444 82.0362 49.8098C82.0414 49.8143 82.0465 49.8181 82.0523 49.8226C82.0523 49.8226 82.1511 49.9291 82.4231 50.0126L82.4225 50.0119Z" fill="#195285"/>
<path fill-rule="evenodd" clip-rule="evenodd" d="M72.0554 41.1719C72.1741 40.2345 72.4391 38.8967 73.3117 37.9824C73.886 37.3805 74.6816 36.8999 75.8712 36.8518C76.3056 36.8306 76.6521 36.8396 76.9273 36.8736C76.953 36.7966 76.9844 36.7202 77.0217 36.6458C77.2007 36.2903 77.4856 35.9618 77.902 35.7796C78.3389 35.5788 79.9437 35.5249 81.669 35.9599C82.8137 36.2486 84.0181 36.7247 84.9568 37.5448C86.0489 38.4982 86.7957 39.8829 86.7136 41.8919C88.4005 42.6368 89.0267 43.7962 89.1249 44.9788C89.2449 46.4289 88.4627 47.9958 87.5991 49.0532C87.0299 49.7506 86.4043 50.2107 85.9918 50.3653C85.114 50.6913 84.4159 50.8594 83.866 50.9351C83.8282 50.9402 83.7909 50.9447 83.7544 50.9492C83.7435 51.0224 83.7242 51.0974 83.6908 51.1732C83.5272 51.5524 83.2648 52.0009 82.5847 52.4462C82.4332 52.5456 82.276 52.6611 82.0861 52.7702C81.7512 53.0467 81.4066 53.261 81.0768 53.4535C80.0502 54.0528 79.0467 54.2421 78.1067 54.0868C77.637 54.0098 77.1943 53.8308 76.7849 53.5684C76.5282 53.4035 76.2863 53.1988 76.0797 52.9518C75.6453 52.432 75.3329 51.7615 75.1384 50.9742C75.0531 50.5854 75.0031 50.2736 74.9806 50.0233C73.8693 50.0509 71.9373 49.929 70.611 49.3105C69.7423 48.905 69.1359 48.2729 68.928 47.4407C68.579 46.0413 68.93 44.6644 69.6062 43.5178C70.2209 42.4757 71.1346 41.6538 72.0547 41.1713L72.0554 41.1719ZM74.5007 48.7529C73.594 47.7385 73.1571 46.7523 72.9684 45.8521C72.7342 44.7337 72.8889 43.7513 73.021 43.0269C72.3569 43.2926 71.6762 43.8315 71.1924 44.5316C70.6874 45.2617 70.3647 46.1549 70.5302 47.102C70.6258 47.6486 71.1648 47.9611 71.7775 48.2004C72.6502 48.5418 73.7012 48.6945 74.5013 48.7523L74.5007 48.7529ZM74.1176 40.6355C74.3191 40.3859 74.5096 40.144 74.6649 39.965C74.9691 39.6057 75.4349 39.2637 75.8956 38.9833C76.3787 38.6894 76.8606 38.4719 77.1551 38.3718C77.1705 38.3468 77.1878 38.3179 77.2045 38.2865C77.1878 38.2775 77.1724 38.2672 77.1564 38.257C77.0711 38.205 76.928 38.2178 76.7156 38.2198C76.5231 38.221 76.2928 38.2467 76.0143 38.2884C75.1474 38.4264 74.681 38.8928 74.4192 39.4331C74.2325 39.8174 74.151 40.2396 74.1176 40.6349V40.6355ZM78.1567 37.7206L78.2748 37.743C79.4637 37.6173 80.5263 38.0285 81.4304 38.6503C82.9703 39.7096 84.0155 41.4209 84.3665 42.0523L84.4935 42.0959C84.7284 42.1485 84.9215 42.316 85.0056 42.5418C85.0832 42.7491 85.0595 42.9788 84.9446 43.1655C85.0851 43.6615 85.1955 44.6374 84.6668 46.1472C84.3787 46.9691 83.8763 47.9695 83.0486 49.1629C83.0704 49.1866 83.0922 49.2104 83.114 49.2341C83.327 49.2405 83.5985 49.2226 83.9392 49.1667C84.3492 49.0994 84.8432 48.9832 85.4342 48.7863C85.7576 48.6797 86.2426 48.2203 86.6918 47.632C87.2462 46.9063 87.7479 45.974 87.7203 45.0596C87.6953 44.2261 87.2013 43.451 85.9616 42.8947L85.8448 42.846C85.6703 42.7876 85.5324 42.6522 85.4701 42.479C85.4092 42.3096 85.4271 42.1228 85.5189 41.9689C85.7659 39.7911 84.79 38.4251 83.4714 37.6237C82.8432 37.2419 82.1445 36.9743 81.4624 36.8184C80.0515 36.4963 78.74 36.5842 78.396 36.7703C78.2491 36.8531 78.1657 36.9923 78.1131 37.1296C78.063 37.2599 78.072 37.4004 78.1189 37.512C78.1439 37.5807 78.1561 37.6519 78.1567 37.7225V37.7206ZM81.6594 50.7368C81.6594 50.7368 81.6594 50.7368 81.6588 50.7368L81.6684 50.7426C81.6684 50.7426 81.6626 50.7388 81.6594 50.7368ZM81.5998 50.7535C80.5244 51.0474 79.5773 51.0378 78.7406 50.8664C78.0034 50.7157 77.3887 50.4545 76.8901 50.2216C76.6296 50.1003 76.4031 49.9848 76.2215 49.8879C76.2645 50.0567 76.3242 50.2729 76.4442 50.5135C76.6893 51.0384 77.0332 51.4279 77.3746 51.7712C77.5119 51.9091 77.6466 52.0394 77.7916 52.1536C78.0162 52.33 78.2388 52.4956 78.5013 52.5918C79.132 52.8234 79.8641 52.8741 80.6431 52.5636C80.9453 52.443 81.2449 52.2684 81.5497 52.0593C81.8596 51.7333 82.0393 51.451 82.1522 51.204C82.1945 51.1116 82.1817 51.023 82.1913 50.9454C82.1958 50.9088 82.14 50.8607 82.14 50.8607C82.14 50.8607 82.0816 50.8453 82.0887 50.8607C82.0983 50.8812 82.0322 50.8889 82.0322 50.8889C82.0322 50.8889 81.9995 50.9101 81.9867 50.9005C81.9424 50.8658 81.8757 50.9139 81.8243 50.8953C81.7441 50.8543 81.678 50.8164 81.628 50.7753C81.6184 50.7676 81.6094 50.7599 81.6004 50.7529L81.5998 50.7535ZM80.9299 49.1103C80.96 49.0416 80.9992 48.9762 81.0467 48.9165C82.1612 47.5601 82.797 46.452 83.1519 45.5742C83.737 44.128 83.5086 43.4549 83.5086 43.4549C83.4541 43.3522 83.4252 43.2393 83.4233 43.1257C83.3412 43.059 83.2757 42.9743 83.2308 42.8774C83.2308 42.8774 82.3607 40.7947 80.7682 39.5512C80.0893 39.0212 79.2809 38.6355 78.3441 38.6779C78.2241 38.6837 78.1124 38.6766 78.0098 38.6586C77.8924 38.8781 77.7493 39.0378 77.7493 39.0378C77.6787 39.118 77.5812 39.1694 77.4753 39.1829C77.3065 39.2008 76.8131 39.401 76.3088 39.6878C75.9187 39.9098 75.5228 40.1864 75.2642 40.4815C74.9915 40.8011 74.6052 41.315 74.2543 41.727C74.2094 41.7796 74.1651 41.8309 74.1208 41.8797C74.124 42.092 74.0637 42.2954 73.9546 42.4668C73.9501 42.5592 73.9405 42.658 73.9258 42.7626C73.834 43.4247 73.6056 44.4533 73.9129 45.63C74.1465 46.5264 74.7124 47.4979 75.8776 48.4648C75.9873 48.5559 76.0611 48.674 76.1092 48.8036C76.1907 48.8363 76.2408 48.8665 76.2408 48.8665C76.2594 48.8774 76.2767 48.8896 76.2934 48.903C76.2934 48.903 76.611 49.2418 77.2109 49.4933C77.6396 49.6736 78.2068 49.7808 78.842 49.7712C79.4945 49.7616 80.1939 49.5537 80.9286 49.1103H80.9299ZM81.3611 50.5495L81.4297 50.613L81.4098 50.5938H81.4111C81.3912 50.5771 81.3745 50.5623 81.3604 50.5501L81.3611 50.5495Z" fill="#002752"/>
<path fill-rule="evenodd" clip-rule="evenodd" d="M44.6449 46.6234C45.2975 45.1515 43.9526 41.1855 46.3421 41.8092C47.5169 42.1159 47.866 43.6796 49.078 43.6103C50.2901 43.541 51.2256 41.9825 51.6754 41.4974C52.1258 41.0123 54.342 41.6013 53.3032 44.8223C52.7514 46.5336 54.4113 46.9353 55.8319 47.1431C57.2519 47.351 58.5332 48.8403 54.9663 49.6019C53.2346 49.9721 53.9622 53.4466 55.1049 54.4508C56.2477 55.4549 53.3038 56.7023 49.9789 54.624C48.8336 53.9079 48.455 54.2429 47.6927 55.0398C46.7591 56.0157 43.5272 57.0924 44.0469 53.7674C44.5667 50.4425 44.0906 51.3683 42.4281 50.6414C38.3107 48.8396 44.3382 47.3145 44.6449 46.6234Z" fill="#195285"/>
<path fill-rule="evenodd" clip-rule="evenodd" d="M43.949 46.1199C43.9304 46.1783 43.9093 46.2335 43.8842 46.2842L43.949 46.1199ZM43.949 46.1199C44.0761 45.7189 44.0703 45.1581 44.078 44.5903C44.0896 43.7619 44.0998 42.9201 44.2923 42.324C44.4643 41.7908 44.753 41.4033 45.1887 41.2159C45.5166 41.0747 45.9445 41.0183 46.506 41.1845C46.8127 41.2749 47.0802 41.418 47.3164 41.606C47.6917 41.905 47.9875 42.3093 48.307 42.6487C48.5137 42.8681 48.7203 43.076 49.0481 43.0664C49.3895 43.0561 49.7026 42.8803 49.9836 42.6557C50.5913 42.1707 51.0648 41.477 51.3465 41.189C51.4864 41.0446 51.702 40.9323 51.974 40.9105C52.4706 40.8701 53.1957 41.1145 53.6275 41.8441C53.8187 42.1674 53.9426 42.5884 53.9779 43.1273C54.0106 43.6253 53.9714 44.231 53.7757 44.9733C53.6692 45.4141 53.77 45.7035 53.9984 45.8954C54.1646 46.0346 54.3949 46.0988 54.6394 46.1655C55.0475 46.2771 55.5101 46.315 55.9483 46.3471C56.6131 46.4196 57.2476 46.7263 57.6384 47.1036C57.9579 47.4116 58.1151 47.7895 58.1414 48.1674C58.1729 48.6255 57.9919 49.1543 57.3606 49.6278C56.9435 49.9409 56.2415 50.2489 55.1553 50.4876C55.0045 50.519 54.9448 50.6544 54.9012 50.8013C54.8139 51.0952 54.8145 51.4532 54.862 51.8183C54.9628 52.5922 55.2637 53.4173 55.6833 53.7914C56.1427 54.2001 56.2679 54.6512 56.2204 55.0496C56.1536 55.6162 55.5903 56.3085 54.4616 56.526C53.3131 56.7474 51.4742 56.5549 49.5403 55.3236C49.2541 55.1407 49.0866 55.0086 48.9166 55.0451C48.6869 55.0939 48.5291 55.3236 48.2679 55.5899C47.8136 56.0538 46.9391 56.5549 46.0684 56.7166C45.3844 56.8436 44.7113 56.7756 44.2134 56.4484C43.5923 56.0403 43.0982 55.219 43.3992 53.6656C43.5551 52.8681 43.6468 52.331 43.6609 51.9576C43.668 51.783 43.7116 51.6759 43.6532 51.613C43.5782 51.5315 43.4498 51.5213 43.2882 51.477C43.0039 51.3981 42.6484 51.3057 42.223 51.108C40.8576 50.5761 40.4399 49.8998 40.4014 49.3698C40.3751 49.0105 40.524 48.6551 40.8005 48.3073C41.1245 47.8998 41.6853 47.5091 42.2769 47.1504C42.9545 46.7398 44.2333 46.4401 43.983 46.1276C43.9702 46.111 43.958 46.111 43.9471 46.1206L43.949 46.1199ZM54.2384 54.8103C53.5755 54.0166 53.0539 52.6069 53.0372 51.3878C53.0186 50.032 53.6134 48.9669 54.7786 48.7134C55.3792 48.5858 55.8187 48.4375 56.1293 48.2784C56.2108 48.2367 56.3006 48.1809 56.359 48.143C56.1998 48.0519 55.8976 47.9691 55.7173 47.9358C54.7382 47.7157 53.6782 47.3994 53.1335 46.7763C52.6926 46.2727 52.4495 45.6105 52.8338 44.6686C53.0552 44.0924 53.1745 43.6099 53.1739 43.2031C53.1739 42.9791 53.1347 42.7821 53.0796 42.6121C52.9185 42.1103 52.5662 41.8595 52.2563 41.7985C52.1511 41.778 52.0517 41.7529 52.0074 41.803C51.7251 42.1238 51.2522 42.8797 50.6356 43.4289C50.1915 43.8242 49.6731 44.1039 49.1097 44.1514C48.753 44.1816 48.4476 44.1033 48.1691 43.9698C47.8008 43.7927 47.4909 43.4854 47.1791 43.1626C46.8903 42.863 46.6086 42.5293 46.1794 42.4318C45.9971 42.3907 45.8605 42.383 45.7585 42.4344C45.6686 42.4799 45.6673 42.5967 45.6385 42.7116C45.487 43.3108 45.5993 44.1835 45.6288 44.9868C45.6577 45.7529 45.607 46.4651 45.4062 46.9605C45.3504 47.0856 45.2561 47.2358 45.0905 47.3737C44.9384 47.5007 44.6869 47.6496 44.3661 47.7965C43.5859 48.1552 42.2782 48.5652 41.7264 49.1523C41.6597 49.2235 41.5666 49.2691 41.582 49.3512C41.6019 49.4577 41.6847 49.5623 41.8259 49.6797C42.0171 49.8389 42.2808 50.0031 42.6324 50.1725C43.0912 50.3605 43.453 50.4163 43.7251 50.4812C44.0408 50.5569 44.2699 50.6666 44.445 50.8321C44.6234 51.0002 44.7498 51.2428 44.8069 51.6367C44.8672 52.0519 44.8274 52.7275 44.694 53.8671C44.6061 54.6018 44.6818 55.0195 44.9834 55.1914C45.197 55.3133 45.4774 55.2646 45.7572 55.2011C46.2942 55.0798 46.8409 54.7821 47.1162 54.4869C47.6494 53.9158 48.0818 53.5713 48.5592 53.4584C49.034 53.3461 49.6032 53.4256 50.4155 53.9223C51.9888 54.8879 53.4382 55.0535 54.2364 54.8103H54.2384ZM56.4084 48.1751C56.3968 48.2476 56.3891 48.3419 56.4302 48.3111C56.4867 48.2681 56.4687 48.2213 56.4084 48.1751Z" fill="#002752"/>
<path fill-rule="evenodd" clip-rule="evenodd" d="M48.9149 44.6387C51.3589 44.6387 53.3435 46.6233 53.3435 49.0673C53.3435 51.5113 51.3596 53.4959 48.9149 53.4959C46.4703 53.4959 44.4863 51.5119 44.4863 49.0673C44.4863 46.6226 46.4709 44.6387 48.9149 44.6387Z" fill="#266EB7"/>
<path fill-rule="evenodd" clip-rule="evenodd" d="M45.0176 48.4731C46.0853 47.0218 50.2617 44.717 52.8436 48.2479L52.5081 46.4533L49.6752 44.8184L47.2575 45.0949L45.4385 46.5688L45.0176 48.4731Z" fill="#1A4B7B"/>
<path fill-rule="evenodd" clip-rule="evenodd" d="M48.9143 43.9707C51.7266 43.9707 54.0102 46.2537 54.0102 49.0666C54.0102 51.8795 51.7272 54.1625 48.9143 54.1625C46.1013 54.1625 43.8184 51.8789 43.8184 49.0666C43.8184 46.2543 46.102 43.9707 48.9143 43.9707ZM48.9143 45.3053C46.8386 45.3053 45.1536 46.9903 45.1536 49.066C45.1536 51.1417 46.8386 52.8266 48.9143 52.8266C50.99 52.8266 52.6749 51.1417 52.6749 49.066C52.6749 46.9903 50.99 45.3053 48.9143 45.3053Z" fill="#002752"/>
<path fill-rule="evenodd" clip-rule="evenodd" d="M48.8344 48.5742C49.4318 48.5742 49.9168 49.0593 49.9168 49.6567C49.9168 50.254 49.4318 50.7391 48.8344 50.7391C48.237 50.7391 47.752 50.254 47.752 49.6567C47.752 49.0593 48.237 48.5742 48.8344 48.5742Z" fill="#195285"/>
<path fill-rule="evenodd" clip-rule="evenodd" d="M48.8336 48.2031C49.6343 48.2031 50.2843 48.8531 50.2843 49.6539C50.2843 50.4546 49.6343 51.1046 48.8336 51.1046C48.0328 51.1046 47.3828 50.4546 47.3828 49.6539C47.3828 48.8531 48.0328 48.2031 48.8336 48.2031ZM48.8336 48.9397C48.4396 48.9397 48.1194 49.2599 48.1194 49.6539C48.1194 50.0478 48.4396 50.368 48.8336 50.368C49.2275 50.368 49.5477 50.0478 49.5477 49.6539C49.5477 49.2599 49.2275 48.9397 48.8336 48.9397Z" fill="#002752"/>
<path fill-rule="evenodd" clip-rule="evenodd" d="M43.1667 32.6364C44.3261 25.7144 48.8817 18.3542 54.0379 14.9856C54.2125 14.8714 66.1675 5.64527 79.3795 10.2644C71.9076 13.7042 74.5447 19.6824 72.7847 26.1045C66.7783 26.1835 61.0709 28.9149 57.4713 33.7028C57.1281 33.536 56.7797 33.3788 56.4255 33.2319C54.131 32.2784 51.6145 31.7523 48.9767 31.7523C46.953 31.7523 45.0011 32.0622 43.166 32.6364H43.1667Z" fill="#4BA203"/>
<path fill-rule="evenodd" clip-rule="evenodd" d="M65.9609 27.3867C62.6237 28.6437 59.6587 30.7932 57.4713 33.7024C57.1281 33.5355 56.7797 33.3783 56.4255 33.2314C54.131 32.2779 51.6145 31.7518 48.9767 31.7518C46.953 31.7518 45.0011 32.0617 43.166 32.636C43.4406 30.9979 43.9052 29.336 44.5224 27.7075L45.184 27.438C45.184 27.438 45.594 30.31 49.1698 29.6068C52.745 28.9036 56.2035 30.1342 56.4961 31.1307C56.4961 31.1307 61.3488 27.576 65.9609 27.3867Z" fill="#367501"/>
<path fill-rule="evenodd" clip-rule="evenodd" d="M55.0272 14.2957C54.9194 14.612 51.332 17.8927 51.332 17.8927C51.332 17.8927 62.5042 11.0997 70.3386 11.9595C70.8321 12.014 71.2748 12.286 71.5475 12.7012C71.8195 13.1163 71.8927 13.6309 71.747 14.1051C71.5225 14.8436 71.3916 15.7766 71.6136 16.7942C72.5619 21.149 71.7438 24.558 71.7438 25.8682C71.7438 25.9722 71.7855 26.0614 71.8632 26.1377C72.1699 26.1198 72.4772 26.1089 72.7852 26.1044C74.5446 19.6822 71.9081 13.7041 79.38 10.2642C68.3348 6.40286 58.1674 12.218 55.0285 14.2957H55.0272Z" fill="#B1CE98"/>
<path fill-rule="evenodd" clip-rule="evenodd" d="M42.1144 32.4608C42.7445 28.9947 44.1907 25.4297 46.14 22.2921C48.2125 18.9569 50.842 16.1029 53.619 14.3461C53.7345 14.2742 58.9042 10.613 66.0802 9.10451C70.0963 8.26012 74.7443 8.00923 79.6028 9.62552C79.8633 9.71663 80.0429 9.95725 80.0558 10.2332C80.0686 10.5091 79.9133 10.7657 79.6624 10.8812C77.0041 12.1446 75.7574 13.7346 75.1184 15.5607C74.6743 16.8305 74.5133 18.2081 74.3824 19.6633C74.1938 21.7531 74.0571 23.9873 73.3859 26.2703C73.3122 26.5385 73.0709 26.7252 72.7931 26.729C69.873 26.7021 67.0119 27.3149 64.4293 28.5128C61.814 29.7261 59.4861 31.5298 57.6658 33.8506C57.5959 33.9436 57.4695 33.9744 57.3642 33.9231L56.3299 33.4618C55.1762 32.9978 53.9687 32.6405 52.7175 32.4107C51.5061 32.1881 50.2549 32.088 48.9767 32.1098C48.353 32.1226 47.73 32.1226 47.1294 32.2375C46.9735 32.267 46.8304 32.3209 46.679 32.3658C45.5446 32.6995 44.5116 33.1345 43.4843 33.6555C43.1308 33.7665 42.7445 33.6857 42.4654 33.4419C42.1863 33.198 42.0528 32.8272 42.1144 32.4614V32.4608ZM44.4705 31.4476C44.7554 31.4284 45.0422 31.4156 45.3348 31.4104C45.9514 31.3989 46.5481 31.447 47.1744 31.4457C47.7704 31.4444 48.3697 31.3854 48.9767 31.3963C50.2979 31.4188 51.5856 31.5721 52.831 31.8378C54.1105 32.1105 55.3456 32.4993 56.5205 33.0036L57.3912 33.3995C59.1621 30.994 61.4579 29.0909 64.0546 27.7486C66.5775 26.4441 69.3847 25.6761 72.2868 25.5054C72.7494 23.4381 72.77 21.4304 72.8957 19.5465C73.0022 17.9501 73.1761 16.4359 73.6728 15.0493C74.308 13.2752 75.452 11.6942 77.6272 10.4038C73.5823 9.22963 69.676 9.29187 66.2785 10.0349C62.7803 10.7997 59.8576 12.2877 57.7736 13.4741C55.728 14.6386 54.5102 15.5908 54.4557 15.6274C51.9167 17.3393 49.5581 20.0791 47.7159 23.2404C46.2247 25.7993 45.0788 28.6386 44.4705 31.4483V31.4476Z" fill="#002752"/>
<path fill-rule="evenodd" clip-rule="evenodd" d="M29.8776 16.4997C30.5891 19.1779 31.7261 22.3123 33.8095 26.1255C32.1342 25.4813 30.3607 25.0129 28.5115 24.7467C27.046 24.4656 25.5305 24.3181 23.9783 24.3181C23.8827 24.3181 23.7871 24.3181 23.6915 24.32C22.6348 24.3322 21.5947 24.413 20.577 24.558C17.8616 22.5176 14.6842 20.4374 10.3281 19.772C18.0843 13.6098 24.9491 13.9408 29.6414 15.5667C29.7146 15.8715 29.7929 16.1827 29.8776 16.5003V16.4997Z" fill="#B1CE98"/>
<path fill-rule="evenodd" clip-rule="evenodd" d="M33.8091 26.1257C32.1338 25.4815 30.3603 25.0131 28.5111 24.7468C27.0456 24.4658 25.5294 24.3182 23.9779 24.3182C23.8823 24.3182 23.7867 24.3182 23.6911 24.3201C21.9587 22.7917 20.0036 21.2653 17.5878 20.1315C17.2067 19.9512 16.9635 19.5675 16.9629 19.1453C16.9629 18.7238 17.2048 18.3394 17.5859 18.1578C22.3514 15.8794 26.513 15.7453 29.8771 16.5005C30.5887 19.1787 31.7257 22.3137 33.8091 26.1263V26.1257Z" fill="#4BA203"/>
<path fill-rule="evenodd" clip-rule="evenodd" d="M19.0876 24.1391C17.9846 23.3845 16.7989 22.6562 15.4886 22.039C13.9327 21.3056 12.1996 20.7332 10.2208 20.4631C9.94553 20.4214 9.7216 20.2199 9.65037 19.9511C9.57915 19.6822 9.67347 19.3967 9.89099 19.2235C12.43 17.1593 14.8733 15.7586 17.205 14.9283C17.9044 14.6794 18.5948 14.4856 19.2724 14.34C22.0186 13.7484 24.512 13.9332 26.7167 14.3246C27.8229 14.5209 28.8642 14.7487 29.8158 15.0592C29.989 15.1189 30.1193 15.2633 30.1623 15.4416C30.6268 17.0746 31.2466 18.8776 32.1802 20.9084C32.9002 22.474 33.8119 24.1602 34.9656 26.0165C35.0381 26.1461 35.0804 26.286 35.0952 26.4278C35.1254 26.7268 35.0285 27.0328 34.8148 27.2625C34.7455 27.337 34.6672 27.3999 34.5825 27.4505L33.7914 27.0559C33.4051 26.8782 33.0131 26.7107 32.6153 26.5535C32.5787 26.5234 32.5408 26.4939 32.5017 26.4637C32.3329 26.336 32.1668 26.2218 31.9762 26.1288C31.3686 25.8323 30.6968 25.6758 30.0352 25.5006C28.109 24.9905 26.0725 24.7595 23.9775 24.7833C23.4154 24.7916 22.8585 24.8205 22.3067 24.868C21.7478 24.9161 21.1947 24.9841 20.6487 25.0701C20.5127 25.0893 20.3741 25.054 20.2644 24.9713C19.8819 24.6928 19.4899 24.4143 19.0876 24.1391ZM32.2001 25.1471C31.6175 23.8516 31.135 22.6402 30.7288 21.4981C29.9955 19.4365 29.5104 17.6187 29.1729 15.9691C28.3644 15.6823 27.495 15.4192 26.5582 15.2723C24.4947 14.9489 22.1617 15.124 19.633 15.8151C19.0157 15.9838 18.3863 16.1866 17.7408 16.4201C15.9198 17.0785 13.9923 18.0274 11.9962 19.4127C13.4688 19.7913 14.8008 20.3232 16.0244 20.9488C17.7203 21.815 19.2069 22.8551 20.5711 23.9004C20.6224 23.9395 20.6731 23.9786 20.7238 24.0178C21.2236 23.9588 21.7279 23.9151 22.2374 23.8869C22.8123 23.8555 23.3923 23.8433 23.9769 23.8522C25.4129 23.8708 26.8168 24.0171 28.1796 24.2667C29.5059 24.5099 30.768 24.9308 32.032 25.2914C32.1193 25.3165 32.2059 25.3357 32.2938 25.3543C32.2624 25.285 32.2309 25.2157 32.2001 25.1471Z" fill="#002752"/>
<path fill-rule="evenodd" clip-rule="evenodd" d="M42.2278 32.9563C40.3253 30.5791 37.9281 28.5829 35.1845 27.111C34.8079 26.9089 34.4242 26.7164 34.0347 26.5342C31.5522 22.078 30.3542 18.5355 29.6407 15.566C28.1188 9.2311 28.8008 5.50447 23.918 1.08101C38.478 -1.22183 51.2787 9.03605 54.0371 14.9853C48.8809 18.3539 44.3253 25.7135 43.1658 32.6361C42.8855 32.7241 42.6076 32.8184 42.3324 32.9185C42.2977 32.9313 42.2624 32.9441 42.2278 32.957V32.9563Z" fill="#4BA203"/>
<path fill-rule="evenodd" clip-rule="evenodd" d="M33.8633 25.6577C33.8633 25.6577 39.9948 26.7819 42.0313 28.5143C42.0313 28.5143 43.4237 25.6654 45.3743 25.6275C47.3249 25.5903 45.0368 27.3157 45.0368 27.3157L43.7991 30.9544L42.7115 32.905L41.2485 31.7424L38.9226 29.4164L36.2592 27.8412L34.6461 26.5284L33.8633 25.6577Z" fill="#367501"/>
<path fill-rule="evenodd" clip-rule="evenodd" d="M30.9028 19.7688C30.3485 18.2424 29.9487 16.8507 29.6407 15.5661C28.1188 9.23122 28.8015 5.50458 23.918 1.08112C32.6545 -0.300965 40.7571 2.83986 46.4376 6.85844C46.2733 6.79171 46.1052 6.72241 45.9332 6.64926C39.4058 3.88894 35.3032 3.70479 32.9843 4.05448C32.3606 4.14816 31.8031 4.494 31.4425 5.01116C31.0819 5.52832 30.9497 6.17124 31.0767 6.7885C31.9243 10.9527 29.8942 13.9171 32.0052 20.4208L30.9028 19.7688Z" fill="#B1CE98"/>
<path fill-rule="evenodd" clip-rule="evenodd" d="M32.2852 25.1774C31.6263 23.8909 31.0751 22.6834 30.6125 21.5451C29.7386 19.3943 29.1765 17.4906 28.7684 15.7755C27.8849 11.993 27.7963 9.15184 26.8082 6.5269C26.189 4.88302 25.2003 3.32962 23.3896 1.66457C23.165 1.46117 23.0771 1.14676 23.1637 0.856741C23.2503 0.566078 23.4961 0.35113 23.7951 0.304291C30.1852 -0.648542 36.23 0.730338 41.2618 3.13071C47.9637 6.32735 52.8549 11.3148 54.4237 14.8066C54.5129 14.9991 54.4474 15.2275 54.2697 15.343C53.1725 16.0604 52.0933 16.9529 51.091 18.0058C49.7134 19.4521 48.4725 21.1845 47.408 23.0549C45.6865 26.0795 44.4674 29.4911 44.0105 32.7783C43.9631 33.0619 43.777 33.3005 43.5197 33.4173C43.4876 33.4314 43.4549 33.4443 43.4209 33.4552L42.6297 33.7388L42.5296 33.7754C42.3307 33.8491 42.1177 33.8459 41.9278 33.7773C41.077 32.6243 40.1107 31.554 39.0423 30.5845C37.7931 29.4507 36.4097 28.4517 34.9134 27.6143L33.7905 27.0548C33.5724 26.9541 33.3523 26.8572 33.1303 26.7629C32.83 26.2214 32.549 25.6926 32.2846 25.1774H32.2852ZM42.4539 31.8575C43.179 28.6365 44.6047 25.3744 46.4469 22.4761C47.6429 20.5942 49.0185 18.8765 50.477 17.4084C51.4491 16.4299 52.4519 15.5548 53.4869 14.8413C51.7519 11.5522 47.0179 7.12041 40.7292 4.27731C36.3109 2.27989 31.1155 1.06784 25.6257 1.64339C26.9699 3.07553 27.797 4.46981 28.3687 5.92697C29.4171 8.59747 29.5602 11.499 30.513 15.3565C30.9102 16.9933 31.462 18.8059 32.2981 20.8598C32.9192 22.385 33.6943 24.0436 34.6888 25.8563L35.6089 26.3202C37.0237 27.0844 38.3494 27.982 39.5666 28.9964C40.6131 29.8684 41.5794 30.8257 42.4539 31.8581V31.8575Z" fill="#002752"/>
<path fill-rule="evenodd" clip-rule="evenodd" d="M55.3906 32.8368C55.7031 30.337 56.3441 27.3668 57.6287 24.5994C58.9504 21.7525 60.9389 19.116 63.9437 17.4169C64.1631 17.286 64.4474 17.3579 64.5789 17.5773C64.7098 17.7968 64.6379 18.081 64.4185 18.2126C61.7082 19.9187 59.9835 22.4506 58.8837 25.1467C57.7153 28.011 57.2571 31.0633 57.1051 33.5304C56.8811 33.4271 56.6547 33.3283 56.4262 33.2333C56.0862 33.0922 55.741 32.96 55.3913 32.8374L55.3906 32.8368Z" fill="#002752"/>
<path fill-rule="evenodd" clip-rule="evenodd" d="M46.6945 23.1593C46.572 22.7038 46.4347 22.2444 46.282 21.783C45.152 18.3753 43.1674 14.8829 39.6994 12.3394C39.5409 12.2297 39.5011 12.0122 39.6108 11.8537C39.7206 11.6952 39.9381 11.6554 40.0966 11.7651C43.8931 14.2374 46.178 17.7991 47.5659 21.3172C47.6018 21.4083 47.6371 21.4994 47.6717 21.5905C47.3323 22.1 47.0064 22.6242 46.6952 23.1593H46.6945Z" fill="#002752"/>
<path fill-rule="evenodd" clip-rule="evenodd" d="M32.4915 25.8793C31.9371 24.9804 31.0343 23.7895 29.6368 22.6031C28.2855 21.4558 26.5024 20.3156 24.147 19.4257C23.9635 19.3667 23.8621 19.1703 23.9211 18.9868C23.9801 18.8033 24.1765 18.7019 24.36 18.761C26.931 19.443 28.9233 20.4581 30.4665 21.5187C31.1113 21.9614 31.6766 22.4144 32.1707 22.8591C32.6962 24.0121 33.3109 25.2344 34.0353 26.5344C33.5309 26.2989 33.0157 26.0801 32.4915 25.8793Z" fill="#002752"/>
</svg>
