<svg width="49" height="75" viewBox="0 0 49 75" fill="none" xmlns="http://www.w3.org/2000/svg">
<path d="M11.3985 68.5789C8.84785 68.5789 6.38758 67.6547 4.47021 65.9771C2.57117 64.3156 1.33121 62.0313 0.978306 59.5452C0.908424 59.0556 0.873047 58.5538 0.873047 58.0532V33.8917C0.873047 30.2967 1.60069 26.803 3.03545 23.508C3.22981 23.0621 3.43901 22.6161 3.65783 22.1824L5.62282 18.2864C6.47275 16.601 7.12527 14.815 7.56203 12.9775C7.90838 11.5214 8.12021 10.0263 8.19184 8.53343C8.21106 8.15082 8.22067 7.75773 8.22067 7.36377V6.49023H23.6676V7.36377C23.6676 7.62059 23.6719 7.8809 23.6802 8.13772C23.6842 8.25434 23.6885 8.37052 23.6942 8.4867C23.8528 11.9197 24.718 15.2164 26.2659 18.2869L28.2304 22.1828C28.6624 23.0393 29.0506 23.9286 29.3843 24.8262C30.4671 27.7359 31.0156 30.7859 31.0156 33.8917V58.0532C31.0156 60.8647 29.9207 63.508 27.9325 65.4962C25.9444 67.4843 23.3016 68.5789 20.4901 68.5789H11.3985Z" fill="#D8D8D8"/>
<path d="M22.7941 7.36426C22.7941 7.63199 22.7985 7.8993 22.8072 8.1666C22.8111 8.28715 22.8159 8.40769 22.8216 8.52824C22.9845 12.0578 23.8912 15.5178 25.4858 18.6805L27.4504 22.5764C27.8701 23.4089 28.2422 24.2619 28.5654 25.1311C29.6058 27.9273 30.1421 30.8938 30.1421 33.8922V58.0537C30.1421 63.3845 25.8204 67.7058 20.4902 67.7058H11.3986C6.53262 67.7058 2.50788 64.1051 1.84313 59.423C1.77936 58.9757 1.7466 58.5184 1.7466 58.0537V33.8922C1.7466 30.4343 2.45983 27.0183 3.8365 23.8575C4.02475 23.4255 4.22522 22.9983 4.43792 22.5764L6.40291 18.6805C7.28778 16.9255 7.96039 15.0793 8.412 13.1802C8.77058 11.6721 8.98984 10.1307 9.06452 8.57585C9.08462 8.17271 9.09422 7.7687 9.09422 7.36426H22.7941ZM24.5411 5.61719H7.34718V7.36426C7.34718 7.74381 7.33801 8.12248 7.31967 8.48893V8.49068V8.49243C7.25066 9.93157 7.04625 11.3729 6.71257 12.7767C6.29153 14.5478 5.6626 16.2695 4.84324 17.8943L2.87825 21.7902C2.65245 22.2384 2.43581 22.6992 2.23534 23.1599C1.50202 24.8437 0.940345 26.6091 0.565605 28.4073C0.190427 30.2076 0 32.053 0 33.8926V58.0541C0 58.5957 0.0384349 59.1395 0.113994 59.6702C0.49616 62.3624 1.8392 64.8363 3.89547 66.6357C5.97226 68.4527 8.63694 69.4538 11.399 69.4538H20.4906C22.0284 69.4538 23.5217 69.152 24.9281 68.5571C26.2855 67.9827 27.5045 67.1612 28.551 66.1147C29.5975 65.0682 30.419 63.8496 30.9934 62.4917C31.5883 61.0853 31.8901 59.592 31.8901 58.0541V33.8922C31.8901 30.6819 31.3227 27.5294 30.2037 24.5218C29.8587 23.5945 29.4577 22.6751 29.0114 21.7898L27.0468 17.8938C25.5544 14.9343 24.7206 11.756 24.5678 8.44788C24.5625 8.33475 24.5577 8.22163 24.5542 8.10982C24.5464 7.86261 24.542 7.6119 24.542 7.36426V5.61719H24.5411Z" fill="black"/>
<path d="M30.1436 33.8895V58.0511C30.1436 63.3818 25.8218 67.7032 20.4916 67.7032H11.4C6.53407 67.7032 2.50932 64.1025 1.84457 59.4203C1.7808 58.9731 1.74805 58.5158 1.74805 58.0511V33.8895C1.74805 30.4316 2.46128 27.0157 3.83795 23.8548C6.36111 23.3425 9.16773 23.1429 11.559 23.8793C12.2561 24.0937 12.9662 24.3125 13.6886 24.5252C18.3179 25.8888 23.4332 27.0026 28.5669 25.1284C29.1569 26.7143 29.585 28.3552 29.8448 30.0259C30.0431 31.3004 30.1436 32.5923 30.1436 33.8895Z" fill="white"/>
<path d="M30.1436 34.0156H1.74805V48.0302H30.1436V34.0156Z" fill="#96B3EB"/>
<path d="M11.2157 44.125V39.4529L9.94259 44.125H8.5253L7.26219 39.4734V44.125H5.9375V37.3066H8.0322L9.2643 42.3076L10.4964 37.3066H12.5501V44.125H11.2153H11.2157Z" fill="black"/>
<path d="M13.0742 44.125V37.3066H14.5016V44.125H13.0742Z" fill="black"/>
<path d="M14.9961 44.125V37.3066H16.4234V42.8824H19.8018V44.125H14.9961Z" fill="black"/>
<path d="M24.3285 44.1235L22.3054 41.053L21.5455 41.8025V44.1231H20.1387V37.3047H21.5455V40.0773L24.1538 37.3047H26.0022L23.3117 39.9952L26.0638 44.1231H24.3285V44.1235Z" fill="black"/>
<path d="M28.5657 25.1285C23.4321 27.0026 18.3167 25.8889 13.6875 24.5253C13.6875 24.5253 21.6964 19.8545 28.5657 25.1285Z" fill="#EFEFEF"/>
<path opacity="0.3" d="M8.68982 18.6348C8.68982 18.6348 3.77059 24.3949 3.83261 29.875V40.8348" stroke="#B7B7B7" stroke-width="5.40142" stroke-miterlimit="10" stroke-linecap="round"/>
<path opacity="0.2" d="M30.1421 33.8912V58.0527C30.1421 63.3835 25.8204 67.7049 20.4902 67.7049H11.3986C7.07289 67.7049 3.41197 64.8593 2.18555 60.938C3.09619 61.2228 4.06536 61.3765 5.07035 61.3765H14.162C19.4922 61.3765 23.8139 57.0552 23.8139 51.7244V27.5629C23.8139 24.5645 23.2776 21.598 22.2372 18.8018C21.914 17.9326 21.5419 17.0796 21.1222 16.2471L19.1576 12.3512C18.3527 10.7548 17.7229 9.0824 17.2761 7.36328H22.7941C22.7941 7.63102 22.7985 7.89832 22.8072 8.16562C22.8111 8.28617 22.8159 8.40672 22.8216 8.52727C22.9845 12.0568 23.8912 15.5169 25.4858 18.6795L27.4504 22.5754C27.8701 23.4079 28.2422 24.2609 28.5654 25.1301C29.6058 27.9263 30.1421 30.8928 30.1421 33.8912Z" fill="#2E3192"/>
<path d="M10.0939 9.33786C9.6877 9.33786 9.28501 9.28196 8.89716 9.17145C7.03613 8.64078 5.73633 6.91774 5.73633 4.98067C5.73633 3.81625 6.18969 2.72215 7.01298 1.89928C7.8354 1.07641 8.92992 0.623047 10.0939 0.623047H21.6449C22.2306 0.623047 22.7988 0.73748 23.3343 0.962415C23.3932 0.987311 23.4509 1.01352 23.5129 1.04278C23.6553 1.11092 23.792 1.18473 23.92 1.26335C25.2241 2.06394 26.002 3.4533 26.002 4.98067C26.002 6.14422 25.5487 7.23832 24.7254 8.06163C24.2475 8.53945 23.6579 8.90415 23.0198 9.11598C22.8228 9.18194 22.6162 9.23435 22.4066 9.27147C22.1563 9.31559 21.9 9.3383 21.6445 9.3383H10.0939V9.33786Z" fill="#E2963B"/>
<path d="M21.6433 1.2426C22.1574 1.2426 22.6466 1.34612 23.0921 1.53349C23.1436 1.55533 23.1947 1.57848 23.2454 1.6025C23.3651 1.65972 23.4817 1.72261 23.5944 1.79162C24.6653 2.44895 25.3798 3.63041 25.3798 4.97915C25.3798 6.01079 24.9614 6.9446 24.2853 7.62071C23.8791 8.02691 23.3803 8.33963 22.823 8.52482C22.6531 8.5816 22.4771 8.62615 22.2972 8.65804C22.0849 8.6956 21.8665 8.71525 21.6433 8.71525H10.0923C9.73639 8.71525 9.39222 8.66546 9.06596 8.57243C7.50149 8.12649 6.35586 6.68647 6.35586 4.97915C6.35586 3.9475 6.77384 3.01326 7.45039 2.33714C8.12649 1.66059 9.06072 1.2426 10.0923 1.2426H21.6433ZM21.6433 0H10.0923C8.76198 0 7.51153 0.518006 6.57162 1.4588C5.63172 2.39829 5.11328 3.64875 5.11328 4.97915C5.11328 6.08329 5.46749 7.12935 6.13792 8.0042C6.78607 8.85021 7.70502 9.4761 8.72529 9.76699C9.16816 9.89321 9.62851 9.95742 10.0923 9.95742H21.6433C21.9351 9.95742 22.2277 9.93165 22.5138 9.88098C22.7536 9.83862 22.9903 9.77834 23.217 9.70278C23.9442 9.46125 24.6181 9.04458 25.1641 8.49905C26.1044 7.55869 26.6224 6.30823 26.6224 4.97915C26.6224 4.11216 26.3957 3.25828 25.9673 2.50923C25.5524 1.78419 24.9566 1.1701 24.2447 0.732895C24.0971 0.642485 23.9416 0.558189 23.7817 0.481754L23.78 0.480881L23.7782 0.480007C23.7084 0.446813 23.6428 0.417113 23.5773 0.389596H23.576L23.5747 0.388286C22.9624 0.130593 22.3129 0.000436767 21.6442 0.000436767L21.6433 0Z" fill="black"/>
<path opacity="0.3" d="M3.83203 45.7383V54.0517" stroke="#B7B7B7" stroke-width="5.40142" stroke-miterlimit="10" stroke-linecap="round"/>
<path d="M13.7401 2.42969H9.37382C8.9225 2.42969 8.55664 2.79556 8.55664 3.24688V3.64477C8.55664 4.0961 8.9225 4.46197 9.37382 4.46197H13.7401C14.1914 4.46197 14.5573 4.0961 14.5573 3.64477V3.24688C14.5573 2.79556 14.1914 2.42969 13.7401 2.42969Z" fill="white"/>
<path d="M17.681 2.42969H16.3152C15.8639 2.42969 15.498 2.79556 15.498 3.24688V3.64477C15.498 4.0961 15.8639 4.46197 16.3152 4.46197H17.681C18.1323 4.46197 18.4982 4.0961 18.4982 3.64477V3.24688C18.4982 2.79556 18.1323 2.42969 17.681 2.42969Z" fill="white"/>
<path opacity="0.2" d="M25.3788 4.98264C25.3788 6.01428 24.9604 6.94809 24.2843 7.62421C23.8781 8.0304 23.3793 8.34312 22.822 8.52831C22.6521 8.58509 22.4761 8.62964 22.2961 8.66153C22.0839 8.69909 21.8655 8.71874 21.6423 8.71874H17.9062C17.9062 8.71874 24.818 5.71379 21.4244 1.24609H21.6423C22.1564 1.24609 22.6455 1.34961 23.091 1.53698C23.1426 1.55882 23.1937 1.58197 23.2443 1.60599C23.364 1.66321 23.4806 1.7261 23.5933 1.79511C24.6642 2.45244 25.3788 3.6339 25.3788 4.98264Z" fill="#2E3192"/>
<path d="M33.4156 74.1248C30.4793 74.1248 27.708 73.8244 25.6125 73.2793C23.1509 72.6385 21.8756 71.7178 21.8196 70.5416L17.6936 44.5588C17.6481 44.3937 17.625 44.2268 17.625 44.0608C17.625 42.5937 19.2484 41.4276 22.4508 40.5942C25.2111 39.8757 28.8663 39.4805 32.743 39.4805C36.6197 39.4805 40.275 39.8762 43.0353 40.5942C46.2372 41.4276 47.861 42.5937 47.861 44.0608C47.861 44.1718 47.8506 44.2849 47.8296 44.3976L46.7967 53.9698L45.0121 70.5154C44.9736 71.7038 43.6978 72.6337 41.2184 73.2788C39.1228 73.8239 36.3515 74.1244 33.4152 74.1244L33.4156 74.1248Z" fill="#D8D8D8"/>
<path d="M32.7435 40.3549C40.6104 40.3549 46.988 42.0146 46.988 44.0618C46.988 44.1308 46.9801 44.1994 46.9657 44.2675L45.9289 53.8772L44.1399 70.4613C44.1399 72.0022 39.3386 73.2518 33.4157 73.2518C27.4928 73.2518 22.6915 72.0022 22.6915 70.4613L20.1617 54.5306L18.5479 44.3675C18.516 44.2666 18.499 44.1648 18.499 44.0618C18.499 42.0146 24.8766 40.3549 32.7435 40.3549ZM32.7435 38.6079C28.7947 38.6079 25.0613 39.0136 22.2311 39.75C20.7553 40.1339 19.5682 40.5986 18.703 41.1311C17.0904 42.123 16.752 43.2725 16.752 44.0618C16.752 44.2885 16.7808 44.516 16.838 44.7401L18.4361 54.8045L20.9501 70.6373C20.9981 71.3287 21.3458 72.2525 22.6185 73.0352C23.3064 73.4584 24.2393 73.8248 25.3924 74.1249C27.5574 74.6883 30.4068 74.9984 33.4157 74.9984C36.4245 74.9984 39.2735 74.6883 41.439 74.1249C42.5916 73.8248 43.5249 73.4584 44.2128 73.0352C45.52 72.2311 45.8515 71.278 45.8843 70.581L47.6658 54.0642L48.6953 44.5212C48.7215 44.3679 48.735 44.2138 48.735 44.0613C48.735 43.2721 48.3965 42.1225 46.784 41.1306C45.9188 40.5982 44.7317 40.1339 43.2559 39.7496C40.4257 39.0132 36.6927 38.6074 32.7435 38.6074V38.6079Z" fill="black"/>
<path d="M32.743 48.6432C28.8659 48.6432 25.2111 48.2475 22.4508 47.5294C19.2489 46.6961 17.625 45.5299 17.625 44.0628C17.625 42.5957 19.2484 41.4295 22.4508 40.5962C25.2111 39.8781 28.8663 39.4824 32.743 39.4824C36.6197 39.4824 40.275 39.8781 43.0353 40.5962C46.2372 41.4295 47.861 42.5957 47.861 44.0628C47.861 45.5299 46.2376 46.6961 43.0353 47.5294C40.275 48.2479 36.6197 48.6432 32.743 48.6432Z" fill="#D8D8D8"/>
<path d="M32.7435 40.3584C40.6104 40.3584 46.988 42.0181 46.988 44.0652C46.988 46.1124 40.6104 47.7721 32.7435 47.7721C24.8766 47.7721 18.499 46.1124 18.499 44.0652C18.499 42.0181 24.8766 40.3584 32.7435 40.3584ZM32.7435 38.6113C28.7943 38.6113 25.0613 39.0171 22.2311 39.7535C20.7553 40.1374 19.5682 40.6021 18.703 41.1345C17.0904 42.1264 16.752 43.276 16.752 44.0652C16.752 44.8545 17.0904 46.004 18.703 46.9959C19.5682 47.5284 20.7553 47.9927 22.2311 48.377C25.0609 49.1134 28.7943 49.5192 32.7435 49.5192C36.6927 49.5192 40.4257 49.1134 43.2559 48.377C44.7317 47.9931 45.9188 47.5284 46.784 46.9959C48.3965 46.004 48.735 44.8545 48.735 44.0652C48.735 43.276 48.3965 42.1264 46.784 41.1345C45.9188 40.6021 44.7317 40.1378 43.2559 39.7535C40.4261 39.0171 36.6927 38.6113 32.7435 38.6113Z" fill="black"/>
<path d="M33.4122 74.1269C30.4754 74.1269 27.7046 73.8264 25.609 73.2813C23.0911 72.6262 21.8145 71.678 21.8145 70.4629C21.8145 69.2478 23.0911 68.2996 25.609 67.6444C27.7042 67.0993 30.4754 66.7988 33.4122 66.7988C36.349 66.7988 39.1198 67.0993 41.2153 67.6444C43.7333 68.2996 45.0099 69.2478 45.0099 70.4629C45.0099 71.678 43.7333 72.6262 41.2153 73.2813C39.1202 73.8264 36.349 74.1269 33.4122 74.1269Z" fill="#D8D8D8"/>
<path d="M33.4127 67.6729C39.3356 67.6729 44.1369 68.9224 44.1369 70.4634C44.1369 72.0043 39.3356 73.2539 33.4127 73.2539C27.4898 73.2539 22.6884 72.0043 22.6884 70.4634C22.6884 68.9224 27.4898 67.6729 33.4127 67.6729ZM33.4127 65.9258C30.4038 65.9258 27.5548 66.2359 25.3898 66.7993C24.2372 67.0994 23.3038 67.4658 22.6159 67.889C21.2323 68.7403 20.9414 69.7589 20.9414 70.4634C20.9414 71.1679 21.2319 72.1864 22.6159 73.0377C23.3038 73.4609 24.2372 73.8273 25.3898 74.1274C27.5548 74.6908 30.4043 75.0009 33.4127 75.0009C36.4211 75.0009 39.2705 74.6908 41.4355 74.1274C42.5881 73.8273 43.5215 73.4609 44.2094 73.0377C45.593 72.1864 45.8839 71.1679 45.8839 70.4634C45.8839 69.7589 45.5935 68.7403 44.2094 67.889C43.5215 67.4658 42.5881 67.0994 41.4355 66.7993C39.2705 66.2359 36.4211 65.9258 33.4127 65.9258Z" fill="black"/>
<path d="M45.9253 53.88L45.1431 61.132L44.1363 70.464C44.1363 72.0049 39.335 73.2545 33.4121 73.2545C27.4892 73.2545 22.6879 72.0049 22.6879 70.464L20.1582 54.5334C20.1582 54.5334 26.7751 51.4555 32.854 54.2582C33.0405 54.3442 33.2269 54.436 33.4121 54.5334C38.2078 57.0526 43.6703 54.9692 45.9253 53.88Z" fill="white"/>
<path d="M45.9288 53.8785C43.6738 54.9678 38.2112 57.0512 33.4156 54.5319C33.2304 54.4345 33.0439 54.3428 32.8574 54.2567C36.3074 52.8552 41.2489 51.7388 45.9288 53.8785Z" fill="#EFEFEF"/>
<path opacity="0.2" d="M46.9863 44.0651C46.9863 44.1341 46.9784 44.2026 46.964 44.2708L45.9271 53.8805L44.1381 70.4646C44.1381 72.0055 39.3368 73.2551 33.4139 73.2551C27.491 73.2551 22.6897 72.0055 22.6897 70.4646L22.3359 68.2353C24.1655 68.6131 26.4804 68.8389 28.9983 68.8389C34.9212 68.8389 39.7225 67.5894 39.7225 66.0484L41.5115 49.4644L42.3885 41.3379C45.2152 42.0149 46.9863 42.9863 46.9863 44.0651Z" fill="#2E3192"/>
<path opacity="0.3" d="M21.2988 50.8145L22.689 66.1332" stroke="#B7B7B7" stroke-width="5.40142" stroke-miterlimit="10" stroke-linecap="round"/>
</svg>
