<svg width="123" height="120" viewBox="0 0 123 120" fill="none" xmlns="http://www.w3.org/2000/svg">
<path d="M43.8842 89.913C45.3249 90.605 46.3551 92.0141 46.5021 93.6776C52.5497 102.715 57.502 112.337 57.5936 112.519C58.0642 113.455 58.1005 114.549 57.6938 115.515C57.6398 115.645 57.5587 115.759 57.4908 115.881C63.1622 116.057 69.5183 116.18 76.1888 116.18C99.0858 116.18 118.468 114.756 118.662 114.742C118.759 114.733 118.857 114.744 118.95 114.772C119.623 114.966 120.304 114.781 120.777 114.274C121.235 113.783 121.37 113.116 121.138 112.492L119.109 106.989C119.029 106.771 119.045 106.53 119.153 106.325C121.34 102.176 120.889 100.345 119.802 95.9198C118.708 91.4697 117.056 84.7432 117.056 71.1807C117.056 45.7338 114.483 20.1043 113.042 12.9059C113.024 12.811 113.027 12.7147 113.042 12.6198C112.9 12.7398 112.723 12.8195 112.523 12.8195H47.6139C47.1631 12.8195 46.796 12.4537 46.796 12.0016C46.796 11.5495 47.1631 11.1837 47.6139 11.1837H112.524C112.925 11.1837 113.244 11.4783 113.313 11.8606L115.151 7.16531C115.401 6.5293 115.269 5.85111 114.801 5.35021C114.316 4.83152 113.622 4.64961 112.938 4.86447C112.841 4.89479 112.741 4.90599 112.638 4.90006C112.397 4.88424 88.3791 3.27148 76.1901 3.27148C64.0012 3.27148 39.9838 4.88424 39.7426 4.90006C39.643 4.90731 39.5402 4.89479 39.4427 4.86447C38.7605 4.65027 38.0632 4.83152 37.5795 5.35021C37.1115 5.85111 36.9797 6.53062 37.2289 7.16531L39.2964 12.4471C39.3544 12.5935 39.3676 12.753 39.3372 12.9065C37.8965 20.103 35.3241 45.7312 35.3241 71.1814C35.3241 74.5321 35.2042 77.4459 35.0117 80.0288C37.8326 82.1768 40.9223 85.8208 43.8862 89.9136L43.8842 89.913ZM118.25 106.638C118.703 106.638 119.068 107.005 119.068 107.457C119.068 107.908 118.703 108.275 118.25 108.275H66.7054C66.2532 108.275 65.8875 107.908 65.8875 107.457C65.8875 107.006 66.2532 106.638 66.7054 106.638H118.251H118.25ZM65.8868 96.0022C65.8868 95.5501 66.2526 95.1843 66.7047 95.1843H85.7955C86.2476 95.1843 86.6134 95.5501 86.6134 96.0022C86.6134 96.4543 86.2476 96.8201 85.7955 96.8201H66.7047C66.2526 96.8201 65.8868 96.453 65.8868 96.0022ZM52.5234 23.9981C52.5234 22.1936 53.9911 20.7258 55.7957 20.7258H64.1534C64.5489 19.6172 65.5981 18.8171 66.8411 18.8171H85.6604C86.9027 18.8171 87.9527 19.6172 88.3481 20.7258H96.7058C98.5104 20.7258 99.9788 22.1936 99.9788 23.9981V40.0328C102.401 44.1322 103.797 48.9059 103.797 54.0019C103.797 59.0979 102.401 63.8716 99.9788 67.971V85.9078C99.9788 87.7117 98.5104 89.1794 96.7058 89.1794H55.7957C53.9911 89.1794 52.5234 87.7117 52.5234 85.9078V67.9697C50.1013 63.8709 48.7053 59.0972 48.7053 54.0019C48.7053 48.9066 50.1013 44.1322 52.5234 40.0341V23.9988V23.9981Z" fill="#875430"/>
<path d="M32.8671 69.5451C32.8671 44.6228 35.359 18.7909 36.896 11.1094L34.8285 5.82755C34.0396 3.81144 35.9654 1.79203 38.05 2.44715C38.05 2.44715 62.194 0.816595 74.553 0.816595C86.912 0.816595 111.056 2.44715 111.056 2.44715C113.14 1.79203 115.066 3.81144 114.276 5.82755L112.209 11.1094C113.746 18.7903 116.238 44.6228 116.238 69.5451C116.238 96.6186 122.877 96.2719 118.24 105.07L120.27 110.573C121.001 112.556 119.136 114.518 117.086 113.922C117.086 113.922 97.7485 115.363 74.553 115.363C67.6281 115.363 61.0643 115.231 55.2546 115.046C54.9283 115.373 54.5408 115.632 54.1071 115.825C60.2095 116.03 67.1917 116.181 74.553 116.181C96.4936 116.181 115.219 114.876 117.008 114.748C118.217 115.042 119.483 114.671 120.338 113.754C121.212 112.816 121.479 111.489 121.038 110.29L119.133 105.127C121.413 100.646 120.85 98.3546 119.754 93.8946C118.68 89.5197 117.055 82.9098 117.055 69.5457C117.055 44.2622 114.517 18.752 113.056 11.1865L115.037 6.12677C115.515 4.90814 115.254 3.55572 114.36 2.59742C113.484 1.66087 112.194 1.2964 110.966 1.6233C108.942 1.48819 86.3017 0 74.5523 0C62.803 0 40.1624 1.48754 38.139 1.62265C36.9065 1.29508 35.6194 1.66153 34.7454 2.59676C33.8504 3.55506 33.5901 4.90748 34.0672 6.12611L36.0484 11.1858C34.5886 18.7501 32.0492 44.2576 32.0492 69.5451C32.0492 72.4516 31.9595 75.0319 31.8086 77.3446C32.0676 77.4929 32.3293 77.6517 32.5936 77.8297C32.7643 75.3871 32.8671 72.646 32.8671 69.5457V69.5451Z" fill="black"/>
<path d="M33.6858 69.5455C33.6858 44.0953 36.2595 18.4671 37.7003 11.2707C37.7306 11.1171 37.7161 10.9583 37.6594 10.8113L35.5919 5.52946C35.3434 4.89477 35.4746 4.21526 35.9425 3.71305C36.4263 3.19501 37.1236 3.01311 37.8051 3.22797C37.9026 3.25828 38.0067 3.27081 38.1063 3.26356C38.3481 3.24774 62.3649 1.63498 74.5538 1.63498C86.7428 1.63498 110.76 3.24774 111.001 3.26356C111.104 3.26949 111.204 3.25828 111.301 3.22797C111.986 3.01311 112.679 3.19501 113.164 3.71305C113.632 4.2146 113.764 4.89345 113.514 5.52946L111.677 10.2247C111.685 10.2728 111.705 10.315 111.705 10.3658C111.705 10.6169 111.585 10.8337 111.407 10.984C111.392 11.0789 111.387 11.1751 111.407 11.27C112.847 18.4684 115.42 44.0973 115.42 69.5449C115.42 83.1074 117.073 89.8339 118.166 94.284C119.252 98.7084 119.703 100.541 117.516 104.689C117.409 104.894 117.393 105.136 117.473 105.353L119.502 110.856C119.733 111.481 119.598 112.147 119.141 112.637C118.668 113.145 117.986 113.331 117.314 113.136C117.221 113.109 117.123 113.097 117.025 113.105C116.832 113.12 97.4501 114.544 74.5532 114.544C67.8827 114.544 61.5265 114.419 55.8552 114.244C55.6891 114.538 55.492 114.809 55.2548 115.046C61.0645 115.231 67.6289 115.363 74.5532 115.363C97.7487 115.363 117.086 113.922 117.086 113.922C119.136 114.519 121.002 112.557 120.271 110.572L118.241 105.07C122.877 96.2711 116.238 96.6184 116.238 69.5449C116.238 44.6226 113.746 18.7907 112.209 11.1092L114.276 5.82736C115.066 3.81125 113.14 1.79184 111.056 2.44696C111.056 2.44696 86.9108 0.816406 74.5532 0.816406C62.1955 0.816406 38.0502 2.44696 38.0502 2.44696C35.9656 1.79184 34.0404 3.81125 34.8287 5.82736L36.8962 11.1092C35.3592 18.7901 32.8673 44.6226 32.8673 69.5449C32.8673 72.6452 32.7645 75.3869 32.5938 77.8288C32.8514 78.0022 33.1111 78.192 33.3734 78.3917C33.5652 75.8088 33.6852 72.895 33.6852 69.5442L33.6858 69.5455Z" fill="black"/>
<path d="M87.8086 29.0087C91.9917 30.951 95.6114 33.9077 98.3413 37.5682V23.9998C98.3413 23.0975 97.6077 22.3633 96.7055 22.3633H88.5237V27.137C88.5237 27.856 88.2482 28.5065 87.8086 29.0094V29.0087Z" fill="#F5D250"/>
<path d="M76.2511 81.5476C67.2171 81.5476 59.1863 77.1752 54.1602 70.4375V85.908C54.1602 86.8103 54.8937 87.5438 55.796 87.5438H96.7055C97.6078 87.5438 98.3413 86.8103 98.3413 85.908V70.4375C93.3159 77.1759 85.2844 81.5476 76.2504 81.5476H76.2511Z" fill="#F5D250"/>
<path d="M64.6916 29.0101C64.252 28.5065 63.9765 27.856 63.9765 27.137V22.3633H55.794C54.8918 22.3633 54.1582 23.0975 54.1582 23.9998V37.5682C56.8881 33.9083 60.5084 30.9517 64.6909 29.0094L64.6916 29.0101Z" fill="#F5D250"/>
<path d="M97.5223 84.2721C97.5223 85.6271 96.4236 86.7258 95.0685 86.7258H54.159C52.8027 86.7258 51.7046 85.6271 51.7046 84.2721V67.6396C51.4199 67.2132 51.1484 66.7762 50.8867 66.334V84.2721C50.8867 86.076 52.3545 87.5437 54.159 87.5437H95.0685C96.8731 87.5437 98.3402 86.076 98.3402 84.2721V66.334C98.0792 66.7775 97.8083 67.2145 97.5223 67.6403V84.2721Z" fill="black"/>
<path d="M95.0687 19.9091C96.4237 19.9091 97.5224 21.0077 97.5224 22.3628V37.0931C97.8085 37.5196 98.0793 37.9565 98.3403 38.3988V22.3635C98.3403 20.5596 96.8732 19.0918 95.0687 19.0918H86.7109C86.8032 19.3502 86.8592 19.6237 86.8731 19.9097H95.0687V19.9091Z" fill="black"/>
<path d="M51.704 22.3615C51.704 21.0064 52.8027 19.9078 54.1584 19.9078H62.354C62.3685 19.6217 62.4245 19.3482 62.5168 19.0898H54.159C52.3545 19.0898 50.8867 20.5576 50.8867 22.3615V38.3981C51.1484 37.9552 51.4199 37.5189 51.7046 37.0919V22.3615H51.704Z" fill="black"/>
<path d="M86.8869 20.7261H95.0687C95.9709 20.7261 96.7045 21.4597 96.7045 22.3619V35.9303C96.9879 36.3093 97.2594 36.6975 97.5224 37.0923V22.3619C97.5224 21.0069 96.4237 19.9082 95.0687 19.9082H86.873C86.875 19.9543 86.8862 19.9978 86.8862 20.044V20.7261H86.8869Z" fill="black"/>
<path d="M96.7048 84.2731C96.7048 85.1754 95.9713 85.9089 95.069 85.9089H54.1595C53.2572 85.9089 52.523 85.1754 52.523 84.2731V68.8013C52.2409 68.4216 51.9687 68.0348 51.7051 67.6406V84.2731C51.7051 85.6281 52.8038 86.7268 54.1595 86.7268H95.069C96.424 86.7268 97.5227 85.6281 97.5227 84.2731V67.6413C97.2597 68.0348 96.9882 68.4229 96.7048 68.8019V84.2724V84.2731Z" fill="black"/>
<path d="M52.523 22.3619C52.523 21.4597 53.2572 20.7261 54.1595 20.7261H62.3419V20.044C62.3419 19.9978 62.3531 19.9543 62.3551 19.9082H54.1595C52.8031 19.9082 51.7051 21.0069 51.7051 22.3619V37.0923C51.9687 36.6988 52.2409 36.3106 52.523 35.9317V22.3626V22.3619Z" fill="black"/>
<path d="M41.0797 116.808C37.0593 116.581 34.4691 116.395 33.8569 116.35C32.631 116.649 31.3603 116.265 30.5055 115.331C29.6315 114.375 29.3811 113.033 29.8516 111.829L31.8348 106.764C29.3461 102.082 29.9966 99.2185 31.1533 94.1159C31.8869 90.8812 32.8063 86.8252 33.3111 80.7986C32.2164 80.0618 31.2159 79.6406 30.3572 79.6406C27.6121 79.6406 24.202 81.3345 20.8421 84.1217C22.4726 84.8407 23.6142 86.4706 23.6142 88.3635C23.6142 90.9201 21.5341 93.0001 18.9782 93.0001C17.1658 93.0001 15.5965 91.9515 14.8346 90.4317C13.844 91.7215 12.9022 93.0838 12.0434 94.5127C9.73467 98.3544 8.20166 103.22 6.96853 107.132C6.17039 109.667 5.481 111.856 4.72899 113.37C4.47261 113.886 4.45547 114.463 4.68088 114.993C4.92078 115.556 5.40652 115.988 6.01287 116.179C17.8182 119.895 29.739 120.874 41.5984 119.142C41.2629 118.501 41.0698 117.773 41.0698 117C41.0698 116.934 41.077 116.872 41.0797 116.808ZM15.7329 111.937C15.5774 112.1 15.3652 112.182 15.1608 112.182C14.9565 112.182 14.7351 112.1 14.5802 111.937C14.2605 111.617 14.2605 111.102 14.5802 110.783C14.8992 110.464 15.4139 110.464 15.7329 110.783C16.0519 111.102 16.0519 111.617 15.7329 111.937ZM17.6475 100.484C17.4834 100.639 17.2712 100.721 17.0669 100.721C16.8626 100.721 16.6497 100.639 16.4849 100.484C16.1673 100.165 16.1673 99.6423 16.4849 99.322C16.8046 99.003 17.3279 99.003 17.6475 99.322C17.9665 99.6416 17.9665 100.165 17.6475 100.484ZM24.7049 112.092C22.149 112.092 20.069 110.012 20.069 107.456C20.069 104.9 22.149 102.82 24.7049 102.82C27.2608 102.82 29.3409 104.899 29.3409 107.456C29.3409 110.012 27.2608 112.092 24.7049 112.092ZM29.8523 91.6899C30.1713 91.3709 30.686 91.3709 31.005 91.6899C31.324 92.0095 31.324 92.5249 31.005 92.8439C30.8495 93.0073 30.6373 93.0891 30.4244 93.0891C30.2115 93.0891 30.0078 93.0073 29.8523 92.8439C29.5327 92.5249 29.5327 92.0102 29.8523 91.6899Z" fill="#93EAF7"/>
<path d="M50.3223 117.372C50.4495 117.339 50.576 117.307 50.7025 117.273C50.578 117.268 50.4521 117.263 50.3289 117.258C50.3262 117.296 50.3262 117.334 50.3229 117.371L50.3223 117.372Z" fill="#93EAF7"/>
<path d="M33.4508 106.31C33.5688 106.522 33.5859 106.778 33.497 107.004L31.3754 112.423C31.1295 113.051 31.2554 113.725 31.7128 114.225C32.186 114.742 32.8735 114.934 33.551 114.736C33.6255 114.715 33.7032 114.703 33.7804 114.703C33.8008 114.703 33.8219 114.704 33.8423 114.706C33.9148 114.711 36.7297 114.925 41.4382 115.187C42.1453 113.528 43.7917 112.362 45.7057 112.362C47.7785 112.362 49.5382 113.73 50.1294 115.61C51.7909 115.68 53.5487 115.748 55.3895 115.811C55.7421 115.582 56.0255 115.265 56.1883 114.88C56.4124 114.348 56.3926 113.77 56.1329 113.252C53.7312 108.473 50.0477 102.002 46.0998 96.0135C45.3669 97.6111 43.7568 98.7256 41.8876 98.7256C39.3304 98.7256 37.251 96.6455 37.251 94.089C37.251 91.5324 39.1294 89.6659 41.5087 89.4728C39.1762 86.3824 36.8899 83.7481 34.8461 81.9824C34.3188 87.5338 33.4508 91.3802 32.7482 94.4752C31.6166 99.4651 31.0485 101.97 33.4508 106.309V106.31ZM43.2111 105.055C43.5301 104.736 44.054 104.736 44.373 105.055C44.692 105.374 44.692 105.89 44.373 106.208C44.2096 106.372 44.0053 106.445 43.7924 106.445C43.5795 106.445 43.3752 106.372 43.2117 106.208C42.8927 105.889 42.8927 105.373 43.2117 105.055H43.2111ZM35.579 110.781C35.898 110.462 36.414 110.462 36.7324 110.781C37.0513 111.1 37.0513 111.615 36.7324 111.935C36.5768 112.098 36.3646 112.172 36.1596 112.172C35.9546 112.172 35.7339 112.098 35.579 111.935C35.26 111.615 35.26 111.1 35.579 110.781ZM33.6729 101.235C33.984 100.916 34.508 100.916 34.8263 101.235C35.1453 101.554 35.1453 102.069 34.8263 102.389C34.6629 102.552 34.4579 102.635 34.2457 102.635C34.0334 102.635 33.8285 102.552 33.6729 102.389C33.346 102.07 33.346 101.554 33.6729 101.235Z" fill="#93EAF7"/>
<path d="M50.3416 117C50.3416 117.087 50.3337 117.172 50.3291 117.258C50.4523 117.263 50.5789 117.268 50.7028 117.273C51.551 117.049 52.3992 116.81 53.2461 116.557C52.2358 116.519 51.2538 116.48 50.3047 116.441C50.3271 116.625 50.3409 116.81 50.3409 117H50.3416Z" fill="#93EAF7"/>
<path d="M31.8342 106.762L29.851 111.828C29.3805 113.031 29.6309 114.373 30.5048 115.329C31.3603 116.264 32.631 116.647 33.8562 116.348C34.4692 116.394 37.0587 116.58 41.0791 116.806C41.0903 116.528 41.1232 116.257 41.1819 115.994C36.5222 115.732 33.7791 115.522 33.7791 115.522C31.7057 116.125 29.8326 114.116 30.6123 112.125L32.7338 106.706C28.6317 99.2945 32.6963 96.8421 34.079 81.3551C33.818 81.1521 33.5616 80.9663 33.3099 80.7969C32.8044 86.8235 31.8856 90.8794 31.1521 94.1142C29.9947 99.2167 29.3449 102.08 31.8335 106.762H31.8342Z" fill="#93EAF7"/>
<path d="M50.3049 116.441C51.2539 116.48 52.2353 116.52 53.2463 116.556C53.7835 116.396 54.3219 116.245 54.8591 116.074C55.0515 116.012 55.2255 115.918 55.389 115.812C53.5482 115.749 51.7904 115.682 50.1289 115.611C50.2126 115.878 50.2699 116.156 50.3049 116.441Z" fill="#93EAF7"/>
<path d="M32.7338 106.707L30.6122 112.126C29.8325 114.117 31.7056 116.126 33.7791 115.523C33.7791 115.523 36.5215 115.733 41.1818 115.995C41.2431 115.716 41.3281 115.446 41.4375 115.188C36.7291 114.926 33.9142 114.712 33.8417 114.707C33.8213 114.705 33.8002 114.704 33.7797 114.704C33.7026 114.704 33.6255 114.715 33.5504 114.737C32.8728 114.935 32.1854 114.744 31.7122 114.226C31.2548 113.726 31.1289 113.052 31.3748 112.424L33.4963 107.005C33.5853 106.779 33.5682 106.524 33.4502 106.311C31.0479 101.971 31.616 99.4669 32.7476 94.477C33.4502 91.382 34.3175 87.5356 34.8455 81.9842C34.5858 81.7601 34.3314 81.5518 34.0796 81.3574C32.6969 96.8444 28.6317 99.2962 32.7344 106.709L32.7338 106.707Z" fill="#93EAF7"/>
<path d="M3.77199 105.004C2.99296 107.474 2.3207 109.606 1.62603 111.004C1.16007 111.943 1.12777 113.034 1.53838 113.997C1.96546 115.001 2.82094 115.769 3.88469 116.104C12.1014 118.69 20.3715 119.982 28.6402 119.982C32.8247 119.982 37.0098 119.651 41.1858 118.988C40.9201 118.776 40.6776 118.536 40.4641 118.273C28.3595 120.113 16.247 119.136 4.12986 115.323C2.42813 114.788 1.58122 112.933 2.35893 111.367C4.25245 107.556 5.88894 98.8036 9.70433 92.4541C10.6758 90.8387 11.7382 89.3109 12.858 87.8873C12.7644 87.5288 12.7104 87.1557 12.7071 86.7695C11.383 88.3968 10.1308 90.1578 9.00373 92.0336C6.59547 96.0414 5.0295 101.011 3.77199 105.004Z" fill="black"/>
<path d="M18.2928 82.1888C21.9612 79.0589 25.7199 77.1851 28.7207 77.1851C29.6289 77.1851 30.6478 77.568 31.7438 78.2515C31.7663 77.9503 31.7893 77.6544 31.8098 77.3439C30.7157 76.7185 29.6763 76.3672 28.7207 76.3672C25.2981 76.3672 21.1123 78.5402 17.1348 82.1005C17.204 82.0972 17.2725 82.09 17.3424 82.09C17.668 82.09 17.9863 82.1242 18.2928 82.1882V82.1888Z" fill="black"/>
<path d="M48.5268 116.624C48.4332 116.954 48.3086 117.269 48.1484 117.565C50.0083 117.104 51.8663 116.588 53.7203 115.995C53.8574 115.952 53.9786 115.883 54.1078 115.825C53.2971 115.797 52.501 115.769 51.7226 115.74C50.6575 116.057 49.5918 116.351 48.5274 116.624H48.5268Z" fill="black"/>
<path d="M55.9578 110.884C55.8662 110.701 50.9152 101.08 44.8662 92.043C44.8787 92.1787 44.8873 92.3158 44.8873 92.4549C44.8873 92.7825 44.8517 93.1021 44.7871 93.4106C49.2233 100.096 53.1969 107.208 55.2269 111.251C55.7357 112.263 55.5557 113.393 54.9099 114.216C55.2223 114.226 55.5386 114.236 55.8556 114.245C55.9242 114.124 56.0046 114.01 56.0586 113.88C56.4653 112.913 56.429 111.821 55.9571 110.884H55.9578Z" fill="black"/>
<path d="M40.9059 87.8694C41.3804 87.9367 41.8306 88.0764 42.2478 88.2774C39.2833 84.1852 36.1935 80.5412 33.3733 78.3926C33.3483 78.7254 33.3246 79.0622 33.2969 79.3838C35.6643 81.3143 38.2907 84.3566 40.9059 87.8694Z" fill="black"/>
<path d="M55.256 115.047C54.819 115.032 54.3847 115.019 53.9556 115.004C53.802 115.085 53.6445 115.162 53.4725 115.217C52.8892 115.403 52.3066 115.567 51.7227 115.741C52.5017 115.77 53.2972 115.797 54.1079 115.825C54.5415 115.633 54.9291 115.373 55.2553 115.046L55.256 115.047Z" fill="black"/>
<path d="M32.5205 78.7818C32.5456 78.4655 32.5726 78.1577 32.595 77.8308C32.3301 77.6528 32.0691 77.494 31.81 77.3457C31.7896 77.6568 31.7665 77.9521 31.7441 78.2533C31.9979 78.4121 32.2582 78.5907 32.5205 78.7818Z" fill="black"/>
<path d="M33.3737 78.3929C33.1114 78.1932 32.8517 78.0028 32.594 77.8301C32.5716 78.157 32.5446 78.4648 32.5195 78.7811C32.7753 78.967 33.0356 79.17 33.2972 79.3842C33.3249 79.0625 33.3486 78.7258 33.3737 78.3929Z" fill="black"/>
<path d="M54.9094 114.217C54.6583 114.536 54.3367 114.805 53.9551 115.006C54.3841 115.021 54.8185 115.034 55.2554 115.049C55.4927 114.811 55.6898 114.54 55.8559 114.246C55.5388 114.237 55.2225 114.227 54.9101 114.217L54.9094 114.217Z" fill="black"/>
<path d="M48.6855 115.736C48.6605 116.041 48.6065 116.339 48.5254 116.625C49.5905 116.352 50.6562 116.057 51.7206 115.741C50.8117 115.707 49.9266 115.672 49.0652 115.637C48.938 115.67 48.8121 115.703 48.6849 115.736H48.6855Z" fill="black"/>
<path d="M4.37592 114.543C3.76825 114.352 3.28383 113.92 3.04393 113.357C2.81787 112.826 2.835 112.25 3.09204 111.732C3.84339 110.219 4.53344 108.031 5.33158 105.495C6.56405 101.585 8.09706 96.7183 10.4065 92.8772C11.2646 91.4483 12.2071 90.086 13.1977 88.7956C13.054 88.5089 12.94 88.2057 12.8582 87.8887C11.7385 89.3123 10.676 90.84 9.70455 92.4554C5.88916 98.8056 4.25267 107.557 2.35915 111.368C1.58144 112.934 2.42835 114.788 4.13009 115.324C16.2472 119.137 28.359 120.114 40.4643 118.274C40.2725 118.036 40.1044 117.78 39.9614 117.507C28.1013 119.238 16.1813 118.259 4.37592 114.544V114.543Z" fill="black"/>
<path d="M28.7209 78.0035C29.5803 78.0035 30.5808 78.4246 31.6748 79.1615C31.6999 78.8668 31.721 78.5558 31.7441 78.2519C30.648 77.5678 29.6291 77.1855 28.7209 77.1855C25.7201 77.1855 21.9614 79.0593 18.293 82.1893C18.6106 82.2558 18.9165 82.3573 19.2064 82.4852C22.5664 79.6973 25.9765 78.0041 28.7209 78.0041V78.0035Z" fill="black"/>
<path d="M39.8709 87.8374C39.9962 87.8275 40.1221 87.819 40.2499 87.819C40.4727 87.819 40.6902 87.8401 40.905 87.8704C38.2898 84.3568 35.6634 81.3152 33.296 79.3848C33.2683 79.7143 33.238 80.0307 33.207 80.3483C35.2515 82.1133 37.5385 84.747 39.8703 87.8381L39.8709 87.8374Z" fill="black"/>
<path d="M55.2256 111.251C53.1956 107.208 49.2221 100.095 44.7858 93.4102C44.7147 93.7489 44.6039 94.0719 44.4629 94.379C48.4108 100.367 52.0943 106.838 54.4947 111.617C54.755 112.134 54.7748 112.713 54.55 113.245C54.3886 113.631 54.1052 113.948 53.7526 114.177C54.1355 114.19 54.5191 114.203 54.9086 114.216C55.5545 113.393 55.7344 112.262 55.2256 111.251Z" fill="black"/>
<path d="M49.0664 115.638C49.9278 115.674 50.813 115.709 51.7218 115.742C52.3051 115.569 52.8877 115.405 53.4717 115.218C53.6437 115.163 53.8012 115.086 53.9548 115.006C53.156 114.979 52.3756 114.95 51.6091 114.922C50.7629 115.175 49.9146 115.414 49.0664 115.638Z" fill="black"/>
<path d="M32.4436 79.719C32.47 79.4152 32.4944 79.0949 32.5194 78.7805C32.2571 78.5894 31.9974 78.4108 31.743 78.252C31.72 78.5558 31.6989 78.8662 31.6738 79.1615C31.9263 79.3309 32.182 79.5167 32.4436 79.719Z" fill="black"/>
<path d="M54.9094 114.217C54.5199 114.204 54.1356 114.191 53.7534 114.178C53.5899 114.285 53.4152 114.377 53.2235 114.439C52.6863 114.611 52.1478 114.762 51.6094 114.922C52.3759 114.95 53.1562 114.979 53.955 115.006C54.3366 114.806 54.6583 114.537 54.9094 114.217Z" fill="black"/>
<path d="M33.2079 80.3479C33.2389 80.0302 33.2692 79.7138 33.2969 79.3843C33.0345 79.1701 32.7749 78.9671 32.5192 78.7812C32.4941 79.0956 32.4704 79.4166 32.4434 79.7198C32.6938 79.9149 32.9495 80.1238 33.2079 80.3479Z" fill="black"/>
<path d="M18.9773 91.363C20.6316 91.363 21.9774 90.0172 21.9774 88.3629C21.9774 86.8483 20.8471 85.606 19.3879 85.4043C18.2411 86.47 17.1154 87.6511 16.0352 88.9343C16.3034 90.3164 17.5194 91.3623 18.9773 91.3623V91.363Z" fill="#AEAEAE"/>
<path d="M16.0801 87.624C16.7345 86.8832 17.4015 86.178 18.0784 85.5156C17.097 85.8267 16.3371 86.6202 16.0801 87.624Z" fill="#AEAEAE"/>
<path d="M19.3873 85.4048C19.2515 85.3863 19.1171 85.3633 18.9767 85.3633C18.6616 85.3633 18.3624 85.4252 18.077 85.5169C17.4002 86.1792 16.7332 86.8844 16.0787 87.6252C16.0181 87.8632 15.9766 88.1077 15.9766 88.3634C15.9766 88.5598 15.9977 88.7496 16.0346 88.9355C17.1148 87.6523 18.2405 86.4712 19.3873 85.4055V85.4048Z" fill="#AEAEAE"/>
<path d="M15.986 83.168C16.3662 82.7982 16.7492 82.4449 17.1341 82.1016C14.6737 82.211 12.7051 84.2409 12.7051 86.727C12.7051 86.7415 12.7077 86.7553 12.7077 86.7698C13.0425 86.3579 13.3806 85.9519 13.7253 85.5584C14.0806 84.4578 14.9103 83.5786 15.9853 83.1686L15.986 83.168Z" fill="black"/>
<path d="M17.3422 91.3621C19.8981 91.3621 21.9781 89.2821 21.9781 86.7262C21.9781 84.8333 20.836 83.2041 19.2061 82.4844C18.9642 82.6841 18.7236 82.889 18.4831 83.1006C20.0312 83.589 21.1596 85.0179 21.1596 86.7255C21.1596 88.8346 19.4499 90.5442 17.3415 90.5442C15.7024 90.5442 14.3164 89.5062 13.7746 88.0555C13.5802 88.2981 13.3884 88.5446 13.1973 88.7924C13.9592 90.3129 15.5278 91.3608 17.3409 91.3608L17.3422 91.3621Z" fill="black"/>
<path d="M15.9844 83.1681C16.4068 83.0073 16.8609 82.909 17.3408 82.909C17.3816 82.909 17.4205 82.9196 17.4614 82.9216C17.7375 82.6705 18.0137 82.4273 18.2911 82.19C17.9847 82.1261 17.667 82.0918 17.3408 82.0918C17.2702 82.0918 17.2023 82.099 17.1331 82.1023C16.7476 82.4457 16.3647 82.7996 15.985 83.1687L15.9844 83.1681Z" fill="black"/>
<path d="M13.5533 87.0343C13.5454 86.9315 13.523 86.8326 13.523 86.7271C13.523 86.3165 13.6047 85.9283 13.7246 85.5586C13.3799 85.9521 13.0418 86.3581 12.707 86.77C12.7103 87.1562 12.7644 87.5292 12.858 87.8878C13.086 87.5965 13.3206 87.3157 13.5533 87.0343Z" fill="black"/>
<path d="M19.2061 82.4854C18.9155 82.3575 18.6103 82.256 18.2927 82.1895C18.0159 82.4267 17.739 82.6699 17.4629 82.921C17.8188 82.9316 18.1582 82.9995 18.4831 83.1016C18.7237 82.89 18.9643 82.6851 19.2061 82.4854Z" fill="black"/>
<path d="M13.7742 88.058C13.6536 87.7357 13.5824 87.3917 13.5527 87.0352C13.3201 87.3166 13.0855 87.5973 12.8574 87.8887C12.9391 88.2057 13.0525 88.5088 13.1968 88.7955C13.388 88.5477 13.5798 88.3006 13.7742 88.0587V88.058Z" fill="black"/>
<path d="M13.7246 85.5578C14.4615 84.7161 15.2168 83.9154 15.9846 83.168C14.909 83.5786 14.0799 84.4578 13.7246 85.5578Z" fill="black"/>
<path d="M17.341 90.5452C19.4494 90.5452 21.159 88.8355 21.159 86.7265C21.159 85.0188 20.03 83.5899 18.4825 83.1016C18.2387 83.3171 17.9948 83.5418 17.7509 83.7685C19.2108 83.9702 20.3418 85.2126 20.3418 86.7271C20.3418 88.3814 18.9959 89.7273 17.3417 89.7273C15.8825 89.7273 14.6678 88.68 14.3995 87.2992C14.1893 87.549 13.981 87.8008 13.7754 88.0578C14.3172 89.5078 15.7025 90.5465 17.3423 90.5465L17.341 90.5452Z" fill="black"/>
<path d="M16.4405 83.881C16.7786 83.5495 17.12 83.2338 17.4621 82.9227C17.4212 82.9207 17.3823 82.9102 17.3415 82.9102C16.8617 82.9102 16.4082 83.009 15.9851 83.1692C15.2173 83.9172 14.462 84.7173 13.7251 85.559C13.6052 85.9294 13.5234 86.3176 13.5234 86.7275C13.5234 86.833 13.5458 86.9318 13.5538 87.0347C13.8477 86.6794 14.1436 86.3295 14.4435 85.9894C14.7005 84.9856 15.4605 84.1921 16.4412 83.8803L16.4405 83.881Z" fill="black"/>
<path d="M14.3996 87.2985C14.3634 87.1127 14.3423 86.9229 14.3423 86.7265C14.3423 86.4707 14.3838 86.2255 14.4444 85.9883C14.1446 86.3284 13.8486 86.6783 13.5547 87.0336C13.5843 87.3908 13.6549 87.7342 13.7761 88.0565C13.9824 87.7994 14.19 87.5477 14.4003 87.2979L14.3996 87.2985Z" fill="black"/>
<path d="M16.4401 83.8808C16.7262 83.7905 17.0247 83.7279 17.3404 83.7279C17.4808 83.7279 17.6146 83.7503 17.7497 83.7694C17.9942 83.5434 18.2374 83.318 18.4813 83.1025C18.1563 83.0003 17.8169 82.9331 17.461 82.9219C17.119 83.233 16.7782 83.5487 16.4395 83.8802L16.4401 83.8808Z" fill="black"/>
<path d="M38.8867 94.09C38.8867 95.7449 40.2319 97.0901 41.8868 97.0901C43.5418 97.0901 44.8217 95.7989 44.8764 94.1921C44.1936 93.1877 43.5062 92.2057 42.8188 91.2533C42.5242 91.1558 42.2137 91.0898 41.8875 91.0898C40.2325 91.0898 38.8874 92.4357 38.8874 94.09H38.8867Z" fill="#AEAEAE"/>
<path d="M44.8865 94.0906C44.8865 92.7639 44.0146 91.648 42.8184 91.2539C43.5058 92.2063 44.1932 93.1883 44.876 94.1927C44.878 94.1578 44.8865 94.1255 44.8865 94.0906Z" fill="#AEAEAE"/>
<path d="M42.248 88.2773C43.1352 89.5019 44.0117 90.766 44.8652 92.042C44.7176 90.3785 43.6875 88.9681 42.248 88.2773Z" fill="black"/>
<path d="M40.2492 96.2734C38.1408 96.2734 36.4312 94.5644 36.4312 92.4554C36.4312 90.3463 38.1408 88.6374 40.2492 88.6374C40.329 88.6374 40.4041 88.6558 40.4819 88.6604C40.2789 88.3849 40.0746 88.1081 39.8709 87.8379C37.4917 88.0323 35.6133 90.0267 35.6133 92.4554C35.6133 95.0126 37.6933 97.0913 40.2499 97.0913C42.1184 97.0913 43.7298 95.9775 44.462 94.3799C44.2735 94.0945 44.0844 93.8124 43.8952 93.529C43.4293 95.1115 41.9819 96.2734 40.2486 96.2734H40.2492Z" fill="black"/>
<path d="M44.0547 92.3172C44.2998 92.6797 44.5444 93.0436 44.7862 93.4093C44.8508 93.1016 44.8864 92.7812 44.8864 92.4537C44.8864 92.3146 44.8778 92.1775 44.8653 92.0418C44.0118 90.7658 43.1352 89.5017 42.2481 88.2771C41.8309 88.0761 41.3808 87.937 40.9062 87.8691C41.162 88.2138 41.4177 88.5638 41.6734 88.9164C43.0351 89.4641 43.9986 90.7724 44.054 92.3166L44.0547 92.3172Z" fill="black"/>
<path d="M41.6743 88.917C41.4186 88.5644 41.1629 88.2145 40.9071 87.8698C40.6923 87.8395 40.4748 87.8184 40.252 87.8184C40.1242 87.8184 39.9983 87.8269 39.873 87.8368C40.0767 88.107 40.281 88.3838 40.484 88.6593C40.9025 88.685 41.3046 88.7674 41.675 88.917H41.6743Z" fill="black"/>
<path d="M44.054 92.3184C44.056 92.3645 44.0685 92.408 44.0685 92.4555C44.0685 92.8311 43.9973 93.1864 43.8965 93.5291C44.0856 93.8125 44.2748 94.0946 44.4633 94.38C44.6043 94.0728 44.7157 93.7492 44.7862 93.4111C44.5437 93.0453 44.2998 92.6809 44.0547 92.319L44.054 92.3184Z" fill="black"/>
<path d="M40.251 95.4549C38.596 95.4549 37.2502 94.1097 37.2502 92.4548C37.2502 90.7998 38.5967 89.4546 40.251 89.4546C40.5779 89.4546 40.8877 89.5205 41.1823 89.6181C40.9489 89.2951 40.7163 88.9761 40.4823 88.6598C40.4039 88.6552 40.3294 88.6367 40.2497 88.6367C38.1413 88.6367 36.4316 90.3464 36.4316 92.4548C36.4316 94.5631 38.1413 96.2728 40.2497 96.2728C41.983 96.2728 43.4304 95.1108 43.8963 93.5284C43.6782 93.2021 43.4594 92.8785 43.2399 92.5556C43.1845 94.1624 41.8697 95.4542 40.2503 95.4542L40.251 95.4549Z" fill="black"/>
<path d="M41.6738 88.918C42.4739 90.0213 43.2708 91.1588 44.0544 92.3181C43.9984 90.7739 43.0348 89.4657 41.6738 88.918Z" fill="black"/>
<path d="M40.4824 88.6602C40.7164 88.9765 40.949 89.2948 41.1824 89.6185C42.3786 90.0126 43.2505 91.1284 43.2505 92.4551C43.2505 92.4901 43.242 92.5223 43.24 92.5566C43.4595 92.8789 43.6776 93.2032 43.8964 93.5294C43.9979 93.1867 44.0685 92.8315 44.0685 92.4558C44.0685 92.409 44.0559 92.3655 44.054 92.3187C43.2697 91.1587 42.4728 90.0212 41.6734 88.9185C41.303 88.7696 40.9009 88.6865 40.4824 88.6608V88.6602Z" fill="black"/>
<path d="M42.7156 116.896C42.7136 116.932 42.7051 116.965 42.7051 117.001C42.7051 117.709 42.9621 118.352 43.3747 118.866C45.1107 118.573 46.8454 118.228 48.5781 117.818C48.6354 117.616 48.6724 117.406 48.6862 117.188C46.4941 117.092 44.4945 116.993 42.7156 116.897V116.896Z" fill="#AEAEAE"/>
<path d="M45.7044 114C44.6875 114 43.7905 114.511 43.248 115.287C44.7837 115.368 46.4749 115.451 48.3058 115.533C47.7897 114.623 46.8235 114 45.7044 114Z" fill="#AEAEAE"/>
<path d="M48.7058 117C48.7058 116.783 48.6801 116.573 48.6366 116.369C46.523 116.275 44.5886 116.18 42.8631 116.088C42.7794 116.344 42.726 116.614 42.7168 116.896C44.4956 116.992 46.4959 117.09 48.6874 117.187C48.6907 117.124 48.7058 117.064 48.7058 117Z" fill="#AEAEAE"/>
<path d="M43.2495 115.287C43.0801 115.529 42.9556 115.801 42.8633 116.088C44.5887 116.18 46.5231 116.275 48.6368 116.369C48.5729 116.069 48.4536 115.792 48.3072 115.533C46.4757 115.451 44.7851 115.368 43.2495 115.287Z" fill="#AEAEAE"/>
<path d="M45.7043 120C46.7001 120 47.5774 119.507 48.1237 118.758C46.8049 119.061 45.4861 119.326 44.168 119.563C44.6181 119.833 45.1408 120 45.7043 120Z" fill="#AEAEAE"/>
<path d="M44.1685 119.562C45.4867 119.326 46.8055 119.061 48.1243 118.758C48.3293 118.477 48.4802 118.159 48.5784 117.816C46.8457 118.227 45.111 118.571 43.375 118.864C43.5971 119.141 43.8627 119.378 44.1692 119.562H44.1685Z" fill="#AEAEAE"/>
<path d="M44.0683 119.182C43.4607 119.182 42.8945 119.028 42.3844 118.776C41.985 118.845 41.5849 118.926 41.1855 118.989C41.9778 119.62 42.9789 120 44.0683 120C45.8287 120 47.3624 119.014 48.1474 117.566C47.744 117.666 47.342 117.764 46.9386 117.858C46.2387 118.663 45.2191 119.182 44.0683 119.182Z" fill="black"/>
<path d="M47.8644 115.586C47.8565 115.711 47.8459 115.836 47.8262 115.958C48.1129 115.886 48.3989 115.809 48.6856 115.735C48.6882 115.697 48.6889 115.658 48.6909 115.622C48.4108 115.61 48.1386 115.597 47.8637 115.586H47.8644Z" fill="black"/>
<path d="M40.266 115.216C39.9879 115.2 39.7091 115.185 39.4435 115.17C39.4408 115.235 39.4336 115.298 39.4336 115.364C39.4336 116.136 39.6254 116.864 39.9622 117.506C40.2541 117.463 40.5474 117.429 40.8407 117.382C40.473 116.795 40.2508 116.107 40.2508 115.364C40.2508 115.313 40.264 115.266 40.266 115.216Z" fill="black"/>
<path d="M44.0683 111.546C45.6725 111.546 47.0401 112.538 47.6049 113.94C47.8969 113.952 48.1941 113.965 48.492 113.977C47.9008 112.097 46.1411 110.729 44.0683 110.729C42.1543 110.729 40.508 111.894 39.8008 113.553C40.0928 113.569 40.392 113.586 40.6998 113.603C41.3384 112.385 42.5986 111.546 44.0683 111.546Z" fill="black"/>
<path d="M39.5455 114.359C39.4882 114.622 39.4552 114.893 39.4434 115.17C39.709 115.185 39.9878 115.2 40.2659 115.216C40.2764 114.937 40.3193 114.667 40.3878 114.406C40.1018 114.39 39.8184 114.375 39.5462 114.359H39.5455Z" fill="black"/>
<path d="M47.8881 115.363C47.8881 115.44 47.8703 115.511 47.8657 115.586C48.1399 115.597 48.4127 115.61 48.6928 115.622C48.6981 115.535 48.706 115.45 48.706 115.363C48.706 115.174 48.6915 114.988 48.6698 114.804C48.3877 114.793 48.1043 114.781 47.8281 114.77C47.8591 114.964 47.8888 115.159 47.8888 115.363H47.8881Z" fill="black"/>
<path d="M47.8269 114.769C48.1031 114.78 48.3865 114.792 48.6686 114.804C48.6336 114.519 48.5763 114.241 48.4926 113.975C48.194 113.963 47.8974 113.95 47.6055 113.938C47.7122 114.2 47.7814 114.48 47.8269 114.769V114.769Z" fill="black"/>
<path d="M40.7009 113.602C40.3938 113.586 40.0946 113.569 39.802 113.553C39.6919 113.81 39.6075 114.081 39.5449 114.36C39.8178 114.375 40.1012 114.391 40.3866 114.406C40.4604 114.123 40.5672 113.856 40.7003 113.602H40.7009Z" fill="black"/>
<path d="M47.5748 116.871C47.4186 117.235 47.1965 117.562 46.9395 117.857C47.3428 117.763 47.7448 117.665 48.1482 117.566C48.3084 117.27 48.4329 116.955 48.5265 116.625C48.2095 116.706 47.8925 116.794 47.5741 116.872L47.5748 116.871Z" fill="black"/>
<path d="M41.4416 118.123C41.1167 118.177 40.7904 118.223 40.4648 118.273C40.679 118.537 40.9216 118.777 41.1865 118.988C41.5859 118.925 41.986 118.845 42.3854 118.776C42.0394 118.604 41.7191 118.387 41.4416 118.124V118.123Z" fill="black"/>
<path d="M47.8266 115.96C47.7772 116.277 47.6988 116.586 47.5742 116.873C47.8919 116.795 48.2089 116.706 48.5266 116.625C48.6077 116.339 48.6617 116.042 48.6867 115.736C48.4 115.811 48.114 115.888 47.8273 115.959L47.8266 115.96Z" fill="black"/>
<path d="M40.8395 117.383C40.5462 117.43 40.2536 117.465 39.9609 117.507C40.104 117.78 40.272 118.036 40.4638 118.274C40.7894 118.224 41.1156 118.178 41.4406 118.124C41.2099 117.903 41.0095 117.655 40.8395 117.383V117.383Z" fill="black"/>
<path d="M44.0687 119.182C45.2195 119.182 46.239 118.663 46.939 117.857C45.4218 118.209 43.9046 118.511 42.3848 118.776C42.8942 119.028 43.461 119.182 44.0687 119.182Z" fill="black"/>
<path d="M47.0495 115.551C47.035 115.768 46.9987 115.978 46.9414 116.18C47.236 116.11 47.5313 116.032 47.8259 115.958C47.8457 115.837 47.8562 115.711 47.8641 115.586C47.5906 115.575 47.3171 115.563 47.0495 115.551Z" fill="black"/>
<path d="M41.0686 115.364C41.0686 115.329 41.0771 115.296 41.0785 115.26C40.8023 115.246 40.5301 115.231 40.2652 115.217C40.2632 115.266 40.25 115.314 40.25 115.364C40.25 116.108 40.4721 116.796 40.8399 117.383C41.1391 117.336 41.4383 117.28 41.7375 117.23C41.3256 116.716 41.0686 116.072 41.0686 115.364Z" fill="black"/>
<path d="M44.0697 112.363C45.1888 112.363 46.155 112.987 46.6711 113.897C46.9789 113.912 47.2913 113.925 47.6063 113.939C47.0415 112.537 45.6739 111.545 44.0697 111.545C42.6 111.545 41.3398 112.385 40.7012 113.602C40.9971 113.618 41.3042 113.634 41.6133 113.65C42.1558 112.875 43.0528 112.363 44.0697 112.363Z" fill="black"/>
<path d="M40.3876 114.405C40.319 114.666 40.2768 114.936 40.2656 115.216C40.5312 115.23 40.8028 115.245 41.0789 115.259C41.0895 114.977 41.1429 114.707 41.2252 114.45C40.9412 114.435 40.6598 114.419 40.3869 114.404L40.3876 114.405Z" fill="black"/>
<path d="M47.8271 114.769C47.547 114.756 47.2748 114.744 47 114.732C47.0435 114.936 47.0692 115.146 47.0692 115.363C47.0692 115.427 47.054 115.488 47.0508 115.55C47.3177 115.563 47.5912 115.574 47.8654 115.586C47.87 115.51 47.8878 115.44 47.8878 115.363C47.8878 115.159 47.8581 114.964 47.8271 114.769V114.769Z" fill="black"/>
<path d="M47.6052 113.938C47.2901 113.924 46.9784 113.91 46.6699 113.896C46.8162 114.156 46.9349 114.433 46.9995 114.733C47.2736 114.745 47.5465 114.757 47.8266 114.769C47.7811 114.48 47.7119 114.201 47.6052 113.938Z" fill="black"/>
<path d="M40.7004 113.602C40.5673 113.855 40.4605 114.122 40.3867 114.406C40.6596 114.421 40.941 114.436 41.2251 114.451C41.3187 114.164 41.4426 113.893 41.6126 113.65C41.3035 113.635 40.9964 113.618 40.7004 113.602V113.602Z" fill="black"/>
<path d="M44.0691 118.363C43.505 118.363 42.983 118.197 42.5322 117.926C42.169 117.99 41.8059 118.063 41.4414 118.123C41.7195 118.386 42.0392 118.602 42.3852 118.775C43.905 118.51 45.4222 118.208 46.9394 117.856C47.1965 117.562 47.4179 117.236 47.5748 116.871C47.2129 116.96 46.8511 117.038 46.4886 117.122C45.9422 117.87 45.065 118.363 44.0691 118.363Z" fill="black"/>
<path d="M46.9424 116.181C46.8448 116.524 46.6926 116.842 46.4883 117.122C46.8508 117.039 47.2133 116.961 47.5744 116.872C47.699 116.585 47.7768 116.277 47.8269 115.959C47.5323 116.033 47.237 116.111 46.9424 116.181Z" fill="black"/>
<path d="M41.7375 117.229C41.4383 117.279 41.1391 117.335 40.8398 117.382C41.0105 117.654 41.2102 117.903 41.4409 118.123C41.8047 118.064 42.1679 117.99 42.5317 117.926C42.2259 117.742 41.9603 117.506 41.7375 117.229Z" fill="black"/>
<path d="M27.5531 108.393C28.0769 106.821 27.2272 105.122 25.6553 104.598C24.0834 104.074 22.3844 104.924 21.8606 106.496C21.3368 108.067 22.1864 109.766 23.7584 110.29C25.3303 110.814 27.0292 109.964 27.5531 108.393Z" fill="#AEAEAE"/>
<path d="M23.0682 101.182C20.5117 101.182 18.4316 103.262 18.4316 105.818C18.4316 108.375 20.5117 110.454 23.0682 110.454C25.6248 110.454 27.7042 108.374 27.7042 105.818C27.7042 103.262 25.6241 101.182 23.0682 101.182ZM23.0682 109.636C20.9592 109.636 19.2496 107.927 19.2496 105.818C19.2496 103.71 20.9592 102 23.0682 102C25.1773 102 26.8863 103.709 26.8863 105.818C26.8863 107.927 25.1766 109.636 23.0682 109.636Z" fill="black"/>
<path d="M23.0687 102C20.9596 102 19.25 103.71 19.25 105.819C19.25 107.928 20.9596 109.637 23.0687 109.637C25.1777 109.637 26.8867 107.927 26.8867 105.819C26.8867 103.71 25.1771 102 23.0687 102ZM23.0687 108.819C21.4144 108.819 20.0686 107.474 20.0686 105.819C20.0686 104.164 21.4144 102.819 23.0687 102.819C24.723 102.819 26.0688 104.164 26.0688 105.819C26.0688 107.473 24.7236 108.819 23.0687 108.819Z" fill="black"/>
<path d="M12.9424 109.145C12.6234 109.464 12.6234 109.979 12.9424 110.299C13.0979 110.462 13.3108 110.544 13.523 110.544C13.7352 110.544 13.9402 110.462 14.0958 110.299C14.4147 109.979 14.4147 109.464 14.0958 109.145C13.7768 108.827 13.2607 108.827 12.9417 109.145H12.9424Z" fill="black"/>
<path d="M42.1545 104.811C42.3668 104.811 42.5717 104.737 42.7352 104.574C43.0542 104.254 43.0542 103.739 42.7352 103.421C42.4162 103.102 41.8922 103.102 41.5732 103.421C41.2542 103.74 41.2542 104.254 41.5732 104.574C41.7367 104.737 41.941 104.811 42.1539 104.811H42.1545Z" fill="black"/>
<path d="M34.523 110.536C34.7273 110.536 34.9402 110.462 35.0958 110.299C35.4147 109.979 35.4147 109.464 35.0958 109.145C34.7768 108.827 34.2607 108.827 33.9424 109.145C33.6234 109.464 33.6234 109.979 33.9424 110.299C34.0979 110.462 34.3101 110.536 34.523 110.536Z" fill="black"/>
<path d="M32.6089 100.999C32.8212 100.999 33.0255 100.917 33.1896 100.754C33.5086 100.435 33.5086 99.9202 33.1896 99.6006C32.8699 99.2816 32.3466 99.2816 32.0362 99.6006C31.7093 99.9202 31.7093 100.436 32.0362 100.754C32.1917 100.917 32.4046 100.999 32.6089 100.999Z" fill="black"/>
<path d="M14.8486 97.6846C14.5296 98.0042 14.5296 98.5275 14.8486 98.8465C15.0127 99.0021 15.217 99.0838 15.4306 99.0838C15.6441 99.0838 15.8471 99.0021 16.0112 98.8465C16.3289 98.5275 16.3289 98.0049 16.0112 97.6846C15.6916 97.3656 15.1683 97.3656 14.8486 97.6846Z" fill="black"/>
<path d="M28.7885 91.451C29.0014 91.451 29.2143 91.3692 29.3692 91.2058C29.6882 90.8868 29.6882 90.3721 29.3692 90.0517C29.0502 89.7328 28.5341 89.7328 28.2158 90.0517C27.8968 90.3714 27.8968 90.8868 28.2158 91.2058C28.3713 91.3692 28.5842 91.451 28.7885 91.451Z" fill="black"/>
<path d="M102.161 54.003C102.161 50.3082 101.378 46.7953 99.9785 43.6113V64.3946C101.378 61.212 102.161 57.6971 102.161 54.003Z" fill="white"/>
<path d="M50.3418 54.0023C50.3418 57.6971 51.1248 61.21 52.524 64.3933V43.6113C51.1254 46.794 50.3418 50.3075 50.3418 54.0023Z" fill="white"/>
<path d="M76.2498 79.9122C76.8805 79.9122 77.5047 79.8812 78.1248 79.8371C78.1242 79.8344 78.1222 79.8318 78.1222 79.8291L75.9578 64.5333C74.3793 65.5094 72.1167 66.471 69.3064 66.471C68.5557 66.471 67.7675 66.4024 66.9423 66.2469C63.1085 65.5259 56.7326 58.9588 56.463 58.68C56.2798 58.4909 56.1994 58.2246 56.2475 57.9663C56.2936 57.7072 56.4623 57.4865 56.7003 57.3738C56.9718 57.2439 62.0955 54.831 66.129 54.1713C65.7072 53.159 65.408 52.0524 65.294 50.8384C64.8616 46.2149 72.383 37.2363 73.2418 36.2273C73.5331 35.8852 74.0445 35.8411 74.3892 36.1297C75.3811 36.9582 83.7711 44.0828 84.8323 48.7346C88.4361 47.5641 92.61 47.0269 92.8703 46.994C93.128 46.961 93.3792 47.0506 93.5578 47.2339C93.7364 47.4171 93.8194 47.6735 93.7825 47.9266C93.7232 48.3207 92.3055 57.6183 89.4754 60.3963C86.5024 63.3173 82.9987 63.9467 80.5305 63.9467C79.5906 63.9467 78.8024 63.8564 78.2487 63.7648C77.9634 63.718 77.7169 63.5902 77.4948 63.4294C77.4816 63.4412 77.4684 63.4518 77.4546 63.463L79.7416 79.5998C79.7449 79.6248 79.7363 79.6472 79.7369 79.671C87.601 78.6079 94.3572 74.0082 98.34 67.5255V40.481C95.4493 35.7758 91.0968 32.0632 85.9197 29.9727C85.8327 29.9806 85.7484 29.999 85.6587 29.999H66.8395C66.7499 29.999 66.6655 29.9806 66.5785 29.9727C61.4014 32.0632 57.0489 35.7758 54.1582 40.4816V67.5242C58.7197 74.9487 66.914 79.9122 76.2491 79.9122H76.2498Z" fill="white"/>
<path d="M99.9781 64.3951V43.6118C99.725 43.0364 99.4521 42.4722 99.1602 41.9199V66.0869C99.4521 65.5346 99.725 64.9705 99.9781 64.3951Z" fill="white"/>
<path d="M52.5234 43.6118V64.3938C52.7765 64.9691 53.0494 65.5333 53.3414 66.0863V41.9199C53.0494 42.4722 52.7765 43.0364 52.5234 43.6118Z" fill="white"/>
<path d="M54.1604 40.4824C53.8717 40.9523 53.6008 41.4328 53.3418 41.9212V66.0875C53.6008 66.5753 53.8724 67.0557 54.1604 67.5256V40.4831V40.4824Z" fill="white"/>
<path d="M99.1604 66.0862V41.9192C98.9014 41.4309 98.6305 40.9504 98.3418 40.4805V67.525C98.6305 67.0551 98.9014 66.5746 99.1604 66.0862Z" fill="white"/>
<path d="M101.343 52.3669C101.343 56.8031 100.254 60.983 98.3418 64.6666V66.3354C100.765 62.2366 102.16 57.4629 102.16 52.3676C102.16 47.2722 100.765 42.4972 98.3418 38.3984V40.0679C100.255 43.7501 101.343 47.93 101.343 52.3669Z" fill="black"/>
<path d="M50.8864 66.3347V64.6659C48.9737 60.983 47.8863 56.8025 47.8863 52.3662C47.8863 47.93 48.9731 43.7488 50.8864 40.0672V38.3984C48.4643 42.4972 47.0684 47.2709 47.0684 52.3662C47.0684 57.4616 48.4643 62.2359 50.8864 66.334V66.3347Z" fill="black"/>
<path d="M63.7468 27.9511C63.4865 27.7949 63.2558 27.6004 63.0574 27.373C58.8743 29.3153 55.2546 32.272 52.5234 35.9325V37.3231C55.3067 33.2448 59.1907 29.981 63.7462 27.9511H63.7468Z" fill="black"/>
<path d="M86.1718 27.373C85.9741 27.6004 85.7428 27.7949 85.4824 27.9511C90.0373 29.981 93.9219 33.2448 96.7045 37.3231V35.9318C93.9746 32.272 90.3543 29.3153 86.1718 27.373Z" fill="black"/>
<path d="M74.615 79.0949C65.4341 79.0949 57.336 74.4636 52.5234 67.4121V68.8021C57.5502 75.5412 65.5811 79.9128 74.615 79.9128C83.649 79.9128 91.6798 75.5405 96.7059 68.8028V67.4121C91.894 74.4636 83.7966 79.0949 74.615 79.0949Z" fill="black"/>
<path d="M51.7046 66.1364C51.416 65.6566 51.1464 65.1636 50.8867 64.666V66.3348C51.1484 66.777 51.4199 67.214 51.7046 67.6404V66.1371V66.1364Z" fill="black"/>
<path d="M51.7046 38.5965V37.0918C51.4199 37.5189 51.1484 37.9552 50.8867 38.3981V40.0669C51.1457 39.5679 51.416 39.0756 51.7046 38.5965Z" fill="black"/>
<path d="M97.5234 38.5965C97.8128 39.0763 98.083 39.5679 98.3414 40.0669V38.3974C98.0804 37.9552 97.8095 37.5182 97.5234 37.0918V38.5965Z" fill="black"/>
<path d="M97.5234 66.1364V67.6411C97.8095 67.2147 98.0804 66.7777 98.3414 66.3348V64.666C98.083 65.1643 97.8128 65.6573 97.5234 66.1364Z" fill="black"/>
<path d="M96.7051 37.3236C96.9891 37.7401 97.2627 38.1646 97.523 38.5983V37.0936C97.26 36.6995 96.9885 36.3113 96.7051 35.9316V37.323V37.3236Z" fill="black"/>
<path d="M52.523 67.4114C52.2389 66.9948 51.9661 66.5697 51.7051 66.1367V67.6401C51.9687 68.0342 52.2409 68.4217 52.523 68.8007V67.4107V67.4114Z" fill="black"/>
<path d="M96.7051 68.802C96.9885 68.4231 97.26 68.0349 97.523 67.6414V66.1367C97.2627 66.5691 96.9891 66.9948 96.7051 67.4114V68.802Z" fill="black"/>
<path d="M52.523 35.9316C52.2409 36.3113 51.9687 36.6988 51.7051 37.0923V38.5969C51.9661 38.1633 52.2389 37.7388 52.523 37.3223V35.9316Z" fill="black"/>
<path d="M100.525 52.3661C100.525 56.0609 99.7423 59.5737 98.3418 62.7577V64.6651C100.255 60.9822 101.343 56.8017 101.343 52.3654C101.343 47.9292 100.254 43.748 98.3418 40.0664V41.9738C99.7423 45.1565 100.525 48.6706 100.525 52.3654V52.3661Z" fill="black"/>
<path d="M48.7046 52.3661C48.7046 48.6713 49.487 45.1584 50.8868 41.9751V40.0664C48.9742 43.7487 47.8867 47.9285 47.8867 52.3654C47.8867 56.8023 48.9735 60.9815 50.8868 64.6651V62.7564C49.487 59.5737 48.7046 56.0602 48.7046 52.3654V52.3661Z" fill="black"/>
<path d="M85.4834 27.9512C85.1255 28.1641 84.7208 28.2978 84.2852 28.3374C89.4609 30.428 93.8147 34.1392 96.7054 38.8457V37.3232C93.9228 33.2449 90.0382 29.9811 85.4834 27.9512Z" fill="black"/>
<path d="M64.9444 28.3374C64.5094 28.2972 64.1034 28.1641 63.7462 27.9512C59.19 29.9811 55.3067 33.2449 52.5234 37.3232V38.8464C55.4148 34.1399 59.7673 30.428 64.9444 28.3374Z" fill="black"/>
<path d="M78.1028 78.0354C78.1239 78.454 77.8339 78.8283 77.4108 78.8889C77.3726 78.8942 77.3337 78.8969 77.2961 78.8969C76.8974 78.8969 76.5501 78.6056 76.4888 78.2015C75.8686 78.2457 75.2457 78.276 74.615 78.276C65.2805 78.276 57.0849 73.3132 52.5234 65.8887V67.4118C57.336 74.4633 65.4334 79.0946 74.615 79.0946C83.7966 79.0946 91.894 74.4633 96.7059 67.4118V65.8887C92.7231 72.3727 85.9669 76.971 78.1028 78.0354Z" fill="black"/>
<path d="M97.5234 64.451V66.1375C97.8128 65.6577 98.083 65.1647 98.3414 64.6671V62.7598C98.0889 63.3351 97.8167 63.8993 97.5234 64.4516V64.451Z" fill="black"/>
<path d="M51.7046 64.4497C51.4127 63.8974 51.1398 63.3332 50.8867 62.7578V64.6665C51.1457 65.1648 51.416 65.6577 51.7046 66.1369V64.4497Z" fill="black"/>
<path d="M98.3414 41.9754V40.0681C98.083 39.5691 97.8128 39.0768 97.5234 38.5977V40.2836C97.8167 40.8365 98.0889 41.4007 98.3414 41.9761V41.9754Z" fill="black"/>
<path d="M51.7046 40.2842V38.5977C51.416 39.0775 51.1464 39.5691 50.8867 40.0681V41.9767C51.1398 41.4014 51.4127 40.8365 51.7046 40.2842Z" fill="black"/>
<path d="M96.7051 65.8893V67.4124C96.9891 66.9959 97.2627 66.5708 97.523 66.1377V64.4512C97.2646 64.9395 96.9938 65.42 96.7051 65.8893Z" fill="black"/>
<path d="M52.523 38.8454V37.3223C52.2389 37.7388 51.9661 38.1632 51.7051 38.5969V40.2835C51.9634 39.7951 52.2356 39.3147 52.523 38.846V38.8454Z" fill="black"/>
<path d="M96.7051 38.8447C96.9938 39.3147 97.2646 39.7951 97.523 40.2828V38.5969C97.2627 38.1632 96.9891 37.7388 96.7051 37.3223V38.8447Z" fill="black"/>
<path d="M52.523 65.888C52.235 65.4181 51.9634 64.9376 51.7051 64.4492V66.1365C51.9661 66.5688 52.2389 66.9946 52.523 67.4111V65.888Z" fill="black"/>
<path d="M85.6593 20.4531H66.84C66.5507 20.4531 66.2877 20.5579 66.0781 20.726H86.4212C86.2116 20.5579 85.9486 20.4531 85.6593 20.4531Z" fill="#F98044"/>
<path d="M66.4101 28.2818C69.4689 27.1086 72.784 26.4581 76.2501 26.4581C79.7162 26.4581 83.032 27.108 86.0901 28.2818C86.5548 28.1065 86.8869 27.6616 86.8869 27.137V22.3633H65.6133V27.137C65.6133 27.6616 65.9461 28.1065 66.4101 28.2818Z" fill="#F98044"/>
<path d="M86.4221 20.7266H66.0791C65.8313 20.9243 65.6645 21.2143 65.627 21.5445H86.8742C86.8367 21.2143 86.6699 20.9243 86.4221 20.7266Z" fill="#F98044"/>
<path d="M86.8869 21.6801C86.8869 21.6333 86.8784 21.5884 86.8738 21.543H65.6265C65.6219 21.5884 65.6133 21.6326 65.6133 21.6801V22.3615H86.8869V21.6801Z" fill="#F98044"/>
<path d="M72.541 28.364H79.9602C78.7482 28.1893 77.5098 28.0938 76.2503 28.0938C74.9908 28.0938 73.7531 28.1887 72.541 28.364Z" fill="#F98044"/>
<path d="M68.7037 28.3631C71.0982 27.6592 73.6284 27.2749 76.2502 27.2749C78.872 27.2749 81.4028 27.6585 83.7966 28.3631H85.6598C85.8114 28.3631 85.9564 28.3308 86.0902 28.2807C83.0314 27.1075 79.7162 26.457 76.2502 26.457C72.7841 26.457 69.4683 27.1069 66.4102 28.2807C66.5453 28.3314 66.6889 28.3631 66.8412 28.3631H68.7044H68.7037Z" fill="#F98044"/>
<path d="M76.2515 28.0933C77.511 28.0933 78.7487 28.1882 79.9614 28.3635H83.7979C81.4042 27.6596 78.8733 27.2754 76.2515 27.2754C73.6297 27.2754 71.0995 27.659 68.7051 28.3635H72.5416C73.7536 28.1889 74.992 28.0933 76.2508 28.0933H76.2515Z" fill="#F98044"/>
<path d="M65.2046 17.9989H84.0239C84.8062 17.9989 85.4785 18.4438 85.8225 19.0903H86.7116C86.3162 17.9818 85.2669 17.1816 84.0239 17.1816H65.204C63.9616 17.1816 62.9124 17.9818 62.5176 19.0903H63.4067C63.7507 18.4438 64.4216 17.9989 65.2053 17.9989H65.2046Z" fill="black"/>
<path d="M63.0569 27.372C63.3179 27.2514 63.5782 27.1288 63.8438 27.0161C63.4273 26.6411 63.1597 26.104 63.1597 25.5003V20.7266H62.3418V25.5003C62.3418 26.2186 62.6173 26.8698 63.0569 27.3727V27.372Z" fill="black"/>
<path d="M85.3848 27.0168C85.6497 27.1295 85.9107 27.2521 86.1717 27.3727C86.6113 26.8692 86.8868 26.2193 86.8868 25.5003V20.7266H86.0689V25.5003C86.0689 26.104 85.802 26.6418 85.3848 27.0161V27.0168Z" fill="black"/>
<path d="M86.0549 19.9078H86.8735C86.859 19.6217 86.8036 19.3482 86.7114 19.0898H85.8223C85.9534 19.3377 86.0351 19.6132 86.0549 19.9078Z" fill="black"/>
<path d="M63.174 19.9078C63.1945 19.6132 63.2755 19.3377 63.4074 19.0898H62.5183C62.426 19.3482 62.37 19.6217 62.3555 19.9078H63.1734H63.174Z" fill="black"/>
<path d="M62.3418 20.7261H63.1597V20.044C63.1597 19.9978 63.1703 19.9543 63.1729 19.9082H62.355C62.353 19.9543 62.3418 19.9978 62.3418 20.044V20.7261Z" fill="black"/>
<path d="M86.0685 20.7261H86.8864V20.044C86.8864 19.9978 86.8746 19.9543 86.8733 19.9082H86.0547C86.058 19.9543 86.0692 19.9978 86.0692 20.044V20.7261H86.0685Z" fill="black"/>
<path d="M67.1954 27.5449C66.4289 27.7743 65.6782 28.0392 64.9434 28.3358C65.0304 28.3437 65.1147 28.3622 65.2037 28.3622H84.0236C84.1132 28.3622 84.1976 28.3437 84.2846 28.3358C83.5491 28.0392 82.7984 27.7736 82.0325 27.5449H67.1961H67.1954Z" fill="black"/>
<path d="M63.8436 27.0156C63.578 27.1283 63.3176 27.2509 63.0566 27.3715C63.255 27.5989 63.4857 27.7933 63.746 27.9495C64.096 27.7933 64.4493 27.645 64.8065 27.504C64.4387 27.4322 64.1118 27.2562 63.8436 27.0156Z" fill="black"/>
<path d="M85.4823 27.9515C85.7427 27.7953 85.9733 27.6009 86.1717 27.3735C85.9107 27.2529 85.6497 27.1303 85.3848 27.0176C85.1165 27.2581 84.789 27.4341 84.4219 27.506C84.7791 27.647 85.1324 27.7953 85.4823 27.9515Z" fill="black"/>
<path d="M84.423 27.5039C84.2932 27.5296 84.1614 27.5448 84.0243 27.5448H82.0332C82.7997 27.7741 83.5504 28.0391 84.2853 28.3357C84.7203 28.2955 85.1256 28.1623 85.4835 27.9494C85.1335 27.7932 84.7802 27.6449 84.423 27.5039Z" fill="black"/>
<path d="M65.2053 27.5448C65.0682 27.5448 64.9351 27.5296 64.8065 27.5039C64.4493 27.6449 64.0961 27.7932 63.7461 27.9494C64.1033 28.1623 64.5093 28.2961 64.9443 28.3357C65.6798 28.0391 66.4298 27.7735 67.1964 27.5448H65.2053Z" fill="black"/>
<path d="M65.2029 18.8186H84.0228C84.3122 18.8186 84.5751 18.9234 84.7847 19.0914H85.8208C85.4774 18.4449 84.8045 18 84.0222 18H65.2029C64.4199 18 63.7483 18.4449 63.4043 19.0914H64.441C64.6506 18.9234 64.9136 18.8186 65.2023 18.8186H65.2029Z" fill="black"/>
<path d="M84.4551 26.6451C84.7668 26.765 85.0786 26.8856 85.3857 27.0161C85.8022 26.6411 86.0698 26.104 86.0698 25.5003V20.7266H85.2519V25.5003C85.2519 26.0249 84.9191 26.4698 84.4551 26.6451Z" fill="black"/>
<path d="M63.8443 27.0161C64.1507 26.8856 64.4631 26.765 64.7749 26.6451C64.3102 26.4698 63.9781 26.0249 63.9781 25.5003V20.7266H63.1602V25.5003C63.1602 26.104 63.4277 26.6418 63.8443 27.0161Z" fill="black"/>
<path d="M85.2379 19.9078H86.0558C86.0361 19.6132 85.9543 19.3377 85.8232 19.0898H84.7871C85.0349 19.2876 85.201 19.5762 85.2386 19.9078H85.2379Z" fill="black"/>
<path d="M64.4439 19.0898H63.4071C63.2747 19.3377 63.1943 19.6132 63.1738 19.9078H63.9917C64.0293 19.5769 64.1961 19.2876 64.4439 19.0898Z" fill="black"/>
<path d="M85.2508 20.044V20.7261H86.0687V20.044C86.0687 19.9978 86.0582 19.9543 86.0542 19.9082H85.2363C85.2416 19.9537 85.2508 19.9978 85.2508 20.044Z" fill="black"/>
<path d="M63.1602 20.7261H63.9781V20.044C63.9781 19.9978 63.9866 19.9537 63.9912 19.9082H63.1733C63.1707 19.9543 63.1602 19.9978 63.1602 20.044V20.7261Z" fill="black"/>
<path d="M70.9039 26.7266C69.6359 26.9098 68.3975 27.1846 67.1953 27.5451H82.0318C80.829 27.1846 79.5912 26.9091 78.3232 26.7266H70.9039Z" fill="black"/>
<path d="M82.1602 26.7263C82.9293 26.9523 83.6833 27.2127 84.4221 27.504C84.7892 27.4321 85.1168 27.2562 85.385 27.0156C85.0779 26.8851 84.7661 26.7645 84.4544 26.6445C84.3193 26.6953 84.1756 26.7263 84.024 26.7263H82.1608H82.1602Z" fill="black"/>
<path d="M67.0686 26.7263H65.2041C65.0525 26.7263 64.9082 26.6953 64.7744 26.6445C64.4626 26.7645 64.1502 26.8851 63.8438 27.0156C64.112 27.2562 64.4389 27.4321 64.8067 27.504C65.5455 27.2127 66.2995 26.9523 67.0686 26.7263Z" fill="black"/>
<path d="M67.0686 26.7266C66.2994 26.9526 65.5455 27.213 64.8066 27.5043C64.9358 27.53 65.069 27.5451 65.2054 27.5451H67.1965C68.3993 27.1846 69.637 26.9091 70.9051 26.7266H67.0686Z" fill="black"/>
<path d="M78.3242 26.7266C79.5923 26.9098 80.8307 27.1846 82.0328 27.5451H84.0239C84.161 27.5451 84.2928 27.53 84.4227 27.5043C83.6838 27.213 82.9298 26.9526 82.1607 26.7266H78.3242Z" fill="black"/>
<path d="M64.25 105.822C64.25 106.274 64.6158 106.64 65.0679 106.64H116.614C117.066 106.64 117.432 106.274 117.432 105.822C117.432 105.37 117.066 105.004 116.614 105.004H65.0679C64.6158 105.004 64.25 105.371 64.25 105.822Z" fill="black"/>
<path d="M110.887 9.54883H45.9781C45.5266 9.54883 45.1602 9.91461 45.1602 10.3667C45.1602 10.8189 45.5273 11.1847 45.9781 11.1847H110.887C111.088 11.1847 111.265 11.1036 111.408 10.985C111.416 10.9263 111.426 10.8676 111.448 10.8129L111.678 10.2257C111.609 9.84409 111.29 9.54883 110.888 9.54883H110.887Z" fill="black"/>
<path d="M111.406 10.9858C111.585 10.8355 111.705 10.6194 111.705 10.3676C111.705 10.3169 111.684 10.2747 111.676 10.2266L111.446 10.8138C111.425 10.8692 111.415 10.9272 111.406 10.9858Z" fill="black"/>
<path d="M65.0679 95.1853H84.1594C84.6115 95.1853 84.9773 94.8182 84.9773 94.3674C84.9773 93.9166 84.6115 93.5488 84.1594 93.5488H65.0679C64.6158 93.5488 64.25 93.9159 64.25 94.3674C64.25 94.8189 64.6158 95.1853 65.0679 95.1853Z" fill="black"/>
<path d="M78.4291 61.6043C78.4521 61.7724 78.4521 61.9411 78.4258 62.1052C78.4488 62.1283 78.4778 62.1454 78.5148 62.1507C80.2765 62.44 84.7588 62.7366 88.3317 59.2297C90.1132 57.4792 91.4346 51.8309 91.9843 48.7734C90.1211 49.0647 87.2989 49.6217 84.9763 50.4086C84.9645 55.9534 80.8868 59.7952 78.4291 61.605V61.6043Z" fill="#8ECB51"/>
<path d="M83.3096 47.9148C86.9345 46.7232 91.3371 46.1689 91.3371 46.1689C91.3371 46.1689 89.9333 55.5588 87.2673 58.1767C83.3999 61.9749 78.5286 61.6144 76.7452 61.3218C76.643 61.3046 76.5488 61.271 76.4598 61.2269C76.3965 61.3086 76.3273 61.387 76.2476 61.4589C76.1355 61.5603 76.0024 61.6744 75.8594 61.7937C76.0815 61.9538 76.328 62.0823 76.6127 62.1291C77.167 62.2207 77.9552 62.311 78.8944 62.311C81.3633 62.311 84.867 61.6803 87.8401 58.7606C90.6695 55.9826 92.0878 46.685 92.1471 46.2909C92.1847 46.0378 92.101 45.7814 91.9224 45.5982C91.7438 45.415 91.4927 45.3253 91.235 45.3583C90.974 45.3912 86.8007 45.9284 83.1969 47.0989C83.241 47.2953 83.2779 47.4897 83.2957 47.6762C83.303 47.7573 83.3036 47.8351 83.3102 47.9155L83.3096 47.9148Z" fill="black"/>
<path d="M83.3397 48.772C85.6623 47.985 88.4845 47.4281 90.3477 47.1368C89.798 50.1943 88.4766 55.8425 86.6938 57.5931C83.1216 61.1 78.6385 60.8034 76.8775 60.5141C76.8412 60.5082 76.8116 60.491 76.7885 60.4686C76.745 60.7401 76.6343 60.9998 76.459 61.2259C76.548 61.27 76.6422 61.3043 76.7444 61.3208C78.5278 61.6141 83.3991 61.9746 87.2665 58.1757C89.9325 55.5578 91.3363 46.168 91.3363 46.168C91.3363 46.168 86.9343 46.7223 83.3088 47.9139C83.3299 48.2045 83.3397 48.4892 83.3391 48.7707L83.3397 48.772Z" fill="black"/>
<path d="M66.8971 55.6992C64.2799 56.0195 60.6378 57.4174 58.4648 58.3678C60.6517 60.4986 64.8414 64.1868 67.2457 64.6376C71.0763 65.3586 74.0177 63.9304 75.705 62.7401V62.7335C74.4982 62.263 69.5314 60.1117 66.8977 55.6992H66.8971Z" fill="#8ECB51"/>
<path d="M75.8185 61.8277C75.833 61.8165 75.8462 61.8046 75.8593 61.7941C75.8429 61.7816 75.8257 61.769 75.8086 61.7559L75.8185 61.8277Z" fill="black"/>
<path d="M65.4578 63.806C61.8362 63.1245 55.4161 56.4758 55.4161 56.4758C55.4161 56.4758 60.8667 53.8817 64.8409 53.2944C64.7177 53.0486 64.6017 52.7942 64.4936 52.5352C60.46 53.1949 55.3364 55.6078 55.0648 55.7369C54.8269 55.8503 54.6582 56.0711 54.6107 56.3301C54.5639 56.5885 54.6443 56.8541 54.8276 57.0439C55.0978 57.3227 61.473 63.8897 65.3075 64.6108C66.1327 64.765 66.9209 64.8348 67.6716 64.8348C70.4813 64.8348 72.7445 63.8732 74.323 62.8958L74.1971 62.0054C72.3577 63.2122 69.3266 64.535 65.4591 63.8067L65.4578 63.806Z" fill="black"/>
<path d="M76.7935 59.9688C76.7612 59.9918 76.7302 60.0142 76.6992 60.0373C76.7117 60.1546 76.7249 60.2673 76.7394 60.3675C76.7447 60.4103 76.7638 60.4439 76.7902 60.4696C76.8159 60.3055 76.8165 60.1368 76.7935 59.9688Z" fill="black"/>
<path d="M76.4606 61.2269C76.2003 61.0958 76.0178 60.8519 75.9525 60.5566C75.9321 60.5711 75.9143 60.5817 75.8938 60.5949C75.8457 60.6891 75.7831 60.7768 75.7001 60.8526C75.6948 60.8572 75.6889 60.8625 75.6836 60.8671L75.8095 61.7562C75.826 61.7693 75.8431 61.7819 75.8602 61.7944C76.0032 61.6751 76.1364 61.5611 76.2484 61.4596C76.3282 61.3877 76.3974 61.3093 76.4606 61.2276V61.2269Z" fill="black"/>
<path d="M76.7381 60.3673C76.7236 60.2671 76.7104 60.1544 76.6979 60.0371C76.425 60.2362 76.172 60.4108 75.9512 60.5565C76.0158 60.8524 76.199 61.0956 76.4593 61.2267C76.6346 61.0007 76.7454 60.741 76.7889 60.4695C76.7625 60.4438 76.7434 60.4101 76.7381 60.3673Z" fill="black"/>
<path d="M65.6093 63.0025C63.205 62.5503 59.0152 58.8621 56.8284 56.7327C59.0007 55.7823 62.6434 54.3844 65.2606 54.0641C65.1123 53.8156 64.9726 53.5586 64.8408 53.2949C60.8666 53.8822 55.416 56.4763 55.416 56.4763C55.416 56.4763 61.8361 63.1257 65.4577 63.8065C69.3252 64.5348 72.3562 63.212 74.1957 62.0053L74.0679 61.105C72.3806 62.2959 69.4392 63.7241 65.6086 63.0025H65.6093Z" fill="black"/>
<path d="M75.6838 60.8659C75.6891 60.8613 75.695 60.8561 75.7003 60.8514C75.7827 60.7763 75.8459 60.688 75.8941 60.5938C75.8143 60.6465 75.7379 60.6959 75.666 60.7414L75.6838 60.8659Z" fill="black"/>
<path d="M69.0183 54.0891C71.3429 54.5267 73.1685 55.5081 74.5809 56.6272C74.229 54.1939 73.9225 51.2682 73.9027 48.3373C73.9001 47.8852 74.2633 47.5168 74.7154 47.5141C75.1932 47.5398 75.5359 47.8747 75.5399 48.3268C75.5649 52.0532 76.0816 55.8462 76.5463 58.5319C76.603 58.5985 76.6597 58.6664 76.7144 58.7336C76.9655 56.3932 77.8592 53.492 80.3821 51.0152C81.0517 50.3574 82.0845 49.7893 83.2722 49.3035C82.8022 46.1597 76.9101 40.4706 73.9673 37.916C71.5004 40.93 66.6371 47.5886 66.9264 50.685C67.0411 51.9062 67.3792 53.0128 67.8623 54.01C68.2749 54.0054 68.6697 54.0225 69.0196 54.0884L69.0183 54.0891Z" fill="#8ECB51"/>
<path d="M78.2793 59.6179C80.3442 57.8997 83.0016 54.9569 83.3008 51.0664C82.558 51.4071 81.9365 51.7795 81.5252 52.1835C79.0774 54.5859 78.3913 57.4667 78.2793 59.6179Z" fill="#8ECB51"/>
<path d="M76.7109 58.7347C76.9943 59.0821 77.2428 59.4176 77.4577 59.7339C77.5539 57.4337 78.2545 54.2471 80.9508 51.5996C81.5024 51.0585 82.3414 50.58 83.3221 50.1602C83.3175 49.9295 83.3228 49.7028 83.301 49.4655C83.2964 49.4148 83.2773 49.3574 83.2687 49.3047C82.0817 49.7904 81.0483 50.3579 80.3787 51.0163C77.8557 53.4931 76.962 56.3944 76.7109 58.7347Z" fill="#8ECB51"/>
<path d="M77.459 59.7319C77.5427 59.8545 77.6191 59.9719 77.6923 60.0872C77.8815 59.9422 78.0759 59.7853 78.2795 59.6166C78.3916 57.4654 79.0777 54.5846 81.5255 52.1822C81.9367 51.7782 82.5583 51.4058 83.301 51.0651C83.3234 50.7685 83.3294 50.4653 83.3234 50.1582C82.3427 50.578 81.5037 51.0572 80.9521 51.5976C78.2558 54.2451 77.5552 57.4318 77.459 59.7319Z" fill="#8ECB51"/>
<path d="M75.2899 60.7617C75.2029 60.3254 75.106 59.8205 75.0045 59.2564C73.7028 57.8209 71.7328 56.3274 68.9219 55.7441C70.8536 58.3607 73.6877 59.9925 75.2899 60.7617Z" fill="#8ECB51"/>
<path d="M76.711 58.7349C76.657 58.6677 76.6003 58.5998 76.543 58.5332C76.5858 58.7784 76.6267 59.0104 76.6675 59.2358C76.6801 59.0717 76.6932 58.9056 76.711 58.7349Z" fill="#8ECB51"/>
<path d="M74.7678 57.8633C74.7039 57.4691 74.6419 57.0539 74.5793 56.6268C73.1669 55.5077 71.3413 54.5264 69.0167 54.0887C68.6667 54.0228 68.2726 54.0064 67.8594 54.0103C67.9971 54.2937 68.1513 54.5626 68.3115 54.8282C68.5046 54.8408 68.6918 54.8605 68.8651 54.8928C71.4408 55.3766 73.3699 56.5801 74.7672 57.8626L74.7678 57.8633Z" fill="#8ECB51"/>
<path d="M76.8756 60.3293C76.9329 60.4157 76.983 60.4954 77.0344 60.5772C77.1655 60.4842 77.3007 60.3887 77.4476 60.2799C77.4476 60.1046 77.4529 59.922 77.4602 59.7335C77.2453 59.4172 76.9968 59.0817 76.7134 58.7344C76.6956 58.9051 76.6824 59.0712 76.6699 59.2353C76.7418 59.6294 76.8123 60.0024 76.8762 60.3293H76.8756Z" fill="#8ECB51"/>
<path d="M77.4473 60.2788C77.5257 60.2201 77.6114 60.1509 77.6931 60.0877C77.6193 59.9723 77.5428 59.855 77.4598 59.7324C77.4525 59.9209 77.4473 60.1035 77.4473 60.2788Z" fill="#8ECB51"/>
<path d="M75.0054 59.2578C74.927 58.8234 74.8486 58.3614 74.7681 57.8645C73.3702 56.5819 71.4411 55.3784 68.8661 54.8947C68.6928 54.8617 68.5056 54.8419 68.3125 54.8301C68.5023 55.1478 68.706 55.4536 68.9228 55.7455C71.7338 56.3288 73.7031 57.8229 75.0054 59.2578Z" fill="#8ECB51"/>
<path d="M76.9389 60.6445C76.9679 60.6241 77.0035 60.597 77.0338 60.5759C76.9824 60.4942 76.9323 60.4145 76.875 60.3281C76.8981 60.4428 76.9178 60.5384 76.9389 60.6445Z" fill="#8ECB51"/>
<path d="M64.4738 49.1263C64.0599 44.7124 72.2298 35.1216 72.2298 35.1216C72.2298 35.1216 81.5116 42.8756 82.4205 47.3639C82.6755 47.2723 82.9339 47.1833 83.1969 47.0983C82.1357 42.4459 73.7457 35.3213 72.7538 34.4935C72.4091 34.2048 71.8977 34.249 71.6064 34.591C70.7476 35.5987 63.2262 44.578 63.6586 49.2014C63.7719 50.4161 64.0718 51.5227 64.4936 52.5357C64.7843 52.4876 65.0657 52.4513 65.3418 52.4236C64.8989 51.4271 64.5872 50.3304 64.4738 49.1263Z" fill="black"/>
<path d="M76.6328 59.0531C76.6374 59.2093 76.6453 59.3556 76.6539 59.498C76.7225 59.6515 76.7712 59.809 76.7936 59.9679C79.25 58.158 83.329 54.315 83.3409 48.7715C83.0595 48.8664 82.7833 48.9646 82.5184 49.0661C82.3622 53.8371 78.9277 57.2782 76.6328 59.0531Z" fill="black"/>
<path d="M82.4812 47.7534C82.4957 47.9037 82.4997 48.05 82.5069 48.1976C82.7686 48.1007 83.0362 48.0065 83.3097 47.9162C83.3031 47.8365 83.3024 47.758 83.2952 47.677C83.2774 47.4904 83.2411 47.296 83.1963 47.0996C82.9333 47.1846 82.675 47.2736 82.4199 47.3652C82.4463 47.4977 82.468 47.6269 82.4806 47.7534H82.4812Z" fill="black"/>
<path d="M76.4844 59.1674C76.5252 59.2419 76.5687 59.3183 76.6043 59.3849C76.6241 59.4225 76.6366 59.4613 76.6531 59.4996C76.6445 59.3572 76.6366 59.2109 76.632 59.0547C76.5826 59.0936 76.5338 59.1311 76.4844 59.1674Z" fill="black"/>
<path d="M82.5184 49.0674C82.7833 48.9653 83.0588 48.8677 83.3409 48.7728C83.3415 48.4914 83.3323 48.206 83.3106 47.916C83.0371 48.0063 82.7695 48.1006 82.5078 48.1974C82.523 48.492 82.5276 48.7827 82.5184 49.0681V49.0674Z" fill="black"/>
<path d="M74.0683 61.0989L74.0419 60.9091C74.0314 60.8689 73.9648 60.5921 73.8633 60.1261C72.2703 59.4288 68.4642 57.4826 66.2016 53.998C65.9083 54.0007 65.5939 54.0238 65.2617 54.0646C67.896 58.4778 72.8622 60.6284 74.0683 61.0989Z" fill="black"/>
<path d="M65.7227 53.1982C65.5869 52.9478 65.4603 52.6894 65.3424 52.4238C65.0662 52.4515 64.7848 52.4878 64.4941 52.5359C64.6022 52.7949 64.7182 53.0493 64.8415 53.2951C65.1453 53.251 65.4393 53.218 65.7227 53.1982Z" fill="black"/>
<path d="M76.6523 59.498C76.6649 59.6918 76.68 59.8717 76.6978 60.0365C76.7288 60.0134 76.7598 59.991 76.7921 59.968C76.7697 59.8091 76.7209 59.6516 76.6523 59.498Z" fill="black"/>
<path d="M75.8926 60.5938C75.913 60.5806 75.9308 60.57 75.9512 60.5555C75.946 60.5318 75.9334 60.5114 75.9301 60.4863C75.9176 60.5219 75.9104 60.5601 75.8926 60.5938Z" fill="black"/>
<path d="M75.8487 59.7066C75.8467 59.6829 75.8454 59.6598 75.8434 59.6348C75.8348 59.6407 75.8276 59.646 75.8184 59.6512C75.8282 59.669 75.8394 59.6888 75.8487 59.7066Z" fill="black"/>
<path d="M76.6525 59.4982C76.636 59.46 76.6235 59.4211 76.6037 59.3835C76.5681 59.3169 76.5246 59.2405 76.4837 59.166C76.2544 59.34 76.0395 59.4956 75.8418 59.634C75.8438 59.659 75.8451 59.6821 75.8471 59.7058C75.8576 59.7243 75.8708 59.7473 75.8807 59.7664C76.0052 60.0017 76.0112 60.2574 75.9295 60.4868C75.9327 60.5119 75.9453 60.5323 75.9505 60.556C76.172 60.4104 76.4251 60.235 76.6973 60.0367C76.6795 59.8725 76.6643 59.692 76.6518 59.4982H76.6525Z" fill="black"/>
<path d="M66.1995 53.9967C66.0315 53.7384 65.87 53.4728 65.721 53.1973C65.4376 53.217 65.1437 53.25 64.8398 53.2942C64.9723 53.5578 65.1114 53.8148 65.2597 54.0633C65.5918 54.0224 65.9062 53.9994 66.1995 53.9967Z" fill="black"/>
<path d="M75.9273 60.4769C75.8976 60.2627 75.8693 60.001 75.8475 59.7058C75.8383 59.688 75.8271 59.6682 75.8172 59.6504C75.6993 59.7328 75.5872 59.8092 75.4824 59.8784C75.58 60.3312 75.6426 60.5889 75.6452 60.6014L75.665 60.7405C75.7368 60.695 75.8133 60.6456 75.893 60.5929C75.9108 60.5593 75.9181 60.521 75.9306 60.4854C75.9306 60.4821 75.928 60.4789 75.928 60.4756L75.9273 60.4769Z" fill="black"/>
<path d="M75.93 60.488C76.0118 60.2587 76.0058 60.003 75.8813 59.7677C75.8714 59.7492 75.8582 59.7261 75.8477 59.707C75.8701 60.0016 75.8984 60.264 75.9274 60.4782C75.9274 60.4814 75.93 60.4847 75.93 60.488Z" fill="black"/>
<path d="M65.2882 49.0506C64.9975 45.9536 69.8621 39.2957 72.3284 36.2817C75.2718 38.8356 81.164 44.5248 81.6339 47.6679C81.8896 47.5631 82.1526 47.4629 82.4208 47.3654C81.5113 42.8771 72.2302 35.123 72.2302 35.123C72.2302 35.123 64.0603 44.7139 64.4742 49.1278C64.5869 50.3319 64.8986 51.4286 65.3422 52.4251C65.648 52.3948 65.9413 52.379 66.2247 52.3763C65.7403 51.3792 65.4028 50.2726 65.2888 49.0513L65.2882 49.0506Z" fill="black"/>
<path d="M76.6443 57.9804C76.6246 58.364 76.6232 58.7239 76.6325 59.0534C78.9274 57.2792 82.3618 53.8375 82.518 49.0664C82.2181 49.1831 81.9354 49.3043 81.6645 49.4289C81.3653 53.3201 78.7092 56.2629 76.6443 57.9804Z" fill="black"/>
<path d="M81.6671 47.8279C81.6895 48.0639 81.6842 48.2913 81.6882 48.5226C81.9518 48.4092 82.2253 48.3005 82.508 48.1957C82.5008 48.0481 82.4962 47.9017 82.4823 47.7515C82.4698 47.6256 82.4487 47.4958 82.4217 47.3633C82.1535 47.4608 81.8905 47.561 81.6348 47.6658C81.6427 47.7192 81.6611 47.7772 81.6671 47.8273V47.8279Z" fill="black"/>
<path d="M81.6641 49.4284C81.9349 49.3039 82.2177 49.1826 82.5176 49.0659C82.5268 48.7812 82.5222 48.4906 82.507 48.1953C82.2249 48.3001 81.9508 48.4082 81.6871 48.5222C81.6937 48.8293 81.6871 49.1312 81.6641 49.4278V49.4284Z" fill="black"/>
<path d="M76.6439 57.9811C76.4402 58.1505 76.2451 58.308 76.0566 58.4524C76.2234 58.7134 76.3657 58.9533 76.4844 59.1662C76.5332 59.1299 76.5819 59.0923 76.632 59.0534C76.6221 58.7239 76.6241 58.3641 76.6439 57.9805V57.9811Z" fill="black"/>
<path d="M73.8629 60.1264C73.8043 59.8575 73.7331 59.5148 73.6553 59.1272C72.0531 58.3581 69.2191 56.7249 67.2867 54.1097C67.2168 54.0952 67.1516 54.0761 67.0804 54.0622C66.8187 54.0128 66.5202 53.9957 66.2012 53.9983C68.4638 57.4822 72.2699 59.4291 73.8629 60.1264Z" fill="black"/>
<path d="M66.6764 53.1929C66.5163 52.9273 66.362 52.6577 66.2243 52.375C65.9409 52.3776 65.6469 52.3935 65.3418 52.4238C65.4598 52.6894 65.5857 52.9477 65.7221 53.1982C66.0595 53.1751 66.3772 53.1731 66.6764 53.1929Z" fill="black"/>
<path d="M75.3984 58.9398C75.5672 59.2061 75.7069 59.4453 75.8183 59.6503C75.8268 59.645 75.8341 59.6398 75.8433 59.6338C75.8229 59.3359 75.8097 59.0031 75.8104 58.6426C75.6647 58.7507 75.5296 58.8469 75.3984 58.9398Z" fill="black"/>
<path d="M75.8106 58.6436C75.8099 59.0041 75.8231 59.3369 75.8435 59.6348C76.0412 59.4964 76.2561 59.3409 76.4855 59.1669C76.3662 58.954 76.2245 58.7141 76.0577 58.4531C75.976 58.5164 75.8897 58.5856 75.8106 58.6443V58.6436Z" fill="black"/>
<path d="M67.0797 54.0612C67.1509 54.0744 67.2155 54.0942 67.286 54.1087C67.0705 53.8167 66.8668 53.5109 66.677 53.1932C66.3778 53.1735 66.0601 53.1754 65.7227 53.1985C65.8716 53.474 66.0337 53.7396 66.2011 53.998C66.5201 53.9953 66.8187 54.0125 67.0804 54.0619L67.0797 54.0612Z" fill="black"/>
<path d="M75.3027 59.0093C75.37 59.3434 75.4326 59.644 75.4827 59.8799C75.5875 59.8107 75.6995 59.7343 75.8175 59.6519C75.7054 59.4469 75.5664 59.2077 75.3976 58.9414C75.3673 58.9625 75.3317 58.9889 75.3027 59.01V59.0093Z" fill="black"/>
<path d="M78.106 77.965L75.8184 61.8281C75.4256 62.1524 74.924 62.5241 74.3223 62.8971L76.486 78.1936C76.486 78.1936 76.4886 78.1989 76.4886 78.2016C77.0311 78.1627 77.5695 78.1073 78.1027 78.0355C78.1007 78.0104 78.11 77.9887 78.1073 77.9643L78.106 77.965Z" fill="black"/>
<path d="M77.2956 78.8966C77.3332 78.8966 77.3721 78.8939 77.4103 78.8887C77.8328 78.828 78.1234 78.4537 78.1024 78.0352C77.5698 78.107 77.0314 78.1624 76.4883 78.2012C76.5496 78.6053 76.8969 78.8966 77.2956 78.8966Z" fill="black"/>
<path d="M74.0677 61.1042C74.0677 61.1042 74.071 61.1016 74.073 61.0996C74.071 61.0996 74.0697 61.099 74.0664 61.0977V61.1042H74.0677Z" fill="black"/>
<path d="M75.8081 61.7557C75.6064 61.5982 75.4317 61.413 75.3124 61.1836C75.0126 61.4314 74.6395 61.7135 74.1953 62.0061L74.3212 62.8965C74.9236 62.5235 75.4251 62.1518 75.8173 61.8275L75.8074 61.7557H75.8081Z" fill="black"/>
<path d="M75.3125 61.1842C75.4318 61.4136 75.6064 61.5988 75.8081 61.7563L75.6822 60.8672C75.5768 60.9621 75.4502 61.0708 75.3125 61.1842Z" fill="black"/>
<path d="M74.9904 61.145C74.8705 61.2116 74.7367 61.2445 74.6016 61.2445C74.5093 61.2445 74.4177 61.2287 74.3287 61.1971C74.2977 61.1865 74.2061 61.1529 74.0736 61.1008C74.0717 61.1028 74.0703 61.1035 74.0684 61.1055L74.1962 62.0057C74.6404 61.7138 75.0135 61.431 75.3134 61.1832C75.283 61.1252 75.2659 61.0613 75.2422 61C75.111 61.0771 75.0207 61.1279 74.9898 61.1437L74.9904 61.145Z" fill="black"/>
<path d="M75.6647 60.7422C75.494 60.8496 75.3529 60.936 75.2422 61.0005C75.2659 61.0618 75.283 61.1258 75.3134 61.1838C75.4511 61.0704 75.577 60.9617 75.6831 60.8668L75.6653 60.7422H75.6647Z" fill="black"/>
<path d="M74.9085 56.896C74.4439 54.211 73.9272 50.418 73.9015 46.6909C73.8988 46.2394 73.5561 45.9053 73.0783 45.8789C72.6262 45.8815 72.263 46.25 72.2656 46.7021C72.2861 49.633 72.5912 52.558 72.9438 54.9906C73.7215 55.6069 74.3727 56.2627 74.9085 56.896Z" fill="black"/>
<path d="M74.7202 59.3966C74.39 58.8727 73.9439 58.2545 73.3691 57.6211C73.4706 58.1853 73.5662 58.6901 73.6545 59.1264C74.0157 59.2998 74.3169 59.4309 74.5285 59.5179C74.5818 59.485 74.6543 59.4382 74.7202 59.3966Z" fill="black"/>
<path d="M74.997 58.3436C75.0017 58.1037 75.0135 57.8552 75.0326 57.5989C74.9918 57.3735 74.9502 57.1408 74.9081 56.8956C74.3722 56.2623 73.7217 55.6071 72.9434 54.9902C73.0047 55.418 73.0679 55.8332 73.1305 56.2273C73.9148 56.9457 74.5304 57.6872 74.9964 58.3436H74.997Z" fill="black"/>
<path d="M75.0317 57.5996C75.0132 57.856 75.0007 58.1051 74.9961 58.3444C75.0805 58.4623 75.1628 58.5803 75.238 58.6937C75.174 58.3668 75.1035 57.9937 75.0317 57.5996Z" fill="black"/>
<path d="M75.0013 59.2135C74.9908 58.9426 74.9901 58.6506 74.9967 58.3448C74.5301 57.6884 73.9152 56.9469 73.1309 56.2285C73.2119 56.7261 73.291 57.1875 73.3688 57.6218C73.9435 58.2552 74.389 58.8734 74.7199 59.3974C74.8049 59.3433 74.8972 59.282 75.0013 59.2135Z" fill="black"/>
<path d="M74.9969 58.3438C74.9897 58.6496 74.9904 58.9415 75.0016 59.2124C75.0978 59.1478 75.1927 59.0852 75.3028 59.0094C75.2817 58.904 75.2619 58.8071 75.2388 58.6931C75.1643 58.5804 75.0813 58.4624 74.9969 58.3438Z" fill="black"/>
<path d="M75.0648 60.1481C74.7741 60.3293 74.5995 60.4249 74.5995 60.4249C74.5995 60.4249 74.3207 60.3254 73.8613 60.125C73.9628 60.5916 74.0294 60.8684 74.0399 60.908L74.0663 61.0978C74.0663 61.0978 74.0709 61.0998 74.0729 61.0998C74.4875 60.8078 74.8262 60.5316 75.0826 60.3029C75.0767 60.2502 75.0701 60.2028 75.0648 60.1474V60.1481Z" fill="black"/>
<path d="M75.0829 60.3039C75.104 60.2854 75.1304 60.263 75.1495 60.2452C75.1646 60.2307 75.1884 60.2089 75.158 60.1509C75.1508 60.1364 75.1409 60.12 75.133 60.1055C75.1093 60.1206 75.0875 60.1338 75.0645 60.1483C75.0697 60.2037 75.0763 60.2511 75.0822 60.3039H75.0829Z" fill="black"/>
<path d="M75.0839 60.3047C74.8275 60.5327 74.4888 60.8089 74.0742 61.1015C74.2067 61.1529 74.2983 61.1865 74.3293 61.1977C74.4183 61.2287 74.5099 61.2452 74.6021 61.2452C74.7372 61.2452 74.871 61.2122 74.991 61.1457C75.022 61.1299 75.1116 61.0791 75.2434 61.002C75.192 60.8695 75.1386 60.737 75.1189 60.5907C75.1063 60.5037 75.0958 60.4036 75.0839 60.306V60.3047Z" fill="black"/>
<path d="M75.4827 59.8789C75.3549 59.9639 75.2375 60.0404 75.1341 60.105C75.142 60.1195 75.1519 60.1359 75.1591 60.1504C75.1894 60.2078 75.1651 60.2302 75.1506 60.2447C75.1308 60.2625 75.1051 60.2849 75.084 60.3034C75.0958 60.4009 75.1064 60.5011 75.1189 60.5881C75.1387 60.7344 75.1921 60.8669 75.2435 60.9993C75.3542 60.9347 75.4959 60.8484 75.666 60.741L75.6462 60.6019C75.6435 60.5894 75.5816 60.3317 75.4834 59.8789H75.4827Z" fill="black"/>
<path d="M74.72 59.3972C74.6541 59.4387 74.5816 59.4861 74.5282 59.5184C74.3167 59.4314 74.0155 59.3003 73.6543 59.127C73.7327 59.5145 73.8032 59.8572 73.8619 60.1261C74.3213 60.3271 74.6001 60.426 74.6001 60.426C74.6001 60.426 74.7754 60.3298 75.0654 60.1492C75.0594 60.0872 75.0542 60.0167 75.0489 59.9515C74.9546 59.7834 74.8466 59.5989 74.72 59.3972Z" fill="black"/>
<path d="M75.0653 60.1496C75.0884 60.1351 75.1095 60.1219 75.1339 60.1067C75.1081 60.0579 75.0778 60.0039 75.0488 59.9512C75.0541 60.0171 75.0594 60.0869 75.0653 60.1489V60.1496Z" fill="black"/>
<path d="M75.0496 59.9511C75.0292 59.7237 75.012 59.4792 75.0021 59.2129C74.898 59.2814 74.8057 59.3427 74.7207 59.3968C74.8466 59.5985 74.9553 59.783 75.0496 59.9511Z" fill="black"/>
<path d="M75.002 59.2128C75.0118 59.479 75.0283 59.7235 75.0494 59.9509C75.0784 60.003 75.1087 60.0577 75.1344 60.1065C75.2386 60.0419 75.3552 59.9654 75.4831 59.8804C75.4323 59.6451 75.3704 59.3439 75.3032 59.0098C75.1931 59.0862 75.0982 59.1482 75.002 59.2128Z" fill="black"/>
</svg>
