<?xml version="1.0" encoding="utf-8"?>
<!-- Generator: Adobe Illustrator 28.1.0, SVG Export Plug-In . SVG Version: 6.00 Build 0)  -->
<svg version="1.1" id="Layer_1" xmlns="http://www.w3.org/2000/svg" xmlns:xlink="http://www.w3.org/1999/xlink" x="0px" y="0px"
	 viewBox="0 0 271 150" style="enable-background:new 0 0 271 150;" xml:space="preserve">
<style type="text/css">
	.st0{fill:#CE4C7A;}
	.st1{fill-rule:evenodd;clip-rule:evenodd;fill:#FFFFFF;}
	.st2{fill:#FFFFFF;filter:url(#Adobe_OpacityMaskFilter);}
	.st3{fill-rule:evenodd;clip-rule:evenodd;}
	.st4{mask:url(#path-3-outside-1_34_4974_00000115487828541908078990000004583195939956022417_);fill:#FFFFFF;}
</style>
<g>
	<circle class="st0" cx="135.5" cy="75" r="45"/>
	<path class="st1" d="M135,60c3.6,0,6.5-2.9,6.5-6.5c0-3.6-3-6.5-6.5-6.5c-3.6,0-6.5,2.9-6.5,6.5C128.5,57.1,131.4,60,135,60z
		 M131.1,53.5c0-2.2,1.8-3.9,3.9-3.9c2.2,0,3.9,1.8,3.9,3.9c0,2.1-1.8,3.9-3.9,3.9C132.9,57.4,131.1,55.6,131.1,53.5z M142.5,88
		v-0.7h0h1c2.4,0,4-1.6,4-4c0-4.2,0-8.3,0-12.5c0-4.4-3.3-7.7-7.5-7.7c-3.3,0-6.6,0-9.9,0c-4.1,0-7.4,3.2-7.5,7.4
		c-0.1,4.4-0.1,8.7,0,13.1c0,2.2,1.7,3.8,3.9,3.8c0.2,0,0.5,0,0.7,0l0,0h0c0.1,0,0.3,0,0.4,0V88c0,1.1,0,2.2,0,3.3v0v0v0v0
		c0,2.9,0,5.8,0,8.7c0,1.7,0.9,3.2,2.4,3.6c1.6,0.5,3.3,0.5,4.8-0.5c0.1-0.1,0.4-0.1,0.4-0.1c1,0.8,2.1,0.9,3.3,0.8
		c2.5,0,4-1.6,4-4.2V88z M127.5,84v0.6h0c-0.1,0-0.1,0-0.1,0c0,0,0,0,0,0c-1.6,0.1-2.4,0.1-2.4-2.2c0-2.5,0-4.9,0-7.4l0,0l0,0v0l0,0
		v0c0-1.4,0-2.9,0-4.3c0-2.6,1.6-4.7,4-5.2c0.4-0.1,0.8-0.1,1.2-0.1c3.1,0,6.3,0,9.4,0c3.2,0,5.3,2.1,5.3,5.4c0,2.6,0,5.3,0,7.9v0
		c0,1.3,0,2.6,0,4c0,1.4-0.4,1.8-1.8,1.8h-0.7V84c0-1.3,0-2.6,0-3.9c0-2.6,0-5.2,0-7.9c0-0.8-0.3-1.3-0.9-1.5
		c-0.7-0.2-1.4,0.3-1.5,1c0,0.2,0,0.4,0,0.6v0v0v0c0,0,0,0,0,0.1c0,0,0,0.1,0,0.1c0,9,0,18,0,27c0,0.3,0,0.6-0.1,0.9
		c-0.1,0.5-0.4,0.8-0.9,0.9c-0.6,0.1-1.2,0.1-1.8,0c-0.5-0.1-0.9-0.6-0.9-1.1c0-0.3,0-0.7,0-1v0v0v0l0,0c0-0.1,0-0.2,0-0.3
		c0-1.4,0-2.7,0-4.1c0-2.7,0-5.5,0-8.2c0-0.3,0-0.6-0.1-0.9c-0.1-0.5-0.6-0.9-1.2-0.9c-0.6,0-1,0.3-1.1,0.9
		c-0.1,0.3-0.1,0.6-0.1,0.9c0,4.4,0,8.7,0,13.1c0,1.3-0.4,1.7-1.7,1.7c-1.8,0-2.1-0.2-2.1-2.1V72.6c0-0.1,0-0.1,0-0.2v0
		c0-0.2,0-0.4,0-0.6c-0.1-0.7-0.6-1.2-1.2-1.2c-0.6,0-1.2,0.5-1.2,1.2c0,0.1,0,0.3,0,0.4l0,0c0,0.1,0,0.1,0,0.2V84z M111.6,100.9
		c1.5,1.4,3.4,1.4,5.3,0.1l0,0l0.1,0l0,0c0.1,0,0.1,0.1,0.2,0.1c1.3,0.9,2.7,1.1,4.1,0.4c1.4-0.7,2.1-1.9,2.2-3.5c0-2.9,0-5.8,0-8.7
		c0-0.8-0.5-1.4-1.3-1.4c-0.8,0-1.3,0.5-1.3,1.3c0,0.2,0,0.5,0,0.7c0,0.1,0,0.2,0,0.3v7.3v0.1l0,0.1c0,0.1,0,0.2,0,0.4
		c-0.1,0.8-0.6,1.3-1.3,1.3c-0.7,0-1.3-0.5-1.3-1.4c0-0.9,0-1.9,0-2.8v0l0,0v0l0,0c0-0.6,0-1.3,0-1.9c0-0.3,0-0.6-0.1-0.8
		c-0.2-0.6-0.8-0.9-1.4-0.8c-0.6,0.1-1.1,0.6-1.1,1.3c0,0.8,0,1.7,0,2.5c0,0.8,0,1.7,0,2.5c0,0.8-0.6,1.3-1.3,1.3
		c-0.7,0-1.3-0.5-1.3-1.3c0-0.1,0-0.3,0-0.4c0,0,0-0.1,0-0.1v-3.9v0v0v0v0c0-5.1,0-10.3,0-15.4c0-0.3,0-0.6-0.1-0.9
		c-0.2-0.5-0.7-0.9-1.3-0.8c-0.6,0-1,0.3-1.2,0.9c-0.1,0.2-0.1,0.5-0.1,0.8c0,1.3,0,2.7,0,4v0l0,0v0v0v0c0,0.4,0,0.9,0,1.3v0.6
		c-0.9-0.1-1.3-0.5-1.3-1.4l0-1.3c0-2.8,0-5.7,0-8.5c0-3.1,2.3-5.2,5.4-5.2c0.6,0,1.2,0,1.9,0l0,0l0,0l0,0h0c1,0,2.1,0,3.1,0
		c0.8,0,1.3-0.6,1.3-1.3c0-0.7-0.6-1.3-1.3-1.3c-0.4,0-0.8,0-1.1,0h0l0,0h0l0,0h0l0,0l0,0l0,0c-1.6,0-3.1,0-4.7,0
		c-3.5,0.1-6.9,3.1-7.1,6.5c-0.2,3.8-0.2,7.7-0.1,11.5c0,1.9,1.5,3.2,3.4,3.5c0.1,0,0.2,0,0.2,0l0,0l0,0l0,0c0.1,0,0.2,0,0.2,0v0.7
		c0,1,0,2.1,0,3.1c0,2.4,0,4.9,0,7.3C110.4,99,110.8,100.1,111.6,100.9z M159.6,84.1c0.8-0.1,1.3-0.5,1.3-1.2c0-0.6,0-1.2,0-1.8v0v0
		l0,0c0-0.2,0-0.4,0-0.7c0-0.8,0-1.7,0-2.5c0-1.7,0-3.3,0-5c0-3.2-2.2-5.4-5.5-5.4c-0.5,0-1.1,0-1.6,0l0,0l0,0l0,0
		c-1.1,0-2.1,0-3.2,0c-0.7,0-1.2-0.4-1.3-1c-0.1-0.5,0.1-1.1,0.6-1.4c0.3-0.1,0.6-0.2,0.9-0.2c1.7,0,3.3,0,5,0
		c4.4,0,7.8,3.3,7.8,7.6c0.1,3.4,0,6.8,0,10.2c0,2.2-1.5,3.6-3.9,3.9v0.7c0,1,0,2.1,0,3.1c0,2.5,0,5,0,7.4c0,2.4-1.8,4.2-4.1,4
		c-0.6,0-1.1-0.3-1.7-0.5l0,0l0,0l0,0c-0.3-0.1-0.6-0.2-0.9-0.3c-0.9,0.7-2,1-3.4,0.7c-1.7-0.4-2.9-1.9-3-3.5c0-2.7,0-5.4,0-8v0l0-1
		c0-0.8,0.6-1.3,1.3-1.3c0.7,0,1.3,0.5,1.3,1.3c0,1.9,0,3.8,0,5.7v0v0l0,0v0c0,0.9,0,1.8,0,2.6c0,1.2,0.5,1.8,1.3,1.8
		c0.8,0,1.3-0.6,1.3-1.8v-0.8v-0.6c0-1,0-1.9,0-2.9c0-1,0.5-1.6,1.3-1.6c0.8,0,1.3,0.6,1.3,1.6c0,0.5,0,1.1,0,1.6c0,1,0,2.1,0,3.1
		c0,0.7,0.5,1.2,1.2,1.3c0.6,0.1,1.2-0.4,1.3-0.9c0.1-0.2,0.1-0.5,0.1-0.7v-0.1c0-3.1,0-6.2,0-9.2v0v0v0v-3.1c0-0.7,0-1.4,0-2.1
		c0-1.8,0-3.5,0-5.3c0-0.9,0.4-1.4,1.1-1.5c0.9-0.1,1.5,0.4,1.5,1.4c0,1.3,0,2.6,0,3.9v0v0v0c0,0.5,0,1.1,0,1.6L159.6,84.1
		L159.6,84.1z M153,63c-3,0-5.5-2.4-5.5-5.5c0-3,2.4-5.5,5.4-5.5c3.1,0,5.6,2.5,5.6,5.5C158.5,60.5,156,63,153,63L153,63z M153,60.3
		c1.5,0,2.8-1.3,2.8-2.8c0-1.5-1.3-2.8-2.8-2.8c-1.5,0-2.8,1.3-2.8,2.8C150.2,59,151.5,60.3,153,60.3z M111.5,57.5
		c0,3,2.5,5.5,5.5,5.5c3,0,5.5-2.4,5.5-5.5c0-3-2.4-5.5-5.5-5.5C114,52,111.5,54.5,111.5,57.5z M117,54.7c1.5,0,2.8,1.3,2.8,2.8
		c0,1.5-1.2,2.8-2.8,2.8c-1.5,0-2.8-1.2-2.8-2.7C114.2,56,115.5,54.7,117,54.7z"/>
	<defs>
		<filter id="Adobe_OpacityMaskFilter" filterUnits="userSpaceOnUse" x="106.3" y="46.8" width="57.4" height="57.4">
			<feColorMatrix  type="matrix" values="1 0 0 0 0  0 1 0 0 0  0 0 1 0 0  0 0 0 1 0"/>
		</filter>
	</defs>
	
		<mask maskUnits="userSpaceOnUse" x="106.3" y="46.8" width="57.4" height="57.4" id="path-3-outside-1_34_4974_00000115487828541908078990000004583195939956022417_">
		<rect x="105.5" y="46" class="st2" width="59" height="59"/>
		<path class="st3" d="M135,60c3.6,0,6.5-2.9,6.5-6.5c0-3.6-3-6.5-6.5-6.5c-3.6,0-6.5,2.9-6.5,6.5C128.5,57.1,131.4,60,135,60z
			 M131.1,53.5c0-2.2,1.8-3.9,3.9-3.9c2.2,0,3.9,1.8,3.9,3.9c0,2.1-1.8,3.9-3.9,3.9C132.9,57.4,131.1,55.6,131.1,53.5z M142.5,88
			v-0.7h0h1c2.4,0,4-1.6,4-4c0-4.2,0-8.3,0-12.5c0-4.4-3.3-7.7-7.5-7.7c-3.3,0-6.6,0-9.9,0c-4.1,0-7.4,3.2-7.5,7.4
			c-0.1,4.4-0.1,8.7,0,13.1c0,2.2,1.7,3.8,3.9,3.8c0.2,0,0.5,0,0.7,0l0,0h0c0.1,0,0.3,0,0.4,0V88c0,1.1,0,2.2,0,3.3v0v0v0v0
			c0,2.9,0,5.8,0,8.7c0,1.7,0.9,3.2,2.4,3.6c1.6,0.5,3.3,0.5,4.8-0.5c0.1-0.1,0.4-0.1,0.4-0.1c1,0.8,2.1,0.9,3.3,0.8
			c2.5,0,4-1.6,4-4.2V88z M127.5,84v0.6h0c-0.1,0-0.1,0-0.1,0c0,0,0,0,0,0c-1.6,0.1-2.4,0.1-2.4-2.2c0-2.5,0-4.9,0-7.4l0,0l0,0v0
			l0,0v0c0-1.4,0-2.9,0-4.3c0-2.6,1.6-4.7,4-5.2c0.4-0.1,0.8-0.1,1.2-0.1c3.1,0,6.3,0,9.4,0c3.2,0,5.3,2.1,5.3,5.4
			c0,2.6,0,5.3,0,7.9v0c0,1.3,0,2.6,0,4c0,1.4-0.4,1.8-1.8,1.8h-0.7V84c0-1.3,0-2.6,0-3.9c0-2.6,0-5.2,0-7.9c0-0.8-0.3-1.3-0.9-1.5
			c-0.7-0.2-1.4,0.3-1.5,1c0,0.2,0,0.4,0,0.6v0v0v0c0,0,0,0,0,0.1c0,0,0,0.1,0,0.1c0,9,0,18,0,27c0,0.3,0,0.6-0.1,0.9
			c-0.1,0.5-0.4,0.8-0.9,0.9c-0.6,0.1-1.2,0.1-1.8,0c-0.5-0.1-0.9-0.6-0.9-1.1c0-0.3,0-0.7,0-1v0v0v0l0,0c0-0.1,0-0.2,0-0.3
			c0-1.4,0-2.7,0-4.1c0-2.7,0-5.5,0-8.2c0-0.3,0-0.6-0.1-0.9c-0.1-0.5-0.6-0.9-1.2-0.9c-0.6,0-1,0.3-1.1,0.9
			c-0.1,0.3-0.1,0.6-0.1,0.9c0,4.4,0,8.7,0,13.1c0,1.3-0.4,1.7-1.7,1.7c-1.8,0-2.1-0.2-2.1-2.1V72.6c0-0.1,0-0.1,0-0.2v0
			c0-0.2,0-0.4,0-0.6c-0.1-0.7-0.6-1.2-1.2-1.2c-0.6,0-1.2,0.5-1.2,1.2c0,0.1,0,0.3,0,0.4l0,0c0,0.1,0,0.1,0,0.2V84z M111.6,100.9
			c1.5,1.4,3.4,1.4,5.3,0.1l0,0l0.1,0l0,0c0.1,0,0.1,0.1,0.2,0.1c1.3,0.9,2.7,1.1,4.1,0.4c1.4-0.7,2.1-1.9,2.2-3.5
			c0-2.9,0-5.8,0-8.7c0-0.8-0.5-1.4-1.3-1.4c-0.8,0-1.3,0.5-1.3,1.3c0,0.2,0,0.5,0,0.7c0,0.1,0,0.2,0,0.3v7.3v0.1l0,0.1
			c0,0.1,0,0.2,0,0.4c-0.1,0.8-0.6,1.3-1.3,1.3c-0.7,0-1.3-0.5-1.3-1.4c0-0.9,0-1.9,0-2.8v0l0,0v0l0,0c0-0.6,0-1.3,0-1.9
			c0-0.3,0-0.6-0.1-0.8c-0.2-0.6-0.8-0.9-1.4-0.8c-0.6,0.1-1.1,0.6-1.1,1.3c0,0.8,0,1.7,0,2.5c0,0.8,0,1.7,0,2.5
			c0,0.8-0.6,1.3-1.3,1.3c-0.7,0-1.3-0.5-1.3-1.3c0-0.1,0-0.3,0-0.4c0,0,0-0.1,0-0.1v-3.9v0v0v0v0c0-5.1,0-10.3,0-15.4
			c0-0.3,0-0.6-0.1-0.9c-0.2-0.5-0.7-0.9-1.3-0.8c-0.6,0-1,0.3-1.2,0.9c-0.1,0.2-0.1,0.5-0.1,0.8c0,1.3,0,2.7,0,4v0l0,0v0v0v0
			c0,0.4,0,0.9,0,1.3v0.6c-0.9-0.1-1.3-0.5-1.3-1.4l0-1.3c0-2.8,0-5.7,0-8.5c0-3.1,2.3-5.2,5.4-5.2c0.6,0,1.2,0,1.9,0l0,0l0,0l0,0h0
			c1,0,2.1,0,3.1,0c0.8,0,1.3-0.6,1.3-1.3c0-0.7-0.6-1.3-1.3-1.3c-0.4,0-0.8,0-1.1,0h0l0,0h0l0,0h0l0,0l0,0l0,0c-1.6,0-3.1,0-4.7,0
			c-3.5,0.1-6.9,3.1-7.1,6.5c-0.2,3.8-0.2,7.7-0.1,11.5c0,1.9,1.5,3.2,3.4,3.5c0.1,0,0.2,0,0.2,0l0,0l0,0l0,0c0.1,0,0.2,0,0.2,0v0.7
			c0,1,0,2.1,0,3.1c0,2.4,0,4.9,0,7.3C110.4,99,110.8,100.1,111.6,100.9z M159.6,84.1c0.8-0.1,1.3-0.5,1.3-1.2c0-0.6,0-1.2,0-1.8v0
			v0l0,0c0-0.2,0-0.4,0-0.7c0-0.8,0-1.7,0-2.5c0-1.7,0-3.3,0-5c0-3.2-2.2-5.4-5.5-5.4c-0.5,0-1.1,0-1.6,0l0,0l0,0l0,0
			c-1.1,0-2.1,0-3.2,0c-0.7,0-1.2-0.4-1.3-1c-0.1-0.5,0.1-1.1,0.6-1.4c0.3-0.1,0.6-0.2,0.9-0.2c1.7,0,3.3,0,5,0
			c4.4,0,7.8,3.3,7.8,7.6c0.1,3.4,0,6.8,0,10.2c0,2.2-1.5,3.6-3.9,3.9v0.7c0,1,0,2.1,0,3.1c0,2.5,0,5,0,7.4c0,2.4-1.8,4.2-4.1,4
			c-0.6,0-1.1-0.3-1.7-0.5l0,0l0,0l0,0c-0.3-0.1-0.6-0.2-0.9-0.3c-0.9,0.7-2,1-3.4,0.7c-1.7-0.4-2.9-1.9-3-3.5c0-2.7,0-5.4,0-8v0
			l0-1c0-0.8,0.6-1.3,1.3-1.3c0.7,0,1.3,0.5,1.3,1.3c0,1.9,0,3.8,0,5.7v0v0l0,0v0c0,0.9,0,1.8,0,2.6c0,1.2,0.5,1.8,1.3,1.8
			c0.8,0,1.3-0.6,1.3-1.8v-0.8v-0.6c0-1,0-1.9,0-2.9c0-1,0.5-1.6,1.3-1.6c0.8,0,1.3,0.6,1.3,1.6c0,0.5,0,1.1,0,1.6c0,1,0,2.1,0,3.1
			c0,0.7,0.5,1.2,1.2,1.3c0.6,0.1,1.2-0.4,1.3-0.9c0.1-0.2,0.1-0.5,0.1-0.7v-0.1c0-3.1,0-6.2,0-9.2v0v0v0v-3.1c0-0.7,0-1.4,0-2.1
			c0-1.8,0-3.5,0-5.3c0-0.9,0.4-1.4,1.1-1.5c0.9-0.1,1.5,0.4,1.5,1.4c0,1.3,0,2.6,0,3.9v0v0v0c0,0.5,0,1.1,0,1.6L159.6,84.1
			L159.6,84.1z M153,63c-3,0-5.5-2.4-5.5-5.5c0-3,2.4-5.5,5.4-5.5c3.1,0,5.6,2.5,5.6,5.5C158.5,60.5,156,63,153,63L153,63z
			 M153,60.3c1.5,0,2.8-1.3,2.8-2.8c0-1.5-1.3-2.8-2.8-2.8c-1.5,0-2.8,1.3-2.8,2.8C150.2,59,151.5,60.3,153,60.3z M111.5,57.5
			c0,3,2.5,5.5,5.5,5.5c3,0,5.5-2.4,5.5-5.5c0-3-2.4-5.5-5.5-5.5C114,52,111.5,54.5,111.5,57.5z M117,54.7c1.5,0,2.8,1.3,2.8,2.8
			c0,1.5-1.2,2.8-2.8,2.8c-1.5,0-2.8-1.2-2.8-2.7C114.2,56,115.5,54.7,117,54.7z"/>
	</mask>
	<path class="st4" d="M141.5,53.5l0.2,0v0L141.5,53.5z M135,60l0,0.2L135,60z M135,47l0-0.2l0,0L135,47z M128.5,53.5l-0.2,0v0
		L128.5,53.5z M135,49.6l0-0.2L135,49.6z M138.9,53.5l0.2,0l0,0L138.9,53.5z M135,57.4l0,0.2l0,0L135,57.4z M142.5,87.3v-0.2h-0.2
		v0.2H142.5z M143.5,87.3v0.2h0L143.5,87.3z M147.5,83.3l-0.2,0v0L147.5,83.3z M147.5,70.7l0.2,0l0,0L147.5,70.7z M139.9,63l0-0.2
		l0,0L139.9,63z M130.1,63l0-0.2l0,0L130.1,63z M122.6,70.5l0.2,0l0,0L122.6,70.5z M122.5,83.5l-0.2,0v0L122.5,83.5z M126.4,87.3
		l0-0.2l0,0L126.4,87.3z M127.1,87.3v-0.2h0L127.1,87.3z M127.1,87.3v0.2l0,0V87.3z M127.5,87.3h0.2v-0.2h-0.2V87.3z M127.5,91.3
		h-0.2l0,0H127.5z M127.5,91.3h0.2l0,0H127.5z M127.5,100l0.2,0l0,0L127.5,100z M130,103.7l-0.1,0.2l0,0L130,103.7z M134.7,103.2
		l-0.1-0.2v0L134.7,103.2z M135.2,103.1l0.1-0.2l0,0L135.2,103.1z M138.5,103.9l0-0.2l0,0L138.5,103.9z M127.5,84.7v0.2h0.2v-0.2
		H127.5z M127.5,84.7v-0.2h0l0,0L127.5,84.7z M127.4,84.7l0.1,0.2v0L127.4,84.7z M127.4,84.7v-0.2l0,0L127.4,84.7z M125,82.5l-0.2,0
		v0L125,82.5z M125,75.1h-0.2v0L125,75.1z M125,75.1h0.2v0L125,75.1z M125,70.8l-0.2,0v0L125,70.8z M129.1,65.7l0,0.2v0L129.1,65.7z
		 M130.3,65.6v0.2h0L130.3,65.6z M139.7,65.6l0,0.2l0,0L139.7,65.6z M145,71l0.2,0v0L145,71z M145,79h-0.2l0,0H145z M145,79l0.2,0v0
		H145z M142.5,84.8h-0.2V85h0.2V84.8z M142.5,80.1l-0.2,0L142.5,80.1z M142.5,72.2l0.2,0v0L142.5,72.2z M141.6,70.8l0.1-0.2l0,0
		L141.6,70.8z M140,71.8l-0.2,0v0L140,71.8z M140,72.4h0.2v0L140,72.4z M140,72.4h-0.2v0L140,72.4z M140,72.5l0.2,0l0,0L140,72.5z
		 M140,99.5l-0.2,0v0H140z M139.9,100.4l-0.2,0l0,0L139.9,100.4z M139,101.3l0-0.2h0L139,101.3z M137.2,101.3l0,0.2l0,0L137.2,101.3
		z M136.3,100.2l-0.2,0l0,0L136.3,100.2z M136.3,99.2l0.2,0v0H136.3z M136.3,99.2l-0.2,0v0H136.3z M136.3,98.9h0.2l0,0H136.3z
		 M136.3,86.5h-0.2v0L136.3,86.5z M136.2,85.6l0.2-0.1v0L136.2,85.6z M135,84.8l0,0.2l0,0L135,84.8z M133.8,85.6l0.2,0.1v0
		L133.8,85.6z M133.8,86.5l0.2,0v0H133.8z M132.1,101.4v0.2h0L132.1,101.4z M130,72.5l0.2,0v0H130z M130,72.5l-0.2,0v0H130z
		 M130,71.9l-0.2,0v0L130,71.9z M128.8,70.7l0,0.2h0L128.8,70.7z M127.5,71.9l-0.2,0v0L127.5,71.9z M127.5,72.3h0.2v0L127.5,72.3z
		 M127.5,72.3h-0.2v0L127.5,72.3z M117,101l0.1,0.2l-0.2-0.3L117,101z M111.6,100.9l0.1-0.1l0,0L111.6,100.9z M117,101l-0.1-0.2
		l-0.2,0.2l0.2,0.2L117,101z M117,101.1l0.1-0.2l0,0L117,101.1z M117,101.1l-0.1,0.2l0,0L117,101.1z M117.2,101.2l0.1-0.2l0,0
		L117.2,101.2z M121.3,101.6l-0.1-0.2l0,0L121.3,101.6z M123.5,98.1l-0.2,0l0,0L123.5,98.1z M123.5,89.3l-0.2,0v0L123.5,89.3z
		 M122.2,88l0,0.2h0L122.2,88z M120.9,89.3l0.2,0v0L120.9,89.3z M120.9,90l-0.2,0L120.9,90z M120.9,97.6h-0.2v0L120.9,97.6z
		 M120.9,97.7l-0.2,0v0L120.9,97.7z M120.9,97.8l-0.2,0v0L120.9,97.8z M120.9,98.1l0.2,0v0L120.9,98.1z M119.6,99.4l0,0.2l0,0
		L119.6,99.4z M118.3,98.1l-0.2,0v0L118.3,98.1z M118.3,95.3l0.2,0v0H118.3z M118.3,95.3l-0.2,0v0H118.3z M118.3,93.4l-0.2,0v0
		L118.3,93.4z M118.2,92.6l0.2-0.1v0L118.2,92.6z M116.7,91.8l0-0.2v0L116.7,91.8z M115.7,93.1l0.2,0v0L115.7,93.1z M115.7,95.6
		l0.2,0L115.7,95.6z M115.7,98.1l-0.2,0v0L115.7,98.1z M114.4,99.4l0-0.2l0,0L114.4,99.4z M113.1,98.1l-0.2,0v0L113.1,98.1z
		 M113.1,97.7l0.2,0L113.1,97.7z M113.1,97.5h-0.2l0,0H113.1z M113.1,93.7h0.2l0,0H113.1z M113.1,93.7h-0.2l0,0H113.1z M113.1,78.2
		l0.2,0v0L113.1,78.2z M113,77.3l-0.2,0.1v0L113,77.3z M111.7,76.5l0,0.2l0,0L111.7,76.5z M110.5,77.4l-0.2-0.1v0L110.5,77.4z
		 M110.4,78.1l0.2,0v0H110.4z M110.4,82.1h0.2v0L110.4,82.1z M110.4,82.1h-0.2v0L110.4,82.1z M110.4,82.1h0.2l0,0H110.4z
		 M110.4,84.1l0,0.2l0.2,0v-0.2H110.4z M109.1,82.7h0.2v0L109.1,82.7z M109.1,81.3l0.2,0l0,0L109.1,81.3z M109.1,72.8l-0.2,0l0,0
		L109.1,72.8z M114.6,67.6l0-0.2l0,0L114.6,67.6z M116.4,67.6l0,0.2h0V67.6z M116.4,67.6v-0.2l0,0V67.6z M119.5,67.5l0,0.2h0
		L119.5,67.5z M120.9,66.3l-0.2,0l0,0L120.9,66.3z M119.5,65l0-0.2l0,0L119.5,65z M118.4,65l0,0.2l0,0L118.4,65z M118.4,65l0,0.2
		l0,0L118.4,65z M118.4,65l0-0.2h0V65z M118.4,65l0,0.2h0V65z M113.7,65l0,0.2l0,0L113.7,65z M106.6,71.6l0.2,0l0,0L106.6,71.6z
		 M106.6,83.1l0.2,0l0,0L106.6,83.1z M109.9,86.7l0,0.2l0,0L109.9,86.7z M110.2,86.7l0-0.2l0,0L110.2,86.7z M110.2,86.7l0,0.2l0,0
		L110.2,86.7z M110.2,86.7l0,0.2v0L110.2,86.7z M110.2,86.7l0-0.2l0,0L110.2,86.7z M110.4,86.7h0.2v-0.2l-0.2,0L110.4,86.7z
		 M110.4,90.6l-0.2,0L110.4,90.6z M110.4,97.9l-0.2,0v0L110.4,97.9z M160.8,82.9l0.2,0l0,0L160.8,82.9z M159.6,84.1l0-0.2l0,0l0,0
		L159.6,84.1z M160.9,81.1h-0.2v0L160.9,81.1z M160.9,81.1h0.2v0L160.9,81.1z M160.8,72.9l0.2,0v0L160.8,72.9z M155.3,67.5v-0.2l0,0
		V67.5z M153.7,67.5v0.2h0L153.7,67.5z M153.7,67.5v-0.2l0,0V67.5z M150.5,67.5l0,0.2l0,0L150.5,67.5z M149.2,66.6l0.2-0.1v0
		L149.2,66.6z M149.7,65.2l-0.1-0.2v0L149.7,65.2z M150.6,65l0-0.2l0,0L150.6,65z M155.6,65l0,0.2l0,0L155.6,65z M163.5,72.6l-0.2,0
		l0,0L163.5,72.6z M163.5,82.8l0.2,0l0,0L163.5,82.8z M159.6,86.7l0-0.2l-0.2,0v0.2H159.6z M159.6,90.5l-0.2,0L159.6,90.5z
		 M159.6,98l-0.2,0l0,0L159.6,98z M155.4,102l0,0.2l0,0L155.4,102z M153.7,101.5l-0.1,0.2l0,0L153.7,101.5z M153.7,101.5l0.1-0.2
		l0,0L153.7,101.5z M153.7,101.5l0.1-0.2l0,0L153.7,101.5z M153.7,101.5l0.1-0.2l0,0L153.7,101.5z M152.8,101.2l0.1-0.2l-0.1,0
		l-0.1,0.1L152.8,101.2z M149.5,101.9l0,0.2l0,0L149.5,101.9z M146.5,98.3l0.2,0v0L146.5,98.3z M146.5,90.3l0.2,0v0H146.5z
		 M146.5,90.3l-0.2,0v0H146.5z M146.5,89.3l-0.2,0v0L146.5,89.3z M147.8,88l0-0.2l0,0L147.8,88z M149.1,89.3l-0.2,0v0L149.1,89.3z
		 M149.1,95l-0.2,0v0H149.1z M149.1,95l0.2,0v0H149.1z M149.1,97.7h0.2v0L149.1,97.7z M150.4,99.4l0-0.2l0,0L150.4,99.4z
		 M151.7,97.7h0.2l0,0H151.7z M151.7,96.9h0.2l0,0H151.7z M151.7,96.3l0.2,0l0,0L151.7,96.3z M151.7,93.4l-0.2,0v0L151.7,93.4z
		 M153.1,91.8l0-0.2l0,0L153.1,91.8z M154.3,93.4l0.2,0v0L154.3,93.4z M154.3,95l-0.2,0L154.3,95z M154.3,98.2l-0.2,0v0L154.3,98.2z
		 M155.5,99.4l0-0.2l0,0L155.5,99.4z M156.9,98.5l0.2,0v0L156.9,98.5z M156.9,97.8l-0.2,0v0L156.9,97.8z M156.9,97.7l-0.2,0v0
		L156.9,97.7z M156.9,88.5h-0.2v0L156.9,88.5z M156.9,88.5h0.2l0,0H156.9z M156.9,85.4h-0.2l0,0H156.9z M156.9,83.3l0.2,0
		L156.9,83.3z M156.9,78l0.2,0l0,0L156.9,78z M158,76.5l0,0.2v0L158,76.5z M159.6,77.9l-0.2,0v0L159.6,77.9z M159.6,81.8l-0.2,0v0
		H159.6z M159.6,81.8l0.2,0v0H159.6z M159.6,84.1h-0.2v0.3l0.3-0.1L159.6,84.1z M147.5,57.5l0.2,0L147.5,57.5z M153,63v-0.2l0,0V63z
		 M153,52l0-0.2l0,0L153,52z M158.5,57.5l0.2,0L158.5,57.5z M153,63v0.2h0L153,63z M155.8,57.5h-0.2v0L155.8,57.5z M153,54.7v0.2
		l0,0V54.7z M117,63v-0.2V63z M111.5,57.5l-0.2,0l0,0L111.5,57.5z M122.5,57.5l-0.2,0v0H122.5z M117,52v-0.2l0,0V52z M119.8,57.5
		l0.2,0v0H119.8z M117,54.7v0.2V54.7z M117,60.3v-0.2l0,0V60.3z M114.2,57.5l0.2,0l0,0L114.2,57.5z M141.3,53.5
		c0,3.5-2.8,6.3-6.3,6.3l0,0.4c3.7,0,6.7-3,6.7-6.7L141.3,53.5z M135,47.2c3.5,0,6.3,2.8,6.3,6.3l0.4,0c0-3.7-3.1-6.7-6.7-6.7
		L135,47.2z M128.7,53.5c0-3.5,2.8-6.3,6.3-6.3l0-0.4c-3.7,0-6.7,3-6.7,6.7L128.7,53.5z M135,59.8c-3.5,0-6.3-2.8-6.3-6.3l-0.4,0
		c0,3.7,3,6.7,6.7,6.7L135,59.8z M135,49.4c-2.3,0-4.1,1.8-4.1,4.1h0.4c0-2,1.7-3.7,3.7-3.7L135,49.4z M139.1,53.5
		c0-2.3-1.8-4.1-4.1-4.1l0,0.4c2.1,0,3.7,1.7,3.7,3.7L139.1,53.5z M135,57.6c2.2,0,4.1-1.8,4.1-4.1l-0.4,0c0,2-1.7,3.7-3.7,3.7
		L135,57.6z M130.9,53.5c0,2.3,1.9,4.1,4.1,4.1l0-0.4c-2,0-3.7-1.7-3.7-3.7H130.9z M142.3,87.3V88h0.4v-0.7H142.3z M142.5,87.1
		L142.5,87.1l0,0.4h0V87.1z M143.5,87.1h-1v0.4h1V87.1z M147.3,83.3c0,1.2-0.4,2.1-1,2.8c-0.7,0.7-1.6,1.1-2.7,1.1l0,0.4
		c1.2,0,2.3-0.4,3-1.2c0.7-0.7,1.2-1.8,1.2-3.1L147.3,83.3z M147.3,70.7c0,4.2,0,8.3,0,12.5l0.4,0c0-4.2,0-8.3,0-12.5L147.3,70.7z
		 M139.9,63.2c4.1,0,7.3,3.3,7.3,7.5l0.4,0c0-4.5-3.4-7.9-7.7-7.9L139.9,63.2z M130.1,63.2c3.3,0,6.6,0,9.9,0l0-0.4
		c-3.3,0-6.6,0-9.9,0L130.1,63.2z M122.8,70.5c0.1-4.1,3.3-7.2,7.3-7.2l0-0.4c-4.2,0-7.6,3.3-7.7,7.6L122.8,70.5z M122.7,83.5
		c0-4.4-0.1-8.7,0-13.1l-0.4,0c-0.1,4.4-0.1,8.7,0,13.1L122.7,83.5z M126.4,87.1c-2.1,0-3.6-1.5-3.7-3.6l-0.4,0c0,2.3,1.8,4,4.1,4
		L126.4,87.1z M127.1,87.1c-0.2,0-0.5,0-0.7,0l0,0.4c0.2,0,0.5,0,0.7,0L127.1,87.1z M127.1,87.1L127.1,87.1v0.4l0,0V87.1z
		 M127.1,87.1L127.1,87.1l0,0.4h0V87.1z M127.5,87.1c-0.1,0-0.3,0-0.4,0l0,0.4c0.1,0,0.3,0,0.4,0V87.1z M127.7,88v-0.7h-0.4V88
		H127.7z M127.7,91.3c0-1.1,0-2.2,0-3.3h-0.4c0,1.1,0,2.2,0,3.3L127.7,91.3z M127.7,91.3L127.7,91.3l-0.4,0v0H127.7z M127.7,91.3
		L127.7,91.3l-0.4,0v0H127.7z M127.7,91.3L127.7,91.3l-0.4,0v0H127.7z M127.7,91.3L127.7,91.3l-0.4,0v0H127.7z M127.7,100
		c0-2.9,0-5.8,0-8.7l-0.4,0c0,2.9,0,5.8,0,8.7L127.7,100z M130,103.5c-1.4-0.4-2.3-1.8-2.3-3.5l-0.4,0c0,1.8,1,3.3,2.6,3.8
		L130,103.5z M134.6,103c-1.4,1-3,1-4.6,0.5l-0.1,0.4c1.7,0.5,3.4,0.6,4.9-0.5L134.6,103z M135.3,102.9c-0.1-0.1-0.1-0.1-0.2-0.1
		c-0.1,0-0.1,0-0.2,0c-0.1,0-0.2,0.1-0.3,0.1l0.2,0.3c0,0,0.1,0,0.1,0c0,0,0.1,0,0.1,0c0,0,0,0,0,0L135.3,102.9z M138.4,103.7
		c-1.2,0-2.2-0.1-3.1-0.8l-0.3,0.3c1,0.8,2.2,0.9,3.4,0.9L138.4,103.7z M142.3,99.8c0,1.2-0.4,2.2-1,2.9c-0.7,0.7-1.6,1.1-2.8,1.1
		l0,0.4c1.3,0,2.3-0.4,3.1-1.2c0.7-0.8,1.1-1.9,1.1-3.2H142.3z M142.3,88v11.7h0.4V88H142.3z M127.7,84.7V84h-0.4v0.6H127.7z
		 M127.5,84.9L127.5,84.9l0-0.4h0V84.9z M127.5,84.9C127.5,84.9,127.5,84.9,127.5,84.9l0-0.4c-0.1,0-0.1,0-0.1,0L127.5,84.9z
		 M127.4,84.9C127.4,84.9,127.4,84.9,127.4,84.9c0.1,0,0.1,0,0.1,0l-0.2-0.4c0,0,0,0,0,0c0,0,0,0,0,0c0,0,0,0,0,0c0,0,0,0,0,0V84.9z
		 M124.8,82.5c0,1.2,0.2,1.8,0.7,2.2c0.2,0.2,0.5,0.2,0.8,0.3c0.3,0,0.7,0,1.1,0l0-0.4c-0.4,0-0.7,0-1,0c-0.3,0-0.5-0.1-0.6-0.2
		c-0.3-0.2-0.5-0.7-0.5-1.8L124.8,82.5z M124.8,75.1c0,2.5,0,4.9,0,7.4l0.4,0c0-2.5,0-4.9,0-7.4L124.8,75.1z M124.8,75.1L124.8,75.1
		h0.4l0,0H124.8z M124.8,75.1L124.8,75.1h0.4l0,0H124.8z M124.8,75.1L124.8,75.1l0.4,0v0H124.8z M124.8,75.1L124.8,75.1h0.4l0,0
		H124.8z M124.8,75.1L124.8,75.1l0.4,0v0H124.8z M124.8,70.8c0,1.4,0,2.9,0,4.3l0.4,0c0-1.4,0-2.9,0-4.3L124.8,70.8z M129,65.5
		c-2.5,0.5-4.2,2.6-4.2,5.4l0.4,0c0-2.5,1.5-4.5,3.9-5L129,65.5z M130.3,65.4c-0.4,0-0.8,0-1.3,0.1l0.1,0.4c0.4-0.1,0.8-0.1,1.2-0.1
		V65.4z M139.7,65.4c-3.1,0-6.3,0-9.4,0l0,0.4c3.1,0,6.3,0,9.4,0L139.7,65.4z M145.2,71c0-1.7-0.5-3.1-1.5-4.1c-1-1-2.3-1.5-4-1.5
		l0,0.4c1.6,0,2.8,0.5,3.7,1.4c0.9,0.9,1.4,2.2,1.4,3.8L145.2,71z M145.2,79c0-2.6,0-5.3,0-7.9l-0.4,0c0,2.6,0,5.3,0,7.9L145.2,79z
		 M145.2,79L145.2,79l-0.4,0v0H145.2z M145.2,83c0-1.3,0-2.6,0-4l-0.4,0c0,1.3,0,2.6,0,4H145.2z M143.2,85c0.7,0,1.2-0.1,1.6-0.4
		c0.3-0.3,0.4-0.9,0.4-1.6h-0.4c0,0.7-0.1,1.1-0.3,1.3c-0.2,0.2-0.6,0.3-1.3,0.3V85z M142.5,85h0.7v-0.4h-0.7V85z M142.3,84v0.7h0.4
		V84H142.3z M142.3,80.1c0,1.3,0,2.6,0,3.9h0.4c0-1.3,0-2.6,0-3.9L142.3,80.1z M142.3,72.2c0,2.6,0,5.2,0,7.9l0.4,0
		c0-2.6,0-5.2,0-7.9L142.3,72.2z M141.5,70.9c0.3,0.1,0.5,0.2,0.6,0.4c0.1,0.2,0.2,0.5,0.2,0.9l0.4,0c0-0.4-0.1-0.8-0.3-1.1
		c-0.2-0.3-0.5-0.5-0.8-0.6L141.5,70.9z M140.2,71.8c0.1-0.6,0.7-1,1.3-0.9l0.1-0.4c-0.8-0.2-1.7,0.3-1.8,1.2L140.2,71.8z
		 M140.2,72.4c0-0.2,0-0.4,0-0.6l-0.4,0c0,0.2,0,0.4,0,0.7L140.2,72.4z M140.2,72.4L140.2,72.4l-0.4,0v0H140.2z M140.2,72.4
		L140.2,72.4l-0.4,0v0H140.2z M140.2,72.4L140.2,72.4l-0.4,0v0H140.2z M140.2,72.5C140.2,72.5,140.2,72.4,140.2,72.5l-0.4-0.1
		c0,0,0,0,0,0.1L140.2,72.5z M140.2,72.6C140.2,72.5,140.2,72.5,140.2,72.6l-0.4-0.1c0,0,0,0.1,0,0.1H140.2z M140.2,99.5
		c0-9,0-18,0-27h-0.4c0,9,0,18,0,27L140.2,99.5z M140.1,100.5c0.1-0.3,0.1-0.6,0.1-0.9h-0.4c0,0.3,0,0.6-0.1,0.8L140.1,100.5z
		 M139,101.5c0.6-0.1,1-0.5,1.1-1l-0.4-0.1c-0.1,0.4-0.4,0.7-0.7,0.7L139,101.5z M137.2,101.5c0.6,0.1,1.2,0.1,1.8,0l0-0.4
		c-0.6,0.1-1.2,0.1-1.8,0L137.2,101.5z M136.1,100.2c0,0.7,0.5,1.3,1.1,1.3l0-0.4c-0.4,0-0.7-0.4-0.8-1L136.1,100.2z M136.1,99.2
		c0,0.3,0,0.7,0,1l0.4,0c0-0.3,0-0.7,0-1L136.1,99.2z M136.1,99.2L136.1,99.2l0.4,0v0H136.1z M136.1,99.2L136.1,99.2l0.4,0v0H136.1z
		 M136.1,99.2L136.1,99.2l0.4,0v0H136.1z M136.1,99.2L136.1,99.2h0.4l0,0H136.1z M136.1,98.9c0,0.1,0,0.2,0,0.3l0.4,0
		c0-0.1,0-0.2,0-0.3H136.1z M136.1,94.7c0,1.4,0,2.7,0,4.1l0.4,0c0-1.4,0-2.7,0-4.1H136.1z M136.1,86.5c0,2.7,0,5.5,0,8.2h0.4
		c0-2.7,0-5.5,0-8.2L136.1,86.5z M136,85.7c0.1,0.3,0.1,0.5,0.1,0.8h0.4c0-0.3,0-0.6-0.1-0.9L136,85.7z M135,85c0.5,0,0.9,0.3,1,0.7
		l0.4-0.1c-0.2-0.6-0.8-1-1.4-1L135,85z M134,85.7c0.1-0.2,0.2-0.4,0.3-0.5c0.2-0.1,0.4-0.2,0.6-0.2l0-0.4c-0.3,0-0.6,0.1-0.8,0.3
		c-0.2,0.2-0.4,0.4-0.5,0.7L134,85.7z M134,86.5c0-0.3,0-0.6,0.1-0.8l-0.4-0.1c-0.1,0.3-0.1,0.6-0.1,0.9H134z M133.9,99.7
		c0-4.4,0-8.7,0-13.1l-0.4,0c0,4.4,0,8.7,0,13.1H133.9z M132.1,101.6c0.7,0,1.1-0.1,1.5-0.4c0.3-0.3,0.4-0.8,0.4-1.5h-0.4
		c0,0.7-0.1,1-0.3,1.2c-0.2,0.2-0.5,0.3-1.2,0.3L132.1,101.6z M129.8,99.2c0,0.5,0,0.9,0.1,1.2c0.1,0.3,0.2,0.6,0.3,0.8
		c0.2,0.2,0.4,0.3,0.7,0.3c0.3,0.1,0.7,0.1,1.1,0.1v-0.4c-0.5,0-0.8,0-1.1-0.1c-0.3,0-0.4-0.1-0.5-0.2c-0.1-0.1-0.2-0.3-0.2-0.5
		c0-0.3-0.1-0.6-0.1-1.1H129.8z M129.8,72.6v26.6h0.4V72.6H129.8z M129.8,72.5c0,0.1,0,0.1,0,0.2h0.4c0-0.1,0-0.1,0-0.2L129.8,72.5z
		 M129.8,72.5L129.8,72.5l0.4,0v0H129.8z M129.8,71.9c0,0.2,0,0.4,0,0.5l0.4,0c0-0.2,0-0.4,0-0.6L129.8,71.9z M128.8,70.9
		c0.5,0,1,0.4,1,1l0.4,0c-0.1-0.8-0.7-1.4-1.4-1.4L128.8,70.9z M127.7,71.9c0.1-0.6,0.5-1,1-1l0-0.4c-0.8,0-1.4,0.6-1.4,1.4
		L127.7,71.9z M127.7,72.3c0-0.1,0-0.3,0-0.4l-0.4,0c0,0.2,0,0.3,0,0.5L127.7,72.3z M127.7,72.3L127.7,72.3h-0.4l0,0H127.7z
		 M127.7,72.5c0-0.1,0-0.1,0-0.2l-0.4,0c0,0.1,0,0.1,0,0.2H127.7z M127.7,84V72.5h-0.4V84H127.7z M116.9,100.9
		c-1,0.6-1.9,0.9-2.7,0.9c-0.9,0-1.7-0.4-2.3-1l-0.3,0.3c0.8,0.7,1.7,1.1,2.6,1.1c1,0,2-0.3,3-1L116.9,100.9z M117.1,101.2
		L117.1,101.2l-0.2-0.3l0,0L117.1,101.2z M117.1,100.9L117.1,100.9l-0.3,0.3l0.1,0L117.1,100.9z M117.2,100.9L117.2,100.9l-0.2,0.3
		l0,0L117.2,100.9z M117.3,101c-0.1,0-0.1-0.1-0.2-0.1l-0.2,0.3c0.1,0,0.1,0.1,0.2,0.1L117.3,101z M121.2,101.4
		c-1.4,0.7-2.7,0.5-3.9-0.4l-0.2,0.3c1.4,1,2.8,1.2,4.3,0.4L121.2,101.4z M123.3,98.1c0,1.5-0.7,2.6-2,3.3l0.2,0.4
		c1.5-0.7,2.3-2,2.3-3.7L123.3,98.1z M123.3,89.3c0,2.9,0,5.8,0,8.7l0.4,0c0-2.9,0-5.8,0-8.7L123.3,89.3z M122.2,88.2
		c0.3,0,0.6,0.1,0.8,0.3c0.2,0.2,0.3,0.5,0.3,0.9l0.4,0c0-0.5-0.1-0.8-0.4-1.1c-0.3-0.3-0.6-0.4-1.1-0.4L122.2,88.2z M121.1,89.3
		c0-0.4,0.1-0.7,0.3-0.9c0.2-0.2,0.4-0.3,0.8-0.3l0-0.4c-0.4,0-0.8,0.1-1.1,0.4c-0.3,0.3-0.4,0.7-0.4,1.1L121.1,89.3z M121.1,90
		c0-0.2,0-0.5,0-0.7l-0.4,0c0,0.2,0,0.5,0,0.7L121.1,90z M121.1,90.3c0-0.1,0-0.2,0-0.3l-0.4,0c0,0.1,0,0.2,0,0.3H121.1z
		 M121.1,97.6v-7.3h-0.4v7.3H121.1z M121.1,97.7L121.1,97.7l-0.4-0.1v0.1L121.1,97.7z M121.1,97.7L121.1,97.7l-0.4-0.1l0,0.1
		L121.1,97.7z M121.1,98.1c0-0.1,0-0.3,0-0.4l-0.4,0c0,0.1,0,0.2,0,0.3L121.1,98.1z M119.6,99.6c0.8,0,1.4-0.6,1.5-1.5l-0.4,0
		c-0.1,0.7-0.5,1.1-1.1,1.1L119.6,99.6z M118.1,98.1c0,0.9,0.7,1.6,1.5,1.6l0-0.4c-0.6,0-1.1-0.5-1.1-1.2L118.1,98.1z M118.1,95.3
		c0,0.9,0,1.9,0,2.8l0.4,0c0-0.9,0-1.8,0-2.8L118.1,95.3z M118.1,95.3L118.1,95.3l0.4,0v0H118.1z M118.1,95.3L118.1,95.3h0.4l0,0
		H118.1z M118.1,95.3L118.1,95.3l0.4,0v0H118.1z M118.1,95.3L118.1,95.3h0.4l0,0H118.1z M118.1,93.4c0,0.6,0,1.3,0,1.9l0.4,0
		c0-0.6,0-1.3,0-1.9L118.1,93.4z M118,92.7c0.1,0.2,0.1,0.5,0.1,0.8l0.4,0c0-0.3,0-0.6-0.1-0.9L118,92.7z M116.8,92
		c0.6-0.1,1.1,0.2,1.2,0.6l0.4-0.1c-0.2-0.7-0.9-1-1.6-0.9L116.8,92z M115.9,93.1c0-0.6,0.4-1,0.9-1.1l-0.1-0.4
		c-0.7,0.1-1.2,0.7-1.2,1.5L115.9,93.1z M115.9,95.6c0-0.8,0-1.7,0-2.5l-0.4,0c0,0.8,0,1.7,0,2.5L115.9,95.6z M115.9,98.1
		c0-0.8,0-1.7,0-2.5l-0.4,0c0,0.8,0,1.7,0,2.5L115.9,98.1z M114.4,99.6c0.8,0,1.5-0.7,1.5-1.5l-0.4,0c0,0.7-0.5,1.1-1.1,1.1
		L114.4,99.6z M112.9,98.1c0,0.9,0.7,1.5,1.5,1.5l0-0.4c-0.6,0-1.1-0.4-1.1-1.1L112.9,98.1z M112.9,97.7c0,0.1,0,0.3,0,0.5l0.4,0
		c0-0.1,0-0.3,0-0.4L112.9,97.7z M112.9,97.5c0,0,0,0.1,0,0.1l0.4,0c0,0,0-0.1,0-0.2H112.9z M112.9,93.7v3.9h0.4v-3.9H112.9z
		 M112.9,93.7L112.9,93.7l0.4,0v0H112.9z M112.9,93.7L112.9,93.7l0.4,0v0H112.9z M112.9,93.7L112.9,93.7l0.4,0v0H112.9z M112.9,93.7
		L112.9,93.7l0.4,0v0H112.9z M112.9,78.2c0,5.1,0,10.3,0,15.4h0.4c0-5.1,0-10.3,0-15.4L112.9,78.2z M112.8,77.4
		c0.1,0.3,0.1,0.5,0.1,0.8l0.4,0c0-0.3,0-0.6-0.1-0.9L112.8,77.4z M111.7,76.7c0.5,0,0.9,0.3,1.1,0.7l0.4-0.1c-0.2-0.6-0.8-1-1.5-1
		L111.7,76.7z M110.7,77.4c0.1-0.2,0.2-0.4,0.4-0.5c0.2-0.1,0.4-0.2,0.6-0.2l0-0.4c-0.3,0-0.6,0.1-0.9,0.3c-0.2,0.2-0.4,0.4-0.5,0.7
		L110.7,77.4z M110.6,78.1c0-0.3,0-0.5,0.1-0.7l-0.4-0.1c-0.1,0.3-0.1,0.6-0.1,0.8H110.6z M110.6,82.1c0-1.3,0-2.7,0-4l-0.4,0
		c0,1.3,0,2.7,0,4L110.6,82.1z M110.6,82.1L110.6,82.1l-0.4,0v0H110.6z M110.6,82.1L110.6,82.1h-0.4l0,0H110.6z M110.6,82.1
		L110.6,82.1l-0.4,0v0H110.6z M110.6,82.1L110.6,82.1l-0.4,0v0H110.6z M110.6,82.1L110.6,82.1l-0.4,0v0L110.6,82.1z M110.6,83.5
		c0-0.4,0-0.9,0-1.3l-0.4,0c0,0.4,0,0.9,0,1.3H110.6z M110.6,84.1v-0.6h-0.4v0.6H110.6z M108.9,82.7c0,0.5,0.1,0.9,0.3,1.1
		c0.3,0.3,0.6,0.4,1.1,0.5l0.1-0.4c-0.4-0.1-0.7-0.2-0.9-0.4c-0.2-0.2-0.2-0.4-0.2-0.9H108.9z M108.9,81.3l0,1.3l0.4,0l0-1.3
		L108.9,81.3z M108.9,72.8c0,2.8,0,5.7,0,8.5l0.4,0c0-2.8,0-5.7,0-8.5L108.9,72.8z M114.6,67.4c-1.6,0-3,0.6-4,1.5
		c-1,1-1.6,2.3-1.6,3.9l0.4,0c0-1.5,0.6-2.7,1.5-3.6c0.9-0.9,2.2-1.4,3.8-1.4L114.6,67.4z M116.4,67.4c-0.6,0-1.2,0-1.9,0l0,0.4
		c0.6,0,1.2,0,1.9,0L116.4,67.4z M116.4,67.4L116.4,67.4v0.4l0,0V67.4z M116.4,67.4L116.4,67.4v0.4l0,0V67.4z M116.4,67.4
		L116.4,67.4v0.4l0,0V67.4z M116.4,67.4L116.4,67.4l0,0.4h0V67.4z M119.5,67.3c-1,0-2.1,0-3.1,0l0,0.4c1,0,2.1,0,3.1,0L119.5,67.3z
		 M120.7,66.3c0,0.6-0.5,1.1-1.2,1.1l0,0.4c0.9,0,1.5-0.6,1.5-1.5L120.7,66.3z M119.5,65.2c0.7,0,1.1,0.5,1.1,1.1l0.4,0
		c0-0.8-0.7-1.5-1.5-1.5L119.5,65.2z M118.4,65.2c0.4,0,0.8,0,1.1,0l0-0.4c-0.4,0-0.8,0-1.1,0L118.4,65.2z M118.4,65.2L118.4,65.2
		l0-0.4h0L118.4,65.2z M118.4,65.2L118.4,65.2l0-0.4l0,0L118.4,65.2z M118.4,65.2L118.4,65.2l0-0.4h0L118.4,65.2z M118.4,65.2
		L118.4,65.2l0-0.4l0,0L118.4,65.2z M118.4,65.2L118.4,65.2l0-0.4h0V65.2z M118.4,65.2L118.4,65.2v-0.4l0,0V65.2z M118.4,65.2
		L118.4,65.2v-0.4l0,0V65.2z M118.4,65.2L118.4,65.2v-0.4l0,0V65.2z M113.7,65.2c1.5-0.1,3.1,0,4.7,0l0-0.4c-1.6,0-3.1,0-4.7,0
		L113.7,65.2z M106.8,71.6c0.1-1.7,1-3.2,2.2-4.4c1.3-1.2,3-1.9,4.7-2l0-0.4c-1.8,0.1-3.6,0.9-4.9,2.1c-1.3,1.2-2.3,2.9-2.4,4.6
		L106.8,71.6z M106.8,83.1c-0.1-3.8-0.1-7.7,0.1-11.5l-0.4,0c-0.2,3.8-0.2,7.7-0.1,11.5L106.8,83.1z M110,86.5
		c-1.8-0.3-3.2-1.6-3.2-3.3l-0.4,0c0,2,1.6,3.4,3.6,3.7L110,86.5z M110.2,86.5c-0.1,0-0.2,0-0.2,0l-0.1,0.4c0.1,0,0.2,0,0.2,0
		L110.2,86.5z M110.2,86.5L110.2,86.5l-0.1,0.4l0,0L110.2,86.5z M110.2,86.5L110.2,86.5l-0.1,0.4l0,0L110.2,86.5z M110.2,86.5
		L110.2,86.5l-0.1,0.4l0,0L110.2,86.5z M110.5,86.5c-0.1,0-0.2,0-0.2,0l-0.1,0.4c0.1,0,0.2,0,0.2,0L110.5,86.5z M110.6,87.5v-0.7
		h-0.4v0.7H110.6z M110.6,90.6c0-1,0-2.1,0-3.1h-0.4c0,1,0,2.1,0,3.1L110.6,90.6z M110.6,97.9c0-2.4,0-4.9,0-7.3l-0.4,0
		c0,2.4,0,4.9,0,7.3L110.6,97.9z M111.8,100.8c-0.8-0.8-1.2-1.8-1.2-2.9l-0.4,0c0,1.2,0.4,2.3,1.3,3.2L111.8,100.8z M160.6,82.9
		c0,0.3-0.1,0.6-0.3,0.7c-0.2,0.2-0.4,0.3-0.8,0.3l0,0.4c0.4,0,0.8-0.2,1.1-0.4c0.3-0.2,0.4-0.6,0.4-1L160.6,82.9z M160.7,81.1
		c0,0.6,0,1.2,0,1.8l0.4,0c0-0.6,0-1.2,0-1.8L160.7,81.1z M160.7,81.1L160.7,81.1l0.4,0v0H160.7z M160.7,81.1L160.7,81.1l0.4,0v0
		H160.7z M160.7,81.1L160.7,81.1h0.4l0,0H160.7z M160.6,80.4c0,0.2,0,0.4,0,0.7l0.4,0c0-0.2,0-0.4,0-0.7H160.6z M160.6,77.9
		c0,0.8,0,1.7,0,2.5h0.4c0-0.8,0-1.7,0-2.5L160.6,77.9z M160.6,72.9c0,1.7,0,3.3,0,5l0.4,0c0-1.7,0-3.3,0-5L160.6,72.9z M155.3,67.7
		c1.6,0,2.9,0.5,3.9,1.4c0.9,0.9,1.5,2.2,1.5,3.8l0.4,0c0-1.7-0.6-3.1-1.6-4c-1-1-2.4-1.5-4.1-1.5L155.3,67.7z M153.7,67.7
		c0.5,0,1.1,0,1.6,0l0-0.4c-0.5,0-1.1,0-1.6,0L153.7,67.7z M153.7,67.7L153.7,67.7v-0.4l0,0V67.7z M153.7,67.7L153.7,67.7v-0.4l0,0
		V67.7z M153.7,67.7L153.7,67.7v-0.4l0,0V67.7z M150.5,67.7c1.1,0,2.1,0,3.2,0v-0.4c-1.1,0-2.1,0-3.2,0L150.5,67.7z M149,66.6
		c0.1,0.3,0.3,0.6,0.5,0.8c0.3,0.2,0.6,0.3,1,0.3l0-0.4c-0.3,0-0.6-0.1-0.7-0.2c-0.2-0.1-0.3-0.3-0.4-0.6L149,66.6z M149.7,65
		c-0.6,0.3-0.8,1-0.7,1.6l0.4-0.1c-0.1-0.5,0.1-1,0.5-1.2L149.7,65z M150.6,64.8c-0.3,0-0.7,0.1-1,0.2l0.2,0.4
		c0.2-0.1,0.5-0.2,0.8-0.2L150.6,64.8z M155.6,64.8c-1.7,0-3.3,0-5,0l0,0.4c1.7,0,3.3,0,5,0L155.6,64.8z M163.7,72.6
		c-0.1-4.4-3.6-7.7-8-7.8l0,0.4c4.3,0,7.6,3.2,7.6,7.4L163.7,72.6z M163.7,82.8c0-3.4,0.1-6.8,0-10.2l-0.4,0c0.1,3.4,0,6.8,0,10.2
		L163.7,82.8z M159.6,86.9c1.3-0.2,2.3-0.6,3-1.3c0.7-0.7,1.1-1.7,1.1-2.8l-0.4,0c0,1-0.4,1.9-1,2.5c-0.6,0.6-1.6,1.1-2.7,1.2
		L159.6,86.9z M159.8,87.4v-0.7h-0.4v0.7H159.8z M159.8,90.5c0-1,0-2.1,0-3.1h-0.4c0,1,0,2.1,0,3.1L159.8,90.5z M159.8,98
		c0-2.5,0-5,0-7.4l-0.4,0c0,2.5,0,5,0,7.4L159.8,98z M155.4,102.2c2.4,0.2,4.3-1.7,4.3-4.2l-0.4,0c0,2.3-1.7,4-3.9,3.8L155.4,102.2z
		 M153.6,101.7c0.6,0.2,1.2,0.4,1.8,0.5l0-0.4c-0.5,0-1.1-0.2-1.7-0.5L153.6,101.7z M153.6,101.7L153.6,101.7l0.2-0.4l0,0
		L153.6,101.7z M153.6,101.7L153.6,101.7l0.2-0.4l0,0L153.6,101.7z M153.6,101.7L153.6,101.7l0.1-0.4l0,0L153.6,101.7z M152.8,101.4
		c0.3,0.1,0.6,0.2,0.9,0.3l0.1-0.4c-0.3-0.1-0.6-0.2-0.9-0.3L152.8,101.4z M149.4,102.1c1.4,0.3,2.6,0,3.5-0.7l-0.2-0.3
		c-0.8,0.6-1.9,1-3.2,0.7L149.4,102.1z M146.3,98.3c0,1.8,1.4,3.3,3.1,3.7l0.1-0.4c-1.6-0.4-2.8-1.8-2.8-3.3L146.3,98.3z
		 M146.3,90.3c0,2.7,0,5.4,0,8l0.4,0c0-2.7,0-5.3,0-8L146.3,90.3z M146.3,90.3L146.3,90.3l0.4,0v0H146.3z M146.3,89.3l0,1l0.4,0l0-1
		L146.3,89.3z M147.8,87.8c-0.4,0-0.8,0.1-1.1,0.4c-0.3,0.3-0.4,0.7-0.4,1.1l0.4,0c0-0.4,0.1-0.6,0.3-0.8c0.2-0.2,0.5-0.3,0.8-0.3
		L147.8,87.8z M149.3,89.3c0-0.4-0.1-0.8-0.4-1.1c-0.3-0.3-0.6-0.4-1.1-0.4l0,0.4c0.3,0,0.6,0.1,0.8,0.3c0.2,0.2,0.3,0.5,0.3,0.8
		L149.3,89.3z M149.3,95c0-1.9,0-3.8,0-5.7l-0.4,0c0,1.9,0,3.8,0,5.7L149.3,95z M149.3,95L149.3,95l-0.4,0v0H149.3z M149.3,95
		L149.3,95l-0.4,0v0H149.3z M149.3,95L149.3,95h-0.4l0,0H149.3z M149.3,95L149.3,95l-0.4,0v0H149.3z M149.3,97.7c0-0.9,0-1.8,0-2.6
		l-0.4,0c0,0.9,0,1.8,0,2.6L149.3,97.7z M150.4,99.2c-0.4,0-0.6-0.1-0.8-0.4c-0.2-0.3-0.3-0.7-0.3-1.2h-0.4c0,0.6,0.1,1.1,0.4,1.4
		c0.3,0.4,0.7,0.5,1.2,0.5L150.4,99.2z M151.5,97.7c0,0.5-0.1,0.9-0.3,1.2c-0.2,0.2-0.4,0.4-0.8,0.4l0,0.4c0.5,0,0.9-0.2,1.1-0.5
		c0.3-0.3,0.4-0.8,0.4-1.4H151.5z M151.5,96.9v0.8h0.4v-0.8L151.5,96.9z M151.5,96.3v0.6l0.4,0v-0.6L151.5,96.3z M151.5,93.4
		c0,1,0,1.9,0,2.9l0.4,0c0-1,0-1.9,0-2.9L151.5,93.4z M153.1,91.6c-0.5,0-0.9,0.1-1.1,0.5c-0.3,0.3-0.4,0.8-0.4,1.3l0.4,0
		c0-0.5,0.1-0.8,0.3-1.1c0.2-0.2,0.4-0.3,0.8-0.3L153.1,91.6z M154.5,93.4c0-0.5-0.1-1-0.4-1.3c-0.3-0.3-0.6-0.5-1.1-0.5l0,0.4
		c0.4,0,0.6,0.1,0.8,0.3c0.2,0.2,0.3,0.6,0.3,1L154.5,93.4z M154.5,95c0-0.5,0-1.1,0-1.7l-0.4,0c0,0.5,0,1.1,0,1.6L154.5,95z
		 M154.5,98.2c0-1,0-2.1,0-3.1l-0.4,0c0,1,0,2.1,0,3.1L154.5,98.2z M155.6,99.2c-0.6-0.1-1-0.5-1-1.1l-0.4,0c0,0.8,0.6,1.4,1.4,1.5
		L155.6,99.2z M156.7,98.5c-0.1,0.5-0.6,0.8-1.1,0.8l0,0.4c0.7,0.1,1.4-0.4,1.6-1.1L156.7,98.5z M156.7,97.8c0,0.3,0,0.5,0,0.7
		l0.4,0.1c0.1-0.3,0.1-0.5,0.1-0.8L156.7,97.8z M156.7,97.7L156.7,97.7l0.4,0.1v-0.1L156.7,97.7z M156.7,88.5c0,3.1,0,6.2,0,9.2
		l0.4,0c0-3.1,0-6.2,0-9.2L156.7,88.5z M156.7,88.5L156.7,88.5l0.4,0v0H156.7z M156.7,88.5L156.7,88.5l0.4,0v0H156.7z M156.7,88.5
		L156.7,88.5l0.4,0v0H156.7z M156.7,85.4v3.1h0.4v-3.1L156.7,85.4z M156.7,83.3c0,0.7,0,1.4,0,2.1h0.4c0-0.7,0-1.4,0-2.1L156.7,83.3
		z M156.7,78c0,1.8,0,3.5,0,5.3l0.4,0c0-1.8,0-3.5,0-5.3L156.7,78z M158,76.3c-0.4,0.1-0.7,0.2-0.9,0.5c-0.2,0.3-0.3,0.7-0.3,1.2
		l0.4,0c0-0.4,0.1-0.7,0.2-0.9c0.2-0.2,0.4-0.3,0.7-0.4L158,76.3z M159.8,77.9c0-0.5-0.2-1-0.5-1.3c-0.3-0.3-0.8-0.4-1.3-0.3
		l0.1,0.4c0.4-0.1,0.7,0,0.9,0.2c0.2,0.2,0.4,0.5,0.4,1L159.8,77.9z M159.8,81.8c0-1.3,0-2.6,0-3.9l-0.4,0c0,1.3,0,2.6,0,3.9
		L159.8,81.8z M159.8,81.8L159.8,81.8l-0.4,0v0H159.8z M159.8,81.8L159.8,81.8l-0.4,0v0H159.8z M159.8,81.8L159.8,81.8l-0.4,0v0
		H159.8z M159.8,83.4c0-0.5,0-1.1,0-1.6l-0.4,0c0,0.5,0,1.1,0,1.6H159.8z M159.8,84.1v-0.6h-0.4v0.6H159.8z M159.5,83.9L159.5,83.9
		l0.2,0.4l0,0L159.5,83.9z M147.3,57.5c0,3.2,2.5,5.7,5.7,5.7l0-0.4c-2.9,0-5.3-2.3-5.3-5.3L147.3,57.5z M152.9,51.8
		c-3.1,0-5.7,2.6-5.6,5.7l0.4,0c0-2.9,2.3-5.3,5.3-5.3L152.9,51.8z M158.7,57.5c0-3.2-2.6-5.7-5.8-5.7l0,0.4c2.9,0,5.4,2.4,5.3,5.3
		L158.7,57.5z M153,63.2c3.1,0,5.7-2.5,5.7-5.7l-0.4,0c0,2.9-2.4,5.3-5.3,5.3L153,63.2z M153,63.2L153,63.2l0-0.4h0V63.2z
		 M155.6,57.5c0,1.4-1.2,2.6-2.6,2.6v0.4c1.6,0,3-1.3,3-3L155.6,57.5z M153,54.9c1.4,0,2.6,1.2,2.6,2.6h0.4c0-1.6-1.4-3-3-3
		L153,54.9z M150.4,57.5c0-1.4,1.2-2.6,2.6-2.6v-0.4c-1.6,0-3,1.3-3,3H150.4z M153,60.1c-1.4,0-2.6-1.1-2.6-2.6H150c0,1.6,1.3,3,3,3
		V60.1z M117,62.8c-2.9,0-5.3-2.3-5.3-5.3l-0.4,0c0,3.1,2.6,5.7,5.7,5.7L117,62.8z M122.3,57.5c0,2.9-2.3,5.3-5.3,5.3l0,0.4
		c3.2,0,5.7-2.5,5.7-5.7H122.3z M117,52.2c2.9,0,5.3,2.4,5.3,5.3l0.4,0c0-3.2-2.5-5.7-5.7-5.7L117,52.2z M111.7,57.5
		c0-2.9,2.4-5.3,5.3-5.3l0-0.4c-3.2,0-5.7,2.6-5.7,5.7L111.7,57.5z M120,57.5c0-1.6-1.3-3-3-3v0.4c1.4,0,2.6,1.2,2.6,2.6L120,57.5z
		 M117,60.5c1.6,0,2.9-1.3,3-3l-0.4,0c0,1.4-1.1,2.6-2.6,2.6V60.5z M114,57.5c0,1.6,1.3,3,3,2.9v-0.4c-1.4,0-2.6-1.2-2.6-2.5
		L114,57.5z M117,54.5c-1.6,0-3,1.4-3,3l0.4,0c0-1.4,1.2-2.6,2.6-2.6V54.5z"/>
</g>
</svg>
