<svg width="700" height="400" viewBox="0 0 700 400" fill="none" xmlns="http://www.w3.org/2000/svg">
<mask id="mask0_280_9863" style="mask-type:alpha" maskUnits="userSpaceOnUse" x="0" y="0" width="700" height="400">
<rect width="700" height="400" rx="20" fill="white"/>
</mask>
<g mask="url(#mask0_280_9863)">
<path d="M197.56 351.773C252.537 361.219 371.485 366.035 431.459 379C459.28 372.517 536.414 351.773 595.388 289.541C654.676 226.977 651.864 145.072 636.87 107.843C624.376 67.4659 586.392 -1.06421 509.925 45.6103C437.014 90.1141 361.489 95.0632 288.52 45.6103C263.532 19.4948 190.064 6.71486 128.59 45.6103C50.9049 94.7629 42.1269 174.521 65.117 251.201C73.6133 298.987 143.6 342.502 197.56 351.773Z" fill="#FEFCEB"/>
<path d="M331.409 289.196C330.358 290.948 329.383 292.736 328.451 294.551C327.4 289.96 326.306 285.418 325.178 280.904C326.65 284.023 330.218 285.719 331.402 289.196H331.409Z" fill="#FCF1B0"/>
<path d="M520.678 255.064C520.587 261.835 520.251 268.614 519.697 275.371C506.729 258.961 483.696 253.2 463.467 254.847C449.14 255.968 456.143 261.885 450.5 267.5C448.776 269.224 448.818 278.504 447.5 276.633C442.607 269.721 437.474 322.458 429 322.5C415.64 322.556 347.29 293.633 331.29 276.633C315.29 259.633 318.521 311.095 316.79 309.133C315.542 307.71 311.018 280.574 311.018 278.633C310.955 266.247 311.081 224.103 311.018 211.718C310.99 204.989 311.004 198 313.927 191.944C318.624 182.201 331.892 180.491 341.313 177.75C354.33 173.986 367.522 170.712 380.966 169.016C382.326 168.848 383.461 170.025 383.272 171.385C380.896 191.432 426.058 191.306 426.058 173.096C426.058 172.507 426.275 171.561 426.38 171.091C426.653 169.759 428.104 169.072 429.345 169.668C434.896 172.346 446.841 175.633 449.883 176.776C459.409 180.364 471.598 183.21 481.278 187.115C488.743 190.115 496.496 192.203 503.021 197.285C520.412 210.912 520.917 234.779 520.671 255.043L520.678 255.064Z" fill="#CE4C7A"/>
<path d="M520.678 255.064L521.678 255.078L521.68 254.908L521.627 254.748L520.678 255.064ZM519.697 275.371L518.912 275.991L520.486 277.982L520.694 275.452L519.697 275.371ZM463.467 254.847L463.545 255.844L463.548 255.844L463.467 254.847ZM450.5 267.5L449.795 266.791L449.793 266.793L450.5 267.5ZM447.5 276.633L448.318 276.057L448.316 276.055L447.5 276.633ZM429 322.5L429.004 323.5H429.005L429 322.5ZM316.79 309.133L316.038 309.792L316.04 309.794L316.79 309.133ZM311.018 278.633H312.018L312.018 278.628L311.018 278.633ZM311.018 211.718L310.018 211.722L310.018 211.723L311.018 211.718ZM313.927 191.944L314.828 192.379L314.828 192.378L313.927 191.944ZM341.313 177.75L341.035 176.789L341.034 176.79L341.313 177.75ZM380.966 169.016L380.843 168.024L380.84 168.024L380.966 169.016ZM383.272 171.385L382.281 171.247L382.28 171.257L382.279 171.268L383.272 171.385ZM426.38 171.091L427.356 171.309L427.358 171.301L427.36 171.292L426.38 171.091ZM429.345 169.668L429.779 168.767L429.778 168.767L429.345 169.668ZM449.883 176.776L450.235 175.84L450.234 175.839L449.883 176.776ZM481.278 187.115L480.904 188.042L480.905 188.042L481.278 187.115ZM503.021 197.285L503.638 196.498L503.636 196.496L503.021 197.285ZM520.671 255.043L519.671 255.031L519.669 255.2L519.723 255.36L520.671 255.043ZM519.678 255.051C519.588 261.798 519.252 268.553 518.7 275.289L520.694 275.452C521.249 268.674 521.587 261.873 521.678 255.078L519.678 255.051ZM520.482 274.751C507.229 257.981 483.801 252.188 463.386 253.85L463.548 255.844C483.591 254.212 506.23 259.942 518.912 275.991L520.482 274.751ZM463.389 253.85C459.759 254.134 457.34 254.729 455.706 255.633C454.003 256.575 453.213 257.819 452.775 259.183C452.566 259.833 452.438 260.508 452.321 261.145C452.202 261.799 452.093 262.421 451.925 263.056C451.598 264.29 451.051 265.541 449.795 266.791L451.205 268.209C452.77 266.652 453.464 265.058 453.858 263.568C454.051 262.841 454.174 262.131 454.289 261.505C454.406 260.861 454.515 260.305 454.679 259.794C454.986 258.837 455.484 258.041 456.674 257.383C457.933 256.686 460.012 256.12 463.545 255.844L463.389 253.85ZM449.793 266.793C449.436 267.15 449.187 267.63 449.002 268.092C448.81 268.57 448.652 269.119 448.517 269.685C448.247 270.813 448.043 272.119 447.86 273.256C447.67 274.441 447.51 275.385 447.332 275.926C447.29 276.053 447.259 276.121 447.244 276.147C447.219 276.192 447.263 276.088 447.417 275.994C447.642 275.857 447.931 275.845 448.161 275.954C448.317 276.028 448.361 276.119 448.318 276.057L446.682 277.209C446.804 277.381 447.002 277.618 447.303 277.761C447.678 277.939 448.103 277.918 448.456 277.703C448.738 277.531 448.903 277.28 448.993 277.118C449.093 276.938 449.17 276.74 449.232 276.55C449.471 275.823 449.655 274.69 449.835 273.573C450.022 272.409 450.213 271.189 450.462 270.15C450.585 269.633 450.717 269.188 450.858 268.836C451.006 268.468 451.133 268.281 451.207 268.207L449.793 266.793ZM448.316 276.055C447.939 275.522 447.363 274.991 446.558 275.009C445.793 275.025 445.234 275.535 444.867 275.993C444.115 276.932 443.434 278.591 442.787 280.567C441.469 284.589 440.091 290.592 438.621 296.726C437.142 302.897 435.565 309.223 433.837 314.004C432.972 316.4 432.09 318.346 431.197 319.677C430.264 321.067 429.517 321.497 428.995 321.5L429.005 323.5C430.602 323.492 431.868 322.266 432.858 320.791C433.887 319.256 434.835 317.129 435.718 314.683C437.49 309.78 439.091 303.346 440.566 297.192C442.05 291 443.402 285.112 444.687 281.189C445.342 279.192 445.931 277.864 446.429 277.243C446.687 276.92 446.748 277.005 446.6 277.008C446.412 277.012 446.449 276.879 446.684 277.211L448.316 276.055ZM428.996 321.5C427.462 321.506 425.038 321.09 421.871 320.274C418.728 319.465 414.928 318.282 410.675 316.803C402.171 313.845 391.903 309.715 381.545 305.051C371.188 300.386 360.757 295.193 351.927 290.113C343.07 285.017 335.91 280.083 332.018 275.947L330.561 277.318C334.67 281.683 342.053 286.739 350.929 291.846C359.832 296.968 370.324 302.19 380.724 306.874C391.124 311.558 401.448 315.711 410.018 318.692C414.302 320.182 418.158 321.383 421.373 322.211C424.563 323.033 427.198 323.508 429.004 323.5L428.996 321.5ZM332.018 275.947C329.967 273.768 328.075 272.516 326.297 272.241C324.412 271.949 322.892 272.784 321.745 274.18C320.63 275.538 319.802 277.487 319.166 279.685C318.525 281.901 318.053 284.461 317.698 287.111C316.987 292.41 316.727 298.171 316.537 302.448C316.441 304.601 316.364 306.355 316.258 307.511C316.203 308.108 316.147 308.466 316.1 308.631C316.09 308.666 316.088 308.664 316.1 308.64C316.105 308.629 316.155 308.52 316.282 308.41C316.439 308.273 316.722 308.136 317.067 308.206C317.349 308.264 317.502 308.429 317.54 308.471L316.04 309.794C316.131 309.898 316.336 310.098 316.667 310.166C317.062 310.246 317.392 310.095 317.595 309.918C317.767 309.769 317.86 309.596 317.906 309.498C317.959 309.387 317.996 309.275 318.024 309.178C318.128 308.813 318.195 308.284 318.249 307.694C318.361 306.478 318.44 304.666 318.535 302.536C318.725 298.247 318.983 292.573 319.68 287.377C320.029 284.779 320.484 282.326 321.088 280.241C321.696 278.137 322.431 276.496 323.29 275.45C324.117 274.443 324.983 274.061 325.991 274.217C327.105 274.389 328.612 275.247 330.561 277.318L332.018 275.947ZM317.542 308.474C317.603 308.544 317.566 308.526 317.458 308.233C317.37 307.992 317.266 307.657 317.147 307.228C316.912 306.372 316.637 305.209 316.339 303.829C315.743 301.071 315.063 297.499 314.42 293.901C313.778 290.306 313.175 286.695 312.733 283.863C312.511 282.447 312.331 281.229 312.206 280.308C312.076 279.35 312.018 278.792 312.018 278.633H310.018C310.018 278.959 310.102 279.674 310.224 280.577C310.351 281.517 310.534 282.749 310.757 284.172C311.201 287.019 311.807 290.644 312.452 294.253C313.096 297.86 313.781 301.46 314.384 304.251C314.685 305.645 314.969 306.85 315.219 307.759C315.344 308.212 315.465 308.607 315.58 308.921C315.676 309.183 315.82 309.544 316.038 309.792L317.542 308.474ZM312.018 278.628C311.987 272.439 312.002 258.811 312.018 245.176C312.034 231.546 312.05 217.91 312.018 211.713L310.018 211.723C310.05 217.912 310.034 231.54 310.018 245.174C310.002 258.804 309.987 272.441 310.018 278.638L312.018 278.628ZM312.018 211.714C311.99 204.942 312.022 198.193 314.828 192.379L313.027 191.509C309.987 197.808 309.99 205.035 310.018 211.722L312.018 211.714ZM314.828 192.378C317.016 187.84 321.228 185.103 326.213 183.152C331.247 181.183 336.752 180.118 341.593 178.71L341.034 176.79C336.453 178.122 330.613 179.283 325.484 181.29C320.306 183.316 315.535 186.305 313.026 191.51L314.828 192.378ZM341.591 178.711C354.586 174.953 367.721 171.695 381.091 170.008L380.84 168.024C367.322 169.73 354.073 173.019 341.035 176.789L341.591 178.711ZM381.088 170.009C381.78 169.923 382.382 170.522 382.281 171.247L384.262 171.523C384.54 169.528 382.871 167.773 380.843 168.024L381.088 170.009ZM382.279 171.268C381.63 176.737 384.264 180.827 388.411 183.51C392.515 186.165 398.138 187.486 403.756 187.587C409.377 187.688 415.128 186.571 419.512 184.211C423.907 181.844 427.058 178.14 427.058 173.096H425.058C425.058 177.157 422.563 180.297 418.564 182.45C414.555 184.608 409.164 185.684 403.792 185.587C398.416 185.49 393.193 184.222 389.498 181.831C385.846 179.469 383.725 176.057 384.265 171.503L382.279 171.268ZM427.058 173.096C427.058 172.645 427.239 171.829 427.356 171.309L425.404 170.872C425.31 171.292 425.058 172.369 425.058 173.096H427.058ZM427.36 171.292C427.496 170.628 428.229 170.241 428.912 170.569L429.778 168.767C427.979 167.903 425.811 168.89 425.4 170.89L427.36 171.292ZM428.911 170.569C431.759 171.942 436.198 173.453 440.25 174.75C444.36 176.065 448.04 177.152 449.531 177.712L450.234 175.839C448.684 175.257 444.87 174.128 440.86 172.845C436.791 171.543 432.483 170.071 429.779 168.767L428.911 170.569ZM449.53 177.711C454.332 179.52 459.799 181.14 465.233 182.784C470.686 184.433 476.112 186.109 480.904 188.042L481.652 186.187C476.764 184.216 471.256 182.516 465.812 180.87C460.35 179.217 454.96 177.62 450.235 175.84L449.53 177.711ZM480.905 188.042C488.516 191.101 496.029 193.107 502.407 198.074L503.636 196.496C496.963 191.3 488.971 189.128 481.651 186.187L480.905 188.042ZM502.405 198.072C510.862 204.699 515.247 213.834 517.484 223.892C519.725 233.969 519.794 244.895 519.671 255.031L521.671 255.055C521.794 244.927 521.733 233.787 519.436 223.458C517.134 213.11 512.572 203.498 503.638 196.498L502.405 198.072ZM519.723 255.36L519.73 255.381L521.627 254.748L521.62 254.727L519.723 255.36Z" fill="black"/>
<path d="M172.014 225.802C172.014 225.802 170.921 135.773 258.399 131.763V173.372C258.399 173.077 256.149 172.208 255.91 172.103C239.081 164.575 234.286 180.157 237.889 188.638C238.394 189.823 238.695 190.818 239.571 191.785C244.218 196.916 251.221 195.43 257.403 192.311L258.399 225.795H232.365C229.646 225.795 226.148 224.996 223.751 226.665C221.073 228.522 221.361 231.641 221.991 234.494C222.279 235.777 222.685 237.032 223.169 238.258C226.737 247.293 215.199 247.714 215.199 247.714C213.223 247.917 211.001 247.448 209.297 246.438C206.234 244.623 205.295 240.599 206.732 237.41C207.321 236.113 208.26 234.992 208.716 233.639C209.304 231.901 208.975 229.875 207.86 228.41C205.687 225.557 201.671 226.006 198.475 225.985C192.986 225.943 177.846 225.837 172 225.795L172.014 225.802Z" fill="#87AB99" stroke="black" stroke-width="2" stroke-linejoin="round"/>
<path d="M172.015 229.202C173.122 232.728 174.818 255.368 198.482 291.755C206.382 303.909 205.225 302.143 211.345 324.447H258.399V280.652C260.075 279.635 262.198 278.633 264.189 278.64C265.696 278.64 266.593 280.14 267.897 280.834C271.563 282.782 275.748 282.046 278.572 279.404C280.101 277.974 280.36 275.71 280.423 273.677C280.465 272.38 280.283 271.077 279.841 269.857C279.512 268.953 279.147 267.831 278.636 267.018C275.846 262.602 269.404 261.656 264.911 266.85C263.979 267.929 261.946 266.114 260.789 265.434C259.997 264.964 259.198 264.495 258.406 264.032V230.085L225.371 229.195C227.228 232.875 229.555 237.494 229.268 241.714C229.023 245.268 226.233 248.149 223.24 249.768C213.833 254.85 202.387 249.88 201.104 243.922C200.536 241.293 201.503 239.17 204.412 230.443C204.398 230.443 172.029 229.202 172.015 229.202Z" fill="#87AB99" stroke="black" stroke-width="2" stroke-linejoin="round"/>
<path d="M314.733 83.4123C314.733 83.4123 365.741 109.151 360.617 167.414C360.617 167.414 359.959 182.155 349.662 206.036C348.764 205.594 319.703 191.281 319.409 191.148C323.614 189.283 327.231 185.708 328.451 181.187C329.608 176.905 327.785 171.746 324.554 168.788C320.741 165.297 314.712 164.477 310.107 166.832C307.219 168.304 305.018 170.96 303.918 173.989C302.151 178.86 304.324 180.725 301.955 182.526L272.088 167.848C287.025 137.729 286.464 138.857 286.794 138.198C287.831 136.102 287.319 133.923 285.273 132.535C282.7 130.789 279.35 131.238 276.483 130.207C273.083 128.988 270.609 125.539 270.532 121.922C270.462 118.305 272.796 114.766 276.146 113.406C279.497 112.046 283.64 112.964 286.107 115.607C287.144 116.714 287.88 118.067 288.826 119.259C290.172 120.941 292.85 122.735 294.995 121.369C298.093 119.392 314.74 83.4123 314.74 83.4123H314.733Z" fill="#FADF4F" stroke="black" stroke-width="2" stroke-linejoin="round"/>
<path d="M360.933 230.387C357.33 242.583 349.963 262.371 342.26 277.672C340.578 276.018 338.755 274.462 336.631 273.418C334.171 272.212 331.22 271.784 328.682 272.836C326.145 273.859 324.245 276.6 324.673 279.292C325.038 281.675 326.965 283.448 328.647 285.166C330.33 286.883 331.984 289.063 331.598 291.453C331.22 293.78 329.166 295.189 329.762 298.946C327.119 303.306 324.897 307.28 324.091 312.755C323.46 317.024 321.932 321.51 320.881 325.631L273.539 326.591C274.037 313.491 275.095 285.292 275.116 285.208C275.516 283.708 277.577 284.885 278.663 285.348C282.238 286.813 287.102 289.385 290.649 286.645C298.009 280.974 299.187 270.558 293.495 263.429C290.824 260.1 282.911 258.488 277.226 262.111C276.048 262.847 275.025 264.13 274.583 262.062C274.338 260.948 274.569 263.597 273.546 230.38H310.156C310.156 230.38 311.551 222.809 311.565 222.746C311.565 222.732 310.1 221.982 309.988 221.919C305.243 218.716 305.117 212.351 309.238 209.015C311.916 206.87 316.956 206.071 320.138 206.982C325.052 208.321 328.241 213.746 326.285 219.031C325.206 221.961 323.867 222.101 323.825 223.223C323.769 224.344 324.133 224.688 325.353 229.644L360.94 230.38L360.933 230.387Z" fill="#87AB99" stroke="black" stroke-width="2" stroke-linejoin="round"/>
<path d="M354 82.5V65.5L358.5 57.5L370 47.5L381 42L401 35C408.6 53.4 413.167 58.3333 414.5 58.5C417 62.5 435 70.5 439 72.5C443 74.5 445 78 447.5 81.5C449.5 84.3 452 83 453 82L458 78C459.334 76.6667 462.9 73.7 466.5 72.5C470.1 71.3 473.334 73.6667 474.5 75C475.167 75.6667 476.8 78.2 478 83C479.2 87.8 476.834 92 475.5 93.5C474.667 94.6667 471.8 97.3 467 98.5C461 100 455.5 97 454 97C452.8 97 451.834 98.3333 451.5 99C450.334 102 447.2 109.9 444 117.5C440.8 125.1 432 135.333 428 139.5C426.697 141.293 424.062 143.938 420.353 146.127L425.5 165V170C425.596 171.418 425.272 172.653 425 174.5C424.418 176.582 423.92 177.687 422.5 179.5C421.324 180.798 420.498 181.472 418.5 182.5C416.159 183.696 414.642 184.292 411 185C407.897 185.609 406.198 185.708 403 185.5C399.279 185.437 396.483 185.026 393.5 184C390.685 183.269 389.977 182.448 386.5 179.5C384.729 176.433 383.965 174.972 383.462 173.338L388.594 146.402C386.632 145.516 385.257 144.64 384.5 144C382.334 142.5 376.7 138.1 371.5 132.5C366.3 126.9 359.334 107.5 356.5 98.5L354 82.5Z" fill="#FFD7B1"/>
<path d="M352.802 75.6808C353.678 95.4125 357.744 112.319 368.342 130.039C372.933 137.722 379.55 143.427 387.043 146.841L379.5 182.112C379.395 182.785 379.793 183.5 380.5 183.5C381.047 183.5 381.416 182.666 381.5 182.112L389.181 147.745C399.422 151.726 410.322 151.341 419.89 146.974C425.911 171.823 420.03 148.993 426.303 173.049C426.338 172.713 426.416 174.386 426.5 174L428.967 181.313C429.128 181.923 429.752 182.274 430.341 182.112C430.944 181.951 431.301 181.341 431.14 180.739L428.266 169.874C428.687 169.804 429.135 169.846 429.556 170.049C435.107 172.727 447.051 176.014 450.094 177.157C459.619 180.746 471.809 183.592 481.489 187.496C488.646 190.37 496.09 192.416 502.391 197.036C503.415 196.3 504.333 195.416 505.097 194.358C508.812 189.22 507.957 182.091 502.496 172.566C497.463 163.713 484.082 151.348 488.323 125.055C491.022 108.058 501.865 84.3445 467.526 32.7058C447.178 2.16559 411.31 -5.81819 388.543 15.077C383.959 19.2687 378.31 19.6121 372.443 22.2337C359.461 28.0515 351.113 38.9583 348.926 54.8067C347.762 63.232 349.585 68.384 352.487 75.2673C352.557 75.4285 352.669 75.5617 352.802 75.6738V75.6808ZM417.745 22.1075C418.313 21.8762 418.986 22.1706 419.196 22.7524C425.343 38.762 438.738 51.5473 455.007 56.9586C455.603 57.1548 455.925 57.7857 455.743 58.3815C455.512 59.0404 454.776 59.2997 454.306 59.1035C437.392 53.4749 423.493 40.1849 417.1 23.5655C416.869 22.9837 417.163 22.3248 417.745 22.1145V22.1075ZM372.022 48.0145C381.338 41.1031 388.964 41.0331 400.481 35.9512C402.394 45.5051 409.432 57.3511 419.764 63.8419C428.511 69.2882 440.715 72.0289 445.867 80.9379C446.477 81.9753 447.185 83.188 448.636 83.6926C450.717 84.4146 453.009 83.216 453.668 82.8235C455.953 81.4777 454.418 81.8702 462.739 75.4215C467.099 71.9308 475.201 71.4401 477.038 83.4333C477.662 87.3446 476.561 91.2348 474.227 93.59C470.582 97.2349 462.479 98.3284 457.587 96.6321C456.29 96.1414 454.804 95.6087 453.367 95.8961C451.089 96.3237 450.199 98.5877 449.547 100.242C444.907 113.385 439.411 123.92 428.378 136.6C425.855 139.32 422.21 143.441 419.203 144.836C401.637 153.002 380.609 146.14 370.284 128.89C362.398 115.705 357.421 101.02 355.907 86.4333C353.363 61.9913 353.594 61.5988 372.029 48.0145H372.022Z" fill="black"/>
<path d="M444 284.91C445.234 281.244 461.874 250.076 453 258.41C439.521 271.076 414.21 300.593 402 314.5C411.722 313.652 420.278 325.258 430 324.41C431.079 324.319 441.694 291.3 442.5 288.91L444 284.91Z" fill="black"/>
<path d="M288.182 373.436C288.147 372.84 287.656 372.377 287.061 372.377H232.176C231.581 372.377 231.083 372.84 231.055 373.436C230.172 383.838 241.513 395.607 259.619 395.607C277.724 395.607 289.058 383.719 288.182 373.436Z" fill="black"/>
<path d="M301.717 330.748H218.262C214.728 330.748 211.862 333.613 211.862 337.148V339.664C211.862 343.199 214.728 346.064 218.262 346.064H301.717C305.251 346.064 308.116 343.199 308.116 339.664V337.148C308.116 333.613 305.251 330.748 301.717 330.748Z" fill="black"/>
<path d="M293.943 352.05H225.111C221.576 352.05 218.711 354.915 218.711 358.45V360.966C218.711 364.5 221.576 367.366 225.111 367.366H293.943C297.478 367.366 300.343 364.5 300.343 360.966V358.45C300.343 354.915 297.478 352.05 293.943 352.05Z" fill="black"/>
<path d="M329 300.5C325 306.1 323.667 313.5 323.5 316.5L330 320C336.8 329.2 357 349.667 367 359C383.258 377.356 414.13 392.905 427.5 395C467.545 405.671 491.777 377.665 495.5 359.5C499.224 341.335 518.971 275 518.971 275C498.724 254.374 471.3 251.675 455.5 257.5L424.5 320L381 303.5L364.5 296.5L353 292L346.5 283.5L342.5 277.5L335.5 272.5H329L325 276V280.5L330 286L331.5 290L330.5 294.5L329 300.5Z" fill="#FFD7B1"/>
<path d="M518.971 275.007C518.361 274.839 517.751 275.203 517.597 275.799L501.314 336.739C497.613 350.639 493.421 366.389 483.909 378.488C465.65 401.654 432.404 397.988 409.483 387.803C381.354 375.312 359.19 351.375 338.926 328.041C336.157 324.921 328.407 318.491 323.5 316.5C323.346 317.236 323.182 317.771 323 318.5C327.745 320.322 335.077 327.122 337.257 329.534C340.601 333.41 349.328 344.183 363.774 358.069C386.366 379.798 413.59 397.981 444.944 397.981C460.266 397.981 475.267 393.088 485.683 379.875C495.468 367.427 499.737 351.431 503.48 337.314L519.763 276.374C519.917 275.778 519.566 275.147 518.971 275V275.007Z" fill="black"/>
<path d="M327.842 285.944C332.244 290.472 330.141 291.881 329.062 294.755C327.548 298.771 329.489 303.502 332.713 306.341C335.847 309.131 339.856 310.477 343.396 311.668C343.978 311.865 344.623 311.556 344.819 310.96C345.015 310.372 344.7 309.734 344.111 309.538C340.774 308.416 336.996 307.147 334.207 304.659C331.711 302.458 329.994 298.659 331.171 295.547C331.844 293.731 333.449 291.979 332.475 288.839C331.073 284.724 325.739 282.117 325.739 278.633C325.69 276.698 327.106 274.7 329.111 273.88C333.688 271.988 338.622 275.401 341.994 279.032C342.807 280.042 343.501 281.717 344.3 282.81C346.564 285.86 349.62 289.077 350.532 290.563C351.134 291.544 351.576 292.203 352.193 292.441C361.018 296.128 428.778 323.528 428.925 323.528C430.152 323.528 430.488 321.839 429.36 321.362C383.763 302.738 372.983 298.68 353.174 290.423C353.006 290.283 352.627 289.666 352.445 289.371C351.87 288.446 351.786 288.369 349.319 285.432C343.971 279.102 346.263 281.156 344.041 278.037C343.985 277.897 343.908 277.764 343.802 277.651C343.725 277.567 343.648 277.497 343.669 277.518C343.452 277.28 343.739 277.511 342.891 276.726C342.667 276.614 335.742 268.679 328.241 271.785C325.368 272.962 323.412 275.794 323.482 278.647C323.482 281.647 325.865 283.946 327.835 285.944H327.842Z" fill="black"/>
<path d="M382.888 104.497C384.023 107.588 387.724 108.184 390.416 108.359C391.047 108.394 391.572 107.924 391.614 107.307C391.656 106.691 391.187 106.151 390.563 106.109C387.29 105.892 385.523 105.128 384.997 103.712C384.507 102.38 385.313 100.74 386.259 99.1695C389.133 94.389 392.238 89.6576 395.491 85.1155C395.855 84.6108 395.736 83.9099 395.231 83.5454C394.727 83.1809 394.019 83.3001 393.661 83.8047C390.374 88.3959 387.233 93.1764 384.332 98.0129C383.098 100.067 382.067 102.268 382.888 104.49V104.497Z" fill="black"/>
<path d="M372.569 61.8091C377.595 57.3021 385.621 59.0264 388.334 65.2227C388.516 65.6433 388.93 65.8957 389.364 65.8957C390.17 65.8957 390.724 65.0615 390.394 64.3185C387.072 56.7413 377.231 54.5964 371.069 60.1339C370.607 60.5474 370.572 61.2624 370.985 61.725C371.399 62.1876 372.114 62.2227 372.576 61.8091H372.569Z" fill="black"/>
<path d="M405.786 72.3232C410.805 67.8161 418.838 69.5405 421.551 75.7368C421.733 76.1574 422.146 76.4097 422.581 76.4097C423.387 76.4097 423.941 75.5756 423.611 74.8326C420.303 67.2764 410.476 65.0895 404.286 70.648C403.824 71.0615 403.789 71.7765 404.202 72.2391C404.616 72.7017 405.331 72.7368 405.793 72.3232H405.786Z" fill="black"/>
<circle cx="371" cy="74" r="3" fill="black"/>
<circle cx="409" cy="82" r="3" fill="black"/>
<path d="M393.085 119.721C392.707 120.212 392.805 120.92 393.296 121.298C400.445 126.78 410.946 123.506 413.784 115.018C413.981 114.429 413.665 113.791 413.076 113.595C412.481 113.399 411.85 113.714 411.654 114.303C409.291 121.375 400.6 124.053 394.67 119.511C394.172 119.132 393.464 119.231 393.092 119.721H393.085Z" fill="black"/>
<path d="M467.26 88.8867C470.008 86.5245 471.332 82.6973 470.624 79.1365C470.505 78.5267 469.902 78.1272 469.3 78.2533C468.69 78.3725 468.29 78.9683 468.416 79.5781C468.956 82.3118 467.898 85.3679 465.788 87.1834C465.318 87.5899 465.262 88.2979 465.669 88.7675C466.075 89.2372 466.783 89.2932 467.253 88.8867H467.26Z" fill="black"/>
<path d="M490.313 36.6521C485.407 24.9393 491.204 7.11426 500.043 3.41327C502.755 2.27773 505.286 3.57448 506.218 6.17499C506.673 7.44371 506.666 8.78251 506.547 10.0723C505.587 20.5724 497.771 29.2852 490.313 36.6521Z" fill="black"/>
<path d="M490.972 44.5588C490.264 46.3602 488.239 47.2504 486.43 46.5495C484.629 45.8415 483.739 43.8158 484.44 42.0073C485.141 40.2059 487.173 39.3157 488.982 40.0166C490.783 40.7246 491.673 42.7503 490.972 44.5588Z" fill="black"/>
<path d="M512.421 44.748C510.942 37.6685 514.061 27.1262 522.353 21.9953C523.923 21.021 525.655 20.3972 527.253 21.3364C528.206 21.8972 528.781 22.9486 528.942 23.972C529.103 25.0024 528.9 26.0117 528.627 26.972C526.363 34.7946 519.157 40.255 512.428 44.748H512.421Z" fill="black"/>
<path d="M511.763 50.8393C510.964 52.101 509.295 52.4795 508.027 51.6804C506.765 50.8814 506.386 49.2131 507.186 47.9444C507.985 46.6827 509.653 46.3042 510.922 47.1033C512.183 47.9023 512.562 49.5706 511.763 50.8393Z" fill="black"/>
<path d="M180.266 86.2801C189.587 66.6431 181.069 59.6609 164.069 74.1604C150.289 57.0678 140.59 62.3213 146.418 84.0687C143.695 84.4092 141.149 84.8844 138.859 85.498C132.065 87.3166 128.213 90.1491 128.009 93.4681C127.683 98.7478 136.29 102.377 141.275 103.99C131.713 124.435 141.8 130.837 160.306 113.378C175.093 134.388 187.252 130.968 180.684 106.894C202.35 103.451 202.38 92.0836 180.266 86.2801ZM178.797 67.6571C179.822 67.6571 180.677 67.9116 181.332 68.4242C184.207 70.6955 183.064 77.5804 179.041 85.9695C176.562 85.3671 173.894 84.8545 171.071 84.4541C169.08 81.0303 166.967 77.876 164.821 75.1108C168.243 72.1884 174.327 67.6571 178.797 67.6571ZM165.187 106.549C162.478 106.475 159.784 106.288 157.031 105.984C154.308 101.3 151.932 96.3006 150.097 91.4999C151.747 89.18 153.423 87.0097 155.388 84.6898C160.45 84.6112 165.409 84.9143 170.33 85.5953C171.944 88.4092 173.328 91.1108 174.619 93.9246C171.803 98.4035 168.599 102.658 165.187 106.549ZM175.215 95.2716C176.814 98.8937 178.146 102.467 179.145 105.853C175.393 106.37 171.196 106.632 166.76 106.579C169.886 102.939 172.754 99.0845 175.211 95.2716H175.215ZM164.14 107.724C162.937 109.053 161.723 110.317 160.506 111.504C159.596 110.164 158.689 108.757 157.805 107.287C160.643 107.575 162.341 107.653 164.14 107.724ZM155.533 105.805C151.007 105.236 146.755 104.368 142.999 103.257C144.665 99.889 146.777 96.2969 149.272 92.6786C151.066 97.2623 153.138 101.58 155.529 105.809L155.533 105.805ZM149.597 90.1154C148.979 88.4167 148.424 86.7441 147.954 85.1164C149.823 84.9181 151.773 84.7871 153.782 84.7197C152.224 86.6019 150.937 88.2707 149.597 90.1154ZM156.454 83.4475C158.911 80.6412 161.424 78.1005 163.907 75.9041C165.838 78.3924 167.737 81.2062 169.546 84.2483C165.183 83.6982 160.754 83.4288 156.454 83.4475ZM171.848 85.8124C174.168 86.1753 176.392 86.6094 178.479 87.1145C177.568 88.9255 176.529 90.7964 175.374 92.6973C174.412 90.6393 173.406 88.5888 171.848 85.8124ZM146.252 77.543C145.553 72.7722 145.427 65.2137 150.171 65.2137C154.611 65.2137 160.343 71.4625 163.152 74.9499C160.376 77.4045 157.564 80.282 154.833 83.4662C152.335 83.5186 149.923 83.6758 147.621 83.9227C147.018 81.6964 146.544 79.5486 146.248 77.543H146.252ZM138.244 101.599C122.595 95.2305 128.457 87.4924 146.74 85.2511C147.303 87.2155 147.973 89.2398 148.746 91.3016C145.934 95.2941 143.595 99.2155 141.797 102.879C140.55 102.478 139.362 102.052 138.244 101.599ZM152.043 118.527C146.737 122.097 142.478 123.185 140.357 121.513C137.526 119.279 138.588 112.57 142.463 104.357C146.581 105.592 151.285 106.531 156.291 107.118C157.375 108.97 158.486 110.725 159.607 112.368C157.046 114.796 154.493 116.881 152.047 118.527H152.043ZM176.969 126.048C173.021 126.048 166.989 120.738 161.202 112.506C162.715 111.036 164.225 109.449 165.716 107.769C170.349 107.882 174.919 107.702 179.478 107.066C181.213 113.367 183.326 126.048 176.969 126.048ZM180.344 105.674C179.256 101.955 177.783 98.0181 175.988 94.0368C177.398 91.7693 178.642 89.5504 179.704 87.4176C189.391 89.9283 195.911 93.8273 195.675 97.7076C195.453 101.352 189.31 104.271 180.344 105.674Z" fill="black"/>
<path d="M145.123 78.2051C146.815 78.2051 148.186 76.8179 148.186 75.1069C148.186 73.3958 146.815 72.0086 145.123 72.0086C143.43 72.0086 142.059 73.3958 142.059 75.1069C142.059 76.8179 143.43 78.2051 145.123 78.2051Z" fill="#FADF4F"/>
<path d="M171.83 127.04C173.667 127.04 175.156 125.533 175.156 123.676C175.156 121.818 173.667 120.312 171.83 120.312C169.992 120.312 168.503 121.818 168.503 123.676C168.503 125.533 169.992 127.04 171.83 127.04Z" fill="#FADF4F"/>
<path d="M181.42 84.1961C183.455 84.1961 185.106 82.5275 185.106 80.4692C185.106 78.411 183.455 76.7424 181.42 76.7424C179.384 76.7424 177.734 78.411 177.734 80.4692C177.734 82.5275 179.384 84.1961 181.42 84.1961Z" fill="#87AB99"/>
<path d="M149.468 123.223C151.248 123.223 152.691 121.763 152.691 119.963C152.691 118.163 151.248 116.704 149.468 116.704C147.688 116.704 146.245 118.163 146.245 119.963C146.245 121.763 147.688 123.223 149.468 123.223Z" fill="#87AB99"/>
<path d="M587.044 302.644C594.007 287.974 587.644 282.759 574.945 293.59C564.65 280.822 557.405 284.746 561.759 300.992C559.724 301.246 557.823 301.601 556.112 302.059C551.036 303.418 548.159 305.534 548.007 308.013C547.763 311.957 554.193 314.669 557.917 315.873C550.774 331.146 558.309 335.929 572.133 322.887C583.179 338.582 592.263 336.027 587.356 318.042C603.541 315.471 603.563 306.979 587.044 302.644ZM585.946 288.732C586.712 288.732 587.351 288.922 587.84 289.305C589.988 291.002 589.134 296.145 586.129 302.412C584.277 301.962 582.284 301.579 580.175 301.28C578.687 298.722 577.109 296.366 575.506 294.3C578.063 292.117 582.607 288.732 585.946 288.732ZM575.779 317.785C573.756 317.729 571.744 317.59 569.687 317.363C567.652 313.864 565.878 310.129 564.507 306.543C565.74 304.81 566.992 303.189 568.46 301.456C572.241 301.397 575.945 301.623 579.622 302.132C580.827 304.234 581.861 306.252 582.826 308.354C580.722 311.7 578.328 314.878 575.779 317.785ZM583.271 309.361C584.465 312.066 585.46 314.736 586.206 317.265C583.403 317.651 580.269 317.847 576.954 317.808C579.29 315.088 581.432 312.209 583.268 309.361H583.271ZM574.997 318.663C574.099 319.655 573.192 320.6 572.283 321.486C571.603 320.485 570.925 319.434 570.265 318.336C572.385 318.551 573.654 318.61 574.997 318.663ZM568.567 317.229C565.187 316.804 562.011 316.156 559.205 315.326C560.449 312.81 562.027 310.126 563.89 307.423C565.231 310.848 566.779 314.073 568.565 317.232L568.567 317.229ZM564.134 305.509C563.672 304.24 563.257 302.99 562.906 301.774C564.302 301.626 565.759 301.528 567.26 301.478C566.096 302.884 565.134 304.131 564.134 305.509ZM569.256 300.528C571.091 298.431 572.968 296.533 574.823 294.893C576.266 296.751 577.684 298.853 579.036 301.126C575.777 300.715 572.468 300.514 569.256 300.528ZM580.755 302.294C582.488 302.565 584.15 302.89 585.709 303.267C585.029 304.62 584.252 306.017 583.389 307.437C582.671 305.9 581.919 304.368 580.755 302.294ZM561.635 296.117C561.112 292.553 561.018 286.907 564.562 286.907C567.879 286.907 572.161 291.575 574.259 294.18C572.186 296.013 570.085 298.163 568.045 300.542C566.179 300.581 564.377 300.698 562.657 300.883C562.207 299.22 561.853 297.615 561.632 296.117H561.635ZM555.653 314.087C543.963 309.33 548.341 303.549 561.999 301.875C562.42 303.342 562.92 304.855 563.498 306.395C561.397 309.377 559.65 312.307 558.306 315.043C557.375 314.744 556.488 314.425 555.653 314.087ZM565.961 326.733C561.997 329.399 558.815 330.213 557.231 328.963C555.116 327.295 555.91 322.283 558.804 316.147C561.881 317.07 565.394 317.771 569.134 318.21C569.944 319.594 570.773 320.905 571.611 322.132C569.698 323.946 567.791 325.503 565.963 326.733H565.961ZM584.581 332.351C581.631 332.351 577.126 328.385 572.802 322.235C573.933 321.137 575.061 319.952 576.175 318.697C579.636 318.78 583.049 318.646 586.455 318.171C587.751 322.878 589.33 332.351 584.581 332.351ZM587.102 317.131C586.289 314.353 585.189 311.412 583.848 308.438C584.902 306.744 585.83 305.087 586.624 303.493C593.861 305.369 598.731 308.282 598.554 311.18C598.388 313.903 593.8 316.083 587.102 317.131Z" fill="black"/>
<path d="M560.791 296.611C562.055 296.611 563.08 295.575 563.08 294.297C563.08 293.019 562.055 291.983 560.791 291.983C559.527 291.983 558.502 293.019 558.502 294.297C558.502 295.575 559.527 296.611 560.791 296.611Z" fill="#FADF4F"/>
<path d="M580.741 333.092C582.113 333.092 583.226 331.967 583.226 330.579C583.226 329.191 582.113 328.066 580.741 328.066C579.368 328.066 578.256 329.191 578.256 330.579C578.256 331.967 579.368 333.092 580.741 333.092Z" fill="#FADF4F"/>
<path d="M587.907 301.087C589.427 301.087 590.66 299.84 590.66 298.303C590.66 296.765 589.427 295.519 587.907 295.519C586.386 295.519 585.153 296.765 585.153 298.303C585.153 299.84 586.386 301.087 587.907 301.087Z" fill="#87AB99"/>
<path d="M564.038 330.24C565.367 330.24 566.445 329.15 566.445 327.806C566.445 326.461 565.367 325.371 564.038 325.371C562.708 325.371 561.63 326.461 561.63 327.806C561.63 329.15 562.708 330.24 564.038 330.24Z" fill="#87AB99"/>
</g>
</svg>
