<svg width="77" height="77" viewBox="0 0 77 77" fill="none" xmlns="http://www.w3.org/2000/svg">
<path d="M34.2851 12.7945C34.2851 12.7945 56.2187 -2.38705 68.2345 23.4755C68.2345 23.4755 72.8164 35.5145 72.1082 46.543C71.3999 57.5715 73.9388 70.536 75.3801 72.3874C75.3801 72.3874 75.5137 74.6103 71.6826 75.2565C67.8515 75.9027 54.3698 78.388 37.7353 66.6151C37.7353 66.6151 25.5038 57.1108 23.4877 42.8403C21.4715 28.5701 23.0791 19.2167 34.2854 12.7948L34.2851 12.7945Z" fill="#FFA500"/>
<path d="M35.1442 11.2952C35.1442 11.2952 35.9811 13.299 34.0545 12.3102C34.0545 12.3102 30.0252 5.48992 23.6095 3.69225C23.6095 3.69225 21.6647 3.16082 22.6883 1.66498C23.712 0.168836 25.5748 1.71868 25.5748 1.71868C25.5748 1.71868 33.5555 6.20003 35.1442 11.2952Z" fill="#68AD3B"/>
<path d="M21.1339 9.2207C21.1339 9.2207 12.1015 11.4257 6.57393 19.6811C1.04639 27.9364 1.85403 41.6493 1.85403 41.6493C1.85403 41.6493 2.79406 47.7684 1.00195 49.3393C1.00195 49.3393 5.11142 47.0309 6.67084 43.6543C8.23025 40.2778 10.7285 38.0679 10.7285 38.0679C10.7285 38.0679 19.5912 27.9368 21.1213 24.3491C22.6514 20.7612 25.486 14.5186 21.1336 9.2207H21.1339Z" fill="#68AD3B"/>
<path opacity="0.3" d="M21.6321 9.87589C19.0277 10.7653 12.5444 13.519 8.21492 19.986C2.68769 28.241 3.49533 41.9539 3.49533 41.9539C3.49533 41.9539 3.97954 45.1141 3.58945 47.4759C2.26366 48.6177 1.07149 49.2979 1.00391 49.3349C2.79138 47.7592 1.85228 41.6484 1.85228 41.6484C1.85228 41.6484 1.04464 27.9355 6.57187 19.6808C12.101 11.4254 21.1325 9.2207 21.1325 9.2207C21.3105 9.43827 21.4766 9.65554 21.6321 9.87589Z" fill="#4D7F2D"/>
<path d="M72.1081 46.5431C71.4005 57.571 73.9388 70.5361 75.3803 72.3859C75.3803 72.3859 75.5139 74.6097 71.6825 75.2551C71.5393 75.2788 71.3835 75.3063 71.2137 75.3341C72.9142 74.4348 72.8349 73.1216 72.8349 73.1216C71.393 71.2718 68.8532 58.3073 69.5627 47.2788C70.2703 36.2509 65.6881 24.2101 65.6881 24.2101C58.6027 8.96253 48.0731 7.98238 40.6211 9.7461C48.0318 7.21795 60.2972 6.38964 68.2353 23.4738C68.2353 23.4738 72.8176 35.5142 72.1081 46.5428V46.5431Z" fill="#FFD176"/>
<path opacity="0.8" d="M74.5497 74.052C74.0139 74.5405 73.1322 75.0118 71.6812 75.2556C67.8501 75.9028 54.3684 78.3874 37.733 66.6142C37.733 66.6142 25.5024 57.1102 23.4859 42.8397C21.4695 28.5692 23.0767 19.2161 34.2836 12.7954C34.2836 12.7954 38.7032 9.73707 44.6622 8.70508C41.7113 9.89354 39.8389 11.1897 39.8389 11.1897C28.632 17.6104 27.0248 26.9635 29.0412 41.234C31.0574 55.5045 43.2883 65.0085 43.2883 65.0085C57.1527 74.8204 68.8274 74.7288 74.5497 74.052Z" fill="#FF8200"/>
<path d="M21.1204 24.3488C19.5903 27.9355 10.7276 38.0669 10.7276 38.0669C10.7276 38.0669 8.22819 40.2775 6.67032 43.6537C5.13467 46.9784 1.12828 49.2658 1.00391 49.3349C1.48287 48.9137 1.76463 48.1672 1.92295 47.2981C2.97933 46.351 4.07644 45.1252 4.72946 43.7133C6.28733 40.3371 8.7874 38.1283 8.7874 38.1283C8.7874 38.1283 17.6498 27.9966 19.1796 24.4084C20.6665 20.922 23.3866 14.926 19.5413 9.72744C20.5294 9.3676 21.1328 9.2207 21.1328 9.2207C25.4845 14.5186 22.6502 20.7603 21.1207 24.3485L21.1204 24.3488Z" fill="#82CE51"/>
<path d="M34.795 12.5772C34.7462 12.4081 34.6953 12.2862 34.6953 12.2862C33.1072 7.19011 25.1255 2.70938 25.1255 2.70938C25.1255 2.70938 23.4331 1.30088 22.3906 2.46619C22.3946 2.2369 22.4795 1.97056 22.6894 1.66411C23.7124 0.16889 25.5746 1.71966 25.5746 1.71966C25.5746 1.71966 33.5562 6.20039 35.1437 11.2946C35.1437 11.2946 35.7282 12.6957 34.7946 12.5775L34.795 12.5772Z" fill="#82CE51"/>
<path d="M34.9869 12.5772C34.652 12.7445 34.2456 12.6253 34.0555 12.3084C33.4349 11.3017 32.7346 10.3515 31.9502 9.47935C30.4037 7.72582 28.5477 6.26732 26.5189 5.12638C26.1797 4.9372 25.8347 4.7579 25.4869 4.58785L25.4844 4.58847C24.7925 4.2419 24.087 3.93576 23.3649 3.65986C21.6203 2.90746 22.7075 0.381479 24.4571 1.14066C27.9197 2.81642 31.0419 5.26433 33.321 8.37266C34.0833 9.39201 34.7452 10.483 35.3094 11.6159C35.4878 11.9701 35.3418 12.401 34.9869 12.5769V12.5772Z" stroke="#4D7F2D" stroke-width="0.811957" stroke-linecap="round" stroke-linejoin="round"/>
<path d="M21.132 9.21875C21.132 9.21875 7.38826 12.0629 3.44204 26.8451C-0.506641 41.6371 4.12716 46.2179 1 49.3379C1 49.3379 5.29278 47.0468 7.11297 42.7275C9.06278 38.1005 30.4017 21.5654 21.1316 9.21875H21.132Z" stroke="#4D7F2D" stroke-width="1.08261" stroke-linecap="round" stroke-linejoin="round"/>
<path d="M25.3228 4.70898C25.1185 4.74262 24.9256 4.78706 24.7383 4.84138" stroke="#4D7F2D" stroke-width="1.08261" stroke-linecap="round" stroke-linejoin="round"/>
<path d="M24.7345 4.8418C21.6219 5.7414 21.1309 9.21945 21.1309 9.21945" stroke="#4D7F2D" stroke-width="1.08261" stroke-linecap="round" stroke-linejoin="round"/>
<path d="M75.1491 73.1212C72.2007 78.4753 44.2645 77.5997 30.9714 59.753C21.8726 47.5373 17.9523 25.3833 30.5529 15.4781C35.9126 11.2649 43.9985 6.3756 52.0351 8.48928C64.5999 11.7942 73.1166 24.8284 72.0124 50.8289C71.9235 52.9244 72.0223 56.9833 73.07 62.7456C74.4134 70.1344 76.0021 71.5716 75.1488 73.1212H75.1491Z" stroke="#89451F" stroke-width="1.3116" stroke-linecap="round" stroke-linejoin="round"/>
<path d="M21.423 9.6597C18.211 12.7437 15.2872 16.1748 13.1414 20.0902C12.2289 21.7351 11.478 23.4895 10.8503 25.2616C9.93711 27.9153 9.2344 30.6518 8.32616 33.3092C7.55679 35.6383 6.60688 38.0007 5.72425 40.2875C5.27862 41.4507 4.4787 43.5594 4.02041 44.7047C3.73649 45.4185 3.41368 46.1941 3.09427 46.8931L2.94922 47.2014L2.87639 47.3554C2.85201 47.4066 2.82578 47.4572 2.80078 47.5084C2.77671 47.56 2.74492 47.6078 2.73628 47.6671C2.72671 47.7279 2.73227 47.7951 2.77362 47.88C3.0847 48.5762 2.09961 49.0879 1.71909 48.3914C1.57775 48.1 1.69934 47.7495 1.99067 47.6084C2.03943 47.5847 2.09251 47.568 2.14344 47.5587C2.23417 47.5427 2.28663 47.5063 2.32768 47.4646C2.36841 47.4226 2.38631 47.3692 2.41193 47.3199C2.436 47.2696 2.46069 47.2199 2.48414 47.169C2.52735 47.0748 2.64771 46.8097 2.69246 46.7116C3.63773 44.5504 4.39692 42.3105 5.19252 40.091C6.18069 37.3434 7.18491 34.5952 7.98545 31.7865C8.17648 31.1403 8.35856 30.4925 8.53941 29.8426C9.2094 27.4487 9.85162 25.019 10.8275 22.7214L10.9602 22.4057L11.0265 22.2477C11.1583 21.9619 11.3885 21.44 11.5265 21.1583C12.5588 19.0001 13.863 16.9599 15.3301 15.0718C17.0028 12.9196 18.9044 10.9386 20.9468 9.14031C21.0928 9.01193 21.3153 9.02643 21.4437 9.17241C21.5687 9.31468 21.5582 9.52978 21.4224 9.65909L21.423 9.6597Z" fill="#4D7F2D"/>
<path d="M18.1131 12.502C18.4276 12.8668 18.688 13.2794 18.9241 13.6963C19.8854 15.4317 20.3039 17.4472 20.1567 19.4205C20.0703 20.6753 19.7617 21.9199 19.3105 23.0858C19.8469 21.3598 20.0601 19.5245 19.7694 17.7364C19.5611 16.4226 19.0821 15.1496 18.3621 14.0337C18.1319 13.6846 17.8838 13.3454 17.5955 13.0436C17.4264 12.9051 17.3962 12.6554 17.5455 12.4909C17.6961 12.3212 17.969 12.3273 18.1134 12.5017L18.1131 12.502Z" fill="#4D7F2D"/>
<path d="M15.1482 16.6661C15.4627 17.0309 15.7232 17.4435 15.9593 17.8604C16.9206 19.5957 17.3391 21.6113 17.1919 23.5845C17.1054 24.8393 16.7968 26.084 16.3456 27.2499C16.882 25.5238 17.0953 23.6885 16.8045 21.9004C16.5962 20.5867 16.1173 19.3137 15.3973 18.1977C15.1671 17.8487 14.9189 17.5095 14.6307 17.2077C14.4616 17.0691 14.4313 16.8195 14.5807 16.655C14.7313 16.4852 15.0041 16.4914 15.1485 16.6658L15.1482 16.6661Z" fill="#4D7F2D"/>
<path d="M11.9178 22.338C12.2322 22.7027 12.4927 23.1153 12.7288 23.5323C13.6901 25.2676 14.1086 27.2831 13.9614 29.2564C13.875 30.5112 13.5664 31.7558 13.1152 32.9218C13.6515 31.1957 13.8648 29.3604 13.5741 27.5723C13.3658 26.2586 12.8868 24.9855 12.1668 23.8696C11.9366 23.5206 11.6885 23.1814 11.4002 22.8796C11.2311 22.741 11.2009 22.4913 11.3502 22.3268C11.5008 22.1571 11.7736 22.1633 11.9181 22.3376L11.9178 22.338Z" fill="#4D7F2D"/>
<path d="M14.4283 17.1598C14.0055 17.2252 13.5929 17.3524 13.1895 17.4965C11.6264 18.0715 10.2305 19.0803 9.15195 20.3481C8.20081 21.4724 7.4947 22.7806 7 24.1696C7.39873 22.7432 8.03107 21.3575 8.91308 20.1589C9.39791 19.5087 9.95063 18.9069 10.5731 18.385C11.4684 17.6289 12.4942 17.0203 13.6015 16.6256C13.8308 16.5472 14.0694 16.4695 14.3073 16.4201C14.5147 16.3716 14.7236 16.5056 14.7628 16.7157C14.8054 16.9321 14.6471 17.1413 14.4277 17.1601L14.4283 17.1598Z" fill="#4D7F2D"/>
<path d="M11.6177 23.0836C11.1949 23.1491 10.7823 23.2762 10.379 23.4203C8.81585 23.9953 7.42 25.0041 6.3414 26.2719C5.39026 27.3962 4.68416 28.7044 4.18945 30.0934C4.58818 28.667 5.22052 27.2814 6.10254 26.0827C6.58736 25.4325 7.14009 24.8307 7.76256 24.3088C8.65784 23.5527 9.68366 22.9442 10.791 22.5494C11.0203 22.4711 11.2588 22.3933 11.4971 22.3439C11.7045 22.2955 11.9134 22.4294 11.9526 22.6396C11.9952 22.8559 11.8368 23.0651 11.6174 23.084L11.6177 23.0836Z" fill="#4D7F2D"/>
<path d="M17.8203 12.9678C17.4713 12.9493 17.1198 12.982 16.7729 13.0296C15.4258 13.2277 14.1401 13.8008 13.0649 14.6346C12.1156 15.375 11.3315 16.303 10.7031 17.3316C11.3046 16.1746 12.1135 15.0979 13.1208 14.2591C13.8491 13.648 14.6808 13.1623 15.5727 12.828C16.2992 12.5617 17.0698 12.3728 17.8478 12.3556C18.0218 12.3515 18.1666 12.4935 18.1629 12.6685C18.1607 12.8487 17.999 12.9894 17.8203 12.9678Z" fill="#4D7F2D"/>
<path d="M9.18361 29.1899C9.62801 29.718 9.95422 30.3423 10.2026 30.982C10.6254 32.085 10.7674 33.284 10.6501 34.4567C10.6325 34.5928 10.6094 34.8178 10.5835 34.9523C10.4764 35.6097 10.2965 36.251 10.0579 36.867C10.0567 36.8704 10.053 36.8719 10.0496 36.8707C10.0465 36.8694 10.0449 36.866 10.0459 36.8629C10.4356 35.6125 10.5912 34.2823 10.3813 32.9865C10.231 32.0341 9.88447 31.111 9.36322 30.3016C9.19657 30.0485 9.01696 29.8022 8.80803 29.5834C8.6849 29.4803 8.67039 29.2918 8.78643 29.1773C8.8966 29.0659 9.08084 29.0724 9.18361 29.1906V29.1899Z" fill="#4D7F2D"/>
<path d="M8.88033 29.993C8.57418 30.0449 8.27699 30.1412 7.98566 30.2495C6.783 30.7118 5.72138 31.5274 4.93658 32.5483C4.33263 33.3263 3.88638 34.2142 3.56696 35.1478C3.56573 35.1512 3.56233 35.153 3.55894 35.1518C3.55585 35.1508 3.554 35.1471 3.55493 35.1441C3.73454 34.4657 3.99007 33.8034 4.31473 33.1757C4.35053 33.1103 4.45916 32.9168 4.49712 32.848C4.58106 32.711 4.67272 32.5573 4.76499 32.4246C5.13903 31.8663 5.58621 31.3558 6.09572 30.9161C6.73825 30.36 7.47676 29.9094 8.27637 29.6131C8.44117 29.5545 8.61523 29.4955 8.78651 29.4579C8.9331 29.4249 9.07876 29.5168 9.11178 29.6634C9.14789 29.819 9.03895 29.9736 8.88094 29.9933L8.88033 29.993Z" fill="#4D7F2D"/>
<path d="M6.74687 36.6777C7.32829 37.3909 7.54586 38.3611 7.42797 39.2635C7.38322 39.6116 7.29187 39.9542 7.16719 40.2798C7.16442 40.2869 7.15639 40.2906 7.14899 40.2878C7.14189 40.285 7.13849 40.2773 7.14065 40.2705C7.24466 39.9394 7.31348 39.599 7.33662 39.2549C7.37643 38.6895 7.28045 38.1081 7.04437 37.5936C6.92031 37.3264 6.76569 37.069 6.56324 36.8548C6.44196 36.7301 6.62527 36.5514 6.74687 36.6783V36.6777Z" fill="#4D7F2D"/>
<path d="M6.62736 37.2243C5.62221 37.2829 4.67724 37.8112 4.00478 38.5488C3.95478 38.6068 3.87022 38.7003 3.82424 38.7614C3.59093 39.0519 3.38941 39.3694 3.21967 39.7043C3.21535 39.7126 3.20517 39.716 3.19683 39.712C3.18881 39.708 3.18541 39.6981 3.18881 39.6898C3.34713 39.3213 3.54711 38.9685 3.78289 38.6408C3.8443 38.5593 3.93781 38.4386 4.00539 38.3612C4.15939 38.1782 4.33098 38.0106 4.51337 37.8551C5.08492 37.3733 5.79226 37.0271 6.53817 36.9224L6.57644 36.9181L6.59619 36.9163C6.82333 36.8842 6.85758 37.2135 6.62767 37.2243H6.62736Z" fill="#4D7F2D"/>
</svg>
