<svg width="63" height="75" viewBox="0 0 63 75" fill="none" xmlns="http://www.w3.org/2000/svg">
<path d="M43.3915 68.9277C33.485 77.7939 26.6227 75.5329 14.6417 61.334H14.6262C2.74649 47.3644 -6.5087 29.2205 7.86062 17.7251C15.1559 11.8941 22.6076 13.6569 26.1885 13.6313C33.89 19.1687 45.3764 13.7215 53.5477 18.0062C69.301 26.1769 59.5052 54.4675 43.3915 68.9277Z" fill="#EB1F2A"/>
<path opacity="0.1" d="M43.3904 68.9273C33.484 77.7936 26.6216 75.5326 14.6406 61.3336C40.5195 71.6282 65.1956 43.8909 51.3591 19.2715C51.0153 18.6622 50.1561 17.6621 49.4998 16.6465C69.2813 20.3839 62.6953 51.6033 43.3906 68.9273H43.3904Z" fill="black"/>
<path d="M33.1445 15.7939C37.6072 16.315 42.497 15.4105 47.2963 15.8C60.8192 16.8638 65.1913 29.5622 60.1538 44.7169C55.363 59.3876 42.2151 74.8329 32.7946 74.9965C23.1328 75.2543 5.83467 54.9485 1.13217 40.0742C-4.30726 22.5695 11.0294 11.352 22.11 13.2545C23.3659 13.4619 24.013 13.5969 24.003 13.6522C23.9931 13.7075 23.3271 13.6813 22.0827 13.5817C10.5248 12.5788 -2.76104 23.6767 2.41973 39.6628C7.21276 54.252 24.265 73.6085 32.7576 73.3688C48.0747 73.1009 74.1645 28.3611 52.8847 18.3271C49.1493 16.5474 45.1675 16.659 41.8241 16.6791C38.4418 16.7743 35.4616 16.8038 33.0639 16.4234C29.9123 15.9737 27.6096 14.8548 26.5443 13.9653C24.9819 12.7271 28.1366 15.2959 33.1445 15.7942V15.7939Z" fill="black"/>
<path d="M14.4791 6.66992C14.2689 8.99004 14.9512 11.3775 16.3603 13.2521C12.0267 16.6978 7.99207 20.5052 4.31445 24.6199C10.0256 25.8155 16.3732 22.7245 18.8558 17.539C17.0795 21.765 16.6912 26.5402 17.7623 30.989C20.3735 26.1154 24.1166 21.8295 28.6251 18.5505C24.8835 24.4197 33.9662 29.5931 33.1832 35.857C34.6499 30.1493 41.2632 22.9048 37.5643 16.6788C41.6301 20.3911 48.9489 26.7701 47.9956 34.901C51.6742 29.7836 51.4368 22.2839 47.4414 17.4003C50.8993 16.9692 54.4539 17.3037 57.7653 18.3719C50.2292 4.37335 47.061 14.2346 32.3854 9.86126C30.4093 9.27243 29.7812 9.89318 27.8777 10.5094C20.5855 12.8703 15.9677 9.77562 14.4792 6.6701L14.4791 6.66992Z" fill="#729E49"/>
<path d="M34.2495 10.9453C34.1401 11.1865 32.9937 10.6615 31.1607 10.6524C28.3487 10.6365 26.3311 12.1489 23.7472 12.3082C20.4348 12.5634 17.6443 11.0637 16.1745 9.62387C14.6603 8.15317 14.2946 6.86195 14.4669 6.78137C14.6835 6.64846 15.3891 7.65625 16.9102 8.7366C18.4016 9.80684 20.8597 10.9003 23.6223 10.6831C25.8394 10.5729 28.3023 9.03276 31.2474 9.50317C33.3729 9.85009 34.346 10.8002 34.2491 10.9453H34.2495Z" fill="black"/>
<path d="M36.8776 12.1564C37.0356 12.2875 36.8054 12.9338 36.023 13.6853C34.006 15.6362 30.3699 15.8855 28.1181 14.3073C27.227 13.689 26.8977 13.0867 27.0332 12.9322C27.3305 12.565 29.3326 13.9494 32.0474 13.7005C34.7672 13.524 36.5258 11.8407 36.8776 12.1566V12.1564Z" fill="black"/>
<path d="M25.2962 44.5633C25.1059 44.1567 24.6093 41.9974 25.1338 41.7519C25.6583 41.5064 27.0037 43.2684 27.194 43.6752C27.6465 44.6414 25.7521 45.5374 25.2962 44.5631V44.5633Z" fill="#020202"/>
<path d="M10.1052 36.6764C10.0768 36.2097 10.4049 33.93 10.9829 33.8949C11.5609 33.8599 12.1684 36.0825 12.1969 36.5492C12.2642 37.6582 10.1732 37.7946 10.1054 36.6764H10.1052Z" fill="#020202"/>
<path d="M12.0206 46.9775C11.9094 46.5309 11.825 44.2639 12.387 44.124C12.949 43.9842 13.9428 46.0249 14.0539 46.4716C14.318 47.5325 12.2867 48.0473 12.0206 46.9775Z" fill="#020202"/>
<path d="M14.9316 54.5677C14.8125 54.2316 14.6768 52.4551 15.2226 52.2617C15.7683 52.0681 16.7875 53.5315 16.9066 53.8674C17.1884 54.6624 15.2168 55.3723 14.9316 54.5675V54.5677Z" fill="#020202"/>
<path d="M19.15 60.9893C18.8859 60.6464 17.9814 58.7079 18.4403 58.3547C18.8992 58.0015 20.5464 59.3682 20.8105 59.7111C21.4379 60.526 19.7823 61.811 19.15 60.9893Z" fill="#020202"/>
<path d="M19.6345 46.9835C19.4524 46.5586 19.0024 44.3252 19.5348 44.0974C20.0671 43.8694 21.3785 45.7336 21.5606 46.1586C21.993 47.168 20.0704 48.0012 19.6345 46.9837V46.9835Z" fill="#020202"/>
<path d="M17.4561 37.9256C17.3543 37.5396 17.3131 35.5588 17.8732 35.4112C18.4331 35.2635 19.3803 37.0051 19.4822 37.391C19.7241 38.308 17.7002 38.8501 17.4561 37.9256Z" fill="#020202"/>
<path d="M3.91631 32.1291C3.90358 31.7288 4.30701 29.7823 4.88573 29.7638C5.46445 29.7451 5.99765 31.6617 6.01056 32.0621C6.02329 32.4624 5.5623 32.7997 4.98358 32.8182C4.40486 32.8367 3.92904 32.5296 3.91631 32.1291Z" fill="#020202"/>
<path d="M6.40893 42.5011C6.25491 42.0928 5.94741 39.9588 6.48916 39.7543C7.0309 39.5501 8.21521 41.3531 8.36939 41.7614C8.73532 42.7313 6.77782 43.4789 6.40893 42.5011Z" fill="#020202"/>
<path d="M25.0396 30.1087C24.9671 29.7464 25.0738 27.9084 25.6416 27.7947C26.2093 27.6809 27.0217 29.3349 27.0943 29.697C27.1669 30.0593 26.7627 30.443 26.195 30.5569C25.6273 30.6706 25.1124 30.4709 25.0398 30.1087H25.0396Z" fill="#020202"/>
<path d="M12.4305 27.9239C12.51 27.2493 12.7966 26.6976 13.0832 26.7112C13.3738 26.7232 13.6204 27.2231 13.8937 27.6883C14.4993 28.7728 15.0265 29.1911 13.8885 29.8767C13.1142 30.3443 12.1572 29.909 12.4305 27.9237V27.9239Z" fill="#020202"/>
<path d="M26.4732 38.5162C26.2615 38.1396 25.6463 36.0951 26.1511 35.8111C26.6558 35.5275 28.0882 37.1126 28.2997 37.4894C28.8028 38.384 26.9803 39.4181 26.4732 38.516V38.5162Z" fill="#020202"/>
<path d="M24.1736 50.5731C24.0498 49.9469 24.1312 49.3629 24.404 49.2726C24.6796 49.1801 25.0802 49.5384 25.4802 49.8738C26.3908 50.6658 26.9753 50.9421 26.0706 51.8941C25.4411 52.5579 24.508 52.4273 24.1734 50.5731H24.1736Z" fill="#020202"/>
<path d="M22.8486 57.7609C22.6042 57.3018 22.2819 56.8574 22.4035 56.5932C22.6583 56.0239 24.6283 56.8143 25.1453 57.6768C25.4453 58.1359 25.1732 58.7258 24.6374 58.9384C23.3858 59.4383 23.4453 58.8088 22.8486 57.7609Z" fill="#020202"/>
<path d="M25.2636 66.7366C25.0057 66.4074 24.1283 64.5319 24.5843 64.1749C25.0402 63.8178 26.6553 65.1153 26.9133 65.4446C27.1712 65.7738 27.0073 66.3295 26.5514 66.6865C26.0954 67.0435 25.5214 67.0659 25.2636 66.7367V66.7366Z" fill="#020202"/>
<path d="M31.0671 70.0087C30.8285 69.6705 30.0585 67.7709 30.5317 67.4371C31.0049 67.1033 32.541 68.4628 32.7794 68.801C33.3463 69.6046 31.6384 70.8191 31.0671 70.0087Z" fill="#020202"/>
<path d="M29.3049 61.2978C29.0883 60.834 28.4654 58.4002 28.9901 58.1551C29.5147 57.9101 30.9868 59.9473 31.2035 60.4111C31.4201 60.8747 31.167 61.4473 30.6424 61.6924C30.1177 61.9372 29.5215 61.7614 29.3051 61.2976L29.3049 61.2978Z" fill="#020202"/>
<path d="M31.1086 52.8592C30.885 52.3717 30.23 49.8266 30.7564 49.5852C31.2828 49.3438 32.7896 51.4982 33.0132 51.9856C33.2369 52.4731 32.988 53.0617 32.4616 53.3029C31.9352 53.5443 31.3322 53.3465 31.1086 52.859V52.8592Z" fill="#020202"/>
<path d="M32.711 44.6601C32.5003 44.1608 31.913 41.571 32.4465 41.346C32.9801 41.121 34.4309 43.3462 34.6416 43.8456C34.8523 44.345 34.5872 44.93 34.0536 45.155C33.5201 45.3801 32.9217 45.1595 32.711 44.6601Z" fill="#020202"/>
<path d="M37.4921 37.6531C37.3752 37.1068 37.2144 36.5565 37.424 36.3549C37.6293 36.1548 38.2234 36.3899 38.7428 36.8581C39.2683 37.3135 39.6712 37.9838 39.7503 38.2321C39.9282 38.7381 39.545 39.2523 38.9779 39.3585C37.6743 39.6046 37.7783 38.8639 37.4921 37.6531Z" fill="#020202"/>
<path d="M38.3138 47.749C38.2884 47.2155 38.6304 44.6196 39.2088 44.592C39.7871 44.5643 40.3812 47.1153 40.4069 47.6491C40.4323 48.1826 39.9818 48.6342 39.4034 48.6619C38.8251 48.6896 38.3395 48.2827 38.3138 47.749Z" fill="#020202"/>
<path d="M36.4952 56.5576C36.5616 55.9802 37.3446 53.2495 37.9198 53.3156C38.4951 53.3817 38.6431 56.2197 38.5769 56.797C38.5104 57.3742 37.9886 57.7844 37.4133 57.7183C36.8381 57.6522 36.4289 57.1347 36.4954 56.5576H36.4952Z" fill="#020202"/>
<path d="M34.561 64.951C34.4962 64.5043 34.6439 62.2831 35.217 62.1997C35.79 62.1165 36.5698 64.2031 36.6347 64.6499C36.6996 65.0966 36.285 65.5236 35.712 65.6068C35.1389 65.69 34.6259 65.3977 34.561 64.951Z" fill="#020202"/>
<path d="M37.1439 68.5397C37.2271 68.0362 38.0882 65.6836 38.6596 65.7782C39.2309 65.8727 39.2945 68.3782 39.2113 68.8818C39.1281 69.3853 38.5958 69.7132 38.0244 69.6187C37.453 69.5242 37.0607 69.0433 37.1439 68.5397Z" fill="#020202"/>
<path d="M41.303 60.7425C41.2901 60.2851 41.6929 58.0653 42.2718 58.0489C42.8507 58.0325 43.3847 60.2255 43.3976 60.6832C43.4285 61.77 41.3343 61.8382 41.303 60.7425Z" fill="#020202"/>
<path d="M42.7786 52.4611C42.7537 51.9168 43.0981 49.2691 43.6765 49.2424C44.2549 49.2159 44.8467 51.8205 44.8718 52.365C44.9313 53.6583 42.8386 53.7651 42.7786 52.4611Z" fill="#020202"/>
<path d="M43.815 43.479C43.736 43.0002 43.8138 40.6148 44.3852 40.5205C44.9564 40.4261 45.8034 42.6587 45.8824 43.1375C46.0702 44.275 44.0044 44.6258 43.815 43.4788V43.479Z" fill="#020202"/>
<path d="M41.4303 31.3439C41.3766 31.0581 41.2201 30.2252 41.0749 29.4517C40.9184 28.6637 40.7142 27.9093 40.9533 27.7425C41.1872 27.5772 41.8599 28.0788 42.4149 28.8191C45.1453 32.3402 41.8573 33.0123 41.4303 31.3439Z" fill="#020202"/>
<path d="M54.4719 29.4285C54.3186 28.917 54.0248 26.3153 54.5795 26.1491C55.1341 25.9827 56.3256 28.3152 56.4789 28.827C56.8431 30.0425 54.839 30.654 54.4717 29.4285H54.4719Z" fill="#020202"/>
<path d="M53.3426 37.7175C53.402 36.814 53.4142 35.9463 53.6933 35.8619C53.9671 35.7774 54.4749 36.541 54.8078 37.4953C55.3369 38.9475 55.6846 41.3765 54.1512 41.1822C52.8111 41.0142 53.2435 39.0879 53.3426 37.7175Z" fill="#020202"/>
<path d="M49.1859 47.331C49.3448 46.765 49.455 46.1754 49.7351 46.0966C50.3655 45.9138 51.0582 48.1319 50.872 49.0204C50.7729 49.5785 50.1764 49.8569 49.6322 49.6664C48.4259 49.2461 48.8431 48.5337 49.186 47.3311L49.1859 47.331Z" fill="#020202"/>
<path d="M47.8099 55.8952C48.2103 55.3922 48.563 54.8487 48.851 54.8932C49.504 54.9877 49.156 57.4713 48.5736 58.26C48.2259 58.7628 47.5427 58.7927 47.1279 58.3924C46.1651 57.4667 47.0149 56.9398 47.8099 55.8952Z" fill="#020202"/>
<path d="M34.9227 12.3051C32.5786 4.57865 25.2046 0.241205 18.2031 1.31388C18.2186 1.82685 18.2497 2.33981 18.2652 2.85295C24.3741 3.3429 28.4628 7.94616 29.0347 12.8015C29.3548 13.028 29.4272 13.4841 29.2526 13.823C30.199 15.1083 35.3246 15.0511 34.9226 12.3051H34.9227Z" fill="#495201"/>
<path d="M29.377 14.0126C29.4034 13.8697 30.1016 14.0956 31.1981 14.2472C32.7728 14.3569 34.2372 13.5713 34.0429 11.987C33.8779 10.1787 31.6443 7.40121 30.3383 6.14069C25.3208 1.27545 20.4002 1.93702 18.8369 1.6187C18.8081 2.25743 20.4965 2.48626 21.1003 2.69609C24.0173 3.57359 26.125 5.49865 27.3681 7.32063C29.7414 10.7302 29.7083 14.0284 29.3769 14.0126C29.3769 14.0126 27.6709 6.01406 20.6868 4.14028C20.091 3.9233 19.3354 3.9308 18.4441 3.46057C17.1286 2.79621 16.8531 1.02934 17.7192 0.267133C18.1382 -0.134903 20.0252 0.029574 20.6127 0.053295C24.9081 0.403877 28.6832 2.28359 31.3951 5.07342C32.9906 6.70563 35.1238 9.69936 35.1937 11.9235C35.2431 13.1794 34.6117 14.2271 33.4675 14.7059C32.5476 15.0697 31.7252 15.0165 31.0935 14.873C29.8635 14.4877 29.3694 14.0919 29.3769 14.0126H29.377Z" fill="black"/>
<path d="M55.3408 15.1942C54.9501 14.578 53.7895 13.6686 53.2129 13.2217C48.76 10.2256 42.902 12.4632 37.9635 11.6378C35.4285 11.2871 34.0648 10.3715 34.1524 10.2201C34.2574 9.96689 35.6862 10.4519 38.0564 10.4889C43.5279 10.7507 54.3084 6.89433 57.5279 17.2342C58.3841 19.9848 56.6908 16.9602 55.3406 15.1944L55.3408 15.1942Z" fill="black"/>
<path d="M57.6517 18.3034C57.4863 18.7368 55.2426 18.2521 52.4831 18.0029C49.7266 17.7222 47.4416 17.8021 47.3528 17.3486C47.2506 16.9217 49.626 16.079 52.6375 16.3799C55.6485 16.6578 57.8228 17.9019 57.6517 18.3034Z" fill="black"/>
<path d="M47.8406 35.3069C47.4124 35.0803 49.4512 31.3216 49.2611 26.2826C49.1772 21.2409 46.9368 17.5985 47.3521 17.3491C47.7857 17.0468 50.7334 20.7954 50.8907 26.2383C51.0297 31.686 48.2884 35.5837 47.8406 35.3069Z" fill="black"/>
<path d="M47.943 35.0371C47.4394 35.0932 47.0253 30.1575 44.1985 25.0031C41.4474 19.7801 37.2898 17.0794 37.5637 16.6772C37.6643 16.5045 38.8662 16.934 40.5063 18.158C44.2849 20.952 47.4244 26.2446 48.0738 31.7543C48.3117 33.7718 48.1488 35.0256 47.9431 35.0371H47.943Z" fill="black"/>
<path d="M33.1819 35.8544C32.9847 35.8436 32.8838 34.6019 33.5123 32.7719C34.6542 29.1401 38.4797 24.8433 37.9181 19.6584C37.7006 17.7473 37.1897 15.5505 38.2216 17.3503C38.5957 18.0361 38.5361 17.8299 39.0558 19.4733C39.5916 21.346 39.3682 24.2681 38.0958 26.9186C36.863 29.5842 35.3655 31.6218 34.5724 33.2243C33.7296 34.7991 33.4322 35.8846 33.1819 35.8542V35.8544Z" fill="black"/>
<path d="M33.1945 35.8095C32.932 35.7551 33.0192 34.7309 32.4381 33.2679C31.9026 31.7839 30.636 29.9121 29.2813 27.6875C28.3656 26.1249 26.7965 23.2826 27.3372 21.0778C27.4394 19.7292 28.6931 18.4829 28.877 18.6197C29.1203 18.7761 28.506 19.6948 28.4842 21.192C28.4231 21.9345 28.7046 22.8214 29.0545 23.7774C30.2348 26.6042 33.0164 29.9815 33.5475 32.9557C33.9119 34.7681 33.362 35.8802 33.1945 35.8097V35.8095Z" fill="black"/>
<path d="M17.6318 30.9589C17.2251 30.7974 18.6038 27.0535 21.9024 23.5541C25.163 20.0384 28.66 18.2577 28.8768 18.6205C29.1427 19.0159 26.1863 21.3244 23.0974 24.6629C19.9714 27.972 18.0509 31.1616 17.6318 30.9591V30.9589Z" fill="black"/>
<path d="M17.6201 30.7969C17.1971 30.8833 16.3039 27.8398 16.6974 24.0101C17.0698 20.1785 18.548 17.3721 18.9455 17.5404C19.3848 17.7031 18.6628 20.585 18.3195 24.1723C17.9459 27.7566 18.083 30.7244 17.6201 30.7969Z" fill="black"/>
<path d="M18.9463 17.542C19.1239 17.6505 18.7984 18.6269 17.8698 19.9907C15.7727 23.0029 12.7133 25.0166 9.72443 25.6421C6.36407 26.2246 4.10884 25.0874 4.24192 24.7436C4.31919 24.4996 5.29733 24.6824 6.79733 24.6069C8.29751 24.5497 10.3211 24.0723 12.3152 22.9253C16.3358 20.6218 18.5279 17.244 18.9463 17.5419V17.542Z" fill="black"/>
<path d="M9.4876 18.1751C13.4532 14.3371 22.0037 8.32711 10.6201 19.3478C-0.726718 30.2802 5.45503 22.0617 9.4876 18.1751Z" fill="black"/>
<path d="M16.2532 13.313C15.9022 13.5762 14.5971 12.3479 14.0454 10.292C13.4837 8.23877 13.9897 6.5197 14.4256 6.56941C14.8859 6.6036 15.1325 8.1186 15.6188 9.86558C16.0812 11.619 16.6332 13.051 16.2533 13.313H16.2532Z" fill="black"/>
</svg>
