<?xml version="1.0" encoding="utf-8"?>
<!-- Generator: Adobe Illustrator 28.1.0, SVG Export Plug-In . SVG Version: 6.00 Build 0)  -->
<svg version="1.1" id="Layer_1" xmlns="http://www.w3.org/2000/svg" xmlns:xlink="http://www.w3.org/1999/xlink" x="0px" y="0px"
	 viewBox="0 0 270 150" style="enable-background:new 0 0 270 150;" xml:space="preserve">
<style type="text/css">
	.st0{fill:#EC732E;}
	.st1{fill:#FFFFFF;}
</style>
<g>
	<circle class="st0" cx="135.5" cy="76.5" r="45"/>
	<path class="st1" d="M139.6,55c0-2.3-1.8-4.1-4.1-4.1v0.4c2.1,0,3.7,1.7,3.7,3.7L139.6,55L139.6,55z M135.5,59.1
		c2.2,0,4.1-1.8,4.1-4.1h-0.4c0,2-1.7,3.7-3.7,3.7V59.1z M131.4,55c0,2.2,1.9,4.1,4.1,4.1v-0.4c-2,0-3.7-1.7-3.7-3.7
		C131.8,55,131.4,55,131.4,55z M135.5,50.9c-2.3,0-4.1,1.8-4.1,4.1h0.4c0-2,1.7-3.7,3.7-3.7C135.5,51.3,135.5,50.9,135.5,50.9z
		 M135.5,61.3c-3.5,0-6.3-2.8-6.3-6.3h-0.4c0,3.7,3,6.7,6.7,6.7V61.3z M141.8,55c0,3.5-2.8,6.3-6.3,6.3v0.4c3.7,0,6.7-3,6.7-6.7
		C142.2,55,141.8,55,141.8,55z M135.5,48.7c3.5,0,6.3,2.8,6.3,6.3h0.4c0-3.7-3-6.7-6.7-6.7C135.5,48.3,135.5,48.7,135.5,48.7z
		 M129.2,55c0-3.5,2.8-6.3,6.3-6.3v-0.4c-3.7,0-6.7,3-6.7,6.7C128.8,55,129.2,55,129.2,55z M139.4,55h0.2l0,0H139.4z M135.5,58.9
		v0.2l0,0V58.9z M135.5,51.1v0.2l0,0V51.1z M135.5,61.5v0.2l0,0V61.5z M142,55h0.2l0,0H142z M135.5,48.5v0.2l0,0V48.5z M129,55h0.2
		H129z"/>
	<path class="st1" d="M135.5,51.1c-2.2,0-3.9,1.7-3.9,3.9s1.8,3.9,3.9,3.9c2.1,0,3.9-1.8,3.9-3.9C139.4,52.9,137.7,51.1,135.5,51.1z
		 M129,55c0-3.6,2.9-6.5,6.5-6.5c3.6,0,6.5,2.9,6.5,6.5c0,3.6-2.9,6.5-6.5,6.5C131.9,61.5,129,58.6,129,55z"/>
	<path class="st1" d="M127.6,85.5C127.6,85.5,127.6,85.5,127.6,85.5c0.1,0,0.1,0,0.1,0c0,0,0,0,0.1,0l-0.1-0.4c-0.1,0-0.1,0-0.1,0
		c0,0,0,0,0,0c0,0,0,0,0,0L127.6,85.5L127.6,85.5z M124.9,83.1c0,1.2,0.2,1.8,0.7,2.2c0.2,0.2,0.5,0.2,0.9,0.3c0.3,0,0.7,0,1.1,0
		l0-0.4c-0.4,0-0.8,0-1.1,0c-0.3,0-0.5-0.1-0.7-0.2c-0.3-0.2-0.5-0.7-0.5-1.8L124.9,83.1L124.9,83.1z M124.9,71.4
		c0,3.9,0.1,7.8,0,11.7h0.4c0.1-3.9,0-7.8,0-11.7H124.9z M129.3,66c-2.6,0.5-4.3,2.6-4.3,5.4h0.4c0-2.5,1.6-4.5,4-5L129.3,66
		L129.3,66z M130.6,65.9c-0.4,0-0.9,0-1.3,0.1l0.1,0.4c0.4-0.1,0.8-0.1,1.2-0.1C130.6,66.3,130.6,65.9,130.6,65.9z M140.3,65.9
		c-3.2,0.1-6.5,0-9.7,0v0.4c3.2,0,6.5,0.1,9.7,0L140.3,65.9L140.3,65.9z M146.1,71.6c0.1-3.2-2.4-5.8-5.8-5.7v0.4
		c3.1-0.1,5.4,2.3,5.4,5.3L146.1,71.6L146.1,71.6z M146.1,83.5c0-4-0.1-8,0-11.9h-0.4c-0.1,4,0,8,0,11.9H146.1z M144,85.5
		c0.7,0,1.3-0.1,1.6-0.4c0.3-0.3,0.4-0.9,0.4-1.6h-0.4c0,0.7-0.1,1.1-0.3,1.3c-0.2,0.2-0.6,0.3-1.3,0.3C144,85.1,144,85.5,144,85.5z
		 M143.3,85.5h0.7v-0.4h-0.7V85.5z M143.1,84.6L143.1,84.6L143.1,84.6L143.1,84.6L143.1,84.6L143.1,84.6L143.1,84.6L143.1,84.6
		L143.1,84.6L143.1,84.6v0.1l0,0v0l0,0v0l0,0v0l0,0v0l0,0v0l0,0v0l0,0v0l0,0v0l0,0v0l0,0v0l0,0v0l0,0v0l0,0v0l0,0v0l0,0v0l0,0v0l0,0
		v0l0,0v0l0,0v0l0,0v0l0,0v0l0,0v0l0,0v0l0,0v0l0,0v0l0,0v0l0,0v0l0,0v0l0,0v0l0,0v0l0,0v0l0,0v0l0,0v0l0,0v0l0,0v0l0,0v0l0,0v0l0,0
		v0l0,0v0l0,0v0l0,0v0l0,0v0l0,0h0.4l0,0v0l0,0v0l0,0v0l0,0v0l0,0v0l0,0v0l0,0v0l0,0v0l0,0v0l0,0v0l0,0v0l0,0v0l0,0v0l0,0v0l0,0v0
		l0,0v0l0,0v0l0,0v0l0,0v0l0,0v0l0,0v0l0,0v0l0,0v0l0,0v0l0,0v0l0,0v0l0,0v0l0,0v0l0,0v0l0,0v0l0,0v0l0,0v0l0,0v0l0,0v0l0,0v0l0,0v0
		l0,0v0l0,0v0l0,0v0l0,0v0l0,0v0l0,0v0l0,0v0l0,0v0l0,0v0l0,0v0l0,0v0l0,0H143.1z M143.1,72.7c0,4,0,7.9,0,11.9h0.4
		c0-4,0-7.9,0-11.9H143.1z M141.7,71.5c0.4-0.1,0.7-0.1,1,0.2c0.2,0.2,0.4,0.6,0.4,1h0.4c0-0.6-0.2-1.1-0.6-1.3
		c-0.4-0.3-0.8-0.4-1.4-0.2C141.6,71.1,141.7,71.5,141.7,71.5z M140.9,72.3c0-0.2,0.1-0.4,0.2-0.5c0.1-0.1,0.3-0.2,0.5-0.3l-0.1-0.4
		c-0.3,0.1-0.5,0.2-0.7,0.4c-0.2,0.2-0.3,0.5-0.3,0.8C140.5,72.3,140.9,72.3,140.9,72.3z M140.9,73.1c0-0.3,0-0.5,0-0.8l-0.4,0
		c0,0.3,0,0.5,0,0.8L140.9,73.1L140.9,73.1z M140.9,99.3V73.1h-0.4v26.2H140.9z M140.9,99.9c0-0.2,0-0.4,0-0.6h-0.4
		c0,0.2,0,0.4,0,0.6C140.5,99.9,140.9,99.9,140.9,99.9z M138.8,102.1c1.2,0,2.1-0.9,2.2-2.2h-0.4c0,1.1-0.8,1.8-1.8,1.8
		C138.7,101.7,138.7,102.1,138.8,102.1z M136.6,99.9c0,0.7,0.2,1.2,0.6,1.6c0.4,0.4,0.9,0.6,1.5,0.6v-0.4c-0.5,0-0.9-0.2-1.2-0.5
		c-0.3-0.3-0.5-0.8-0.5-1.3L136.6,99.9L136.6,99.9z M136.6,88.4c0,3.8,0,7.7,0,11.5h0.4c0-3.8,0-7.7,0-11.5H136.6z M136.6,87.7
		c0,0.2,0,0.4,0,0.6h0.4c0-0.2,0-0.5,0-0.7C137,87.7,136.6,87.7,136.6,87.7z M135.5,86.8c0.5,0,1,0.4,1.1,1l0.4-0.1
		c-0.1-0.8-0.7-1.3-1.5-1.3V86.8z M134.4,87.7c0.1-0.6,0.5-1,1.1-1v-0.4c-0.8,0-1.4,0.6-1.5,1.3L134.4,87.7z M134.4,88.4
		c0-0.2,0-0.4,0-0.6l-0.4-0.1c0,0.2,0,0.5,0,0.7L134.4,88.4L134.4,88.4z M134.4,99.8c0-3.8,0-7.6,0-11.5H134c0,3.8,0,7.6,0,11.5
		H134.4z M132.4,102.1c0.6,0,1.1-0.3,1.4-0.7c0.4-0.4,0.6-1,0.6-1.6H134c0,0.6-0.2,1-0.5,1.3s-0.7,0.5-1.2,0.5L132.4,102.1
		L132.4,102.1z M130.2,100.3c0.2,1.1,1.1,1.8,2.2,1.8l0-0.4c-0.9,0-1.7-0.5-1.8-1.4L130.2,100.3L130.2,100.3z M130.1,99.5
		c0,0.3,0,0.6,0.1,0.9l0.4-0.1c0-0.2,0-0.5,0-0.8C130.5,99.5,130.1,99.5,130.1,99.5z M130.1,73.1c0,8.8,0,17.6,0,26.3h0.4
		c0-8.8,0-17.6,0-26.3H130.1z M130.1,72.4c0,0.2,0,0.5,0,0.7h0.4c0-0.2,0-0.5,0-0.7L130.1,72.4z M129.1,71.4c0.6,0,1,0.4,1.1,1
		l0.4,0c-0.1-0.8-0.7-1.4-1.5-1.4L129.1,71.4L129.1,71.4z M128,72.4c0.1-0.6,0.5-1,1.1-1V71c-0.8,0-1.4,0.6-1.5,1.4L128,72.4
		L128,72.4z M128,73c0-0.2,0-0.4,0-0.6l-0.4,0c0,0.2,0,0.4,0,0.6L128,73L128,73z M128,84.6V73h-0.4v11.6H128z M128,85.2v-0.7h-0.4
		v0.7H128z M127.6,87.7L127.6,87.7l0.3,0.3l0,0L127.6,87.7z M128,88.6L128,88.6L128,88.6L128,88.6L128,88.6L128,88.6L128,88.6
		L128,88.6L128,88.6L128,88.6L128,88.6L128,88.6v-0.1l0,0v0l0,0v0l0,0v0l0,0v0l0,0v0l0,0v0l0,0v0l0,0v0l0,0v0l0,0v0l0,0v0l0,0v0l0,0
		v0l0,0v0l0,0v0l0,0v0l0,0v0l0,0v0l0,0v0l0,0v0l0,0v0l0,0v0l0,0v0l0,0v0l0,0v0l0,0v0l0,0v0l0,0v0l0,0v0l0,0v0l0,0v0l0,0v0l0,0v0l0,0
		v0l0,0v0l0,0v0l0,0v0l0,0v0l0,0v0l0,0v0l0,0v0l0,0v0l0,0h-0.4l0,0v0l0,0v0l0,0v0l0,0v0l0,0v0l0,0v0l0,0v0l0,0v0l0,0v0l0,0v0l0,0v0
		l0,0v0l0,0v0l0,0v0l0,0v0l0,0v0l0,0v0l0,0v0l0,0v0l0,0v0l0,0v0l0,0v0l0,0v0l0,0v0l0,0v0l0,0v0l0,0v0l0,0v0l0,0v0l0,0v0l0,0v0l0,0v0
		l0,0v0l0,0v0l0,0v0l0,0v0l0,0v0l0,0v0l0,0v0l0,0v0l0,0v0l0,0v0l0,0v0l0,0v0l0,0v0l0,0v0l0,0v0l0,0v0l0,0H128z M128,100
		c0-3.8,0-7.6,0-11.5h-0.4c0,3.8,0,7.6,0,11.5H128z M132.9,104.2c-2.6,0.3-4.9-1.6-4.9-4.2h-0.4c0,2.9,2.5,5,5.4,4.6L132.9,104.2z
		 M135.4,103c-0.7,0.6-1.5,1.1-2.5,1.2l0.1,0.4c1.1-0.1,1.9-0.6,2.7-1.3L135.4,103L135.4,103z M135.8,103.1c0,0-0.1-0.1-0.1-0.1
		s-0.1,0-0.1,0l-0.1,0.4c0,0,0.1,0,0.1,0c0,0,0,0,0,0c0,0,0,0,0,0L135.8,103.1L135.8,103.1z M140.7,103.8c-0.9,0.4-1.7,0.6-2.5,0.4
		c-0.8-0.1-1.6-0.5-2.4-1.2l-0.3,0.3c0.8,0.7,1.6,1.1,2.6,1.2c0.9,0.1,1.8,0,2.8-0.5L140.7,103.8L140.7,103.8z M143.1,99.6
		c0,1-0.2,1.8-0.6,2.5s-1,1.3-1.9,1.7l0.2,0.4c0.9-0.5,1.6-1.1,2.1-1.9c0.4-0.8,0.6-1.7,0.6-2.7L143.1,99.6L143.1,99.6z M143.1,88.5
		c0,3.7,0,7.4,0,11.1h0.4c0-3.7,0-7.4,0-11.1H143.1z M143.1,87.8v0.7h0.4v-0.7H143.1z M144.4,87.6c-0.3,0-0.7,0-1.1,0V88
		c0.4,0,0.8,0,1.1,0L144.4,87.6L144.4,87.6z M148.3,83.9c0,1.1-0.4,2-1.1,2.7c-0.7,0.7-1.6,1-2.8,1.1V88c1.2,0,2.3-0.4,3-1.2
		c0.8-0.7,1.2-1.8,1.2-3C148.7,83.9,148.3,83.9,148.3,83.9z M148.3,71.1c0.1,4.2,0,8.5,0,12.8h0.4c0-4.2,0.1-8.5,0-12.8H148.3z
		 M140.7,63.7c4.2,0,7.5,3.2,7.6,7.4h0.4c-0.1-4.4-3.5-7.8-8-7.8V63.7z M130.3,63.7c3.5,0,6.9,0,10.4,0v-0.4c-3.5,0-6.9,0-10.4,0
		L130.3,63.7L130.3,63.7z M122.8,71c0.1-4.1,3.4-7.2,7.5-7.2v-0.4c-4.4,0.1-7.8,3.3-7.9,7.6L122.8,71L122.8,71z M122.8,84
		c0-4.4-0.1-8.7,0-13.1h-0.4c-0.1,4.3,0,8.7,0,13.1L122.8,84L122.8,84z M126,87.6c-1.8-0.3-3.2-1.7-3.2-3.6h-0.4
		c0,2.1,1.5,3.7,3.5,4C125.9,88,126,87.6,126,87.6z M127.8,87.6c-0.3,0-0.7,0-1,0c-0.3,0-0.6,0-0.8,0l-0.1,0.4c0.3,0,0.6,0.1,0.9,0
		c0.3,0,0.6,0,1,0V87.6z M127.6,85.3v-0.2h0L127.6,85.3z M125.2,83H125H125.2z M125.2,71.3H125l0,0H125.2z M129.4,66.2l0,0.2l0,0
		L129.4,66.2z M130.6,66.1v0.2l0,0V66.1z M140.4,66.1v-0.2V66.1z M145.9,71.6h0.2l0,0H145.9z M143.3,85.3h-0.2v0.2h0.2V85.3z
		 M143.3,72.7h-0.2H143.3z M141.6,71.3l-0.1-0.2l0,0L141.6,71.3z M140.8,72.3l-0.2,0l0,0L140.8,72.3z M140.8,99.9h-0.2l0,0H140.8z
		 M136.9,99.9h-0.2H136.9z M136.9,88.4h-0.2H136.9z M136.8,87.7l-0.2,0l0,0L136.8,87.7z M135.5,86.6v0.2l0,0V86.6z M134.3,87.7
		l-0.2,0l0,0L134.3,87.7z M134.3,88.4h0.2l0,0H134.3z M134.3,99.8h-0.2l0,0H134.3z M132.4,101.9v0.2l0,0V101.9z M130.4,100.3l-0.2,0
		l0,0L130.4,100.3z M130.4,99.5h0.2H130.4z M130.4,72.4h0.2v0L130.4,72.4z M129.1,71.2v0.2l0,0V71.2z M127.8,72.4l0.2,0l0,0
		L127.8,72.4z M127.8,85.2l0.1,0.2l0.1,0v-0.1H127.8z M127.8,87.8h0.2v-0.5l-0.3,0.3L127.8,87.8z M127.8,100h0.2H127.8z
		 M132.9,104.4l0,0.2l0,0L132.9,104.4z M135.5,103.2l0.1-0.2l-0.1,0l-0.1,0.1L135.5,103.2z M135.7,103.3l-0.1,0.2l0,0L135.7,103.3z
		 M140.8,104l0.1,0.2l0,0L140.8,104z M143.4,99.6h0.2H143.4z M143.4,87.9v-0.2h-0.2v0.2H143.4z M144.5,87.9v0.2l0,0V87.9z
		 M148.5,83.9h0.2l0,0H148.5z M148.5,71.2h-0.2H148.5z M140.8,63.6v0.2l0,0V63.6z M130.4,63.6v-0.2l0,0V63.6z M122.6,71h-0.2l0,0
		H122.6z M122.6,84.1h-0.2H122.6z M126,87.8l0-0.2l0,0L126,87.8z M127.8,87.8V88h0.1L128,88C128,88,127.8,87.8,127.8,87.8z"/>
	<path class="st1" d="M127.7,85.2V73c0-0.2,0-0.4,0-0.6c0.1-0.7,0.6-1.2,1.3-1.2s1.2,0.5,1.3,1.2c0,0.2,0,0.5,0,0.7
		c0,8.8,0,17.6,0,26.3c0,0.3,0,0.6,0.1,0.8c0.2,1,1,1.7,2,1.6c1.1-0.1,1.8-0.9,1.8-2.1c0-3.8,0-7.6,0-11.5c0-0.2,0-0.4,0-0.7
		c0.1-0.7,0.6-1.1,1.3-1.2c0.6,0,1.2,0.5,1.3,1.1c0,0.2,0,0.4,0,0.7c0,3.8,0,7.7,0,11.5c0,1.2,0.8,2,1.9,2s1.9-0.8,2-2
		c0-0.2,0-0.4,0-0.6V73.1c0-0.3,0-0.5,0-0.8c0.1-0.5,0.4-0.9,0.9-1c0.9-0.3,1.7,0.3,1.7,1.4c0,4,0,7.9,0,11.9v0.7h0.7
		c1.5,0,1.8-0.4,1.8-1.8c0-4-0.1-8,0-11.9c0.1-3.1-2.3-5.6-5.6-5.5c-3.2,0.1-6.5,0-9.7,0c-0.4,0-0.9,0-1.3,0.1
		c-2.5,0.5-4.2,2.5-4.2,5.2c0,3.9,0.1,7.8,0,11.7c0,2.3,0.8,2.3,2.5,2.2C127.6,85.3,127.6,85.3,127.7,85.2L127.7,85.2z M127.7,87.8
		c-0.7,0-1.3,0.1-1.8,0c-1.9-0.3-3.3-1.8-3.3-3.8c0-4.4-0.1-8.7,0-13.1c0.1-4.2,3.5-7.4,7.7-7.4c3.5,0,6.9,0,10.4,0
		c4.3,0,7.7,3.3,7.8,7.6c0.1,4.3,0,8.5,0,12.8c0,2.3-1.7,3.9-4.1,3.9c-0.3,0-0.7,0-1.1,0v0.7c0,3.7,0,7.4,0,11.1
		c0,2-0.7,3.5-2.6,4.4c-1.8,0.9-3.6,0.6-5.1-0.8c0,0-0.1,0-0.2-0.1c-0.7,0.6-1.6,1.1-2.6,1.2c-2.7,0.3-5.1-1.7-5.1-4.4
		c0-3.8,0-7.6,0-11.4L127.7,87.8L127.7,87.8L127.7,87.8z"/>
</g>
</svg>
