<?xml version="1.0" encoding="utf-8"?>
<!-- Generator: Adobe Illustrator 27.0.0, SVG Export Plug-In . SVG Version: 6.00 Build 0)  -->
<svg version="1.1" id="Layer_1" xmlns="http://www.w3.org/2000/svg" xmlns:xlink="http://www.w3.org/1999/xlink" x="0px" y="0px"
	 viewBox="0 0 1300 400" style="enable-background:new 0 0 1300 400;" xml:space="preserve">
<style type="text/css">
	.st0{clip-path:url(#SVGID_00000169520649659459132190000002329411134114749621_);fill:#FFFFFF;}
	.st1{filter:url(#Adobe_OpacityMaskFilter);}
	.st2{clip-path:url(#SVGID_00000169520649659459132190000002329411134114749621_);fill:#0563C1;}
	
		.st3{clip-path:url(#SVGID_00000169520649659459132190000002329411134114749621_);mask:url(#SVGID_00000080183284185814989010000008813595064272245897_);}
	.st4{clip-path:url(#SVGID_00000169520649659459132190000002329411134114749621_);}
	.st5{fill:#FEFCEB;}
	.st6{fill:#9FBCAD;}
	.st7{clip-path:url(#SVGID_00000153696333771889198390000001185687940713602959_);fill:#18292D;}
	.st8{opacity:0.9;}
	.st9{clip-path:url(#SVGID_00000011005355735529857870000011283956983492618681_);fill:#18292D;}
	.st10{fill:#F8D512;}
	.st11{fill:#87AB99;}
	.st12{fill:#5185F7;}
	.st13{clip-path:url(#SVGID_00000139276696329803221350000005613937437064079267_);}
	.st14{fill:#76E15C;}
	.st15{fill-rule:evenodd;clip-rule:evenodd;fill:#FFD7B1;}
	.st16{fill-rule:evenodd;clip-rule:evenodd;}
</style>
<g>
	<defs>
		<rect id="SVGID_1_" width="1300" height="400"/>
	</defs>
	<clipPath id="SVGID_00000122703079009952162340000003708731347403469960_">
		<use xlink:href="#SVGID_1_"  style="overflow:visible;"/>
	</clipPath>
	
		<rect style="clip-path:url(#SVGID_00000122703079009952162340000003708731347403469960_);fill:#FFFFFF;" width="1300" height="400"/>
	<defs>
		<filter id="Adobe_OpacityMaskFilter" filterUnits="userSpaceOnUse" x="0" y="0" width="1300" height="400">
			<feColorMatrix  type="matrix" values="1 0 0 0 0  0 1 0 0 0  0 0 1 0 0  0 0 0 1 0"/>
		</filter>
	</defs>
	
		<mask maskUnits="userSpaceOnUse" x="0" y="0" width="1300" height="400" id="SVGID_00000137842594351461578240000009365178359154063266_">
		<g class="st1">
			<path style="clip-path:url(#SVGID_00000122703079009952162340000003708731347403469960_);fill:#0563C1;" d="M0,20
				C0,8.95,8.95,0,20,0h1260c11.05,0,20,8.95,20,20v360c0,11.05-8.95,20-20,20H20c-11.05,0-20-8.95-20-20V20z"/>
		</g>
	</mask>
	
		<g style="clip-path:url(#SVGID_00000122703079009952162340000003708731347403469960_);mask:url(#SVGID_00000137842594351461578240000009365178359154063266_);">
		<g>
			<defs>
				<rect id="SVGID_00000057109648780814007000000003016209118191680935_" width="1300" height="400"/>
			</defs>
			<clipPath id="SVGID_00000159434582084446058630000002636792754532613556_">
				<use xlink:href="#SVGID_00000057109648780814007000000003016209118191680935_"  style="overflow:visible;"/>
			</clipPath>
		</g>
	</g>
	<g style="clip-path:url(#SVGID_00000122703079009952162340000003708731347403469960_);">
		<path class="st5" d="M1189.54,271.97c-10.8,133.2-406.5,126-581,96c-35.33-45.17-23.1-102.4-95.5-30s-231.83,31.67-274,19.5
			c-88.67-28.5-237.1-117.8-121.5-247s248.5-89.83,300.5-54c62,65,217.2,170.6,342,73s242-96,285-83
			C1097.7,66.14,1200.34,138.77,1189.54,271.97z"/>
		<path d="M960.93,140.54c0.58,0.07,1.19,0.07,1.82-0.01l0.26,1.98c-0.81,0.11-1.57,0.1-2.31,0.01L960.93,140.54z M955.35,138.61
			c0.33,0.14,0.66,0.28,0.97,0.42c0.32,0.14,0.63,0.27,0.93,0.4l-0.78,1.84c-0.32-0.13-0.63-0.27-0.95-0.41
			c-0.32-0.14-0.63-0.27-0.95-0.41L955.35,138.61z M952.98,137.66c0.79,0.31,1.58,0.63,2.37,0.96l-0.78,1.84
			c-0.77-0.32-1.54-0.63-2.31-0.93L952.98,137.66z M943.32,134.46c1.63,0.46,3.25,0.95,4.87,1.48l-0.62,1.9
			c-1.58-0.52-3.18-1-4.79-1.46L943.32,134.46z M933.48,131.99c1.64,0.37,3.29,0.76,4.93,1.17l-0.48,1.94
			c-1.62-0.4-3.25-0.79-4.89-1.16L933.48,131.99z M926.06,130.4c0.82,0.17,1.65,0.34,2.47,0.52l-0.41,1.96
			c-0.82-0.17-1.64-0.35-2.47-0.52L926.06,130.4z M923.23,129.84c0.94,0.18,1.89,0.36,2.84,0.56l-0.41,1.96
			c-0.94-0.2-1.87-0.38-2.8-0.55L923.23,129.84z M911.78,128.2c1.9,0.19,3.81,0.42,5.74,0.69l-0.28,1.98
			c-1.9-0.27-3.78-0.5-5.65-0.68L911.78,128.2z M900.22,127.61c1.92,0.01,3.85,0.06,5.79,0.16l-0.1,2c-1.91-0.1-3.8-0.15-5.69-0.16
			L900.22,127.61z M888.67,128.09c1.92-0.17,3.85-0.29,5.77-0.38l0.08,2c-1.9,0.08-3.79,0.2-5.68,0.37L888.67,128.09z M877.2,129.58
			c1.91-0.32,3.81-0.61,5.71-0.86l0.26,1.98c-1.87,0.24-3.75,0.53-5.64,0.85L877.2,129.58z M865.89,131.9
			c1.89-0.45,3.77-0.87,5.63-1.25l0.4,1.96c-1.84,0.38-3.7,0.79-5.57,1.24L865.89,131.9z M854.75,134.87
			c1.87-0.54,3.72-1.06,5.55-1.55l0.52,1.93c-1.82,0.49-3.65,1-5.51,1.54L854.75,134.87z M843.76,138.29
			c1.85-0.61,3.67-1.2,5.48-1.76l0.6,1.91c-1.8,0.56-3.61,1.15-5.45,1.75L843.76,138.29z M835.59,141.07
			c0.91-0.32,1.82-0.63,2.72-0.94l0.65,1.89c-0.9,0.31-1.8,0.62-2.71,0.94L835.59,141.07z M832.73,142.08
			c0.96-0.34,1.91-0.68,2.85-1.01l0.66,1.89c-0.94,0.33-1.88,0.66-2.84,1.01L832.73,142.08z M821.35,146.37
			c1.9-0.75,3.8-1.48,5.67-2.18l0.7,1.87c-1.86,0.7-3.75,1.43-5.64,2.17L821.35,146.37z M810.11,150.98
			c1.87-0.8,3.74-1.59,5.61-2.35l0.76,1.85c-1.85,0.76-3.72,1.54-5.58,2.34L810.11,150.98z M799,155.94
			c1.84-0.86,3.68-1.7,5.53-2.52l0.82,1.83c-1.84,0.82-3.67,1.66-5.5,2.51L799,155.94z M788.06,161.26c1.8-0.92,3.62-1.82,5.45-2.71
			l0.87,1.8c-1.82,0.88-3.62,1.78-5.41,2.69L788.06,161.26z M777.33,167c1.75-0.99,3.53-1.96,5.34-2.92l0.94,1.76
			c-1.79,0.96-3.56,1.92-5.3,2.9L777.33,167z M766.87,173.23c1.69-1.07,3.43-2.14,5.2-3.19l1.02,1.72c-1.76,1.04-3.47,2.1-5.15,3.16
			L766.87,173.23z M756.8,180.09c1.6-1.18,3.26-2.35,4.97-3.52l1.13,1.65c-1.69,1.15-3.33,2.31-4.9,3.47L756.8,180.09z
			 M747.34,187.85c1.45-1.34,2.99-2.67,4.62-4l1.27,1.55c-1.6,1.3-3.11,2.61-4.52,3.92L747.34,187.85z M739.06,196.97
			c1.16-1.59,2.47-3.18,3.92-4.76l1.47,1.35c-1.41,1.53-2.67,3.06-3.78,4.59L739.06,196.97z M733.71,208.22
			c0.41-1.98,1.12-3.96,2.1-5.94l1.79,0.89c-0.91,1.85-1.56,3.67-1.93,5.46L733.71,208.22z M734.27,217.71
			c-0.36-1.03-0.61-2.07-0.77-3.12l1.98-0.29c0.14,0.93,0.36,1.85,0.68,2.76L734.27,217.71z M735.47,220.6
			c-0.45-0.93-0.86-1.89-1.21-2.9l1.89-0.65c0.32,0.93,0.69,1.82,1.11,2.67L735.47,220.6z M743.42,230.12
			c-1.66-1.26-3.19-2.69-4.53-4.28l1.53-1.29c1.24,1.48,2.66,2.8,4.21,3.98L743.42,230.12z M754.47,235.63
			c-1.99-0.6-3.92-1.35-5.75-2.26l0.88-1.79c1.73,0.85,3.56,1.57,5.45,2.14L754.47,235.63z M766.62,237.49
			c-2.05-0.03-4.1-0.2-6.14-0.51l0.3-1.98c1.94,0.29,3.91,0.46,5.87,0.48L766.62,237.49z M778.82,235.96
			c-1.95,0.55-3.98,0.95-6.05,1.2l-0.24-1.99c1.98-0.24,3.91-0.63,5.76-1.14L778.82,235.96z M787.35,232.25
			c-0.87,0.55-1.78,1.05-2.72,1.52l-0.88-1.8c0.88-0.43,1.73-0.9,2.53-1.41L787.35,232.25z M790.04,230.38
			c-0.85,0.65-1.75,1.27-2.7,1.87l-1.07-1.69c0.9-0.57,1.75-1.16,2.56-1.77L790.04,230.38z M798.65,220.5
			c-1.03,1.92-2.28,3.72-3.77,5.42l-1.5-1.32c1.39-1.58,2.56-3.27,3.51-5.05L798.65,220.5z M802.26,207.91
			c-0.2,2.24-0.58,4.4-1.15,6.46l-1.93-0.54c0.54-1.94,0.9-3.97,1.09-6.1L802.26,207.91z M802.07,198.14
			c0.12,1.1,0.21,2.18,0.27,3.24l-2,0.11c-0.06-1.03-0.14-2.07-0.26-3.13L802.07,198.14z M801.61,194.82
			c0.18,1.08,0.33,2.18,0.46,3.32l-1.99,0.22c-0.12-1.1-0.27-2.17-0.44-3.21L801.61,194.82z M797.54,182.04
			c1.01,1.96,1.86,4.03,2.55,6.25l-1.91,0.6c-0.66-2.11-1.46-4.08-2.41-5.92L797.54,182.04z M789.27,171.43
			c1.72,1.56,3.25,3.19,4.61,4.92l-1.57,1.24c-1.28-1.64-2.74-3.19-4.38-4.67L789.27,171.43z M781.22,165.43
			c0.97,0.61,1.9,1.22,2.79,1.84l-1.14,1.64c-0.87-0.6-1.77-1.2-2.71-1.79L781.22,165.43z M778.57,163.87
			c0.89,0.49,1.77,1.01,2.66,1.56l-1.06,1.69c-0.85-0.53-1.7-1.03-2.56-1.51L778.57,163.87z M767.19,159.23
			c1.96,0.54,3.9,1.2,5.83,1.98l-0.75,1.85c-1.85-0.76-3.72-1.39-5.61-1.91L767.19,159.23z M755.08,157.23
			c2.05,0.13,4.08,0.36,6.1,0.69l-0.32,1.97c-1.95-0.32-3.92-0.53-5.91-0.67L755.08,157.23z M742.86,157.37
			c2.05-0.16,4.08-0.26,6.1-0.29l0.03,2c-1.97,0.03-3.96,0.13-5.97,0.28L742.86,157.37z M730.78,158.86
			c2.02-0.32,4.02-0.61,6.02-0.86l0.25,1.98c-1.97,0.25-3.95,0.54-5.95,0.86L730.78,158.86z M721.83,160.43
			c1-0.19,1.99-0.37,2.98-0.55l0.36,1.97c-0.99,0.18-1.97,0.36-2.97,0.55L721.83,160.43z M718.83,161.05c0.99-0.23,2-0.43,3-0.62
			l0.37,1.97c-0.98,0.18-1.96,0.39-2.93,0.61L718.83,161.05z M707.14,164.62c1.9-0.73,3.83-1.4,5.78-1.99l0.58,1.91
			c-1.9,0.58-3.79,1.23-5.65,1.94L707.14,164.62z M696.05,169.73c1.8-0.97,3.61-1.88,5.46-2.73l0.84,1.82
			c-1.8,0.83-3.58,1.73-5.34,2.68L696.05,169.73z M685.68,176.13c1.68-1.17,3.37-2.28,5.1-3.35l1.05,1.7
			c-1.69,1.04-3.36,2.14-5.01,3.29L685.68,176.13z M676.03,183.59c1.55-1.32,3.13-2.61,4.73-3.85l1.22,1.58
			c-1.57,1.22-3.13,2.48-4.66,3.79L676.03,183.59z M667.13,191.88c1.43-1.45,2.89-2.86,4.36-4.24l1.36,1.46
			c-1.46,1.36-2.89,2.75-4.3,4.18L667.13,191.88z M658.91,200.85c1.32-1.55,2.66-3.07,4.03-4.56l1.48,1.35
			c-1.35,1.47-2.67,2.98-3.98,4.51L658.91,200.85z M651.35,210.37c1.21-1.63,2.44-3.24,3.7-4.82l1.57,1.24
			c-1.24,1.57-2.46,3.16-3.66,4.77L651.35,210.37z M644.41,220.34c1.11-1.7,2.24-3.38,3.39-5.04l1.64,1.14
			c-1.14,1.65-2.26,3.31-3.36,4.99L644.41,220.34z M638.08,230.71c1-1.75,2.04-3.5,3.09-5.23l1.71,1.04
			c-1.05,1.71-2.07,3.44-3.06,5.18L638.08,230.71z M632.33,241.41c0.91-1.8,1.84-3.6,2.8-5.39l1.76,0.95
			c-0.95,1.77-1.88,3.56-2.78,5.34L632.33,241.41z M627.17,252.39c0.8-1.84,1.64-3.68,2.5-5.52l1.81,0.85
			c-0.86,1.82-1.68,3.65-2.48,5.47L627.17,252.39z M622.61,263.66c0.7-1.88,1.44-3.77,2.2-5.67l1.85,0.75
			c-0.76,1.88-1.49,3.75-2.18,5.62L622.61,263.66z M618.69,275.17c0.59-1.91,1.21-3.84,1.87-5.78l1.89,0.64
			c-0.65,1.92-1.27,3.83-1.85,5.72L618.69,275.17z M615.52,286.89c0.45-1.94,0.95-3.9,1.49-5.89l1.93,0.52
			c-0.53,1.96-1.02,3.91-1.47,5.82L615.52,286.89z M613.22,298.84c0.29-1.96,0.63-3.96,1.02-6l1.96,0.38
			c-0.39,2.01-0.73,3.98-1.01,5.91L613.22,298.84z M612.1,311c0.06-1.97,0.19-4.01,0.39-6.11l1.99,0.19
			c-0.19,2.06-0.32,4.06-0.38,5.98L612.1,311z M612.78,323.25c-0.31-1.92-0.52-3.97-0.63-6.11l2-0.1c0.11,2.08,0.31,4.05,0.61,5.89
			L612.78,323.25z M615.38,332.16c-0.42-0.91-0.81-1.88-1.15-2.89l1.9-0.64c0.32,0.95,0.67,1.84,1.06,2.68L615.38,332.16z
			 M960.7,142.53c-0.55-0.06-0.94-0.56-0.88-1.11s0.56-0.94,1.11-0.88L960.7,142.53z M957.25,139.43c0.51,0.21,0.75,0.8,0.53,1.31
			c-0.21,0.51-0.8,0.75-1.31,0.53L957.25,139.43z M952.26,139.52c-0.52-0.2-0.77-0.78-0.57-1.29c0.2-0.52,0.78-0.77,1.29-0.57
			L952.26,139.52z M948.18,135.94c0.52,0.17,0.81,0.74,0.64,1.26c-0.17,0.52-0.74,0.81-1.26,0.64L948.18,135.94z M942.77,136.38
			c-0.53-0.15-0.84-0.7-0.69-1.23c0.15-0.53,0.7-0.84,1.23-0.69L942.77,136.38z M938.41,133.16c0.54,0.13,0.86,0.68,0.73,1.21
			c-0.13,0.54-0.68,0.86-1.21,0.73L938.41,133.16z M933.04,133.94c-0.54-0.12-0.88-0.66-0.76-1.2c0.12-0.54,0.66-0.88,1.2-0.76
			L933.04,133.94z M928.54,130.92c0.54,0.11,0.89,0.65,0.77,1.19c-0.11,0.54-0.65,0.89-1.19,0.77L928.54,130.92z M922.86,131.8
			c-0.54-0.1-0.9-0.62-0.8-1.17s0.62-0.9,1.17-0.8L922.86,131.8z M917.52,128.89c0.55,0.08,0.93,0.59,0.85,1.13
			c-0.08,0.55-0.59,0.93-1.13,0.85L917.52,128.89z M911.58,130.19c-0.55-0.05-0.95-0.54-0.9-1.09s0.54-0.95,1.09-0.9L911.58,130.19z
			 M906.01,127.77c0.55,0.03,0.98,0.5,0.95,1.05c-0.03,0.55-0.5,0.98-1.05,0.95L906.01,127.77z M900.21,129.61c-0.55,0-1-0.45-1-1
			c0-0.55,0.45-1,1-1L900.21,129.61z M894.44,127.72c0.55-0.02,1.02,0.4,1.04,0.96s-0.4,1.02-0.96,1.04L894.44,127.72z
			 M888.84,130.08c-0.55,0.05-1.04-0.36-1.08-0.91c-0.05-0.55,0.36-1.04,0.91-1.08L888.84,130.08z M882.92,128.72
			c0.55-0.07,1.05,0.31,1.12,0.86c0.07,0.55-0.31,1.05-0.86,1.12L882.92,128.72z M877.54,131.55c-0.54,0.09-1.06-0.27-1.15-0.82
			c-0.09-0.54,0.27-1.06,0.82-1.15L877.54,131.55z M871.53,130.65c0.54-0.11,1.07,0.24,1.18,0.78c0.11,0.54-0.24,1.07-0.78,1.18
			L871.53,130.65z M866.36,133.85c-0.54,0.13-1.08-0.2-1.2-0.74c-0.13-0.54,0.2-1.08,0.74-1.2L866.36,133.85z M860.3,133.31
			c0.53-0.14,1.08,0.17,1.22,0.71s-0.17,1.08-0.71,1.22L860.3,133.31z M855.31,136.79c-0.53,0.15-1.09-0.15-1.24-0.68
			c-0.15-0.53,0.15-1.09,0.68-1.24L855.31,136.79z M849.24,136.53c0.53-0.16,1.09,0.13,1.25,0.66c0.16,0.53-0.13,1.09-0.66,1.25
			L849.24,136.53z M844.39,140.19c-0.52,0.17-1.09-0.11-1.26-0.64c-0.17-0.52,0.11-1.09,0.64-1.26L844.39,140.19z M838.31,140.13
			c0.52-0.18,1.09,0.1,1.27,0.62c0.18,0.52-0.1,1.09-0.62,1.27L838.31,140.13z M833.41,143.97c-0.52,0.19-1.09-0.08-1.28-0.6
			c-0.19-0.52,0.08-1.09,0.6-1.28L833.41,143.97z M827.02,144.18c0.52-0.19,1.09,0.07,1.29,0.58c0.19,0.52-0.07,1.09-0.58,1.29
			L827.02,144.18z M822.08,148.23c-0.51,0.2-1.09-0.05-1.3-0.56s0.05-1.09,0.56-1.3L822.08,148.23z M815.71,148.63
			c0.51-0.21,1.1,0.03,1.3,0.55c0.21,0.51-0.03,1.1-0.55,1.3L815.71,148.63z M810.89,152.82c-0.51,0.22-1.1-0.02-1.31-0.53
			c-0.22-0.51,0.02-1.1,0.53-1.31L810.89,152.82z M804.53,153.42c0.5-0.23,1.1,0,1.32,0.51c0.23,0.5,0,1.1-0.51,1.32L804.53,153.42z
			 M799.85,157.75c-0.5,0.23-1.1,0.02-1.33-0.48c-0.23-0.5-0.02-1.1,0.48-1.33L799.85,157.75z M793.51,158.55
			c0.5-0.24,1.1-0.03,1.34,0.46s0.03,1.1-0.46,1.34L793.51,158.55z M788.97,163.04c-0.49,0.25-1.09,0.05-1.34-0.44
			s-0.05-1.09,0.44-1.34L788.97,163.04z M782.67,164.07c0.49-0.26,1.09-0.08,1.35,0.41c0.26,0.49,0.08,1.09-0.41,1.35L782.67,164.07
			z M778.31,168.74c-0.48,0.27-1.09,0.1-1.36-0.38c-0.27-0.48-0.1-1.09,0.38-1.36L778.31,168.74z M772.07,170.04
			c0.47-0.28,1.09-0.13,1.37,0.35c0.28,0.47,0.13,1.09-0.35,1.37L772.07,170.04z M767.94,174.92c-0.47,0.3-1.08,0.16-1.38-0.31
			s-0.16-1.08,0.31-1.38L767.94,174.92z M761.77,176.57c0.46-0.31,1.08-0.19,1.39,0.26c0.31,0.46,0.19,1.08-0.26,1.39L761.77,176.57
			z M757.99,181.7c-0.44,0.33-1.07,0.23-1.4-0.21c-0.33-0.44-0.23-1.07,0.21-1.4L757.99,181.7z M751.96,183.85
			c0.43-0.35,1.06-0.29,1.41,0.14c0.35,0.43,0.29,1.06-0.14,1.41L751.96,183.85z M748.7,189.32c-0.41,0.37-1.04,0.35-1.41-0.06
			c-0.37-0.41-0.35-1.04,0.06-1.41L748.7,189.32z M742.99,192.21c0.37-0.41,1.01-0.43,1.41-0.06s0.43,1.01,0.06,1.41L742.99,192.21z
			 M740.68,198.15c-0.32,0.45-0.95,0.55-1.4,0.22c-0.45-0.32-0.55-0.95-0.22-1.4L740.68,198.15z M735.81,202.28
			c0.24-0.49,0.84-0.7,1.34-0.45c0.49,0.24,0.7,0.84,0.45,1.34L735.81,202.28z M735.67,208.62c-0.11,0.54-0.64,0.89-1.18,0.78
			c-0.54-0.11-0.89-0.64-0.78-1.18L735.67,208.62z M733.5,214.58c-0.08-0.55,0.3-1.05,0.84-1.14c0.55-0.08,1.05,0.3,1.14,0.84
			L733.5,214.58z M737.27,219.72c0.24,0.5,0.04,1.1-0.46,1.34c-0.5,0.24-1.09,0.04-1.34-0.46L737.27,219.72z M738.89,225.84
			c-0.36-0.42-0.3-1.05,0.12-1.41c0.42-0.36,1.05-0.3,1.41,0.12L738.89,225.84z M744.63,228.53c0.44,0.33,0.53,0.96,0.19,1.4
			c-0.33,0.44-0.96,0.53-1.4,0.19L744.63,228.53z M748.71,233.37c-0.5-0.24-0.7-0.84-0.46-1.34c0.24-0.5,0.84-0.7,1.34-0.46
			L748.71,233.37z M755.05,233.71c0.53,0.16,0.83,0.72,0.67,1.25c-0.16,0.53-0.72,0.83-1.25,0.67L755.05,233.71z M760.48,236.98
			c-0.55-0.08-0.92-0.59-0.84-1.14c0.08-0.55,0.59-0.92,1.14-0.84L760.48,236.98z M766.65,235.49c0.55,0.01,0.99,0.46,0.98,1.01
			c-0.01,0.55-0.46,0.99-1.01,0.98L766.65,235.49z M772.77,237.16c-0.55,0.07-1.05-0.32-1.11-0.87c-0.07-0.55,0.32-1.05,0.87-1.11
			L772.77,237.16z M778.28,234.03c0.53-0.15,1.08,0.16,1.23,0.69c0.15,0.53-0.16,1.08-0.69,1.23L778.28,234.03z M784.62,233.77
			c-0.5,0.24-1.09,0.04-1.34-0.46c-0.24-0.5-0.04-1.1,0.46-1.34L784.62,233.77z M788.84,228.79c0.44-0.33,1.07-0.25,1.4,0.19
			s0.25,1.07-0.19,1.4L788.84,228.79z M794.88,225.92c-0.36,0.41-1,0.46-1.41,0.09c-0.41-0.36-0.46-1-0.09-1.41L794.88,225.92z
			 M796.89,219.55c0.26-0.49,0.87-0.67,1.35-0.41c0.49,0.26,0.67,0.87,0.41,1.35L796.89,219.55z M801.1,214.37
			c-0.15,0.53-0.7,0.84-1.23,0.69c-0.53-0.15-0.84-0.7-0.69-1.23L801.1,214.37z M800.26,207.73c0.05-0.55,0.53-0.96,1.08-0.91
			c0.55,0.05,0.96,0.53,0.91,1.08L800.26,207.73z M802.34,201.38c0.03,0.55-0.39,1.02-0.94,1.05c-0.55,0.03-1.02-0.39-1.05-0.94
			L802.34,201.38z M799.64,195.15c-0.09-0.54,0.28-1.06,0.82-1.15c0.54-0.09,1.06,0.28,1.15,0.82L799.64,195.15z M800.08,188.29
			c0.16,0.53-0.13,1.09-0.66,1.25c-0.53,0.16-1.09-0.13-1.25-0.66L800.08,188.29z M795.76,182.96c-0.25-0.49-0.06-1.09,0.43-1.35
			c0.49-0.25,1.09-0.06,1.35,0.43L795.76,182.96z M793.88,176.35c0.34,0.43,0.27,1.06-0.17,1.4c-0.43,0.34-1.06,0.27-1.4-0.17
			L793.88,176.35z M787.93,172.91c-0.41-0.37-0.44-1-0.07-1.41s1-0.44,1.41-0.07L787.93,172.91z M784.01,167.27
			c0.45,0.32,0.56,0.94,0.25,1.39c-0.32,0.45-0.94,0.56-1.39,0.25L784.01,167.27z M777.6,165.62c-0.48-0.27-0.66-0.87-0.39-1.36
			c0.27-0.48,0.87-0.66,1.36-0.39L777.6,165.62z M773.01,161.21c0.51,0.21,0.76,0.79,0.55,1.3s-0.79,0.76-1.3,0.55L773.01,161.21z
			 M766.65,161.16c-0.53-0.15-0.84-0.7-0.7-1.23c0.15-0.53,0.7-0.84,1.23-0.7L766.65,161.16z M761.18,157.92
			c0.55,0.09,0.92,0.6,0.83,1.15c-0.09,0.55-0.6,0.92-1.15,0.83L761.18,157.92z M754.95,159.23c-0.55-0.04-0.97-0.51-0.93-1.06
			c0.04-0.55,0.51-0.97,1.06-0.93L754.95,159.23z M748.96,157.08c0.55-0.01,1.01,0.43,1.01,0.99s-0.43,1.01-0.99,1.01L748.96,157.08
			z M743.01,159.37c-0.55,0.04-1.03-0.37-1.07-0.92c-0.04-0.55,0.37-1.03,0.92-1.07L743.01,159.37z M736.8,158
			c0.55-0.07,1.05,0.32,1.12,0.87c0.07,0.55-0.32,1.05-0.87,1.12L736.8,158z M731.1,160.84c-0.55,0.09-1.06-0.28-1.15-0.83
			c-0.09-0.55,0.28-1.06,0.83-1.15L731.1,160.84z M724.81,159.88c0.54-0.1,1.06,0.26,1.16,0.81c0.1,0.54-0.26,1.06-0.81,1.16
			L724.81,159.88z M719.27,163.01c-0.54,0.12-1.07-0.22-1.2-0.75c-0.12-0.54,0.22-1.07,0.75-1.2L719.27,163.01z M712.92,162.63
			c0.53-0.16,1.09,0.14,1.25,0.66c0.16,0.53-0.14,1.09-0.66,1.25L712.92,162.63z M707.85,166.48c-0.52,0.2-1.09-0.06-1.29-0.58
			s0.06-1.09,0.58-1.29L707.85,166.48z M701.51,167c0.5-0.23,1.1-0.01,1.33,0.49c0.23,0.5,0.01,1.1-0.49,1.33L701.51,167z
			 M697,171.49c-0.49,0.26-1.09,0.08-1.36-0.4c-0.26-0.49-0.08-1.09,0.4-1.36L697,171.49z M690.77,172.78
			c0.47-0.29,1.09-0.14,1.38,0.32c0.29,0.47,0.14,1.09-0.32,1.38L690.77,172.78z M686.82,177.77c-0.45,0.32-1.08,0.2-1.39-0.25
			c-0.32-0.45-0.2-1.08,0.25-1.39L686.82,177.77z M680.76,179.74c0.44-0.34,1.06-0.26,1.4,0.18c0.34,0.44,0.26,1.06-0.18,1.4
			L680.76,179.74z M677.33,185.11c-0.42,0.36-1.05,0.31-1.41-0.11c-0.36-0.42-0.31-1.05,0.11-1.41L677.33,185.11z M671.49,187.64
			c0.4-0.38,1.04-0.35,1.41,0.05c0.38,0.4,0.35,1.04-0.05,1.41L671.49,187.64z M668.55,193.28c-0.39,0.39-1.02,0.4-1.41,0.01
			c-0.39-0.39-0.4-1.02-0.01-1.41L668.55,193.28z M662.93,196.28c0.37-0.41,1.01-0.44,1.41-0.06c0.41,0.37,0.44,1.01,0.06,1.41
			L662.93,196.28z M660.43,202.14c-0.36,0.42-0.99,0.47-1.41,0.11c-0.42-0.36-0.47-0.99-0.11-1.41L660.43,202.14z M655.05,205.55
			c0.34-0.43,0.97-0.51,1.4-0.16s0.51,0.97,0.16,1.4L655.05,205.55z M652.96,211.56c-0.33,0.44-0.96,0.54-1.4,0.21
			c-0.44-0.33-0.54-0.96-0.21-1.4L652.96,211.56z M647.81,215.3c0.32-0.45,0.94-0.57,1.39-0.25c0.45,0.32,0.57,0.94,0.25,1.39
			L647.81,215.3z M646.09,221.43c-0.3,0.46-0.92,0.59-1.38,0.29c-0.46-0.3-0.59-0.92-0.29-1.38L646.09,221.43z M641.17,225.48
			c0.29-0.47,0.9-0.62,1.37-0.33c0.47,0.29,0.62,0.9,0.33,1.37L641.17,225.48z M639.82,231.7c-0.27,0.48-0.89,0.64-1.36,0.37
			c-0.48-0.27-0.64-0.89-0.37-1.36L639.82,231.7z M635.13,236.02c0.26-0.49,0.87-0.67,1.35-0.41c0.49,0.26,0.67,0.87,0.41,1.35
			L635.13,236.02z M634.12,242.31c-0.25,0.49-0.85,0.69-1.34,0.44c-0.49-0.25-0.69-0.85-0.44-1.34L634.12,242.31z M629.67,246.87
			c0.23-0.5,0.83-0.71,1.33-0.48c0.5,0.23,0.71,0.83,0.48,1.33L629.67,246.87z M629,253.19c-0.22,0.51-0.81,0.74-1.32,0.52
			c-0.51-0.22-0.74-0.81-0.52-1.32L629,253.19z M624.81,257.99c0.21-0.51,0.79-0.76,1.3-0.55c0.51,0.21,0.76,0.79,0.55,1.3
			L624.81,257.99z M624.48,264.36c-0.19,0.52-0.77,0.78-1.29,0.59c-0.52-0.19-0.78-0.77-0.59-1.29L624.48,264.36z M620.56,269.39
			c0.18-0.52,0.75-0.8,1.27-0.62s0.8,0.75,0.62,1.27L620.56,269.39z M620.61,275.75c-0.16,0.53-0.72,0.82-1.25,0.66
			c-0.53-0.16-0.82-0.72-0.66-1.25L620.61,275.75z M617.01,281c0.14-0.53,0.69-0.85,1.23-0.7c0.53,0.14,0.85,0.69,0.7,1.23
			L617.01,281z M617.47,287.35c-0.13,0.54-0.66,0.87-1.2,0.75c-0.54-0.13-0.87-0.66-0.75-1.2L617.47,287.35z M614.25,292.84
			c0.1-0.54,0.63-0.9,1.17-0.79c0.54,0.1,0.9,0.63,0.79,1.17L614.25,292.84z M615.2,299.13c-0.08,0.55-0.59,0.92-1.14,0.84
			s-0.92-0.59-0.84-1.14L615.2,299.13z M612.49,304.89c0.05-0.55,0.54-0.95,1.09-0.9c0.55,0.05,0.95,0.54,0.9,1.09L612.49,304.89z
			 M614.1,311.06c-0.02,0.55-0.48,0.99-1.03,0.97c-0.55-0.02-0.99-0.48-0.97-1.03L614.1,311.06z M612.15,317.14
			c-0.03-0.55,0.4-1.02,0.95-1.05c0.55-0.03,1.02,0.4,1.05,0.95L612.15,317.14z M614.76,322.93c0.09,0.55-0.28,1.06-0.83,1.15
			c-0.55,0.09-1.06-0.28-1.15-0.83L614.76,322.93z M614.24,329.27c-0.18-0.52,0.11-1.09,0.63-1.27c0.52-0.18,1.09,0.11,1.27,0.63
			L614.24,329.27z M617.2,331.32c0.23,0.5,0.02,1.1-0.48,1.33c-0.5,0.23-1.1,0.02-1.33-0.48L617.2,331.32z M722.01,161.42
			l-0.18-0.98L722.01,161.42z M780.69,166.28l-0.53,0.85L780.69,166.28z M801.08,198.25l0.99-0.11L801.08,198.25z M786.81,231.41
			l-0.53-0.85L786.81,231.41z M735.21,217.38l0.94-0.33L735.21,217.38z M835.92,142.02l0.33,0.94L835.92,142.02z M925.86,131.38
			l0.2-0.98L925.86,131.38z M954.96,139.53l0.39-0.92L954.96,139.53z M962.75,140.53c0.55-0.07,1.05,0.31,1.12,0.86
			s-0.31,1.05-0.86,1.12L962.75,140.53z"/>
		<circle class="st6" cx="1013.72" cy="167.96" r="56.5"/>
		<g>
			<defs>
				<circle id="SVGID_00000135682784932786304990000007876636263427843244_" cx="1013.72" cy="167.96" r="56.5"/>
			</defs>
			<clipPath id="SVGID_00000055690785221656224280000003253202416806761133_">
				<use xlink:href="#SVGID_00000135682784932786304990000007876636263427843244_"  style="overflow:visible;"/>
			</clipPath>
			<path style="clip-path:url(#SVGID_00000055690785221656224280000003253202416806761133_);fill:#18292D;" d="M1013.72,113.46
				c30.1,0,54.5,24.4,54.5,54.5h4c0-32.31-26.19-58.5-58.5-58.5V113.46z M959.22,167.96c0-30.1,24.4-54.5,54.5-54.5v-4
				c-32.31,0-58.5,26.19-58.5,58.5H959.22z M1013.72,222.46c-30.1,0-54.5-24.4-54.5-54.5h-4c0,32.31,26.19,58.5,58.5,58.5V222.46z
				 M1068.22,167.96c0,30.1-24.4,54.5-54.5,54.5v4c32.31,0,58.5-26.19,58.5-58.5H1068.22z"/>
		</g>
		<path d="M993.64,163.13c-1.29-0.4-2.52-0.9-3.68-1.5l1.03-3.35c0.44-1.43,1.16-3.55,2.17-6.36l0.4-1.05
			c0.72-2.02,1.23-3.52,1.52-4.48c-0.41,0.29-0.79,0.38-1.15,0.27c-0.16-0.05-0.61-0.28-1.36-0.71c-0.73-0.42-1.38-0.84-1.96-1.26
			s-0.85-0.7-0.81-0.83c0.17-0.41,0.73-1.08,1.68-2.01c0.97-0.95,2-1.87,3.09-2.79c1.09-0.91,1.72-1.41,1.89-1.51l0.4,0.12
			c1.13,0.3,2.09,0.57,2.9,0.82c1.43,0.44,2.75,0.91,3.96,1.4c-0.38,1.62-0.91,3.55-1.6,5.81c-0.53,1.72-1.37,4.23-2.53,7.53
			c-0.97,2.75-1.8,5.27-2.5,7.54c-0.32,1.05-0.55,1.83-0.69,2.35C996.26,163.65,995.33,163.65,993.64,163.13z"/>
		<path d="M993.84,176.67c0.23-0.94,0.44-2.18,0.63-3.73l0.11-0.62l0.09-0.73c0.3,0.01,0.86,0.07,1.67,0.17l1.5,0.15l2.05,0.22
			c1.77,0.17,3.22,0.32,4.35,0.46c2.59,0.32,4.78,0.69,6.56,1.12c-0.06,0.32-0.13,0.81-0.21,1.45c-0.09,0.74-0.15,1.3-0.17,1.67
			c-0.03,0.4-0.09,1.01-0.19,1.85c-0.98,1.64-2.19,3.52-3.65,5.62c-1.45,2.08-4.06,5.71-7.82,10.89l-1.31,1.78l-1.88-0.16l0.03,0
			c-0.63-0.01-1.36-0.06-2.17-0.16c-0.83-0.1-1.55-0.3-2.15-0.58c1.34-2.14,2.98-4.69,4.92-7.65c3.14-4.93,5.32-8.39,6.52-10.38
			L993.84,176.67z"/>
		<path class="st8" d="M1020.02,144.48c-0.23,0.1-0.52,0.36-0.85,0.76c-0.26,0.27-0.28,0.66-0.06,1.17
			c0.21,0.42,0.43,0.78,0.67,1.08c0.27,0.21,0.56,0.35,0.87,0.42c0.33,0.06,0.63,0.03,0.88-0.08c0.21-0.09,0.4-0.24,0.57-0.44
			c0.16-0.22,0.26-0.46,0.3-0.71c0.01-0.26-0.06-0.69-0.22-1.28c-0.17-0.44-0.47-0.74-0.9-0.91
			C1020.85,144.3,1020.43,144.3,1020.02,144.48z M1030.47,148.32c0.08,0.17,0.28,0.57,0.6,1.19c0.34,0.66,0.59,1.16,0.73,1.48
			c0.23,0.51,0.41,1.03,0.57,1.55c0.5,1.82,0.58,3.53,0.24,5.14c-0.28,0.92-0.83,1.76-1.64,2.52c-0.79,0.76-1.76,1.39-2.91,1.9
			c-1.43,0.63-2.95,0.97-4.56,1.02c-1.62,0.03-2.97-0.26-4.05-0.86c-1.02-0.65-1.79-1.54-2.3-2.7c-0.23-0.51-0.37-0.9-0.43-1.15
			l-0.13-0.29l1.89-0.91l0.69-0.34c0.58-0.31,1.06-0.54,1.45-0.71c0.7-0.31,1.34-0.54,1.91-0.69c0.32,0.37,0.68,0.64,1.09,0.82
			c0.4,0.16,0.77,0.15,1.1-0.02l-0.03,0.01c0.48-0.29,0.68-0.81,0.58-1.55c-0.08-0.76-0.34-1.57-0.77-2.45
			c-0.57,0.45-1.17,0.82-1.81,1.1c-1.2,0.53-2.43,0.75-3.72,0.68c-1.27-0.1-2.42-0.48-3.44-1.12c-0.6-0.37-1.15-0.88-1.67-1.52
			c-0.49-0.65-0.9-1.35-1.23-2.1c-0.77-1.75-0.95-3.35-0.55-4.81c0.3-1.1,0.93-2.11,1.89-3.01c0.96-0.94,2.12-1.73,3.47-2.37
			l0.49-0.18l0.48-0.21c1.4-0.59,2.56-0.96,3.49-1.12c0.92-0.17,1.8,0.02,2.64,0.6c0.81,0.51,1.48,1.2,2.02,2.06
			c0.55,0.85,1.15,1.97,1.78,3.35L1030.47,148.32z"/>
		<path d="M1032.86,185.2c-0.73,0.86-1.25,1.51-1.54,1.96c-0.28,0.42-0.49,0.9-0.62,1.43c-0.14,0.51-0.25,1.29-0.33,2.33
			c0.51-0.18,1.22-0.46,2.15-0.85c1.23-0.51,2.14-0.89,2.74-1.16c1.32-0.59,2.49-1.1,3.5-1.52c0.43,0.43,0.79,1,1.08,1.71l0.18,0.53
			l0.61,1.49c0.14,0.35,0.27,0.61,0.4,0.78c0.04,0.11,0.03,0.19-0.05,0.25c-0.06,0.05-0.21,0.13-0.47,0.23l-12.23,5.22l-1.04,0.5
			c-0.26,0.11-0.47,0.17-0.64,0.19c-0.14,0.03-0.25,0.07-0.34,0.1c-0.38-1.16-0.71-2.08-0.99-2.77c-0.52-1.33-0.89-2.41-1.11-3.25
			c-0.2-0.85-0.23-1.75-0.08-2.69c0.47-1.3,1.46-2.98,2.96-5.04c0.87-1.19,1.54-2.18,1.99-2.98c0.22-0.32,0.34-0.71,0.35-1.17
			c0-0.48-0.09-0.95-0.27-1.4c-0.23-0.56-0.55-1-0.96-1.31c-0.41-0.33-0.83-0.44-1.23-0.33c-0.68,0.31-0.99,0.87-0.93,1.71
			c0.06,0.81,0.28,1.81,0.67,3.02c-1.2,0.7-2.43,1.3-3.68,1.82c-0.71,0.29-1.4,0.49-2.07,0.59c-0.46-0.69-0.83-1.38-1.12-2.08
			c-0.44-1.06-0.68-2.12-0.74-3.18c-0.07-1.08,0.07-2.11,0.4-3.08c0.27-0.87,0.9-1.71,1.88-2.51c0.98-0.81,2.1-1.47,3.35-1.98
			c1.49-0.61,2.78-0.93,3.88-0.95c1.31,0.12,2.46,0.55,3.45,1.31c1,0.72,1.82,1.66,2.45,2.82l0.12,0.29l0.15,0.28
			c0.48,1.04,0.81,1.81,0.99,2.32c0.42,1.32,0.34,2.55-0.22,3.69C1034.95,182.62,1034.07,183.85,1032.86,185.2z"/>
		<path d="M212.37,225.4c-0.38-0.34-0.79-0.62-1.27-0.85l0.85-1.81c0.67,0.32,1.25,0.72,1.76,1.17L212.37,225.4z M215.31,229.65
			c-0.29-0.48-0.67-1.14-0.93-1.58l1.72-1.02c0.35,0.59,0.58,0.99,0.93,1.57L215.31,229.65z M217.12,232.52
			c-0.62-0.94-1.22-1.89-1.81-2.87l1.72-1.03c0.57,0.95,1.15,1.88,1.76,2.79L217.12,232.52z M225.34,243.22
			c-1.46-1.69-2.89-3.43-4.27-5.22l1.58-1.22c1.36,1.75,2.77,3.46,4.21,5.13L225.34,243.22z M232.08,250.71
			c-0.76-0.82-1.51-1.64-2.27-2.47l1.48-1.35c0.75,0.82,1.51,1.64,2.26,2.46L232.08,250.71z M234.03,252.77
			c-0.65-0.68-1.3-1.37-1.95-2.06l1.47-1.36c0.64,0.69,1.28,1.36,1.92,2.03L234.03,252.77z M242.27,260.59
			c-1.42-1.23-2.83-2.5-4.21-3.81l1.38-1.45c1.36,1.29,2.74,2.54,4.14,3.75L242.27,260.59z M251.24,267.56
			c-1.55-1.08-3.07-2.2-4.58-3.37l1.23-1.58c1.48,1.15,2.97,2.25,4.49,3.31L251.24,267.56z M260.92,273.54
			c-1.66-0.9-3.31-1.85-4.93-2.85l1.05-1.7c1.59,0.98,3.2,1.91,4.83,2.79L260.92,273.54z M271.24,278.33
			c-1.77-0.69-3.51-1.44-5.23-2.24l0.84-1.81c1.68,0.78,3.39,1.52,5.12,2.19L271.24,278.33z M282.08,281.83
			c-1.85-0.47-3.67-1-5.47-1.58l0.61-1.9c1.76,0.57,3.55,1.08,5.35,1.54L282.08,281.83z M293.26,283.96
			c-1.9-0.24-3.77-0.54-5.62-0.89l0.37-1.96c1.81,0.34,3.65,0.64,5.5,0.87L293.26,283.96z M301.77,284.67
			c-0.95-0.04-1.9-0.09-2.84-0.15l0.14-2c0.92,0.06,1.85,0.11,2.79,0.15L301.77,284.67z M304.93,284.72
			c-1.09,0.01-2.15-0.01-3.17-0.05l0.08-2c0.99,0.04,2.02,0.06,3.08,0.05L304.93,284.72z M317.56,283.61
			c-2.14,0.35-4.24,0.61-6.29,0.79l-0.18-1.99c2-0.18,4.05-0.43,6.14-0.78L317.56,283.61z M329.87,280.63
			c-2.03,0.66-4.07,1.24-6.1,1.73l-0.47-1.94c1.99-0.48,3.98-1.04,5.95-1.69L329.87,280.63z M341.54,275.61
			c-1.86,1.02-3.77,1.95-5.72,2.78l-0.79-1.84c1.89-0.81,3.75-1.71,5.54-2.7L341.54,275.61z M351.88,268.16
			c-1.55,1.46-3.2,2.81-4.94,4.06l-1.16-1.63c1.67-1.19,3.25-2.49,4.73-3.88L351.88,268.16z M359.68,258.02
			c-1.02,1.92-2.19,3.71-3.49,5.39l-1.58-1.22c1.23-1.59,2.34-3.29,3.31-5.11L359.68,258.02z M363.07,249.01
			c-0.25,1.06-0.54,2.09-0.87,3.1l-1.9-0.62c0.31-0.95,0.59-1.93,0.83-2.94L363.07,249.01z M363.64,246.32
			c-0.16,0.87-0.35,1.77-0.57,2.69l-1.95-0.46c0.21-0.89,0.39-1.75,0.55-2.59L363.64,246.32z M364.09,235.3
			c0.24,1.71,0.32,3.56,0.22,5.56l-2-0.1c0.1-1.88,0.03-3.6-0.2-5.17L364.09,235.3z M359.46,225.12c1.27,1.37,2.32,2.95,3.11,4.75
			l-1.83,0.81c-0.71-1.6-1.63-2.99-2.75-4.2L359.46,225.12z M349.97,219.3c1.83,0.62,3.53,1.38,5.08,2.3l-1.02,1.72
			c-1.41-0.84-2.99-1.54-4.71-2.12L349.97,219.3z M341.92,217.47c0.92,0.13,1.82,0.27,2.71,0.44l-0.38,1.96
			c-0.85-0.16-1.72-0.3-2.6-0.43L341.92,217.47z M338.68,217.29c1.04-0.03,2.12,0.03,3.24,0.18l-0.27,1.98
			c-1.02-0.14-1.99-0.19-2.91-0.17L338.68,217.29z M327.28,222.95c1.42-1.71,3.1-3.12,5.06-4.1l0.9,1.79
			c-1.68,0.84-3.15,2.06-4.42,3.59L327.28,222.95z M321.89,234.39c0.54-2.11,1.22-4.12,2.05-5.97l1.82,0.82
			c-0.78,1.73-1.42,3.63-1.94,5.65L321.89,234.39z M320.37,243.65c0.09-1.04,0.2-2.08,0.34-3.11l1.98,0.27
			c-0.13,0.99-0.24,2-0.33,3.01L320.37,243.65z M320.19,246.19c0.05-0.82,0.11-1.66,0.18-2.54l1.99,0.17
			c-0.07,0.86-0.13,1.69-0.18,2.48L320.19,246.19z M320.61,256.45c-0.28-1.61-0.45-3.3-0.51-5.14l2-0.06
			c0.06,1.76,0.21,3.36,0.48,4.86L320.61,256.45z M324.23,266.15c-0.89-1.55-1.64-3.09-2.24-4.68l1.87-0.71
			c0.56,1.47,1.25,2.91,2.1,4.38L324.23,266.15z M328.53,272.49c-0.53-0.7-1.03-1.38-1.51-2.05l1.63-1.16
			c0.46,0.65,0.96,1.32,1.48,2.01L328.53,272.49z M330.4,274.98c-0.63-0.84-1.26-1.67-1.87-2.48l1.6-1.21
			c0.62,0.82,1.24,1.64,1.87,2.48L330.4,274.98z M338.02,284.88c-1.32-1.66-2.6-3.31-3.84-4.93l1.59-1.22
			c1.24,1.62,2.51,3.25,3.82,4.9L338.02,284.88z M346.09,294.47c-1.41-1.57-2.78-3.15-4.11-4.74l1.53-1.29
			c1.32,1.57,2.67,3.13,4.07,4.68L346.09,294.47z M354.9,303.42c-1.55-1.42-3.05-2.89-4.52-4.37l1.43-1.4
			c1.44,1.47,2.92,2.9,4.44,4.3L354.9,303.42z M364.69,311.35c-1.72-1.21-3.4-2.49-5.02-3.81l1.26-1.55
			c1.59,1.29,3.23,2.54,4.91,3.72L364.69,311.35z M375.56,317.75c-1.91-0.91-3.77-1.91-5.58-2.98l1.02-1.72
			c1.76,1.04,3.56,2.01,5.42,2.89L375.56,317.75z M387.44,322.09c-2.07-0.53-4.09-1.16-6.05-1.88l0.69-1.88
			c1.9,0.7,3.85,1.31,5.86,1.82L387.44,322.09z M396.8,323.74c-1.06-0.11-2.11-0.24-3.14-0.39l0.3-1.98c1,0.15,2.02,0.28,3.04,0.38
			L396.8,323.74z M399.93,323.95c-1.05-0.04-2.1-0.11-3.13-0.21l0.2-1.99c0.99,0.1,1.99,0.17,3.01,0.2L399.93,323.95z M412.4,323.22
			c-2.08,0.3-4.16,0.52-6.21,0.65l-0.12-2c1.99-0.12,4.02-0.34,6.05-0.63L412.4,323.22z M424.57,320.65c-2,0.55-4.02,1.04-6.04,1.47
			l-0.42-1.96c1.98-0.42,3.97-0.91,5.93-1.44L424.57,320.65z M436.38,316.81c-1.91,0.72-3.87,1.41-5.85,2.06l-0.62-1.9
			c1.96-0.64,3.89-1.32,5.77-2.03L436.38,316.81z M447.79,311.93c-1.8,0.86-3.7,1.72-5.66,2.56l-0.79-1.84
			c1.94-0.83,3.8-1.67,5.58-2.52L447.79,311.93z M458.72,306.02c-1.61,1-3.42,2.04-5.4,3.1l-0.95-1.76
			c1.94-1.04,3.71-2.07,5.29-3.04L458.72,306.02z M466.28,300.26c-0.57,0.67-1.39,1.41-2.4,2.21l-1.24-1.57
			c0.96-0.76,1.67-1.41,2.12-1.95L466.28,300.26z M213.71,223.92c0.41,0.37,0.44,1,0.07,1.41c-0.37,0.41-1,0.44-1.41,0.07
			L213.71,223.92z M214.38,228.07c-0.28-0.47-0.13-1.09,0.35-1.37c0.47-0.28,1.09-0.13,1.37,0.35L214.38,228.07z M218.79,231.41
			c0.3,0.46,0.18,1.08-0.28,1.39c-0.46,0.3-1.08,0.18-1.39-0.28L218.79,231.41z M221.06,238.01c-0.34-0.44-0.26-1.06,0.18-1.4
			c0.44-0.34,1.06-0.26,1.4,0.18L221.06,238.01z M226.85,241.92c0.36,0.42,0.31,1.05-0.11,1.41s-1.05,0.31-1.41-0.11L226.85,241.92z
			 M229.81,248.24c-0.37-0.41-0.34-1.04,0.06-1.41s1.04-0.34,1.41,0.06L229.81,248.24z M235.47,251.39c0.38,0.4,0.37,1.03-0.03,1.41
			s-1.03,0.37-1.41-0.03L235.47,251.39z M238.06,256.77c-0.4-0.38-0.42-1.01-0.04-1.41c0.38-0.4,1.01-0.42,1.41-0.04L238.06,256.77z
			 M243.58,259.07c0.42,0.36,0.46,0.99,0.1,1.41c-0.36,0.42-0.99,0.46-1.41,0.1L243.58,259.07z M246.66,264.19
			c-0.44-0.34-0.51-0.97-0.17-1.4c0.34-0.44,0.97-0.51,1.4-0.17L246.66,264.19z M252.38,265.92c0.45,0.32,0.56,0.94,0.25,1.39
			c-0.32,0.45-0.94,0.56-1.39,0.25L252.38,265.92z M255.99,270.69c-0.47-0.29-0.62-0.91-0.33-1.38c0.29-0.47,0.91-0.62,1.38-0.33
			L255.99,270.69z M261.87,271.78c0.49,0.26,0.67,0.87,0.4,1.36c-0.26,0.49-0.87,0.67-1.36,0.4L261.87,271.78z M266.01,276.09
			c-0.5-0.23-0.72-0.83-0.48-1.33c0.23-0.5,0.83-0.72,1.33-0.48L266.01,276.09z M271.97,276.47c0.51,0.2,0.77,0.78,0.57,1.3
			c-0.2,0.51-0.78,0.77-1.3,0.57L271.97,276.47z M276.6,280.25c-0.53-0.17-0.81-0.73-0.64-1.26c0.17-0.53,0.73-0.81,1.26-0.64
			L276.6,280.25z M282.57,279.89c0.54,0.14,0.86,0.68,0.72,1.22c-0.14,0.54-0.68,0.86-1.22,0.72L282.57,279.89z M287.63,283.06
			c-0.54-0.1-0.9-0.63-0.8-1.17c0.1-0.54,0.63-0.9,1.17-0.8L287.63,283.06z M293.51,281.97c0.55,0.07,0.94,0.57,0.86,1.12
			s-0.57,0.94-1.12,0.86L293.51,281.97z M298.92,284.51c-0.55-0.04-0.97-0.52-0.93-1.07c0.04-0.55,0.52-0.97,1.07-0.93
			L298.92,284.51z M304.92,282.72c0.55,0,1,0.44,1.01,0.99c0,0.55-0.44,1-0.99,1.01L304.92,282.72z M311.27,284.41
			c-0.55,0.05-1.04-0.36-1.08-0.91c-0.05-0.55,0.36-1.04,0.91-1.08L311.27,284.41z M317.24,281.64c0.55-0.09,1.06,0.28,1.15,0.82
			c0.09,0.55-0.28,1.06-0.82,1.15L317.24,281.64z M323.77,282.36c-0.54,0.13-1.08-0.2-1.21-0.74c-0.13-0.54,0.2-1.08,0.74-1.21
			L323.77,282.36z M329.25,278.73c0.52-0.17,1.09,0.11,1.26,0.64c0.17,0.52-0.11,1.09-0.64,1.26L329.25,278.73z M335.82,278.39
			c-0.51,0.22-1.1-0.02-1.31-0.53c-0.22-0.51,0.02-1.1,0.53-1.31L335.82,278.39z M340.57,273.86c0.48-0.27,1.09-0.09,1.36,0.39
			s0.09,1.09-0.39,1.36L340.57,273.86z M346.93,272.22c-0.45,0.32-1.07,0.22-1.4-0.23s-0.22-1.07,0.23-1.4L346.93,272.22z
			 M350.5,266.7c0.4-0.38,1.03-0.36,1.41,0.04c0.38,0.4,0.36,1.03-0.04,1.41L350.5,266.7z M356.19,263.41
			c-0.34,0.44-0.97,0.52-1.4,0.18c-0.44-0.34-0.52-0.97-0.18-1.4L356.19,263.41z M357.92,257.08c0.26-0.49,0.87-0.67,1.35-0.41
			c0.49,0.26,0.67,0.87,0.41,1.35L357.92,257.08z M362.2,252.11c-0.17,0.52-0.74,0.81-1.26,0.64c-0.52-0.17-0.81-0.74-0.64-1.26
			L362.2,252.11z M361.68,245.96c0.1-0.54,0.62-0.9,1.17-0.8c0.54,0.1,0.9,0.62,0.8,1.17L361.68,245.96z M364.31,240.86
			c-0.03,0.55-0.5,0.98-1.05,0.95c-0.55-0.03-0.98-0.5-0.95-1.05L364.31,240.86z M362.11,235.58c-0.08-0.55,0.3-1.05,0.85-1.13
			c0.55-0.08,1.05,0.3,1.13,0.85L362.11,235.58z M362.58,229.87c0.22,0.51,0,1.1-0.51,1.32c-0.51,0.22-1.1,0-1.32-0.51
			L362.58,229.87z M357.99,226.48c-0.37-0.41-0.35-1.04,0.06-1.41c0.41-0.37,1.04-0.35,1.41,0.06L357.99,226.48z M355.05,221.59
			c0.48,0.28,0.63,0.89,0.35,1.37c-0.28,0.48-0.89,0.63-1.37,0.35L355.05,221.59z M349.32,221.19c-0.52-0.18-0.8-0.75-0.63-1.27
			c0.18-0.52,0.75-0.8,1.27-0.63L349.32,221.19z M344.63,217.92c0.54,0.1,0.9,0.63,0.79,1.17c-0.1,0.54-0.63,0.9-1.17,0.79
			L344.63,217.92z M338.74,219.29c-0.55,0.02-1.01-0.42-1.03-0.97s0.42-1.01,0.97-1.03L338.74,219.29z M332.34,218.85
			c0.49-0.25,1.09-0.05,1.34,0.45c0.25,0.49,0.05,1.09-0.45,1.34L332.34,218.85z M328.82,224.23c-0.35,0.42-0.98,0.48-1.41,0.13
			c-0.42-0.35-0.48-0.98-0.13-1.41L328.82,224.23z M323.94,228.42c0.23-0.5,0.82-0.73,1.32-0.5c0.5,0.23,0.73,0.82,0.5,1.32
			L323.94,228.42z M323.83,234.89c-0.14,0.53-0.68,0.86-1.22,0.72c-0.53-0.14-0.86-0.68-0.72-1.22L323.83,234.89z M320.71,240.54
			c0.07-0.55,0.58-0.93,1.12-0.86s0.93,0.58,0.86,1.12L320.71,240.54z M322.19,246.3c-0.03,0.55-0.5,0.97-1.06,0.94
			s-0.97-0.5-0.94-1.06L322.19,246.3z M320.11,251.3c-0.02-0.55,0.42-1.01,0.97-1.03s1.01,0.42,1.03,0.97L320.11,251.3z
			 M322.58,256.1c0.1,0.54-0.27,1.06-0.81,1.16c-0.54,0.1-1.06-0.27-1.16-0.81L322.58,256.1z M321.99,261.47
			c-0.19-0.52,0.07-1.09,0.58-1.29c0.52-0.19,1.09,0.07,1.29,0.58L321.99,261.47z M325.96,265.15c0.28,0.48,0.11,1.09-0.37,1.37
			c-0.48,0.28-1.09,0.11-1.37-0.37L325.96,265.15z M327.02,270.44c-0.32-0.45-0.22-1.07,0.23-1.39c0.45-0.32,1.07-0.22,1.39,0.23
			L327.02,270.44z M332,273.77c0.33,0.44,0.24,1.07-0.2,1.4c-0.44,0.33-1.07,0.24-1.4-0.2L332,273.77z M334.18,279.95
			c-0.34-0.44-0.25-1.07,0.19-1.4c0.44-0.34,1.07-0.25,1.4,0.19L334.18,279.95z M339.59,283.64c0.34,0.43,0.27,1.06-0.16,1.41
			c-0.43,0.34-1.06,0.27-1.41-0.16L339.59,283.64z M341.98,289.74c-0.36-0.42-0.3-1.05,0.12-1.41c0.42-0.36,1.05-0.3,1.41,0.12
			L341.98,289.74z M347.58,293.13c0.37,0.41,0.34,1.04-0.07,1.41c-0.41,0.37-1.04,0.34-1.41-0.07L347.58,293.13z M350.39,299.05
			c-0.39-0.39-0.38-1.03,0.01-1.41c0.39-0.39,1.03-0.38,1.41,0.01L350.39,299.05z M356.26,301.95c0.41,0.37,0.43,1.01,0.06,1.41
			c-0.37,0.41-1.01,0.43-1.41,0.06L356.26,301.95z M359.66,307.54c-0.43-0.35-0.49-0.98-0.15-1.41s0.98-0.49,1.41-0.15
			L359.66,307.54z M365.84,309.71c0.45,0.32,0.56,0.94,0.24,1.39c-0.32,0.45-0.94,0.56-1.39,0.24L365.84,309.71z M369.99,314.78
			c-0.48-0.28-0.63-0.89-0.35-1.37s0.89-0.63,1.37-0.35L369.99,314.78z M376.43,315.95c0.5,0.24,0.71,0.84,0.47,1.33
			c-0.24,0.5-0.84,0.71-1.33,0.47L376.43,315.95z M381.4,320.21c-0.52-0.19-0.79-0.76-0.6-1.28c0.19-0.52,0.76-0.79,1.28-0.6
			L381.4,320.21z M387.94,320.15c0.54,0.14,0.86,0.68,0.72,1.22c-0.14,0.54-0.68,0.86-1.22,0.72L387.94,320.15z M393.65,323.35
			c-0.55-0.08-0.92-0.59-0.84-1.14c0.08-0.55,0.59-0.92,1.14-0.84L393.65,323.35z M400.01,321.95c0.55,0.02,0.98,0.49,0.96,1.04
			s-0.49,0.98-1.04,0.96L400.01,321.95z M406.19,323.87c-0.55,0.03-1.03-0.38-1.06-0.94c-0.03-0.55,0.38-1.03,0.94-1.06
			L406.19,323.87z M412.11,321.24c0.55-0.08,1.05,0.3,1.13,0.85c0.08,0.55-0.3,1.05-0.85,1.13L412.11,321.24z M418.53,322.12
			c-0.54,0.11-1.07-0.23-1.19-0.77c-0.11-0.54,0.23-1.07,0.77-1.19L418.53,322.12z M424.04,318.72c0.53-0.15,1.08,0.17,1.23,0.7
			c0.15,0.53-0.17,1.08-0.7,1.23L424.04,318.72z M430.52,318.87c-0.53,0.17-1.09-0.12-1.26-0.64s0.12-1.09,0.64-1.26L430.52,318.87z
			 M435.67,314.94c0.52-0.19,1.09,0.07,1.29,0.58c0.19,0.52-0.07,1.09-0.58,1.29L435.67,314.94z M442.13,314.49
			c-0.51,0.22-1.1-0.02-1.31-0.53s0.02-1.1,0.53-1.31L442.13,314.49z M446.93,310.13c0.5-0.24,1.1-0.03,1.33,0.47
			c0.24,0.5,0.03,1.1-0.47,1.33L446.93,310.13z M453.32,309.13c-0.49,0.26-1.09,0.08-1.35-0.41c-0.26-0.49-0.08-1.09,0.41-1.35
			L453.32,309.13z M457.67,304.32c0.47-0.29,1.09-0.15,1.38,0.32s0.15,1.09-0.32,1.38L457.67,304.32z M463.88,302.47
			c-0.43,0.34-1.06,0.27-1.4-0.16c-0.34-0.43-0.27-1.06,0.16-1.4L463.88,302.47z M464.77,298.95c0.36-0.42,0.99-0.47,1.41-0.1
			c0.42,0.36,0.47,0.99,0.1,1.41L464.77,298.95z M396.9,322.74l-0.1,1L396.9,322.74z M329.33,271.89l0.8-0.6L329.33,271.89z
			 M321.37,243.73l1,0.09L321.37,243.73z M341.78,218.46l-0.14,0.99L341.78,218.46z M362.1,248.78l-0.97-0.23L362.1,248.78z
			 M301.81,283.67l0.04-1L301.81,283.67z M232.81,250.03l-0.73,0.68L232.81,250.03z M216.17,229.13l-0.86,0.51L216.17,229.13z
			 M211.1,224.55c-0.5-0.23-0.71-0.83-0.48-1.33c0.23-0.5,0.83-0.71,1.33-0.48L211.1,224.55z"/>
		<circle class="st6" cx="226.73" cy="174.96" r="56.5"/>
		<g>
			<defs>
				<circle id="SVGID_00000007397162907224537410000005256060318383234452_" cx="226.73" cy="174.96" r="56.5"/>
			</defs>
			<clipPath id="SVGID_00000031904248726820927850000008808232721552085668_">
				<use xlink:href="#SVGID_00000007397162907224537410000005256060318383234452_"  style="overflow:visible;"/>
			</clipPath>
			<path style="clip-path:url(#SVGID_00000031904248726820927850000008808232721552085668_);fill:#18292D;" d="M226.73,120.46
				c30.1,0,54.5,24.4,54.5,54.5h4c0-32.31-26.19-58.5-58.5-58.5V120.46z M172.23,174.96c0-30.1,24.4-54.5,54.5-54.5v-4
				c-32.31,0-58.5,26.19-58.5,58.5H172.23z M226.73,229.46c-30.1,0-54.5-24.4-54.5-54.5h-4c0,32.31,26.19,58.5,58.5,58.5V229.46z
				 M281.23,174.96c0,30.1-24.4,54.5-54.5,54.5v4c32.31,0,58.5-26.19,58.5-58.5H281.23z"/>
		</g>
		<path d="M218.16,145.46c1.65,0,2.91,0.08,3.78,0.23c-0.03,0.75-0.04,1.78-0.04,3.1c0,1.53-0.05,2.71-0.14,3.55
			c-0.27,0.15-0.61,0.24-1.04,0.27c-0.42,0.03-1.02,0.04-1.8,0.04c-0.96,0-1.8,0.03-2.52,0.09c0.03,0.93-0.03,2.13-0.18,3.6
			c-0.09,0.81-0.13,1.44-0.13,1.89c0,0.27-0.69,0.4-2.07,0.4c-0.75,0-1.82-0.03-3.2-0.09c-0.51,0.03-1.07,0.09-1.66,0.18
			c-0.6,0.09-0.99,0.18-1.17,0.27l-0.09-0.76c-0.12-0.72-0.15-1.51-0.09-2.38v-2.25c0-0.33,0.01-0.56,0.04-0.68
			c-0.87-0.03-1.89-0.1-3.06-0.23c-1.14-0.15-1.88-0.33-2.21-0.54l0.04-0.9c0-1.32-0.06-2.73-0.18-4.23v0.04
			c-0.03-0.27-0.05-0.72-0.05-1.35c0.03,0,0.12,0.02,0.27,0.05c0.15,0,0.38,0,0.68,0c0.96,0,1.98-0.02,3.06-0.05
			c1.11-0.06,1.73-0.1,1.85-0.13l-0.09-1.71v-0.49l0.04-0.49l0.13-1.62c0.03-0.15,0.04-0.36,0.04-0.63l0.09-0.4v-0.36l0.04-0.9
			c0.93,0.6,1.83,0.9,2.7,0.9h1.12l1.17-0.04c1.32-0.06,2.28-0.03,2.88,0.09v3.42l0.04,1.48c0,0.39-0.06,0.6-0.18,0.63
			c0.36,0.03,0.69,0.05,0.99,0.05C217.59,145.48,217.89,145.46,218.16,145.46z"/>
		<path d="M241.59,154.64l0.87-1.21l0.28-0.41l17.66,11.87c-0.7,1.05-1.23,1.8-1.57,2.25l-0.59,0.8l-0.5,0.75
			c-0.65,0.97-1.21,1.93-1.67,2.89c-1.99-1.34-4.95-3.38-8.89-6.14l-8.27-5.77l-0.56-0.38L241.59,154.64z"/>
		<path d="M197.29,186.92l-0.64-1.34l-0.23-0.44l18.94-9.71c0.57,1.12,0.98,1.94,1.21,2.46l0.41,0.9l0.41,0.8
			c0.53,1.04,1.11,1.99,1.72,2.86c-2.14,1.09-5.36,2.7-9.67,4.81l-9.05,4.44l-0.6,0.31L197.29,186.92z"/>
		<circle cx="203.61" cy="174.56" r="4"/>
		<circle cx="211.61" cy="192.56" r="4"/>
		<path d="M241.88,208.04l-1.47,0.18l-0.49,0.08l-3.25-21.04c1.25-0.19,2.15-0.32,2.72-0.37l0.99-0.11l0.89-0.14
			c1.16-0.18,2.24-0.42,3.26-0.73c0.37,2.37,0.87,5.94,1.52,10.69l1.36,9.99l0.1,0.67L241.88,208.04z"/>
		<path d="M232.04,200.08l-0.65-1.34l-0.23-0.44l18.88-9.84c0.58,1.12,0.99,1.94,1.23,2.46l0.42,0.9l0.42,0.8
			c0.54,1.04,1.12,1.99,1.74,2.85c-2.13,1.11-5.34,2.73-9.64,4.87l-9.02,4.5l-0.6,0.31L232.04,200.08z"/>
		<path d="M162.44,97.05c-0.98-3.35-2.31-6.91-3.93-10.5c1.27-2.05,2.39-4.05,3.35-5.97c8.74,2.26,14.62,5.78,14.41,9.28
			C176.07,93.15,170.53,95.79,162.44,97.05z M159.4,115.43c-3.56,0-9-4.79-14.22-12.21c1.37-1.33,2.73-2.76,4.07-4.27
			c4.18,0.1,8.3-0.06,12.41-0.63C163.23,103.99,165.13,115.43,159.4,115.43z M136.91,108.65c-4.79,3.22-8.63,4.2-10.54,2.69
			c-2.55-2.02-1.6-8.07,1.9-15.48c3.72,1.11,7.96,1.96,12.47,2.49c0.98,1.67,1.98,3.25,2.99,4.74
			C141.43,105.28,139.12,107.16,136.91,108.65L136.91,108.65z M124.47,93.38c-14.12-5.74-8.83-12.72,7.66-14.75
			c0.51,1.77,1.11,3.6,1.81,5.46c-2.54,3.6-4.65,7.14-6.27,10.44C126.55,94.17,125.47,93.78,124.47,93.38z M131.69,71.68
			c-0.63-4.3-0.74-11.12,3.53-11.12c4.01,0,9.18,5.64,11.71,8.78c-2.5,2.21-5.04,4.81-7.5,7.68c-2.25,0.05-4.43,0.19-6.51,0.41
			C132.38,75.42,131.95,73.49,131.69,71.68L131.69,71.68z M154.78,79.14c2.09,0.33,4.1,0.72,5.98,1.17
			c-0.82,1.63-1.76,3.32-2.8,5.04C157.09,83.49,156.18,81.64,154.78,79.14z M140.89,77c2.22-2.53,4.48-4.82,6.72-6.8
			c1.74,2.24,3.45,4.78,5.09,7.53C148.77,77.23,144.77,76.99,140.89,77z M134.71,83.02c-0.56-1.53-1.06-3.04-1.48-4.51
			c1.69-0.18,3.44-0.3,5.26-0.36C137.08,79.85,135.92,81.35,134.71,83.02z M140.06,97.17c-4.08-0.51-7.92-1.3-11.31-2.3
			c1.5-3.04,3.41-6.28,5.66-9.54C136.03,89.46,137.9,93.36,140.06,97.17L140.06,97.17z M147.82,98.9c-1.08,1.2-2.18,2.34-3.28,3.41
			c-0.82-1.21-1.64-2.48-2.44-3.8C144.67,98.77,146.2,98.84,147.82,98.9z M157.82,87.67c1.44,3.27,2.64,6.49,3.54,9.55
			c-3.38,0.47-7.17,0.7-11.17,0.65C153.01,94.58,155.6,91.11,157.82,87.67L157.82,87.67z M148.77,97.84
			c-2.44-0.07-4.87-0.24-7.36-0.51c-2.46-4.23-4.6-8.74-6.26-13.07c1.49-2.09,3-4.05,4.77-6.14c4.57-0.07,9.04,0.2,13.48,0.82
			c1.46,2.54,2.7,4.98,3.87,7.51C154.74,90.49,151.85,94.33,148.77,97.84z M161.05,62.76c0.92,0,1.7,0.23,2.29,0.69
			c2.59,2.05,1.56,8.26-2.07,15.83c-2.24-0.54-4.64-1.01-7.19-1.37c-1.8-3.09-3.7-5.93-5.64-8.43
			C151.53,66.85,157.01,62.76,161.05,62.76z M162.37,79.56c8.41-17.71,0.72-24.01-14.61-10.93c-12.43-15.42-21.18-10.68-15.92,8.94
			c-2.46,0.31-4.75,0.74-6.82,1.29c-6.13,1.64-9.6,4.2-9.79,7.19c-0.29,4.76,7.47,8.04,11.97,9.49
			c-8.63,18.44,0.47,24.22,17.17,8.47c13.34,18.95,24.31,15.87,18.38-5.85C182.29,95.05,182.32,84.79,162.37,79.56z"/>
		<ellipse class="st10" cx="130.67" cy="69.48" rx="2.76" ry="2.79"/>
		<ellipse class="st10" cx="154.76" cy="113.29" rx="3" ry="3.03"/>
		<ellipse class="st11" cx="163.41" cy="74.32" rx="3.32" ry="3.36"/>
		<ellipse class="st11" cx="134.59" cy="109.94" rx="2.91" ry="2.94"/>
		<path d="M868.92,198.92c-0.53-1.83-1.26-3.76-2.14-5.71c0.69-1.11,1.3-2.2,1.82-3.25c4.76,1.23,7.96,3.15,7.84,5.05
			C876.34,196.8,873.33,198.23,868.92,198.92z M867.27,208.92c-1.94,0-4.9-2.61-7.74-6.65c0.74-0.72,1.48-1.5,2.22-2.33
			c2.27,0.06,4.52-0.03,6.76-0.35C869.35,202.7,870.39,208.92,867.27,208.92z M855.03,205.23c-2.61,1.75-4.7,2.29-5.74,1.47
			c-1.39-1.1-0.87-4.39,1.03-8.42c2.02,0.61,4.33,1.07,6.79,1.36c0.53,0.91,1.08,1.77,1.63,2.58
			C857.49,203.4,856.23,204.42,855.03,205.23L855.03,205.23z M848.26,196.92c-7.68-3.13-4.81-6.93,4.17-8.03
			c0.28,0.96,0.6,1.96,0.98,2.97c-1.38,1.96-2.53,3.89-3.41,5.68C849.39,197.35,848.8,197.14,848.26,196.92z M852.19,185.11
			c-0.34-2.34-0.41-6.05,1.92-6.05c2.18,0,4.99,3.07,6.37,4.78c-1.36,1.21-2.74,2.62-4.08,4.18c-1.23,0.03-2.41,0.1-3.54,0.22
			C852.56,187.15,852.33,186.09,852.19,185.11L852.19,185.11z M864.75,189.17c1.14,0.18,2.23,0.39,3.26,0.64
			c-0.45,0.89-0.96,1.81-1.52,2.74C866.01,191.54,865.52,190.53,864.75,189.17z M857.19,188.01c1.21-1.38,2.44-2.63,3.66-3.7
			c0.95,1.22,1.88,2.6,2.77,4.1C861.48,188.13,859.31,188,857.19,188.01z M853.83,191.28c-0.3-0.83-0.58-1.66-0.81-2.45
			c0.92-0.1,1.87-0.16,2.86-0.19C855.12,189.56,854.49,190.38,853.83,191.28z M856.74,198.98c-2.22-0.28-4.31-0.71-6.15-1.25
			c0.82-1.65,1.85-3.42,3.08-5.19C854.55,194.79,855.57,196.91,856.74,198.98L856.74,198.98z M860.97,199.93
			c-0.59,0.65-1.19,1.27-1.78,1.86c-0.45-0.66-0.89-1.35-1.33-2.07C859.25,199.85,860.09,199.89,860.97,199.93z M866.41,193.81
			c0.78,1.78,1.44,3.53,1.93,5.19c-1.84,0.25-3.9,0.38-6.08,0.36C863.79,197.58,865.2,195.69,866.41,193.81L866.41,193.81z
			 M861.48,199.35c-1.33-0.04-2.65-0.13-4-0.28c-1.34-2.3-2.5-4.75-3.4-7.11c0.81-1.14,1.63-2.2,2.6-3.34
			c2.49-0.04,4.92,0.11,7.34,0.44c0.79,1.38,1.47,2.71,2.11,4.09C864.73,195.35,863.16,197.44,861.48,199.35z M868.16,180.26
			c0.5,0,0.92,0.12,1.24,0.38c1.41,1.12,0.85,4.5-1.12,8.61c-1.22-0.3-2.53-0.55-3.91-0.74c-0.98-1.68-2.01-3.23-3.07-4.59
			C862.98,182.48,865.97,180.26,868.16,180.26z M868.89,189.4c4.58-9.64,0.39-13.07-7.95-5.95c-6.77-8.39-11.53-5.81-8.67,4.86
			c-1.34,0.17-2.59,0.4-3.71,0.7c-3.34,0.89-5.23,2.28-5.33,3.91c-0.16,2.59,4.07,4.37,6.51,5.17c-4.69,10.04,0.26,13.18,9.34,4.61
			c7.26,10.31,13.23,8.64,10-3.18C879.73,197.83,879.74,192.25,868.89,189.4z"/>
		<path class="st10" d="M851.63,185.43c0.83,0,1.5-0.68,1.5-1.52c0-0.84-0.67-1.52-1.5-1.52c-0.83,0-1.5,0.68-1.5,1.52
			C850.13,184.75,850.8,185.43,851.63,185.43z"/>
		<ellipse class="st10" cx="864.74" cy="207.76" rx="1.63" ry="1.65"/>
		<ellipse class="st11" cx="869.45" cy="186.55" rx="1.81" ry="1.83"/>
		<path class="st11" d="M853.77,207.54c0.87,0,1.58-0.72,1.58-1.6c0-0.88-0.71-1.6-1.58-1.6c-0.87,0-1.58,0.72-1.58,1.6
			C852.18,206.82,852.89,207.54,853.77,207.54z"/>
		<path d="M1015.08,348.82c-1.78-6.1-4.2-12.56-7.14-19.09c2.31-3.72,4.35-7.36,6.09-10.86c15.89,4.12,26.58,10.51,26.2,16.88
			C1039.86,341.73,1029.79,346.51,1015.08,348.82z M1009.55,382.23c-6.48,0-16.37-8.71-25.86-22.21c2.48-2.41,4.96-5.01,7.4-7.77
			c7.6,0.18,15.09-0.11,22.57-1.15C1016.51,361.43,1019.97,382.23,1009.55,382.23z M968.66,369.9c-8.7,5.86-15.69,7.64-19.17,4.9
			c-4.64-3.66-2.9-14.67,3.45-28.14c6.76,2.03,14.47,3.57,22.68,4.53c1.78,3.04,3.6,5.92,5.44,8.61
			C976.87,363.78,972.68,367.2,968.66,369.9L968.66,369.9z M946.03,342.13c-25.67-10.45-16.05-23.14,13.94-26.81
			c0.92,3.22,2.02,6.54,3.29,9.92c-4.61,6.55-8.45,12.98-11.4,18.99C949.81,343.57,947.86,342.87,946.03,342.13z M959.16,302.67
			c-1.15-7.83-1.35-20.22,6.43-20.22c7.28,0,16.69,10.25,21.29,15.97c-4.55,4.03-9.16,8.75-13.64,13.97
			c-4.1,0.09-8.05,0.34-11.83,0.75C960.42,309.49,959.64,305.96,959.16,302.67L959.16,302.67z M1001.15,316.24
			c3.81,0.6,7.45,1.31,10.88,2.14c-1.49,2.97-3.2,6.04-5.09,9.16C1005.35,324.16,1003.7,320.79,1001.15,316.24z M975.9,312.36
			c4.03-4.6,8.15-8.77,12.22-12.37c3.17,4.08,6.28,8.7,9.25,13.69C990.21,312.77,982.95,312.33,975.9,312.36z M964.65,323.3
			c-1.01-2.79-1.92-5.53-2.69-8.2c3.07-0.33,6.26-0.54,9.56-0.65C968.96,317.53,966.85,320.27,964.65,323.3z M974.39,349.03
			c-7.42-0.93-14.4-2.36-20.56-4.18c2.73-5.52,6.2-11.42,10.29-17.35C967.06,335.02,970.46,342.1,974.39,349.03L974.39,349.03z
			 M988.5,352.18c-1.97,2.18-3.96,4.25-5.96,6.2c-1.49-2.2-2.98-4.5-4.43-6.92C982.77,351.93,985.55,352.06,988.5,352.18z
			 M1006.67,331.75c2.62,5.94,4.81,11.8,6.45,17.36c-6.15,0.85-13.04,1.28-20.31,1.19C997.93,344.33,1002.63,338.01,1006.67,331.75
			L1006.67,331.75z M990.22,350.25c-4.44-0.12-8.86-0.43-13.38-0.93c-4.47-7.68-8.36-15.88-11.37-23.76
			c2.71-3.81,5.46-7.36,8.68-11.17c8.3-0.13,16.44,0.37,24.51,1.49c2.65,4.62,4.92,9.05,7.03,13.66
			C1001.07,336.89,995.82,343.87,990.22,350.25z M1012.54,286.46c1.68,0,3.08,0.42,4.16,1.26c4.72,3.73,2.84,15.02-3.76,28.78
			c-4.07-0.99-8.44-1.83-13.07-2.49c-3.27-5.62-6.73-10.79-10.25-15.33C995.23,293.89,1005.21,286.46,1012.54,286.46z
			 M1014.95,317.01c15.29-32.21,1.32-43.66-26.57-19.88c-22.6-28.04-38.51-19.42-28.95,16.25c-4.47,0.56-8.64,1.34-12.4,2.34
			c-11.14,2.98-17.46,7.63-17.8,13.07c-0.53,8.66,13.58,14.61,21.76,17.26c-15.68,33.53,0.86,44.04,31.22,15.4
			c24.25,34.46,44.2,28.85,33.42-10.64C1051.18,345.17,1051.23,326.52,1014.95,317.01z"/>
		<ellipse class="st10" cx="957.31" cy="298.68" rx="5.03" ry="5.08"/>
		<path class="st11" d="M1016.85,313.59c3.34,0,6.05-2.74,6.05-6.11s-2.71-6.11-6.05-6.11c-3.34,0-6.05,2.74-6.05,6.11
			S1013.51,313.59,1016.85,313.59z"/>
		<ellipse class="st11" cx="964.44" cy="372.25" rx="5.29" ry="5.35"/>
		<path class="st12" d="M651.34,313.23c-1.55,9.89-6.26,19.62-16.41,18.28c-4.01,17.41-8.86,34.11-12.23,52.12
			c-31.23,2.39-58.05,4.8-89.37,3.71c-2.6-9.81-16.84-43.49-18.94-45.51c-5.75-5.78-7.83-9.6-21.84-10.72
			c-20.22-1.65-42.25,4.03-55.33,20.19c-1.38-16.66-2.14-43.31,3.47-59.05c2.35-6.6,4.27-13.23,10.35-17.24
			c5.12-3.38,11.24-4.9,16.81-7.44c15.86-7.32,49.43-16.01,58.28-20.27c1.21-0.57,2.62,0.1,2.92,1.43c0.14,0.73,0.32,1.43,0.32,1.95
			c0,18.01,44.6,17.89,42.08-1.68c-0.81-6.15,32.64,2.27,36.49,3.63c12.88,4.51,32.82,14.6,38.64,28.05
			c4.43,10.23,6.52,21.43,4.77,32.56H651.34z"/>
		<g>
			<defs>
				<path id="SVGID_00000041280009781399457020000001374877710398049163_" d="M651.34,313.23c-1.55,9.89-6.26,19.62-16.41,18.28
					c-4.01,17.41-8.86,34.11-12.23,52.12c-31.23,2.39-58.05,4.8-89.37,3.71c-2.6-9.81-16.84-43.49-18.94-45.51
					c-5.75-5.78-7.83-9.6-21.84-10.72c-20.22-1.65-42.25,4.03-55.33,20.19c-1.38-16.66-2.14-43.31,3.47-59.05
					c2.35-6.6,4.27-13.23,10.35-17.24c5.12-3.38,11.24-4.9,16.81-7.44c15.86-7.32,49.43-16.01,58.28-20.27
					c1.21-0.57,2.62,0.1,2.92,1.43c0.14,0.73,0.32,1.43,0.32,1.95c0,18.01,44.6,17.89,42.08-1.68c-0.81-6.15,32.64,2.27,36.49,3.63
					c12.88,4.51,32.82,14.6,38.64,28.05c4.43,10.23,6.52,21.43,4.77,32.56H651.34z"/>
			</defs>
			<clipPath id="SVGID_00000095328493730153670040000017012996989299259302_">
				<use xlink:href="#SVGID_00000041280009781399457020000001374877710398049163_"  style="overflow:visible;"/>
			</clipPath>
			<path style="clip-path:url(#SVGID_00000095328493730153670040000017012996989299259302_);" d="M651.33,315.23h0.01v-4h-0.01
				V315.23z M644.73,281.46c4.32,9.95,6.31,20.78,4.63,31.45l3.95,0.62c1.82-11.58-0.36-23.17-4.91-33.67L644.73,281.46z
				 M607.27,254.51c6.32,2.21,14.38,5.8,21.54,10.46c7.21,4.69,13.25,10.31,15.92,16.49l3.67-1.59
				c-3.14-7.26-9.98-13.42-17.41-18.26c-7.49-4.87-15.84-8.59-22.4-10.88L607.27,254.51z M573.42,248.73
				c0.01,0.09-0.01,0.28-0.13,0.45c-0.09,0.12-0.12,0.08,0.1-0.01c0.48-0.2,1.42-0.37,2.9-0.4c2.89-0.05,6.96,0.44,11.3,1.19
				c8.69,1.5,17.89,3.92,19.66,4.55l1.34-3.77c-2.07-0.74-11.52-3.21-20.32-4.72c-4.4-0.76-8.77-1.3-12.05-1.25
				c-1.6,0.03-3.17,0.2-4.38,0.71c-0.62,0.26-1.29,0.67-1.78,1.34c-0.53,0.72-0.72,1.57-0.6,2.43L573.42,248.73z M527.36,250.67
				c0,5.49,3.44,9.42,7.99,11.85c4.52,2.42,10.37,3.52,16.04,3.4c5.66-0.12,11.4-1.46,15.63-4.2c4.32-2.8,7.16-7.17,6.41-12.99
				l-3.97,0.51c0.51,3.97-1.28,6.96-4.62,9.12c-3.42,2.22-8.36,3.45-13.54,3.56c-5.17,0.11-10.3-0.91-14.07-2.93
				c-3.74-2-5.87-4.81-5.87-8.32H527.36z M527.07,249.1c0.04,0.2,0.08,0.4,0.12,0.57c0.04,0.18,0.07,0.33,0.1,0.48
				c0.06,0.31,0.07,0.46,0.07,0.53h4c0-0.46-0.08-0.92-0.14-1.28c-0.04-0.19-0.08-0.38-0.11-0.55c-0.04-0.18-0.07-0.34-0.1-0.51
				L527.07,249.1z M526.97,249.1c0.03-0.01,0.05-0.02,0.06-0.02c0.01,0,0.02,0,0.03,0.01c0.01,0,0.01,0.01,0.01,0.01
				c0,0,0.01,0.01,0.02,0.05l3.91-0.86c-0.58-2.6-3.37-3.9-5.71-2.81L526.97,249.1z M468.68,269.37c7.79-3.6,20.01-7.56,31.53-11.19
				c5.73-1.81,11.27-3.53,15.93-5.06c4.62-1.52,8.5-2.9,10.85-4.03l-1.74-3.6c-2.08,1-5.71,2.3-10.37,3.84
				c-4.62,1.52-10.12,3.23-15.88,5.04c-11.45,3.61-23.94,7.65-32,11.37L468.68,269.37z M452.14,276.67
				c2.38-1.57,5.03-2.74,7.86-3.84c2.77-1.08,5.82-2.15,8.67-3.45l-1.66-3.64c-2.72,1.24-5.51,2.2-8.47,3.36
				c-2.9,1.13-5.87,2.42-8.61,4.23L452.14,276.67z M442.57,292.91c2.43-6.83,4.17-12.68,9.56-16.24l-2.2-3.34
				c-6.75,4.46-8.86,11.87-11.13,18.24L442.57,292.91z M439.21,351.12c-0.68-8.28-1.21-19.03-0.88-29.64
				c0.34-10.65,1.54-21,4.24-28.57l-3.77-1.34c-2.91,8.17-4.13,19.01-4.47,29.79c-0.34,10.81,0.2,21.72,0.89,30.1L439.21,351.12z
				 M492.71,329.11c-20.61-1.68-43.41,4.07-57.05,20.92l3.11,2.52c12.52-15.47,33.79-21.07,53.61-19.45L492.71,329.11z
				 M515.8,340.41c-2.71-2.72-4.94-5.42-8.2-7.41c-3.36-2.04-7.73-3.32-14.9-3.9l-0.32,3.99c6.85,0.55,10.52,1.74,13.14,3.33
				c2.72,1.65,4.4,3.75,7.44,6.81L515.8,340.41z M535.26,386.82c-1.34-5.06-5.61-16.06-9.75-25.94c-2.08-4.96-4.15-9.69-5.83-13.32
				c-0.84-1.81-1.6-3.36-2.21-4.54c-0.31-0.59-0.59-1.1-0.85-1.51c-0.22-0.36-0.51-0.81-0.85-1.13l-2.77,2.88
				c-0.07-0.07-0.01-0.02,0.21,0.34c0.19,0.31,0.43,0.74,0.72,1.28c0.57,1.09,1.3,2.58,2.13,4.36c1.66,3.56,3.7,8.25,5.77,13.18
				c4.16,9.92,8.31,20.67,9.57,25.41L535.26,386.82z M622.55,381.63c-31.27,2.39-57.96,4.79-89.15,3.7l-0.14,4
				c31.46,1.1,58.39-1.32,89.59-3.71L622.55,381.63z M632.98,331.06c-3.97,17.25-8.87,34.16-12.25,52.2l3.93,0.74
				c3.36-17.98,8.17-34.47,12.21-52.04L632.98,331.06z M649.37,312.92c-0.75,4.79-2.24,9.33-4.6,12.46
				c-2.28,3.02-5.32,4.71-9.57,4.14l-0.53,3.97c5.9,0.78,10.29-1.72,13.29-5.7c2.92-3.87,4.56-9.15,5.36-14.25L649.37,312.92z
				 M651.33,313.23l-1.98-0.31l-0.36,2.31h2.34V313.23z M646.56,280.67l-1.84,0.79l0,0L646.56,280.67z M607.93,252.62l-0.67,1.88
				l0.01,0L607.93,252.62z M571.44,248.99l1.98-0.26l0-0.01L571.44,248.99z M529.04,248.72l1.96-0.38l0-0.03l-0.01-0.03
				L529.04,248.72z M526.12,247.29l-0.85-1.81l-0.01,0.01l-0.01,0.01L526.12,247.29z M467.84,267.56l0.83,1.82l0.01,0L467.84,267.56
				z M451.03,275l1.1,1.67l0,0L451.03,275z M440.69,292.24l1.88,0.67l0,0L440.69,292.24z M437.21,351.29l-1.99,0.16l0.41,4.97
				l3.14-3.88L437.21,351.29z M492.55,331.1l-0.16,1.99l0,0L492.55,331.1z M514.39,341.82l-1.42,1.41l0.02,0.02l0.02,0.02
				L514.39,341.82z M533.33,387.33l-1.93,0.51l0.38,1.43l1.48,0.05L533.33,387.33z M622.7,383.63l0.15,1.99l1.53-0.12l0.28-1.51
				L622.7,383.63z M634.93,331.51l0.26-1.98l-1.8-0.24l-0.41,1.77L634.93,331.51z M651.34,313.23l1.98,0.31l0.36-2.31h-2.34V313.23z
				"/>
		</g>
		<path class="st14" d="M726.38,337.79c-12.56,0-22.74-7.11-22.74-15.88s10.18-15.88,22.74-15.88c12.56,0,22.74,7.11,22.74,15.88
			S738.94,337.79,726.38,337.79z M813.36,259.94l-129.41-9.7c-2.67-0.21-5.2,1.26-6.36,3.67l-52.88,109.7
			c-1.07,2.24-3.34,3.67-5.82,3.69l-73.47,0.56l-20.63,0.16c-4.95,0.06-8.08,5.39-5.64,9.73l4.04,7.19
			c1.14,2.02,3.28,3.28,5.59,3.32l222.15,3.47c2.48,0.03,4.76-1.32,5.9-3.52l61.83-118.75c2.16-4.16-0.64-9.17-5.3-9.52V259.94z"/>
		<path class="st10" d="M746.39,68.26c0,29.24-33.3,49.3-65.64,42.49c-8.6,4.73-17.95,6.77-26.46,6.39c3.69-3.8,6.78-8.2,9.09-12.96
			c-13.65-7.91-22.58-21.06-22.58-35.92c0-24.19,23.63-43.8,52.8-43.8S746.39,43.18,746.39,68.26z"/>
		<path d="M510.62,330.81c-9.17-7.73,3.07,15.85,4.49,19.38c0.62,1.55,3.9,12.05,6.31,18.81c0.96-0.61,2.11-0.96,3.37-0.98
			l20.63-0.16c-11.1-12.32-23.44-27.48-34.8-37.06V330.81z"/>
		<path class="st15" d="M464.73,409.46l-18.5-67c2.33-2.33,10.51-8.16,28.5-11c19.06-3.01,31.8,1.92,34.5,5l15.5,31.5
			c-6.52,1.92-6.81,4.07-5.5,8.5l20,33L464.73,409.46z"/>
		<path class="st16" d="M567.11,438.49c0,0.68-0.55,1.23-1.23,1.23H449.22c-0.66,0-1.21-0.55-1.21-1.23c0-0.68,0.55-1.21,1.21-1.21
			h22.85c-6.53-19.18-16.9-56.65-24.36-81.45c-3.62-0.92-7.15-2.3-10.43-4.11c0.22-0.49,0.49-0.97,0.76-1.46
			c2.44-2.92,5.2-5.45,8.21-7.65c8.33,26.69,20.82,72.45,28.16,93.95c0.08,0.24,0.06,0.49,0,0.71h91.46c0.68,0,1.23,0.55,1.23,1.21
			L567.11,438.49z"/>
		<path d="M760.87,399.29l-228.48-3.57l-9.94-17.68l107.15-0.82c0.47,0,0.89-0.27,1.09-0.69l56.2-116.62l141.03,10.58L760.87,399.29
			z M829.96,268.19l-143.71-10.78c-0.54-0.03-0.97,0.23-1.19,0.69l-56.23,116.68c-85.03,0.83-103.83,0.59-108.11,0.87
			c-1.67,0.11-1.75,1.15-1.4,1.78l11.3,20.09c0.21,0.37,0.62,0.62,1.04,0.63c278.11,4.26,197.82,3.48,277.84,3.55
			c0.68,0,1.23-0.55,1.23-1.23c0-0.68-0.55-1.23-1.23-1.23h-45.86l67.31-129.28c0.4-0.78-0.12-1.72-0.99-1.78V268.19z"/>
		<path class="st15" d="M549.73,263.96c-18.4-0.4-21.33-10.5-20.5-15.5l4-26.5c-10-6.8-24.83-32.83-31-45c-5,4-19-1-19-14.5
			c0-10.8,5.33-14.83,8-15.5l18.5,13c-0.33-4.5,0.2-14.6,5-19c4.8-4.4,6.67-13.5,7-17.5c25.6,16,60.33,8.67,74.5,3
			c4.5,7.5,4.5,17,3.5,39c-0.8,17.6-9.33,34-13.5,40c-2.4,7.6-14,15.5-19.5,18.5l5,25C572.06,254.13,568.13,264.36,549.73,263.96z"
			/>
		<path class="st16" d="M598.48,165.01c-1.49,14.34-6.38,28.76-14.13,41.72c-10.12,16.93-30.75,23.65-47.98,15.64
			c-7.09-3.29-18.17-19.72-22.23-26.4c-0.76-1.24-9.79-17.97-10-19.37c-0.12-0.77-0.92-1.24-1.66-0.95c-1.07,0.43-2.12,1.4-2.91,1.6
			c-2.37,0.61-7.95-0.72-11.29-5.23c-4.93-6.67-3.88-17.39-0.37-21.44c1.04-1.2,2.49-2.11,4.02-2.27c3.7,3.27,6.92,5.42,9.94,8.07
			c1.17,1.03,6.69,5.56,8.11,4.8c0.45-0.24,0.72-0.78,0.65-1.29c-0.64-4.73,0.31-9.73,2.75-14.46c3.07-5.94,7.57-7.73,8.64-17.21
			c0.11-1,0.22-1.97,0.41-2.87c4.11,2.94,8.17,5.63,13.6,7.09c15.56,4.21,43.23,1.32,60.21-3.2c4.14,10.18,3.51,23.64,2.26,35.74
			V165.01z M585.84,93.74c0.18,0.65-0.19,1.34-0.85,1.52c-0.67,0.19-1.33-0.21-1.52-0.85c-1.32-4.75-5.2-8.74-9.89-10.19
			c-4.71-1.45-10.18-0.34-13.94,2.83c-0.51,0.44-1.29,0.37-1.71-0.14c-0.44-0.53-0.37-1.29,0.15-1.73
			c4.36-3.69,10.74-4.99,16.22-3.31C579.77,83.57,584.29,88.24,585.84,93.74z M476.19,79.51c14.36,1.83,27.76,9.65,36.53,21.12
			c-4.54-2.34-10.49-2.36-15.41,0.19c-10.25,5.32-13.79,18.23-12.42,29.82c0.74,6.27-0.52,9.94,4.93,15.66
			c-4.48,1.65-6.52,6.47-7.11,11.24c-1.45,11.66,4.45,19.77,12.19,21.79c2.12,0.56,3.89,0.66,5.28,0.3
			c0.83-0.21,1.48-0.64,2.05-1.02c0.38,0.89,8.16,15.91,9.83,18.64c5.03,8.27,13.76,20.26,19.59,24.97
			c-0.28,2.47,0.16,10.28-3.15,22.77c-0.24,0.9-0.45,1.69-0.61,2.4c-0.17,0.76,0.42,1.49,1.19,1.49c0.56,0,1.06-0.38,1.19-0.96
			c0.75-3.42,3.17-10,3.73-24.04c7.83,4.61,20.22,6.03,31.66,1.66c0.44,8.23,4.6,21.44,5.74,26.88c0.14,0.68,0.81,1.08,1.45,0.94
			c0.66-0.14,1.08-0.79,0.94-1.45c-1.14-5.46-5.31-18.7-5.7-26.6c-0.01-0.26-0.12-0.49-0.27-0.68c7.47-3.36,14.05-9.02,18.62-16.66
			c7.94-13.26,12.94-28.04,14.47-42.73c1.29-12.31,1.91-26.02-2.32-36.66c13.07-3.96,18.46-11.42,19.56-19.06
			c1.76-12.2-9.6-22.28-23.67-18.61c0.28-6.49-3.1-13.18-8.81-17.13c-10.07-6.97-25.88-5.26-36.94,6.61
			c-3.5-4.31-9.5-6.61-15.43-5.78c-7.38,1.02-14.8,6.58-18.09,16.66c-4.28-9.01-5.08-19.62-2.06-29.16c0.2-0.65-0.15-1.34-0.8-1.54
			c-0.65-0.2-1.33,0.15-1.54,0.79c-3.48,10.99-2.19,23.3,3.42,33.34c-0.24,1.06-0.44,2.12-0.6,3.16
			c-9.17-11.29-22.7-18.94-37.16-20.79c-0.66-0.08-1.29,0.38-1.37,1.06c-0.08,0.67,0.38,1.29,1.06,1.37H476.19z"/>
		<path d="M498.63,160.85c-3.42-1.3-7.3,2.24-5.42,6.01c0.54,1.07,1.46,1.89,2.53,2.24c1.56,0.5,2.27-1.84,0.75-2.33
			c-0.45-0.14-0.84-0.51-1.09-0.99c-0.92-1.83,1.08-3.13,2.36-2.64c0.63,0.23,1.34-0.08,1.58-0.71
			C499.58,161.8,499.26,161.1,498.63,160.85z"/>
		<path d="M561.24,167.89c-0.39-0.55-1.15-0.68-1.7-0.28c-0.55,0.39-0.68,1.15-0.28,1.7c3.19,4.45,6.25,9.11,9.08,13.82
			c0.91,1.52,1.7,3.11,1.24,4.37c-0.5,1.35-2.21,2.07-5.38,2.28c-0.67,0.04-1.18,0.63-1.13,1.31c0.04,0.65,0.6,1.17,1.31,1.13
			c2.67-0.18,6.37-0.78,7.5-3.88c0.82-2.23-0.2-4.43-1.43-6.47c-2.87-4.77-5.95-9.48-9.18-13.98H561.24z"/>
		<path d="M565.83,150.28c-0.27,0.62,0.01,1.34,0.63,1.61c0.61,0.26,1.34,0,1.61-0.63c2.63-6.01,10.44-7.7,15.33-3.32
			c0.5,0.45,1.28,0.42,1.72-0.09c0.45-0.51,0.41-1.28-0.09-1.73c-6.12-5.5-15.9-3.38-19.2,4.15V150.28z"/>
		<path d="M548.78,158.31c0.46-0.51,0.4-1.28-0.09-1.72c-6.12-5.5-15.9-3.38-19.2,4.15c-0.35,0.81,0.24,1.71,1.12,1.71
			c0.47,0,0.92-0.27,1.12-0.73c2.63-6.01,10.44-7.7,15.33-3.32c0.51,0.45,1.28,0.4,1.72-0.09H548.78z"/>
		<circle cx="543.37" cy="164.9" r="3.18"/>
		<circle cx="581.48" cy="153.26" r="3.18"/>
		<path d="M563.57,201.35c-4.41,4.23-11.62,3.43-15-1.67c-0.37-0.56-1.13-0.72-1.69-0.34c-0.57,0.37-0.72,1.13-0.34,1.69
			c4.21,6.36,13.21,7.37,18.73,2.09c0.49-0.47,0.51-1.25,0.04-1.73c-0.47-0.49-1.25-0.51-1.73-0.04V201.35z"/>
		<path d="M688.88,111.95c32.97,6.91,65.64-13.74,65.64-42.49c0-22.77-20.92-41.47-47.67-43.59c22.74,4.87,39.53,22,39.53,42.4
			c0,29.24-33.3,49.3-65.64,42.49c-5.18,2.86-10.84,4.84-16.68,5.79c-0.52,0.62-1.07,1.2-1.65,1.79c9.19,0.37,18.39-1.97,26.46-6.39
			L688.88,111.95z"/>
		<path d="M668.61,67.01l8.67-10.73l0.89,35.02c0.02,0.67,0.56,1.19,1.23,1.19h0.03c0.68-0.02,1.2-0.58,1.19-1.26l-0.98-38.34
			c-0.03-1.13-1.46-1.62-2.18-0.74l-10.75,13.31c-0.43,0.53-0.34,1.3,0.18,1.72C667.42,67.61,668.19,67.53,668.61,67.01z"/>
		<path d="M666.58,67.58c0.74,0.6,1.83,0.48,2.42-0.26l-0.78-0.63c-0.25,0.31-0.71,0.36-1.02,0.11L666.58,67.58z M666.32,65.15
			c-0.6,0.74-0.48,1.83,0.26,2.42l0.63-0.78c-0.31-0.25-0.36-0.71-0.11-1.02L666.32,65.15z M677.07,51.84l-10.75,13.31l0.78,0.63
			l10.75-13.31L677.07,51.84z M680.14,52.88c-0.04-1.6-2.05-2.28-3.06-1.04l0.77,0.63c0.43-0.52,1.27-0.23,1.29,0.44L680.14,52.88z
			 M681.12,91.22l-0.98-38.34l-1,0.03l0.98,38.34L681.12,91.22z M679.44,92.99c0.95-0.03,1.69-0.81,1.68-1.76l-1,0.01
			c0.01,0.41-0.31,0.74-0.71,0.75L679.44,92.99z M679.4,92.99h0.03v-1h-0.03V92.99z M677.67,91.31c0.03,0.94,0.78,1.68,1.72,1.68v-1
			c-0.39,0-0.71-0.31-0.73-0.71L677.67,91.31z M676.78,56.29l0.89,35.02l1-0.03l-0.89-35.02L676.78,56.29z M669,67.32l8.67-10.73
			l-0.78-0.63l-8.67,10.73L669,67.32z M666.71,65.47l0.39,0.31v0L666.71,65.47z M677.46,52.15l-0.39-0.32l0,0L677.46,52.15z
			 M679.64,52.89l0.5-0.01l0,0L679.64,52.89z M680.62,91.23l0.5-0.01l0-0.01L680.62,91.23z M679.43,92.49v0.5h0.01l0.01,0
			L679.43,92.49z M678.17,91.3l-0.5,0.01l0,0L678.17,91.3z M677.28,56.27l0.5-0.01l-0.03-1.36l-0.85,1.06L677.28,56.27z
			 M668.61,67.01l0.39,0.31l0,0L668.61,67.01z"/>
		<path d="M707.24,63.33l8.67-10.73l0.89,35.02c0.02,0.67,0.56,1.19,1.23,1.19h0.03c0.68-0.02,1.2-0.58,1.19-1.26l-0.98-38.34
			c-0.03-1.14-1.46-1.61-2.18-0.74l-10.75,13.31c-0.43,0.53-0.34,1.3,0.18,1.72C706.05,63.94,706.82,63.86,707.24,63.33z"/>
		<path d="M705.21,63.9c0.74,0.6,1.83,0.48,2.42-0.26l-0.78-0.63c-0.25,0.31-0.71,0.36-1.02,0.11L705.21,63.9z M704.95,61.48
			c-0.6,0.74-0.48,1.83,0.26,2.42l0.63-0.78c-0.31-0.25-0.36-0.71-0.11-1.02L704.95,61.48z M715.7,48.16l-10.75,13.31l0.78,0.63
			l10.75-13.31L715.7,48.16z M718.77,49.2c-0.04-1.62-2.06-2.26-3.06-1.04l0.77,0.64c0.44-0.53,1.27-0.23,1.29,0.43L718.77,49.2z
			 M719.75,87.55l-0.98-38.34l-1,0.03l0.98,38.34L719.75,87.55z M718.07,89.31c0.95-0.03,1.69-0.81,1.68-1.76l-1,0.01
			c0.01,0.41-0.31,0.74-0.71,0.75L718.07,89.31z M718.02,89.31h0.03v-1h-0.03V89.31z M716.3,87.63c0.03,0.94,0.78,1.68,1.72,1.68v-1
			c-0.39,0-0.71-0.31-0.73-0.71L716.3,87.63z M715.41,52.61l0.89,35.02l1-0.03l-0.89-35.02L715.41,52.61z M707.63,63.64l8.67-10.73
			l-0.78-0.63l-8.67,10.73L707.63,63.64z M705.34,61.79l0.39,0.31v0L705.34,61.79z M716.09,48.48l-0.39-0.32l0,0L716.09,48.48z
			 M718.27,49.22l0.5-0.01l0,0L718.27,49.22z M719.25,87.56l0.5-0.01l0-0.01L719.25,87.56z M718.06,88.81v0.5h0.01l0.01,0
			L718.06,88.81z M716.8,87.62l-0.5,0.01l0,0L716.8,87.62z M715.91,52.6l0.5-0.01l-0.03-1.36l-0.85,1.06L715.91,52.6z M707.24,63.33
			l0.39,0.31l0,0L707.24,63.33z"/>
		<path d="M689.01,78.86h6.87v5.67c0,0.68,0.55,1.23,1.23,1.23c0.68,0,1.23-0.55,1.23-1.23v-5.67h6.98c0.68,0,1.23-0.55,1.23-1.23
			c0-0.68-0.55-1.23-1.23-1.23h-6.98V71.1c0-0.68-0.55-1.23-1.23-1.23c-0.68,0-1.23,0.55-1.23,1.23v5.32h-6.87
			c-0.68,0-1.23,0.55-1.23,1.23C687.78,78.32,688.33,78.86,689.01,78.86z"/>
		<path d="M687.28,77.64c0,0.95,0.77,1.73,1.73,1.73v-1c-0.4,0-0.73-0.32-0.73-0.73H687.28z M689.01,75.91
			c-0.95,0-1.73,0.77-1.73,1.73h1c0-0.4,0.32-0.73,0.73-0.73V75.91z M695.88,75.91h-6.87v1h6.87V75.91z M695.38,71.1v5.32h1V71.1
			H695.38z M697.11,69.37c-0.95,0-1.73,0.77-1.73,1.73h1c0-0.4,0.32-0.73,0.73-0.73V69.37z M698.83,71.1c0-0.95-0.77-1.73-1.73-1.73
			v1c0.4,0,0.73,0.32,0.73,0.73H698.83z M698.83,76.41V71.1h-1v5.32H698.83z M705.31,75.91h-6.98v1h6.98V75.91z M707.04,77.64
			c0-0.95-0.77-1.73-1.73-1.73v1c0.4,0,0.73,0.32,0.73,0.73H707.04z M705.31,79.36c0.95,0,1.73-0.77,1.73-1.73h-1
			c0,0.4-0.32,0.73-0.73,0.73V79.36z M698.33,79.36h6.98v-1h-6.98V79.36z M698.83,84.53v-5.67h-1v5.67H698.83z M697.11,86.26
			c0.95,0,1.73-0.77,1.73-1.73h-1c0,0.4-0.32,0.73-0.73,0.73V86.26z M695.38,84.53c0,0.95,0.77,1.73,1.73,1.73v-1
			c-0.4,0-0.73-0.32-0.73-0.73H695.38z M695.38,78.86v5.67h1v-5.67H695.38z M689.01,79.36h6.87v-1h-6.87V79.36z M695.88,76.41v0.5
			h0.5v-0.5H695.88z M698.33,76.41h-0.5v0.5h0.5V76.41z M698.33,78.86v-0.5h-0.5v0.5H698.33z M695.88,78.86h0.5v-0.5h-0.5V78.86z"/>
	</g>
</g>
</svg>
