<?xml version="1.0" encoding="utf-8"?>
<!-- Generator: Adobe Illustrator 28.1.0, SVG Export Plug-In . SVG Version: 6.00 Build 0)  -->
<svg version="1.1" id="Layer_1" xmlns="http://www.w3.org/2000/svg" xmlns:xlink="http://www.w3.org/1999/xlink" x="0px" y="0px"
	 viewBox="0 0 270 150" style="enable-background:new 0 0 270 150;" xml:space="preserve">
<style type="text/css">
	.st0{fill:#F3CA45;}
	.st1{fill:#FFFFFF;}
</style>
<g>
	<circle class="st0" cx="135" cy="75" r="45"/>
	<path class="st1" d="M106,74.7c0.3-0.5,0.5-1,0.8-1.4c4.1-5.3,8.8-9.8,14.5-13.2c3.8-2.2,7.8-3.7,12.1-4c4-0.3,7.8,0.5,11.5,2.1
		c5.2,2.3,9.7,5.8,13.7,9.9c1.7,1.7,3.2,3.6,4.7,5.4c0.9,1,0.8,1.9,0,3c-4.1,5.4-8.9,10-14.7,13.4c-4.5,2.7-9.4,4.3-14.7,4.1
		c-3.7-0.2-7.1-1.2-10.4-2.8c-6.9-3.5-12.4-8.6-17.1-14.7c-0.2-0.3-0.4-0.7-0.6-1.1C106,75.1,106,74.9,106,74.7z M110.3,75
		c1.1,1.2,2.2,2.5,3.3,3.7c3.7,3.9,7.8,7.2,12.7,9.4c2.5,1.1,5,1.8,7.7,1.9c4.1,0.2,7.9-1,11.5-2.9c4-2.1,7.5-5,10.7-8.3
		c1.2-1.2,2.3-2.5,3.4-3.8c-0.2-0.3-0.4-0.5-0.5-0.6c-1.8-1.9-3.5-3.8-5.4-5.6c-3.5-3.3-7.4-6-11.9-7.6c-4.6-1.7-9.1-1.7-13.7,0
		c-3.9,1.4-7.4,3.7-10.6,6.4C115,69.8,112.6,72.3,110.3,75L110.3,75z"/>
	<path class="st1" d="M135,64c6.1,0,11,5.2,11,11.6c-0.1,6.4-5,11.5-11,11.4c-6.1,0-11-5.2-11-11.6C124.1,69.1,129,64,135,64z
		 M135,83.2c4.1,0,7.3-3.5,7.3-7.7c0-4.2-3.3-7.7-7.3-7.7c-4,0-7.4,3.5-7.3,7.7C127.7,79.8,131,83.2,135,83.2L135,83.2z"/>
</g>
</svg>
