<svg width="584" height="390" viewBox="0 0 584 390" fill="none" xmlns="http://www.w3.org/2000/svg">
<circle cx="194.844" cy="194.594" r="190.358" fill="#28596B" stroke="#FFFF00" stroke-width="8.47289"/>
<circle cx="389.155" cy="194.594" r="190.358" fill="#28596B" stroke="#FFFF00" stroke-width="8.47289"/>
<circle cx="194.844" cy="194.594" r="190.358" stroke="#FFFF00" stroke-width="8.47289"/>
<path d="M113.142 206.947H103.834L118.016 165.867H129.209L143.37 206.947H134.063L123.773 175.254H123.452L113.142 206.947ZM112.56 190.8H134.544V197.58H112.56V190.8Z" fill="white"/>
<path d="M311.764 180.249H302.978C302.818 179.112 302.49 178.103 301.996 177.22C301.501 176.324 300.866 175.562 300.09 174.933C299.314 174.305 298.418 173.823 297.402 173.489C296.399 173.155 295.309 172.987 294.132 172.987C292.006 172.987 290.154 173.516 288.576 174.572C286.998 175.615 285.775 177.14 284.905 179.146C284.036 181.138 283.602 183.559 283.602 186.407C283.602 189.336 284.036 191.796 284.905 193.789C285.788 195.781 287.018 197.286 288.596 198.302C290.174 199.318 292 199.826 294.072 199.826C295.236 199.826 296.312 199.673 297.302 199.365C298.305 199.057 299.194 198.609 299.97 198.021C300.745 197.419 301.387 196.69 301.895 195.835C302.417 194.979 302.778 194.003 302.978 192.906L311.764 192.946C311.537 194.832 310.969 196.65 310.059 198.402C309.163 200.141 307.953 201.699 306.429 203.076C304.917 204.44 303.112 205.523 301.013 206.325C298.927 207.114 296.566 207.509 293.932 207.509C290.268 207.509 286.991 206.68 284.103 205.022C281.228 203.363 278.955 200.963 277.283 197.82C275.625 194.678 274.796 190.873 274.796 186.407C274.796 181.927 275.638 178.116 277.323 174.973C279.008 171.831 281.295 169.437 284.183 167.792C287.072 166.134 290.321 165.305 293.932 165.305C296.312 165.305 298.519 165.639 300.551 166.308C302.597 166.976 304.409 167.953 305.987 169.236C307.565 170.507 308.849 172.065 309.839 173.91C310.842 175.756 311.483 177.868 311.764 180.249Z" fill="white"/>
<path d="M444.977 206.947V165.867H461.425C464.447 165.867 466.968 166.315 468.987 167.211C471.007 168.106 472.524 169.35 473.541 170.941C474.557 172.519 475.065 174.338 475.065 176.398C475.065 178.002 474.744 179.413 474.102 180.63C473.46 181.833 472.578 182.823 471.455 183.599C470.345 184.361 469.074 184.902 467.643 185.223V185.625C469.208 185.691 470.672 186.133 472.036 186.949C473.414 187.764 474.53 188.908 475.386 190.379C476.242 191.836 476.67 193.575 476.67 195.594C476.67 197.774 476.128 199.719 475.045 201.431C473.975 203.129 472.391 204.473 470.291 205.463C468.192 206.452 465.604 206.947 462.528 206.947H444.977ZM453.662 199.846H460.743C463.164 199.846 464.929 199.385 466.039 198.462C467.149 197.526 467.704 196.283 467.704 194.731C467.704 193.595 467.429 192.592 466.881 191.723C466.333 190.853 465.551 190.171 464.534 189.677C463.531 189.182 462.334 188.934 460.944 188.934H453.662V199.846ZM453.662 183.057H460.101C461.291 183.057 462.348 182.85 463.27 182.435C464.207 182.007 464.942 181.406 465.477 180.63C466.025 179.854 466.299 178.925 466.299 177.842C466.299 176.357 465.771 175.161 464.715 174.251C463.672 173.342 462.187 172.887 460.262 172.887H453.662V183.057Z" fill="white"/>
</svg>
