<svg version="1.1" id="Layer_1" xmlns="http://www.w3.org/2000/svg" xmlns:xlink="http://www.w3.org/1999/xlink" x="0" y="0" viewBox="0 0 1300 400" style="enable-background:new 0 0 1300 400" xml:space="preserve"><style>.st3{fill:#fbea88}.st5{fill:#100906}.st6{fill:#dfdcdc}.st7{fill:#fff}.st9{fill:#c80043}.st11{fill:#fbb25c}.st12{fill:#f8d512}.st22{fill:#87ab99}.st30{fill:#b6efa9}</style><switch><g><defs><path id="SVGID_1_" d="M0 0h1300v400H0z"/></defs><clipPath id="SVGID_00000104686768592693361000000006847818751788769983_"><use xlink:href="#SVGID_1_" style="overflow:visible"/></clipPath><path style="clip-path:url(#SVGID_00000104686768592693361000000006847818751788769983_);fill:#fff" d="M0 0h1300v400H0z"/><defs><path id="SVGID_00000085241468202738721930000017528326051512209045_" d="M0 0h1300v400H0z"/></defs><clipPath id="SVGID_00000091736912866363381190000000952657652524727189_"><use xlink:href="#SVGID_00000085241468202738721930000017528326051512209045_" style="overflow:visible"/></clipPath><defs><path id="SVGID_00000056420484332010040600000017092019314686479755_" d="M0 0h1300v400H0z"/></defs><clipPath id="SVGID_00000104693667814061969550000001352996221886000780_"><use xlink:href="#SVGID_00000056420484332010040600000017092019314686479755_" style="overflow:visible"/></clipPath><g style="clip-path:url(#SVGID_00000104693667814061969550000001352996221886000780_)"><path d="M218.4 312.3c121.6 67.2 300.7 68.7 375 61 156.8-45.6 226-39.7 241-31 149 57.5 504.5-119 299.5-234-164-92-357.3-82-433.5-65.5-55.3 12.2-205.4 32.6-363 17s-217 32.8-227 59c-14.7 36.5-13.6 126.3 108 193.5z" style="fill:#fefceb"/><path d="M998.7 191.7c.8.1 1.5.1 2 .1h.5c.1 0 .1 0 0 0l1.1 1.7c-.3.2-.6.2-.8.3-.3 0-.5.1-.8.1-.6 0-1.3-.1-2.2-.2l.2-2zm-12.5-2.5c2.2.5 4.3 1 6.3 1.4l-.4 2c-2-.4-4.1-.9-6.3-1.4l.4-2zm-12.5-3c1.9.5 4.1 1 6.3 1.6l-.5 1.9c-2.2-.5-4.3-1.1-6.3-1.6l.5-1.9zm-9.7-1.5.3-1h.2c.1 0 .3.1.6.2.5.1 1.3.4 2.3.6l-.5 1.9c-1-.3-1.8-.5-2.3-.6-.3-.1-.5-.1-.6-.2h-.2l.2-.9zm-2.3-1.7c.8.2 1.5.4 1.9.5.2.1.4.1.5.1h.1l-.3 1-.3 1h-.1c-.1 0-.3-.1-.5-.1-.4-.1-1.1-.3-1.9-.5l.6-2zm-10.5-2.7c1.9.5 3.7.9 5.3 1.3l-.5 1.9c-1.6-.4-3.3-.8-5.2-1.3l.4-1.9zm-10.6-2.4c1.8.4 3.6.7 5.3 1.1l-.4 1.9c-1.7-.4-3.5-.8-5.3-1.1l.4-1.9zm-10.7-1.9 5.4.9-.3 2c-1.8-.3-3.5-.6-5.3-.9l.2-2zm-10.8-1.2c1.8.1 3.6.3 5.4.5l-.2 2c-1.8-.2-3.6-.4-5.3-.5l.1-2zm-8.2-.3h2.7v2h-2.7v-2zm-2.9.1c1 0 1.9-.1 2.9-.1v2c-1 0-1.9 0-2.9.1v-2zm-11.6.8c1.9-.2 3.8-.4 5.8-.6l.2 2c-1.9.1-3.8.3-5.7.5l-.3-1.9zm-11.5 1.8c1.9-.4 3.8-.7 5.7-1l.3 2c-1.9.3-3.8.6-5.6 1l-.4-2zm-11.2 2.9c1.8-.5 3.7-1 5.6-1.5l.5 1.9c-1.9.5-3.7 1-5.5 1.5l-.6-1.9zm-11 3.6c1.8-.7 3.6-1.3 5.5-1.9l.6 1.9c-1.8.6-3.6 1.2-5.4 1.9l-.7-1.9zm-10.7 4.4c1.8-.8 3.5-1.5 5.3-2.3l.8 1.9c-1.8.7-3.5 1.5-5.3 2.3l-.8-1.9zm-7.9 3.7c.9-.4 1.7-.8 2.6-1.2l.8 1.8c-.9.4-1.7.8-2.6 1.2l-.8-1.8zm-2.7 1.3c.9-.5 1.8-.9 2.7-1.3l.9 1.8c-.9.4-1.8.9-2.6 1.3l-1-1.8zm-10.4 6c1.7-1.1 3.4-2.1 5.2-3.1l1 1.7c-1.7 1-3.4 2-5.1 3.1l-1.1-1.7zm-10 6.8c1.6-1.2 3.3-2.4 4.9-3.5l1.1 1.6c-1.6 1.1-3.2 2.3-4.8 3.4l-1.2-1.5zm-9.4 7.5c1.5-1.3 3.1-2.6 4.7-3.8l1.2 1.6c-1.5 1.2-3.1 2.5-4.6 3.8l-1.3-1.6zm-9 8c1.5-1.4 2.9-2.7 4.4-4.1l1.3 1.5c-1.5 1.3-2.9 2.7-4.4 4l-1.3-1.4zm-8.5 8.5c1.4-1.4 2.8-2.9 4.2-4.3l1.4 1.4c-1.4 1.4-2.8 2.8-4.2 4.3l-1.4-1.4zm-8 9c1.3-1.5 2.6-3 3.9-4.6l1.5 1.3-3.9 4.5-1.5-1.2zm-7.4 9.5 3.6-4.8 1.6 1.2-3.6 4.8-1.6-1.2zm-6.7 10c1-1.7 2.1-3.4 3.2-5.1l1.7 1.1c-1.1 1.7-2.2 3.3-3.2 5l-1.7-1zm-5.7 10.6c.8-1.8 1.7-3.6 2.7-5.4l1.8 1c-1 1.8-1.8 3.6-2.7 5.3l-1.8-.9zm-4.1 11.5c.5-1.9 1-3.8 1.8-5.8l1.9.7c-.7 1.9-1.3 3.8-1.7 5.6l-2-.5zm-.7 12.3c-.4-1.9-.5-4-.3-6.2l2 .1c-.2 2-.1 4 .3 5.7l-2 .4zm4.2 8.4c-.8-.8-1.4-1.6-2-2.5l1.7-1c.5.8 1 1.5 1.7 2.2l-1.4 1.3zm2.3 2.2c-.8-.7-1.6-1.4-2.3-2.2l1.5-1.4c.7.7 1.4 1.4 2.2 2l-1.4 1.6zm11.2 5.7c-2-.5-4-1.3-5.9-2.3l.9-1.8c1.8.9 3.6 1.6 5.5 2.1l-.5 2zm12.5.9c-2.1.2-4.2.3-6.3.1l.1-2c2 .1 4 .1 5.9-.1l.3 2zm12.1-3.3c-1.9.9-3.9 1.6-5.9 2.1l-.5-1.9c1.9-.5 3.8-1.2 5.6-2l.8 1.8zm10.4-7c-1.5 1.5-3.2 2.8-4.9 3.9l-1.1-1.7c1.7-1.1 3.2-2.4 4.6-3.7l1.4 1.5zm5.8-7.4c-.5.9-1.1 1.8-1.7 2.6l-1.6-1.2c.6-.8 1.1-1.6 1.6-2.5l1.7 1.1zm1.6-2.9c-.5 1-1 1.9-1.5 2.9l-1.7-1 1.5-2.7 1.7.8zm3.3-12.5c-.1 2.1-.5 4.3-1.1 6.4l-1.9-.5c.5-2 .9-4 1-6l2 .1zm-1.8-12.9c.7 2.1 1.2 4.2 1.5 6.3l-2 .3c-.3-2-.8-4-1.4-6l1.9-.6zm-3.9-8.8c.5 1 1 1.9 1.5 2.9l-1.8.9c-.4-.9-.9-1.8-1.4-2.8l1.7-1zm-1.7-2.9c.6.9 1.2 1.9 1.7 2.9l-1.8.9c-.5-1-1.1-1.9-1.6-2.8l1.7-1zm-9.2-9.7c1.8 1.3 3.5 2.8 5.1 4.4l-1.5 1.4c-1.5-1.6-3.1-3-4.8-4.2l1.2-1.6zm-12-5.9c2.2.7 4.2 1.5 6.2 2.5l-.9 1.8c-1.9-.9-3.9-1.7-6-2.4l.7-1.9zm-9.6-2.6c1.1.2 2.2.5 3.2.8l-.5 1.9c-1-.3-2.1-.5-3.2-.8l.5-1.9zm-3-.6c1 .2 2 .4 3.1.6l-.4 1.9c-1-.2-2-.4-2.9-.6l.2-1.9zm-12.5-.2c2-.3 4.1-.4 6.2-.4v2c-2 0-4 .1-5.9.3l-.3-1.9zm-11.9 3.4c1.9-.8 3.9-1.5 5.8-2.1l.5 1.9c-1.9.6-3.8 1.2-5.6 2l-.7-1.8zm-10.9 5.8c1.8-1.1 3.5-2.1 5.3-3.1l1 1.8c-1.7.9-3.5 1.9-5.2 3l-1.1-1.7zm-10.2 6.7c1.7-1.2 3.4-2.3 5.1-3.4l1.1 1.7c-1.7 1.1-3.3 2.2-5 3.4l-1.2-1.7zm-7.6 5.1c.9-.6 1.7-1.1 2.5-1.7l1.1 1.7c-.8.6-1.7 1.1-2.6 1.7l-1-1.7zM728 256c.8-.6 1.7-1.2 2.6-1.7l1.1 1.7c-.8.5-1.7 1.1-2.5 1.7L728 256zm-9.5 7.8c1.5-1.4 3-2.8 4.6-4.1l1.3 1.5c-1.5 1.3-3 2.6-4.5 4l-1.4-1.4zm-8.3 9.1c1.3-1.6 2.6-3.2 4-4.7l1.5 1.4c-1.3 1.5-2.7 3-3.9 4.6l-1.6-1.3zm-7 10c1.1-1.8 2.2-3.5 3.4-5.1l1.6 1.1c-1.2 1.6-2.2 3.3-3.3 5l-1.7-1zm-5.9 10.8c.9-1.9 1.8-3.7 2.8-5.5l1.8 1c-1 1.8-1.9 3.5-2.8 5.4l-1.8-.9zm-4.8 11.2c.7-1.9 1.5-3.8 2.3-5.7l1.8.8c-.8 1.8-1.5 3.7-2.2 5.6l-1.9-.7zm-3.8 11.7c.6-2 1.2-3.9 1.8-5.9l1.9.6c-.6 1.9-1.2 3.8-1.8 5.8l-1.9-.5zm-2.9 11.9c.4-2 .9-4 1.3-6l1.9.5c-.5 2-.9 3.9-1.3 5.9l-1.9-.4zm-2.1 12c.3-2 .6-4 1-6l2 .3c-.3 2-.7 4-.9 6l-2.1-.3zm-1.3 12.1c.2-2 .4-4 .6-6.1l2 .2-.6 6-2-.1zm-.7 12.3c0-2 .1-4.1.2-6.1l2 .1c-.1 2-.2 4-.2 6h-2zm.1 12.2c-.1-2-.1-4.1-.1-6.1h2c0 2 0 4 .1 6l-2 .1zm.7 12.2c-.2-2-.3-4-.4-6.1l2-.1c.1 2 .3 4 .4 6l-2 .2zm3.5 24.1-1.2-6 2-.4c.4 2 .8 4 1.2 5.9l-2 .5zm3.1 11.9c-.6-1.9-1.1-3.9-1.7-5.9l1.9-.5c.5 2 1.1 3.9 1.6 5.8l-1.8.6zm4.2 11.5c-.8-1.8-1.5-3.7-2.3-5.7l1.9-.7c.7 2 1.5 3.8 2.2 5.6l-1.8.8zm5.8 10.9a53.1 53.1 0 0 1-3.2-5.3l1.8-.9c1 1.9 2 3.6 3.1 5.1l-1.7 1.1zm6.2 7c-.8-.6-1.5-1.4-2.3-2.2l1.5-1.4c.7.7 1.4 1.4 2.1 2l-1.3 1.6zm293.2-261c-.5-.1-.9-.6-.9-1.1.1-.6.6-.9 1.1-.9l-.2 2zm-6-3.1c.5.1.9.6.8 1.2s-.6.9-1.2.8l.4-2zm-6.8.6c-.5-.1-.9-.7-.8-1.2s.7-.9 1.2-.8l-.4 2zm-5.8-3.5c.5.1.9.7.7 1.2-.1.5-.7.9-1.2.7l.5-1.9zm-6.7.4c-.5-.1-.9-.7-.7-1.2.1-.5.7-.9 1.2-.7l-.5 1.9zm-5.8-3.5c.5.1.8.7.7 1.2s-.7.9-1.2.7l.5-1.9zm-6.2.3c-.5-.1-.8-.7-.7-1.2.2-.5.7-.8 1.2-.7l-.5 1.9zm-4.7-3.3c.5.1.9.7.7 1.2-.1.5-.7.9-1.2.7l.5-1.9zm-5.8.6c-.5-.1-.9-.7-.7-1.2s.7-.9 1.2-.7l-.5 1.9zm-4.8-3.1c.5.1.9.6.8 1.2-.1.5-.7.9-1.2.8l.4-2zm-5.7.8c-.5-.1-.9-.6-.8-1.2s.6-.9 1.2-.8l-.4 2zm-4.9-3c.5.1.9.6.8 1.2-.1.5-.6.9-1.2.8l.4-2zm-5.7 1.1c-.5-.1-.9-.6-.8-1.1.1-.6.6-.9 1.1-.8l-.3 1.9zm-5.1-2.7c.5.1.9.6.9 1.1-.1.6-.6.9-1.1.9l.2-2zm-5.6 1.5c-.5 0-1-.5-.9-1.1s.5-1 1.1-.9l-.2 2zm-5.3-2.3c.5 0 1 .5 1 1s-.5 1-1 1v-2zm-5.6 2.1c-.5 0-1-.4-1-1s.4-1 1-1v2zm-5.8-1.7c.5 0 1 .4 1.1.9s-.4 1-.9 1.1l-.2-2zm-5.6 2.5c-.5.1-1-.3-1.1-.9s.3-1.1.9-1.1l.2 2zm-5.9-1.2c.5-.1 1.1.3 1.2.8s-.3 1.1-.8 1.1l-.4-1.9zm-5.4 3c-.5.1-1.1-.2-1.2-.8s.2-1.1.8-1.2l.4 2zm-6-.7c.5-.1 1.1.2 1.2.7s-.2 1.1-.7 1.2l-.5-1.9zm-5.1 3.5c-.5.1-1.1-.1-1.2-.7-.2-.5.2-1.1.7-1.2l.5 1.9zm-6.1-.2c.5-.2 1.1.1 1.3.6s-.1 1.1-.6 1.3l-.7-1.9zm-4.7 3.8c-.5.2-1.1-.1-1.3-.6-.2-.5.1-1.1.6-1.3l.7 1.9zm-6.1.2c.5-.2 1.1 0 1.3.5s0 1.1-.5 1.3l-.8-1.8zm-4.5 4.1c-.5.2-1.1 0-1.3-.5-.2-.5 0-1.1.5-1.3l.8 1.8zm-6.1.6c.5-.2 1.1 0 1.3.5.2.5 0 1.1-.5 1.3l-.8-1.8zm-4.4 4.4c-.5.2-1.1.1-1.3-.4-.2-.5-.1-1.1.4-1.4l.9 1.8zm-6.2 1.1c.5-.3 1.1-.1 1.4.4.3.5.1 1.1-.4 1.4l-1-1.8zm-4.1 4.8c-.5.3-1.1.2-1.4-.3s-.2-1.1.3-1.4l1.1 1.7zm-6.1 1.6c.5-.3 1.1-.2 1.4.3.3.5.2 1.1-.3 1.4l-1.1-1.7zm-3.7 5.2c-.4.3-1.1.2-1.4-.2s-.2-1.1.2-1.4l1.2 1.6zm-6 2c.4-.3 1.1-.3 1.4.2s.3 1.1-.2 1.4l-1.2-1.6zm-3.3 5.3c-.4.4-1 .3-1.4-.1s-.3-1.1.1-1.4l1.3 1.5zm-5.9 2.4c.4-.4 1-.3 1.4.1s.3 1-.1 1.4l-1.3-1.5zm-3 5.6c-.4.4-1 .4-1.4 0-.4-.4-.4-1 0-1.4l1.4 1.4zm-5.7 2.7c.4-.4 1-.4 1.4 0 .4.4.4 1 0 1.4l-1.4-1.4zm-2.7 5.7c-.4.4-1 .4-1.4 0-.4-.4-.4-1 0-1.4l1.4 1.4zm-5.6 3c.4-.4 1-.4 1.4-.1s.5 1 .1 1.4l-1.5-1.3zm-2.3 5.9c-.3.4-1 .5-1.4.1-.4-.4-.5-1-.1-1.4l1.5 1.3zm-5.4 3.4c.3-.4 1-.5 1.4-.2.4.3.5 1 .2 1.4l-1.6-1.2zm-2 6c-.3.4-1 .5-1.4.2s-.5-.9-.2-1.4l1.6 1.2zm-5.1 3.7c.3-.5.9-.6 1.4-.3s.6.9.3 1.4l-1.7-1.1zm-1.5 6.1c-.3.5-.9.6-1.4.3s-.6-.9-.3-1.4l1.7 1.1zm-4.7 4.2c.3-.5.9-.7 1.3-.4.5.3.7.9.4 1.4l-1.7-1zm-.9 6.3c-.2.5-.8.7-1.3.5-.5-.2-.7-.8-.5-1.3l1.8.8zm-4.1 4.7c.2-.5.8-.8 1.3-.6s.8.8.6 1.3l-1.9-.7zm.1 6.3c-.1.5-.7.9-1.2.7-.5-.1-.9-.7-.7-1.2l1.9.5zm-2.9 5.6c0-.5.5-1 1.1-.9s1 .5.9 1.1l-2-.2zm2.3 5.9c.1.5-.3 1.1-.8 1.2s-1.1-.3-1.2-.8l2-.4zm.2 6.2c-.3-.5-.2-1.1.3-1.4.5-.3 1.1-.1 1.4.3l-1.7 1.1zm5.6 3.2c.4.4.5 1 .1 1.4-.3.4-1 .5-1.4.1l1.3-1.5zm4 5.1c-.5-.2-.7-.9-.4-1.4.2-.5.8-.7 1.3-.4l-.9 1.8zm6.4.3c.5.1.8.7.7 1.2s-.7.9-1.2.7l.5-1.9zm5.7 2.9c-.5 0-1-.5-.9-1.1 0-.5.5-1 1.1-.9l-.2 2zm6.1-2.1c.5-.1 1 .3 1.1.9.1.5-.3 1-.9 1.1l-.2-2zm6.4.8c-.5.1-1.1-.2-1.2-.7-.2-.5.2-1.1.7-1.2l.5 1.9zm5.1-3.9c.5-.2 1.1 0 1.3.5.2.5 0 1.1-.5 1.3l-.8-1.8zm6.3-1.3c-.5.3-1.1.2-1.4-.3s-.2-1.1.3-1.4l1.1 1.7zm3.5-5.4c.4-.4 1-.4 1.4 0 .4.4.4 1 0 1.4l-1.4-1.4zm5.5-3.3c-.3.5-1 .5-1.4.2s-.5-1-.2-1.4l1.6 1.2zm1.5-6.4c.2-.5.8-.7 1.3-.5.5.2.7.8.5 1.3l-1.8-.8zm4-5.2c-.2.5-.7.9-1.2.7-.5-.1-.8-.7-.7-1.2l1.9.5zm-.9-6.5c0-.5.5-1 1.1-.9s1 .5.9 1.1l-2-.2zm1.7-6.4c.1.5-.3 1-.8 1.1-.5.1-1-.3-1.1-.8l1.9-.3zm-3.4-5.7c-.2-.5.1-1.1.6-1.3.5-.2 1.1.1 1.3.6l-1.9.7zm-.5-6.6c.2.5 0 1.1-.5 1.3-.5.2-1.1 0-1.3-.5l1.8-.8zm-4.9-4.7c-.3-.5-.2-1.1.3-1.4s1.1-.2 1.4.3l-1.7 1.1zm-2.4-6.4c.4.4.4 1 0 1.4-.4.4-1 .4-1.4-.1l1.4-1.3zm-6.2-2.8c-.5-.3-.5-.9-.2-1.4.3-.4 1-.6 1.4-.2l-1.2 1.6zm-4.7-5c.5.2.7.8.5 1.3s-.8.7-1.3.5l.8-1.8zm-6.8-.6c-.5-.2-.8-.7-.6-1.3.2-.5.7-.8 1.3-.6l-.7 1.9zm-5.8-3.7c.5.1.9.7.7 1.2-.1.5-.7.9-1.2.7l.5-1.9zm-6.6.6c-.5-.1-.9-.6-.8-1.1.1-.6.6-.9 1.2-.8l-.4 1.9zm-5.8-2.5c.5 0 1 .5 1 1s-.5 1-1 1v-2zm-6 2.3c-.5.1-1-.3-1.1-.9s.3-1.1.9-1.1l.2 2zm-6.4-.7c.5-.1 1.1.1 1.2.7.2.5-.2 1.1-.7 1.2l-.5-1.9zm-5 3.9c-.5.2-1.1 0-1.3-.5-.2-.5 0-1.1.5-1.3l.8 1.8zm-6.4.9c.5-.3 1.1-.1 1.4.4.3.5.1 1.1-.4 1.4l-1-1.8zm-4.2 4.8c-.5.3-1.1.1-1.4-.3s-.2-1.1.3-1.4l1.1 1.7zm-6.3 1.6c.5-.3 1.1-.2 1.4.3.3.5.2 1.1-.3 1.4l-1.1-1.7zm-3.9 5.1c-.5.3-1.1.2-1.4-.3s-.2-1.1.3-1.4l1.1 1.7zm-6.2 1.7c.5-.3 1.1-.2 1.4.3.3.5.2 1.1-.3 1.4l-1.1-1.7zm-3.9 5c-.5.3-1.1.2-1.4-.2-.3-.5-.2-1.1.2-1.4l1.2 1.6zm-6.1 2.1c.4-.4 1.1-.3 1.4.1.3.4.3 1.1-.1 1.4l-1.3-1.5zm-3.2 5.5c-.4.4-1 .4-1.4 0-.4-.4-.4-1 0-1.4l1.4 1.4zm-5.7 3c.4-.4 1-.4 1.4-.1s.4 1 .1 1.4l-1.5-1.3zm-2.4 5.9c-.3.4-1 .5-1.4.2-.4-.3-.5-1-.2-1.4l1.6 1.2zm-5.3 3.7c.3-.5.9-.6 1.4-.2s.6.9.2 1.4l-1.6-1.2zm-1.6 6.2c-.3.5-.9.6-1.4.3-.5-.3-.6-.9-.3-1.4l1.7 1.1zm-4.8 4.2c.3-.5.9-.7 1.4-.4s.7.9.4 1.4l-1.8-1zm-1 6.3c-.2.5-.8.7-1.3.5-.5-.2-.7-.8-.5-1.3l1.8.8zm-4.3 4.7c.2-.5.8-.8 1.3-.5s.8.8.5 1.3l-1.8-.8zm-.4 6.4c-.2.5-.8.8-1.3.6s-.8-.8-.6-1.3l1.9.7zm-3.9 5.1c.2-.5.7-.8 1.3-.6.5.2.8.7.6 1.3l-1.9-.7zm.2 6.4c-.2.5-.7.8-1.2.7s-.8-.7-.7-1.2l1.9.5zm-3.5 5.4c.1-.5.7-.9 1.2-.7s.9.7.7 1.2l-1.9-.5zm.6 6.4c-.1.5-.6.9-1.2.8-.5-.1-.9-.6-.8-1.2l2 .4zm-3.1 5.6c.1-.5.6-.9 1.2-.8.5.1.9.6.8 1.2l-2-.4zm1 6.3c-.1.5-.6.9-1.1.9s-.9-.6-.8-1.1l1.9.2zm-2.7 5.8c.1-.5.6-.9 1.1-.9.5.1.9.6.9 1.1l-2-.2zm1.4 6.2c0 .5-.5 1-1.1.9-.5 0-1-.5-.9-1.1l2 .2zm-2.4 5.9c0-.5.5-1 1-1s1 .5 1 1h-2zm1.7 6.2c0 .5-.5 1-1 1s-1-.5-1-1h2zm-2 6.1c0-.5.5-1 1-1s1 .5 1 1h-2zm2.1 6c0 .5-.4 1-1 1s-1-.4-1-1h2zm-1.8 6.2c0-.5.4-1 .9-1.1.5 0 1 .4 1.1.9l-2 .2zm2.5 5.9c0 .5-.4 1-.9 1.1s-1-.4-1.1-.9l2-.2zm1.4 12c.1.5-.3 1-.8 1.1-.5.1-1-.3-1.1-.8l1.9-.3zm-1 6.3c-.1-.5.3-1.1.8-1.2s1.1.3 1.2.8l-2 .4zm3.1 5.6c.1.5-.2 1.1-.8 1.2-.5.1-1.1-.2-1.2-.8l2-.4zm-.5 6.4c-.1-.5.2-1.1.7-1.2.5-.1 1.1.2 1.2.7l-1.9.5zm3.5 5.3c.2.5-.1 1.1-.7 1.2-.5.2-1.1-.1-1.2-.7l1.9-.5zm0 6.4c-.2-.5.1-1.1.6-1.3.5-.2 1.1.1 1.3.6l-1.9.7zm4.1 4.9c.2.5 0 1.1-.5 1.3s-1.1 0-1.3-.5l1.8-.8zm.9 6.4c-.3-.5-.1-1.1.4-1.4.5-.3 1.1-.1 1.3.4l-1.7 1zm4.8 4.2c.3.5.2 1.1-.3 1.4-.5.3-1.1.2-1.4-.3l1.7-1.1zm2.2 6c-.4-.4-.4-1 0-1.4.4-.4 1-.4 1.4 0l-1.4 1.4zm3.5.6c.4.4.5 1 .1 1.4s-1 .5-1.4.1l1.3-1.5zm24.6-198.1.5.8-.5-.8zm55.4-20 .2-1-.2 1zm31.8 20.6-.9.5.9-.5zm.9 36.1.9.5-.9-.5zm-52.8 8.7.7-.7-.7.7zm78.1-107.8-.4-.9.4.9zm66.4-17.2v-1 1zm53.1 9.2-.3 1 .3-1zm37.3 7.2c.5-.3 1.1-.1 1.4.3s.2 1.1-.3 1.4l-1.1-1.7z"/><circle class="st3" cx="1030.5" cy="168.4" r="56.5"/><defs><circle id="SVGID_00000058568869237950525930000009297253138097597852_" cx="1030.5" cy="168.4" r="56.5"/></defs><clipPath id="SVGID_00000093880858707272344260000003122878131687094152_"><use xlink:href="#SVGID_00000058568869237950525930000009297253138097597852_" style="overflow:visible"/></clipPath><path style="clip-path:url(#SVGID_00000093880858707272344260000003122878131687094152_);fill:#18292d" d="M1030.5 113.9c30.1 0 54.5 24.4 54.5 54.5h4c0-32.3-26.2-58.5-58.5-58.5v4zM976 168.4c0-30.1 24.4-54.5 54.5-54.5v-4c-32.3 0-58.5 26.2-58.5 58.5h4zm54.5 54.5c-30.1 0-54.5-24.4-54.5-54.5h-4c0 32.3 26.2 58.5 58.5 58.5v-4zm54.5-54.5c0 30.1-24.4 54.5-54.5 54.5v4c32.3 0 58.5-26.2 58.5-58.5h-4z"/><path class="st5" d="M1026.2 187.2c-.4-.7-.6-1.5-.3-2.2.2-.7.9-1.2 1.6-1.5.7-.3 1.5-.4 2.2-.2s1.3.9 1.4 1.7c.8-.6 1.9-1 2.9-1.1h.5c.2.1.7.4.7 1.5 0 .5 0 2.9-5.2 5.4 0-.1-3.5-2.9-3.8-3.6zM1047.9 145.6c5.1 2.9 9.3 7.1 12.3 12.1 4.3-4.1 5.5-11.1 3.7-16.9-.3-1-.7-2-1.4-2.8-.6-.7-1.4-1.1-2.2-1.6-3.7-2-8.1-3.1-12.1-2.2-3.9.9-7.4 4.2-7.8 8.1 2.6.9 5.1 1.9 7.5 3.3zM1000.9 157.3c3.5-6 8.9-11 15.6-13.8.6-.3 1.2-.5 1.9-.7-.3-3.7-3.6-6.8-7.2-7.7-3.8-.9-7.8.2-11.2 2-.7.4-1.5.8-2 1.4-.6.7-1 1.6-1.3 2.6-1.7 5.7-.3 12.5 4.2 16.2z"/><path class="st6" d="M997.8 164.3c0-.1 0-.1.1-.2-.1 0-.1.1-.1.2zM997.8 164.3c-.1.4-.3.8-.4 1.3.1-.5.2-.9.4-1.3z"/><path class="st7" d="M1029.9 190.7s-3.4-2.8-3.8-3.5c-.4-.7-.6-1.5-.3-2.2.2-.7.9-1.2 1.6-1.5.7-.3 1.5-.4 2.2-.2s1.3.9 1.4 1.7c.8-.6 1.9-1 2.9-1.1h.5c.2.1.7.4.7 1.5 0 .5 0 2.8-5.2 5.3zm27.9-6.7c-.1 1.5-1.3 2.8-2.7 3.5-2.5 1.2-6.2 1.2-8.7 0-1.3-.6-2.3-1.6-2.5-3-.1-1 .2-1.9.9-2.6-1.4-.9-2.7-1.9-3.8-3.3-3.4-4-6.6-10.2-5.6-15.6 1.2-6.9 8.5-6.8 13.9-5.6 5 1.1 10.2 2.9 13.9 6.4-2.7-7.5-8.1-14.1-15.2-18.2-9.3-5.3-21.3-6.3-31.3-2.1-9.1 3.8-15.7 11.6-18.7 20.5 3.8-3.5 9-5.4 14-6.5 5.4-1.2 12.7-1.3 13.9 5.6.9 5.4-2.2 11.6-5.6 15.6-1.2 1.5-2.7 2.6-4.2 3.5.1.1.2.3.4.4.4.6.6 1.2.6 1.8 0 1.5-1.3 2.8-2.7 3.5-2.5 1.2-6.2 1.2-8.7 0-1.3-.6-2.3-1.6-2.5-3v-.9c-2.1-.4-4.2-1.1-6.2-2.1 3.4 14.7 17.4 26.9 33.6 26.9 16.6 0 30.4-12.3 33.8-27-2.2 1.1-4.4 1.8-6.6 2.2z"/><defs><path id="SVGID_00000093145256340345483680000003122077928993032834_" d="M1029.9 190.7s-3.4-2.8-3.8-3.5c-.4-.7-.6-1.5-.3-2.2.2-.7.9-1.2 1.6-1.5.7-.3 1.5-.4 2.2-.2s1.3.9 1.4 1.7c.8-.6 1.9-1 2.9-1.1h.5c.2.1.7.4.7 1.5 0 .5 0 2.8-5.2 5.3zm27.9-6.7c-.1 1.5-1.3 2.8-2.7 3.5-2.5 1.2-6.2 1.2-8.7 0-1.3-.6-2.3-1.6-2.5-3-.1-1 .2-1.9.9-2.6-1.4-.9-2.7-1.9-3.8-3.3-3.4-4-6.6-10.2-5.6-15.6 1.2-6.9 8.5-6.8 13.9-5.6 5 1.1 10.2 2.9 13.9 6.4-2.7-7.5-8.1-14.1-15.2-18.2-9.3-5.3-21.3-6.3-31.3-2.1-9.1 3.8-15.7 11.6-18.7 20.5 3.8-3.5 9-5.4 14-6.5 5.4-1.2 12.7-1.3 13.9 5.6.9 5.4-2.2 11.6-5.6 15.6-1.2 1.5-2.7 2.6-4.2 3.5.1.1.2.3.4.4.4.6.6 1.2.6 1.8 0 1.5-1.3 2.8-2.7 3.5-2.5 1.2-6.2 1.2-8.7 0-1.3-.6-2.3-1.6-2.5-3v-.9c-2.1-.4-4.2-1.1-6.2-2.1 3.4 14.7 17.4 26.9 33.6 26.9 16.6 0 30.4-12.3 33.8-27-2.2 1.1-4.4 1.8-6.6 2.2z"/></defs><clipPath id="SVGID_00000144316738587157647690000010554424096275104930_"><use xlink:href="#SVGID_00000093145256340345483680000003122077928993032834_" style="overflow:visible"/></clipPath><path style="clip-path:url(#SVGID_00000144316738587157647690000010554424096275104930_)" d="M1030.9 190.7h-2 2zm3.2-5.3c0 .1 0 .6-.5 1.4-.5.8-1.7 1.9-4.1 3.1l.9 1.8c2.7-1.3 4.2-2.6 4.9-3.8.8-1.2.8-2.1.8-2.5h-2zm-.1-.6s.1.2.1.6h2c0-.7-.2-1.2-.4-1.6-.3-.4-.6-.6-.9-.7l-.8 1.7zm0 0c.1 0 .1 0 0 0 .1 0 .1 0 0 0h.1-.1c.1 0 .1 0 0 0l.8-1.9c-.4-.2-.8-.1-1-.1l.2 2zm-2.4 1c.7-.5 1.5-.8 2.4-.9l-.2-2c-1.2.1-2.4.6-3.4 1.3l1.2 1.6zm-2.2-1.6c.4.1.7.5.7.7h2c0-1.3-1-2.3-2.1-2.6l-.6 1.9zm-1.6.2c.6-.2 1.1-.3 1.6-.2l.6-1.9c-1-.3-2.1-.1-2.9.2l.7 1.9zm-1 .9c.1-.3.4-.6 1-.9l-.8-1.9c-.8.3-1.8.9-2.2 2.1l2 .7zm.3 1.4c-.3-.6-.4-1.1-.3-1.5l-1.9-.7c-.4 1.1 0 2.3.4 3.1l1.8-.9zm2.8 4 .6-.8-.1-.1c-.1-.1-.2-.2-.4-.3-.3-.3-.8-.6-1.2-1-.4-.4-.9-.8-1.2-1.1l-.4-.4c-.1-.1-.1-.2-.1-.1l-1.8.9c.1.2.3.4.4.6.2.2.3.4.5.5.4.4.9.8 1.3 1.2.5.4.9.8 1.2 1.1.2.1.3.3.4.3.1 0 .1.1.1.1.1-.1.1-.1.7-.9zm33.9-9.7c-2 1-4.1 1.6-6.2 2l.4 2c2.3-.4 4.6-1.2 6.7-2.2l-.9-1.8zm-33.5 28.9c17.1 0 31.2-12.6 34.8-27.8l-1.9-.5c-3.4 14.3-16.8 26.2-32.9 26.3v2zm-34.5-27.6c3.5 15.1 17.9 27.7 34.5 27.7v-2c-15.7 0-29.3-11.9-32.6-26.1l-1.9.4zm7.4.8c-2-.4-4.1-1.1-6-2l-.9 1.8c2.1 1 4.2 1.7 6.5 2.2l.4-2zm.8 1.8v-.6l-2-.4c-.1.4-.1.8 0 1.2l2-.2zm1.9 2.3c-1.1-.5-1.8-1.2-1.9-2.2l-2 .2c.2 1.9 1.6 3.1 3.1 3.8l.8-1.8zm7.8-.1c-2.2 1-5.6 1.1-7.8 0l-.8 1.8c2.8 1.2 6.7 1.2 9.5-.1l-.9-1.7zm2.1-2.6c0 .9-.9 2-2.1 2.6l.8 1.8c1.6-.8 3.2-2.4 3.3-4.4h-2zm-.4-1.2c.3.4.4.8.4 1.2l2 .1c0-.8-.2-1.7-.8-2.4l-1.6 1.1zm-.3-.3c.1.1.2.2.3.4l1.6-1.2c-.1-.2-.3-.4-.4-.5l-1.5 1.3zm4.2-4.9c-1.2 1.4-2.5 2.5-4 3.3l1 1.7c1.7-.9 3.2-2.2 4.5-3.7l-1.5-1.3zm5.4-14.8c.8 5-2 10.9-5.4 14.8l1.5 1.3c3.5-4.1 6.9-10.6 5.9-16.5l-2 .4zm-12.6-4.8c2.6-.6 5.6-.9 8.1-.3 1.2.3 2.2.8 3 1.6.8.8 1.4 1.9 1.6 3.4l2-.3c-.3-1.9-1.1-3.4-2.2-4.5s-2.5-1.8-3.9-2.1c-2.9-.8-6.2-.4-9 .2l.4 2zm-13.6 6.3c3.5-3.4 8.6-5.1 13.5-6.2l-.4-1.9c-5.1 1.1-10.5 3-14.5 6.8l1.4 1.3zm17.7-22.2c-9.4 3.9-16.2 12-19.3 21.1l1.9.6c2.9-8.7 9.3-16.2 18.2-19.9l-.8-1.8zm32.2 2.1c-9.6-5.5-21.9-6.4-32.2-2.1l.8 1.8c9.7-4.1 21.4-3.2 30.4 2l1-1.7zm15.7 18.8c-2.8-7.7-8.3-14.6-15.7-18.8l-1 1.7c6.9 4 12.2 10.4 14.8 17.7l1.9-.6zm-15.1-5.1c4.9 1.1 9.9 2.9 13.4 6.2l1.4-1.5c-3.9-3.7-9.3-5.5-14.4-6.7l-.4 2zm-12.7 4.7c.3-1.5.8-2.6 1.6-3.4.8-.8 1.8-1.3 3-1.6 2.4-.6 5.4-.3 8.1.3l.4-1.9c-2.8-.6-6.1-1-9-.2-1.5.4-2.8 1.1-3.9 2.1-1.1 1.1-1.9 2.6-2.2 4.5l2 .2zm5.4 14.9c-3.4-3.9-6.3-9.8-5.4-14.8l-2-.3c-1 5.9 2.3 12.4 5.9 16.5l1.5-1.4zm3.6 3c-1.3-.8-2.5-1.8-3.6-3.1l-1.5 1.3c1.2 1.4 2.6 2.6 4.1 3.5l1-1.7zm-.4 3.4c-.1-.7.2-1.3.6-1.8l-1.5-1.3c-.8.9-1.3 2-1.1 3.4l2-.3zm1.9 2.2c-1.1-.5-1.8-1.3-1.9-2.2l-2 .2c.2 1.9 1.6 3.1 3.1 3.8l.8-1.8zm7.8 0c-2.2 1-5.6 1.1-7.8 0l-.8 1.8c2.8 1.2 6.7 1.2 9.5-.1l-.9-1.7zm2.2-2.6c0 .9-.9 2-2.1 2.6l.8 1.8c1.6-.8 3.2-2.4 3.3-4.3l-2-.1zm-26.9 6.7h-1c0 .3.2.7.5.9.3.2.7.2 1 .1l-.5-1zm4.5-6.8-.4.9.4-.9zm-.5-.1-.1-1 .1 1zm-2.9 1.2h-1c0 .4.2.7.6.9.3.2.7.1 1-.1l-.6-.8zm-1.3-1.7.3-.9-.3.9zm-2.3.2.4.9-.4-.9zm-1.6 1.4.9.3-.9-.3zm.4 2.3.9-.5-.9.5zm3.7 3.5h1c0-.3-.1-.6-.4-.8l-.6.8zm34.3-8.8 1 .2c.1-.4-.1-.8-.3-1-.3-.2-.7-.3-1.1-.1l.4.9zm-33.9 27v-1 1zM996.8 182l.4-.9c-.3-.2-.8-.1-1.1.1s-.4.6-.3 1l1-.2zm6.2 2.1 1 .2c.1-.5-.3-1.1-.8-1.2l-.2 1zm0 1 1-.1-1 .1zm2.5 3 .4-.9-.4.9zm8.6-.1-.4-.9.4.9zm2.7-3.4h1-1zm-.6-1.9.8-.6-.8.6zm-.3-.4-.5-.9c-.3.1-.4.4-.5.7s0 .6.2.8l.8-.6zm4.2-3.5.8.6-.8-.6zm5.6-15.7-1 .2 1-.2zm-13.9-5.5.2 1-.2-1zm-14 6.5-1-.3c-.2.4 0 .9.4 1.2.4.2.9.2 1.2-.1l-.6-.8zm18.7-20.6.4.9-.4-.9zm31.4 2.1-.5.9.5-.9zm15.2 18.2-.7.7c.3.3.8.4 1.2.1.4-.2.6-.7.4-1.2l-.9.4zm-13.9-6.4-.2 1 .2-1zm-13.9 5.6 1 .2-1-.2zm5.6 15.6-.8.6.8-.6zm3.9 3.3.8.7c.2-.2.3-.5.2-.8s-.2-.6-.5-.7l-.5.8zm-.9 2.6-1 .1 1-.1zm2.5 3-.4.9.4-.9zm8.7 0-.4-.9.4.9zm2.7-3.5-.2-1c-.5.1-.8.5-.8.9l1 .1z"/><path class="st5" d="M1026.2 187.2c-.4-.7-.6-1.5-.3-2.2.2-.7.9-1.2 1.6-1.5.7-.3 1.5-.4 2.2-.2s1.3.9 1.4 1.7c.8-.6 1.9-1 2.9-1.1h.5c.2.1.7.4.7 1.5 0 .5 0 2.9-5.2 5.4 0-.1-3.5-2.9-3.8-3.6zM1025.7 163.1c-1.2-6.9-8.5-6.8-13.9-5.6-5 1.1-10.3 3-14 6.5-1.4 4.1-2 8.4-1.8 12.7.1 1.8.3 3.6.8 5.3 2 1 4.1 1.7 6.2 2.1.3-1.7 2-2.9 3.6-3.4 2.8-1 7.1-.8 9.3 1.6 1.5-.9 3-2.1 4.2-3.5 3.4-4.1 6.6-10.2 5.6-15.7z"/><path class="st9" d="M1016.8 184.6c0 1.5-1.3 2.8-2.7 3.5-2.5 1.2-6.2 1.2-8.7 0-1.3-.6-2.3-1.6-2.5-3-.3-2.2 1.8-3.7 3.6-4.3 3-1 7.6-.8 9.7 2 .5.5.6 1.2.6 1.8z"/><path class="st5" d="M1063.2 163.9c-3.8-3.6-9-5.4-14-6.5-5.4-1.2-12.7-1.3-13.9 5.6-.9 5.4 2.2 11.6 5.6 15.6 1.2 1.3 2.4 2.4 3.8 3.3.7-.8 1.8-1.4 2.7-1.7 3-1 7.6-.8 9.7 2 .4.6.6 1.2.6 1.8 2.2-.4 4.4-1.1 6.5-2.1.4-1.7.7-3.5.8-5.3.2-4.3-.4-8.6-1.8-12.7z"/><path class="st9" d="M1057.8 184c-.1 1.5-1.3 2.8-2.7 3.5-2.5 1.2-6.2 1.2-8.7 0-1.3-.6-2.3-1.6-2.5-3-.3-2.2 1.8-3.7 3.6-4.3 3-1 7.6-.8 9.7 2 .4.6.6 1.2.6 1.8z"/><path class="st5" d="M1024.2 197.7c2.6 3.5 8.5 4.3 11.1.2.7-1-1-1.9-1.6-.9-1.8 2.8-6.1 2.2-7.9-.2-.7-1-2.3 0-1.6.9z"/><path class="st7" d="M1006.4 173.7c1.9-1.6 5.8-3.7 7.5-.6.6 1 2.2.1 1.6-.9-1-1.8-2.8-2.4-4.7-2.4-2.2-.1-4.1 1.3-5.7 2.6-1 .7.4 2 1.3 1.3zM1053.9 172.4c-1.8-1.4-3.4-2.5-5.7-2.6-1.9-.1-3.8.8-4.7 2.4-.6 1.1 1 2 1.6.9 1.7-3.1 5.6-1 7.5.6.9.7 2.3-.6 1.3-1.3z"/><path d="M1016.2 145.8c-.5.6-1 1.2-1.4 1.8-.4.7.7 1.3 1.1.6.3-.6.7-1.1 1.2-1.6.6-.5-.3-1.3-.9-.8zM1018.9 151c.8 0 .8-1.2 0-1.2s-.8 1.2 0 1.2zM1019.8 148.5c.8 0 .8-1.2 0-1.2s-.8 1.2 0 1.2zM1021.7 144c-.3.2-.5.5-.8.8-.6.6.3 1.4.9.9.3-.2.5-.5.8-.8.6-.6-.3-1.5-.9-.9zM1023.5 147.3c.8 0 .8-1.2 0-1.2s-.8 1.2 0 1.2zM1015.8 150.4c-.2.4-.4.8-.5 1.2-.1.3-.1.7.2.9.3.2.7.1.8-.2.2-.4.4-.8.5-1.2.1-.3.1-.7-.2-.9-.2-.2-.7-.1-.8.2zM1012.7 149.2c.8 0 .8-1.2 0-1.2s-.8 1.2 0 1.2zM1010.4 151.5c-.1.3-.2.5-.3.7-.4.7.7 1.3 1.1.6.2-.3.3-.7.4-1 .2-.8-1-1.1-1.2-.3zM1013.8 155.3c.8 0 .8-1.2 0-1.2s-.8 1.2 0 1.2zM1019.8 154.2c.8 0 .8-1.2 0-1.2s-.8 1.2 0 1.2zM1007.6 151.2c-.6.2-1.1.7-1.2 1.4-.2.8 1 1.1 1.2.3 0-.2.1-.4.4-.5.7-.3.3-1.5-.4-1.2zM1008.8 156c.8 0 .8-1.2 0-1.2s-.8 1.2 0 1.2zM1004.2 155.6c-.1.4-.3.8-.6 1.1-.2.3-.3.6 0 .9.2.2.7.3.9 0 .4-.5.7-1 .9-1.6.3-.8-.9-1.1-1.2-.4zM1025.6 144l1.2-.6c.7-.3.1-1.4-.6-1.1l-1.2.6c-.3.1-.4.6-.2.9.1.3.5.3.8.2zM1022.4 149.2c.8 0 .8-1.2 0-1.2s-.8 1.2 0 1.2zM1024.5 151.1c-.2.2-.4.5-.7.7-.5.6.3 1.5.9.9.2-.2.4-.5.7-.7.5-.6-.3-1.5-.9-.9zM1027.2 154.6c.8 0 .8-1.2 0-1.2s-.8 1.2 0 1.2zM1026.8 146.3c-.3.4-.5.8-.7 1.1-.4.7.7 1.3 1.1.6.2-.4.4-.8.7-1.1.4-.7-.7-1.3-1.1-.6zM1028.2 149.9c.1-.1.3-.1.4-.2.3-.1.5-.4.4-.8-.1-.3-.4-.6-.8-.4-.1.1-.3.1-.4.2-.3.1-.5.4-.4.8.1.3.5.5.8.4zM1030.9 144.9c0-.2.1-.3.3-.4.6-.5-.3-1.4-.9-.9-.3.3-.5.6-.6 1-.2.8 1 1.1 1.2.3zM1031.7 148c.4-.3.7-.7 1.1-1 .6-.5-.3-1.4-.9-.9-.4.3-.7.7-1.1 1-.6.5.3 1.4.9.9zM1022.6 151.9c.8 0 .8-1.2 0-1.2s-.8 1.2 0 1.2zM1021.8 154.4l-.6.9c-.5.7.6 1.3 1.1.6l.6-.9c.4-.6-.7-1.3-1.1-.6zM1029.2 152.2c.8 0 .8-1.2 0-1.2s-.8 1.2 0 1.2zM1034.1 144.7c.5-.3 1-.7 1.4-1.1.6-.5-.3-1.4-.9-.9l-1.2.9c-.6.4.1 1.5.7 1.1zM1019 145.4c.8 0 .8-1.2 0-1.2s-.8 1.2 0 1.2zM1031.7 148.7c-.1.1-.2.3-.3.4-.3.2-.4.5-.2.9.2.3.6.4.8.2.3-.2.6-.5.7-.8.5-.8-.6-1.4-1-.7zM1025.7 155.9c0 .1 0 .1-.1.2-.3.2-.2.7 0 .9.3.3.6.2.9 0 .3-.3.5-.7.5-1.1-.1-.8-1.3-.8-1.3 0z"/><path class="st7" d="M1004.5 154c-2.6-2.6-3.5-7.2-1.7-10.5 2.5-4.6 8.3-.4 10.4 2.1.8.9 2.1-.4 1.3-1.3-3.2-3.7-8.6-6.6-12.8-2.5-3.5 3.4-1.7 10.5 1.3 13.5 1 .8 2.3-.5 1.5-1.3zM1044.3 145.4c2.2-2.7 5.1-4.3 8.5-4.6 5.7-.5 4.9 8.7 2.6 11.7-.7.9.6 2.3 1.3 1.3 1.7-2.2 2.3-4.4 2.2-7.2 0-2-.4-5.3-2.2-6.6-4.4-3.1-10.9.5-13.8 4-.6 1 .7 2.3 1.4 1.4z"/><path d="M267.4 141.6c-.5.2-1 .4-1.5.4l.2 2c.7-.1 1.4-.3 2-.6l-.7-1.8zm4.1-3.1c-.4.4-1 .9-1.4 1.2l1.3 1.5c.5-.4.9-.8 1.4-1.2l-1.3-1.5zm3.8-1.5c-.4-.2-.7-.2-1-.2-.3.1-.6.2-.8.3-.5.3-1.1.8-1.9 1.4l1.3 1.5c.7-.6 1.2-1 1.5-1.2l.2-.1s-.2 0-.3-.1l1-1.6zm2.2 5.2c-.7.4-1.2.6-1.6.7-.3.1-.4 0-.3 0l-1.1 1.7c.5.4 1.2.4 1.8.2.6-.1 1.3-.4 2.1-.9l-.9-1.7zm2.6-1.5c-.9.5-1.8 1-2.6 1.5l1 1.8c.9-.5 1.8-1 2.6-1.5l-1-1.8zm10.7-5.8c-1.8.9-3.6 1.9-5.4 2.9l1 1.8c1.8-1 3.5-1.9 5.3-2.8l-.9-1.9zm10.9-5.3c-1.9.8-3.7 1.7-5.5 2.6l.9 1.8c1.8-.9 3.6-1.7 5.4-2.6l-.8-1.8zm11.4-4.5c-1.9.6-3.8 1.3-5.7 2.1l.7 1.9c1.9-.7 3.7-1.4 5.6-2.1l-.6-1.9zm11.8-3.1c-2 .4-4 .8-6 1.3l.5 1.9c1.9-.5 3.9-.9 5.8-1.3l-.3-1.9zm12.2-1.3c-2.1 0-4.1.2-6.1.4l.2 2c2-.2 3.9-.3 6-.4l-.1-2zm12.2.9c-2.1-.3-4.1-.6-6.1-.7l-.1 2c2 .1 3.9.4 5.9.7l.3-2zm9 2c-1-.3-2-.6-3-.8l-.5 1.9c1 .2 1.9.5 2.9.8l.6-1.9zm2.8.9c-1-.3-1.9-.6-2.9-.9l-.6 1.9c.9.3 1.9.6 2.9.9l.6-1.9zm11.4 4c-1.9-.7-3.8-1.4-5.6-2.1l-.7 1.9c1.9.6 3.7 1.4 5.6 2.1l.7-1.9zm11 4.9c-1.8-.9-3.6-1.7-5.5-2.5l-.8 1.8c1.8.8 3.6 1.6 5.4 2.5l.9-1.8zm10.7 5.7c-1.7-1-3.5-2.1-5.2-3l-1 1.8c1.8.9 3.5 1.9 5.1 3l1.1-1.8zm9.9 7c-1.5-1.2-3.2-2.5-4.9-3.6l-1.1 1.6c1.6 1.1 3.2 2.3 4.7 3.6l1.3-1.6zm8.6 8.6c-1.2-1.6-2.6-3.1-4.1-4.5l-1.4 1.4c1.4 1.4 2.8 2.9 4 4.3l1.5-1.2zm6.1 10.6c-.6-1.9-1.5-3.8-2.6-5.6l-1.7 1c1 1.7 1.8 3.5 2.4 5.3l1.9-.7zm1 12.3c.3-2.1.4-4.2.2-6.2l-2 .2c.2 1.9.1 3.8-.2 5.7l2 .3zm-2.9 8.8c.5-.9.9-1.9 1.3-2.8l-1.9-.7c-.4.9-.8 1.8-1.2 2.6l1.8.9zm-1.6 3c.5-1 1-2 1.6-3l-1.8-.9c-.5 1-1 2-1.5 2.9l1.7 1zm-7.3 11.2c1.4-1.7 2.7-3.6 4-5.5l-1.7-1.1c-1.2 1.9-2.5 3.7-3.8 5.3l1.5 1.3zm-10.9 8.3c2.2-.8 4.2-2 6-3.5l-1.2-1.6c-1.7 1.4-3.5 2.4-5.5 3.2l.7 1.9zm-10.3 1c1.2.2 2.4.3 3.5.3v-2c-1 0-2.1-.1-3.2-.2l-.3 1.9zm-3.4-.7c1.1.3 2.3.6 3.5.8l.3-2c-1.1-.2-2.2-.4-3.2-.7l-.6 1.9zm-11.9-7.5c1.6 1.7 3.4 3.3 5.4 4.5l1.1-1.7c-1.9-1.2-3.5-2.6-5-4.2l-1.5 1.4zm-6.4-12.4c.5 2.3 1.3 4.6 2.4 6.6l1.8-.9c-1-1.9-1.7-4-2.2-6.1l-2 .4zm-.1-10.5c-.2 1.2-.4 2.3-.4 3.5l2 .1c.1-1.1.2-2.2.4-3.2l-2-.4zm1-3.2c-.5 1-.8 2.1-1 3.2l2 .4c.2-.9.5-1.8.9-2.8l-1.9-.8zm7.6-10.3c-1.5 1.4-2.9 3-4.3 4.8l1.6 1.2c1.3-1.6 2.7-3.2 4.1-4.6l-1.4-1.4zm7.9-5.4-.6-.8-.1.1c-.1.1-.3.2-.5.4-.4.3-1.1.8-1.8 1.4l1.2 1.6c.7-.6 1.3-1.1 1.8-1.4.2-.2.4-.3.5-.4.1 0 .1-.1.1-.1-.1.1-.1.1-.6-.8zm2.6-1.8c-1 .3-1.7.5-2.2.7-.2.1-.5.1-.6.2-.1 0-.1 0-.1.1l.3.9.3.9s.1 0 .1-.1c.1 0 .3-.1.6-.2.5-.2 1.2-.4 2.2-.7l-.6-1.8zm12.1-3.4c-2.2.6-4.2 1.1-6 1.6l.5 1.9c1.8-.5 3.8-1 6-1.6l-.5-1.9zm12.2-2.8c-2.1.4-4.1.9-6.1 1.3l.5 1.9c1.9-.4 4-.9 6.1-1.3l-.5-1.9zm12.3-2.2c-2.1.3-4.1.6-6.2 1l.4 2c2-.4 4-.7 6.1-1l-.3-2zm12.5-1.4c-2.1.1-4.2.4-6.2.6l.2 2c2-.2 4.1-.4 6.2-.6l-.2-2zm12.5-.3c-2.1-.1-4.2-.1-6.3 0v2c2.1-.1 4.1 0 6.2 0l.1-2zm9.4 1c-1-.2-2.1-.3-3.1-.5l-.2 2c1 .1 2 .3 3 .4l.3-1.9zm3.1.6-3-.6-.3 2 3 .6.3-2zM470 153c-2-.7-3.9-1.4-5.9-1.9l-.6 1.9c1.9.6 3.8 1.2 5.7 1.9l.8-1.9zm11.4 4.9c-1.9-.9-3.7-1.8-5.6-2.6l-.8 1.8c1.9.8 3.7 1.6 5.5 2.5l.9-1.7zm10.8 5.8c-1.8-1-3.5-2.1-5.4-3l-1 1.8c1.8 1 3.5 2 5.3 3l1.1-1.8zm10.3 6.6c-1.7-1.1-3.4-2.3-5.1-3.4l-1.1 1.7c1.7 1.1 3.4 2.2 5.1 3.4l1.1-1.7zm9.9 7.3c-1.6-1.2-3.2-2.5-4.9-3.7l-1.2 1.6c1.7 1.2 3.3 2.4 4.9 3.7l1.2-1.6zm9.5 7.8c-1.5-1.3-3-2.6-4.7-4l-1.3 1.5c1.6 1.4 3.2 2.7 4.6 4l1.4-1.5zm8.8 8.6c-1.3-1.4-2.7-2.8-4.3-4.4L525 191c1.6 1.5 3 3 4.2 4.3l1.5-1.3zm5.7 7.6c-.3-.8-.9-1.7-1.7-2.8l-1.6 1.2c.8 1 1.2 1.8 1.5 2.4l1.8-.8zm-268.2-58.1c.5-.2.7-.8.5-1.3-.2-.5-.8-.7-1.3-.5l.8 1.8zm2-3.8c-.4.4-.5 1-.1 1.4s1 .5 1.4.1l-1.3-1.5zm4.1-1c.5.3 1.1.1 1.4-.4.3-.5.1-1.1-.4-1.4l-1 1.8zm1.3 4.2c-.5-.3-1.1-.2-1.4.3-.3.5-.2 1.1.3 1.4l1.1-1.7zm5.5-.5c.5-.3.7-.9.4-1.4s-.9-.7-1.4-.4l1 1.8zm4.3-4.6c-.5.3-.7.9-.4 1.4s.9.7 1.4.4l-1-1.8zm6.3-1.1c.5-.3.7-.9.4-1.4s-.9-.7-1.4-.4l1 1.8zm4.5-4.5c-.5.2-.7.8-.5 1.3s.8.7 1.3.5l-.8-1.8zm6.3-.8c.5-.2.7-.8.5-1.3s-.8-.7-1.3-.5l.8 1.8zm4.8-4.2c-.5.2-.8.8-.6 1.3.2.5.8.8 1.3.6l-.7-1.9zm6.4-.2c.5-.2.8-.7.6-1.3-.2-.5-.7-.8-1.3-.6l.7 1.9zm5.2-3.6c-.5.1-.9.7-.7 1.2s.7.8 1.2.7l-.5-1.9zm6.3.6c.5-.1.9-.6.8-1.2-.1-.5-.6-.9-1.2-.8l.4 2zm5.8-2.9c-.5.1-1 .6-.9 1.1.1.6.5.9 1.1.9l-.2-2zm6.1 1.6c.5 0 1-.5 1-1 0-.6-.5-1-1-1v2zm6.1-1.8c-.5 0-1 .4-1.1.9s.4 1 .9 1.1l.2-2zm5.8 2.7c.5.1 1.1-.3 1.1-.8s-.3-1.1-.8-1.2l-.3 2zm6.3-.8c-.5-.1-1.1.2-1.2.7s.2 1.1.7 1.2l.5-1.9zm5.2 3.6c.5.2 1.1-.1 1.2-.7.2-.5-.1-1.1-.7-1.2l-.5 1.9zm6.4 0c-.5-.2-1.1.1-1.3.6-.2.5.1 1.1.6 1.3l.7-1.9zm4.9 4c.5.2 1.1-.1 1.3-.6.2-.5 0-1.1-.6-1.3l-.7 1.9zm6.3.4c-.5-.2-1.1 0-1.3.5-.2.5 0 1.1.5 1.3l.8-1.8zm4.6 4.4c.5.2 1.1 0 1.3-.5s0-1.1-.5-1.3l-.8 1.8zm6.2.9c-.5-.3-1.1-.1-1.4.4-.3.5-.1 1.1.4 1.4l1-1.8zm4.2 4.8c.5.3 1.1.1 1.4-.3s.1-1.1-.3-1.4l-1.1 1.7zm6.1 1.6c-.5-.3-1.1-.2-1.4.2-.3.4-.2 1.1.2 1.4l1.2-1.6zm3.6 5.2c.4.4 1.1.3 1.4-.1.4-.4.3-1.1-.1-1.4l-1.3 1.5zm5.8 2.4c-.4-.4-1-.4-1.4 0-.4.4-.4 1 0 1.4l1.4-1.4zm2.6 5.8c.4.4 1 .5 1.4.1s.5-1 .1-1.4l-1.5 1.3zm5 3.8c-.3-.5-.9-.6-1.4-.4-.5.3-.6.9-.4 1.4l1.8-1zm.7 6.3c.2.5.7.8 1.3.6.5-.2.8-.7.6-1.3l-1.9.7zm3.2 5.4c0-.6-.5-1-1.1-.9s-1 .5-.9 1.1l2-.2zm-2.2 5.9c-.1.6.3 1.1.8 1.1s1.1-.3 1.1-.8l-1.9-.3zm.3 6.3c.2-.5 0-1.1-.6-1.3-.5-.2-1.1 0-1.3.6l1.9.7zm-4.6 4.8c-.3.5-.1 1.1.4 1.4.5.3 1.1.1 1.4-.4l-1.8-1zm-1.7 6.8c.3-.5.2-1.1-.3-1.4s-1.1-.2-1.4.3l1.7 1.1zm-5.5 4.2c-.4.4-.3 1.1.1 1.4.4.4 1.1.3 1.4-.1l-1.5-1.3zm-3.3 6.1c.4-.3.5-1 .2-1.4-.3-.4-1-.5-1.4-.2l1.2 1.6zm-6.7 1.6c-.5.2-.8.8-.6 1.3s.8.8 1.3.6l-.7-1.9zm-6.1 3.1c.5 0 1-.4 1-1s-.5-1-1-1v2zm-6.3-3c-.5-.2-1.1.1-1.2.7-.2.5.1 1.1.7 1.2l.5-1.9zm-7-1c.5.3 1.1.2 1.4-.3s.2-1.1-.3-1.4l-1.1 1.7zm-4-5.8c-.4-.4-1-.4-1.4-.1s-.4 1-.1 1.4l1.5-1.3zm-5.5-4.5c.2.5.9.7 1.4.4.5-.2.7-.9.4-1.4l-1.8 1zm-.4-7c-.1-.5-.6-.9-1.2-.8-.5.1-.9.6-.8 1.2l2-.4zm-2.5-6.6c0 .6.4 1 1 1.1s1-.4 1-.9l-2-.2zm3.2-5.9c.2-.5 0-1.1-.5-1.3s-1.1 0-1.3.5l1.8.8zm1.6-6.4c-.3.4-.3 1.1.2 1.4s1.1.3 1.4-.2l-1.6-1.2zm5.6-3.3c.4-.4.4-1 0-1.4-.4-.4-1-.4-1.4 0l1.4 1.4zm3.4-5.6c-.4.4-.5 1-.1 1.4s1 .5 1.4.1l-1.3-1.5zm6.3-1.1c.5-.2.8-.7.7-1.2s-.7-.8-1.2-.7l.5 1.9zm5.4-3.7c-.5.1-.8.7-.7 1.2.1.5.7.8 1.2.7l-.5-1.9zm6.6.3c.5-.1.9-.7.7-1.2-.1-.5-.7-.9-1.2-.7l.5 1.9zm5.6-3.4c-.5.1-.9.7-.8 1.2s.7.9 1.2.8l-.4-2zm6.5.7c.5-.1.9-.6.8-1.2s-.6-.9-1.2-.8l.4 2zm5.7-3.2c-.5.1-.9.6-.8 1.2.1.5.6.9 1.2.8l-.4-2zm6.5 1c.5-.1.9-.6.8-1.1-.1-.6-.6-.9-1.1-.8l.3 1.9zm5.9-2.8c-.5.1-.9.6-.9 1.1s.6.9 1.1.9l-.2-2zm6.4 1.4c.5 0 1-.5.9-1.1s-.5-1-1.1-.9l.2 2zm6.1-2.3c-.5 0-1 .5-1 1 0 .6.5 1 1 1v-2zm6.3 2c.5 0 1-.4 1-1s-.4-1-1-1v2zm6.3-1.5c-.5-.1-1 .3-1.1.9-.1.6.3 1.1.9 1.1l.2-2zm5.8 3c.5.1 1.1-.2 1.2-.8.1-.5-.2-1.1-.8-1.2l-.4 2zm6.4-.4c-.5-.2-1.1.1-1.2.7-.2.5.1 1.1.7 1.2l.5-1.9zm5.1 3.8c.5.2 1.1-.1 1.3-.6s-.1-1.1-.6-1.3l-.7 1.9zm6.5.4c-.5-.2-1.1 0-1.3.5s0 1.1.5 1.3l.8-1.8zm4.7 4.4c.5.2 1.1 0 1.3-.5s0-1.1-.5-1.3l-.8 1.8zm6.3 1c-.5-.3-1.1-.1-1.4.4s-.1 1.1.4 1.4l1-1.8zm4.3 4.7c.5.3 1.1.1 1.4-.4.3-.5.1-1.1-.4-1.4l-1 1.8zm6.3 1.5c-.5-.3-1.1-.2-1.4.3-.3.5-.2 1.1.3 1.4l1.1-1.7zm4 5.1c.5.3 1.1.2 1.4-.3s.2-1.1-.3-1.4l-1.1 1.7zm6.1 1.9c-.5-.3-1.1-.2-1.4.2s-.2 1.1.2 1.4l1.2-1.6zm3.7 5.3c.4.3 1.1.3 1.4-.2.3-.4.3-1.1-.2-1.4l-1.2 1.6zm6 2.2c-.4-.4-1-.3-1.4.1-.3.4-.3 1.1.1 1.4l1.3-1.5zm3.3 5.5c.4.4 1 .3 1.4-.1s.3-1-.1-1.4l-1.3 1.5zm5.9 2.7c-.4-.4-1-.4-1.4 0s-.4 1 0 1.4l1.4-1.4zm2.8 5.8c.4.4 1 .4 1.4.1.4-.4.4-1 0-1.4l-1.4 1.3zm5.5 3.4c-.3-.4-1-.5-1.4-.2-.5.3-.5.9-.2 1.4l1.6-1.2zm-.1 3.5c.2.5.8.8 1.3.5s.8-.8.5-1.3l-1.8.8zM455 149.9l-.2 1 .2-1zm-73.5 10-.3-.9c-.1 0-.2.1-.3.1l.6.8zm-15.5 19-1-.2 1 .2zm21 30 .1-1-.1 1zm29-23-.9-.5.9.5zm-58-61.3.3-1-.3 1zm-80 18.5-.5-.9.5.9zm-5.8-3.8-.7-.8.7.8zm-6.2 2.8c-.5.1-.9.6-.9 1.1.1.6.6.9 1.1.9l-.2-2z"/><circle class="st3" cx="243.5" cy="175.4" r="56.5"/><defs><circle id="SVGID_00000122692602968138801540000004780376905355367606_" cx="243.5" cy="175.4" r="56.5"/></defs><clipPath id="SVGID_00000170237032745144057900000016815613086686682003_"><use xlink:href="#SVGID_00000122692602968138801540000004780376905355367606_" style="overflow:visible"/></clipPath><path style="clip-path:url(#SVGID_00000170237032745144057900000016815613086686682003_);fill:#18292d" d="M243.5 120.9c30.1 0 54.5 24.4 54.5 54.5h4c0-32.3-26.2-58.5-58.5-58.5v4zM189 175.4c0-30.1 24.4-54.5 54.5-54.5v-4c-32.3 0-58.5 26.2-58.5 58.5h4zm54.5 54.5c-30.1 0-54.5-24.4-54.5-54.5h-4c0 32.3 26.2 58.5 58.5 58.5v-4zm54.5-54.5c0 30.1-24.4 54.5-54.5 54.5v4c32.3 0 58.5-26.2 58.5-58.5h-4z"/><path class="st11" d="m213.2 199.3-.1-.1zM231.8 150.2h.1zM215.3 201.9l.2.2-.2-.2zM213.9 200.2c.2.2.4.4.5.6-.1-.1-.3-.3-.5-.6zM213.2 199.3c.1.2.3.4.4.6-.1-.2-.3-.4-.4-.6zM214.4 200.9c.1.1.1.2.2.3 0-.1-.1-.2-.2-.3zM213.6 199.9c.1.1.2.2.3.4-.1-.2-.2-.3-.3-.4zM234.9 149.3c.1 0 .1 0 .2-.1-.1 0-.1.1-.2.1zM249.2 147.5zM243.9 147.7c1.8-.1 3.5-.2 5.2-.1-1.7-.1-3.4-.1-5.2.1zM235.1 149.2c.5-.1 1.1-.3 1.6-.4-.6.2-1.1.3-1.6.4zM242.3 147.8c.5-.1 1-.1 1.5-.2-.5.1-1 .2-1.5.2zM242.1 147.9l.2-.1zM281.7 182v.3-.3zM280.9 186.2c.1-.4.2-.9.3-1.4-.1.5-.2 1-.3 1.4zM281.8 181v.2-.2zM280.9 172c.1.3.2.6.2 1 0-.3-.1-.6-.2-1zM280.9 186.2zM281.7 176v.2-.2zM225.8 152.7c-.2.1-.5.3-.8.4.3-.1.5-.3.8-.4zM226.2 152.4c-.2.1-.3.2-.5.3.2-.1.4-.2.5-.3zM210.7 195.5c-.1-.1-.1-.2-.2-.4.1.1.1.2.2.4zM280.9 172zM226.5 152.3c-.1 0-.1.1-.2.1 0 0 .1 0 .2-.1zM227.1 152l-.6.3.6-.3zM222.1 155.1c1-.7 2-1.4 3-2-1 .6-2 1.3-3 2z"/><path class="st12" d="M232.2 157.4c.3 1.3.9 2.6 2 3.4 1 .8 2.8 1.8 2.9 0 .2-2.1-.3-4.3-.1-6.4.2-2 .7-3.9 1.4-5.8-2.2.4-4.4 1-6.6 1.8 0 2.2-.2 4.6.4 7z"/><defs><path id="SVGID_00000098933464936541790090000000299762895643840135_" d="M232.2 157.4c.3 1.3.9 2.6 2 3.4 1 .8 2.8 1.8 2.9 0 .2-2.1-.3-4.3-.1-6.4.2-2 .7-3.9 1.4-5.8-2.2.4-4.4 1-6.6 1.8 0 2.2-.2 4.6.4 7z"/></defs><clipPath id="SVGID_00000145761734871193147000000011775783974017682875_"><use xlink:href="#SVGID_00000098933464936541790090000000299762895643840135_" style="overflow:visible"/></clipPath><path style="clip-path:url(#SVGID_00000145761734871193147000000011775783974017682875_)" d="m231.7 158.2.9-1.8-.9 1.8zm-.9-7.9v3.6c0 1.2.1 2.5.4 3.8l1.9-.4c-.2-1.1-.3-2.2-.3-3.3v-3.6l-2-.1zm7.3-2.8c-2.2.4-4.5 1.1-6.7 1.8l.6 1.9c2.1-.7 4.3-1.3 6.5-1.7l-.4-2zm-.1 6.9c.2-1.9.7-3.8 1.3-5.6l-1.9-.6c-.6 1.9-1.2 3.9-1.4 6l2 .2zm0 6.5c.1-1.2 0-2.3 0-3.4-.1-1.1-.1-2.1 0-3.1l-2-.2c-.1 1.2-.1 2.3 0 3.4s.1 2.1 0 3.1l2 .2zm-4.5.6c.5.4 1.4 1 2.2 1.1.4.1 1 .1 1.6-.2.5-.4.8-1 .8-1.6l-2-.2c0 .3-.1.2 0 .1s.2 0 0-.1c-.1 0-.4-.1-.6-.3-.3-.1-.5-.3-.7-.5l-1.3 1.7zm-2.3-3.9c.3 1.4 1 2.9 2.3 4l1.2-1.6c-.8-.6-1.3-1.6-1.6-2.8l-1.9.4zm1-.2-1 .2.1.4.4.2.5-.8zm-.4-7.2-.3-.9-.7.2v.8l1-.1zm6.5-1.7.9.3.6-1.6-1.7.3.2 1zm-1.3 5.8-1-.1 1 .1zm0 6.5-1-.1 1 .1zm-2.9 0-.6.8.6-.8zm-1.9-3.4 1-.2-.1-.4-.4-.2-.5.8z"/><path class="st12" d="M246.3 160c.2-.1.2-.9.2-1.1.2-2.1-.2-4.2.4-6.3.5-1.8 1.3-3.5 2.3-5-2.4-.1-4.7 0-7.1.3.1 2.6-.1 5.2.6 7.7.3 1.3.8 2.6 1.8 3.5.2.1 1.4 1.1 1.8.9z"/><defs><path id="SVGID_00000001625717526125172110000003229702539253678489_" d="M246.3 160c.2-.1.2-.9.2-1.1.2-2.1-.2-4.2.4-6.3.5-1.8 1.3-3.5 2.3-5-2.4-.1-4.7 0-7.1.3.1 2.6-.1 5.2.6 7.7.3 1.3.8 2.6 1.8 3.5.2.1 1.4 1.1 1.8.9z"/></defs><clipPath id="SVGID_00000111169063371199101710000012214384198351602060_"><use xlink:href="#SVGID_00000001625717526125172110000003229702539253678489_" style="overflow:visible"/></clipPath><path style="clip-path:url(#SVGID_00000111169063371199101710000012214384198351602060_)" d="m245.9 160.9.9-1.8-.9 1.8zm-2.1-1.1c.1.1.5.5 1 .7.2.1.5.3.8.4.1.1.3.1.5.1s.5 0 .8-.2l-1.1-1.7c.2-.1.4-.1.4-.1h.1c-.1 0-.2-.1-.4-.2-.3-.2-.6-.5-.7-.6l-1.4 1.6zm-2.1-4c.3 1.4.9 2.9 2.1 4l1.3-1.5c-.8-.7-1.2-1.7-1.5-3l-1.9.5zm-.6-7.9c.1 2.4-.1 5.2.6 7.9l1.9-.5c-.6-2.4-.4-4.8-.5-7.5l-2 .1zm0 0 2-.1-2 .1zm8.2-1.4c-2.4-.1-4.9 0-7.3.3l.2 2c2.3-.3 4.7-.4 7-.3l.1-2zm-1.4 6.3c.4-1.7 1.2-3.3 2.2-4.7l-1.6-1.2c-1.1 1.6-2 3.4-2.5 5.4l1.9.5zm-.3 6.2c.1-1.1.1-2.3.1-3.3s0-2 .3-2.9l-1.9-.5c-.3 1.2-.3 2.3-.3 3.4s.1 2.1-.1 3.1l1.9.2zm-.7 1.8c.4-.2.5-.6.5-.7.1-.2.1-.4.1-.5v-.6l-2-.2v.6-.1c0-.1.1-.2.2-.2l1.2 1.7zm-.6-.8.5-.9-.5-.3-.5.3.5.9zm-1.8-1-.7.7.7-.7zm-1.8-3.4-1 .2 1-.2zm-.6-7.7h1-1zm0 0-.1-1-.9.1.1.9h.9zm7.1-.4.8.6 1.1-1.5-1.9-.1v1zm-2.3 5-1-.2 1 .2zm-.3 6.4-1-.1 1 .1zm-.3 1.1-.5.9.5.3.5-.3-.5-.9z"/><path class="st12" d="M227.4 164.8c.2.2 1.3 1.2 1.6 1 .3-.2.1-.8.1-1.2-.3-2.7-1.3-5.3-1.6-8.1-.2-1.7-.1-3.3.2-4.8-1.7.8-3.7 1.9-5.7 3.4 0 2.4 1.4 5.1 2.8 6.9.8 1 1.6 1.9 2.6 2.8z"/><defs><path id="SVGID_00000086666088939947632200000000680700286691867027_" d="M227.4 164.8c.2.2 1.3 1.2 1.6 1 .3-.2.1-.8.1-1.2-.3-2.7-1.3-5.3-1.6-8.1-.2-1.7-.1-3.3.2-4.8-1.7.8-3.7 1.9-5.7 3.4 0 2.4 1.4 5.1 2.8 6.9.8 1 1.6 1.9 2.6 2.8z"/></defs><clipPath id="SVGID_00000113322724934676834480000016900629490982094996_"><use xlink:href="#SVGID_00000086666088939947632200000000680700286691867027_" style="overflow:visible"/></clipPath><path style="clip-path:url(#SVGID_00000113322724934676834480000016900629490982094996_)" d="m227.8 163.9-.9 1.8.9-1.8zm-3.8-1.3c.8 1 1.7 2.1 2.7 2.9l1.3-1.5c-.9-.7-1.7-1.6-2.4-2.6l-1.6 1.2zm-2.9-7.5c0 2.8 1.6 5.6 3 7.5l1.6-1.2c-1.3-1.8-2.6-4.2-2.6-6.3h-2zm6.3-4.3c-1.8.8-3.9 2-5.9 3.5l1.2 1.6c2-1.4 3.9-2.6 5.5-3.3l-.8-1.8zm1.1 5.6c-.1-1.6-.1-3.1.2-4.4l-1.9-.5c-.4 1.6-.4 3.3-.2 5.1l1.9-.2zm1.6 8c-.2-1.4-.5-2.8-.8-4.2-.3-1.3-.6-2.6-.8-3.9l-2 .2c.1 1.5.5 2.9.8 4.2.3 1.4.6 2.6.8 3.9l2-.2zm-.6 2.2c.4-.2.5-.6.6-.8.1-.2.1-.5.1-.6 0-.3-.1-.7-.1-.8l-2 .2V165.2c0 .1 0 .1 0 0s.1-.2.3-.4l1.1 1.8zm-2.8-1.1c.1.1.5.4.8.7.2.1.4.3.7.4.1.1.3.1.5.1s.5 0 .8-.2l-1.1-1.7c.2-.1.4-.1.5-.1h.1c-.1 0-.2-.1-.3-.2-.3-.2-.6-.5-.7-.6l-1.3 1.6zm.7-.7-.5.9 1.1-1.6-.6.7zm-2.6-2.8-.8.6.8-.6zm-2.7-6.9-.6-.8-.4.3v.5h1zm5.7-3.4 1 .2.5-1.9-1.8.8.3.9zm-.3 4.8-1 .1 1-.1zm1.6 8.1-1 .1 1-.1zm-.1 1.2-.5-.9.5.9zm-1.6-1 .5-.9-1.1 1.6.6-.7z"/><path class="st12" d="M272.9 169.7c-1.6.1-3.1.6-4.5 1.3-1.5.9-2.5 2-.3 2.9 2.7 1.1 5.8.4 8.6.8 1.8.2 3.5.8 5.1 1.5-.1-1.4-.4-2.8-.8-4.2-2.6-1.4-5.3-2.5-8.1-2.3z"/><defs><path id="SVGID_00000049192304334895224420000008165811182438701494_" d="M272.9 169.7c-1.6.1-3.1.6-4.5 1.3-1.5.9-2.5 2-.3 2.9 2.7 1.1 5.8.4 8.6.8 1.8.2 3.5.8 5.1 1.5-.1-1.4-.4-2.8-.8-4.2-2.6-1.4-5.3-2.5-8.1-2.3z"/></defs><clipPath id="SVGID_00000001623163995039518770000005410356374083024571_"><use xlink:href="#SVGID_00000049192304334895224420000008165811182438701494_" style="overflow:visible"/></clipPath><path style="clip-path:url(#SVGID_00000001623163995039518770000005410356374083024571_)" d="M281.4 171.1c-2.5-1.4-5.5-2.6-8.6-2.4l.1 2c2.6-.2 5.1.8 7.5 2.1l1-1.7zm1.3 5c-.2-1.5-.4-2.9-.8-4.4l-1.9.5c.4 1.4.6 2.7.8 4.1l1.9-.2zm-6.2-.4c1.7.2 3.2.8 4.9 1.4l.8-1.9c-1.7-.7-3.5-1.3-5.4-1.6l-.3 2.1zm-8.9-.8c1.5.6 3.1.7 4.6.7 1.6 0 2.9-.1 4.2.1l.3-2c-1.5-.2-3.1-.1-4.5-.1-1.5 0-2.7-.1-3.9-.6l-.7 1.9zm.3-4.7c-.4.2-.8.5-1.1.8-.3.3-.7.7-.8 1.2-.2.6-.1 1.2.3 1.7.3.4.9.8 1.5 1l.8-1.8c-.5-.2-.6-.4-.7-.4v.2-.1c0-.1.1-.1.2-.2.2-.2.5-.4.8-.6l-1-1.8zm4.9-1.4c-1.7.1-3.4.6-4.9 1.5l1 1.7c1.2-.7 2.7-1.1 4.1-1.2l-.2-2zm8.1 3.2 1-.2-.1-.4-.4-.2-.5.8zm.8 4.2-.4.9 1.6.6-.2-1.7-1 .2zm-5.1-1.5-.1 1 .1-1zm-8.6-.8-.4.9.4-.9zm.3-2.8-.5-.9.5.9zm4.6-1.4-.1-1 .1 1z"/><path class="st12" d="M218.8 185.8c-1.6-2.9-7.2 2.9-10.1 5.8.4 1 .9 2 1.4 2.9.2.3.4.6.6 1 1.2-1 2.4-1.9 3.5-2.7 1.9-1.5 6.1-4.2 4.6-7z"/><defs><path id="SVGID_00000092432553153797643560000005453433651956568201_" d="M218.8 185.8c-1.6-2.9-7.2 2.9-10.1 5.8.4 1 .9 2 1.4 2.9.2.3.4.6.6 1 1.2-1 2.4-1.9 3.5-2.7 1.9-1.5 6.1-4.2 4.6-7z"/></defs><clipPath id="SVGID_00000020370319316258431460000010081072732734897028_"><use xlink:href="#SVGID_00000092432553153797643560000005453433651956568201_" style="overflow:visible"/></clipPath><path style="clip-path:url(#SVGID_00000020370319316258431460000010081072732734897028_)" d="m219.3 184.9-.9 1.8.9-1.8zm-4.4 8.6c.8-.6 2.5-1.8 3.6-3 1.2-1.3 2.3-3.1 1.2-5.1l-1.8.9c.4.8.2 1.7-.9 2.8-1 1.1-2.4 2-3.4 2.8l1.3 1.6zm-3.5 2.7c1.1-1 2.3-1.8 3.5-2.7l-1.2-1.6c-1.1.8-2.4 1.8-3.6 2.8l1.3 1.5zm-2.1-1.2c.2.3.4.7.6 1l1.7-1c-.2-.3-.4-.6-.5-.9l-1.8.9zm-1.5-3c.4 1 .9 2 1.5 3l1.8-1c-.5-.9-1-1.9-1.4-2.8l-1.9.8zm11.9-6.7c-.3-.6-.7-1-1.3-1.2-.6-.2-1.1-.2-1.6-.1-1 .2-2.1.9-3.1 1.6-2.1 1.5-4.2 3.7-5.6 5.1l1.4 1.4c1.4-1.4 3.5-3.6 5.4-4.9 1-.7 1.8-1.1 2.4-1.3.3-.1.4 0 .5 0 .1 0 .1.1.2.2l1.7-.8zm-.9.5.9-.5-.1-.3-.3-.1-.5.9zm-4.6 6.9.6.8-.6-.8zm-3.5 2.8-.9.5.6 1 .9-.8-.6-.7zm-.5-1 .9-.5-.9.5zm-1.5-2.9-.7-.7-.5.5.3.6.9-.4zm10.1-5.8-.9.5.1.3.3.1.5-.9z"/><path class="st12" d="M224.7 191.6h-.2c-1.4.5-2.8.9-4.1 1.5-2.5 1.1-6.7 3-7.2 6.1 1 1.3 2 2.6 3.1 3.8 2.2-3.6 5.7-6.4 7.8-10.1.2-.4.5-.8.6-1.3z"/><defs><path id="SVGID_00000119091591217916933590000002907313956644972162_" d="M224.7 191.6h-.2c-1.4.5-2.8.9-4.1 1.5-2.5 1.1-6.7 3-7.2 6.1 1 1.3 2 2.6 3.1 3.8 2.2-3.6 5.7-6.4 7.8-10.1.2-.4.5-.8.6-1.3z"/></defs><clipPath id="SVGID_00000173883439066591606910000017159606730883696518_"><use xlink:href="#SVGID_00000119091591217916933590000002907313956644972162_" style="overflow:visible"/></clipPath><path style="clip-path:url(#SVGID_00000173883439066591606910000017159606730883696518_)" d="m223.7 191.9 1.9-.6-1.9.6zm1.3 1.5c.2-.3.6-.9.7-1.5l-1.9-.4c-.1.3-.2.5-.5 1l1.7.9zm-7.9 10.1c1-1.7 2.4-3.2 3.8-4.9 1.4-1.6 2.9-3.3 4-5.3l-1.7-1c-1 1.8-2.3 3.3-3.8 4.9-1.4 1.6-2.9 3.3-4 5.2l1.7 1.1zm-4.8-3.7c1 1.4 2.1 2.7 3.2 3.9l1.5-1.4c-1.1-1.2-2.1-2.4-3.1-3.7l-1.6 1.2zm7.6-7.6c-1.2.6-3 1.4-4.5 2.4s-2.9 2.5-3.3 4.4l2 .4c.2-1.1 1.1-2.2 2.5-3.1 1.3-.9 2.9-1.6 4.2-2.2l-.9-1.9zm4.2-1.5c-.7.2-1.3.4-2 .7-.7.2-1.4.5-2.1.8l.8 1.8c.6-.3 1.3-.5 1.9-.7.7-.2 1.4-.4 2.1-.7l-.7-1.9zm.7-.1h-.2c-.1 0-.2 0-.4.1l.6 1.9H224.5l.3-2zm-.1 1 .9-.3-1.1-3.5-.8 3.6 1 .2zm-.6 1.3-.9-.5.9.5zm-7.8 10.1-.7.7.9 1 .7-1.1-.9-.6zm-3.2-3.8-1-.2-.1.4.2.4.9-.6zm7.3-6.1.4.9-.4-.9zm4.1-1.5-.3-.9.3.9zm.2 0-.1 1 1.5.1-.4-1.4-1 .3z"/><path class="st12" d="M271.2 178.9c-1.2.2-2.6.6-3.6 1.2-1.9 1.3 0 2.8 1.5 3.2 2.5.8 5.2.6 7.8 1.3 1.4.4 2.8.9 4.1 1.6.3-.9.5-1.9.6-2.9l.3-2.4h-.1c-3.3-1.3-7.1-2.5-10.6-2z"/><defs><path id="SVGID_00000129170210240718073200000001688550569807465383_" d="M271.2 178.9c-1.2.2-2.6.6-3.6 1.2-1.9 1.3 0 2.8 1.5 3.2 2.5.8 5.2.6 7.8 1.3 1.4.4 2.8.9 4.1 1.6.3-.9.5-1.9.6-2.9l.3-2.4h-.1c-3.3-1.3-7.1-2.5-10.6-2z"/></defs><clipPath id="SVGID_00000104675835142621498010000010222914625098353823_"><use xlink:href="#SVGID_00000129170210240718073200000001688550569807465383_" style="overflow:visible"/></clipPath><path style="clip-path:url(#SVGID_00000104675835142621498010000010222914625098353823_)" d="m271.6 178-.9 1.8.9-1.8zm10.5 2.1c-3.3-1.4-7.3-2.7-11.1-2.2l.3 2c3.3-.4 6.9.6 10 2l.8-1.8zm0-.1-.7 1.9h.1l.6-1.9zm.4 3.6c.1-.8.2-1.7.3-2.5l-2-.1c0 .8-.1 1.5-.3 2.3l2 .3zm-.7 2.9c.3-1 .5-2 .7-3l-2-.3c-.2.9-.4 1.9-.6 2.8l1.9.5zm-5.3-.9c1.4.4 2.7.9 3.9 1.5l.9-1.8c-1.4-.7-2.8-1.3-4.3-1.7l-.5 2zm-7.8-1.3c1.4.4 2.8.6 4.1.7 1.3.1 2.6.2 3.7.6l.5-1.9c-1.4-.4-2.8-.5-4.1-.6-1.3-.1-2.5-.3-3.7-.6l-.5 1.8zm-1.7-5c-.6.4-1.1.9-1.2 1.6-.1.7.1 1.3.4 1.7.6.8 1.7 1.4 2.5 1.7l.6-1.9c-.6-.2-1.3-.6-1.5-.9-.1-.1-.1-.2-.1-.1 0 0 0-.1.4-.4l-1.1-1.7zm4-1.4c-1.3.2-2.9.6-4.1 1.4l1.1 1.7c.9-.6 2.1-.9 3.2-1.1l-.2-2zm.2 1-.5.9.3.1h.3l-.1-1zm10.5 2.1-.4.9.4-.9zm.1 0 1 .1.1-.8-.8-.2-.3.9zm-.3 2.4 1 .2-1-.2zm-.6 2.8-.5.9 1.1.6.3-1.2-.9-.3zm-4.1-1.6.3-1-.3 1zm-7.8-1.3.3-.9-.3.9zm-1.5-3.2.6.8-.6-.8zm3.7-1.2.5-.9-.3-.1h-.3l.1 1z"/><path class="st12" d="M254.6 184.3c-1.2-.6-2.5-.9-3.8-1.1.1 1.5-.5 4.3-4.1 8.1 0 0-5.3-2.6-6.1-3.4-.5-.5-.9-1.1-1.2-1.8-.9.7-1.9 1.6-2.7 2.5-.9 1-1.6 2.6-2.1 3.8-.8 2.1-.1 4.5 1 6.5 1.2 2.1 2.9 4 5.1 5 2.8 1.3 6 1.1 9 .3 2.4-.6 4.8-1.6 6.7-3.2 1.9-1.6 3.4-3.7 3.9-6.2.8-4.2-1.8-8.6-5.7-10.5z"/><path class="st7" d="M238.2 148.5h.1zM238.2 148.5l-1.5.3 1.5-.3z"/><path d="M256.5 172.6c-1.4-.7-2.1-2.7-1.5-4.1 1.1-2.5 4-1.2 4.6.8.7 2-.8 4.5-3.1 3.3zm3.9 22.3c-.5 2.4-2 4.6-3.9 6.2-1.9 1.6-4.3 2.5-6.7 3.2-3 .8-6.2.9-9-.3-2.2-1-3.9-2.9-5.1-5-1.1-2-1.8-4.4-1-6.5.4-1.3 1.2-2.8 2.1-3.8.8-.9 1.8-1.8 2.7-2.5-.1-.4-.2-.8-.2-1.2 0-1.1.6-2 1.3-2.6.7-.7 1.6-1.2 2.6-1.1s2 .7 2.4 1.8c.7-1.2 1.8-2.1 3-2.6.2-.1.4-.2.6-.1.3.1 1 .3 1.5 1.8.1.2.2.6.2 1.2 1.3.2 2.6.5 3.8 1.1 3.8 1.7 6.4 6.1 5.7 10.4zm-33.3-13.6c-1.4-.7-2.1-2.7-1.5-4.1 1.1-2.5 4-1.2 4.6.8.6 1.9-.9 4.5-3.1 3.3zm40.8-27.9c2.1-3.3 2.7-7.6 1.1-11.2-.3-.8-.8-1.5-1.4-2-1.2-1-2.8-1.3-4.3-1.5-1.3-.2-2.6-.4-3.9-.2-2.4.4-4.4 2.1-5.7 4.1-1 1.6-1.6 3.3-2.1 5.1-.8-.1-1.6-.1-2.4-.1-1.1 1.5-1.9 3.2-2.3 5-.5 2.1-.1 4.2-.4 6.3 0 .2 0 1-.2 1.1-.4.2-1.6-.8-1.8-.9-1-.9-1.5-2.2-1.8-3.5-.6-2.5-.5-5.1-.6-7.7-1.3.2-2.5.4-3.8.6-.6 1.9-1.1 3.8-1.4 5.8-.2 2.2.2 4.3.1 6.4-.2 1.8-1.9.8-2.9 0-1.1-.8-1.7-2.1-2-3.4-.5-2.3-.3-4.8-.4-7.1-1.2.4-2.4.8-3.5 1.3-.4.1-.7.3-1.1.5l.6-.3c-.4 1.5-.4 3.1-.2 4.8.3 2.8 1.3 5.4 1.6 8.1 0 .4.2 1-.1 1.2-.3.2-1.4-.8-1.6-1-1-.8-1.8-1.8-2.6-2.8-1.4-1.8-2.8-4.4-2.8-6.9-.7.5-1.5 1.1-2.2 1.7-2.7-2.7-6.6-4.1-10.3-3.6-2.9.3-5.9 2-6.6 4.8-.8 2.7.8 5.6 2.4 7.9 1.1 1.5 2.2 3 3.7 4.2-.8 1.6-1.4 3.3-1.9 4.9-2.1 6.3-.1 13.5 3.1 19.5-.5-.9-1-1.9-1.4-2.9 2.8-2.9 8.5-8.7 10.1-5.8 1.5 2.8-2.7 5.5-4.6 6.9-1.1.9-2.4 1.8-3.5 2.7.7 1.3 1.6 2.5 2.4 3.7.6-3 4.8-4.9 7.2-6.1 1.4-.6 2.7-1 4.1-1.5h.2c-.1.4-.4.9-.6 1.2-2.1 3.7-5.6 6.5-7.8 10.1 2.6 2.8 5.6 5.1 8.9 6.7 8.1 3.9 17.4 3.5 26 1.3 7-1.7 13.7-4.6 19.3-9.2 4.8-4 8.7-9.4 10.4-15.6-1.3-.7-2.6-1.2-4.1-1.6-2.5-.7-5.3-.5-7.8-1.3-1.5-.5-3.4-1.9-1.5-3.2 1-.7 2.4-1.1 3.6-1.2 3.5-.5 7.3.7 10.6 2.1h.1c.1-1.6.1-3.2-.1-4.8-1.6-.7-3.3-1.2-5.1-1.5-2.8-.4-6 .4-8.6-.8-2.2-.9-1.1-2 .3-2.9 1.4-.8 3-1.2 4.5-1.3 2.9-.2 5.6.8 8.1 2.2-1.9-7.1-6.7-14-13-18.3z" style="fill:#ec732e"/><defs><path id="SVGID_00000097485595244489564380000004279084381257475738_" d="M256.5 172.6c-1.4-.7-2.1-2.7-1.5-4.1 1.1-2.5 4-1.2 4.6.8.7 2-.8 4.5-3.1 3.3zm3.9 22.3c-.5 2.4-2 4.6-3.9 6.2-1.9 1.6-4.3 2.5-6.7 3.2-3 .8-6.2.9-9-.3-2.2-1-3.9-2.9-5.1-5-1.1-2-1.8-4.4-1-6.5.4-1.3 1.2-2.8 2.1-3.8.8-.9 1.8-1.8 2.7-2.5-.1-.4-.2-.8-.2-1.2 0-1.1.6-2 1.3-2.6.7-.7 1.6-1.2 2.6-1.1s2 .7 2.4 1.8c.7-1.2 1.8-2.1 3-2.6.2-.1.4-.2.6-.1.3.1 1 .3 1.5 1.8.1.2.2.6.2 1.2 1.3.2 2.6.5 3.8 1.1 3.8 1.7 6.4 6.1 5.7 10.4zm-33.3-13.6c-1.4-.7-2.1-2.7-1.5-4.1 1.1-2.5 4-1.2 4.6.8.6 1.9-.9 4.5-3.1 3.3zm40.8-27.9c2.1-3.3 2.7-7.6 1.1-11.2-.3-.8-.8-1.5-1.4-2-1.2-1-2.8-1.3-4.3-1.5-1.3-.2-2.6-.4-3.9-.2-2.4.4-4.4 2.1-5.7 4.1-1 1.6-1.6 3.3-2.1 5.1-.8-.1-1.6-.1-2.4-.1-1.1 1.5-1.9 3.2-2.3 5-.5 2.1-.1 4.2-.4 6.3 0 .2 0 1-.2 1.1-.4.2-1.6-.8-1.8-.9-1-.9-1.5-2.2-1.8-3.5-.6-2.5-.5-5.1-.6-7.7-1.3.2-2.5.4-3.8.6-.6 1.9-1.1 3.8-1.4 5.8-.2 2.2.2 4.3.1 6.4-.2 1.8-1.9.8-2.9 0-1.1-.8-1.7-2.1-2-3.4-.5-2.3-.3-4.8-.4-7.1-1.2.4-2.4.8-3.5 1.3-.4.1-.7.3-1.1.5l.6-.3c-.4 1.5-.4 3.1-.2 4.8.3 2.8 1.3 5.4 1.6 8.1 0 .4.2 1-.1 1.2-.3.2-1.4-.8-1.6-1-1-.8-1.8-1.8-2.6-2.8-1.4-1.8-2.8-4.4-2.8-6.9-.7.5-1.5 1.1-2.2 1.7-2.7-2.7-6.6-4.1-10.3-3.6-2.9.3-5.9 2-6.6 4.8-.8 2.7.8 5.6 2.4 7.9 1.1 1.5 2.2 3 3.7 4.2-.8 1.6-1.4 3.3-1.9 4.9-2.1 6.3-.1 13.5 3.1 19.5-.5-.9-1-1.9-1.4-2.9 2.8-2.9 8.5-8.7 10.1-5.8 1.5 2.8-2.7 5.5-4.6 6.9-1.1.9-2.4 1.8-3.5 2.7.7 1.3 1.6 2.5 2.4 3.7.6-3 4.8-4.9 7.2-6.1 1.4-.6 2.7-1 4.1-1.5h.2c-.1.4-.4.9-.6 1.2-2.1 3.7-5.6 6.5-7.8 10.1 2.6 2.8 5.6 5.1 8.9 6.7 8.1 3.9 17.4 3.5 26 1.3 7-1.7 13.7-4.6 19.3-9.2 4.8-4 8.7-9.4 10.4-15.6-1.3-.7-2.6-1.2-4.1-1.6-2.5-.7-5.3-.5-7.8-1.3-1.5-.5-3.4-1.9-1.5-3.2 1-.7 2.4-1.1 3.6-1.2 3.5-.5 7.3.7 10.6 2.1h.1c.1-1.6.1-3.2-.1-4.8-1.6-.7-3.3-1.2-5.1-1.5-2.8-.4-6 .4-8.6-.8-2.2-.9-1.1-2 .3-2.9 1.4-.8 3-1.2 4.5-1.3 2.9-.2 5.6.8 8.1 2.2-1.9-7.1-6.7-14-13-18.3z"/></defs><clipPath id="SVGID_00000098215900373107444630000008404925996460701835_"><use xlink:href="#SVGID_00000097485595244489564380000004279084381257475738_" style="overflow:visible"/></clipPath><path style="clip-path:url(#SVGID_00000098215900373107444630000008404925996460701835_)" d="m255.6 172.9 1.9-.6-1.9.6zm3.1-3.3c.2.6 0 1.4-.3 1.9-.2.2-.4.4-.6.4-.2 0-.5 0-.8-.2l-.9 1.8c.7.4 1.5.5 2.2.3.7-.2 1.3-.6 1.7-1.1.8-1 1.1-2.5.7-3.8l-2 .7zm-2.7-.7c.2-.4.4-.6.6-.7.2-.1.4-.1.7 0 .6.2 1.3.8 1.5 1.4l1.9-.6c-.4-1.4-1.6-2.4-2.9-2.8-.6-.2-1.4-.2-2.1.1-.7.3-1.2.9-1.6 1.7l1.9.9zm1 2.9c-.4-.2-.8-.7-1-1.2s-.2-1.2 0-1.6l-1.8-.8c-.4 1-.4 2.1 0 3.1.3.9 1 1.9 2 2.4l.8-1.9zm3 22.1.6 1.9-.6-1.9zm-5.8-8.7c3.5 1.7 5.9 5.8 5.2 9.5l2 .4c.9-4.8-2.1-9.6-6.3-11.7l-.9 1.8zm-3.5-1c1.2.1 2.4.5 3.5 1l.9-1.8c-1.3-.6-2.7-1-4.1-1.2l-.3 2zm.4 0-.6-1.9.6 1.9zm-1.5-1.9c.1.2.2.5.2 1l2-.1c0-.7-.2-1.2-.3-1.5l-1.9.6zm-.7-1.1s.1 0 .2.1.3.4.5 1l1.9-.6c-.3-.9-.6-1.5-1.1-1.9-.4-.4-.9-.6-1.2-.6l-.3 2zm0 0h.1-.1l.4-2c-.6-.1-1 .1-1.2.2l.8 1.8zm-2.6 2.3c.6-1 1.6-1.8 2.6-2.3l-.8-1.8c-1.4.6-2.6 1.7-3.4 3l1.6 1.1zm-3.2-1.3c.6 0 1.2.5 1.4 1.1l1.9-.6c-.5-1.5-1.9-2.4-3.3-2.5v2zm-1.9.8c.6-.6 1.3-.9 1.9-.9l.1-2c-1.4-.1-2.5.6-3.4 1.4l1.4 1.5zm-1 1.9c0-.7.4-1.3 1-1.9l-1.4-1.5c-.8.8-1.6 1.9-1.6 3.4h2zm.2.8c-.1-.3-.2-.6-.2-.8h-2c0 .6.1 1.1.3 1.5l1.9-.7zm-2.9 3.6c.8-.9 1.7-1.7 2.6-2.4l-1.2-1.6c-1 .8-2 1.7-2.9 2.6l1.5 1.4zm-1.9 3.5c.4-1.2 1.1-2.6 1.9-3.5L236 188c-1 1.1-1.8 2.9-2.3 4.2l1.9.6zm.9 5.6c-1-1.9-1.5-3.9-.9-5.6l-1.9-.7c-.9 2.5-.1 5.2 1.1 7.3l1.7-1zm4.7 4.6c-2-.9-3.6-2.6-4.7-4.6l-1.8 1c1.3 2.2 3.1 4.3 5.6 5.4l.9-1.8zm8.3.3c-2.9.7-5.8.9-8.3-.3l-.8 1.8c3.1 1.4 6.6 1.2 9.6.4l-.5-1.9zm6.3-3c-1.8 1.4-4 2.4-6.3 3l.5 1.9c2.5-.6 5-1.7 7.1-3.4l-1.3-1.5zm3.6-5.6c-.4 2.2-1.8 4.1-3.5 5.6l1.3 1.6c2.1-1.7 3.7-4.1 4.2-6.8l-2-.4zm-32.6-14.3.6 1.9-.6-1.9zm2.5-2.1c.2.6 0 1.4-.3 1.9-.2.2-.4.4-.6.4-.2 0-.4 0-.8-.2l-.9 1.8c.7.4 1.5.5 2.2.3.7-.2 1.3-.6 1.7-1.1.8-1 1.1-2.5.7-3.8l-2 .7zm-2.8-.7c.2-.4.4-.6.6-.7.2-.1.4-.1.7 0 .6.2 1.3.8 1.5 1.4l1.9-.6c-.4-1.4-1.6-2.4-2.9-2.8-.6-.2-1.4-.2-2.1.1-.7.3-1.2.9-1.6 1.7l1.9.9zm1 2.8c-.4-.2-.8-.7-1-1.3-.2-.6-.2-1.2 0-1.6l-1.8-.8c-.4 1-.4 2.1 0 3.1.3.9 1 1.9 2 2.4l.8-1.8zm39.4-26.7 1.9-.6-1.9.6zm15 18c-2-7.7-7-14.7-13.5-19.2l-1.1 1.6c6.1 4.2 10.8 10.8 12.7 18l1.9-.4zm-9-1c2.6-.2 5.1.7 7.5 2.1l1-1.7c-2.6-1.4-5.5-2.6-8.6-2.4l.1 2zm-4.1 1.2c1.2-.7 2.7-1.1 4.1-1.2l-.1-2c-1.7.1-3.4.6-4.9 1.5l.9 1.7zm-.4 1.1c-.5-.2-.6-.4-.7-.4v.2-.1c0-.1.1-.1.2-.2.2-.2.5-.4.8-.6l-1-1.7c-.4.2-.8.5-1.1.8-.3.3-.7.7-.8 1.2-.2.6-.1 1.2.3 1.7.3.4.9.8 1.5 1l.8-1.9zm8.3.7c-1.5-.2-3.1-.1-4.5-.1-1.5 0-2.7-.1-3.9-.6l-.8 1.8c1.5.6 3.1.7 4.6.7 1.6 0 2.9-.1 4.2.1l.4-1.9zm5.4 1.6c-1.7-.7-3.5-1.3-5.3-1.6l-.3 2c1.7.2 3.2.8 4.8 1.4l.8-1.8zm.7 5.8c.1-1.7.1-3.3-.1-5l-2 .2c.2 1.5.2 3.1.1 4.6l2 .2zm-1.4.8.7-1.9h-.1l-.6 1.9zm-10.1-2c3.3-.4 6.9.6 10 2l.8-1.8c-3.3-1.4-7.3-2.7-11.1-2.2l.3 2zm-3.2 1c.9-.6 2.1-.9 3.2-1.1l-.3-2c-1.3.2-2.9.6-4.1 1.4l1.2 1.7zm1.2 1.5c-.6-.2-1.3-.6-1.5-.9-.1-.1-.1-.2-.1-.1 0 0 0-.1.4-.4l-1.1-1.7c-.6.4-1.1.9-1.2 1.6-.1.7.1 1.3.4 1.7.6.8 1.7 1.4 2.5 1.7l.6-1.9zm7.8 1.3c-1.4-.4-2.8-.5-4.1-.6-1.3-.1-2.5-.3-3.7-.6l-.6 1.9c1.4.4 2.8.6 4.1.7 1.3.1 2.6.2 3.7.6l.6-2zm4.2 1.7c-1.4-.7-2.8-1.3-4.3-1.7l-.5 1.9c1.4.4 2.7.9 3.9 1.5l.9-1.7zm-10.2 17.2c5-4.1 8.9-9.7 10.7-16.1l-1.9-.5c-1.7 5.9-5.4 11.2-10.1 15.1l1.3 1.5zm-19.7 9.4c7.1-1.8 14-4.7 19.7-9.4l-1.3-1.5c-5.4 4.5-12 7.3-18.9 9l.5 1.9zm-26.6-1.4c8.4 4.1 18 3.6 26.7 1.4l-.5-1.9c-8.4 2.1-17.5 2.5-25.3-1.3l-.9 1.8zm-9.3-6.9c2.7 2.8 5.8 5.2 9.2 6.9l.9-1.8c-3.2-1.6-6.1-3.8-8.6-6.5l-1.5 1.4zm7.7-11.3c-1 1.8-2.3 3.3-3.8 4.9-1.4 1.6-2.9 3.3-4 5.2l1.7 1c1-1.7 2.4-3.2 3.8-4.9 1.4-1.6 2.9-3.3 4-5.3l-1.7-.9zm.5-1c-.1.3-.2.5-.5 1l1.7 1c.2-.3.6-.9.7-1.5l-1.9-.5zm1.1 1.2H224.5l.2-2h-.2c-.1 0-.2 0-.4.1l.7 1.9zm-4 1.4c.6-.3 1.3-.5 1.9-.7.7-.2 1.4-.4 2.1-.7l-.7-1.9c-.7.2-1.3.4-2 .7-.7.2-1.4.5-2.1.8l.8 1.8zm-6.7 5.4c.2-1.1 1.1-2.2 2.5-3.1 1.3-.9 2.9-1.6 4.2-2.2l-.8-1.8c-1.2.6-3 1.4-4.5 2.4s-2.9 2.5-3.3 4.4l1.9.3zm-4.3-3.5c.8 1.3 1.6 2.6 2.5 3.8l1.6-1.2c-.9-1.2-1.6-2.4-2.4-3.6l-1.7 1zm3.8-4c-1.1.8-2.4 1.8-3.6 2.8l1.3 1.5c1.1-1 2.3-1.8 3.5-2.7l-1.2-1.6zm4.3-5.6c.4.8.2 1.7-.9 2.8-1 1.1-2.4 2-3.4 2.8l1.2 1.6c.8-.6 2.5-1.8 3.6-3 1.2-1.3 2.3-3.1 1.2-5.1l-1.7.9zm-8.5 6c1.4-1.4 3.5-3.6 5.4-4.9 1-.7 1.8-1.1 2.4-1.3.3-.1.4 0 .5 0 .1 0 .1.1.2.2l1.8-.9c-.3-.6-.7-1-1.3-1.2-.6-.2-1.1-.2-1.6-.1-1 .2-2.1.9-3.1 1.6-2.1 1.5-4.2 3.7-5.6 5.1l1.3 1.5zm1.6 1.7c-.5-.9-1-1.9-1.4-2.8l-1.8.8c.4 1 .9 2 1.5 3l1.7-1zm-4.9-19.3c-2.2 6.7-.1 14.2 3.2 20.3l1.8-1c-3.2-5.8-5-12.7-3.1-18.7l-1.9-.6zm1.9-5c-.8 1.7-1.4 3.4-1.9 5l1.9.6c.5-1.5 1.1-3.2 1.9-4.8l-1.9-.8zm-3.5-3.2c1.1 1.6 2.3 3.1 3.8 4.4l1.3-1.5c-1.3-1.1-2.4-2.6-3.5-4.1l-1.6 1.2zm-2.6-8.8c-.9 3.2.9 6.4 2.5 8.8l1.6-1.1c-1.6-2.4-2.9-4.8-2.2-7.1l-1.9-.6zm7.5-5.5c-3.1.4-6.5 2.1-7.5 5.5l1.9.5c.6-2.2 3.1-3.8 5.8-4.1l-.2-1.9zm11.1 3.9c-2.9-2.9-7.1-4.4-11.1-3.9l.2 2c3.4-.4 7 .9 9.5 3.4l1.4-1.5zm.9-1.8c-.8.6-1.5 1.1-2.2 1.8l1.3 1.6c.7-.6 1.4-1.2 2.2-1.7l-1.3-1.7zm4.2 7.1c-1.3-1.8-2.6-4.2-2.6-6.3h-2c0 2.8 1.6 5.6 3 7.5l1.6-1.2zm2.4 2.6c-.9-.7-1.7-1.6-2.4-2.6l-1.6 1.2c.8 1 1.7 2.1 2.7 2.9l1.3-1.5zm.5.9c.2-.1.4-.1.5-.1h.1c-.1 0-.2-.1-.3-.2-.3-.2-.6-.5-.7-.6l-1.3 1.5c.1.1.5.4.8.7.2.1.4.3.7.4.1.1.3.1.5.1s.5 0 .8-.2l-1.1-1.6zm-.4-.2V165.3c0 .1 0 .1 0 0s.1-.2.3-.4l1 1.7c.4-.2.5-.6.6-.8.1-.2.1-.5.1-.6 0-.3-.1-.7-.1-.8l-1.9.3zm-1.6-8.1c.1 1.5.5 2.9.8 4.2.3 1.4.6 2.6.8 3.9l2-.2c-.2-1.4-.5-2.8-.8-4.2-.3-1.3-.6-2.6-.8-3.9l-2 .2zm.3-5.1c-.4 1.6-.4 3.3-.2 5.1l2-.2c-.1-1.6-.1-3.1.2-4.4l-2-.5zm.7 1.4.6-.3-.8-1.8c-.2.1-.5.2-.7.3l.9 1.8zm.4-2.3c-.4.1-.8.3-1.2.5l.9 1.8c.4-.2.7-.3 1.1-.5l-.8-1.8zm3.5-1.3c-1.2.4-2.4.8-3.6 1.3l.7 1.9c1.1-.4 2.3-.9 3.5-1.2l-.6-2zm1.7 7.8c-.2-1.1-.3-2.2-.4-3.3v-3.6l-2 .1c.1 1.2 0 2.3 0 3.6 0 1.2.1 2.5.4 3.8l2-.6zm1.6 2.9c-.8-.6-1.3-1.6-1.6-2.8l-1.9.4c.3 1.4 1 2.9 2.3 4l1.2-1.6zm1.3.7c0 .3-.1.2 0 .1.2-.1.3 0 0-.1-.1 0-.3 0-.6-.2-.3-.1-.5-.3-.7-.5l-1.2 1.6c.5.4 1.4 1 2.2 1.1.4.1 1 .1 1.6-.2.5-.4.8-1 .8-1.6l-2.1-.2zm0-6.5c-.1 1.2-.1 2.3 0 3.4s.1 2.1 0 3.1l2 .2c.1-1.2 0-2.3 0-3.4-.1-1.1-.1-2.1 0-3.1l-2-.2zm1.4-6c-.6 1.9-1.2 3.9-1.4 6l2 .2c.2-1.9.7-3.8 1.3-5.6l-1.9-.6zm4.6-1.3-3.9.6.4 2c1.2-.2 2.5-.4 3.7-.6l-.2-2zm1.1.9-2 .2 2-.2zm.5 7.5c-.6-2.4-.4-4.8-.5-7.5l-2 .1c.1 2.4-.1 5.2.6 7.9l1.9-.5zm1.6 3c-.8-.7-1.2-1.7-1.5-3l-1.9.5c.3 1.4.9 2.9 2.1 4l1.3-1.5zm.6.8c.2-.1.4-.1.4-.1h.1c-.1 0-.2-.1-.4-.2-.3-.2-.6-.5-.7-.5l-1.3 1.5c.1.1.5.5 1 .7.2.1.5.3.8.4.1.1.3.1.5.1s.5 0 .8-.2l-1.2-1.7zm-.2-.3V159.5v-.1c0-.1.1-.2.2-.2l1.1 1.7c.4-.2.5-.6.5-.7.1-.2.1-.4.1-.5v-.6l-1.9-.3zm.3-6.5c-.3 1.2-.3 2.3-.3 3.4s.1 2.1-.1 3.1l2 .2c.1-1.1.1-2.3.1-3.3s0-2 .3-2.9l-2-.5zm2.5-5.4c-1.1 1.6-2 3.4-2.5 5.3l1.9.5c.4-1.7 1.2-3.3 2.2-4.7l-1.6-1.1zm3.3-.2c-.8-.1-1.6-.1-2.4-.1l-.1 2c.8 0 1.5.1 2.3.1l.2-2zm1.1-4.6c-1.1 1.7-1.7 3.5-2.2 5.4l1.9.5c.5-1.8 1.1-3.4 1.9-4.8l-1.6-1.1zm6.4-4.7c-2.8.4-5 2.4-6.4 4.6l1.7 1.1c1.2-1.9 3-3.4 5-3.7l-.3-2zm4.2.2c-1.3-.2-2.7-.4-4.2-.2l.3 2c1.1-.2 2.3 0 3.6.2l.3-2zm4.8 1.8c-1.4-1.2-3.3-1.5-4.8-1.8l-.3 2c1.6.2 2.9.5 3.8 1.3l1.3-1.5zm1.7 2.4c-.4-.8-.9-1.7-1.7-2.4l-1.3 1.5c.5.4.8 1 1.2 1.7l1.8-.8zm-1.2 12.1c2.2-3.6 3-8.2 1.2-12.2l-1.8.8c1.5 3.2.9 7.2-1 10.3l1.6 1.1zm-12.2 18.7.5-.9c-.4-.2-.8-.1-1.1.1-.3.3-.4.7-.3 1.1l.9-.3zm3.2-3.3 1-.3-1 .3zm-4.7-.8-.9-.4.9.4zm1.5 4.1-.5.9c.4.2.8.1 1.1-.1s.4-.7.3-1.1l-.9.3zm3.9 22.3.3.9c.4-.1.6-.4.7-.8l-1-.1zm-5.8-10.6.4-.9-.4.9zm-3.8-1.1.1-1h-.4l.3 1zm0 0-1 .1c0 .3.2.6.4.8.2.2.6.2.9.1l-.3-1zm-1.7-3-.2 1 .2-1zm-.6.1-.4-.9.4.9zm-3 2.7-.9.3c.1.4.4.6.8.7s.8-.1 1-.5l-.9-.5zm-2.4-1.8.1-1-.1 1zm-2.6 1.1.7.7-.7-.7zm-1.3 2.6h-1 1zm.2 1.2.6.8c.4-.3.5-.8.3-1.2l-.9.4zm-2.7 2.5-.7-.7.7.7zm-2.1 3.8.9.3-.9-.3zm1 6.5-.9.5.9-.5zm5.2 5-.4.9.4-.9zm9 .3.2 1-.2-1zm6.7-3.1.6.8-.6-.8zm3.9-6.2-.3-.9c-.4.1-.6.4-.7.8l1 .1zm-33.3-13.6.5-.9c-.2-.1-.5-.1-.8-.1l.3 1zm3.1-3.3-.9.3.9-.3zm-4.6-.8-.9-.4.9.4zm1.5 4.1-.5.9c.2.1.5.1.8.1l-.3-1zm40.8-27.9.6-.8c-.4-.2-.8-.2-1.2 0-.3.2-.5.7-.4 1.1l1-.3zm13 18.6-.5.9c.4.2.8.2 1.1-.1s.5-.7.4-1.1l-1 .3zm-8.1-2.3-.1-1 .1 1zm-4.5 1.4-.5-.9.5.9zm-.3 2.8-.4.9.4-.9zm8.6.8.1-1-.1 1zm5.1 1.5 1-.1c0-.4-.3-.7-.6-.8l-.4.9zm.1 4.8-.3.9c.3.1.6.1.9-.1.2-.2.4-.4.4-.8h-1zm-.1 0-.4.9h.1l.3-.9zm-10.5-2.1.1 1-.1-1zm-3.7 1.2.6.8-.6-.8zm1.5 3.2.3-.9-.3.9zm7.8 1.3.3-1-.3 1zm4.1 1.6 1 .3c.1-.4-.1-.9-.5-1.1l-.5.8zm-10.4 15.6.6.8-.6-.8zm-19.3 9.3.2 1-.2-1zm-26-1.4.4-.9-.4.9zm-8.9-6.7-.9-.5c-.2.4-.2.9.1 1.2l.8-.7zm7.8-10.1-.9-.5.9.5zm.6-1.3 1 .2c.1-.3 0-.6-.2-.8-.2-.2-.4-.4-.7-.4l-.1 1zm-.2 0-.3-.9.3.9zm-4.1 1.5.4.9-.4-.9zm-7.3 6.1-.8.6c.2.3.6.5 1 .4s.7-.4.8-.8l-1-.2zm-2.4-3.8-.6-.8c-.4.3-.5.9-.2 1.3l.8-.5zm3.5-2.7-.6-.8.6.8zm4.6-6.9-.9.5.9-.5zm-10.1 5.8-.7-.7c-.3.3-.4.7-.2 1.1l.9-.4zm1.5 2.9-.9.5c.3.5.9.7 1.4.4s.7-.9.4-1.4l-.9.5zM207 175l.9.3-.9-.3zm1.9-4.9.9.4c.2-.4.1-.9-.3-1.2l-.6.8zm-3.6-4.2.8-.6-.8.6zm-2.4-7.9 1 .3-1-.3zm6.6-4.8.1 1-.1-1zm10.3 3.6-.7.7c.4.4.9.4 1.3.1l-.6-.8zm2.2-1.7h1c0-.4-.2-.7-.5-.9s-.7-.1-1.1.1l.6.8zm2.8 6.9-.8.6.8-.6zm2.6 2.8-.6.8.6-.8zm1.6 1-.5-.9.5.9zm.1-1.2-1 .1 1-.1zm-1.6-8.1-1 .1 1-.1zm.3-4.8 1 .2c.1-.4 0-.8-.3-1s-.7-.3-1-.1l.3.9zm-.7.3-.4-.9c-.5.2-.7.8-.5 1.3.2.5.8.7 1.3.5l-.4-.9zm1.1-.5-.4-.9.4.9zm3.6-1.3h1c0-.3-.2-.6-.4-.8s-.6-.2-.9-.1l.3.9zm.4 7.2 1-.2-1 .2zm1.9 3.4-.6.8.6-.8zm2.9 0-1-.1 1 .1zm0-6.5-1-.1 1 .1zm1.3-5.8-.2-1c-.4.1-.6.3-.8.7l1 .3zm3.8-.6 1-.1c-.1-.6-.6-.9-1.1-.9l.1 1zm0 0h1v-.1l-1 .1zm.6 7.7-1 .2 1-.2zm1.8 3.4-.7.7.7-.7zm1.8 1-.5-.8.5.8zm.3-1.1-1-.1 1 .1zm.3-6.4-1-.2 1 .2zm2.3-5v-1c-.3 0-.6.1-.9.4l.9.6zm2.4.2-.1 1c.5.1.9-.3 1.1-.7l-1-.3zm2.1-5.1-.9-.5.9.5zm5.7-4.2.1 1-.1-1zm3.9.2.1-1-.1 1zm4.3 1.5.7-.8-.7.8zm1.4 2.1.9-.4-.9.4zm-1.1 11.2-1 .3c.1.4.4.6.8.7s.8-.1 1-.5l-.8-.5z"/><path d="M240 188c-.8-.9-1.6-2.1-1.6-3.3 0-1.2.7-2.2 1.5-2.9.8-.8 1.9-1.3 3-1.3s2.3.8 2.7 2c.9-1.3 2.1-2.4 3.5-3 .2-.1.5-.2.7-.1.4.1 1.2.3 1.7 2 .2.8 1.4 4.4-4.6 10.4 0 0-6.1-2.9-6.9-3.8zM230.2 178c.6 1.9-.9 4.5-3.2 3.3-1.4-.7-2.1-2.7-1.5-4.1 1.1-2.5 4.1-1.3 4.7.8zM260.4 169.2c.7 2.2-1.1 5.1-3.6 3.8-1.6-.8-2.4-3.1-1.7-4.8 1.2-2.8 4.5-1.3 5.3 1zM212.4 166.6c-2.9-1.1-4.5-4.4-1.8-6.6 2-1.6 4.8-.4 6.4 1.1.9.8 2.1-.6 1.2-1.4-2.9-2.5-7.2-3.3-9.9 0-2.8 3.4.3 7.4 3.7 8.7 1.1.4 1.5-1.4.4-1.8zM256.6 149c0-2.1 1.3-3.9 3.3-4.5 1.5-.5 2 1.7 2.4 2.7.4 1.3.6 2.6-.4 3.7-.9.8.5 2 1.4 1.2 2.4-2.3 1.1-7.8-1.7-9.2-1.4-.8-3.5.2-4.5 1.2-1.4 1.3-2.2 3.1-2.2 5-.1 1.1 1.7 1 1.7-.1zM242.5 197.8c1.5 1.4 3.4 3.1 5.7 2.7 2.2-.4 3.3-2.4 4.5-4.1.6-1-1-1.9-1.6-.9-.8 1.2-1.5 2.6-2.9 3.2-1.6.6-3.4-1.2-4.4-2.2-.9-.9-2.2.5-1.3 1.3zM220.3 160.9c-.8.8-1.6 1.6-2.3 2.6-.5.6.4 1.4.9.8.7-.9 1.5-1.8 2.3-2.6.5-.5-.4-1.3-.9-.8zM220.9 165.9c.8-.2.4-1.4-.4-1.2-.7.3-.4 1.4.4 1.2zM224.1 165c0 .5-.1 1-.3 1.4-.1.3-.1.7.3.8.3.1.7.1.8-.3.3-.7.4-1.3.4-2 .1-.7-1.2-.6-1.2.1zM228.4 162.4c.8-.2.4-1.4-.4-1.2-.7.3-.3 1.5.4 1.2zM215 168.4c-.5.8-.6 1.7-.3 2.5s1.4.4 1.2-.4c-.2-.6-.1-1.1.2-1.6.4-.6-.7-1.2-1.1-.5zM218.7 169.4c-.3.5-.5 1.1-.5 1.7 0 .3.3.6.6.6.4 0 .6-.3.6-.6 0-.4.2-.7.4-1.1.4-.7-.7-1.3-1.1-.6zM211.5 172.8c-.5.4-.8.9-.9 1.5-.2.9-.2 1.9-.4 2.8-.1.8 1.1 1.1 1.2.3.1-.6.1-1.3.2-1.9.1-.5 0-1.3.5-1.7.7-.4.1-1.4-.6-1zM215.8 177.5c.8-.2.4-1.4-.4-1.2-.8.3-.4 1.4.4 1.2zM219.4 175.2c.8-.2.4-1.4-.4-1.2-.7.3-.3 1.5.4 1.2zM223.1 170.8c-.3.5-.5 1.1-.5 1.8 0 .8 1.2.7 1.2 0 0-.4.1-.8.4-1.1.2-.3 0-.7-.3-.8-.3-.3-.6-.2-.8.1zM209.9 182.1c-.5.9-.4 2.1.1 2.9.4.6 1.5 0 1-.7-.4-.5-.4-1.1-.1-1.7.5-.6-.6-1.2-1-.5zM215.7 183c.8-.2.4-1.4-.4-1.2-.7.3-.3 1.5.4 1.2zM218.4 180.6l.9 2.9c.2.8 1.4.4 1.2-.4l-.9-2.9c-.2-.7-1.4-.4-1.2.4zM220.8 188.7c.8-.2.4-1.4-.4-1.2-.7.3-.3 1.4.4 1.2zM222.9 187.2c.1 1.4.6 2.5 1.5 3.5.5.6 1.4-.3.8-.9-.7-.7-1.1-1.6-1.1-2.6 0-.8-1.2-.8-1.2 0zM223.7 195.8c.2 1.5.8 3.2 2.6 3.2.8 0 .7-1.2-.1-1.2-1 0-1.2-1.3-1.3-2.1-.1-.8-1.3-.7-1.2.1zM220 201.6c.1 1 .6 1.7 1.4 2.3.7.4 1.2-.7.6-1.1-.4-.3-.7-.7-.7-1.2-.2-.8-1.4-.8-1.3 0zM223.1 202.6c.8-.2.4-1.4-.4-1.2-.7.3-.3 1.4.4 1.2zM225.5 205.7c.6.8 1.4 1.4 2.4 1.5.3 0 .6-.1.7-.5.1-.3-.1-.7-.5-.7-.7-.1-1.3-.4-1.7-1-.3-.6-1.3 0-.9.7zM228.4 203.4c.4.5 1 .8 1.6.5.7-.3.4-1.4-.4-1.2-.1 0-.1.1-.2 0-.5-.6-1.5 0-1 .7zM229.3 197.3c.8-.2.4-1.4-.4-1.2-.7.3-.4 1.5.4 1.2zM234.5 206c.9.6 1.9 1 2.9 1.1.3 0 .6-.1.7-.5.1-.3-.1-.7-.5-.7-.9-.1-1.7-.4-2.4-.9-.3-.2-.6-.2-.9 0-.1.4-.1.9.2 1zM235.9 209.8c.7.5 1.6.6 2.4.5.3-.1.5-.5.4-.8-.1-.4-.4-.5-.8-.4-.5.1-1.1-.1-1.5-.4-.3-.2-.7 0-.8.3-.2.3 0 .6.3.8zM446.9 101c-.5-1.7-1.2-3.5-2-5.3.6-1 1.2-2.1 1.7-3 4.4 1.2 7.4 2.9 7.3 4.7-.1 1.6-2.9 2.9-7 3.6zm-1.6 9.3c-1.8 0-4.6-2.4-7.2-6.2.7-.7 1.4-1.4 2.1-2.2 2.1.1 4.2 0 6.3-.3.8 2.9 1.7 8.7-1.2 8.7zm-11.3-3.5c-2.4 1.6-4.4 2.1-5.3 1.4-1.3-1-.8-4.1 1-7.8 1.9.6 4 1 6.3 1.3.5.8 1 1.7 1.5 2.4-1.3 1-2.4 2-3.5 2.7zm-6.3-7.7c-7.1-2.9-4.5-6.4 3.9-7.5.3.9.6 1.8.9 2.8-1.3 1.8-2.4 3.6-3.2 5.3-.6-.2-1.1-.4-1.6-.6zm3.6-11c-.3-2.2-.4-5.6 1.8-5.6 2 0 4.6 2.8 5.9 4.4-1.3 1.1-2.5 2.4-3.8 3.9-1.1 0-2.2.1-3.3.2-.2-1-.4-2-.6-2.9zm11.7 3.8c1.1.2 2.1.4 3 .6-.4.8-.9 1.7-1.4 2.6-.4-1-.9-1.9-1.6-3.2zm-7-1.1c1.1-1.3 2.3-2.4 3.4-3.4.9 1.1 1.8 2.4 2.6 3.8-2-.3-4.1-.4-6-.4zm-3.2 3.1c-.3-.8-.5-1.5-.8-2.3.9-.1 1.7-.2 2.7-.2-.7.9-1.2 1.6-1.9 2.5zm2.7 7.1c-2.1-.3-4-.7-5.7-1.2.8-1.5 1.7-3.2 2.9-4.8.8 2.1 1.8 4.1 2.8 6zm4 .9c-.5.6-1.1 1.2-1.7 1.7-.4-.6-.8-1.2-1.2-1.9 1.3.1 2.1.2 2.9.2zm5-5.7c.7 1.7 1.3 3.3 1.8 4.8-1.7.2-3.6.4-5.6.3 1.4-1.6 2.7-3.3 3.8-5.1zm-4.5 5.2c-1.2 0-2.5-.1-3.7-.3-1.2-2.1-2.3-4.4-3.2-6.6.8-1.1 1.5-2.1 2.4-3.1 2.3 0 4.6.1 6.8.4.7 1.3 1.4 2.5 2 3.8-1.3 2.1-2.8 4-4.3 5.8zm6.2-17.8c.5 0 .9.1 1.2.3 1.3 1 .8 4.2-1 8-1.1-.3-2.4-.5-3.6-.7-.9-1.6-1.9-3-2.9-4.3 1.5-1.2 4.2-3.3 6.3-3.3zm.6 8.5c4.2-9 .4-12.2-7.4-5.5-6.3-7.8-10.7-5.4-8.1 4.5-1.2.2-2.4.4-3.5.7-3.1.8-4.9 2.1-5 3.6-.1 2.4 3.8 4.1 6.1 4.8-4.4 9.3.2 12.2 8.7 4.3 6.8 9.6 12.3 8 9.3-3 10-1.6 10-6.7-.1-9.4z"/><path class="st12" d="M430.8 88.4c.8 0 1.4-.6 1.4-1.4s-.6-1.4-1.4-1.4-1.4.6-1.4 1.4.6 1.4 1.4 1.4z"/><circle class="st12" cx="443" cy="109.2" r="1.5"/><path class="st22" d="M447.4 91.2c.9 0 1.7-.8 1.7-1.7 0-.9-.8-1.7-1.7-1.7s-1.7.8-1.7 1.7.7 1.7 1.7 1.7zM432.8 109c.8 0 1.5-.7 1.5-1.5s-.7-1.5-1.5-1.5-1.5.7-1.5 1.5.7 1.5 1.5 1.5z"/><path d="M900.1 103c-1.1-3.8-2.7-7.9-4.5-12 1.5-2.3 2.7-4.6 3.8-6.8 10 2.6 16.8 6.6 16.5 10.6-.2 3.8-6.5 6.8-15.8 8.2zm-3.5 21.1c-4.1 0-10.3-5.5-16.3-14 1.6-1.5 3.1-3.2 4.7-4.9 4.8.1 9.5-.1 14.2-.7 1.8 6.5 4 19.6-2.6 19.6zm-25.8-7.8c-5.5 3.7-9.9 4.8-12.1 3.1-2.9-2.3-1.8-9.2 2.2-17.7 4.3 1.3 9.1 2.2 14.3 2.8 1.1 1.9 2.3 3.7 3.4 5.4-2.6 2.5-5.2 4.7-7.8 6.4zm-14.2-17.5c-16.2-6.6-10.1-14.6 8.8-16.9.6 2 1.3 4.1 2.1 6.2-2.9 4.1-5.3 8.2-7.2 12-1.3-.4-2.6-.8-3.7-1.3zm8.2-24.9c-.7-4.9-.8-12.7 4-12.7 4.6 0 10.5 6.5 13.4 10.1-2.9 2.5-5.8 5.5-8.6 8.8-2.6.1-5.1.2-7.5.5-.5-2.4-.9-4.6-1.3-6.7zm26.5 8.6c2.4.4 4.7.8 6.8 1.3-.9 1.9-2 3.8-3.2 5.8-.9-2.1-2-4.2-3.6-7.1zm-15.9-2.4c2.5-2.9 5.1-5.5 7.7-7.8 2 2.6 4 5.5 5.8 8.6-4.5-.6-9.1-.9-13.5-.8zm-7.1 6.8c-.6-1.8-1.2-3.5-1.7-5.2 1.9-.2 4-.3 6-.4-1.6 2-2.9 3.7-4.3 5.6zm6.1 16.3c-4.7-.6-9.1-1.5-13-2.6 1.7-3.5 3.9-7.2 6.5-10.9 1.9 4.6 4.1 9.1 6.5 13.5zm8.9 1.9c-1.2 1.4-2.5 2.7-3.8 3.9-.9-1.4-1.9-2.8-2.8-4.4 3 .4 4.8.5 6.6.5zm11.5-12.8c1.7 3.7 3 7.4 4.1 10.9-3.9.5-8.2.8-12.8.8 3.2-3.8 6.1-7.8 8.7-11.7zm-10.4 11.6c-2.8-.1-5.6-.3-8.4-.6-2.8-4.8-5.3-10-7.2-15 1.7-2.4 3.4-4.6 5.5-7 5.2-.1 10.4.2 15.5.9 1.7 2.9 3.1 5.7 4.4 8.6-2.9 4.7-6.2 9.1-9.8 13.1zm14.1-40.2c1.1 0 1.9.3 2.6.8 3 2.3 1.8 9.5-2.4 18.1-2.6-.6-5.3-1.2-8.2-1.6-2.1-3.5-4.2-6.8-6.5-9.7 3.6-2.9 9.9-7.6 14.5-7.6zM900 83c9.6-20.3.8-27.5-16.7-12.5C869 52.8 859 58.2 865 80.7c-2.8.3-5.5.8-7.8 1.5-7 1.9-11 4.8-11.2 8.2-.3 5.5 8.6 9.2 13.7 10.9-9.9 21.1.5 27.8 19.7 9.7 15.3 21.7 27.8 18.2 21.1-6.7 22.3-3.6 22.4-15.3-.5-21.3z"/><circle class="st12" cx="863.7" cy="71.4" r="3.2"/><path class="st12" d="M891.3 125.1c1.9 0 3.4-1.6 3.4-3.5s-1.5-3.5-3.4-3.5-3.4 1.6-3.4 3.5 1.5 3.5 3.4 3.5z"/><circle class="st22" cx="901.2" cy="77" r="3.8"/><ellipse class="st22" cx="868.2" cy="117.8" rx="3.3" ry="3.4"/><path d="M347.4 279.1c-1.1-3.9-2.7-8.1-4.6-12.3 1.5-2.4 2.8-4.8 3.9-7 10.3 2.7 17.2 6.8 16.9 10.9-.2 3.8-6.7 6.9-16.2 8.4zm-3.5 21.6c-4.2 0-10.6-5.6-16.7-14.4 1.6-1.6 3.2-3.2 4.8-5 4.9.1 9.8-.1 14.6-.8 1.8 6.7 4 20.2-2.7 20.2zm-26.4-8c-5.6 3.8-10.1 4.9-12.4 3.2-3-2.4-1.9-9.5 2.2-18.2 4.4 1.3 9.4 2.3 14.6 2.9 1.1 2 2.3 3.8 3.5 5.6-2.6 2.6-5.4 4.8-7.9 6.5zm-14.7-17.9c-16.6-6.8-10.4-14.9 9-17.3.6 2.1 1.3 4.2 2.1 6.4-3 4.2-5.5 8.4-7.4 12.3-1.2-.5-2.5-1-3.7-1.4zm8.5-25.5c-.7-5.1-.9-13.1 4.1-13.1 4.7 0 10.8 6.6 13.8 10.3-2.9 2.6-5.9 5.6-8.8 9-2.6.1-5.2.2-7.6.5-.7-2.3-1.2-4.6-1.5-6.7zm27.1 8.7c2.5.4 4.8.8 7 1.4-1 1.9-2.1 3.9-3.3 5.9-1-2.1-2-4.3-3.7-7.3zm-16.3-2.4c2.6-3 5.3-5.7 7.9-8 2 2.6 4.1 5.6 6 8.8-4.6-.6-9.3-.9-13.9-.8zm-7.2 7c-.6-1.8-1.2-3.6-1.7-5.3 2-.2 4-.4 6.2-.4-1.8 2-3.1 3.8-4.5 5.7zm6.2 16.6c-4.8-.6-9.3-1.5-13.3-2.7 1.8-3.6 4-7.4 6.6-11.2 2 4.9 4.2 9.5 6.7 13.9zm9.2 2.1c-1.3 1.4-2.6 2.8-3.9 4-1-1.4-1.9-2.9-2.9-4.5 3.1.3 4.9.4 6.8.5zm11.7-13.2c1.7 3.8 3.1 7.6 4.2 11.2-4 .5-8.4.8-13.1.8 3.3-3.9 6.3-8 8.9-12zM331.4 280c-2.9-.1-5.7-.3-8.6-.6-2.9-5-5.4-10.3-7.4-15.3 1.8-2.5 3.5-4.8 5.6-7.2 5.4-.1 10.6.2 15.8 1 1.7 3 3.2 5.8 4.5 8.8-2.9 4.7-6.3 9.2-9.9 13.3zm14.4-41.2c1.1 0 2 .3 2.7.8 3 2.4 1.8 9.7-2.4 18.6-2.6-.6-5.5-1.2-8.4-1.6-2.1-3.6-4.4-7-6.6-9.9 3.5-3.1 10-7.9 14.7-7.9zm1.6 19.7c9.9-20.8.9-28.2-17.2-12.8-14.6-18.1-24.9-12.5-18.7 10.5-2.9.4-5.6.9-8 1.5-7.2 1.9-11.3 4.9-11.5 8.4-.3 5.6 8.8 9.4 14 11.1-10.1 21.7.6 28.4 20.2 10 15.7 22.3 28.5 18.6 21.6-6.9 23-3.6 23-15.6-.4-21.8z"/><ellipse class="st12" cx="310.1" cy="246.7" rx="3.2" ry="3.3"/><ellipse class="st12" cx="338.4" cy="298.2" rx="3.5" ry="3.6"/><circle class="st22" cx="348.6" cy="252.4" r="3.9"/><ellipse class="st22" cx="314.7" cy="294.2" rx="3.4" ry="3.5"/><path d="M654.2 285.5c0 6.2-.1 26.6-.2 37.5 0 1.7-.2 3.4-1.4 4.7-.9 1-3.4 1-6.1.7-4 17.6-8.9 34.4-12.3 52.5-31.4 2.4-58.3 4.8-89.8 3.7-4-15.2-12.6-29.6-17.6-44.7-1.9-.6-5.8-6.9-11.5-9.3-13.1-5.4-49.2-5.2-67.5 17.8-1.6-20.1-3-65.5 13.9-76.6 5.2-3.4 11.4-5 16.9-7.5 16.4-7.5 25.5-8.5 38.2-13.3 3-1.1 14.8-4.4 20.3-7 1.3-.6 2.7.2 2.9 1.4.2.8.3 1.4.3 2 0 18.1 44.8 18 42.3-1.7-.2-1.2.9-2.5 2.3-2.3 13.3 1.7 26.3 4.9 39.2 8.6 9.7 2.8 22.4 4.4 27.1 14 3 5.9 3 12.9 3 19.5z" style="fill:#ce4c7a"/><defs><path id="SVGID_00000075856275158152163760000002932287174356346035_" d="M654.2 285.5c0 6.2-.1 26.6-.2 37.5 0 1.7-.2 3.4-1.4 4.7-.9 1-3.4 1-6.1.7-4 17.6-8.9 34.4-12.3 52.5-31.4 2.4-58.3 4.8-89.8 3.7-4-15.2-12.6-29.6-17.6-44.7-1.9-.6-5.8-6.9-11.5-9.3-13.1-5.4-49.2-5.2-67.5 17.8-1.6-20.1-3-65.5 13.9-76.6 5.2-3.4 11.4-5 16.9-7.5 16.4-7.5 25.5-8.5 38.2-13.3 3-1.1 14.8-4.4 20.3-7 1.3-.6 2.7.2 2.9 1.4.2.8.3 1.4.3 2 0 18.1 44.8 18 42.3-1.7-.2-1.2.9-2.5 2.3-2.3 13.3 1.7 26.3 4.9 39.2 8.6 9.7 2.8 22.4 4.4 27.1 14 3 5.9 3 12.9 3 19.5z"/></defs><clipPath id="SVGID_00000150100943778509465030000008666750451398993556_"><use xlink:href="#SVGID_00000075856275158152163760000002932287174356346035_" style="overflow:visible"/></clipPath><path style="clip-path:url(#SVGID_00000150100943778509465030000008666750451398993556_)" d="m655.6 286.9-2.8-2.8 2.8 2.8zm-6.1-20.1c2.7 5.5 2.7 11.9 2.7 18.7h4c0-6.6 0-14-3.1-20.4l-3.6 1.7zm-25.9-12.9c5.1 1.5 10.4 2.5 15.2 4.4 4.8 1.9 8.6 4.4 10.6 8.6l3.6-1.7c-2.6-5.5-7.5-8.5-12.7-10.6-5.1-2-11-3.2-15.6-4.5l-1.1 3.8zm-38.8-8.6c13.2 1.6 26.1 4.9 38.9 8.6l1.1-3.8c-12.9-3.7-26-7-39.5-8.7l-.5 3.9zm-.1.1c0-.1 0-.1 0 0 .1-.1.1-.1 0 0 .1-.1.1-.1 0 0 .1-.1.1-.1 0 0l.5-4c-2.9-.4-4.8 2.3-4.5 4.6l4-.6zm-46.2 1.9c0 5.5 3.5 9.5 8 11.9 4.5 2.4 10.4 3.5 16.1 3.4 5.7-.1 11.5-1.5 15.7-4.2 4.3-2.8 7.2-7.2 6.4-13l-4 .5c.5 4-1.3 7-4.7 9.2-3.4 2.2-8.4 3.5-13.6 3.6-5.2.1-10.4-.9-14.1-2.9-3.8-2-5.9-4.8-5.9-8.4l-3.9-.1zm-.3-1.5c.2.8.3 1.3.3 1.6h4c0-.8-.2-1.7-.4-2.4l-3.9.8zm-.1-.1h.1-.1l4-.7c-.4-2.5-3.3-4.1-5.8-2.9l1.8 3.6zm-20.5 7.1c1.4-.5 5-1.6 9.1-2.9 4-1.3 8.5-2.8 11.3-4.2l-1.7-3.6c-2.6 1.2-6.8 2.7-10.8 4-3.9 1.2-7.7 2.4-9.3 3l1.4 3.7zm-38.1 13.3c8.1-3.7 14.4-5.8 20.2-7.6 5.8-1.8 11.4-3.3 17.9-5.7l-1.4-3.7c-6.3 2.4-11.6 3.8-17.6 5.6-6 1.8-12.4 4-20.7 7.8l1.6 3.6zm-16.6 7.3c2.4-1.6 5.1-2.8 8-3.9 2.8-1.1 5.9-2.2 8.7-3.5l-1.7-3.6c-2.7 1.2-5.5 2.2-8.5 3.4-2.9 1.1-5.9 2.5-8.7 4.3l2.2 3.3zm-13 74.8c-.8-10-1.6-26.2 0-41.3.8-7.5 2.1-14.7 4.3-20.6 2.2-6 5-10.4 8.8-12.9l-2.2-3.3c-4.7 3.1-8 8.5-10.3 14.8-2.3 6.4-3.7 13.9-4.5 21.6-1.6 15.4-.8 31.9 0 42l3.9-.3zm66.3-19.4c-7-2.9-19.7-4.2-32.9-1.9-13.2 2.3-27.4 8.2-37 20.2l3.1 2.5c8.8-11 21.9-16.6 34.5-18.8 12.7-2.2 24.6-.9 30.7 1.6l1.6-3.6zm11.3 9.2c.1 0 .1 0-.2-.1-.2-.2-.5-.4-.8-.7-.8-.7-1.4-1.5-2.5-2.6-2-2-4.6-4.4-7.8-5.8l-1.5 3.7c2.5 1 4.6 2.9 6.5 4.9.8.9 1.8 2 2.5 2.6.4.4.8.8 1.2 1 .4.3.9.6 1.5.8l1.1-3.8zm18.9 46.1c-2.1-7.8-5.3-15.3-8.5-22.7-3.3-7.4-6.6-14.7-9-22.1l-3.8 1.2c2.5 7.6 5.9 15.1 9.2 22.5 3.3 7.4 6.4 14.7 8.3 22.1l3.8-1zm87.7-5.2c-31.4 2.4-58.2 4.8-89.5 3.7l-.1 4c31.6 1.1 58.6-1.3 90-3.7l-.4-4zm10.5-51c-4 17.4-8.9 34.4-12.3 52.6l3.9.7c3.4-18.1 8.2-34.7 12.3-52.4l-3.9-.9zm6.5-1.6c.1-.1.2-.1 0 0-.3.1-.6.1-1.1.2-.9.1-2.1 0-3.4-.1l-.3 4c1.4.1 2.8.2 4.1.1.6 0 1.3-.2 1.9-.4.6-.2 1.3-.5 1.8-1.1l-3-2.7zm.9-3.4c0 1.7-.3 2.8-.9 3.4l3 2.6c1.6-1.8 1.8-4.3 1.9-6h-4zm.2-37.4c0 6.2-.1 26.6-.2 37.5h4c0-10.9.2-31.3.2-37.5h-4zm2 0h-2v4.9l3.4-3.4-1.4-1.5zm-2.9-19.5 1.8-.9-1.8.9zm-27.1-14.1.6-1.9-.6 1.9zm-39.2-8.6.2-2-.2 2zm-2.3 2.3 2-.2-2 .2zm-42.6-.3-2 .3v.2l2-.5zm-2.9-1.4.9 1.8-.9-1.8zm-20.3 7.1-.7-1.9.7 1.9zm-38.2 13.3-.8-1.8.8 1.8zm-16.9 7.5-1.1-1.7 1.1 1.7zm-13.9 76.6-2 .2.4 5 3.1-3.9-1.5-1.3zm67.5-17.8.8-1.9-.8 1.9zm11.5 9.3 1.9-.6-.3-1-1-.3-.6 1.9zm17.6 44.7-1.9.5.4 1.4h1.5v-1.9zm89.7-3.7.2 2 1.5-.1.3-1.5-2-.4zm12.3-52.5.2-2-1.7-.1-.4 1.7 1.9.4zm6.1-.8 1.5 1.3-1.5-1.3zm1.4-4.7 2 .1h-2zm.2-37.4h2v-4.9l-3.4 3.4 1.4 1.5z"/><path d="M737.1 333.4c-13.9 0-25.2-7.9-25.2-17.6s11.3-17.6 25.2-17.6c13.9 0 25.2 7.9 25.2 17.6-.1 9.7-11.3 17.6-25.2 17.6zm96.3-86.3L690 236.3c-3-.2-5.8 1.4-7 4.1-.1.2-53.5 111-58.6 121.5a7.19 7.19 0 0 1-6.5 4.1l-60 .5c-4.5 0 16.4-.1-44.2.3-5.5 0-8.9 6-6.2 10.8l4.5 7.9a7.5 7.5 0 0 0 6.2 3.7l246.1 3.9c2.7 0 5.2-1.5 6.5-3.9l68.5-131.6c2.4-4.5-.7-10.1-5.9-10.5z" style="fill:#486758"/><path d="M840.1 159.4c0 28.7-32.7 48.2-64.2 41.5-8.4 4.6-17.6 6.6-25.9 6.2 3.6-3.7 6.7-8 8.9-12.7-13.3-7.7-22.1-20.6-22.1-35.1 0-28.9 33.4-48.9 65.9-41.1 21.7 5.2 37.4 21.7 37.4 41.2z" style="fill:#ffebf1"/><defs><path id="SVGID_00000041292284010555993420000009722217800234804925_" d="M840.1 159.4c0 28.7-32.7 48.2-64.2 41.5-8.4 4.6-17.6 6.6-25.9 6.2 3.6-3.7 6.7-8 8.9-12.7-13.3-7.7-22.1-20.6-22.1-35.1 0-28.9 33.4-48.9 65.9-41.1 21.7 5.2 37.4 21.7 37.4 41.2z"/></defs><clipPath id="SVGID_00000075156782810824597700000010892577561692827552_"><use xlink:href="#SVGID_00000041292284010555993420000009722217800234804925_" style="overflow:visible"/></clipPath><path style="clip-path:url(#SVGID_00000075156782810824597700000010892577561692827552_)" d="M840.1 161.4v-4 4zm-37.8-41.1c20.9 5 35.8 20.8 35.8 39.2h4c0-20.7-16.7-37.8-38.9-43.1l-.9 3.9zM739 159.4c0-13.6 7.8-25.2 19.8-32.6 12-7.4 27.9-10.3 43.6-6.6l.9-3.9c-16.8-4-33.8-.8-46.6 7.1s-21.7 20.7-21.7 36h4zm21 33.4c-12.8-7.4-21.1-19.7-21.1-33.4h-4c0 15.4 9.2 28.8 23.1 36.8l2-3.4zm-8.5 15.8c3.8-3.9 6.9-8.3 9.3-13.2l-3.6-1.7c-2.2 4.5-5.1 8.6-8.5 12.1l2.8 2.8zm23.5-9.4c-8.1 4.4-16.9 6.4-24.8 6l-.2 4c8.7.4 18.2-1.7 26.9-6.5l-1.9-3.5zm63.1-39.8c0 13.5-7.7 25-19.4 32.3-11.7 7.4-27.2 10.5-42.4 7.2l-.8 3.9c16.2 3.4 32.8.1 45.3-7.8 12.6-7.9 21.2-20.5 21.2-35.7l-3.9.1zm2 0h-2v2h2v-2zm-37.3-41.1-.5 1.9.5-1.9zM759 194.6l1.8.9.8-1.7-1.6-.9-1 1.7zm-8.9 12.6-1.4-1.4-3.1 3.2 4.5.2v-2zM776 201l.4-2-.7-.1-.7.4 1 1.7zm64.1-41.6h2v-2h-2v2z"/><path d="M815.4 153.1c0-.6-.5-1.1-1.2-1.1h-47.1c-.6 0-1.2.5-1.2 1.1s.5 1.1 1.2 1.1h47.1c.7 0 1.2-.5 1.2-1.1zM770.2 166.7h26.6c.6 0 1.2-.5 1.2-1.1s-.5-1.1-1.2-1.1h-26.6c-.6 0-1.2.5-1.2 1.1s.5 1.1 1.2 1.1zM630 301.1c-.7.1-1.2.7-1.1 1.4 1.2 12.4 2.9 25 5 37.5.1.4.3.8.7.9l1.5-3.1c-2-11.9-3.6-23.8-4.7-35.5-.1-.8-.7-1.3-1.4-1.2zM521.7 327.8c-.8-.6-1.4-1-1.9-1.3-.9-1.2-2.7 0-2.1 1.3 3 6.7 1 3.4 5.8 13.7 4.5 11.5 9.1 25 9.2 25.2l25.3-.2c-11.5-12.6-24.5-28.7-36.3-38.7z"/><path d="M491 327.9c-16.8 1.2-30 8.5-34.5 12l18.5 65.5 48.5-1-16-28c-3.2-5.6 2-8.7 5-9.5h21l-13.5-34c-2.7-2.1-12.2-6.2-29-5z" style="fill-rule:evenodd;clip-rule:evenodd;fill:#ffd7b1"/><path d="M577.2 434.7h-91.9c0-.2.1-.5 0-.7-7.7-22.7-27.2-92.7-28.4-94.3-.1.1-.2.1-.3.2-2.9 2.2-5.6 4.7-8 7.5-.3.5-.5.9-.7 1.4 3.3 1.8 6.8 3.2 10.5 4.1 7.9 26.4 18.1 63.2 24.4 81.8H460c-.7 0-1.2.6-1.2 1.2s.6 1.2 1.2 1.2h117.2c.7 0 1.2-.6 1.2-1.2s-.6-1.1-1.2-1.2z" style="fill-rule:evenodd;clip-rule:evenodd"/><path d="m771.9 396.6-248-.9-11.1-20 115.4-.9c.5 0 2.3-.3 2.5-.7L694.5 245l153.6 11.5-74.9 138.1-1.3 2zm79.3-144.3-159.2-12c-.5 0-1 .2-1.2.7l-62.3 129.3-120.2.9c-1 0-2.1 2.2-1.7 3l12.6 22.7c.2.4 1.6 3 2 3 312.3-.1 217.7-.2 307.4-.1.7 0 1.3-1.1 1.3-1.8s-.8-1.7-1.5-1.7l-49.8-1 73.6-141.4c.4-.6-.1-1.6-1-1.6zM695.6 238.9c-.4 0-.7-.2-.7-.6-1.4-7.2-1-14.6 1.1-22.6.1-.4.5-.6.9-.5s.6.5.5.9c-2.1 7.8-2.5 15-1.1 22 .1.4-.2.8-.6.9 0-.1-.1-.1-.1-.1zM709.3 238.4c-.3 0-.6-.2-.7-.5-2.5-6.5-2.8-13.1-.8-20.2.1-.4.5-.6.9-.5.4.1.6.5.5.9-1.9 6.7-1.6 13 .8 19.2.2.4 0 .8-.4 1-.1.1-.2.1-.3.1z"/><path d="M698.4 238.9c-.2 0-.4-.1-.6-.3l-2.9-3.4-3.2 3.4c-.3.3-.8.3-1.1 0-.3-.3-.3-.8 0-1.1l4.4-4.7 4 4.7c.3.3.2.8-.1 1.1-.1.3-.3.3-.5.3zM704.8 238.8c-.1 0-.3 0-.4-.1-.3-.2-.5-.7-.2-1l3.6-5.6 4.9 5.5c.3.3.3.8 0 1.1-.3.3-.8.3-1.1-.1l-3.6-4-2.6 3.9c-.1.2-.3.3-.6.3zM675 197.2V191h-4v6.3h4zm-13.6-1.2 11 3.1 1.1-3.9-11-3.1-1.1 3.9zm11.1-6.9-11 3.1 1.1 3.9 11-3.1-1.1-3.9zm.5 8.1-.5 1.9c.6.2 1.2.1 1.8-.3s.8-1 .8-1.6H673zm-11-3.1-.5-1.9c-.9.2-1.5 1-1.5 1.9s.6 1.7 1.5 1.9l.5-1.9zm11-3.1h2c0-.6-.3-1.2-.8-1.6s-1.2-.5-1.8-.3l.6 1.9z"/><path class="st30" d="m673 191-11 3.1 11 3.1z"/><path d="M699 229.8c9.6.5 16.9-1.5 22.5-5 5.6-3.4 9.3-8.2 11.7-12.9 2.4-4.7 3.6-9.5 4.2-13.1.3-1.8.5-3.3.5-4.4 0-.5.1-.9.1-1.2v-.4h-4v.4c0 .2 0 .6-.1 1.1-.1.9-.2 2.3-.5 4-.5 3.3-1.7 7.7-3.8 11.9-2.2 4.3-5.4 8.4-10.2 11.4-4.8 3-11.3 4.9-20.2 4.4l-.2 3.8zm-14.7-59.9c-3.5.1-6.5 1.1-8.9 2.9-2.4 1.8-4 4.3-5.1 7.1-2.2 5.6-2.1 12.9-.3 20 1.7 7.1 5.2 14.3 10.1 19.9 4.9 5.6 11.3 9.5 18.9 9.9l.2-4c-6.2-.3-11.7-3.6-16.1-8.6-4.4-5-7.6-11.6-9.2-18.2-1.6-6.6-1.6-13 .2-17.6.9-2.3 2.2-4.1 3.8-5.4 1.7-1.2 3.8-2 6.5-2.1l-.1-3.9zm33.2 28.4c-4.9-.2-7.6-1.9-9.4-4.1-2-2.4-3-5.6-4.4-9.2-1.3-3.5-2.7-7.3-5.6-10.3-3-3-7.3-4.8-13.8-4.7l.1 4c5.6-.1 8.8 1.4 10.9 3.5 2.2 2.2 3.4 5.3 4.7 8.8 1.2 3.4 2.5 7.3 5 10.4 2.6 3.2 6.4 5.4 12.3 5.6l.2-4zm18.5-5.6-1.7-1s-.1.1-.1.2c-.1.2-.3.4-.6.8-.6.6-1.5 1.5-2.8 2.4-2.6 1.7-6.8 3.5-13.2 3.2l-.2 4c7.3.3 12.3-1.7 15.6-3.9 1.6-1.1 2.8-2.2 3.5-3.1.4-.4.7-.8.9-1.1.1-.1.2-.2.2-.3 0 0 0-.1.1-.1 0-.1 0-.1-1.7-1.1zm-37 35.1.1-2-.1 2zm-14.6-55.9v-2 2zm33.1 28.4-.1 2 .1-2zm18.5-7.6h2c0-.9-.6-1.7-1.5-1.9-.9-.2-1.8.1-2.2.9l1.7 1z"/><path d="M736 192.7s-4.9 8.2-18.5 7.6c-21.6-.9-8.9-28.8-33.1-28.3-25.1.4-13 54.4 14.7 55.8 36.9 1.9 36.9-35.1 36.9-35.1z" style="fill:#fadf4f"/><path d="M679.3 192.2c-1.1 0-2-.3-2.8-1-2-1.6-2.2-4.7-2.2-4.9 0-.5.3-.9.8-1 .5 0 .9.3 1 .8 0 .2.5 4.5 3.6 4.2.8-.1 1.4-.4 1.9-.9 1.1-1.4.9-3.8.9-3.8 0-.5.3-.9.8-1 .5-.1.9.3 1 .8 0 .1.3 3.1-1.3 5.1-.8.9-1.8 1.5-3.1 1.6-.3.1-.4.1-.6.1z"/><path class="st30" d="M685.4 199.1c1.8-.4 3-1.4 2.8-2.5-.2-1-1.8-1.6-3.6-1.2s-3 1.4-2.8 2.5c.2 1 1.8 1.5 3.6 1.2z"/><path d="M703.7 191.6c1 .1 2.2.9 3.5 2.9 1.3 1.9 2.6 4.6 3.9 7.7 2.6 6.1 5.6 13.8 10.3 19.1l3-2.6c-4.1-4.7-6.9-11.7-9.6-18.1-1.3-3.1-2.7-6.1-4.3-8.4-1.5-2.2-3.6-4.2-6.3-4.6l-.5 4zm-3.7 18.5c-2.5-4.2-2.9-9.2-1.9-13 .5-1.9 1.3-3.4 2.3-4.3.9-.9 2-1.3 3.2-1.1l.5-4c-2.5-.3-4.8.6-6.5 2.2-1.7 1.6-2.8 3.8-3.4 6.2-1.3 4.8-.7 10.9 2.3 16.1l3.5-2.1zm22.9 9.9v-2h-.7c-.5 0-1.2 0-2.2-.1-1.8-.1-4.3-.3-6.9-.8s-5.3-1.3-7.7-2.4c-2.3-1.2-4.2-2.7-5.3-4.5l-3.5 2c1.6 2.8 4.2 4.7 7 6.1 2.8 1.4 5.9 2.2 8.7 2.8 2.8.6 5.5.8 7.5.9 1 .1 1.8.1 2.3.1H723c0-.1 0-.1-.1-2.1zm-19-30.4.2-2-.2 2zm-5.6 21.5-1.7 1 1.7-1zm24.6 8.9v2c.8 0 1.5-.5 1.8-1.2s.2-1.5-.3-2.1l-1.5 1.3z"/><path class="st30" d="M722.9 220s-19.2.4-24.6-8.9c-5.5-9.3-2-22.4 5.6-21.5 7.6.9 10.2 20.3 19 30.4z"/><path d="M782.3 202.1c32.6 6.8 64.2-13.6 64.2-41.5 0-21.4-18.9-39.1-43.6-42.3 21.5 5.1 37.3 21.6 37.3 41.1 0 23.6-23.1 42.8-51.6 42.8-4.3 0-8.5-.4-12.6-1.3-5.6 3.1-11.8 5.1-18.2 5.9-.5.5-.9 1-1.4 1.5 9 .5 18-1.8 25.9-6.2z"/><path d="M546.5 256.9c-5.6-3.2-6.7-9-6.5-11.5l4.5-26.5-16.5-18.5 13-1.5c19.5-12 2-21.5-2.5-22.5-3.6-.8-15.7-4.6-21.4-6.5.3.7.1.4-.1 0h.1c-.2-.4-.5-1.2-1.1-2.5-2-4.5 4.5-19.5 11.5-20 5.6-.4 14.7-3.5 18.5-5 26.8-16.4 38.2-29.2 40.5-33.5h2.5c8 21 10 17 19 33.5s2 38.5-7.5 55.5c-7.6 13.6-18.2 20.7-22.5 22.5l5 28.5c0 2.7-2.8 8.6-14 11s-19.7-1-22.5-3z" style="fill:#ffd7b1"/><path d="M620.5 7.9c-10.8.4-24.2 7.2-29.5 10.5-23.6 8.4-41.8 31.5-48 42-28 7.6-44.7 36.5-49.5 50-16 1.2-24 12.5-26 18-5 11-8.6 37 17 53 32 20 30 16.5 48 18.5s21.5-20 10.5-22c-8.8-1.6-21.3-6.3-26.5-8.5-3.2-1-11.8-5.7-21-16.5s-2.8-20.2 1.5-23.5l12.5-10.5c1.6-16.8 41.3-24.7 61-26.5 10.8 6.4 32.2 30 41.5 41-3.2 2.4-3.3 5.3-3 6.5 4.4 10 10.5 5.2 13 1.5 6.8 8.8 8.5 1.7 8.5-3 11.6-3.2 2.8-10.3-3-13.5-2.4-8.8-18.3-29.7-26-39 26.8 10.4 43.5 31.7 48.5 41-.4 17.6 5.5 14 8.5 10 5.6 3.2 8.3-1.7 9-4.5 12.4-4 2.2-12.3-4.5-16-6.8-19.6-26.5-33.5-35.5-38 4.8-4.8 8.7-16.3 10-21.5 10.4-10 12.7-22.5 12.5-27.5-5.6 0-16.7 4-21.5 6l-14-11.5 6-16z" style="fill:#5185f7"/><path d="M467.8 130.9c5.2-13.1 18.8-19.7 24.5-19.3-.8 4-.2 11.9 2.1 17.5-1.1 2.2-6.5 8.9-4.4 16.8 2.3 8.6 17.9 24.8 39.7 29.7 4 .9 8 1.4 11.6 3 3.9 1.7 6.6 4.6 7.1 7.8.8 4.4-2.5 8.7-6.2 10.6-4.4 2.2-9.7 2.2-13.8 1.9-16.9-1.4-38.8-11.4-53.7-28.1-8.6-9.6-11.7-27.8-6.9-39.9zm54.2-58c9.9-7.9 15.2-9.2 19.8-11.3 3-1.4 4.3-4.3 6-6.6 9.3-12.7 25.8-29.9 40.8-34.4 4-.7 6.2-3.1 12.1-5.8 5.3-2.4 11.3-4.2 17.7-5.2L612 27.3c-.3.8.3 1.7 1.2 1.7.5 0 1-.3 1.2-.8l.6-1.6c2.6 1.9 5.2 4 7.7 6.2 4.1 3.5 8.7 7.4 11.4 12.4 4 7.3 1.4 12.8 1.4 13-1.5 4.6-3.1 9.2-5.3 13.4-2.5-.6-4.9-1.6-7-3.2-.5-.4-1.3-.3-1.8.2-.4.6-.3 1.3.2 1.8 2.2 1.6 4.6 2.8 7.2 3.4-4.9 7.8-12.4 11.3-20.4 11-2.7-.1-5-.9-8-.6-2.2-2.3-4.6-4.6-7-6.9-.5-.5-1.3-.4-1.8.1s-.4 1.3.1 1.8C604.4 91 615 104.4 623 119.3c3.7 6.9 3.2 7.1 4.1 7.4 1.8.6 4.1 1.5 5.7 3.2 1.2 1.3 2.1 3.4 1.4 5.3-.6 1.5-2.7 2.6-4 1.8-1.2-.7-2.5.9-1.6 1.9 1 1.1 1 3.3-.2 4.6-1.6 2-5.3.5-5.6-1.9-.2-1.3-2-1.5-2.4-.3-.9 2.4-3.6 4.1-6.3 3.6-2-.4-3.8-1.9-4.5-3.9-.7-2.1 1-5.1 2.9-6.5.6-.4.7-1.2.2-1.8-14.3-18.4-31.7-35-51.5-48.8-.6-.4-1.4-.2-1.7.3-.4.6-.2 1.3.3 1.7 2.6 1.8 5.1 3.7 7.7 5.6-27.5 4.6-48.4 1-60.5 26.4-.2.4-.1 1 .2 1.3l-10.2 8.4c-.3-.9-.8-1.4-1-1.9-6.7-17.9 11-40.8 26-52.8zm126.7-42.1c-1.7 10.6-4.1 15.1-6.5 19.4-.3.5-.5 1.4-3.3 4.3.2-2.7-.3-5.5-1.3-8.1l5.4-9.7s-6.5 2.1-9.2 3.2c-1.1-1.4-2.3-2.7-3.6-3.9 5.9-2.6 12.1-4.3 18.5-5.2zm13.5 86.7c.1.3.4.5.7.7 4.1 2 9.3 4.8 8.7 9.6-.2 1.8-2 3.7-3.9 3.5-.8-.1-1.5.6-1.4 1.4.2 1.6-.8 3.4-2.3 4.1-1.5.7-3.5.2-4.6-1.1-.8-1-2.5-.2-2.2 1.1.2.6-.2 1.2-.4 1.4-1.8 2-4.6.3-5.5-2.3-1-2.9.6-6.3-.3-9.7-.7-2.6-3.3-5.2-4.7-7.2-10.2-14.1-23.8-25.1-39-32 7.2.8 14.7-1.6 20.1-7.2 15.9 8 27.3 20.3 34.8 37.7zm-149 18.4c-.6.3-4.7 1.9-5.3 1.9-1.4 0-1.8-2-.4-2.4 15.2-5.1 29.9-16.1 39.2-30.9.4-.6 1.1-.8 1.7-.4.6.4.8 1.2.4 1.7-8.4 13.5-20.9 24.1-35.6 30.1zm34.3 83c-3.7-1.7-10-8.4-16.3-17.4 4.2.1 8.4-.3 12.1-2.3 4.5-2.3 8.5-7.7 7.5-13.3-.7-4-3.9-7.6-8.6-9.6-7.3-3.2-12.8-1.7-25.3-7.9 2.2-.8-.5-4.7 2.5-11.3 4.6-10.1 13.8-9.1 20.8-11.7 15.9-5.9 32.5-17.3 45.7-33 1-1.2 2.9-.7 3.1.9 1.3 8.6 10.8 20.4 16.4 27.2 7.2 14.2 4.9 20.6 1.9 35.1-2.5 9.5-6.4 18.8-11.6 27.5-10.2 17.1-30.9 23.8-48.2 15.8zm-62.7-35.4c2.2 9.3 5.2 18.5 7 27.9 2.5 13.4 1.8 28.5-6.9 39-4.6 5.6-11.1 9.4-12.9 16.6 2.2-.9 4.5-1.7 6.7-2.7 16.4-7.4 25.5-8.5 38.2-13.3 3-1.1 14.8-4.4 20.3-7 .6-.3 1.2-.3 1.8 0-.4 1.8 2.1 2.2 2.4.6.8-3.6 3.2-10.2 3.8-24.1.5.3.9.5 1.3.7 9.4 4.4 20.2 4.9 30.5 1 .5 8.4 4.6 21.4 5.8 27 .1.6.7 1 1.2 1 .8 0 1.4-.7 1.2-1.5-.3-1.3-.7-3.1-1.2-5.1.3-.2.7-.3 1.2-.2 13.3 1.7 26.3 4.9 39.2 8.6 6.2 1.8 14.1 3.2 20 6.7 1.3-9.1-3.1-17.3-8-25.1-8.5-13.8-11.5-20.1-10.3-35.8 0-.2 3.7-47.9 3.8-51.9 2-1.4 2.8-4 2.4-6.2 5.1-.5 7.2-7 2.9-11.6-1.8-1.9-4.2-3-6.2-3.7-6.2-13-14.2-24.8-23.6-35.4 15.2 6.7 29 17.6 39.1 31.7 1.4 1.9 3.8 4.3 4.3 6.3.7 2.8-.9 6.3.3 9.9 1.5 4.6 6.7 6.7 9.7 3.2.3-.3.5-.7.7-1.1 4.3 2.2 9-.6 9.5-5.1 2.6-.4 4.9-2.8 5.3-5.6.8-5.9-4.5-9.5-9.7-12-7.7-17.5-19.2-30-35.2-38.1 1-1.2 1.8-2.4 2.6-3.8 4.5.6 8.7-.2 12.2-2 .6-.3.9-1.1.5-1.7s-1.1-.9-1.7-.6c-3 1.5-6.4 2.1-9.7 1.9 2.1-4.2 3.6-8.6 5.1-13 .4-.2.3-.2 1.9-1.8 4.1-4.2 4-5 4.4-5.6 2.9-5.2 5.4-10.3 7-21.9.1-.8-.6-1.5-1.4-1.4-7.4.9-14.7 2.8-21.5 5.8-.1 0-.2.1-.2.2-2.5-2.3-8.3-7.2-12.2-10L622 8.7c.3-.9-.4-1.8-1.3-1.7-9.3 1.2-18.5 4.1-26.5 8.9-2.6 1.6-3.6 1.8-5.9 2.5-15.5 4.6-32.6 22.3-42 35.3-1.7 2.3-2.8 4.8-5.1 5.8-4.5 2.1-10.1 3.5-20.4 11.6-9.9 7.9-23.4 22.6-27.2 38.3-2.5-1-20.7 2.9-27.8 20.7-5.1 12.9-1.8 32.3 7.3 42.4 3.6 4.3 7.5 7.8 11.7 11z"/><path d="M558 192.2c1.2 3.7 4 8.6 8.4 10.8 2.2 1.1 4.9 1.6 7.9.9 3-.7 6.3-2.5 9.8-5.8l-1.3-1.5c-3.4 3.1-6.4 4.7-9 5.3-2.5.6-4.7.2-6.5-.7-3.7-1.9-6.2-6.2-7.4-9.7l-1.9.7zm26.2 6c.4-.4.4-1 .1-1.4-.4-.4-1-.4-1.4-.1l1.3 1.5zm-24.3-6.6c-.2-.5-.7-.8-1.3-.6-.5.2-.8.7-.6 1.3l1.9-.7zM573.3 163.5c-.4-.6-1.2-.7-1.8-.3s-.7 1.2-.3 1.8c3.2 4.5 6.3 9.1 9.1 13.9.9 1.5 1.7 3.1 1.2 4.4-.5 1.4-2.2 2.1-5.4 2.3-.7 0-1.2.6-1.2 1.3 0 .7.7 1.2 1.3 1.2 2.7-.2 6.4-.8 7.6-3.9.8-2.2-.2-4.5-1.4-6.5-2.8-4.9-5.9-9.7-9.1-14.2zM556.6 158.5c.7.1 1.3-.5 1.4-1.2s-.5-1.3-1.2-1.4c-5.9-.4-12 2.3-15.6 6.9-.4.6-.3 1.3.3 1.8s1.4.3 1.8-.2c3-3.9 8.3-6.3 13.3-5.9z"/><circle cx="552.5" cy="161.4" r="3.5"/><circle cx="586.5" cy="150.4" r="3.5"/><path d="M592.7 149.9c.5.5 1.3.4 1.8-.1s.4-1.3-.1-1.8c-6.2-5.5-16-3.4-19.3 4.2-.3.6 0 1.4.7 1.6.6.3 1.4 0 1.7-.6 2.5-6 10.3-7.7 15.2-3.3zM607.1 61.4c0 .9.2 3.7.7 4.5.2.3.5.6.9.5.2 0 0 .1 5.6-2.1-2-1.5-4-3.3-6.1-4.6-1.4-.7-1.1.6-1.1 1.7zM603.3 20.5s2.8 2.2 4.6 3.6c.2.2.5.5.7.5 1.2 0 .9-1.7 1.7-6.6l.6-3.6c0-.2.1-1.4.2-1.5-.6.5-7.1 5.5-8 6.5-.5.6-.4.6.2 1.1z"/><circle cx="605" cy="48.9" r="3"/><circle cx="625" cy="59.9" r="3"/><path d="M621.2 56.1c.9-.2 2.4-.2 3.7.4 1.3.6 2.5 1.8 3.1 4.3l2-.4c-.7-3.1-2.3-4.9-4.2-5.7-1.8-.8-3.8-.8-5-.5l.4 1.9zm6.8 4.7c.1.5.7.9 1.2.8s.9-.7.8-1.2l-2 .4zm-7.2-6.7c-.5.1-.9.7-.8 1.2s.7.9 1.2.8l-.4-2zM597.6 63c-1 1.7-1.5 4.6-.2 7.4 1.4 2.9 4.6 5.7 10.7 7.5l.6-1.9c-5.8-1.8-8.5-4.2-9.5-6.4s-.6-4.3.1-5.6l-1.7-1zm10.6 14.9c.5.2 1.1-.1 1.2-.7s-.1-1.1-.7-1.2l-.5 1.9zm-8.8-14c.3-.5.1-1.1-.4-1.4-.5-.3-1.1-.1-1.4.4l1.8 1zM601.2 45.1c.9-.2 2.4-.2 3.7.4 1.3.6 2.5 1.8 3.1 4.3l2-.4c-.7-3.1-2.3-4.9-4.2-5.7-1.8-.8-3.8-.8-5-.5l.4 1.9zm6.8 4.7c.1.5.7.9 1.2.8s.9-.7.8-1.2l-2 .4zm-7.2-6.7c-.5.1-.9.7-.8 1.2s.7.9 1.2.8l-.4-2z"/></g></g></switch></svg>