<svg width="73" height="77" viewBox="0 0 73 77" fill="none" xmlns="http://www.w3.org/2000/svg">
<path d="M70.8543 51.1095C74.5655 60.5462 70.1987 70.9032 61.2604 74.649C52.322 78.3949 42.1972 74.1105 38.4866 64.6745C35.9827 58.3075 36.749 52.8615 40.5485 48.0363C42.3802 45.71 46.3926 45.4556 49.2999 44.2374C52.2072 43.0192 55.2559 40.3141 58.1401 40.6637C64.1233 41.3893 68.3498 44.7432 70.8537 51.1101L70.8543 51.1095Z" fill="#D30300" stroke="black" stroke-width="0.893578" stroke-linecap="round" stroke-linejoin="round"/>
<path opacity="0.4" d="M63.1911 42.1054C61.9683 41.6318 60.6473 41.3107 59.2266 41.1385C56.3423 40.7888 53.2936 43.494 50.3863 44.7122C47.4784 45.931 43.466 46.1848 41.6344 48.511C37.8349 53.3369 37.0686 58.7829 39.5725 65.1492C41.3412 69.6463 44.5665 72.9727 48.4254 74.8176C44.0887 73.1044 40.4185 69.5885 38.4864 64.675C35.9825 58.3081 36.7494 52.8621 40.5489 48.0363C42.3805 45.71 46.3924 45.4562 49.3003 44.2374C52.2076 43.0192 55.2563 40.3141 58.1405 40.6637C59.9918 40.8883 61.6751 41.3643 63.1911 42.1042V42.1054Z" fill="white"/>
<path d="M70.8542 51.1098C74.5654 60.5464 70.1987 70.904 61.2609 74.6493C56.3667 76.7003 51.1165 76.3435 46.7578 74.0518C50.6011 75.4029 54.9165 75.3624 58.9855 73.6568C67.9238 69.911 72.2906 59.554 68.5794 50.1173C66.9492 45.9718 64.5878 43.1034 61.4866 41.4062C65.7286 42.8342 68.846 46.0028 70.8542 51.1092V51.1098Z" fill="#8C0000"/>
<path d="M70.8543 51.1095C74.5655 60.5462 70.1987 70.9032 61.2604 74.649C52.322 78.3949 42.1972 74.1105 38.4866 64.6745C35.9827 58.3075 36.749 52.8615 40.5485 48.0363C42.3802 45.71 46.3926 45.4556 49.2999 44.2374C52.2072 43.0192 55.2559 40.3141 58.1401 40.6637C64.1233 41.3893 68.3498 44.7432 70.8537 51.1101L70.8543 51.1095Z" stroke="black" stroke-width="0.893578" stroke-linecap="round" stroke-linejoin="round"/>
<path d="M44.8926 47.9614C45.8194 47.7987 46.7462 47.6724 47.6574 47.4586C49.4457 47.0541 51.1135 46.3786 52.671 45.3861C53.2591 45.0066 53.8292 44.5974 54.3965 44.175C54.5823 44.0249 54.7745 43.8796 54.9736 43.7396C55.0624 43.6693 55.1957 43.7098 55.2638 43.8307C55.3129 43.9177 55.3146 44.0207 55.2754 44.0934C55.1484 44.3281 55.0145 44.5575 54.8743 44.7821C54.5823 45.2199 54.2603 45.6262 53.914 46.0056C52.1551 47.8917 49.7106 48.8746 47.1836 48.7954C46.4317 48.7691 45.6728 48.6589 44.922 48.435C44.701 48.3688 44.675 47.9941 44.8926 47.9614Z" fill="#8C0000"/>
<path d="M44.8735 47.911C45.7865 47.7132 46.6977 47.5464 47.5985 47.307C49.3661 46.8495 51.0321 46.1703 52.6104 45.2303C53.2065 44.8711 53.7871 44.4887 54.3653 44.0943C54.5557 43.9555 54.7514 43.8203 54.9545 43.6886C55.0457 43.6231 55.1726 43.6487 55.2315 43.7464C55.2742 43.8167 55.2696 43.9037 55.2269 43.968C55.089 44.1747 54.9447 44.3773 54.7946 44.5762C54.4836 44.9652 54.1449 45.3298 53.7848 45.6729C51.956 47.3814 49.5144 48.3709 47.056 48.4674C46.3249 48.4942 45.592 48.4501 44.8741 48.3089C44.6629 48.2672 44.6606 47.9521 44.8741 47.9104L44.8735 47.911Z" fill="black"/>
<g opacity="0.3">
<path d="M45.8672 66.1436C43.2277 65.0517 41.6067 62.2006 41.4122 59.3043C41.1496 56.2965 42.9339 52.8211 46.004 52.4107C46.3699 52.3678 46.7005 52.64 46.7421 53.0177C46.7611 53.1649 46.7219 53.3025 46.6682 53.4323C46.5816 53.6665 46.4835 53.8553 46.3999 54.0763C46.0813 54.8197 45.817 55.668 45.6751 56.43C45.3167 58.3142 45.3571 60.0906 45.7703 62.0177C45.9174 62.7135 46.1246 63.4784 46.352 64.1825C46.4662 64.5662 46.6082 64.9313 46.7184 65.3239C46.8719 65.8464 46.3583 66.3378 45.8672 66.1436Z" fill="white"/>
</g>
<path d="M35.5085 58.1712C33.2972 68.0964 23.9607 73.9868 14.5595 71.7546C5.15833 69.5225 -0.747474 60.0138 1.46446 50.0886C2.95678 43.3917 6.61314 39.3879 12.4087 37.6895C15.2024 36.871 18.629 39.0412 21.687 39.7674C24.7449 40.4935 28.7452 40.0861 30.9121 42.0829C35.4064 46.2237 37.0014 51.4748 35.5091 58.1718L35.5085 58.1712Z" fill="#D30300" stroke="black" stroke-width="0.893578" stroke-linecap="round" stroke-linejoin="round"/>
<path opacity="0.4" d="M34.2451 46.2564C33.5076 45.1436 32.6045 44.0982 31.5375 43.1147C29.3712 41.1184 25.3703 41.5259 22.3124 40.7997C19.2538 40.0735 15.8277 37.9034 13.0341 38.7213C7.2391 40.4197 3.58217 44.4234 2.08985 51.1204C1.0361 55.8503 1.82555 60.4856 3.95842 64.2838C1.36158 60.311 0.313027 55.2564 1.4643 50.0886C2.95604 43.3917 6.61355 39.3879 12.4091 37.6895C15.2028 36.871 18.6289 39.0412 21.6868 39.7674C24.7447 40.4935 28.745 40.0861 30.912 42.0823C32.3027 43.3637 33.4159 44.7517 34.2457 46.2558L34.2451 46.2564Z" fill="white"/>
<path d="M35.5095 58.1708C33.2982 68.0966 23.9617 73.987 14.5605 71.7548C9.41297 70.5324 5.31284 67.1279 3.01953 62.6679C5.4144 66.0527 8.96977 68.5773 13.2494 69.593C22.6511 71.8251 31.9876 65.9347 34.199 56.0096C35.1708 51.649 34.8332 47.9014 33.2382 44.6738C35.917 48.3577 36.7064 52.7993 35.5095 58.1708Z" fill="#8C0000"/>
<path d="M35.5085 58.1712C33.2972 68.0964 23.9607 73.9868 14.5595 71.7546C5.15833 69.5225 -0.747474 60.0138 1.46446 50.0886C2.95678 43.3917 6.61314 39.3879 12.4087 37.6895C15.2024 36.871 18.629 39.0412 21.687 39.7674C24.7449 40.4935 28.7452 40.0861 30.9121 42.0829C35.4064 46.2237 37.0014 51.4748 35.5091 58.1718L35.5085 58.1712Z" stroke="black" stroke-width="0.893578" stroke-linecap="round" stroke-linejoin="round"/>
<path d="M55.4852 1.55223C54.9295 0.886821 53.9565 0.812357 53.3119 1.38543C51.4047 3.0975 49.8921 5.01152 48.7132 7.07506C32.3519 8.90925 24.9365 27.6491 20.7665 41.8955C20.5443 42.8356 21.796 43.1989 22.1053 42.3328C23.896 36.8648 25.9919 31.5081 28.7313 26.4881C32.6266 19.3568 38.3362 12.2381 46.4689 10.579C46.6848 10.5349 46.9012 10.495 47.1181 10.4587C42.8968 21.5169 46.2681 35.6727 49.7323 46.5254C50.0734 47.4267 51.3002 46.9817 51.0717 46.0893C49.4957 40.5516 48.2319 34.9233 47.6814 29.1896C46.9029 21.0421 47.6173 11.83 53.3523 5.65072C53.9548 5.00259 54.5988 4.39615 55.2792 3.83499C55.9624 3.27562 56.0576 2.23253 55.4869 1.55223H55.4852Z" fill="#6DB001" stroke="black" stroke-width="0.893578" stroke-miterlimit="10"/>
<path d="M55.4852 1.55223C54.9295 0.886821 53.9565 0.812357 53.3119 1.38543C51.4047 3.0975 49.8921 5.01152 48.7132 7.07506C32.3519 8.90925 24.9365 27.6491 20.7665 41.8955C20.5443 42.8356 21.796 43.1989 22.1053 42.3328C23.896 36.8648 25.9919 31.5081 28.7313 26.4881C32.6266 19.3568 38.3362 12.2381 46.4689 10.579C46.6848 10.5349 46.9012 10.495 47.1181 10.4587C42.8968 21.5169 46.2681 35.6727 49.7323 46.5254C50.0734 47.4267 51.3002 46.9817 51.0717 46.0893C49.4957 40.5516 48.2319 34.9233 47.6814 29.1896C46.9029 21.0421 47.6173 11.83 53.3523 5.65072C53.9548 5.00259 54.5988 4.39615 55.2792 3.83499C55.9624 3.27562 56.0576 2.23253 55.4869 1.55223H55.4852Z" fill="#6DB001" stroke="black" stroke-width="0.893578" stroke-miterlimit="10"/>
<g opacity="0.4">
<path d="M50.4872 46.8539C50.2662 46.7967 50.2264 46.8527 50.1121 46.5799C46.2416 35.6182 42.748 21.3289 47.0796 10.0194C47.135 10.0086 47.1909 9.99851 47.2463 9.98778C47.4933 9.94251 48.0162 9.90081 48.2643 9.86328C43.4584 21.2425 46.757 35.2423 50.4872 46.8533V46.8539Z" fill="white"/>
<path d="M55.7019 1.89357C55.1392 1.49564 54.3671 1.52006 53.8264 2.0014C51.9192 3.71347 50.4066 5.62749 49.2277 7.69103C32.8664 9.52522 25.4509 28.2651 21.2804 42.5115C21.2562 42.614 21.2498 42.7093 21.2579 42.7974C20.9238 42.7069 20.6508 42.3769 20.7645 41.8955C24.935 27.6491 32.3505 8.90925 48.7118 7.07506C49.8907 5.01152 51.4032 3.0975 53.3105 1.38543C53.9551 0.812357 54.928 0.886821 55.4838 1.55223C55.5726 1.65827 55.6453 1.77324 55.7019 1.89357Z" fill="white"/>
</g>
<path d="M16.0068 40.2031C16.8556 40.6195 17.6849 41.0651 18.5499 41.4302C20.239 42.1594 21.9801 42.5955 23.8071 42.7057C24.4996 42.7432 25.1938 42.7468 25.8938 42.7366C26.1293 42.7235 26.3676 42.7188 26.6088 42.7223C26.7208 42.7176 26.8073 42.8296 26.7958 42.969C26.7877 43.069 26.7317 43.1542 26.659 43.1912C26.4247 43.3079 26.1875 43.4169 25.9475 43.5176C25.465 43.7029 24.9751 43.8441 24.4811 43.9501C21.9922 44.4511 19.4438 43.8071 17.4189 42.244C16.8176 41.7769 16.2578 41.2372 15.7678 40.6082C15.6236 40.4229 15.8111 40.1012 16.0068 40.2031Z" fill="#8C0000"/>
<path d="M16.0179 40.1505C16.8748 40.5299 17.7139 40.9332 18.5847 41.271C20.7095 42.1253 22.9388 42.5571 25.2148 42.631C25.6851 42.6459 26.1542 42.6495 26.6298 42.6703C26.8369 42.6811 26.886 42.9849 26.688 43.0605C23.7998 44.1858 20.4325 43.7289 17.808 42.0985C17.0734 41.6511 16.393 41.1054 15.7969 40.4769C15.6463 40.3197 15.8223 40.057 16.0185 40.1505H16.0179Z" fill="black"/>
<path d="M55.4852 1.55223C54.9295 0.886821 53.9565 0.812357 53.3119 1.38543C51.4047 3.0975 49.8921 5.01152 48.7132 7.07506C32.3519 8.90925 24.9365 27.6491 20.7665 41.8955C20.5443 42.8356 21.796 43.1989 22.1053 42.3328C23.896 36.8648 25.9919 31.5081 28.7313 26.4881C32.6266 19.3568 38.3362 12.2381 46.4689 10.579C46.6848 10.5349 46.9012 10.495 47.1181 10.4587C42.8968 21.5169 46.2681 35.6727 49.7323 46.5254C50.0734 47.4267 51.3002 46.9817 51.0717 46.0893C49.4957 40.5516 48.2319 34.9233 47.6814 29.1896C46.9029 21.0421 47.6173 11.83 53.3523 5.65072C53.9548 5.00259 54.5988 4.39615 55.2792 3.83499C55.9624 3.27562 56.0576 2.23253 55.4869 1.55223H55.4852Z" stroke="black" stroke-width="0.893578" stroke-miterlimit="10"/>
<path d="M55.4852 1.55223C54.9295 0.886821 53.9565 0.812357 53.3119 1.38543C51.4047 3.0975 49.8921 5.01152 48.7132 7.07506C32.3519 8.90925 24.9365 27.6491 20.7665 41.8955C20.5443 42.8356 21.796 43.1989 22.1053 42.3328C23.896 36.8648 25.9919 31.5081 28.7313 26.4881C32.6266 19.3568 38.3362 12.2381 46.4689 10.579C46.6848 10.5349 46.9012 10.495 47.1181 10.4587C42.8968 21.5169 46.2681 35.6727 49.7323 46.5254C50.0734 47.4267 51.3002 46.9817 51.0717 46.0893C49.4957 40.5516 48.2319 34.9233 47.6814 29.1896C46.9029 21.0421 47.6173 11.83 53.3523 5.65072C53.9548 5.00259 54.5988 4.39615 55.2792 3.83499C55.9624 3.27562 56.0576 2.23253 55.4869 1.55223H55.4852Z" stroke="black" stroke-width="0.893578" stroke-miterlimit="10"/>
<g opacity="0.3">
<path d="M6.77885 56.6124C5.12668 54.223 5.25191 50.9197 6.60169 48.3725C7.95205 45.6936 11.2708 43.7611 14.0702 45.1247C14.4009 45.2927 14.5371 45.7055 14.3743 46.0468C14.3132 46.1815 14.2081 46.2756 14.0956 46.3548C13.9006 46.5037 13.7188 46.608 13.5335 46.7474C12.8768 47.196 12.2109 47.7631 11.6932 48.3254C10.4069 49.7122 9.51246 51.2307 8.85344 53.0834C8.61396 53.7512 8.38832 54.5107 8.21231 55.2303C8.10786 55.6169 8.03688 56.0035 7.92435 56.3949C7.78008 56.9203 7.09163 57.0478 6.77943 56.6106L6.77885 56.6124Z" fill="white"/>
</g>
</svg>
