<svg width="500" height="250" viewBox="0 0 500 250" fill="none" xmlns="http://www.w3.org/2000/svg">
<rect width="500" height="250" fill="white"/>
<circle cx="202.667" cy="124.667" r="92.6807" stroke="black" stroke-width="3.97203"/>
<circle cx="297.333" cy="124.667" r="92.6807" stroke="black" stroke-width="3.97203"/>
<mask id="path-4-inside-1_94_6504" fill="white">
<path fill-rule="evenodd" clip-rule="evenodd" d="M250 206.668C278.296 190.299 297.334 159.706 297.334 124.665C297.334 89.6251 278.296 59.0313 250 42.6631C221.704 59.0313 202.666 89.6251 202.666 124.665C202.666 159.706 221.704 190.299 250 206.668Z"/>
</mask>
<path fill-rule="evenodd" clip-rule="evenodd" d="M250 206.668C278.296 190.299 297.334 159.706 297.334 124.665C297.334 89.6251 278.296 59.0313 250 42.6631C221.704 59.0313 202.666 89.6251 202.666 124.665C202.666 159.706 221.704 190.299 250 206.668Z" fill="#76E15C"/>
<path d="M250 206.668L248.011 210.106L250 211.256L251.989 210.106L250 206.668ZM250 42.6631L251.989 39.2249L250 38.0744L248.011 39.2249L250 42.6631ZM293.362 124.665C293.362 158.23 275.13 187.542 248.011 203.229L251.989 210.106C281.462 193.057 301.306 161.181 301.306 124.665H293.362ZM248.011 46.1013C275.13 61.7888 293.362 91.1003 293.362 124.665H301.306C301.306 88.1499 281.462 56.2739 251.989 39.2249L248.011 46.1013ZM206.638 124.665C206.638 91.1003 224.869 61.7888 251.989 46.1013L248.011 39.2249C218.538 56.2739 198.694 88.1499 198.694 124.665H206.638ZM251.989 203.229C224.869 187.542 206.638 158.23 206.638 124.665H198.694C198.694 161.181 218.538 193.057 248.011 210.106L251.989 203.229Z" fill="black" mask="url(#path-4-inside-1_94_6504)"/>
</svg>
