<svg width="84" height="75" viewBox="0 0 84 75" fill="none" xmlns="http://www.w3.org/2000/svg">
<path d="M27.373 13.3577L38.9494 13.053C38.9494 13.053 48.8502 13.2055 57.0756 18.0795C65.3009 22.9538 73.3738 32.5499 73.3738 32.5499C73.3738 32.5499 79.1621 40.7753 79.3142 41.2321C79.4667 41.6892 80.5328 44.4307 80.5328 44.4307C80.5328 44.4307 73.8306 40.4703 69.4135 40.6228C64.9963 40.7753 56.3138 40.6228 53.2673 38.9474C50.2209 37.2721 43.2141 34.0731 43.2141 34.0731L27.3726 19.4502L24.3262 12.748L27.3726 13.3573L27.373 13.3577Z" fill="white"/>
<path d="M21.7969 13.1582C21.7969 13.1582 33.2135 13.3121 40.3345 14.2111C47.4555 15.11 56.8609 19.1125 64.6973 26.1837C72.5338 33.2549 77.9715 42.8093 77.9715 42.8093C77.9715 42.8093 72.0213 40.251 65.5308 40.6423C59.0404 41.0336 48.8722 37.4918 44.9011 34.9334C40.048 31.8069 32.9963 23.2014 30.3878 20.416C27.7797 17.6307 21.7969 13.1582 21.7969 13.1582Z" fill="#61A520"/>
<path d="M64.7546 35.9805C56.4889 34.9475 48.5264 32.119 41.539 27.5633C39.5681 26.2782 37.6803 24.8688 35.897 23.3345C35.7136 23.1764 35.5116 23.1997 35.3637 23.3098C34.1886 22.2099 33.0167 21.108 31.827 20.0318C29.1486 17.6089 26.3518 15.3016 23.2566 13.4264C22.7441 13.1159 22.1574 13.8515 22.6765 14.1725C25.7425 16.069 28.4916 18.3738 31.1484 20.7908C31.1651 20.834 29.9292 21.2344 29.9622 21.2768C32.0648 23.9762 34.7126 26.3357 37.2737 28.5883C37.1598 28.7801 38.1148 28.8198 38.3164 29.0155C42.2907 32.8662 46.9638 35.9746 52.047 38.1632C53.4905 38.7846 54.9653 39.3285 56.4673 39.7905C56.8757 39.9162 57.7033 40.0262 57.6845 39.708C58.4981 39.9764 58.8014 39.7518 59.6272 39.9816C60.0541 40.1003 60.9193 40.6414 60.8831 40.3173C62.3836 40.7908 63.3484 40.304 64.8567 40.7497C65.46 40.9279 65.8496 40.0213 65.2355 39.8326C58.8216 37.8613 52.2834 35.9231 46.5213 32.3878C44.5642 31.187 42.7385 29.817 40.9834 28.3571C46.0443 31.6831 51.6421 34.161 57.5316 35.6682C59.8608 36.2643 62.2325 36.7117 64.623 36.9721C65.2612 37.0417 65.396 36.0609 64.7546 35.9809V35.9805Z" fill="#407F08"/>
<path d="M81.7363 45.0039C76.6674 35.5401 70.3099 26.3946 61.4164 20.153C57.4341 17.3583 53.0121 15.1649 48.3042 13.9062C45.9478 13.2764 43.5347 12.8826 41.0976 12.7629C38.2147 12.6215 35.3306 12.8165 32.4474 12.8273C26.3681 12.8499 20.3445 11.6157 14.7826 9.15485C14.3547 8.96545 14.0424 9.43512 14.1709 9.77737C13.9463 10.0148 13.9275 10.4389 14.3234 10.5691C14.7043 10.6944 15.0844 10.8219 15.465 10.9489C15.2568 10.9155 15.0479 10.8842 14.8373 10.8581C14.2398 10.7839 14.1145 11.7097 14.714 11.7866C19.7185 12.4269 24.0462 15.3135 27.6734 18.6733C31.7424 22.4422 35.0374 26.9509 39.0155 30.81C42.791 34.4723 47.2531 37.3113 52.2385 39.02C54.6171 39.8354 57.0773 40.3859 59.5736 40.6804C61.8398 40.9478 64.1206 41.0464 66.3966 41.1888C71.3102 41.4958 76.5637 42.0038 80.5324 45.2229C80.6177 45.2922 80.7065 45.3243 80.7918 45.3291C80.7998 45.3437 80.8078 45.3584 80.8158 45.3733C81.1149 45.9301 82.0372 45.5666 81.736 45.0046L81.7363 45.0039ZM68.5601 40.3653C63.8111 39.9677 59.0245 39.9705 54.4033 38.6597C49.356 37.2277 44.7132 34.6311 40.8134 31.1272C36.5972 27.3388 33.2269 22.7371 29.1855 18.7764C26.9871 16.6216 24.5207 14.6245 21.7974 13.158C28.6782 15.6652 35.4423 18.4811 42.0543 21.6404C44.6064 22.8596 47.1281 24.1381 49.6436 25.4308C50.2034 25.7188 50.5617 24.8236 50.0158 24.5305C41.9286 20.1857 33.4905 16.4419 24.8985 13.2005C26.4886 13.4679 28.0936 13.6465 29.7053 13.7304C32.4916 13.8756 35.278 13.7061 38.065 13.6761C40.6954 13.6479 43.3077 13.8276 45.8879 14.354C55.6759 16.3507 64.114 22.4714 70.5272 29.942C74.1074 34.1127 77.1232 38.7276 79.8016 43.5201C76.4756 41.3872 72.4762 40.693 68.5608 40.3653H68.5601Z" fill="#193506"/>
<path d="M10.8457 11.8407C10.8457 11.8407 17.3212 11.8713 26.221 10.7283C35.1208 9.58529 40.6155 4.3005 56.8219 2.88661C73.0282 1.47271 82.1223 5.37773 82.1223 5.37773C82.1223 5.37773 71.3678 16.9803 54.5375 18.0109C37.7073 19.0414 18.0203 14.2845 18.0203 14.2845L10.8457 11.8407Z" fill="#61A520"/>
<path d="M81.828 5.20303C80.7874 6.07587 79.714 6.90555 78.6117 7.69275C72.2462 11.681 65.0194 13.9681 57.6195 15.0714C56.7341 15.2034 55.8473 15.3182 54.9591 15.4196C58.337 14.6529 61.6697 13.6864 64.9341 12.5173C66.9001 11.8133 68.8634 11.0605 70.7571 10.1783C71.3344 9.90916 70.998 8.99419 70.4002 9.24487C67.0244 10.6619 63.6361 11.9881 60.1256 13.0395C56.6056 14.0934 53.0206 14.9158 49.3951 15.5118C48.2709 15.6967 47.1435 15.8589 46.0134 15.9993C41.6652 16.095 37.3069 15.961 32.968 15.7667C28.6752 15.5745 24.2524 15.4432 20.2026 13.8521C19.6466 13.6338 19.2744 14.4851 19.8335 14.7069C23.4499 16.141 27.3382 16.4689 31.1879 16.6653C31.4281 16.6775 31.6683 16.689 31.9086 16.7008C31.965 16.7576 32.0381 16.8025 32.129 16.8282C38.837 18.7383 45.8895 19.2783 52.8193 18.5224C57.8339 17.9754 62.7827 16.7534 67.4763 14.8956C67.8565 14.7932 68.2364 14.6891 68.6155 14.5819C68.79 14.5324 68.8882 14.4245 68.9258 14.2978C70.2105 13.747 71.4743 13.1485 72.7124 12.5016C76.1717 10.6943 79.4393 8.52869 82.4196 6.00694C82.907 5.59471 82.3217 4.78871 81.828 5.20303Z" fill="#407F08"/>
<path d="M83.1596 5.15595C83.2188 4.94322 83.1506 4.70473 82.8825 4.60307C73.4082 1.00583 63.1367 -0.84501 53.0131 0.374261C47.8492 0.996431 42.8972 2.5381 38.0382 4.34473C33.1389 6.16632 28.3011 8.20448 23.2346 9.53099C17.6142 11.0023 11.5805 11.6221 5.92459 9.98186C5.355 9.81648 4.97167 10.6681 5.55275 10.8432C5.59036 10.8547 5.62831 10.8648 5.66591 10.8759C5.57156 11.0138 5.54301 11.1862 5.62865 11.3334C5.35848 11.5437 5.3926 12.113 5.84278 12.2282C16.8479 15.04 28.0713 17.1199 39.3494 18.4698C44.6729 19.1069 50.0318 19.4178 55.3653 18.7187C60.2142 18.0829 64.9764 16.7394 69.4458 14.7559C74.4284 12.5447 79.0659 9.55048 83.0848 5.86447C83.3118 5.65626 83.2933 5.35963 83.16 5.1563L83.1596 5.15595ZM8.2848 11.5002C8.28236 11.5075 8.28027 11.5148 8.27819 11.5221C8.19497 11.5006 8.11176 11.4779 8.02925 11.4532C8.11455 11.4696 8.1995 11.4849 8.2848 11.5006V11.5002ZM56.7475 17.4963C51.5369 18.3406 46.2981 18.2166 41.0645 17.6505C35.505 17.0492 29.965 16.1952 24.4612 15.2113C21.0885 14.6083 17.7298 13.9367 14.3829 13.2097C15.0869 13.2323 15.7881 13.2403 16.4761 13.2567C19.4052 13.3274 22.3364 13.3013 25.2637 13.1763C31.0965 12.9273 36.9185 12.3212 42.6723 11.3306C45.9102 10.7736 49.1262 10.0968 52.3168 9.31373C52.9035 9.16994 52.5602 8.29605 51.9815 8.4367C40.858 11.1385 29.4031 12.4201 17.9582 12.2853C16.3633 12.2665 14.7634 12.2404 13.1713 12.1373C12.3876 12.0865 11.608 12.0026 10.8466 11.8404C19.236 12.5468 27.6393 9.38824 35.4099 6.41352C40.3069 4.539 45.2442 2.67389 50.4263 1.75543C55.4517 0.864477 60.5958 0.774302 65.6633 1.33798C71.2945 1.96433 76.829 3.36917 82.1235 5.37738C75.0279 11.7206 66.148 15.9727 56.7475 17.4963Z" fill="#193506"/>
<path d="M3.89676 8.90257C-1.04126 16.0821 1.51566 30.9919 2.19597 37.9155C2.87629 44.8391 1.1755 45.4985 1.1755 55.3891C1.1755 65.2798 16.4808 77.8081 32.4668 74.1817C48.4524 70.5552 53.5544 53.4112 52.1938 47.147C50.8331 40.8829 33.1471 25.7172 31.4463 22.0903C29.7455 18.4639 21.923 9.56199 17.1611 7.58407C12.3993 5.6058 5.25703 6.92464 3.89641 8.90291L3.89676 8.90257Z" fill="#2F6A02"/>
<path d="M42.8582 62.6591C48.2053 60.3115 50.9321 54.0825 52.4024 49.5267C52.4118 48.6271 52.3408 47.8228 52.1939 47.1463C50.8332 40.8821 34.0695 25.1169 31.4464 22.0896C28.8954 19.1459 21.9231 9.56128 17.1612 7.58336C13.5306 6.07511 10.16 4.57383 5.73551 7.63976C0.208048 13.5102 7.14731 35.5716 8.53509 38.6939C10.16 42.3497 8.53509 50.0674 13.0031 56.16C17.2594 61.9642 26.2044 69.9706 42.8582 62.6591Z" fill="#FDFF9F"/>
<path d="M52.1937 47.146C51.6677 44.7238 48.7006 40.9709 45.1612 37.0691C45.4223 38.798 46.1336 45.6792 41.8282 50.1949C37.9946 52.1261 33.6206 52.9245 29.3423 52.4416C24.8625 50.1468 20.8189 46.9211 17.2986 43.3214C17.0974 43.1156 16.8982 42.9078 16.6994 42.6996C15.6671 40.9737 13.8323 38.7953 11.9059 36.449C11.1789 33.8872 10.4502 31.3261 9.7156 28.7664C8.61226 24.9206 7.30595 21.0441 6.94456 17.0385C6.89059 16.441 6.86169 15.8404 6.86065 15.2402C7.30386 13.9307 8.02839 12.7473 8.97958 11.698C9.04573 11.6249 9.11571 11.5549 9.18325 11.4831C11.6476 10.0968 14.413 9.3214 17.237 9.20789C21.7419 11.0751 25.1309 14.9672 27.6032 16.6269C25.0327 13.5822 21.7088 10.3109 18.9256 8.53141C18.8532 8.35176 18.692 8.20448 18.45 8.19717C18.4256 8.19648 18.4009 8.19613 18.3765 8.19578C17.9546 7.95067 17.5479 7.74386 17.1611 7.58336C13.5304 6.07511 10.1599 4.57383 5.73538 7.63976C3.65788 9.84608 3.34175 14.3391 3.82953 19.2545L4.26996 20.0093C4.41096 18.3162 4.94505 16.1332 5.91295 14.1153C5.89623 14.3729 5.88544 14.6306 5.87987 14.8885C5.82242 15.0584 5.76881 15.2308 5.72006 15.4063C5.13758 17.504 5.26536 19.7193 5.56095 21.8515C5.88126 24.1626 6.32831 26.4619 6.71268 28.7632C6.76456 29.0745 6.81748 29.3854 6.87005 29.6967C6.06718 28.3869 5.43283 27.1056 5.08257 25.8989V26.8818C6.3015 32.4649 7.93578 37.3458 8.53532 38.6939C10.1602 42.3497 8.53532 50.0674 13.0033 56.16C17.2596 61.9642 26.2047 69.9706 42.8584 62.6591C48.2055 60.3115 50.9323 54.0825 52.4026 49.5267C52.412 48.6271 52.341 47.8228 52.1941 47.1463L52.1937 47.146ZM14.7299 8.46213C13.7393 8.63412 12.7638 8.88549 11.8143 9.21416C12.2098 8.92658 12.612 8.64805 13.0183 8.37787C13.5614 8.34201 14.1317 8.36742 14.7299 8.46213ZM10.2469 9.16751C9.63691 9.65424 9.05478 10.1706 8.51826 10.7245C8.28186 10.8617 8.04859 11.0048 7.8181 11.1527C8.51791 10.345 9.32565 9.65772 10.2469 9.16785V9.16751ZM7.1834 11.956C7.26313 11.8456 7.34495 11.737 7.42781 11.6297C7.42537 11.7234 7.45253 11.8174 7.50057 11.8999C7.35539 12.0893 7.21508 12.2825 7.08173 12.4806C7.11168 12.3052 7.14614 12.1304 7.18305 11.956H7.1834ZM8.2352 31.7456C7.72444 28.9074 7.20916 26.0695 6.75864 23.2222C6.60057 22.2237 6.45643 21.2105 6.38192 20.1942C6.48498 20.7311 6.59953 21.2659 6.72382 21.7975C7.69972 25.972 9.01196 30.081 10.1988 34.1991C10.2201 34.2729 10.2417 34.3464 10.2629 34.4202C9.56031 33.5355 8.87304 32.6394 8.2352 31.7456ZM17.7338 45.1545C20.462 47.8242 23.4294 50.2314 26.6876 52.1745C26.4477 52.4102 26.4811 52.9238 26.916 53.0244C27.5622 53.1737 28.2143 53.2918 28.8699 53.3816C29.3935 53.649 29.9241 53.9049 30.4627 54.1472C23.63 53.6173 19.0429 48.3712 17.7342 45.1545H17.7338ZM36.7652 53.3165C35.5038 53.7371 34.2918 53.9916 33.131 54.1107C32.6847 53.946 32.2429 53.7701 31.8042 53.5863C34.0342 53.5968 36.2631 53.2803 38.4029 52.6553C37.8936 52.8997 37.3494 53.1215 36.7652 53.3161V53.3165Z" fill="#EAED83"/>
<path d="M28.1268 73.7346C24.4794 72.6073 20.8916 71.2992 17.3817 69.8056C15.5901 68.3137 13.9098 66.6885 12.3626 64.9442C9.52051 60.2276 7.4458 55.0751 6.26726 49.6831C6.17639 49.267 5.71821 49.2883 5.48459 49.5368C5.41809 48.6215 5.3885 47.7038 5.40138 46.7853C5.40207 46.7376 5.3965 46.6941 5.38641 46.6544C5.31016 43.7441 4.7437 40.832 4.1083 37.9816C4.1257 37.7135 4.14276 37.4454 4.16017 37.1774C4.17758 36.9135 4.00802 36.73 3.80922 36.6582C3.78624 36.5576 3.76326 36.457 3.74029 36.3567C2.92802 32.8055 2.02105 29.2671 1.54824 25.6493C1.46956 25.0484 0.52847 25.11 0.60611 25.7137C1.06604 29.2925 1.91033 32.7999 2.70659 36.3146C2.85769 36.9813 3.00218 37.647 3.1397 38.3131C2.96179 40.9205 2.77517 43.5275 2.60109 46.1349C2.50395 47.5917 2.40682 49.0487 2.30933 50.5054C2.21254 51.9566 2.07119 53.4144 2.0691 54.8697C2.06736 56.2703 2.27451 57.6449 2.79502 58.9505C3.26678 60.1336 3.92064 61.2421 4.62114 62.3026C5.98212 64.3631 7.60839 66.255 9.43138 67.9199C11.3344 69.6576 13.468 71.161 15.7565 72.3507C16.0448 72.5975 16.3379 72.8381 16.637 73.0703C17.1349 73.4568 17.7602 72.735 17.2752 72.3197C17.1349 72.1996 16.9963 72.0777 16.8577 71.9562C16.8236 71.8416 16.7446 71.7365 16.6077 71.6665C16.5461 71.6348 16.4859 71.6011 16.4246 71.569C15.7109 70.9228 15.025 70.253 14.3677 69.5594C15.1747 69.932 15.9863 70.2941 16.802 70.6464C17.1067 70.8999 17.4141 71.1495 17.7254 71.3946C19.017 72.4116 20.3637 73.3537 21.7554 74.2287C22.3065 74.5751 22.7347 73.6598 22.1909 73.3147C21.5907 72.9338 21.0002 72.5376 20.4184 72.1292C22.89 73.0891 25.3978 73.9554 27.9384 74.7192C28.5585 74.9058 28.7354 73.9223 28.1261 73.7339L28.1268 73.7346ZM8.80677 60.3853C8.25667 59.5783 7.73338 58.7538 7.23516 57.9133C6.6861 56.357 6.25403 54.76 5.95043 53.1428C5.83658 52.5363 5.74223 51.9263 5.6632 51.3146C6.42254 54.4303 7.47539 57.4715 8.80677 60.3853ZM13.7855 68.1974C13.8492 68.1654 13.9074 68.1219 13.9551 68.0693C14.0909 68.2026 14.2277 68.3349 14.3649 68.4669C14.1716 68.3774 13.9784 68.2879 13.7855 68.1974Z" fill="#407F08"/>
<path d="M25.2558 27.9688C25.245 27.965 25.2338 27.9615 25.223 27.9577C25.1457 27.7982 24.9884 27.684 24.7554 27.7087C24.6722 27.7175 24.5883 27.7251 24.5044 27.7331C23.9059 27.5674 23.2977 27.4546 22.6717 27.4097C21.9196 27.3561 21.0754 27.3143 20.3623 27.6019C19.0125 28.1464 18.1668 29.8259 17.7344 31.1242C16.6624 34.3444 17.484 37.8407 18.954 40.7966C19.2301 41.3516 20.1558 41.0612 19.8874 40.4787C19.1994 38.9854 18.6145 37.4121 18.3712 35.8004C18.6514 35.8749 19.002 35.7559 19.0368 35.4175C19.2092 33.74 19.8745 32.2088 20.645 30.7266C20.8362 30.359 21.0304 29.9924 21.231 29.6299C21.4451 29.2428 21.6154 29.0816 22.0774 29.0182C22.9004 28.905 23.7318 28.8344 24.5587 28.7484C24.6534 28.7773 24.7474 28.8079 24.8411 28.8399C25.4197 29.0391 25.8442 28.1763 25.2561 27.9688H25.2558ZM19.1639 30.3217C18.8234 31.1208 18.5574 31.9459 18.367 32.7906C18.4063 32.5493 18.4554 32.3073 18.517 32.0657C18.6584 31.5083 18.8718 30.8934 19.1643 30.3221L19.1639 30.3217Z" fill="#EAED83"/>
<path d="M52.6618 52.2332C52.6656 52.2112 52.6698 52.1893 52.6736 52.1674C53.168 50.6462 53.1958 49.1537 52.9086 47.7137C53.011 47.6976 53.1064 47.643 53.1753 47.5364C53.849 46.4968 53.3275 45.0286 52.0814 44.7504C52.0069 44.7337 51.9393 44.7334 51.878 44.7452C51.2775 43.511 50.5031 42.3349 49.6693 41.2361C49.6916 41.149 49.6912 41.0536 49.6637 40.9575C49.6052 40.7518 49.5314 40.5498 49.4635 40.3472C49.3817 40.1021 49.0837 39.9419 48.8365 40.0387C48.8065 40.0506 48.778 40.0648 48.7512 40.0812C48.5437 39.8305 48.3355 39.5844 48.1276 39.3438C48.0973 39.3086 48.0663 39.2738 48.036 39.2386C48.1053 39.1694 48.1569 39.0799 48.1823 38.9786C48.2954 38.5256 48.113 38.0685 47.7899 37.7488C47.4574 37.4198 47.0044 37.3178 46.5581 37.4177C46.5226 37.4257 46.4902 37.439 46.4599 37.4564C43.7341 34.4312 40.8757 31.5278 38.05 28.5966C37.8543 28.3937 37.6597 28.1896 37.4644 27.9867C37.5768 27.681 37.5316 27.3401 37.323 27.0623C37.0682 26.7225 36.6316 26.5303 36.2169 26.6803C35.9826 26.4335 35.7476 26.1877 35.5143 25.9398C35.6988 25.8597 35.8068 25.6689 35.8099 25.459C35.8231 24.5597 34.9576 23.8191 34.0795 23.8978C33.9392 23.9103 33.8341 23.9692 33.762 24.0521C31.8593 21.9714 30.0151 19.8382 28.292 17.6044C26.7841 15.6495 25.4882 13.4954 23.7697 11.7131C23.2426 11.1665 22.6733 10.6578 22.0766 10.1791C22.055 9.90648 21.9248 9.6464 21.7176 9.44133C21.4527 9.17917 21.0425 9.03885 20.678 9.13947C20.5443 9.04686 20.4103 8.9546 20.2752 8.86408C20.3162 8.78539 20.3396 8.69522 20.341 8.60086C20.3549 7.6831 19.3515 7.03308 18.51 7.30221C18.3505 7.35304 18.2572 7.4561 18.2165 7.57587C18.1489 7.53583 18.0814 7.49544 18.0138 7.45575C15.8333 6.17451 13.4017 5.13976 10.8312 5.15021C10.7522 5.15021 10.6731 5.15438 10.5941 5.15647C10.5663 5.10703 10.5273 5.05934 10.474 5.01582C9.85565 4.5075 8.8418 4.60881 8.37909 5.28425C8.32686 5.3605 8.29274 5.44615 8.27916 5.53214C8.03057 5.60804 7.78581 5.69439 7.54628 5.79327C7.42964 5.75706 7.2956 5.77064 7.16295 5.8629C7.01463 5.9663 6.87188 6.07424 6.73331 6.186C6.15188 6.51292 5.61571 6.91819 5.14882 7.40736C5.01268 7.38995 4.8675 7.42929 4.74669 7.55428C4.65338 7.65072 4.56216 7.74786 4.47233 7.8457C4.42777 7.75169 4.35605 7.67301 4.25508 7.63993C4.02007 7.56229 3.80629 7.54767 3.57964 7.66082C3.39233 7.75448 3.24749 7.90488 3.15035 8.09046C2.96339 8.44837 3.00308 8.94938 3.35194 9.19727C3.35577 9.20005 3.35995 9.2018 3.36378 9.20423C2.89515 9.85147 2.48571 10.5252 2.12954 11.2211C2.11526 11.2257 2.10064 11.2305 2.08601 11.2365C1.30265 11.5564 0.852817 12.4509 1.16477 13.2617C1.17905 13.2993 1.19645 13.3331 1.2163 13.3634C-0.610866 18.6022 -0.0447511 24.7338 0.75359 30.1369C0.712855 30.1641 0.67386 30.1992 0.637651 30.2442C0.132465 30.8736 0.331963 31.8046 1.03212 32.19C1.04291 32.196 1.05371 32.2008 1.06485 32.2054C1.69468 36.4147 2.24861 40.6278 1.80922 44.8942C1.79286 45.0537 1.77545 45.2135 1.7577 45.3733C1.64559 45.3465 1.5192 45.3663 1.39491 45.4579C0.389758 46.1977 0.286353 47.7715 1.24555 48.5924C1.15293 48.5851 1.05406 48.6046 0.955525 48.6614C0.0955592 49.1582 0.206972 50.4443 1.01054 50.9178C1.03491 50.9321 1.05997 50.9425 1.08609 50.9509C0.84655 53.5294 0.835757 56.1051 1.59824 58.6394C2.85058 62.8014 5.77029 66.2423 8.87104 69.2051C8.71959 69.6835 8.86408 70.2388 9.24845 70.5734C9.69062 70.9585 10.4023 70.9613 10.8584 70.603C11.1564 70.7956 11.4589 70.9797 11.7639 71.1601C11.6588 71.3523 11.6769 71.6406 11.8684 71.7715C12.3207 72.0817 12.8251 72.1813 13.3589 72.0427C13.3638 72.0413 13.3683 72.0396 13.3732 72.0378C18.8811 74.8043 25.2978 75.6817 31.3642 74.4656C32.3732 74.2633 33.362 73.999 34.3288 73.6805C34.8598 74.0189 35.6961 73.8295 35.9252 73.2035C35.9391 73.1648 35.9481 73.1255 35.9541 73.0861C38.9361 71.8777 41.6678 70.126 44.0353 67.9549C44.1554 68.035 44.3076 68.0663 44.443 68.0078C45.1905 67.6851 45.6563 67.0375 45.7416 66.2468C46.8864 64.999 47.9236 63.645 48.8351 62.2001C50.265 59.9332 51.3652 57.4574 52.0772 54.875C52.9779 54.5471 53.5503 53.4396 53.1116 52.5256C53.0169 52.3282 52.8393 52.2398 52.6621 52.2332H52.6618ZM51.211 54.1578C51.134 54.2584 51.103 54.3897 51.1149 54.5175C49.632 59.928 46.4153 64.8447 42.0347 68.3706C36.3109 72.9775 28.8428 74.8144 21.6062 73.6714C17.4999 73.0228 13.5667 71.4637 10.2045 69.006C10.1429 68.9611 10.0792 68.9329 10.0162 68.919C7.18384 66.2158 4.42011 63.2258 2.96757 59.5283C1.26818 55.203 2.117 50.6797 2.66466 46.2193C2.94633 43.9256 3.06679 41.6371 2.93345 39.3281C2.79871 36.9947 2.46377 34.6787 2.11004 32.3704C1.46385 28.1527 0.721559 23.9051 1.01471 19.6217C1.25529 16.1062 2.1654 12.5692 4.21051 9.70002C3.71542 10.9095 3.42575 12.2204 3.27987 13.5176C2.8753 17.1086 3.28231 20.8409 3.89438 24.3842C4.5827 28.3707 5.81242 32.1754 7.15076 35.9826C7.81402 37.8697 8.46787 39.7602 9.00334 41.6883C9.47232 43.3773 9.8553 45.0874 10.2748 46.7889C11.0815 50.0606 12.0585 53.3981 14.0705 56.1552C16.0937 58.9277 19.0357 60.8624 22.1782 62.1555C28.8682 64.9084 36.7816 65.3092 43.2944 61.8543C46.1065 60.3625 48.568 58.1868 50.2918 55.5035C50.6901 54.8838 51.0508 54.2282 51.3624 53.5478C51.3147 53.7519 51.2642 53.9555 51.2117 54.1582L51.211 54.1578ZM50.1807 53.622C48.8107 56.3297 46.6371 58.5739 44.0907 60.202C38.1471 64.0018 30.5763 64.0474 24.059 61.7781C21.0307 60.7235 18.1012 59.1634 15.8994 56.79C13.6701 54.3866 12.4979 51.251 11.6522 48.1374C10.7504 44.8173 10.0875 41.4544 8.99569 38.1854C7.78372 34.5565 6.38863 30.9951 5.50812 27.2642C4.66104 23.6753 4.15655 19.9562 4.13113 16.2654C4.11164 13.4856 4.46224 10.3664 6.21072 8.0908C6.5185 7.69041 6.86457 7.32832 7.24651 7.00349C8.28264 6.43667 9.47754 6.15814 10.6749 6.12716C12.9129 6.06901 15.0576 6.93559 16.9808 8.00655C18.4097 8.80245 19.8351 9.69549 21.14 10.716C21.1856 10.7971 21.2549 10.8657 21.3465 10.9092C21.3681 10.9196 21.3907 10.9263 21.4137 10.9329C21.8294 11.2682 22.2325 11.6167 22.6173 11.9801C24.3745 13.6398 25.6275 15.7591 27.0786 17.6744C32.7022 25.0962 39.6362 31.3645 45.8402 38.276C47.3808 39.9924 49.1411 41.9442 50.3973 44.0844C50.3869 44.1812 50.407 44.2856 50.4701 44.3901C52.1862 47.2179 51.6082 50.8033 50.1814 53.6227L50.1807 53.622Z" fill="#193506"/>
<path d="M5.1717 57.1873C4.85104 56.9895 4.50392 57.2984 4.46318 57.6138C4.45135 57.6406 4.44125 57.6691 4.43359 57.7001C4.26264 58.3888 4.53212 59.145 5.10972 59.5614C5.35414 59.7376 5.71832 59.7038 5.85514 59.402C6.2235 58.5893 5.92617 57.6524 5.17205 57.1873H5.1717Z" fill="#193506"/>
<path d="M24.5534 69.0198C24.1443 68.6901 23.5828 68.6633 23.2095 69.0606C23.1688 69.1038 23.1409 69.1549 23.1221 69.2089C23.1127 69.2232 23.1023 69.2368 23.0939 69.2521C22.5846 70.2137 24.12 71.1931 24.7763 70.3223C25.0927 69.9028 24.9441 69.3349 24.5534 69.0202V69.0198Z" fill="#193506"/>
<path d="M38.6995 67.9067C38.6601 67.2908 38.1936 66.7679 37.5578 66.7637C36.951 66.7595 36.3497 67.2271 36.2881 67.8475C36.2794 67.9342 36.2905 68.0199 36.3173 68.0982C36.3103 68.1581 36.3142 68.2225 36.3333 68.2907C36.491 68.8614 37.0968 69.2245 37.6745 69.1664C38.3071 69.103 38.7395 68.5282 38.6995 67.9067Z" fill="#193506"/>
<path d="M45.8965 62.5948C45.7343 62.3775 45.4589 62.3267 45.2287 62.4677C44.9224 62.655 44.7121 62.9767 44.6445 63.327C44.6055 63.5296 44.7155 63.7705 44.9112 63.8534C45.1225 63.9429 45.3259 63.8858 45.4871 63.7302C45.6107 63.6107 45.7423 63.4976 45.8575 63.3702C45.955 63.2622 45.986 63.1167 45.9623 62.9802C45.9947 62.8479 45.9773 62.7027 45.8965 62.5948Z" fill="#193506"/>
<path d="M4.65899 33.0147C4.56011 32.9764 4.44661 32.9538 4.34111 32.9802C4.23249 32.9722 4.11585 32.9914 4.02951 33.0599C3.90521 33.1581 3.81574 33.2779 3.78336 33.436C3.76107 33.5435 3.77082 33.6671 3.80703 33.7705C3.89929 34.0338 4.14475 34.2054 4.42363 34.1957C4.7039 34.1859 4.91802 33.9565 4.98139 33.6978C5.04476 33.4387 4.91802 33.1153 4.65934 33.015L4.65899 33.0147Z" fill="#193506"/>
<path d="M14.5227 65.1813C14.162 64.8985 13.5687 64.8571 13.2007 65.152C13.011 65.3042 12.9243 65.5479 13.0416 65.7742C13.0524 65.7951 13.0656 65.8153 13.0799 65.8351C13.0799 65.8355 13.0795 65.8361 13.0795 65.8365C12.941 66.3159 13.3083 66.7933 13.7574 66.9214C14.1992 67.0474 14.6592 66.7866 14.8235 66.3667C14.9882 65.9469 14.8834 65.4643 14.5223 65.1813H14.5227Z" fill="#193506"/>
<path d="M2.52538 21.3963C2.52538 21.139 2.25311 20.912 2.00208 20.9398C1.72286 20.9712 1.54564 21.1884 1.54564 21.4631C1.54564 21.6623 1.5258 21.8746 1.55504 22.0717C1.5909 22.3116 1.75558 22.5003 2.00696 22.5156C2.23675 22.5295 2.47315 22.3673 2.50866 22.1288C2.54418 21.89 2.52538 21.6368 2.52538 21.3959V21.3963Z" fill="#193506"/>
<path d="M21.7362 30.1626C18.6333 32.3174 17.4712 39.5049 21.5332 44.9885C25.5952 50.4721 35.7498 52.7062 39.6085 47.4256C41.67 44.6044 42.0457 37.88 36.9684 32.8027C32.7277 28.5621 25.3919 27.6238 21.7362 30.1626Z" fill="#AF6804"/>
<path d="M37.4157 32.6308C35.4601 30.7302 32.9432 29.4455 30.302 28.809C27.4523 28.1225 24.2001 28.08 21.5074 29.3532C21.4451 29.3828 21.395 29.4211 21.3525 29.4636C21.1586 29.4253 20.9458 29.4925 20.8313 29.7202C20.4298 30.5182 20.0371 31.3402 19.7763 32.189C18.3948 35.0158 18.3583 38.4842 19.431 41.4707C20.9608 45.7288 24.6273 49.013 28.9042 50.3761C31.0544 51.0613 33.3993 51.2601 35.6171 50.7967C38.1817 50.2608 39.9859 48.4462 40.8476 46.0119C42.4881 41.3778 40.8828 36.0004 37.4154 32.6305L37.4157 32.6308ZM30.481 49.74C26.498 48.8947 22.899 46.2201 20.998 42.611C19.9382 40.5986 19.4703 38.1493 19.7346 35.8228C20.1054 37.2026 20.7244 38.5615 21.3316 39.8302C22.6981 42.6858 24.5013 45.3879 26.945 47.4345C28.1117 48.4114 29.4135 49.2174 30.8145 49.8068C30.7024 49.7856 30.591 49.7637 30.4813 49.7403L30.481 49.74ZM38.7304 47.8087C38.0431 45.3984 36.4464 43.401 34.8821 41.4958C33.1535 39.3905 31.3326 37.3648 29.4463 35.4001C29.0281 34.9646 28.4227 35.6822 28.8377 36.1163C30.6603 38.0218 32.3987 40.0078 34.0605 42.0546C35.5736 43.9183 37.0968 45.8395 37.7858 48.1774C37.8398 48.3606 37.9589 48.4619 38.096 48.4981C37.7646 48.8024 37.3938 49.066 36.9802 49.2759C36.7389 49.3984 36.4879 49.5029 36.2309 49.5938C31.9318 48.1102 28.9519 44.6147 26.3995 40.9979C26.0541 40.5088 25.2864 41.0282 25.629 41.5219C27.9324 44.8396 30.6878 48.3104 34.4525 49.9882C33.6357 50.0781 32.7966 50.0641 31.984 49.9785C32.2396 49.7644 32.2974 49.3274 31.9012 49.1781C26.2759 47.0577 22.6616 41.6006 20.8494 36.093C20.5183 35.0868 20.3268 34.1154 20.5475 33.0619C20.5855 32.8805 20.6321 32.7015 20.6854 32.5247C20.7324 32.4296 20.7825 32.3363 20.833 32.243C20.8926 32.9202 21.082 33.596 21.3323 34.2352C21.9419 35.7918 22.7796 37.2942 23.5588 38.7714C23.8039 39.2359 24.6214 38.8341 24.3933 38.355C23.751 37.0062 23.0108 35.6982 22.428 34.3219C21.9179 33.1172 21.5067 31.75 22.0787 30.5102C22.2476 30.3305 22.4245 30.1564 22.6125 29.9907C22.6668 29.9705 22.7222 29.9531 22.7768 29.934C22.8301 29.9354 22.8865 29.9277 22.946 29.9079C24.6785 29.333 26.4771 30.0151 28.032 30.7911C29.5096 31.5289 30.9141 32.4084 32.2072 33.4368C34.7993 35.4987 36.944 38.1534 38.1988 41.2333C38.9181 42.9985 39.3098 44.8396 39.4156 46.7385C39.2185 47.1173 38.9905 47.4773 38.7304 47.8094V47.8087ZM40.3504 43.8125C40.309 44.0705 40.2578 44.3309 40.1965 44.5913C39.1677 38.1757 34.2837 32.9125 28.5894 30.0074C28.1083 29.762 27.6079 29.5297 27.0948 29.3327C30.0493 29.4521 33.0428 30.538 35.3034 32.1956C38.9076 34.8379 41.0687 39.3285 40.3501 43.8128L40.3504 43.8125Z" fill="#893F03"/>
<path d="M25.6227 31.5976C25.4727 31.2979 25.1144 31.2025 24.822 31.3487C24.6963 31.4117 24.5897 31.5029 24.5274 31.6328C24.47 31.7529 24.4463 31.9092 24.4877 32.0412C24.5009 32.0962 24.5229 32.1498 24.5539 32.2038C24.6329 32.3403 24.7885 32.4315 24.9407 32.459C25.1015 32.4879 25.2523 32.4447 25.3912 32.3664C25.4925 32.3093 25.583 32.2062 25.6325 32.1011C25.7091 31.9374 25.7025 31.7578 25.6227 31.598V31.5976Z" fill="#D38220"/>
<path d="M29.3317 39.8666C29.2663 39.7242 29.1984 39.5835 29.1263 39.4443C29.073 39.3416 28.9244 39.2611 28.8158 39.2402C28.6988 39.218 28.5491 39.2434 28.4519 39.3158C28.3513 39.391 28.2667 39.4982 28.2479 39.6264C28.2455 39.6678 28.243 39.7089 28.2402 39.7503C28.2465 39.8377 28.274 39.9174 28.3231 39.9902C28.375 40.0915 28.4303 40.189 28.4871 40.2875C28.5424 40.3843 28.6828 40.4713 28.7917 40.4874C28.8972 40.5027 28.9954 40.4898 29.0915 40.4418C29.1831 40.3958 29.2694 40.3216 29.3108 40.2245C29.3564 40.1173 29.3826 39.9766 29.3317 39.8662V39.8666Z" fill="#D38220"/>
<path d="M26.0224 35.5645C26.0144 35.5241 26.0061 35.4833 25.9981 35.443C25.9692 35.3601 25.9215 35.2898 25.855 35.2327C25.8038 35.1822 25.753 35.1317 25.7018 35.0812C25.6548 35.038 25.6008 35.0095 25.5399 34.9952C25.4828 34.9712 25.4229 34.9625 25.3599 34.9688C25.2951 34.9709 25.2356 34.9883 25.1813 35.0217C25.1207 35.0457 25.0699 35.0837 25.0288 35.1359C24.9543 35.2316 24.9024 35.3535 24.9163 35.4774C24.9243 35.5178 24.9327 35.5582 24.9407 35.5986C24.9696 35.6815 25.0169 35.7511 25.0834 35.8085L25.2349 35.9617C25.2822 36.0049 25.3362 36.0338 25.3971 36.0481C25.4542 36.0721 25.5145 36.0811 25.5775 36.0745C25.6426 36.0724 25.7021 36.055 25.7564 36.0216C25.817 35.9976 25.8679 35.9596 25.9093 35.9074C25.9838 35.8113 26.036 35.6891 26.0221 35.5648L26.0224 35.5645Z" fill="#D38220"/>
<path d="M36.2113 39.2461C36.1437 39.1043 36.0723 38.9647 36.0013 38.8251C35.9491 38.7224 35.7983 38.6416 35.6907 38.6211C35.5738 38.5988 35.4241 38.6242 35.3269 38.6967C35.2263 38.7719 35.1417 38.8791 35.1229 39.0072C35.1205 39.0486 35.118 39.0897 35.1152 39.1312C35.1215 39.2185 35.149 39.2983 35.1981 39.371C35.2493 39.4724 35.3005 39.5737 35.3541 39.6736C35.407 39.7718 35.5553 39.8606 35.6632 39.8766C35.7705 39.8922 35.8701 39.879 35.9672 39.8306C36.0602 39.7843 36.1479 39.7084 36.1897 39.6099C36.2356 39.502 36.2638 39.3571 36.2109 39.2464L36.2113 39.2461Z" fill="#D38220"/>
<path d="M35.6904 32.5846C35.6395 32.483 35.5887 32.3816 35.5379 32.28C35.487 32.1783 35.3359 32.0982 35.2301 32.078C35.1142 32.0561 34.9655 32.0808 34.8694 32.1529C34.7695 32.2274 34.6859 32.3339 34.6675 32.4607C34.665 32.5018 34.6626 32.5425 34.6602 32.5836C34.6664 32.6703 34.6939 32.7493 34.7423 32.8214C34.7932 32.923 34.844 33.0243 34.8948 33.126C34.9457 33.2277 35.0968 33.3078 35.2026 33.3279C35.3185 33.3499 35.4672 33.3248 35.5633 33.2531C35.6632 33.1786 35.7468 33.072 35.7652 32.9453C35.7677 32.9042 35.7701 32.8635 35.7725 32.8224C35.7663 32.7357 35.7388 32.6567 35.6904 32.5846Z" fill="#D38220"/>
</svg>
