<?xml version="1.0" encoding="utf-8"?>
<!-- Generator: Adobe Illustrator 27.0.0, SVG Export Plug-In . SVG Version: 6.00 Build 0)  -->
<svg version="1.1" id="Layer_1" xmlns="http://www.w3.org/2000/svg" xmlns:xlink="http://www.w3.org/1999/xlink" x="0px" y="0px"
	 viewBox="0 0 1300 400" style="enable-background:new 0 0 1300 400;" xml:space="preserve">
<style type="text/css">
	.st0{clip-path:url(#SVGID_00000106854179767464859810000004083018993577121923_);fill:#FFFFFF;}
	.st1{clip-path:url(#SVGID_00000106854179767464859810000004083018993577121923_);}
	.st2{fill:#FEFCEB;}
	.st3{fill:#FF85AD;}
	.st4{clip-path:url(#SVGID_00000155837264515664441510000002554100236944714676_);fill:#18292D;}
	.st5{filter:url(#Adobe_OpacityMaskFilter);}
	.st6{mask:url(#SVGID_00000036233609358711609940000005560868452465757581_);}
	.st7{clip-path:url(#SVGID_00000082363625667442947150000009661206105745007499_);fill:#FFFFFF;}
	.st8{clip-path:url(#SVGID_00000082363625667442947150000009661206105745007499_);}
	.st9{clip-path:url(#SVGID_00000082363625667442947150000009661206105745007499_);fill:#486758;}
	.st10{clip-path:url(#SVGID_00000124161318303954002800000013784342988337930682_);}
	.st11{clip-path:url(#SVGID_00000082363625667442947150000009661206105745007499_);fill:#87AB99;}
	.st12{clip-path:url(#SVGID_00000145741429029285792810000006319468599731781005_);}
	.st13{clip-path:url(#SVGID_00000150786392419553511910000015689918795961914762_);}
	.st14{clip-path:url(#SVGID_00000082363625667442947150000009661206105745007499_);fill:#E9EAEC;}
	.st15{clip-path:url(#SVGID_00000085939788700989728110000003377810427379346584_);}
	.st16{clip-path:url(#SVGID_00000036947693338234441580000013297600103011149449_);fill:#18292D;}
	.st17{fill:#F8D512;}
	.st18{clip-path:url(#SVGID_00000008853807949645887080000003751996017762521740_);}
	.st19{fill:#87AB99;}
	.st20{fill:#82B958;}
	.st21{fill:#EC732E;}
	.st22{fill-rule:evenodd;clip-rule:evenodd;fill:#FFD7B1;}
	.st23{fill-rule:evenodd;clip-rule:evenodd;}
	.st24{fill-rule:evenodd;clip-rule:evenodd;fill:#FFFFFF;}
	.st25{clip-path:url(#SVGID_00000035505161935702255270000017318707951301727148_);}
	.st26{fill:#486758;}
	.st27{clip-path:url(#SVGID_00000016077627744689087800000016993650728591614368_);}
	.st28{clip-path:url(#SVGID_00000010989984657808523470000017260697458277785222_);}
	.st29{clip-path:url(#SVGID_00000023255950598069089390000003589307227432114599_);}
	.st30{fill:#E9EAEC;}
	.st31{fill:#FFFFFF;}
	.st32{clip-path:url(#SVGID_00000075148863020385327130000000554423215050917026_);}
</style>
<g>
	<defs>
		<rect id="SVGID_1_" x="-0.7" y="0" width="1300" height="400"/>
	</defs>
	<clipPath id="SVGID_00000070819271776464048820000001246142976373284799_">
		<use xlink:href="#SVGID_1_"  style="overflow:visible;"/>
	</clipPath>
	
		<rect style="clip-path:url(#SVGID_00000070819271776464048820000001246142976373284799_);fill:#FFFFFF;" width="1300" height="400"/>
	<g style="clip-path:url(#SVGID_00000070819271776464048820000001246142976373284799_);">
		<path class="st2" d="M216.66,329.16c104.4,82,309.83,56.83,397.5,42.5c-26.83-15.83-32.8-38,158,0s301.5,15,350.5-29.5
			s86.5-209.5-49.5-279.5s-278.67-44.5-333-23c-42,14.33-167,36.8-331,12c-164-24.8-243.33,42-262.5,78.5
			C127.82,156.66,112.26,247.16,216.66,329.16z"/>
		<path d="M648.19,354.17c-0.58-0.07-1.19-0.07-1.82,0.01l-0.26-1.98c0.81-0.11,1.57-0.1,2.31-0.01L648.19,354.17z M653.76,356.1
			c-0.33-0.14-0.66-0.28-0.97-0.42c-0.32-0.14-0.63-0.27-0.93-0.4l0.78-1.84c0.32,0.13,0.63,0.27,0.95,0.41
			c0.32,0.14,0.63,0.27,0.95,0.41L653.76,356.1z M656.13,357.06c-0.79-0.31-1.58-0.63-2.37-0.96l0.78-1.84
			c0.77,0.32,1.54,0.63,2.31,0.93L656.13,357.06z M665.79,360.26c-1.63-0.46-3.25-0.95-4.87-1.48l0.62-1.9
			c1.58,0.52,3.18,1,4.79,1.46L665.79,360.26z M675.63,362.72c-1.64-0.37-3.29-0.76-4.93-1.17l0.48-1.94
			c1.62,0.4,3.25,0.79,4.89,1.16L675.63,362.72z M683.05,364.32c-0.82-0.17-1.65-0.34-2.47-0.52l0.41-1.96
			c0.82,0.17,1.64,0.35,2.47,0.52L683.05,364.32z M685.88,364.88c-0.94-0.18-1.89-0.36-2.84-0.56l0.41-1.96
			c0.94,0.2,1.87,0.38,2.8,0.55L685.88,364.88z M697.33,366.52c-1.9-0.19-3.81-0.42-5.74-0.69l0.28-1.98
			c1.9,0.27,3.78,0.5,5.65,0.68L697.33,366.52z M708.89,367.11c-1.92-0.01-3.85-0.06-5.79-0.16l0.1-2c1.91,0.1,3.8,0.15,5.69,0.16
			L708.89,367.11z M720.45,366.62c-1.92,0.17-3.85,0.29-5.77,0.38l-0.08-2c1.9-0.08,3.79-0.2,5.68-0.37L720.45,366.62z
			 M731.91,365.14c-1.91,0.32-3.81,0.61-5.71,0.86l-0.26-1.98c1.87-0.24,3.75-0.53,5.64-0.85L731.91,365.14z M743.22,362.82
			c-1.89,0.45-3.77,0.87-5.63,1.25l-0.4-1.96c1.85-0.38,3.7-0.79,5.57-1.24L743.22,362.82z M754.36,359.85
			c-1.87,0.54-3.72,1.06-5.55,1.55l-0.52-1.93c1.82-0.49,3.65-1,5.51-1.54L754.36,359.85z M765.35,356.42
			c-1.85,0.61-3.67,1.2-5.48,1.76l-0.6-1.91c1.8-0.56,3.61-1.15,5.45-1.75L765.35,356.42z M773.53,353.64
			c-0.91,0.32-1.82,0.63-2.72,0.94l-0.65-1.89c0.9-0.31,1.8-0.62,2.71-0.94L773.53,353.64z M776.38,352.63
			c-0.96,0.34-1.91,0.68-2.85,1.01l-0.66-1.89c0.94-0.33,1.88-0.66,2.84-1.01L776.38,352.63z M787.76,348.35
			c-1.9,0.75-3.8,1.48-5.67,2.18l-0.7-1.87c1.86-0.7,3.75-1.43,5.64-2.17L787.76,348.35z M799.01,343.73
			c-1.87,0.8-3.74,1.59-5.61,2.35l-0.76-1.85c1.85-0.76,3.72-1.54,5.58-2.34L799.01,343.73z M810.11,338.78
			c-1.84,0.86-3.68,1.7-5.53,2.52l-0.82-1.83c1.84-0.82,3.67-1.66,5.5-2.51L810.11,338.78z M821.05,333.45
			c-1.8,0.92-3.62,1.82-5.45,2.71l-0.87-1.8c1.82-0.88,3.62-1.78,5.41-2.69L821.05,333.45z M831.78,327.72
			c-1.75,0.99-3.53,1.96-5.34,2.92l-0.94-1.76c1.79-0.96,3.56-1.92,5.3-2.9L831.78,327.72z M842.24,321.49
			c-1.69,1.07-3.43,2.14-5.2,3.19l-1.02-1.72c1.76-1.04,3.47-2.1,5.15-3.16L842.24,321.49z M852.31,314.62
			c-1.6,1.18-3.26,2.35-4.97,3.52l-1.12-1.65c1.69-1.15,3.33-2.31,4.9-3.47L852.31,314.62z M861.77,306.86
			c-1.45,1.34-2.99,2.67-4.62,4l-1.27-1.55c1.6-1.3,3.11-2.61,4.52-3.92L861.77,306.86z M870.05,297.75
			c-1.16,1.59-2.47,3.18-3.92,4.76l-1.47-1.35c1.41-1.53,2.67-3.06,3.78-4.59L870.05,297.75z M875.4,286.5
			c-0.41,1.98-1.12,3.96-2.1,5.94l-1.79-0.89c0.91-1.85,1.56-3.67,1.93-5.46L875.4,286.5z M874.85,277.01
			c0.36,1.03,0.61,2.07,0.77,3.12l-1.98,0.29c-0.14-0.93-0.36-1.85-0.68-2.76L874.85,277.01z M873.64,274.11
			c0.45,0.93,0.86,1.89,1.21,2.9l-1.89,0.65c-0.32-0.93-0.69-1.82-1.11-2.67L873.64,274.11z M865.69,264.59
			c1.66,1.26,3.19,2.69,4.53,4.28l-1.53,1.29c-1.24-1.48-2.66-2.8-4.21-3.98L865.69,264.59z M854.65,259.09
			c1.99,0.6,3.92,1.35,5.75,2.26l-0.88,1.79c-1.73-0.85-3.56-1.57-5.45-2.14L854.65,259.09z M842.49,257.23
			c2.05,0.03,4.1,0.2,6.14,0.51l-0.3,1.98c-1.94-0.29-3.91-0.46-5.87-0.48L842.49,257.23z M830.29,258.76
			c1.95-0.55,3.98-0.95,6.05-1.2l0.24,1.99c-1.98,0.24-3.91,0.63-5.76,1.14L830.29,258.76z M821.77,262.46
			c0.87-0.55,1.78-1.05,2.72-1.52l0.88,1.8c-0.88,0.43-1.73,0.9-2.53,1.41L821.77,262.46z M819.07,264.33
			c0.85-0.65,1.75-1.27,2.7-1.87l1.07,1.69c-0.9,0.57-1.75,1.16-2.56,1.77L819.07,264.33z M810.46,274.22
			c1.03-1.92,2.28-3.72,3.77-5.42l1.5,1.32c-1.39,1.58-2.56,3.27-3.51,5.05L810.46,274.22z M806.85,286.81
			c0.2-2.24,0.58-4.4,1.15-6.46l1.93,0.54c-0.54,1.94-0.9,3.97-1.09,6.1L806.85,286.81z M807.04,296.58
			c-0.12-1.1-0.21-2.18-0.27-3.24l2-0.11c0.06,1.03,0.14,2.07,0.26,3.13L807.04,296.58z M807.5,299.9
			c-0.18-1.08-0.33-2.18-0.46-3.32l1.99-0.22c0.12,1.1,0.27,2.17,0.44,3.21L807.5,299.9z M811.58,312.68
			c-1.01-1.96-1.86-4.03-2.55-6.25l1.91-0.6c0.66,2.11,1.46,4.08,2.41,5.92L811.58,312.68z M819.84,323.28
			c-1.72-1.56-3.25-3.19-4.61-4.92l1.57-1.24c1.28,1.64,2.74,3.19,4.38,4.67L819.84,323.28z M827.89,329.29
			c-0.97-0.61-1.9-1.22-2.79-1.84l1.14-1.64c0.87,0.6,1.77,1.2,2.71,1.79L827.89,329.29z M830.54,330.85
			c-0.89-0.49-1.77-1.01-2.66-1.56l1.06-1.69c0.85,0.53,1.7,1.03,2.56,1.51L830.54,330.85z M841.93,335.49
			c-1.96-0.54-3.9-1.2-5.83-1.98l0.75-1.85c1.85,0.76,3.72,1.39,5.61,1.91L841.93,335.49z M854.03,337.48
			c-2.05-0.13-4.08-0.36-6.1-0.69l0.32-1.97c1.95,0.32,3.92,0.53,5.91,0.67L854.03,337.48z M866.25,337.34
			c-2.05,0.16-4.08,0.26-6.1,0.29l-0.03-2c1.97-0.03,3.96-0.13,5.97-0.28L866.25,337.34z M878.33,335.86
			c-2.02,0.32-4.02,0.61-6.02,0.86l-0.25-1.98c1.97-0.25,3.95-0.54,5.95-0.86L878.33,335.86z M887.29,334.28
			c-1,0.19-1.99,0.37-2.98,0.55l-0.36-1.97c0.99-0.18,1.97-0.36,2.97-0.55L887.29,334.28z M890.29,333.66c-0.99,0.23-2,0.43-3,0.62
			l-0.37-1.97c0.98-0.18,1.96-0.39,2.93-0.61L890.29,333.66z M901.97,330.1c-1.9,0.73-3.83,1.4-5.78,1.99l-0.58-1.91
			c1.9-0.58,3.79-1.23,5.65-1.94L901.97,330.1z M913.06,324.99c-1.8,0.97-3.61,1.88-5.46,2.73l-0.84-1.82
			c1.8-0.83,3.58-1.73,5.34-2.68L913.06,324.99z M923.44,318.58c-1.68,1.17-3.37,2.28-5.1,3.35l-1.05-1.7
			c1.69-1.04,3.36-2.14,5.01-3.29L923.44,318.58z M933.08,311.13c-1.55,1.32-3.13,2.61-4.73,3.85l-1.22-1.58
			c1.57-1.22,3.13-2.48,4.66-3.79L933.08,311.13z M941.99,302.84c-1.43,1.45-2.89,2.86-4.36,4.24l-1.36-1.46
			c1.46-1.36,2.89-2.75,4.3-4.18L941.99,302.84z M950.2,293.87c-1.32,1.55-2.66,3.07-4.03,4.56l-1.48-1.35
			c1.35-1.47,2.67-2.98,3.98-4.51L950.2,293.87z M957.76,284.35c-1.21,1.63-2.44,3.24-3.7,4.82l-1.57-1.24
			c1.24-1.57,2.46-3.16,3.66-4.77L957.76,284.35z M964.7,274.37c-1.11,1.7-2.24,3.38-3.39,5.04l-1.64-1.14
			c1.14-1.65,2.26-3.31,3.36-4.99L964.7,274.37z M971.03,264.01c-1,1.75-2.04,3.5-3.09,5.23l-1.71-1.04
			c1.05-1.71,2.07-3.44,3.06-5.18L971.03,264.01z M976.78,253.31c-0.91,1.8-1.84,3.6-2.8,5.39l-1.76-0.95
			c0.95-1.77,1.88-3.56,2.78-5.34L976.78,253.31z M981.94,242.33c-0.8,1.84-1.64,3.68-2.5,5.52l-1.81-0.85
			c0.86-1.82,1.68-3.65,2.48-5.47L981.94,242.33z M986.51,231.06c-0.7,1.88-1.44,3.77-2.2,5.67l-1.85-0.75
			c0.76-1.88,1.49-3.75,2.18-5.62L986.51,231.06z M990.42,219.55c-0.59,1.91-1.21,3.84-1.87,5.78l-1.89-0.64
			c0.65-1.92,1.27-3.83,1.85-5.72L990.42,219.55z M993.59,207.83c-0.45,1.94-0.95,3.9-1.49,5.89l-1.93-0.52
			c0.53-1.96,1.02-3.91,1.47-5.82L993.59,207.83z M995.89,195.88c-0.29,1.96-0.63,3.96-1.02,6l-1.96-0.38
			c0.39-2.01,0.73-3.98,1.01-5.91L995.89,195.88z M997.01,183.71c-0.06,1.97-0.19,4.01-0.39,6.11l-1.99-0.19
			c0.19-2.06,0.32-4.06,0.38-5.98L997.01,183.71z M996.33,171.46c0.31,1.92,0.52,3.97,0.63,6.11l-2,0.1
			c-0.11-2.08-0.31-4.05-0.61-5.89L996.33,171.46z M993.73,162.56c0.42,0.91,0.81,1.88,1.15,2.89l-1.9,0.64
			c-0.32-0.95-0.67-1.84-1.06-2.68L993.73,162.56z M648.42,352.19c0.55,0.06,0.94,0.56,0.88,1.11s-0.56,0.94-1.11,0.88
			L648.42,352.19z M651.86,355.28c-0.51-0.21-0.75-0.8-0.53-1.31c0.21-0.51,0.8-0.75,1.31-0.53L651.86,355.28z M656.85,355.19
			c0.52,0.2,0.77,0.78,0.57,1.29s-0.78,0.77-1.29,0.57L656.85,355.19z M660.93,358.77c-0.52-0.17-0.81-0.74-0.64-1.26
			c0.17-0.52,0.74-0.81,1.26-0.64L660.93,358.77z M666.34,358.33c0.53,0.15,0.84,0.7,0.69,1.23c-0.15,0.53-0.7,0.84-1.23,0.69
			L666.34,358.33z M670.7,361.56c-0.54-0.13-0.86-0.68-0.73-1.21c0.13-0.54,0.68-0.86,1.21-0.73L670.7,361.56z M676.07,360.77
			c0.54,0.12,0.88,0.66,0.76,1.2c-0.12,0.54-0.66,0.88-1.2,0.76L676.07,360.77z M680.58,363.8c-0.54-0.11-0.89-0.65-0.77-1.19
			c0.11-0.54,0.65-0.89,1.19-0.77L680.58,363.8z M686.25,362.91c0.54,0.1,0.9,0.62,0.8,1.17c-0.1,0.54-0.62,0.9-1.17,0.8
			L686.25,362.91z M691.59,365.83c-0.55-0.08-0.93-0.59-0.85-1.13c0.08-0.55,0.59-0.93,1.13-0.85L691.59,365.83z M697.53,364.53
			c0.55,0.05,0.95,0.54,0.9,1.09c-0.05,0.55-0.54,0.95-1.09,0.9L697.53,364.53z M703.1,366.95c-0.55-0.03-0.98-0.5-0.95-1.05
			c0.03-0.55,0.5-0.98,1.05-0.95L703.1,366.95z M708.9,365.11c0.55,0,1,0.45,1,1c0,0.55-0.45,1-1,1L708.9,365.11z M714.67,367
			c-0.55,0.02-1.02-0.4-1.04-0.96c-0.02-0.55,0.4-1.02,0.96-1.04L714.67,367z M720.27,364.63c0.55-0.05,1.04,0.36,1.08,0.91
			c0.05,0.55-0.36,1.04-0.91,1.08L720.27,364.63z M726.19,366c-0.55,0.07-1.05-0.31-1.12-0.86s0.31-1.05,0.86-1.12L726.19,366z
			 M731.57,363.17c0.54-0.09,1.06,0.27,1.15,0.82c0.09,0.54-0.27,1.06-0.82,1.15L731.57,363.17z M737.58,364.07
			c-0.54,0.11-1.07-0.24-1.18-0.78c-0.11-0.54,0.24-1.07,0.78-1.18L737.58,364.07z M742.75,360.87c0.54-0.13,1.08,0.2,1.2,0.74
			c0.13,0.54-0.2,1.08-0.74,1.2L742.75,360.87z M748.81,361.4c-0.53,0.14-1.08-0.17-1.22-0.71c-0.14-0.53,0.17-1.08,0.71-1.22
			L748.81,361.4z M753.8,357.93c0.53-0.15,1.09,0.15,1.24,0.68c0.15,0.53-0.15,1.09-0.68,1.24L753.8,357.93z M759.87,358.18
			c-0.53,0.16-1.09-0.13-1.25-0.66s0.13-1.09,0.66-1.25L759.87,358.18z M764.72,354.52c0.52-0.17,1.09,0.11,1.26,0.64
			c0.17,0.52-0.11,1.09-0.64,1.26L764.72,354.52z M770.81,354.58c-0.52,0.18-1.09-0.1-1.27-0.62s0.1-1.09,0.62-1.27L770.81,354.58z
			 M775.7,350.75c0.52-0.19,1.09,0.08,1.28,0.6c0.19,0.52-0.08,1.09-0.6,1.28L775.7,350.75z M782.09,350.53
			c-0.52,0.19-1.09-0.07-1.29-0.58c-0.19-0.52,0.07-1.09,0.58-1.29L782.09,350.53z M787.03,346.49c0.51-0.2,1.09,0.05,1.3,0.56
			s-0.05,1.09-0.56,1.3L787.03,346.49z M793.4,346.08c-0.51,0.21-1.1-0.03-1.3-0.55c-0.21-0.51,0.03-1.1,0.55-1.3L793.4,346.08z
			 M798.22,341.89c0.51-0.22,1.1,0.02,1.31,0.53c0.22,0.51-0.02,1.1-0.53,1.31L798.22,341.89z M804.58,341.3
			c-0.5,0.23-1.1,0-1.32-0.51c-0.23-0.5,0-1.1,0.51-1.32L804.58,341.3z M809.26,336.96c0.5-0.23,1.1-0.02,1.33,0.48
			c0.23,0.5,0.02,1.1-0.48,1.33L809.26,336.96z M815.6,336.16c-0.5,0.24-1.1,0.03-1.34-0.46c-0.24-0.5-0.03-1.1,0.46-1.34
			L815.6,336.16z M820.14,331.67c0.49-0.25,1.09-0.05,1.34,0.44c0.25,0.49,0.05,1.09-0.44,1.34L820.14,331.67z M826.44,330.64
			c-0.49,0.26-1.09,0.08-1.35-0.41c-0.26-0.49-0.08-1.09,0.41-1.35L826.44,330.64z M830.8,325.98c0.48-0.27,1.09-0.1,1.36,0.38
			s0.1,1.09-0.38,1.36L830.8,325.98z M837.04,324.68c-0.47,0.28-1.09,0.13-1.37-0.35c-0.28-0.47-0.13-1.09,0.35-1.37L837.04,324.68z
			 M841.17,319.8c0.47-0.3,1.08-0.16,1.38,0.31s0.16,1.08-0.31,1.38L841.17,319.8z M847.34,318.14c-0.46,0.31-1.08,0.19-1.39-0.26
			s-0.19-1.08,0.26-1.39L847.34,318.14z M851.12,313.01c0.44-0.33,1.07-0.23,1.4,0.21c0.33,0.44,0.23,1.07-0.21,1.4L851.12,313.01z
			 M857.15,310.87c-0.43,0.35-1.06,0.29-1.41-0.14s-0.29-1.06,0.14-1.41L857.15,310.87z M860.41,305.4
			c0.41-0.37,1.04-0.35,1.41,0.06s0.35,1.04-0.06,1.41L860.41,305.4z M866.13,302.51c-0.37,0.41-1.01,0.43-1.41,0.06
			c-0.41-0.37-0.43-1.01-0.06-1.41L866.13,302.51z M868.43,296.57c0.32-0.45,0.95-0.55,1.4-0.22s0.55,0.95,0.22,1.4L868.43,296.57z
			 M873.3,292.44c-0.24,0.49-0.84,0.7-1.34,0.45c-0.49-0.24-0.7-0.84-0.45-1.34L873.3,292.44z M873.44,286.1
			c0.11-0.54,0.64-0.89,1.18-0.78c0.54,0.11,0.89,0.64,0.78,1.18L873.44,286.1z M875.61,280.13c0.08,0.55-0.3,1.05-0.84,1.14
			c-0.55,0.08-1.05-0.3-1.14-0.84L875.61,280.13z M871.84,274.99c-0.24-0.5-0.04-1.1,0.46-1.34c0.5-0.24,1.1-0.04,1.34,0.46
			L871.84,274.99z M870.22,268.88c0.36,0.42,0.3,1.05-0.12,1.41c-0.42,0.36-1.05,0.3-1.41-0.12L870.22,268.88z M864.48,266.19
			c-0.44-0.33-0.53-0.96-0.19-1.4c0.33-0.44,0.96-0.53,1.4-0.19L864.48,266.19z M860.4,261.35c0.5,0.24,0.7,0.84,0.46,1.34
			c-0.24,0.5-0.84,0.7-1.34,0.46L860.4,261.35z M854.07,261c-0.53-0.16-0.83-0.72-0.67-1.25c0.16-0.53,0.72-0.83,1.25-0.67
			L854.07,261z M848.63,257.73c0.55,0.08,0.92,0.59,0.84,1.14c-0.08,0.55-0.59,0.92-1.14,0.84L848.63,257.73z M842.46,259.23
			c-0.55-0.01-0.99-0.46-0.98-1.01c0.01-0.55,0.46-0.99,1.01-0.98L842.46,259.23z M836.34,257.55c0.55-0.07,1.05,0.32,1.11,0.87
			c0.07,0.55-0.32,1.05-0.87,1.11L836.34,257.55z M830.83,260.68c-0.53,0.15-1.08-0.16-1.23-0.69c-0.15-0.53,0.16-1.08,0.69-1.23
			L830.83,260.68z M824.49,260.94c0.5-0.24,1.1-0.04,1.34,0.46c0.24,0.5,0.04,1.1-0.46,1.34L824.49,260.94z M820.28,265.92
			c-0.44,0.33-1.07,0.25-1.4-0.19s-0.25-1.07,0.19-1.4L820.28,265.92z M814.24,268.8c0.36-0.41,1-0.46,1.41-0.09
			c0.41,0.36,0.46,1,0.09,1.41L814.24,268.8z M812.22,275.17c-0.26,0.49-0.87,0.67-1.35,0.41c-0.49-0.26-0.67-0.87-0.41-1.35
			L812.22,275.17z M808.01,280.34c0.15-0.53,0.7-0.84,1.23-0.69c0.53,0.15,0.84,0.7,0.69,1.23L808.01,280.34z M808.85,286.98
			c-0.05,0.55-0.53,0.96-1.08,0.91c-0.55-0.05-0.96-0.53-0.91-1.08L808.85,286.98z M806.77,293.34c-0.03-0.55,0.39-1.02,0.94-1.05
			c0.55-0.03,1.02,0.39,1.05,0.94L806.77,293.34z M809.47,299.57c0.09,0.54-0.28,1.06-0.82,1.15c-0.54,0.09-1.06-0.28-1.15-0.82
			L809.47,299.57z M809.03,306.43c-0.16-0.53,0.13-1.09,0.66-1.25c0.53-0.16,1.09,0.13,1.25,0.66L809.03,306.43z M813.35,311.76
			c0.25,0.49,0.06,1.09-0.43,1.35c-0.49,0.25-1.09,0.06-1.35-0.43L813.35,311.76z M815.23,318.36c-0.34-0.43-0.27-1.06,0.17-1.4
			c0.43-0.34,1.06-0.27,1.4,0.17L815.23,318.36z M821.18,321.8c0.41,0.37,0.44,1,0.07,1.41s-1,0.44-1.41,0.07L821.18,321.8z
			 M825.1,327.45c-0.45-0.32-0.56-0.94-0.25-1.39c0.32-0.45,0.94-0.56,1.39-0.25L825.1,327.45z M831.51,329.1
			c0.48,0.27,0.66,0.87,0.39,1.36c-0.27,0.48-0.87,0.66-1.36,0.39L831.51,329.1z M836.1,333.5c-0.51-0.21-0.76-0.79-0.55-1.3
			s0.79-0.76,1.3-0.55L836.1,333.5z M842.46,333.56c0.53,0.15,0.84,0.7,0.7,1.23c-0.15,0.53-0.7,0.84-1.23,0.7L842.46,333.56z
			 M847.93,336.8c-0.55-0.09-0.92-0.6-0.83-1.15c0.09-0.55,0.6-0.92,1.15-0.83L847.93,336.8z M854.16,335.49
			c0.55,0.04,0.97,0.51,0.93,1.06s-0.51,0.97-1.06,0.93L854.16,335.49z M860.15,337.63c-0.55,0.01-1.01-0.43-1.01-0.99
			c-0.01-0.55,0.43-1.01,0.99-1.01L860.15,337.63z M866.1,335.35c0.55-0.04,1.03,0.37,1.07,0.92c0.04,0.55-0.37,1.03-0.92,1.07
			L866.1,335.35z M872.31,336.72c-0.55,0.07-1.05-0.32-1.12-0.87c-0.07-0.55,0.32-1.05,0.87-1.12L872.31,336.72z M878.01,333.88
			c0.55-0.09,1.06,0.28,1.15,0.83c0.09,0.55-0.28,1.06-0.83,1.15L878.01,333.88z M884.31,334.83c-0.54,0.1-1.06-0.26-1.16-0.81
			c-0.1-0.54,0.26-1.06,0.81-1.16L884.31,334.83z M889.84,331.71c0.54-0.12,1.07,0.22,1.2,0.75c0.12,0.54-0.22,1.07-0.75,1.2
			L889.84,331.71z M896.19,332.09c-0.53,0.16-1.09-0.14-1.25-0.66c-0.16-0.53,0.14-1.09,0.66-1.25L896.19,332.09z M901.26,328.23
			c0.52-0.2,1.09,0.06,1.29,0.58s-0.06,1.09-0.58,1.29L901.26,328.23z M907.6,327.72c-0.5,0.23-1.1,0.01-1.33-0.49
			c-0.23-0.5-0.01-1.1,0.49-1.33L907.6,327.72z M912.11,323.23c0.49-0.26,1.09-0.08,1.36,0.4c0.26,0.49,0.08,1.09-0.4,1.36
			L912.11,323.23z M918.34,321.93c-0.47,0.29-1.09,0.14-1.38-0.32c-0.29-0.47-0.14-1.09,0.32-1.38L918.34,321.93z M922.29,316.94
			c0.45-0.32,1.08-0.2,1.39,0.25c0.32,0.45,0.2,1.08-0.25,1.39L922.29,316.94z M928.35,314.97c-0.44,0.34-1.06,0.26-1.4-0.18
			c-0.34-0.44-0.26-1.06,0.18-1.4L928.35,314.97z M931.78,309.61c0.42-0.36,1.05-0.31,1.41,0.11c0.36,0.42,0.31,1.05-0.11,1.41
			L931.78,309.61z M937.62,307.08c-0.4,0.38-1.04,0.35-1.41-0.05c-0.38-0.4-0.35-1.04,0.05-1.41L937.62,307.08z M940.56,301.43
			c0.39-0.39,1.02-0.4,1.41-0.01c0.39,0.39,0.4,1.02,0.01,1.41L940.56,301.43z M946.18,298.43c-0.37,0.41-1.01,0.44-1.41,0.06
			c-0.41-0.37-0.44-1.01-0.06-1.41L946.18,298.43z M948.68,292.57c0.36-0.42,0.99-0.47,1.41-0.11c0.42,0.36,0.47,0.99,0.11,1.41
			L948.68,292.57z M954.07,289.17c-0.34,0.43-0.97,0.51-1.4,0.16c-0.43-0.34-0.51-0.97-0.16-1.4L954.07,289.17z M956.16,283.16
			c0.33-0.44,0.96-0.54,1.4-0.21c0.44,0.33,0.54,0.96,0.21,1.4L956.16,283.16z M961.31,279.41c-0.32,0.45-0.94,0.57-1.39,0.25
			c-0.45-0.32-0.57-0.94-0.25-1.39L961.31,279.41z M963.02,273.28c0.3-0.46,0.92-0.59,1.38-0.29c0.46,0.3,0.59,0.92,0.29,1.38
			L963.02,273.28z M967.94,269.24c-0.29,0.47-0.9,0.62-1.37,0.33c-0.47-0.29-0.62-0.9-0.33-1.37L967.94,269.24z M969.3,263.02
			c0.27-0.48,0.89-0.64,1.36-0.37c0.48,0.27,0.64,0.89,0.37,1.36L969.3,263.02z M973.98,258.7c-0.26,0.49-0.87,0.67-1.35,0.41
			c-0.49-0.26-0.67-0.87-0.41-1.35L973.98,258.7z M975,252.41c0.25-0.49,0.85-0.69,1.34-0.44c0.49,0.25,0.69,0.85,0.44,1.34
			L975,252.41z M979.44,247.85c-0.23,0.5-0.83,0.71-1.33,0.48c-0.5-0.23-0.71-0.83-0.48-1.33L979.44,247.85z M980.11,241.52
			c0.22-0.51,0.81-0.74,1.32-0.52c0.51,0.22,0.74,0.81,0.52,1.32L980.11,241.52z M984.3,236.72c-0.21,0.51-0.79,0.76-1.3,0.55
			c-0.51-0.21-0.76-0.79-0.55-1.3L984.3,236.72z M984.63,230.36c0.19-0.52,0.77-0.78,1.29-0.59c0.52,0.19,0.78,0.77,0.59,1.29
			L984.63,230.36z M988.55,225.33c-0.18,0.52-0.75,0.8-1.27,0.62c-0.52-0.18-0.8-0.75-0.62-1.27L988.55,225.33z M988.51,218.96
			c0.16-0.53,0.72-0.82,1.25-0.66c0.53,0.16,0.82,0.72,0.66,1.25L988.51,218.96z M992.1,213.71c-0.14,0.53-0.69,0.85-1.23,0.7
			c-0.53-0.14-0.85-0.69-0.7-1.23L992.1,213.71z M991.65,207.37c0.13-0.54,0.66-0.87,1.2-0.75c0.54,0.13,0.87,0.66,0.75,1.2
			L991.65,207.37z M994.86,201.88c-0.1,0.54-0.63,0.9-1.17,0.79c-0.54-0.1-0.9-0.63-0.79-1.17L994.86,201.88z M993.91,195.59
			c0.08-0.55,0.59-0.92,1.14-0.84c0.55,0.08,0.92,0.59,0.84,1.14L993.91,195.59z M996.63,189.82c-0.05,0.55-0.54,0.95-1.09,0.9
			c-0.55-0.05-0.95-0.54-0.9-1.09L996.63,189.82z M995.02,183.65c0.02-0.55,0.48-0.99,1.03-0.97c0.55,0.02,0.99,0.48,0.97,1.03
			L995.02,183.65z M996.96,177.58c0.03,0.55-0.4,1.02-0.95,1.05c-0.55,0.03-1.02-0.4-1.05-0.95L996.96,177.58z M994.36,171.79
			c-0.09-0.55,0.28-1.06,0.83-1.15s1.06,0.28,1.15,0.83L994.36,171.79z M994.88,165.44c0.18,0.52-0.11,1.09-0.63,1.27
			c-0.52,0.18-1.09-0.11-1.27-0.63L994.88,165.44z M991.92,163.4c-0.23-0.5-0.02-1.1,0.48-1.33c0.5-0.23,1.1-0.02,1.33,0.48
			L991.92,163.4z M887.1,333.3l0.18,0.98L887.1,333.3z M828.42,328.44l0.53-0.85L828.42,328.44z M808.03,296.47l-0.99,0.11
			L808.03,296.47z M822.3,263.31l0.53,0.85L822.3,263.31z M873.9,277.34l-0.94,0.33L873.9,277.34z M773.2,352.7l-0.33-0.94
			L773.2,352.7z M683.25,363.34l-0.2,0.98L683.25,363.34z M654.15,355.18l-0.39,0.92L654.15,355.18z M646.37,354.19
			c-0.55,0.07-1.05-0.31-1.12-0.86c-0.07-0.55,0.31-1.05,0.86-1.12L646.37,354.19z"/>
		<circle class="st3" cx="1030.5" cy="168.34" r="56.5"/>
		<g>
			<defs>
				<circle id="SVGID_00000165206582365463974290000009955616190078593427_" cx="1030.5" cy="168.34" r="56.5"/>
			</defs>
			<clipPath id="SVGID_00000128482920904518063480000002517850755229761414_">
				<use xlink:href="#SVGID_00000165206582365463974290000009955616190078593427_"  style="overflow:visible;"/>
			</clipPath>
			<path style="clip-path:url(#SVGID_00000128482920904518063480000002517850755229761414_);fill:#18292D;" d="M1030.5,113.84
				c30.1,0,54.5,24.4,54.5,54.5h4c0-32.31-26.19-58.5-58.5-58.5V113.84z M976,168.34c0-30.1,24.4-54.5,54.5-54.5v-4
				c-32.31,0-58.5,26.19-58.5,58.5H976z M1030.5,222.84c-30.1,0-54.5-24.4-54.5-54.5h-4c0,32.31,26.19,58.5,58.5,58.5V222.84z
				 M1085,168.34c0,30.1-24.4,54.5-54.5,54.5v4c32.31,0,58.5-26.19,58.5-58.5H1085z"/>
		</g>
		<defs>
			<filter id="Adobe_OpacityMaskFilter" filterUnits="userSpaceOnUse" x="0" y="3.85" width="1300" height="400">
				<feColorMatrix  type="matrix" values="1 0 0 0 0  0 1 0 0 0  0 0 1 0 0  0 0 0 1 0"/>
			</filter>
		</defs>
		
			<mask maskUnits="userSpaceOnUse" x="0" y="3.85" width="1300" height="400" id="SVGID_00000058588233921741551440000013617232716377220266_">
			<g class="st5">
				<rect x="1005" y="134.85" width="56" height="64"/>
			</g>
		</mask>
		<g style="mask:url(#SVGID_00000058588233921741551440000013617232716377220266_);">
			<g>
				<defs>
					<rect id="SVGID_00000166645673468693485010000006476671653186971810_" y="3.85" width="1300" height="400"/>
				</defs>
				<clipPath id="SVGID_00000147213404609375598190000004317214287555419543_">
					<use xlink:href="#SVGID_00000166645673468693485010000006476671653186971810_"  style="overflow:visible;"/>
				</clipPath>
				<path style="clip-path:url(#SVGID_00000147213404609375598190000004317214287555419543_);fill:#FFFFFF;" d="M1012.73,135.12
					v0.04c0.26-0.03,0.52-0.04,0.79-0.04H1012.73z"/>
				<path style="clip-path:url(#SVGID_00000147213404609375598190000004317214287555419543_);" d="M1012.46,135.45v-0.61h1.06v0.54
					c-0.24,0-0.49,0.01-0.76,0.04L1012.46,135.45z"/>
				<path style="clip-path:url(#SVGID_00000147213404609375598190000004317214287555419543_);fill:#FFFFFF;" d="M1012.73,198.57
					h0.79c-0.26,0-0.53-0.02-0.79-0.04V198.57z"/>
				<path style="clip-path:url(#SVGID_00000147213404609375598190000004317214287555419543_);" d="M1013.51,198.85h-1.06v-0.57
					l0.3-0.01c0.27,0.03,0.52,0.04,0.76,0.04V198.85z"/>
				<path style="clip-path:url(#SVGID_00000147213404609375598190000004317214287555419543_);fill:#486758;" d="M1005,143.84v46.5
					c0.09-4.82,4.94-8.35,9-8l0-47.5C1008.96,134.57,1004.26,138.98,1005,143.84z"/>
				<g style="clip-path:url(#SVGID_00000147213404609375598190000004317214287555419543_);">
					<defs>
						<path id="SVGID_00000168097020918608009380000003160870197060802229_" d="M1005,143.84v46.5c0.09-4.82,4.94-8.35,9-8l0-47.5
							C1008.96,134.57,1004.26,138.98,1005,143.84z"/>
					</defs>
					<clipPath id="SVGID_00000074437566539263756070000017880618940512730539_">
						<use xlink:href="#SVGID_00000168097020918608009380000003160870197060802229_"  style="overflow:visible;"/>
					</clipPath>
					<path style="clip-path:url(#SVGID_00000074437566539263756070000017880618940512730539_);" d="M1014.05,133.85
						c-2.83-0.16-5.53,1-7.42,2.86c-1.9,1.86-3.05,4.49-2.62,7.29l1.98-0.3c-0.31-2.06,0.52-4.07,2.04-5.56
						c1.53-1.5,3.7-2.41,5.91-2.29L1014.05,133.85z M1015,182.34l0-47.5h-2l0,47.5H1015z M1006,190.36c0.04-2.06,1.1-3.89,2.65-5.19
						c1.56-1.3,3.54-1.98,5.26-1.83l0.17-1.99c-2.33-0.2-4.81,0.71-6.71,2.29c-1.91,1.59-3.32,3.93-3.37,6.69L1006,190.36z
						 M1004,143.84v46.5h2v-46.5H1004z M1014,134.85h1v-0.95l-0.94-0.05L1014,134.85z M1014,182.34l-0.09,1l1.09,0.09v-1.09H1014z
						 M1005,190.34h-1l2,0.02L1005,190.34z M1005,143.84h1v-0.08l-0.01-0.07L1005,143.84z"/>
				</g>
				<path style="clip-path:url(#SVGID_00000147213404609375598190000004317214287555419543_);" d="M1012.46,135.46
					c-3.96,0.52-6.91,3.86-6.91,7.88v44c1.08-2.89,3.69-5.03,6.91-5.42V135.46z M1005.54,190.35H1005v-47.01
					c0-4.41,3.31-8.04,7.7-8.45l0.3-0.03v47.55l-0.25,0.02C1008.64,182.82,1005.54,186.22,1005.54,190.35z"/>
				<path style="clip-path:url(#SVGID_00000147213404609375598190000004317214287555419543_);fill:#87AB99;" d="M1031.17,135.12
					h-17.66c-0.26,0-0.53,0.02-0.79,0.04v47.01c0.26-0.03,0.52-0.04,0.79-0.04h39.25v-47.01H1031.17z"/>
				<g style="clip-path:url(#SVGID_00000147213404609375598190000004317214287555419543_);">
					<defs>
						<path id="SVGID_00000139973568215066417130000013335123079139513746_" d="M1031.17,135.12h-17.66c-0.26,0-0.53,0.02-0.79,0.04
							v47.01c0.26-0.03,0.52-0.04,0.79-0.04h39.25v-47.01H1031.17z"/>
					</defs>
					<clipPath id="SVGID_00000166676427485582572370000016178716754713353858_">
						<use xlink:href="#SVGID_00000139973568215066417130000013335123079139513746_"  style="overflow:visible;"/>
					</clipPath>
					<path style="clip-path:url(#SVGID_00000166676427485582572370000016178716754713353858_);" d="M1052.76,134.12h-21.59v2h21.59
						V134.12z M1053.76,182.12v-47.01h-2v47.01H1053.76z M1013.51,183.12h39.25v-2h-39.25V183.12z M1012.82,183.16
						c0.23-0.02,0.46-0.04,0.69-0.04v-2c-0.3,0-0.6,0.02-0.88,0.04L1012.82,183.16z M1011.73,135.16v47.01h2v-47.01H1011.73z
						 M1013.51,134.12c-0.3,0-0.6,0.02-0.88,0.04l0.19,1.99c0.23-0.02,0.46-0.04,0.69-0.04V134.12z M1031.17,134.12h-17.66v2h17.66
						V134.12z M1052.76,135.12h1v-1h-1V135.12z M1052.76,182.12v1h1v-1H1052.76z M1012.73,182.16h-1v1.1l1.1-0.11L1012.73,182.16z
						 M1012.73,135.16l-0.1-1l-0.9,0.09v0.91H1012.73z"/>
				</g>
				<path style="clip-path:url(#SVGID_00000147213404609375598190000004317214287555419543_);" d="M1013,135.4v46.47
					c0.18-0.01,0.35-0.02,0.51-0.02h38.98v-46.47h-38.98C1013.35,135.39,1013.18,135.39,1013,135.4z M1012.46,182.46v-47.55
					l0.24-0.02c0.29-0.03,0.56-0.04,0.81-0.04h39.52v47.55h-39.51c-0.24,0-0.49,0.01-0.76,0.04L1012.46,182.46L1012.46,182.46z"/>
				<g style="clip-path:url(#SVGID_00000147213404609375598190000004317214287555419543_);">
					<defs>
						<path id="SVGID_00000046334820228729392420000008602534690587773341_" d="M1013,135.4v46.47c0.18-0.01,0.35-0.02,0.51-0.02
							h38.98v-46.47h-38.98C1013.35,135.39,1013.18,135.39,1013,135.4z M1012.46,182.46v-47.55l0.24-0.02
							c0.29-0.03,0.56-0.04,0.81-0.04h39.52v47.55h-39.51c-0.24,0-0.49,0.01-0.76,0.04L1012.46,182.46L1012.46,182.46z"/>
					</defs>
					<clipPath id="SVGID_00000055698766707538326390000005225156747523272621_">
						<use xlink:href="#SVGID_00000046334820228729392420000008602534690587773341_"  style="overflow:visible;"/>
					</clipPath>
					<path style="clip-path:url(#SVGID_00000055698766707538326390000005225156747523272621_);" d="M1013.51,134.39
						c-0.19,0-0.38,0.01-0.58,0.02l0.13,2c0.17-0.01,0.31-0.02,0.45-0.02V134.39z M1052.49,134.39h-38.98v2h38.98V134.39z
						 M1053.49,181.85v-46.47h-2v46.47H1053.49z M1013.51,182.85h38.98v-2h-38.98V182.85z M1013.06,182.87
						c0.15-0.01,0.3-0.01,0.45-0.01v-2c-0.19,0-0.38,0.01-0.58,0.02L1013.06,182.87z M1012,135.4v46.47h2V135.4H1012z
						 M1012.46,181.46L1012.46,181.46l0,2h0V181.46z M1012.66,181.44l-0.3,0.03l0.19,1.99l0.3-0.03L1012.66,181.44z M1013.51,181.39
						c-0.28,0-0.55,0.02-0.85,0.04l0.18,1.99c0.25-0.02,0.47-0.03,0.67-0.03V181.39z M1053.03,181.39h-39.51v2h39.51V181.39z
						 M1052.03,134.85v47.55h2v-47.55H1052.03z M1013.51,135.85h39.52v-2h-39.52V135.85z M1012.79,135.88
						c0.27-0.02,0.5-0.04,0.72-0.04v-2c-0.29,0-0.59,0.02-0.9,0.05L1012.79,135.88z M1012.55,135.91l0.24-0.02l-0.19-1.99
						l-0.24,0.02L1012.55,135.91z M1013.46,182.46v-47.55h-2v47.55H1013.46z M1052.49,135.39h1v-1h-1V135.39z M1052.49,181.85v1h1
						v-1H1052.49z M1013,181.87h-1v1.07l1.07-0.07L1013,181.87z M1013,135.4l-0.06-1l-0.94,0.06v0.94H1013z M1012.46,182.46v1h0.05
						l0.05,0L1012.46,182.46z M1012.75,182.43l-0.09-1l0,0L1012.75,182.43z M1053.03,182.39v1h1v-1H1053.03z M1053.03,134.85h1v-1
						h-1V134.85z M1012.7,134.89l-0.09-1l0,0L1012.7,134.89z M1012.46,134.91l-0.1-1l-0.9,0.09v0.91H1012.46z M1012.46,182.46h-1v1
						h1V182.46z"/>
				</g>
				<path style="clip-path:url(#SVGID_00000147213404609375598190000004317214287555419543_);fill:#E9EAEC;" d="M1013.33,182.12
					c-0.26,0-0.51,0.02-0.77,0.04c-4.09,0.39-7.3,3.91-7.3,8.19s3.2,7.79,7.3,8.19c0.25,0.03,0.51,0.04,0.77,0.04h38.41v-16.45
					L1013.33,182.12L1013.33,182.12z"/>
				<path style="clip-path:url(#SVGID_00000147213404609375598190000004317214287555419543_);" d="M1013.33,182.39
					c-0.23,0-0.48,0.01-0.74,0.04c-4.02,0.39-7.06,3.79-7.06,7.92s3.03,7.53,7.06,7.92c0.27,0.03,0.51,0.04,0.74,0.04h38.14v-15.91
					L1013.33,182.39L1013.33,182.39z M1052,198.85h-38.67c-0.25,0-0.51-0.01-0.79-0.04c-4.3-0.41-7.54-4.05-7.54-8.45
					s3.24-8.04,7.54-8.45c0.28-0.03,0.54-0.04,0.79-0.04H1052V198.85z"/>
				<path style="clip-path:url(#SVGID_00000147213404609375598190000004317214287555419543_);" d="M1012.83,182.39L1012.83,182.39
					l1,0v0H1012.83z M1051.47,181.89h-38.14v1h38.14V181.89z M1051.97,198.3v-15.91h-1v15.91H1051.97z M1013.33,198.8h38.14v-1
					h-38.14V198.8z M1012.54,198.76c0.28,0.03,0.54,0.04,0.79,0.04v-1c-0.21,0-0.44-0.01-0.69-0.04L1012.54,198.76z M1005.03,190.35
					c0,4.37,3.22,8,7.51,8.41l0.1-1c-3.76-0.36-6.6-3.54-6.6-7.42H1005.03z M1012.54,181.93c-4.29,0.41-7.51,4.04-7.51,8.41h1
					c0-3.88,2.85-7.06,6.6-7.42L1012.54,181.93z M1013.33,181.89c-0.25,0-0.51,0.01-0.79,0.04l0.09,1c0.26-0.02,0.48-0.04,0.7-0.04
					V181.89z M1051.5,181.85v16.99h1v-16.99H1051.5z M1013.33,182.35H1052v-1h-38.67V182.35z M1012.58,182.39
					c0.27-0.03,0.52-0.04,0.75-0.04v-1c-0.27,0-0.55,0.02-0.84,0.04L1012.58,182.39z M1005.5,190.35c0-4.16,3.05-7.57,7.09-7.96
					l-0.1-1c-4.56,0.44-7.99,4.3-7.99,8.95H1005.5z M1012.59,198.31c-4.03-0.39-7.09-3.8-7.09-7.96h-1c0,4.66,3.43,8.51,7.99,8.95
					L1012.59,198.31z M1013.33,198.35c-0.23,0-0.47-0.01-0.74-0.04l-0.1,1c0.3,0.03,0.58,0.04,0.84,0.04V198.35z M1052,198.35
					h-38.67v1H1052V198.35z M1013.33,182.39v-0.5h-0.5v0.5H1013.33z M1051.47,182.39h0.5v-0.5h-0.5V182.39z M1051.47,198.3v0.5h0.5
					v-0.5H1051.47z M1012.59,198.27l0.05-0.5l0,0L1012.59,198.27z M1012.59,182.43l-0.05-0.5l0,0L1012.59,182.43z M1013.33,182.39
					v0.5h0.5v-0.5H1013.33z M1052,181.85h0.5v-0.5h-0.5V181.85z M1012.54,181.89l-0.05-0.5l0,0L1012.54,181.89z M1012.54,198.8
					l0.05-0.5l0,0L1012.54,198.8z M1052,198.85v0.5h0.5v-0.5H1052z"/>
				
					<rect x="1026" y="186.35" style="clip-path:url(#SVGID_00000147213404609375598190000004317214287555419543_);" width="26" height="1"/>
				
					<rect x="1013" y="189.85" style="clip-path:url(#SVGID_00000147213404609375598190000004317214287555419543_);" width="39" height="1"/>
				
					<rect x="1018" y="193.35" style="clip-path:url(#SVGID_00000147213404609375598190000004317214287555419543_);" width="34" height="1"/>
				<path style="clip-path:url(#SVGID_00000147213404609375598190000004317214287555419543_);fill:#FFFFFF;" d="M1040.69,161.25
					h-15.89c-1.1,0-2,0.9-2,2v5.25c0,1.1,0.9,2,2,2h15.89c1.1,0,2-0.9,2-2v-5.25C1042.69,162.15,1041.79,161.25,1040.69,161.25z"/>
				<g style="clip-path:url(#SVGID_00000147213404609375598190000004317214287555419543_);">
					<defs>
						<path id="SVGID_00000000203851011326199540000006500518882108731818_" d="M1040.69,161.25h-15.89c-1.1,0-2,0.9-2,2v5.25
							c0,1.1,0.9,2,2,2h15.89c1.1,0,2-0.9,2-2v-5.25C1042.69,162.15,1041.79,161.25,1040.69,161.25z"/>
					</defs>
					<clipPath id="SVGID_00000008106856374431796540000017296849940623135148_">
						<use xlink:href="#SVGID_00000000203851011326199540000006500518882108731818_"  style="overflow:visible;"/>
					</clipPath>
					<path style="clip-path:url(#SVGID_00000008106856374431796540000017296849940623135148_);" d="M1024.8,160.25
						c-1.66,0-3,1.34-3,3h2c0-0.55,0.45-1,1-1V160.25z M1040.69,162.25c0.55,0,1,0.45,1,1h2c0-1.66-1.34-3-3-3V162.25z
						 M1041.69,168.5c0,0.55-0.45,1-1,1v2c1.66,0,3-1.34,3-3H1041.69z M1024.8,169.5c-0.55,0-1-0.45-1-1h-2c0,1.66,1.34,3,3,3V169.5
						z M1023.8,168.5v-5.25h-2v5.25H1023.8z M1040.69,169.5h-15.89v2h15.89V169.5z M1041.69,163.25v5.25h2v-5.25H1041.69z
						 M1024.8,162.25h15.89v-2h-15.89V162.25z"/>
				</g>
			</g>
		</g>
		<path d="M267.44,141.54c-0.46,0.2-0.95,0.35-1.47,0.41l0.25,1.98c0.74-0.09,1.41-0.29,2.03-0.57L267.44,141.54z M271.56,138.42
			c-0.43,0.37-0.99,0.87-1.37,1.21l1.31,1.51c0.51-0.45,0.86-0.76,1.37-1.21L271.56,138.42z M274.17,136.26
			c-0.88,0.7-1.75,1.42-2.61,2.16l1.31,1.51c0.83-0.72,1.68-1.42,2.54-2.11L274.17,136.26z M285.31,128.64
			c-1.91,1.16-3.82,2.36-5.69,3.63l1.12,1.66c1.84-1.24,3.71-2.43,5.6-3.57L285.31,128.64z M294.05,123.63
			c-0.97,0.54-1.95,1.09-2.92,1.64l0.98,1.74c0.97-0.55,1.94-1.09,2.91-1.63L294.05,123.63z M296.54,122.27
			c-0.83,0.44-1.66,0.89-2.49,1.35l0.97,1.75c0.82-0.46,1.64-0.9,2.46-1.33L296.54,122.27z M306.81,117.42
			c-1.74,0.72-3.47,1.49-5.19,2.31l0.86,1.81c1.7-0.8,3.4-1.56,5.1-2.27L306.81,117.42z M317.5,113.58
			c-1.81,0.54-3.61,1.14-5.4,1.78l0.68,1.88c1.76-0.63,3.53-1.22,5.3-1.75L317.5,113.58z M328.56,110.91
			c-1.86,0.34-3.72,0.73-5.57,1.17l0.47,1.94c1.81-0.44,3.63-0.82,5.45-1.15L328.56,110.91z M339.86,109.57
			c-1.9,0.11-3.79,0.28-5.67,0.5l0.24,1.99c1.85-0.22,3.7-0.38,5.55-0.49L339.86,109.57z M351.25,109.62
			c-1.9-0.13-3.8-0.19-5.69-0.2l-0.01,2c1.85,0.01,3.71,0.07,5.57,0.2L351.25,109.62z M362.54,111.08c-1.88-0.36-3.75-0.66-5.62-0.9
			l-0.26,1.98c1.83,0.24,3.66,0.53,5.5,0.88L362.54,111.08z M370.84,113.05c-0.92-0.26-1.83-0.51-2.75-0.74l-0.49,1.94
			c0.9,0.23,1.79,0.47,2.69,0.72L370.84,113.05z M373.87,113.99c-1.03-0.35-2.04-0.66-3.03-0.94l-0.55,1.92
			c0.95,0.27,1.93,0.57,2.94,0.91L373.87,113.99z M385.52,118.97c-1.92-1-3.84-1.9-5.73-2.71l-0.79,1.84
			c1.84,0.79,3.71,1.67,5.59,2.65L385.52,118.97z M396.3,125.64c-1.72-1.26-3.48-2.44-5.26-3.54l-1.05,1.7
			c1.74,1.07,3.45,2.23,5.13,3.45L396.3,125.64z M405.82,134.04c-1.44-1.55-2.97-3.03-4.57-4.43l-1.32,1.5
			c1.55,1.36,3.03,2.79,4.42,4.29L405.82,134.04z M413.32,144.34c-1.02-1.87-2.17-3.67-3.43-5.39l-1.61,1.18
			c1.21,1.65,2.32,3.38,3.29,5.16L413.32,144.34z M417.59,156.4c-0.37-2.14-0.93-4.21-1.64-6.21l-1.88,0.67
			c0.68,1.9,1.2,3.86,1.56,5.88L417.59,156.4z M418,166.02c0.09-1.09,0.14-2.16,0.14-3.22l-2,0c0,1-0.04,2.02-0.13,3.05L418,166.02z
			 M417.71,168.76c0.12-0.88,0.22-1.79,0.3-2.73l-1.99-0.17c-0.08,0.91-0.17,1.79-0.29,2.63L417.71,168.76z M414.71,179.37
			c0.76-1.55,1.41-3.29,1.93-5.21l-1.93-0.52c-0.49,1.82-1.1,3.43-1.8,4.85L414.71,179.37z M407.14,187.6
			c1.63-0.91,3.12-2.08,4.44-3.55l-1.49-1.34c-1.17,1.3-2.48,2.33-3.93,3.14L407.14,187.6z M396.3,190.18
			c1.93-0.02,3.79-0.21,5.55-0.6l-0.43-1.95c-1.6,0.35-3.32,0.53-5.13,0.55L396.3,190.18z M388.08,189.41
			c0.91,0.17,1.82,0.31,2.71,0.42l0.26-1.98c-0.86-0.11-1.72-0.25-2.61-0.41L388.08,189.41z M384.95,188.57
			c0.97,0.35,2.02,0.63,3.14,0.83l0.36-1.97c-1.01-0.18-1.95-0.44-2.81-0.75L384.95,188.57z M375.87,179.65
			c0.82,2.07,1.98,3.93,3.53,5.47l1.41-1.42c-1.33-1.32-2.35-2.94-3.08-4.79L375.87,179.65z M374.32,167.1
			c-0.14,2.18-0.12,4.3,0.09,6.31l1.99-0.21c-0.2-1.89-0.22-3.89-0.08-5.97L374.32,167.1z M375.76,157.83
			c-0.24,1.02-0.46,2.04-0.64,3.06l1.97,0.36c0.18-0.98,0.39-1.97,0.62-2.96L375.76,157.83z M376.37,155.36
			c-0.21,0.79-0.42,1.61-0.62,2.47l1.95,0.46c0.2-0.84,0.4-1.64,0.6-2.41L376.37,155.36z M379.97,145.74
			c-0.77,1.44-1.46,3-2.08,4.73l1.88,0.68c0.6-1.65,1.25-3.13,1.97-4.47L379.97,145.74z M386.42,137.64
			c-1.33,1.2-2.52,2.42-3.58,3.75l1.56,1.25c0.99-1.23,2.1-2.38,3.36-3.51L386.42,137.64z M392.49,132.95
			c-0.72,0.5-1.41,0.99-2.07,1.48l1.19,1.61c0.64-0.47,1.32-0.96,2.03-1.45L392.49,132.95z M395.04,131.18
			c-0.86,0.6-1.72,1.19-2.55,1.78l1.14,1.64c0.84-0.58,1.69-1.18,2.56-1.78L395.04,131.18z M405.36,124.13
			c-1.77,1.17-3.5,2.34-5.19,3.49l1.13,1.65c1.68-1.15,3.4-2.31,5.16-3.47L405.36,124.13z M416.02,117.53
			c-1.83,1.05-3.62,2.13-5.38,3.22l1.06,1.7c1.74-1.08,3.52-2.15,5.32-3.18L416.02,117.53z M427.18,111.77
			c-1.92,0.87-3.8,1.79-5.65,2.75l0.92,1.78c1.82-0.95,3.68-1.85,5.56-2.71L427.18,111.77z M438.95,107.29
			c-2.02,0.62-4,1.3-5.96,2.05l0.72,1.87c1.92-0.73,3.86-1.41,5.83-2.01L438.95,107.29z M451.28,104.58
			c-2.1,0.27-4.18,0.64-6.23,1.09l0.43,1.95c1.99-0.44,4.01-0.8,6.05-1.06L451.28,104.58z M463.91,104.16
			c-2.13-0.14-4.24-0.17-6.33-0.1l0.07,2c2.02-0.07,4.07-0.04,6.13,0.09L463.91,104.16z M473.32,105.51
			c-1.04-0.23-2.08-0.43-3.11-0.61l-0.33,1.97c1,0.17,2,0.36,3.01,0.59L473.32,105.51z M476.36,106.28
			c-1.01-0.29-2.03-0.55-3.04-0.77l-0.43,1.95c0.97,0.22,1.95,0.46,2.92,0.74L476.36,106.28z M487.98,110.86
			c-1.89-0.93-3.79-1.79-5.7-2.55l-0.74,1.86c1.86,0.74,3.71,1.57,5.55,2.48L487.98,110.86z M498.75,117.09
			c-1.73-1.14-3.5-2.24-5.28-3.28l-1,1.73c1.75,1.02,3.49,2.1,5.19,3.22L498.75,117.09z M508.77,124.41
			c-1.59-1.28-3.24-2.55-4.92-3.78l-1.18,1.61c1.66,1.22,3.28,2.46,4.85,3.73L508.77,124.41z M518.1,132.6
			c-1.45-1.38-2.98-2.79-4.58-4.19l-1.32,1.5c1.58,1.39,3.09,2.77,4.52,4.14L518.1,132.6z M526.65,141.62
			c-1.22-1.45-2.62-3.01-4.16-4.63l-1.45,1.38c1.52,1.6,2.89,3.12,4.08,4.54L526.65,141.62z M532.04,149.45
			c-0.34-0.81-0.88-1.77-1.59-2.84l-1.67,1.1c0.67,1.02,1.14,1.86,1.41,2.51L532.04,149.45z M268.25,143.37
			c0.51-0.22,0.73-0.81,0.51-1.32s-0.81-0.73-1.32-0.51L268.25,143.37z M270.18,139.63c-0.42,0.36-0.46,0.99-0.1,1.41
			c0.36,0.42,0.99,0.46,1.41,0.1L270.18,139.63z M275.41,137.83c0.43-0.34,0.51-0.97,0.16-1.4c-0.34-0.43-0.97-0.51-1.4-0.16
			L275.41,137.83z M279.63,132.27c-0.46,0.31-0.58,0.93-0.27,1.39c0.31,0.46,0.93,0.58,1.39,0.27L279.63,132.27z M286.35,130.35
			c0.47-0.29,0.62-0.9,0.34-1.37s-0.9-0.62-1.37-0.34L286.35,130.35z M291.12,125.26c-0.48,0.27-0.65,0.88-0.38,1.36
			c0.27,0.48,0.88,0.65,1.36,0.38L291.12,125.26z M297.48,124.04c0.49-0.26,0.67-0.86,0.42-1.35c-0.26-0.49-0.86-0.67-1.35-0.42
			L297.48,124.04z M301.62,119.73c-0.5,0.24-0.71,0.83-0.48,1.33s0.83,0.71,1.33,0.48L301.62,119.73z M307.58,119.26
			c0.51-0.21,0.75-0.8,0.54-1.31c-0.21-0.51-0.8-0.75-1.31-0.54L307.58,119.26z M312.1,115.36c-0.52,0.19-0.79,0.76-0.6,1.28
			c0.19,0.52,0.76,0.79,1.28,0.6L312.1,115.36z M318.08,115.49c0.53-0.16,0.83-0.72,0.67-1.25c-0.16-0.53-0.72-0.83-1.25-0.67
			L318.08,115.49z M322.99,112.09c-0.54,0.13-0.87,0.67-0.74,1.21s0.67,0.87,1.21,0.74L322.99,112.09z M328.92,112.88
			c0.54-0.1,0.9-0.62,0.81-1.16c-0.1-0.54-0.62-0.9-1.16-0.81L328.92,112.88z M334.19,110.07c-0.55,0.07-0.94,0.56-0.87,1.11
			c0.07,0.55,0.56,0.94,1.11,0.87L334.19,110.07z M339.98,111.56c0.55-0.03,0.97-0.5,0.94-1.06c-0.03-0.55-0.5-0.97-1.06-0.94
			L339.98,111.56z M345.56,109.42c-0.55,0-1,0.44-1,1c0,0.55,0.44,1,1,1L345.56,109.42z M351.12,111.62
			c0.55,0.04,1.03-0.38,1.06-0.93c0.04-0.55-0.38-1.03-0.93-1.06L351.12,111.62z M356.92,110.18c-0.55-0.07-1.05,0.32-1.12,0.86
			c-0.07,0.55,0.32,1.05,0.86,1.12L356.92,110.18z M362.16,113.04c0.54,0.1,1.07-0.25,1.17-0.79s-0.25-1.07-0.79-1.17L362.16,113.04
			z M368.09,112.31c-0.54-0.14-1.08,0.19-1.21,0.72s0.19,1.08,0.72,1.21L368.09,112.31z M373.23,115.89
			c0.52,0.18,1.09-0.11,1.27-0.63s-0.11-1.09-0.63-1.27L373.23,115.89z M379.8,116.26c-0.51-0.22-1.1,0.02-1.31,0.53
			c-0.22,0.51,0.02,1.1,0.53,1.31L379.8,116.26z M384.6,120.75c0.49,0.25,1.09,0.06,1.35-0.43c0.25-0.49,0.06-1.09-0.43-1.35
			L384.6,120.75z M391.04,122.1c-0.47-0.29-1.09-0.14-1.38,0.32c-0.29,0.47-0.14,1.09,0.32,1.38L391.04,122.1z M395.11,127.25
			c0.45,0.33,1.07,0.23,1.4-0.21s0.23-1.07-0.21-1.4L395.11,127.25z M401.25,129.61c-0.41-0.36-1.05-0.32-1.41,0.09
			c-0.36,0.41-0.32,1.05,0.09,1.41L401.25,129.61z M404.35,135.4c0.38,0.4,1.01,0.43,1.41,0.05c0.4-0.38,0.43-1.01,0.05-1.41
			L404.35,135.4z M409.89,138.95c-0.33-0.45-0.95-0.54-1.4-0.21s-0.54,0.95-0.21,1.4L409.89,138.95z M411.57,145.29
			c0.26,0.49,0.87,0.67,1.36,0.4c0.49-0.26,0.67-0.87,0.4-1.36L411.57,145.29z M415.95,150.19c-0.19-0.52-0.76-0.79-1.28-0.61
			s-0.79,0.76-0.61,1.28L415.95,150.19z M415.62,156.75c0.1,0.54,0.61,0.91,1.16,0.81c0.54-0.1,0.91-0.61,0.81-1.16L415.62,156.75z
			 M418.14,162.8c0-0.55-0.45-1-1-1s-1,0.45-1,1L418.14,162.8z M415.73,168.49c-0.07,0.55,0.31,1.05,0.86,1.12
			c0.55,0.07,1.05-0.31,1.12-0.86L415.73,168.49z M416.64,174.16c0.14-0.53-0.17-1.08-0.7-1.23c-0.53-0.14-1.08,0.17-1.23,0.7
			L416.64,174.16z M412.91,178.49c-0.24,0.5-0.04,1.09,0.46,1.34c0.5,0.24,1.09,0.04,1.34-0.46L412.91,178.49z M411.57,184.06
			c0.37-0.41,0.34-1.04-0.07-1.41c-0.41-0.37-1.04-0.34-1.41,0.07L411.57,184.06z M406.16,185.86c-0.48,0.27-0.66,0.88-0.39,1.36
			c0.27,0.48,0.88,0.66,1.36,0.39L406.16,185.86z M401.84,189.58c0.54-0.12,0.88-0.65,0.76-1.19c-0.12-0.54-0.65-0.88-1.19-0.76
			L401.84,189.58z M396.28,188.18c-0.55,0.01-1,0.46-0.99,1.01c0.01,0.55,0.46,1,1.01,0.99L396.28,188.18z M390.79,189.83
			c0.55,0.07,1.05-0.32,1.12-0.86c0.07-0.55-0.32-1.05-0.86-1.12L390.79,189.83z M385.63,186.69c-0.52-0.19-1.09,0.08-1.28,0.6
			c-0.19,0.52,0.08,1.09,0.6,1.28L385.63,186.69z M379.41,185.12c0.39,0.39,1.03,0.39,1.41-0.01c0.39-0.39,0.39-1.03-0.01-1.41
			L379.41,185.12z M377.73,178.91c-0.2-0.51-0.78-0.76-1.3-0.56c-0.51,0.2-0.76,0.78-0.56,1.3L377.73,178.91z M374.41,173.41
			c0.06,0.55,0.55,0.95,1.1,0.89s0.95-0.55,0.89-1.1L374.41,173.41z M376.31,167.23c0.04-0.55-0.38-1.03-0.93-1.06
			c-0.55-0.04-1.03,0.38-1.06,0.93L376.31,167.23z M375.11,160.88c-0.1,0.54,0.26,1.06,0.8,1.17c0.54,0.1,1.06-0.26,1.17-0.8
			L375.11,160.88z M378.3,155.87c0.14-0.53-0.18-1.08-0.71-1.22c-0.53-0.14-1.08,0.18-1.22,0.71L378.3,155.87z M377.89,150.47
			c-0.19,0.52,0.08,1.09,0.6,1.28c0.52,0.19,1.09-0.08,1.28-0.6L377.89,150.47z M381.73,146.68c0.26-0.49,0.08-1.09-0.41-1.35
			s-1.09-0.08-1.35,0.41L381.73,146.68z M382.84,141.39c-0.35,0.43-0.28,1.06,0.15,1.41c0.43,0.35,1.06,0.28,1.41-0.15
			L382.84,141.39z M387.76,139.13c0.41-0.37,0.45-1,0.08-1.41c-0.37-0.41-1-0.45-1.41-0.08L387.76,139.13z M390.41,134.43
			c-0.44,0.33-0.54,0.95-0.21,1.4c0.33,0.44,0.95,0.54,1.4,0.21L390.41,134.43z M396.18,132.82c0.45-0.32,0.57-0.94,0.25-1.39
			s-0.94-0.57-1.39-0.25L396.18,132.82z M400.18,127.62c-0.46,0.31-0.57,0.93-0.26,1.39c0.31,0.46,0.93,0.57,1.39,0.26
			L400.18,127.62z M406.46,125.8c0.46-0.3,0.59-0.92,0.29-1.39c-0.3-0.46-0.92-0.59-1.39-0.29L406.46,125.8z M410.64,120.75
			c-0.47,0.29-0.61,0.91-0.32,1.38c0.29,0.47,0.91,0.61,1.38,0.32L410.64,120.75z M417.02,119.27c0.48-0.27,0.64-0.89,0.37-1.37
			c-0.27-0.48-0.89-0.64-1.37-0.37L417.02,119.27z M421.53,114.52c-0.49,0.25-0.68,0.86-0.43,1.35s0.86,0.68,1.35,0.43
			L421.53,114.52z M428.01,113.59c0.5-0.23,0.73-0.82,0.5-1.32c-0.23-0.5-0.82-0.73-1.32-0.5L428.01,113.59z M432.99,109.34
			c-0.52,0.2-0.77,0.78-0.58,1.29s0.78,0.77,1.29,0.58L432.99,109.34z M439.53,109.2c0.53-0.16,0.83-0.72,0.66-1.25
			s-0.72-0.83-1.25-0.66L439.53,109.2z M445.05,105.68c-0.54,0.12-0.88,0.65-0.76,1.19s0.65,0.88,1.19,0.76L445.05,105.68z
			 M451.53,106.57c0.55-0.07,0.93-0.57,0.86-1.12c-0.07-0.55-0.57-0.93-1.12-0.86L451.53,106.57z M457.58,104.06
			c-0.55,0.02-0.98,0.48-0.97,1.03c0.02,0.55,0.48,0.98,1.03,0.97L457.58,104.06z M463.78,106.16c0.55,0.04,1.03-0.38,1.06-0.93
			c0.04-0.55-0.38-1.03-0.93-1.06L463.78,106.16z M470.21,104.9c-0.54-0.09-1.06,0.27-1.15,0.82c-0.09,0.54,0.27,1.06,0.82,1.15
			L470.21,104.9z M475.81,108.2c0.53,0.15,1.08-0.16,1.24-0.69c0.15-0.53-0.16-1.08-0.69-1.24L475.81,108.2z M482.28,108.31
			c-0.51-0.2-1.09,0.05-1.3,0.56c-0.2,0.51,0.05,1.09,0.56,1.3L482.28,108.31z M487.09,112.65c0.5,0.24,1.09,0.04,1.34-0.45
			c0.24-0.49,0.04-1.09-0.45-1.34L487.09,112.65z M493.46,113.81c-0.48-0.28-1.09-0.11-1.37,0.36s-0.11,1.09,0.36,1.37
			L493.46,113.81z M497.65,118.76c0.46,0.3,1.08,0.18,1.39-0.28c0.3-0.46,0.18-1.08-0.28-1.39L497.65,118.76z M503.85,120.63
			c-0.45-0.33-1.07-0.23-1.4,0.22c-0.33,0.45-0.23,1.07,0.22,1.4L503.85,120.63z M507.52,125.97c0.43,0.35,1.06,0.28,1.41-0.15
			c0.35-0.43,0.28-1.06-0.15-1.41L507.52,125.97z M513.52,128.4c-0.42-0.36-1.05-0.32-1.41,0.09c-0.36,0.42-0.32,1.05,0.09,1.41
			L513.52,128.4z M516.72,134.04c0.4,0.38,1.03,0.37,1.41-0.03c0.38-0.4,0.37-1.03-0.03-1.41L516.72,134.04z M522.49,136.99
			c-0.38-0.4-1.01-0.42-1.41-0.04c-0.4,0.38-0.42,1.01-0.03,1.41L522.49,136.99z M525.12,142.91c0.36,0.42,0.99,0.48,1.41,0.12
			c0.42-0.36,0.48-0.99,0.12-1.41L525.12,142.91z M530.45,146.61c-0.3-0.46-0.93-0.59-1.39-0.28c-0.46,0.3-0.59,0.93-0.28,1.39
			L530.45,146.61z M530.19,150.22c0.21,0.51,0.8,0.75,1.31,0.54c0.51-0.21,0.75-0.8,0.54-1.31L530.19,150.22z M473.1,106.48
			l0.22-0.98L473.1,106.48z M393.06,133.77l0.57,0.82L393.06,133.77z M376.73,158.06l0.97,0.23L376.73,158.06z M388.26,188.42
			l0.18-0.98L388.26,188.42z M417.01,165.94l-1-0.08L417.01,165.94z M370.57,114.01l-0.27,0.96L370.57,114.01z M294.53,124.5
			l-0.49-0.87L294.53,124.5z M272.21,139.18l-0.66-0.76L272.21,139.18z M265.97,141.95c-0.55,0.07-0.94,0.57-0.87,1.12
			c0.07,0.55,0.57,0.94,1.12,0.87L265.97,141.95z"/>
		<circle class="st3" cx="243.5" cy="175.34" r="56.5"/>
		<g>
			<defs>
				<circle id="SVGID_00000004540822115021315980000012067007650016986037_" cx="243.5" cy="175.34" r="56.5"/>
			</defs>
			<clipPath id="SVGID_00000135659586884744934270000001938703904868725695_">
				<use xlink:href="#SVGID_00000004540822115021315980000012067007650016986037_"  style="overflow:visible;"/>
			</clipPath>
			<path style="clip-path:url(#SVGID_00000135659586884744934270000001938703904868725695_);fill:#18292D;" d="M243.5,120.84
				c30.1,0,54.5,24.4,54.5,54.5h4c0-32.31-26.19-58.5-58.5-58.5V120.84z M189,175.34c0-30.1,24.4-54.5,54.5-54.5v-4
				c-32.31,0-58.5,26.19-58.5,58.5H189z M243.5,229.84c-30.1,0-54.5-24.4-54.5-54.5h-4c0,32.31,26.19,58.5,58.5,58.5V229.84z
				 M298,175.34c0,30.1-24.4,54.5-54.5,54.5v4c32.31,0,58.5-26.19,58.5-58.5H298z"/>
		</g>
		<path class="st17" d="M271.35,180.76c2.81,3.03,0.94,7.96-3.17,8.37l-47.24,4.73c-3.69,0.37-6.49-3.27-5.17-6.75l14.98-39.56
			c1.31-3.47,5.82-4.35,8.34-1.63L271.35,180.76z"/>
		<g>
			<defs>
				<path id="SVGID_00000119112588627469009540000010933903610263464892_" d="M271.35,180.76c2.81,3.03,0.94,7.96-3.17,8.37
					l-47.24,4.73c-3.69,0.37-6.49-3.27-5.17-6.75l14.98-39.56c1.31-3.47,5.82-4.35,8.34-1.63L271.35,180.76z"/>
			</defs>
			<clipPath id="SVGID_00000038389286931550346150000005712751192814516918_">
				<use xlink:href="#SVGID_00000119112588627469009540000010933903610263464892_"  style="overflow:visible;"/>
			</clipPath>
			<path style="clip-path:url(#SVGID_00000038389286931550346150000005712751192814516918_);" d="M268.68,194.11
				c8.22-0.82,11.95-10.69,6.34-16.75l-7.34,6.8c0.01,0.01,0.02,0.02,0.02,0.03c0,0,0,0,0,0c0,0,0-0.01-0.01-0.02
				c0-0.01,0-0.01,0-0.02c0-0.01,0-0.02,0-0.01c0,0,0,0.01,0,0.01c0,0,0,0.01,0,0.02c0,0.01,0,0.01-0.01,0.01s0,0.01-0.01,0.01
				c0,0,0,0,0.01-0.01c0,0,0.01-0.01,0.02-0.01c0.01,0,0.01-0.01,0.02-0.01c0,0,0.01,0,0,0c0,0-0.01,0-0.03,0.01L268.68,194.11z
				 M220.44,188.89c-0.01,0-0.02,0-0.02,0c0,0,0,0,0,0C220.43,188.89,220.43,188.89,220.44,188.89
				C220.44,188.9,220.45,188.9,220.44,188.89c0.01,0.01,0.01,0.01,0.01,0.01C220.45,188.9,220.45,188.9,220.44,188.89
				c0-0.01-0.01-0.01-0.01-0.01C220.43,188.87,220.44,188.88,220.44,188.89C220.44,188.89,220.44,188.89,220.44,188.89
				c-0.01,0.01-0.01,0.01-0.01,0.02c0,0,0,0,0,0C220.44,188.91,220.44,188.9,220.44,188.89l-9.35-3.54
				c-2.63,6.94,2.96,14.23,10.35,13.49L220.44,188.89z M235.42,149.32c0-0.01,0.01-0.02,0.01-0.02c0,0,0,0,0,0
				C235.43,149.31,235.42,149.31,235.42,149.32c0,0-0.01,0-0.01,0c-0.01,0-0.01,0.01-0.01,0
				C235.41,149.33,235.41,149.33,235.42,149.32c0.01,0,0.01,0,0.02,0C235.44,149.32,235.44,149.32,235.42,149.32
				C235.43,149.32,235.42,149.32,235.42,149.32c-0.01-0.01-0.01-0.01-0.01-0.01c0,0,0,0,0,0
				C235.41,149.31,235.41,149.32,235.42,149.32l7.34-6.8c-5.05-5.45-14.06-3.69-16.69,3.25L235.42,149.32z M235.42,149.32
				l32.26,34.83l7.34-6.8l-32.26-34.83L235.42,149.32z M220.44,188.89l14.98-39.56l-9.35-3.54l-14.98,39.56L220.44,188.89z
				 M267.69,184.16l-47.24,4.73l1,9.95l47.24-4.73L267.69,184.16z M268.18,189.13l0.5,4.98L268.18,189.13z"/>
		</g>
		<path d="M367.91,282.91c-1.41-4.83-3.32-9.93-5.65-15.1c1.83-2.94,3.44-5.82,4.82-8.59c12.57,3.26,21.03,8.32,20.72,13.35
			C387.51,277.3,379.54,281.09,367.91,282.91z M363.53,309.34c-5.12,0-12.95-6.89-20.46-17.57c1.96-1.91,3.92-3.97,5.86-6.15
			c6.01,0.15,11.94-0.09,17.85-0.91C369.03,292.89,371.78,309.34,363.53,309.34z M331.19,299.58c-6.88,4.63-12.41,6.04-15.16,3.87
			c-3.67-2.9-2.29-11.6,2.73-22.26c5.34,1.6,11.44,2.82,17.94,3.58c1.41,2.4,2.85,4.68,4.3,6.81
			C337.68,294.74,334.37,297.45,331.19,299.58L331.19,299.58z M313.29,277.62c-20.3-8.26-12.7-18.3,11.02-21.21
			c0.73,2.55,1.6,5.17,2.6,7.85c-3.65,5.18-6.68,10.27-9.02,15.02C316.28,278.76,314.74,278.21,313.29,277.62z M323.68,246.41
			c-0.91-6.19-1.07-15.99,5.08-15.99c5.76,0,13.2,8.11,16.84,12.63c-3.6,3.18-7.25,6.92-10.79,11.05c-3.24,0.07-6.37,0.27-9.36,0.59
			C324.67,251.8,324.06,249.02,323.68,246.41L323.68,246.41z M356.88,257.14c3.01,0.47,5.9,1.03,8.6,1.69
			c-1.18,2.35-2.53,4.78-4.03,7.24C360.21,263.4,358.9,260.74,356.88,257.14z M336.91,254.07c3.19-3.64,6.45-6.94,9.67-9.79
			c2.51,3.23,4.97,6.88,7.32,10.83C348.24,254.4,342.49,254.05,336.91,254.07z M328.02,262.73c-0.8-2.2-1.52-4.37-2.13-6.49
			c2.42-0.26,4.95-0.43,7.56-0.51C331.43,258.17,329.76,260.33,328.02,262.73z M335.72,283.08c-5.87-0.74-11.39-1.86-16.26-3.31
			c2.16-4.37,4.9-9.03,8.14-13.72C329.92,272,332.61,277.6,335.72,283.08L335.72,283.08z M346.88,285.57
			c-1.56,1.72-3.13,3.36-4.71,4.9c-1.18-1.74-2.36-3.56-3.5-5.47C342.35,285.38,344.55,285.48,346.88,285.57z M361.25,269.41
			c2.07,4.7,3.8,9.33,5.1,13.73c-4.87,0.67-10.31,1.01-16.07,0.94C354.34,279.36,358.06,274.36,361.25,269.41L361.25,269.41z
			 M348.24,284.05c-3.51-0.1-7.01-0.34-10.58-0.73c-3.53-6.08-6.62-12.56-9-18.79c2.14-3.01,4.32-5.83,6.86-8.83
			c6.57-0.1,13,0.29,19.38,1.17c2.09,3.65,3.89,7.16,5.56,10.81C356.83,273.48,352.67,279,348.24,284.05z M365.9,233.59
			c1.33,0,2.44,0.33,3.29,1c3.73,2.95,2.25,11.88-2.97,22.76c-3.22-0.78-6.68-1.45-10.34-1.97c-2.58-4.44-5.32-8.53-8.11-12.12
			C352.21,239.47,360.1,233.59,365.9,233.59z M367.81,257.75c12.09-25.48,1.04-34.53-21.01-15.72
			c-17.88-22.17-30.46-15.36-22.9,12.85c-3.53,0.44-6.84,1.06-9.81,1.85c-8.81,2.36-13.81,6.03-14.08,10.34
			c-0.42,6.85,10.74,11.56,17.21,13.65c-12.4,26.52,0.68,34.83,24.69,12.18c19.18,27.26,34.96,22.82,26.44-8.41
			C396.45,280.03,396.49,265.28,367.81,257.75z"/>
		<ellipse class="st17" cx="322.21" cy="243.26" rx="3.97" ry="4.02"/>
		<ellipse class="st17" cx="356.86" cy="306.26" rx="4.32" ry="4.36"/>
		<ellipse class="st19" cx="369.3" cy="250.21" rx="4.78" ry="4.83"/>
		<ellipse class="st19" cx="327.85" cy="301.45" rx="4.18" ry="4.23"/>
		<path d="M515.7,70.3c-0.53-1.83-1.26-3.76-2.14-5.71c0.69-1.11,1.3-2.2,1.82-3.25c4.76,1.23,7.96,3.15,7.84,5.05
			C523.11,68.18,520.1,69.62,515.7,70.3z M514.04,80.31c-1.94,0-4.9-2.61-7.74-6.65c0.74-0.72,1.48-1.5,2.22-2.33
			c2.27,0.06,4.52-0.03,6.76-0.35C516.12,74.08,517.16,80.31,514.04,80.31z M501.8,76.61c-2.61,1.75-4.7,2.29-5.74,1.47
			c-1.39-1.1-0.87-4.39,1.03-8.42c2.02,0.61,4.33,1.07,6.79,1.36c0.53,0.91,1.08,1.77,1.63,2.58
			C504.26,74.78,503.01,75.81,501.8,76.61L501.8,76.61z M495.03,68.3c-7.68-3.13-4.81-6.93,4.17-8.03c0.28,0.96,0.6,1.96,0.98,2.97
			c-1.38,1.96-2.53,3.89-3.41,5.68C496.16,68.74,495.58,68.53,495.03,68.3z M498.96,56.49c-0.34-2.34-0.41-6.05,1.92-6.05
			c2.18,0,4.99,3.07,6.37,4.78c-1.36,1.21-2.74,2.62-4.08,4.18c-1.23,0.03-2.41,0.1-3.54,0.22
			C499.34,58.53,499.1,57.48,498.96,56.49L498.96,56.49z M511.53,60.55c1.14,0.18,2.23,0.39,3.26,0.64
			c-0.45,0.89-0.96,1.81-1.52,2.74C512.79,62.92,512.29,61.92,511.53,60.55z M503.97,59.39c1.21-1.38,2.44-2.63,3.66-3.7
			c0.95,1.22,1.88,2.6,2.77,4.1C508.25,59.52,506.08,59.38,503.97,59.39z M500.6,62.67c-0.3-0.83-0.58-1.66-0.81-2.45
			c0.92-0.1,1.87-0.16,2.86-0.19C501.89,60.94,501.26,61.76,500.6,62.67z M503.52,70.37c-2.22-0.28-4.31-0.71-6.15-1.25
			c0.82-1.65,1.85-3.42,3.08-5.19C501.32,66.17,502.34,68.29,503.52,70.37L503.52,70.37z M507.74,71.31
			c-0.59,0.65-1.19,1.27-1.78,1.86c-0.45-0.66-0.89-1.35-1.33-2.07C506.03,71.24,506.86,71.28,507.74,71.31z M513.18,65.2
			c0.78,1.78,1.44,3.53,1.93,5.19c-1.84,0.25-3.9,0.38-6.08,0.36C510.56,68.96,511.97,67.07,513.18,65.2L513.18,65.2z M508.26,70.73
			c-1.33-0.04-2.65-0.13-4-0.28c-1.34-2.3-2.5-4.75-3.4-7.11c0.81-1.14,1.63-2.2,2.6-3.34c2.49-0.04,4.92,0.11,7.34,0.44
			c0.79,1.38,1.47,2.71,2.11,4.09C511.5,66.74,509.93,68.82,508.26,70.73z M514.94,51.64c0.5,0,0.92,0.12,1.24,0.38
			c1.41,1.12,0.85,4.5-1.12,8.61c-1.22-0.3-2.53-0.55-3.91-0.74c-0.98-1.68-2.01-3.23-3.07-4.59
			C509.76,53.87,512.74,51.64,514.94,51.64z M515.66,60.78c4.58-9.64,0.39-13.07-7.95-5.95c-6.77-8.39-11.53-5.81-8.67,4.86
			c-1.34,0.17-2.59,0.4-3.71,0.7c-3.34,0.89-5.23,2.28-5.33,3.91c-0.16,2.59,4.07,4.37,6.51,5.17c-4.69,10.04,0.26,13.18,9.34,4.61
			c7.26,10.31,13.23,8.64,10-3.18C526.5,69.21,526.52,63.63,515.66,60.78z"/>
		<path class="st17" d="M498.41,56.82c0.83,0,1.5-0.68,1.5-1.52c0-0.84-0.67-1.52-1.5-1.52c-0.83,0-1.5,0.68-1.5,1.52
			C496.9,56.14,497.58,56.82,498.41,56.82z"/>
		<path class="st17" d="M511.52,80.79c0.9,0,1.63-0.74,1.63-1.65c0-0.91-0.73-1.65-1.63-1.65s-1.63,0.74-1.63,1.65
			C509.88,80.05,510.61,80.79,511.52,80.79z"/>
		<path class="st19" d="M516.23,59.76c1,0,1.81-0.82,1.81-1.83c0-1.01-0.81-1.83-1.81-1.83c-1,0-1.81,0.82-1.81,1.83
			C514.42,58.94,515.23,59.76,516.23,59.76z"/>
		<ellipse class="st19" cx="500.54" cy="77.32" rx="1.58" ry="1.6"/>
		<path d="M1119.74,284.82c-1.2-4.1-2.82-8.45-4.8-12.84c1.56-2.5,2.93-4.95,4.1-7.3c10.69,2.77,17.88,7.07,17.62,11.35
			C1136.41,280.05,1129.63,283.27,1119.74,284.82z M1116.02,307.3c-4.36,0-11.01-5.86-17.39-14.94c1.67-1.62,3.34-3.37,4.98-5.23
			c5.11,0.12,10.15-0.07,15.18-0.78C1120.7,293.31,1123.03,307.3,1116.02,307.3z M1088.52,299c-5.85,3.94-10.55,5.14-12.89,3.29
			c-3.12-2.46-1.95-9.87,2.32-18.93c4.54,1.36,9.73,2.4,15.26,3.05c1.2,2.04,2.42,3.98,3.66,5.79
			C1094.04,294.88,1091.23,297.18,1088.52,299L1088.52,299z M1073.3,280.32c-17.26-7.03-10.8-15.56,9.37-18.03
			c0.62,2.17,1.36,4.4,2.21,6.67c-3.1,4.4-5.68,8.73-7.67,12.77C1075.84,281.29,1074.53,280.82,1073.3,280.32z M1082.13,253.79
			c-0.77-5.26-0.91-13.6,4.32-13.6c4.9,0,11.22,6.89,14.32,10.74c-3.06,2.71-6.16,5.88-9.18,9.39c-2.76,0.06-5.42,0.23-7.96,0.5
			C1082.98,258.37,1082.46,256,1082.13,253.79L1082.13,253.79z M1110.37,262.91c2.56,0.4,5.01,0.88,7.32,1.44
			c-1,2-2.15,4.06-3.42,6.16C1113.2,268.23,1112.09,265.97,1110.37,262.91z M1093.39,260.3c2.71-3.1,5.48-5.9,8.22-8.32
			c2.13,2.75,4.22,5.85,6.22,9.21C1103.02,260.58,1098.13,260.28,1093.39,260.3z M1085.83,267.66c-0.68-1.87-1.29-3.72-1.81-5.51
			c2.06-0.22,4.21-0.36,6.43-0.44C1088.72,263.78,1087.3,265.62,1085.83,267.66z M1092.37,284.96c-4.99-0.63-9.68-1.59-13.83-2.81
			c1.84-3.72,4.17-7.68,6.92-11.67C1087.45,275.54,1089.73,280.3,1092.37,284.96L1092.37,284.96z M1101.87,287.08
			c-1.33,1.47-2.67,2.86-4.01,4.17c-1-1.48-2-3.03-2.98-4.65C1098.01,286.92,1099.88,287,1101.87,287.08z M1114.09,273.34
			c1.76,4,3.23,7.94,4.34,11.67c-4.14,0.57-8.77,0.86-13.66,0.8C1108.21,281.8,1111.37,277.55,1114.09,273.34L1114.09,273.34z
			 M1103.02,285.79c-2.99-0.08-5.96-0.29-9-0.62c-3-5.17-5.63-10.68-7.65-15.98c1.82-2.56,3.67-4.95,5.84-7.51
			c5.58-0.09,11.05,0.25,16.48,1c1.78,3.1,3.31,6.08,4.73,9.19C1110.32,276.8,1106.79,281.49,1103.02,285.79z M1118.04,242.88
			c1.13,0,2.07,0.28,2.8,0.85c3.17,2.51,1.91,10.1-2.53,19.36c-2.74-0.66-5.68-1.23-8.79-1.67c-2.2-3.78-4.53-7.26-6.89-10.31
			C1106.4,247.88,1113.11,242.88,1118.04,242.88z M1119.66,263.42c10.28-21.66,0.89-29.37-17.87-13.37
			c-15.2-18.86-25.9-13.06-19.47,10.93c-3,0.38-5.81,0.9-8.34,1.58c-7.49,2.01-11.74,5.13-11.97,8.79
			c-0.36,5.82,9.14,9.83,14.63,11.61c-10.55,22.55,0.58,29.62,20.99,10.36c16.31,23.18,29.73,19.4,22.48-7.15
			C1144.02,282.37,1144.05,269.83,1119.66,263.42z"/>
		<ellipse class="st17" cx="1080.89" cy="251.1" rx="3.38" ry="3.42"/>
		<path class="st17" d="M1110.35,308.39c2.03,0,3.67-1.66,3.67-3.71s-1.64-3.71-3.67-3.71c-2.03,0-3.67,1.66-3.67,3.71
			S1108.32,308.39,1110.35,308.39z"/>
		<ellipse class="st19" cx="1120.93" cy="257.01" rx="4.07" ry="4.11"/>
		<ellipse class="st19" cx="1085.68" cy="300.58" rx="3.56" ry="3.6"/>
		<path class="st20" d="M662.92,396.69c-0.19,3.23,0.29,5.38-3.03,5.69c-0.16,0.02-30.84,0-31.01,0c6.41-3.36,5.35-9.19-3.31-10.61
			c5.8-1.09,10.77-3.12,9.6-7.91c-0.51-2.11-4.5-4.26-10.18-4.8c3.13-0.53,7.17-1.39,9.24-3.8c1.95-2.3,0.89-5.81-1.52-7.35
			c-1.76-1.12-3.94-1.39-6.02-1.57c-1.41-0.13-2.8-0.25-4.21-0.33c-4.54-0.2-10.86,1.02-11.43,0.82c-0.17-0.06-0.33-0.22-0.33-0.4
			c0.02-0.14,0.77-1.34,0.86-1.66c0.3-0.88,0.37-1.92,0.47-2.85c0.63-5.78-0.73-12.21-4.21-17.45c-0.86-1.31-2.02-2.66-3.58-2.86
			c-2.25-0.32-4.15,1.92-4.55,4.16c-0.42,2.24,0.13,4.52,0.11,6.8c-0.03,3.73-1.84,8.64-5.16,10.73c-0.11,0.06-0.22,0.13-0.33,0.21
			c-3.12,1.48-10.09,4.4-18.03,4.26c-30.04,1.31-48.66-0.13-51.1-0.13c-6.91-0.38-9.92-2.41-11.06-11.21
			c-0.27-2.01-0.19-12.21-0.1-15.34c-0.04-0.16,0.29-14.78,2.45-14.24c-3.13-0.7-5.77-2.26-10.45-2.8
			c-15.67-1.79-31.78,0.83-46.49,6.79c3.17-19.48,8.77-38.52,16.59-56.53c6.75-15.54,19.24-26.77,34.39-33.41
			c9.78-4.28,31-13.63,41.45-12.55c0.21,2.66,0.18,5.45,1,8c3.94,12.42,20.67,17.53,31.43,4.81c1.06-1.25,1.91-1.21,1.57-2.81
			c-1.03-4.96-0.19-7.04,0-7.5c0.17-0.43,3.55,0,4,0c7.76,0,10.3,0.59,18.97,2.43c13.1,2.77,35.39,10.8,41.7,23.71
			c9.41,19.24,12.13,43.48,13.53,64.55C665.84,346.56,664.38,371.66,662.92,396.69L662.92,396.69z"/>
		<path d="M663.92,396.7L663.92,396.7l-2-0.01v0.01H663.92z M663.2,321.61c1.64,24.94,0.19,49.98-1.27,75.03l2,0.12
			c1.46-25.02,2.92-50.19,1.27-75.28L663.2,321.61z M649.77,257.43c9.31,19.05,12.03,43.11,13.43,64.18l2-0.13
			c-1.4-21.07-4.12-45.49-13.63-64.93L649.77,257.43z M608.77,234.25c6.49,1.37,15.25,4.05,23.16,7.97
			c7.95,3.94,14.84,9.05,17.84,15.21l1.8-0.88c-3.3-6.77-10.7-12.13-18.75-16.12c-8.09-4.01-17.02-6.74-23.63-8.13L608.77,234.25z
			 M590,231.85c7.65,0,10.11,0.57,18.76,2.41l0.42-1.96c-8.69-1.85-11.31-2.45-19.18-2.45V231.85z M586.93,231.21
			c-0.1,0.25-0.28,0.38-0.35,0.42c-0.04,0.02-0.07,0.04-0.09,0.05c-0.02,0.01-0.03,0.01-0.03,0.01c0,0,0.02,0,0.06-0.01
			c0.04-0.01,0.1-0.01,0.17-0.01c0.29-0.02,0.69-0.01,1.14,0.02c0.44,0.03,0.9,0.07,1.29,0.1c0.34,0.03,0.71,0.06,0.88,0.06v-2
			c0,0-0.01,0-0.06,0c-0.04,0-0.09-0.01-0.16-0.01c-0.13-0.01-0.3-0.03-0.49-0.04c-0.38-0.03-0.87-0.08-1.34-0.1
			c-0.47-0.03-0.97-0.04-1.38-0.02c-0.2,0.01-0.43,0.04-0.63,0.09c-0.1,0.03-0.25,0.08-0.39,0.16c-0.14,0.08-0.36,0.26-0.48,0.57
			L586.93,231.21z M586.98,238.14c-0.99-4.76-0.16-6.64-0.05-6.92l-1.85-0.75c-0.26,0.65-1.13,2.93-0.05,8.08L586.98,238.14z
			 M585.19,241.81c0.22-0.26,0.43-0.45,0.64-0.64c0.19-0.16,0.45-0.39,0.66-0.62c0.24-0.27,0.44-0.61,0.53-1.06
			c0.08-0.42,0.05-0.87-0.05-1.34l-1.96,0.41c0.07,0.33,0.06,0.48,0.04,0.54c-0.01,0.03-0.02,0.06-0.08,0.14
			c-0.09,0.11-0.22,0.21-0.48,0.44c-0.24,0.21-0.53,0.48-0.84,0.84L585.19,241.81z M552.05,236.65
			c4.17,13.16,21.87,18.49,33.15,5.16l-1.53-1.29c-10.24,12.11-26.01,7.22-29.71-4.47L552.05,236.65z M551,228.42
			c0.2,2.54,0.18,5.53,1.04,8.23l1.9-0.61c-0.77-2.4-0.74-4.99-0.96-7.77L551,228.42z M510.95,241.81c4.9-2.14,12.61-5.53,20.4-8.26
			c3.9-1.36,7.79-2.55,11.35-3.33c3.57-0.78,6.74-1.14,9.19-0.88l0.21-1.99c-2.77-0.29-6.18,0.12-9.83,0.92
			c-3.67,0.8-7.64,2.02-11.58,3.39c-7.88,2.75-15.66,6.17-20.55,8.31L510.95,241.81z M477.07,274.7
			c6.63-15.27,18.92-26.34,33.88-32.89l-0.8-1.83c-15.35,6.73-28.05,18.13-34.91,33.93L477.07,274.7z M460.55,330.99
			c3.16-19.4,8.73-38.36,16.52-56.3l-1.83-0.8c-7.86,18.09-13.48,37.21-16.66,56.77L460.55,330.99z M506.17,323.05
			c-15.85-1.81-32.14,0.84-46.98,6.86l0.75,1.85c14.57-5.91,30.52-8.49,46-6.72L506.17,323.05z M516.72,325.87
			c-1.5-0.33-2.85-0.87-4.54-1.43c-1.67-0.56-3.57-1.1-6-1.39l-0.23,1.99c2.25,0.26,4,0.76,5.6,1.3c1.57,0.52,3.11,1.12,4.74,1.49
			L516.72,325.87z M515.02,340.85c0.01,0.05,0.02,0.09,0.02,0.11c0,0.02,0,0.03,0,0.04c0,0.02,0,0.03,0,0.03c0,0.01,0,0,0-0.01
			c0-0.02,0-0.06,0-0.11c0-0.11,0-0.27,0.01-0.47c0.01-0.41,0.03-0.98,0.06-1.67c0.06-1.37,0.16-3.18,0.33-4.96
			c0.17-1.79,0.41-3.51,0.72-4.73c0.16-0.62,0.32-1.03,0.45-1.25c0.17-0.27,0.04,0.09-0.36-0.01l0.48-1.94
			c-0.95-0.23-1.55,0.47-1.82,0.9c-0.3,0.48-0.52,1.13-0.69,1.8c-0.35,1.38-0.6,3.22-0.78,5.04c-0.18,1.83-0.28,3.67-0.34,5.07
			c-0.03,0.7-0.05,1.29-0.06,1.71c0,0.21-0.01,0.38-0.01,0.5c0,0.06,0,0.11,0,0.16c0,0.02,0,0.05,0,0.07c0,0.01,0,0.03,0,0.05
			c0,0,0.01,0.08,0.03,0.16L515.02,340.85z M515.14,356.3c-0.12-0.92-0.17-3.89-0.17-7.12c0-3.19,0.04-6.51,0.08-8.06l-2-0.06
			c-0.04,1.58-0.09,4.92-0.08,8.12c0,3.16,0.05,6.29,0.19,7.38L515.14,356.3z M525.27,366.64c-3.4-0.19-5.57-0.78-7.06-2.18
			c-1.5-1.41-2.5-3.82-3.06-8.16l-1.98,0.26c0.58,4.46,1.66,7.46,3.68,9.36c2.03,1.91,4.82,2.53,8.32,2.72L525.27,366.64z
			 M576.28,366.77c-30.03,1.31-48.51-0.13-51.06-0.13v2c2.34,0,21.09,1.44,51.15,0.13L576.28,366.77z M593.92,362.61
			c-3.08,1.46-9.88,4.3-17.58,4.16l-0.04,2c8.17,0.15,15.31-2.85,18.48-4.35L593.92,362.61z M594.2,362.43
			c-0.15,0.08-0.29,0.17-0.43,0.28l1.18,1.62c0.08-0.06,0.15-0.1,0.22-0.14L594.2,362.43z M598.84,352.57
			c-0.01,1.72-0.44,3.75-1.26,5.58c-0.82,1.84-2,3.4-3.43,4.31l1.06,1.69c1.88-1.18,3.27-3.12,4.2-5.19
			c0.93-2.07,1.42-4.37,1.43-6.38L598.84,352.57z M598.75,345.59c-0.24,1.25-0.2,2.49-0.11,3.64c0.09,1.19,0.21,2.25,0.2,3.33
			l2,0.02c0.01-1.19-0.13-2.42-0.21-3.49c-0.08-1.12-0.1-2.14,0.08-3.13L598.75,345.59z M604.42,340.63
			c-1.52-0.21-2.85,0.45-3.81,1.4c-0.96,0.95-1.63,2.25-1.87,3.57l1.97,0.36c0.17-0.92,0.65-1.85,1.3-2.5
			c0.65-0.65,1.39-0.94,2.12-0.84L604.42,340.63z M608.7,343.93c-0.86-1.31-2.24-3.04-4.29-3.3l-0.25,1.98
			c1.07,0.14,2.01,1.11,2.87,2.41L608.7,343.93z M613.06,362.04c0.65-6-0.75-12.66-4.37-18.11l-1.67,1.11
			c3.34,5.04,4.65,11.22,4.05,16.79L613.06,362.04z M612.54,365.09c0.34-1.01,0.43-2.2,0.52-3.06l-1.99-0.21
			c-0.1,0.99-0.18,1.89-0.43,2.63L612.54,365.09z M611.73,366.57c-0.01,0.07-0.03,0.12-0.03,0.14c-0.01,0.02-0.01,0.04-0.02,0.05
			c-0.01,0.01-0.01,0.02,0,0c0.01-0.03,0.03-0.07,0.07-0.13c0.07-0.13,0.16-0.29,0.27-0.48c0.1-0.18,0.21-0.37,0.3-0.55
			c0.07-0.14,0.19-0.37,0.24-0.56l-1.93-0.54c0.01-0.04,0,0.01-0.09,0.18c-0.07,0.14-0.17,0.32-0.27,0.49
			c-0.1,0.17-0.2,0.36-0.28,0.5c-0.04,0.07-0.08,0.15-0.11,0.22c-0.02,0.03-0.04,0.08-0.05,0.12c-0.01,0.02-0.05,0.13-0.07,0.27
			L611.73,366.57z M611.39,365.89c0.08,0.03,0.14,0.07,0.2,0.14c0.06,0.07,0.14,0.21,0.14,0.4h-2c0,0.75,0.58,1.2,0.99,1.35
			L611.39,365.89z M622.53,365.02c-2.36-0.1-5.14,0.16-7.36,0.42c-1.14,0.13-2.08,0.25-2.83,0.34c-0.37,0.04-0.66,0.07-0.86,0.08
			c-0.1,0.01-0.17,0.01-0.21,0.01c-0.07,0,0.01-0.01,0.14,0.04l-0.68,1.88c0.2,0.07,0.39,0.08,0.48,0.08c0.12,0,0.25,0,0.38-0.01
			c0.26-0.01,0.6-0.05,0.97-0.09c0.73-0.08,1.77-0.21,2.84-0.34c2.22-0.25,4.86-0.5,7.05-0.41L622.53,365.02z M626.79,365.35
			c-1.41-0.13-2.81-0.25-4.24-0.33l-0.11,2c1.39,0.08,2.77,0.19,4.17,0.32L626.79,365.35z M633.25,367.06
			c-2-1.27-4.41-1.54-6.47-1.72l-0.17,1.99c2.09,0.18,4.04,0.44,5.57,1.41L633.25,367.06z M635,375.91
			c1.21-1.43,1.47-3.22,1.09-4.84c-0.38-1.6-1.4-3.09-2.83-4l-1.08,1.69c0.98,0.62,1.69,1.66,1.96,2.78
			c0.26,1.1,0.07,2.21-0.66,3.08L635,375.91z M625.16,380.05c1.58-0.27,3.44-0.63,5.18-1.24c1.74-0.61,3.45-1.5,4.65-2.9l-1.52-1.3
			c-0.87,1.02-2.21,1.76-3.79,2.31c-1.58,0.55-3.3,0.89-4.86,1.15L625.16,380.05z M636.14,383.62c-0.37-1.51-1.85-2.75-3.68-3.65
			c-1.9-0.93-4.44-1.63-7.37-1.91l-0.19,1.99c2.74,0.26,5.04,0.91,6.68,1.71c1.71,0.84,2.48,1.72,2.62,2.32L636.14,383.62z
			 M625.76,392.75c2.92-0.55,5.79-1.36,7.79-2.73c1.02-0.69,1.86-1.56,2.34-2.66c0.49-1.11,0.58-2.36,0.25-3.75l-1.94,0.48
			c0.25,1.01,0.16,1.81-0.13,2.46c-0.3,0.66-0.84,1.27-1.64,1.82c-1.64,1.12-4.16,1.87-7.04,2.41L625.76,392.75z M629.35,403.27
			c3.36-1.76,5.23-4.44,4.5-7.18c-0.7-2.65-3.67-4.58-8.11-5.31l-0.32,1.97c4.21,0.69,6.11,2.38,6.5,3.85
			c0.37,1.37-0.45,3.29-3.5,4.89L629.35,403.27z M659.76,401.39c0.07-0.01,0.13-0.01,0.08-0.01c-0.01,0-0.03,0-0.06,0
			c-0.06,0-0.15,0-0.27,0c-0.23,0-0.57,0-1,0c-0.85,0-2.07,0-3.52,0c-2.9,0-6.76,0-10.61,0c-7.71,0-15.42-0.01-15.51-0.01v2
			c0.08,0,7.79,0,15.51,0.01c3.86,0,7.71,0,10.61,0c1.45,0,2.66,0,3.52,0c0.43,0,0.77,0,1,0c0.12,0,0.21,0,0.27,0
			c0.03,0,0.06,0,0.08,0c0.01,0,0.02,0,0.03,0c0.01,0,0.01,0,0.02,0c0,0,0.04,0,0.08-0.01L659.76,401.39z M661.93,396.63
			c-0.02,0.42-0.04,0.82-0.05,1.19c-0.01,0.37-0.02,0.71-0.04,1.03c-0.03,0.65-0.09,1.12-0.21,1.47c-0.11,0.33-0.25,0.53-0.46,0.68
			c-0.23,0.16-0.64,0.32-1.37,0.39l0.19,1.99c0.93-0.09,1.71-0.31,2.33-0.74c0.64-0.44,1.01-1.04,1.22-1.7
			c0.2-0.62,0.27-1.32,0.3-1.99c0.02-0.34,0.03-0.71,0.04-1.07c0.01-0.37,0.02-0.74,0.05-1.13L661.93,396.63z M662.92,396.7h-1
			l2,0.06L662.92,396.7z M664.19,321.54l1-0.07l0,0L664.19,321.54z M650.67,256.99l-0.9,0.44l0,0L650.67,256.99z M608.97,233.28
			l-0.21,0.98l0,0L608.97,233.28z M586,230.85l0.93,0.37l0-0.01l0-0.01L586,230.85z M586,238.35l0.98-0.2l0,0L586,238.35z
			 M584.43,241.16l-0.76-0.65l0,0L584.43,241.16z M553,236.35l0.95-0.3l0,0L553,236.35z M552,228.35l1-0.08l-0.06-0.83l-0.83-0.09
			L552,228.35z M510.55,240.89l-0.4-0.92l0,0L510.55,240.89z M476.15,274.3l-0.92-0.4l0,0L476.15,274.3z M459.56,330.83l-0.99-0.16
			l-0.29,1.76l1.65-0.67L459.56,330.83z M506.05,324.05l0.12-0.99l0,0L506.05,324.05z M516.5,326.85l-0.22,0.98l0.46-1.95
			L516.5,326.85z M514.05,341.09l1,0.03l0-0.14l-0.03-0.13L514.05,341.09z M514.15,356.43l0.99-0.13l0,0L514.15,356.43z
			 M525.22,367.64l-0.06,1l0.03,0h0.03V367.64z M576.32,367.77l0.02-1l-0.03,0l-0.03,0L576.32,367.77z M594.35,363.51l0.43,0.9
			l0.08-0.04l0.08-0.06L594.35,363.51z M594.68,363.31l0.48,0.88l0.03-0.01l0.03-0.02L594.68,363.31z M599.84,352.58l-1-0.01v0
			L599.84,352.58z M599.73,345.78l0.98,0.19l0-0.01L599.73,345.78z M604.28,341.62l-0.14,0.99l0.01,0L604.28,341.62z M607.86,344.48
			l-0.84,0.55l0,0.01L607.86,344.48z M612.07,361.93l-0.99-0.11l0,0L612.07,361.93z M611.59,364.77l-0.95-0.32l-0.01,0.02
			l-0.01,0.02L611.59,364.77z M610.74,366.43l-0.99-0.14l-0.01,0.07v0.07H610.74z M611.06,366.83l0.34-0.94l-0.01,0L611.06,366.83z
			 M622.49,366.02l0.06-1l-0.01,0L622.49,366.02z M626.7,366.34l-0.09,1l0.01,0L626.7,366.34z M632.72,367.91l0.54-0.84l0,0
			L632.72,367.91z M634.23,375.26l0.76,0.65l0,0L634.23,375.26z M624.99,379.06l-0.17-0.99l0.07,1.98L624.99,379.06z M635.17,383.86
			l-0.97,0.24l0,0L635.17,383.86z M625.57,391.77l-0.19-0.98l0.02,1.97L625.57,391.77z M628.88,402.38l-0.46-0.89l0.46,1.89V402.38z
			 M659.89,402.38l-0.09-1l-0.01,0l-0.01,0L659.89,402.38z M662.92,396.69h1l-2-0.06L662.92,396.69z"/>
		<path d="M616.9,178.1L616.9,178.1l2.84-2.82l-0.01-0.01L616.9,178.1z M617.15,153c3.83,6.63,4.08,16.41-0.45,22.5l3.21,2.39
			c5.66-7.63,5.16-19.17,0.7-26.88L617.15,153z M607.6,148.06c1.8-0.88,6.57-0.23,9.56,4.94l3.46-2
			c-3.73-6.45-10.58-8.59-14.78-6.53L607.6,148.06z M607.85,148.28c-0.07-0.23-0.1-0.38-0.11-0.48c-0.01-0.1,0-0.09-0.01-0.02
			c-0.01,0.04-0.02,0.08-0.05,0.13c-0.03,0.05-0.06,0.1-0.09,0.13c-0.06,0.07-0.08,0.06,0.01,0.01l-1.76-3.59
			c-0.99,0.48-1.75,1.28-2.01,2.41c-0.22,0.96,0,1.9,0.19,2.54L607.85,148.28z M613.76,178.48c-1.17-12.05-1.43-15.24-5.92-30.2
			l-3.83,1.15c4.4,14.66,4.61,17.59,5.77,29.44L613.76,178.48z M613.67,178.85c0.17,0.14,0.2,0.27,0.17,0.19
			c-0.01-0.04-0.03-0.1-0.04-0.2c-0.02-0.1-0.03-0.21-0.04-0.35l-3.98,0.37c0.03,0.34,0.09,0.86,0.25,1.39
			c0.17,0.54,0.5,1.23,1.17,1.76L613.67,178.85z M616.71,175.51c-0.5,0.68-1.46,1.78-2.41,2.53c-0.49,0.38-0.84,0.58-1.04,0.64
			c-0.17,0.06,0.1-0.07,0.41,0.17l-2.47,3.15c1.11,0.87,2.37,0.77,3.27,0.49c0.87-0.28,1.67-0.81,2.31-1.32
			c1.31-1.04,2.5-2.43,3.14-3.29L616.71,175.51z M618.31,176.68l-1.61-1.19l-1.03,1.38l1.22,1.22L618.31,176.68z M618.88,151.99
			l-1.73,1l0,0L618.88,151.99z M606.72,146.26l-0.88-1.8l0,0L606.72,146.26z M605.93,148.85l-1.92,0.57l0,0.01L605.93,148.85z
			 M611.77,178.67l1.99-0.18l0-0.01L611.77,178.67z M612.44,180.43l-1.23,1.57l0,0L612.44,180.43z M618.32,176.69l1.61,1.19
			l1.02-1.38l-1.22-1.22L618.32,176.69z"/>
		<path class="st21" d="M618.32,176.69c-1.14,1.55-4.3,4.98-5.88,3.73c-0.5-0.39-0.61-1.11-0.67-1.75
			c-1.16-11.95-1.4-15.01-5.84-29.82c-0.34-1.16-0.33-2.04,0.79-2.59c3-1.47,8.81-0.08,12.17,5.73
			C623.03,159.17,623.41,169.83,618.32,176.69L618.32,176.69z"/>
		<path d="M585.77,110.45c-0.2-0.28-0.31-0.59-0.32-0.9c-0.02-0.28,0.04-0.48,0.08-0.58c0.06-0.17,0.13-0.25,0.06-0.15l3.23,2.35
			c0.08-0.12,0.33-0.45,0.48-0.88c0.17-0.47,0.32-1.37-0.31-2.23L585.77,110.45z M585.75,110.52c0.05,0.03,0.1,0.06,0.13,0.09
			c0.03,0.02,0.07,0.04,0.09,0.05c0.05,0.03,0.05,0.03,0.05,0.03c-0.01,0-0.05-0.04-0.12-0.1c-0.07-0.06-0.17-0.18-0.27-0.35
			l3.5-1.94c-0.28-0.5-0.68-0.79-0.84-0.9c-0.1-0.07-0.19-0.12-0.23-0.15c-0.06-0.04-0.06-0.03-0.04-0.03L585.75,110.52z
			 M583.44,108.79c0.73,0.41,1.17,0.74,1.44,0.96c0.14,0.11,0.24,0.21,0.34,0.31c0.07,0.06,0.23,0.23,0.37,0.34l2.58-3.06
			c0,0-0.01,0-0.04-0.04c-0.06-0.06-0.06-0.06-0.15-0.15c-0.13-0.13-0.31-0.29-0.54-0.48c-0.46-0.39-1.1-0.84-2.01-1.36
			L583.44,108.79z M565.73,108.5c5.05-2.53,12.41-2.78,17.7,0.28l2-3.46c-6.61-3.82-15.41-3.44-21.49-0.39L565.73,108.5z
			 M539.78,153.02c1.44-7.95,4.42-17.48,8.84-25.85c4.44-8.42,10.21-15.4,17.07-18.65l-1.71-3.61c-8,3.79-14.28,11.66-18.9,20.4
			c-4.64,8.78-7.74,18.71-9.24,27L539.78,153.02z M538.25,168.39c0.22-2.88,0.17-7.88,1.53-15.37l-3.94-0.72
			c-1.41,7.76-1.39,13.21-1.58,15.78L538.25,168.39z M525.84,186.97c0-8.06,4.81-14.67,11.07-16.84l-1.31-3.78
			c-8.01,2.78-13.76,11.01-13.76,20.62H525.84z M548.88,202.59c-5.22,3.08-10.91,2.51-15.36-0.47c-4.47-2.99-7.69-8.45-7.69-15.15
			h-4c0,8.01,3.87,14.72,9.46,18.47c5.61,3.76,12.96,4.51,19.61,0.59L548.88,202.59z M547.13,170.46c6,2.49,9.63,8.58,10.12,15.17
			c0.49,6.56-2.18,13.27-8.38,16.96l2.05,3.44c7.73-4.6,10.9-12.9,10.32-20.69c-0.57-7.76-4.9-15.38-12.58-18.57L547.13,170.46z
			 M552.33,138.71c-6.79,14.58-6.1,26.02-6.43,29.73l3.98,0.35c0.36-4.15-0.34-14.62,6.07-28.39L552.33,138.71z M566.49,119.17
			c-6.96,5.75-10.39,11.5-14.15,19.53l3.62,1.7c3.65-7.78,6.77-12.93,13.08-18.14L566.49,119.17z M574.2,115.38
			c-3.29,0.42-5.6,2-7.73,3.81l2.58,3.06c1.93-1.63,3.5-2.62,5.65-2.89L574.2,115.38z M579.88,115.45c-0.36,0.36-0.45,0.33-0.34,0.3
			c0.08-0.02,0.09,0.02-0.33-0.07c-0.9-0.2-2.43-0.65-5.03-0.3l0.54,3.96c1.82-0.25,2.72,0.04,3.64,0.24
			c0.49,0.11,1.25,0.26,2.12,0.05c0.89-0.21,1.6-0.73,2.24-1.36L579.88,115.45z M585.59,108.81c-1.73,2.34-3.65,4.57-5.71,6.64
			l2.83,2.82c2.2-2.21,4.24-4.57,6.09-7.08L585.59,108.81z M587.38,109.26l-1.75,0.97l0.06,0.11l0.08,0.1L587.38,109.26z
			 M586.88,108.87l-1.29,1.53l0.08,0.06l0.08,0.06L586.88,108.87z M584.43,107.05l-1,1.73l0.01,0.01L584.43,107.05z M564.83,106.71
			l0.86,1.81l0.02-0.01l0.02-0.01L564.83,106.71z M537.81,152.66l1.97,0.36l0,0L537.81,152.66z M536.25,168.24l0.66,1.89l1.24-0.43
			l0.1-1.31L536.25,168.24z M549.9,204.31l1.01,1.72l0.01-0.01L549.9,204.31z M547.9,168.61l-1.99-0.17l-0.13,1.46l1.35,0.56
			L547.9,168.61z M554.14,139.55l-1.81-0.85l0,0L554.14,139.55z M567.76,120.71l1.27,1.54l0.01-0.01l0.01-0.01L567.76,120.71z
			 M574.45,117.36l0.25,1.98l0.01,0l0.01,0L574.45,117.36z M581.3,116.86l1.41,1.41l0,0L581.3,116.86z M587.2,110l1.61,1.19l0-0.01
			l0-0.01L587.2,110z"/>
		<path class="st21" d="M587.2,110c-1.79,2.42-3.77,4.72-5.9,6.86c-1.99,1.99-2.42-0.1-6.85,0.5c-2.72,0.34-4.66,1.64-6.69,3.35
			c-6.63,5.48-9.91,10.94-13.62,18.84c-6.6,14.18-5.9,25.13-6.25,29.06c13.68,5.68,15.92,27.4,2,35.69
			c-11.88,7-26.06-2.63-26.06-17.34c0-8.84,5.28-16.26,12.41-18.73c0.21-2.73,0.17-7.95,1.56-15.58
			c2.95-16.25,12.16-38.91,27.02-45.95c5.57-2.79,13.65-3.1,19.6,0.33c1.65,0.94,2.14,1.56,2.45,1.82c0.16,0.11,0.39,0.22,0.49,0.39
			C587.54,109.49,587.36,109.79,587.2,110z"/>
		<path class="st22" d="M553.5,234.85l-2.5-30l6-5.5c7.6-14.8,0.5-25.5-4-29c0.83-7.83,6.5-23.2,22.5-22c16,1.2,24.33-3.5,26.5-6
			c-1.83-3.5-4.3-8.4,0.5,0c4.8,8.4,7.33,28.17,8,37c0,6.17-1.1,20.6-5.5,29c-4.4,8.4-15.5,10.5-20.5,10.5l1,20l-1.5,1.5
			c-2,2.83-8.2,8.2-17,7S554.33,238.51,553.5,234.85z"/>
		<path class="st23" d="M552.23,203.56c0-0.26-0.1-0.49-0.24-0.68c-0.66,0.53-1.35,1-2.09,1.45c0.1,8.34,0.71,19.26,0.96,28.09
			c0.02,0.63,0.55,1.13,1.18,1.13h0.03c0.64-0.02,1.15-0.55,1.13-1.21C552.93,222.8,552.33,212.77,552.23,203.56L552.23,203.56z
			 M595.58,127.37c4.47-4.24,7.11-10.2,7.24-16.36c0.02-0.6,0.49-1.15,1.21-1.15c0.63,0.02,1.15,0.57,1.13,1.19
			c-0.14,6.78-3.05,13.36-7.95,18.04c-0.49,0.42-1.27,0.39-1.68-0.05C595.09,128.57,595.11,127.83,595.58,127.37z M547.9,168.63
			c2.06,0.86,3.99,2.23,5.29,3.53c1.2-1.35,0.48-8.23,6.43-14.99c3.42-3.89,8.11-6.53,13.17-7.43c8.63-1.61,17.62,1.95,29.23-5.82
			c5.63,16.64,9.52,33.92,6.09,51.02c-1.29,6.44-3.31,13.59-8.47,17.76c-7.4,5.97-19.87,7.68-33.94-0.46
			c-0.56-0.33-1.28-0.13-1.61,0.42c-0.33,0.56-0.14,1.28,0.42,1.61c5.8,3.36,12.18,5.63,18.86,5.82c0.48,5.5,0.71,13.03,1.2,18.06
			c0.06,0.6,0.57,1.05,1.16,1.05c0.69,0,1.24-0.6,1.17-1.29c-0.49-4.95-0.71-12.33-1.19-17.86c5.79-0.29,11.28-2.22,15.39-5.54
			c5.75-4.64,7.93-12.27,9.3-19.12c1.42-7.06,1.7-14.75,0.84-22.84c-1.5-14.02-5.84-25.39-7.23-30.08
			c5.76-4.54,11.69-12.96,12.62-20.99c1.01-9.46-3.49-20.01-12.86-21.17c-6.62-0.79-12.19,3.75-16.41,8.94
			c0.17,0.23-0.02,0.52-0.18,0.74c-1.79,2.42-3.77,4.72-5.9,6.86c-0.47,0.47-0.82,0.72-1.18,0.84c-3.91,3.62-8.34,5.61-13.39,3.9
			c-5.9,5.1-9.14,10.63-12.57,17.96c-6.6,14.18-5.9,25.13-6.25,29.06V168.63z"/>
		<path d="M586.56,156.66c-0.64,0.07-1.11,0.64-1.04,1.29c0.58,5.55,3.47,10.89,7.71,14.29c1.69,1.36,3.89,2.69,4.21,4.66
			c0.32,1.91-1.21,3.77-2.9,5.51c-0.45,0.46-0.44,1.2,0.02,1.66c0.46,0.45,1.2,0.44,1.66-0.02c1.32-1.36,4.08-4.19,3.53-7.52
			c-0.47-2.91-3.03-4.49-5.05-6.11c-3.77-3.01-6.33-7.76-6.85-12.7C587.77,157.08,587.19,156.6,586.56,156.66L586.56,156.66z"/>
		<path d="M571.67,165.24c-1.25,0.61-1.46,2.94-0.44,5.19c1,2.26,2.85,3.6,4.1,2.99c1.25-0.61,1.46-2.94,0.44-5.19
			C574.76,165.96,572.92,164.62,571.67,165.24z"/>
		<path d="M572.36,159.88c-4.41-0.94-8.7,2.31-9.15,6.99c-0.07,0.69,0.47,1.28,1.17,1.28c0.6,0,1.1-0.45,1.16-1.06
			c0.32-3.28,3.27-5.56,6.34-4.92c0.62,0.13,1.25-0.27,1.39-0.91C573.41,160.62,573,160,572.36,159.88L572.36,159.88z"/>
		<path d="M600.72,159.99c-1.4,0-2.58,2.02-2.64,4.49c-0.06,2.47,1.01,4.47,2.41,4.46c1.4,0,2.58-2.02,2.64-4.49
			C603.19,161.98,602.12,159.98,600.72,159.99z"/>
		<path d="M603.64,155.45c-3.66-2.8-8.89-1.6-11.27,2.35c-0.47,0.79,0.1,1.77,1,1.77c0.39,0,0.79-0.21,1-0.57
			c1.7-2.82,5.34-3.62,7.83-1.7c0.51,0.39,1.25,0.3,1.65-0.22C604.25,156.58,604.15,155.84,603.64,155.45L603.64,155.45z"/>
		<path d="M580.72,190.27c-0.11-0.64-0.72-1.07-1.35-0.97c-0.64,0.11-1.07,0.71-0.97,1.35c0.77,4.59,5.03,8.36,9.8,8.36
			c4.13,0,8.12-2.75,9.51-6.66c0.22-0.61-0.1-1.28-0.71-1.5s-1.28,0.1-1.5,0.71c-1.11,3.13-4.56,5.37-7.9,5.07
			C584.28,196.35,581.26,193.55,580.72,190.27L580.72,190.27z"/>
		<path d="M527.82,174.59c1.69-2.48,4.86-5.1,8.43-6.34c0.21-2.73,0.17-7.95,1.56-15.58c1.71-9.46,4.91-18.68,9.46-27.15
			c1.66-3.09,3.4-5.77,4.27-6.93c-0.29-0.21-0.63-0.29-0.98-0.18c-8.56,2.31-14.04,9.69-14.29,17.75c-0.13,2.31,0.38,5.75-1.11,7.56
			c-3.29,4-9.57,5.28-13.43,9.59c-3.18,3.58-4.17,8.98-2.45,13.41C520.7,170.46,523.95,173.43,527.82,174.59z"/>
		<path class="st24" d="M657,114.35l14-96c25.2-9.2,62.83,12.5,78.5,24.5c15.5-22.5,22-25.5,36-32.5c11.2-5.6,28.67-5.33,36-4.5
			l15,16.5l-19,108.5l-18.5,11.5c-28.8-15.6-51.67-6.5-59.5,0H730c-28-13.6-57.33-12.67-68.5-10.5L657,114.35z"/>
		<path class="st23" d="M672.01,19.13c32.96-9.16,71.48,20.51,76.38,24.42L733.73,130c-22.99-13.11-49.85-18.9-72.41-17.51
			c-0.16,0.01-1.48,0.08-3.02,0.25C674.61,1.31,668.37,43.88,672.01,19.13L672.01,19.13z M820.05,6.55L800.1,123.41
			c-10.19-4.87-21.86-6.79-34.2-5.02c-10.34,1.48-21.23,5.66-29.69,11l14.55-85.85C773.69,3.12,812.87,5.7,820.05,6.55L820.05,6.55z
			 M835.47,23.63l-19.07,106.59l-14.08-5.79L822.16,8.2L835.47,23.63L835.47,23.63z M734.01,132.86c0.46,0.27,1.03,0.17,1.37-0.13
			c0.18-0.13,0.82-0.58,1.86-1.25c7.35-4.69,34.76-19.81,63.22-5.3c1.19,0.64,11.35,4.71,14.14,5.84l-15.98,9.16
			c-4.49-2.63-32.42-17.56-59.8,0.19h-8.03c-3.22-1.55-35.96-16.74-69.04-10.9l-3.41-15.38
			C698.87,110.96,734.41,133.01,734.01,132.86L734.01,132.86z M724.34,247.33c-4.63-1.12-8.25-6.65-6.33-11.09
			c2.39-5.41,12.96-8.12,20.84,3.93C735,244.58,730.39,248.81,724.34,247.33z M851.07,18.73h-16.73L822.3,4.79
			c-0.17-0.19-0.4-0.33-0.68-0.38c-0.46-0.09-46.16-7.8-72.3,36.91c-7.01-5.6-45.04-34.17-78.7-24.22c-0.44,0.13-0.76,0.5-0.83,0.96
			l-1.73,11.86l-5.99-1.97c-0.67-0.23-1.4,0.2-1.52,0.92L640.1,146.84c-0.12,0.7,0.41,1.36,1.12,1.37
			c64.15,1.69,77.57,2.49,78.91,2.53c3.78,0.08,5.53,2.76,13.44,2.76c3.32,0,6.02-0.5,8.78-1.4c10.56,21.16,12.89,46.22,6.31,68.94
			c-2.09,7.22-4.79,12.89-8.22,17.26c-9.1-13.28-21.56-9.78-24.55-3c-2.52,5.73,1.8,12.83,7.92,14.33
			c6.74,1.64,11.85-2.36,16.34-7.35c12.36,22.35,13.29,51.73,0.79,75.71c-7.41,14.21-22.87,28.05-39.27,24.81
			c-12.53-2.45-21.34-13.98-26.88-22.42c-6.78-10.41-12.98-21.85-23.34-28.83c-26.25-17.68-61.25,0.97-89.65-5.67
			c-17.83-4.16-32.66-18.21-37.77-35.8c-4.53-15.62-1.4-32.58,8.37-45.37c0.18-0.22,0.26-0.49,0.24-0.76
			c-0.52-0.32-1.02-0.68-1.5-1.07c-0.24,0.06-0.44,0.19-0.6,0.39c-10.23,13.39-13.51,31.14-8.77,47.47
			c5.35,18.38,20.84,33.08,39.49,37.44c29.21,6.79,63.45-11.8,88.88,5.3c8.35,5.64,13.99,14.52,19.45,23.12
			c7.72,12.28,16.99,25.63,31.62,28.52c17.44,3.43,33.56-10.22,41.8-26.03c13.17-25.25,11.72-56.47-1.24-78.66
			c12.97-15.76,19.68-55.05,2.81-89.08c2.5-1.03,83.44-0.59,84.24-0.18c0.33,0.17,0.77,0.16,1.1-0.01
			c2.71-1.41,21.21-123.66,22.34-131.04c0.11-0.71-0.44-1.35-1.16-1.35V18.73z"/>
		<path class="st17" d="M492,222.35c-5.2-1.2-8.17-4.83-9-6.5c-24.8,1.2-33.67-12.5-35-19.5c-0.67-7.67,3.9-23.5,27.5-25.5
			s33.83,9.5,36,15.5c4.4,18.8-11.17,26.5-19.5,28C491.2,217.55,491.67,221.01,492,222.35z"/>
		<path d="M449.34,193.17c0-12,13.9-21.77,30.99-21.77c17.08,0,30.99,9.76,30.99,21.77c0,8.93-7.63,16.85-19.42,20.19
			c-0.81,0.23-1.41,0.88-1.56,1.68c-0.43,2.32,0,4.39,0.94,6.07c-2.68-0.98-5.05-2.78-6.65-5.23c-0.41-0.63-1.08-1-1.82-1
			c-0.32,0-1.02,0.07-2.46,0.07C463.26,214.95,449.35,205.19,449.34,193.17L449.34,193.17z M482.69,217.23
			c1.95,2.96,4.86,5.09,8.07,6.19c1.88,0.64,3.58-1.36,2.64-3.15c-0.94-1.8-1.02-3.35-0.79-4.68c12.79-3.65,21.04-12.44,21.04-22.42
			c0-13.3-14.96-24.12-33.33-24.12c-18.37,0-33.33,10.83-33.33,24.13s14.96,24.12,33.33,24.12
			C481.12,217.29,481.92,217.27,482.69,217.23z"/>
		<path d="M466.62,188.5h30.17c0.65,0,1.17-0.52,1.17-1.17s-0.52-1.17-1.17-1.17h-30.17c-0.65,0-1.17,0.52-1.17,1.17
			S465.97,188.5,466.62,188.5z"/>
		<path d="M485.84,195.89c0-0.65-0.52-1.17-1.17-1.17h-18.5c-0.65,0-1.17,0.52-1.17,1.17s0.52,1.17,1.17,1.17h18.5
			C485.32,197.06,485.84,196.54,485.84,195.89z"/>
		<path class="st17" d="M678.58,61.68c-3.18,15.22,6.52,30.31,21.91,33.52c15.31,3.2,30.31-6.61,33.52-21.93
			c3.2-15.3-6.6-30.31-21.91-33.51C696.86,36.56,681.8,46.31,678.58,61.68L678.58,61.68z"/>
		<g>
			<defs>
				<path id="SVGID_00000000210101727664642960000004753581517679908487_" d="M678.58,61.68c-3.18,15.22,6.52,30.31,21.91,33.52
					c15.31,3.2,30.31-6.61,33.52-21.93c3.2-15.3-6.6-30.31-21.91-33.51C696.86,36.56,681.8,46.31,678.58,61.68L678.58,61.68z"/>
			</defs>
			<clipPath id="SVGID_00000085930613498853840710000015065455954089782948_">
				<use xlink:href="#SVGID_00000000210101727664642960000004753581517679908487_"  style="overflow:visible;"/>
			</clipPath>
			<path style="clip-path:url(#SVGID_00000085930613498853840710000015065455954089782948_);" d="M677.17,60.25L677.17,60.25
				l2.82,2.84l0.01-0.01L677.17,60.25z M712.51,37.8c-16.32-3.42-32.44,7.01-35.88,23.46l3.92,0.82
				c2.98-14.27,16.97-23.33,31.14-20.36L712.51,37.8z M735.97,73.67c3.43-16.38-7.07-32.45-23.46-35.88l-0.82,3.92
				c14.23,2.98,23.34,16.92,20.36,31.14L735.97,73.67z M700.08,97.15c16.39,3.43,32.45-7.08,35.88-23.48l-3.91-0.82
				c-2.99,14.24-16.92,23.36-31.15,20.38L700.08,97.15z M676.62,61.27c-3.41,16.29,6.98,32.45,23.46,35.88l0.82-3.92
				c-14.3-2.98-23.32-17-20.36-31.15L676.62,61.27z M678.59,61.67l1.41,1.41l0.42-0.42l0.12-0.58L678.59,61.67z M712.1,39.76
				l-0.41,1.96l0,0L712.1,39.76z M734.01,73.26l1.96,0.41l0,0L734.01,73.26z M700.49,95.19l0.41-1.96l0,0L700.49,95.19z
				 M678.58,61.68l-1.41-1.41l-0.42,0.42l-0.12,0.58L678.58,61.68z"/>
		</g>
		<path d="M696.52,79.2l26.19-9.15c1.31-0.46,1.63-2.28,0.51-3.13l-20.93-16.03c-0.99-0.76-2.43-0.2-2.7,1.09l-5.27,25.17
			C694.04,78.5,695.25,79.64,696.52,79.2L696.52,79.2z"/>
		<path d="M760.74,54.44c11.59-5.55,24.94-7.38,37.59-5.17c0.63,0.12,1.24-0.32,1.36-0.96c0.11-0.64-0.32-1.24-0.96-1.36
			c-13.12-2.3-26.98-0.38-39,5.37c-0.58,0.28-0.83,0.98-0.55,1.57C759.47,54.47,760.17,54.71,760.74,54.44L760.74,54.44z"/>
		<path d="M760.48,68.41c6.3-2.28,13.12-2.89,19.72-1.76c0.65,0.12,1.24-0.33,1.35-0.96c0.11-0.64-0.33-1.24-0.96-1.35
			c-7.01-1.18-14.24-0.54-20.92,1.87c-0.61,0.22-0.93,0.89-0.71,1.5C759.19,68.32,759.86,68.63,760.48,68.41L760.48,68.41z"/>
		<path d="M755.94,84.35c0.17,0.63,0.82,1,1.43,0.84c20.31-5.25,34.95,0.84,36.21,0.84c1.35,0,1.62-1.9,0.34-2.3
			c-12.08-3.69-24.92-3.97-37.14-0.81C756.15,83.08,755.77,83.72,755.94,84.35z"/>
		<path d="M554.89,199.93c0.71,0.62,6.61,1.04,18.45,5.83c0.12,4.76,8.23,7.67,13.21,5.98c6.03-2.05,4.13-8.86-3.73-10.47
			c-3.86-0.8-7.34,0.19-8.77,2.25c-5.75-2.31-11.7-4.2-17.75-5.55C555.86,198.66,555.4,199.32,554.89,199.93L554.89,199.93z"/>
		<ellipse cx="540.54" cy="186.76" rx="8.51" ry="9.08"/>
		<path class="st22" d="M629,402.85H484.5c-21.6-10-18.33-53.5-14.5-74.5c0.5-0.33,4.3-2.3,19.5-3.5c15.2-1.2,23,1.17,25,2.5l-1,24
			c1.2,13.6,5.17,16.67,7,16.5c44.4,2.8,66.5-1.17,72-3.5c2.83-1.67,8.3-6.9,7.5-14.5c-0.8-7.6,2.67-8.5,4.5-8
			c8.4,6,7.83,18.83,6.5,24.5h17.5c12.4,3.6,5.5,9.83,0.5,12.5c12,5.6,3.67,11-2,13C636.6,395.05,632.33,400.51,629,402.85z"/>
		<path class="st23" d="M681.67,402.99c0,0.64-0.53,1.16-1.18,1.16H484.38c-0.23,0-0.46-0.1-0.65-0.19
			c-9.31-6.16-16.35-16.96-17.57-34.56c-1-14.4-0.06-24.21,1-35.57c0.02-0.13,0.02-0.26,0.03-0.36l-8.7-1.63l2.87-1.63
			c2.12,0.06,2.12-2.66,6.13-2.87l-0.33-0.21c0.19-0.02,3.14-0.78,3.33-0.79c-2.22,20.12-2.63,33.65-2.01,42.9
			c0.9,13.12,5.42,25.26,16.23,32.56h142.65c2.53-1.08,5.26-3.14,4.24-5.67c-0.26-0.61-1.9-2.52-6.22-3.22
			c-0.55-0.14,1.79,0-11.72-0.06c-0.64,0-1.18-0.52-1.18-1.18s0.53-1.16,1.18-1.16h12.17c4.27-0.85,6.85-2.03,7.87-3.61
			c0.5-0.79,0.61-1.68,0.34-2.77c-0.29-1.21-3.24-3.21-8.58-3.84l-12.65-0.39c-0.64-0.02-1.15-0.56-1.13-1.21
			c0.03-0.64,0.57-1.13,1.21-1.13c2.87,0.08,10.95,0.34,11.91,0.34c2.78-0.47,6.73-1.27,8.54-3.42c1.46-1.7,0.59-4.42-1.26-5.59
			c-1.55-1-3.56-1.23-5.48-1.39c-5.01-0.48-6.22-0.51-12.17,0.19c-2.94,0.36-3.31,0.39-3.77,0.22c-0.95-0.33-1.51-1.16-0.58-2.77
			c0.41-0.79,0.55-0.68,0.79-3.05c0-0.16,1.39-8.91-3.98-16.99c-0.96-1.47-1.85-2.24-2.76-2.34c-1.55-0.22-2.95,1.53-3.24,3.21
			c-0.37,2,0.13,4.23,0.13,6.59c-0.03,4.2-2.08,9.53-5.98,11.86c-4.17,2.48-10.19,3.85-14.04,4.09
			c-10.23,0.83-31.59,1.15-38.37,1.24c-7.87,0.14-14.48,0.46-20.89,0c-7.14-0.56-8.91-10.18-8.91-17.3c-0.02-0.02,0-0.03,0-0.03
			c-0.32-5.17,0-11.37,0.06-11.56c0.1-2.57,0.42-11.42,1.39-13.99c0.04,0,1.71-0.08,1.76-0.08c0.05-0.29,0.08-0.57,0.13-0.85
			c0-0.55,1.05-6.82,2.92-12.75c2.42,11.82,12.59,43.03,14.12,54.4c26.68-0.61,23.74-0.14,47.64-1.43
			c3.71-0.24,9.33-1.59,12.92-3.71c0.06-0.05,0.21-0.14,0.34-0.22c2.91-1.82,4.53-6.37,4.56-9.71c0-2.43-0.54-4.67-0.1-7.01
			c0.5-2.79,2.88-5.54,5.87-5.11c2.14,0.29,3.53,2.06,4.39,3.38c5.92,8.88,4.35,18.16,4.37,18.49c-0.1,0.92-0.24,2.4-0.69,3.24
			c8.48-0.97,8.71-0.89,14.17-0.39c2.33,0.19,4.66,0.47,6.67,1.74c3.02,1.94,4.16,6.29,1.77,9.09c-1.07,1.24-2.66,2.24-4.71,2.95
			c3.22,1.05,5.41,2.72,5.88,4.61c1.07,4.35-2.08,6.91-6.34,8.31c5.36,2.56,5.21,6.99,1.82,9.93h48.69c0.64,0,1.18,0.53,1.18,1.18
			L681.67,402.99z"/>
	</g>
</g>
<path class="st26" d="M1005,143.84v46.5c0.09-4.82,4.94-8.35,9-8l0-47.5C1008.96,134.57,1004.26,138.98,1005,143.84z"/>
<g>
	<defs>
		<path id="SVGID_00000105406715767374052220000001848327025002138046_" d="M1005,143.84v46.5c0.09-4.82,4.94-8.35,9-8l0-47.5
			C1008.96,134.57,1004.26,138.98,1005,143.84z"/>
	</defs>
	<clipPath id="SVGID_00000052077290357852723770000000160256819562234518_">
		<use xlink:href="#SVGID_00000105406715767374052220000001848327025002138046_"  style="overflow:visible;"/>
	</clipPath>
	<path style="clip-path:url(#SVGID_00000052077290357852723770000000160256819562234518_);" d="M1014.05,133.85
		c-2.83-0.16-5.53,1-7.42,2.86c-1.9,1.86-3.05,4.49-2.62,7.29l1.98-0.3c-0.31-2.06,0.52-4.07,2.04-5.56c1.53-1.5,3.7-2.41,5.91-2.29
		L1014.05,133.85z M1015,182.34l0-47.5h-2l0,47.5H1015z M1006,190.36c0.04-2.06,1.1-3.89,2.65-5.19c1.56-1.3,3.54-1.98,5.26-1.83
		l0.17-1.99c-2.33-0.2-4.81,0.71-6.71,2.29c-1.91,1.59-3.32,3.93-3.37,6.69L1006,190.36z M1004,143.84v46.5h2v-46.5H1004z
		 M1014,134.85h1v-0.95l-0.94-0.05L1014,134.85z M1014,182.34l-0.09,1l1.09,0.09v-1.09H1014z M1005,190.34h-1l2,0.02L1005,190.34z
		 M1005,143.84h1v-0.08l-0.01-0.07L1005,143.84z"/>
</g>
<path d="M1012.46,135.46c-3.96,0.52-6.91,3.86-6.91,7.88v44c1.08-2.89,3.69-5.03,6.91-5.42V135.46z M1005.54,190.35H1005v-47.01
	c0-4.41,3.31-8.04,7.7-8.45l0.3-0.03v47.55l-0.25,0.02C1008.64,182.82,1005.54,186.22,1005.54,190.35z"/>
<path class="st19" d="M1031.17,135.12h-17.66c-0.26,0-0.53,0.02-0.79,0.04v47.01c0.26-0.03,0.52-0.04,0.79-0.04h39.25v-47.01
	H1031.17z"/>
<g>
	<defs>
		<path id="SVGID_00000176739532221137091230000004577606310908871089_" d="M1031.17,135.12h-17.66c-0.26,0-0.53,0.02-0.79,0.04
			v47.01c0.26-0.03,0.52-0.04,0.79-0.04h39.25v-47.01H1031.17z"/>
	</defs>
	<clipPath id="SVGID_00000132782316034453660280000014140403114622811555_">
		<use xlink:href="#SVGID_00000176739532221137091230000004577606310908871089_"  style="overflow:visible;"/>
	</clipPath>
	<path style="clip-path:url(#SVGID_00000132782316034453660280000014140403114622811555_);" d="M1052.76,134.12h-21.59v2h21.59
		V134.12z M1053.76,182.12v-47.01h-2v47.01H1053.76z M1013.51,183.12h39.25v-2h-39.25V183.12z M1012.82,183.16
		c0.23-0.02,0.46-0.04,0.69-0.04v-2c-0.3,0-0.6,0.02-0.88,0.04L1012.82,183.16z M1011.73,135.16v47.01h2v-47.01H1011.73z
		 M1013.51,134.12c-0.3,0-0.6,0.02-0.88,0.04l0.19,1.99c0.23-0.02,0.46-0.04,0.69-0.04V134.12z M1031.17,134.12h-17.66v2h17.66
		V134.12z M1052.76,135.12h1v-1h-1V135.12z M1052.76,182.12v1h1v-1H1052.76z M1012.73,182.16h-1v1.1l1.1-0.11L1012.73,182.16z
		 M1012.73,135.16l-0.1-1l-0.9,0.09v0.91H1012.73z"/>
</g>
<path d="M1013,135.4v46.47c0.18-0.01,0.35-0.02,0.51-0.02h38.98v-46.47h-38.98C1013.35,135.39,1013.18,135.39,1013,135.4z
	 M1012.46,182.46v-47.55l0.24-0.02c0.29-0.03,0.56-0.04,0.81-0.04h39.52v47.55h-39.51c-0.24,0-0.49,0.01-0.76,0.04L1012.46,182.46
	L1012.46,182.46z"/>
<g>
	<defs>
		<path id="SVGID_00000171710720057211413500000016948838154803954561_" d="M1013,135.4v46.47c0.18-0.01,0.35-0.02,0.51-0.02h38.98
			v-46.47h-38.98C1013.35,135.39,1013.18,135.39,1013,135.4z M1012.46,182.46v-47.55l0.24-0.02c0.29-0.03,0.56-0.04,0.81-0.04h39.52
			v47.55h-39.51c-0.24,0-0.49,0.01-0.76,0.04L1012.46,182.46L1012.46,182.46z"/>
	</defs>
	<clipPath id="SVGID_00000151514060296786406300000004158301420281089175_">
		<use xlink:href="#SVGID_00000171710720057211413500000016948838154803954561_"  style="overflow:visible;"/>
	</clipPath>
	<path style="clip-path:url(#SVGID_00000151514060296786406300000004158301420281089175_);" d="M1013.51,134.39
		c-0.19,0-0.38,0.01-0.58,0.02l0.13,2c0.17-0.01,0.31-0.02,0.45-0.02V134.39z M1052.49,134.39h-38.98v2h38.98V134.39z
		 M1053.49,181.85v-46.47h-2v46.47H1053.49z M1013.51,182.85h38.98v-2h-38.98V182.85z M1013.06,182.87c0.15-0.01,0.3-0.01,0.45-0.01
		v-2c-0.19,0-0.38,0.01-0.58,0.02L1013.06,182.87z M1012,135.4v46.47h2V135.4H1012z M1012.46,181.46L1012.46,181.46l0,2h0V181.46z
		 M1012.66,181.44l-0.3,0.03l0.19,1.99l0.3-0.03L1012.66,181.44z M1013.51,181.39c-0.28,0-0.55,0.02-0.85,0.04l0.18,1.99
		c0.25-0.02,0.47-0.03,0.67-0.03V181.39z M1053.03,181.39h-39.51v2h39.51V181.39z M1052.03,134.85v47.55h2v-47.55H1052.03z
		 M1013.51,135.85h39.52v-2h-39.52V135.85z M1012.79,135.88c0.27-0.02,0.5-0.04,0.72-0.04v-2c-0.29,0-0.59,0.02-0.9,0.05
		L1012.79,135.88z M1012.55,135.91l0.24-0.02l-0.19-1.99l-0.24,0.02L1012.55,135.91z M1013.46,182.46v-47.55h-2v47.55H1013.46z
		 M1052.49,135.39h1v-1h-1V135.39z M1052.49,181.85v1h1v-1H1052.49z M1013,181.87h-1v1.07l1.07-0.07L1013,181.87z M1013,135.4
		l-0.06-1l-0.94,0.06v0.94H1013z M1012.46,182.46v1h0.05l0.05,0L1012.46,182.46z M1012.75,182.43l-0.09-1l0,0L1012.75,182.43z
		 M1053.03,182.39v1h1v-1H1053.03z M1053.03,134.85h1v-1h-1V134.85z M1012.7,134.89l-0.09-1l0,0L1012.7,134.89z M1012.46,134.91
		l-0.1-1l-0.9,0.09v0.91H1012.46z M1012.46,182.46h-1v1h1V182.46z"/>
</g>
<path class="st30" d="M1013.33,182.12c-0.26,0-0.51,0.02-0.77,0.04c-4.09,0.39-7.3,3.91-7.3,8.19s3.2,7.79,7.3,8.19
	c0.25,0.03,0.51,0.04,0.77,0.04h38.41v-16.45L1013.33,182.12L1013.33,182.12z"/>
<path d="M1013.33,182.39c-0.23,0-0.48,0.01-0.74,0.04c-4.02,0.39-7.06,3.79-7.06,7.92s3.03,7.53,7.06,7.92
	c0.27,0.03,0.51,0.04,0.74,0.04h38.14v-15.91L1013.33,182.39L1013.33,182.39z M1052,198.85h-38.67c-0.25,0-0.51-0.01-0.79-0.04
	c-4.3-0.41-7.54-4.05-7.54-8.45s3.24-8.04,7.54-8.45c0.28-0.03,0.54-0.04,0.79-0.04H1052V198.85z"/>
<path d="M1012.83,182.39L1012.83,182.39l1,0v0H1012.83z M1051.47,181.89h-38.14v1h38.14V181.89z M1051.97,198.3v-15.91h-1v15.91
	H1051.97z M1013.33,198.8h38.14v-1h-38.14V198.8z M1012.54,198.76c0.28,0.03,0.54,0.04,0.79,0.04v-1c-0.21,0-0.44-0.01-0.69-0.04
	L1012.54,198.76z M1005.03,190.35c0,4.37,3.22,8,7.51,8.41l0.1-1c-3.76-0.36-6.6-3.54-6.6-7.42H1005.03z M1012.54,181.93
	c-4.29,0.41-7.51,4.04-7.51,8.41h1c0-3.88,2.85-7.06,6.6-7.42L1012.54,181.93z M1013.33,181.89c-0.25,0-0.51,0.01-0.79,0.04l0.09,1
	c0.26-0.02,0.48-0.04,0.7-0.04V181.89z M1051.5,181.85v16.99h1v-16.99H1051.5z M1013.33,182.35H1052v-1h-38.67V182.35z
	 M1012.58,182.39c0.27-0.03,0.52-0.04,0.75-0.04v-1c-0.27,0-0.55,0.02-0.84,0.04L1012.58,182.39z M1005.5,190.35
	c0-4.16,3.05-7.57,7.09-7.96l-0.1-1c-4.56,0.44-7.99,4.3-7.99,8.95H1005.5z M1012.59,198.31c-4.03-0.39-7.09-3.8-7.09-7.96h-1
	c0,4.66,3.43,8.51,7.99,8.95L1012.59,198.31z M1013.33,198.35c-0.23,0-0.47-0.01-0.74-0.04l-0.1,1c0.3,0.03,0.58,0.04,0.84,0.04
	V198.35z M1052,198.35h-38.67v1H1052V198.35z M1013.33,182.39v-0.5h-0.5v0.5H1013.33z M1051.47,182.39h0.5v-0.5h-0.5V182.39z
	 M1051.47,198.3v0.5h0.5v-0.5H1051.47z M1012.59,198.27l0.05-0.5l0,0L1012.59,198.27z M1012.59,182.43l-0.05-0.5l0,0L1012.59,182.43
	z M1013.33,182.39v0.5h0.5v-0.5H1013.33z M1052,181.85h0.5v-0.5h-0.5V181.85z M1012.54,181.89l-0.05-0.5l0,0L1012.54,181.89z
	 M1012.54,198.8l0.05-0.5l0,0L1012.54,198.8z M1052,198.85v0.5h0.5v-0.5H1052z"/>
<rect x="1026" y="186.35" width="26" height="1"/>
<rect x="1013" y="189.85" width="39" height="1"/>
<rect x="1018" y="193.35" width="34" height="1"/>
<path class="st31" d="M1040.69,161.25h-15.89c-1.1,0-2,0.9-2,2v5.25c0,1.1,0.9,2,2,2h15.89c1.1,0,2-0.9,2-2v-5.25
	C1042.69,162.15,1041.79,161.25,1040.69,161.25z"/>
<g>
	<defs>
		<path id="SVGID_00000139263359470682011710000008445396856447588259_" d="M1040.69,161.25h-15.89c-1.1,0-2,0.9-2,2v5.25
			c0,1.1,0.9,2,2,2h15.89c1.1,0,2-0.9,2-2v-5.25C1042.69,162.15,1041.79,161.25,1040.69,161.25z"/>
	</defs>
	<clipPath id="SVGID_00000070095696635440206150000009732121870802589601_">
		<use xlink:href="#SVGID_00000139263359470682011710000008445396856447588259_"  style="overflow:visible;"/>
	</clipPath>
	<path style="clip-path:url(#SVGID_00000070095696635440206150000009732121870802589601_);" d="M1024.8,160.25c-1.66,0-3,1.34-3,3h2
		c0-0.55,0.45-1,1-1V160.25z M1040.69,162.25c0.55,0,1,0.45,1,1h2c0-1.66-1.34-3-3-3V162.25z M1041.69,168.5c0,0.55-0.45,1-1,1v2
		c1.66,0,3-1.34,3-3H1041.69z M1024.8,169.5c-0.55,0-1-0.45-1-1h-2c0,1.66,1.34,3,3,3V169.5z M1023.8,168.5v-5.25h-2v5.25H1023.8z
		 M1040.69,169.5h-15.89v2h15.89V169.5z M1041.69,163.25v5.25h2v-5.25H1041.69z M1024.8,162.25h15.89v-2h-15.89V162.25z"/>
</g>
</svg>
