<?xml version="1.0" encoding="utf-8"?>
<!-- Generator: Adobe Illustrator 28.1.0, SVG Export Plug-In . SVG Version: 6.00 Build 0)  -->
<svg version="1.1" id="Layer_1" xmlns="http://www.w3.org/2000/svg" xmlns:xlink="http://www.w3.org/1999/xlink" x="0px" y="0px"
	 viewBox="0 0 270 150" style="enable-background:new 0 0 270 150;" xml:space="preserve">
<style type="text/css">
	.st0{fill:#FFFFFF;}
	.st1{fill:#82B958;}
</style>
<path class="st0" d="M0,20C0,9,9,0,20,0h230c11,0,20,9,20,20v130H0V20z"/>
<g>
	<circle class="st1" cx="135" cy="75" r="45"/>
	<path class="st0" d="M108.8,74.6c0-1,0-2,0-2.9c0.1-0.5,0.1-1,0.2-1.5c0.5-4.3,2.3-8.1,5.3-11.3c3.1-3.2,6.9-5.3,11.1-6.8
		c4.7-1.7,9.6-2.6,14.5-3c4.9-0.5,9.8-0.5,14.8-0.2c1,0.1,1.9,0.1,2.9,0.3c1.1,0.2,1.7,1.5,1.1,2.4c-1.2,1.6-1.8,3.5-2.4,5.3
		c-1.7,5.6-2.5,11.4-3.2,17.2c-0.4,3.1-1.1,6.1-2.4,9c-1.6,3.4-3.8,6.2-6.9,8.3C139.8,94,135.5,95,131,95c-4.5,0-8.9-1.1-13.1-2.8
		c-1-0.4-2-0.9-3-1.3c-0.1,0.2-0.2,0.3-0.2,0.5c-0.8,2-1.5,3.9-2.2,5.9c0,0.1-0.1,0.2-0.1,0.3c-0.3,0.9-1.2,1.4-2.1,1.1
		c-0.9-0.3-1.3-1.2-1-2.2c0.9-2.3,1.7-4.6,2.7-6.9c0.3-0.7,0.4-1.3,0.1-2c-1.3-3-2.2-6.2-2.7-9.4C109,77,108.9,75.8,108.8,74.6z
		 M116.3,87.9c0.1,0.1,0.2,0.1,0.2,0.1c3.6,1.8,7.4,3.1,11.5,3.5c3.5,0.4,6.9,0.2,10.3-1c2.9-1.1,5.3-2.8,7.2-5.3
		c2-2.7,3.2-5.7,3.8-9c0.5-2.8,0.8-5.5,1.2-8.3c0.6-4.2,1.4-8.4,2.7-12.5c0-0.1,0.1-0.3,0.1-0.5c-5.6,2.7-10.9,5.7-15.9,9.4
		c0.2,0,0.2,0.1,0.3,0.1c1.9,0.5,3.7,0.5,5.6,0.4c1-0.1,1.7,0.6,1.8,1.6c0,1-0.6,1.6-1.6,1.7c-3,0.3-6-0.1-8.9-1.2
		c-0.2-0.1-0.4,0-0.5,0.1c-3.7,3-7.2,6.3-10.3,10c-0.1,0.1-0.2,0.2-0.3,0.4c3.1,0.9,6.2,1.4,9.4,1.4c1,0,2-0.1,3.1-0.2
		c0.9,0,1.6,0.6,1.6,1.5c0.1,0.8-0.5,1.6-1.4,1.7c-0.8,0.1-1.5,0.2-2.3,0.2c-4.2,0.2-8.2-0.5-12.2-1.8c-0.3-0.1-0.5-0.1-0.7,0.2
		c-0.9,1.3-1.8,2.6-2.7,4C117.6,85.6,116.9,86.7,116.3,87.9L116.3,87.9z M135.6,61.5c0.1,0,0.1,0,0.2,0.1c5-3.6,10.3-6.8,15.8-9.5
		c-0.2-0.1-0.3-0.1-0.5-0.1c-3.1,0.1-6.1,0.1-9.2,0.2c-3.9,0.2-7.8,0.8-11.7,1.8c-4.3,1.1-8.4,2.7-11.9,5.5
		c-1.9,1.5-3.5,3.3-4.6,5.5c-1.8,3.6-2.1,7.5-1.6,11.4c0.3,2.7,1,5.2,1.9,7.7c0.1,0.2,0.1,0.3,0.2,0.5c0.1-0.1,0.1-0.2,0.2-0.2
		c1.4-2.1,2.8-4.2,4.2-6.3c0.1-0.2,0.1-0.4,0.1-0.6c-0.8-4.5-0.2-8.8,1.2-13.1c0.1-0.3,0.4-0.6,0.6-0.8c0.5-0.4,1.3-0.4,1.9,0
		c0.6,0.4,0.8,1.1,0.6,1.9c-0.6,1.8-1.1,3.6-1.3,5.5c-0.1,1.1-0.1,2.1-0.2,3.2c0.2,0,0.3-0.1,0.3-0.1c3.1-3.5,6.5-6.8,10.2-9.7
		c0.1-0.1,0.2-0.3,0.2-0.5c0.1-1.2,0.1-2.5,0.3-3.7c0.1-1,0.4-2,0.7-3c0.2-0.7,0.9-1.1,1.6-1.1c0.7,0,1.3,0.5,1.5,1.1
		c0.1,0.4,0,0.9-0.1,1.3C136.1,59.5,135.8,60.5,135.6,61.5L135.6,61.5z"/>
</g>
</svg>
