<svg width="123" height="120" viewBox="0 0 123 120" fill="none" xmlns="http://www.w3.org/2000/svg">
<path d="M98.8217 58.2808C98.8217 54.6273 98.6515 50.3076 98.4047 45.9638C98.2736 43.9186 98.1418 41.8726 98.01 39.8273C97.3621 30.6901 96.5648 22.8703 96.5648 22.8703L100.61 13.8984H10.1641L15.5919 22.3055C15.7285 22.5172 15.7837 22.7712 15.7469 23.0205C15.715 23.241 12.5257 45.2017 12.5257 58.28C12.5257 69.9897 15.067 91.4311 15.6367 96.088H24.8897C25.4642 96.088 25.9299 96.5538 25.9299 97.1282C25.9299 97.7026 25.4642 98.1684 24.8897 98.1684H15.2875L10.1649 106.102H100.61L96.5648 97.1322C96.5648 97.1322 98.8217 71.5868 98.8217 58.2792V58.2808ZM35.7974 85.6757V78.936H32.1032C31.7261 78.936 31.3786 78.7323 31.1948 78.4023C31.0111 78.0732 31.0198 77.6697 31.218 77.3486L38.4857 65.5813C38.6751 65.2745 39.0106 65.0876 39.3709 65.0876C39.7321 65.0876 40.0668 65.2745 40.2561 65.5813L47.5175 77.3486C47.7157 77.6697 47.7244 78.0724 47.5407 78.4015C47.3569 78.7307 47.0094 78.9352 46.6323 78.9352H42.9381V81.463C42.9381 82.0374 42.4723 82.5032 41.8979 82.5032C41.3235 82.5032 40.8609 82.0406 40.8577 81.4686C40.3872 81.5221 39.8343 81.6571 39.2719 81.9575C38.6711 82.2787 38.2205 82.7053 37.8778 83.1543V85.6749C37.8778 86.2493 37.412 86.7151 36.8376 86.7151C36.2631 86.7151 35.7974 86.2493 35.7974 85.6749V85.6757ZM87.3284 91.8042C87.1319 92.0135 86.8579 92.1318 86.5703 92.1318H37.5718C37.2211 92.1318 36.8943 91.9552 36.7018 91.662C36.5092 91.3688 36.4781 90.9989 36.6171 90.6769C37.849 87.8408 40.642 86.008 43.7314 86.008C44.5264 86.008 45.3173 86.1311 46.0715 86.3692C46.3511 84.8352 47.0853 83.4251 48.211 82.2955C50.8842 79.6207 55.0593 79.3131 58.08 81.3791C58.8925 79.9842 59.9998 78.7866 61.338 77.8519V66.5943C60.0965 64.7472 57.9818 63.2884 55.0433 62.257C53.5957 61.7489 52.0562 61.3686 50.567 61.0011C49.2671 60.6799 47.9234 60.3476 46.6107 59.9265C46.1458 59.7787 45.7335 59.6325 45.3517 59.4815C44.5176 59.1532 43.8073 58.7897 43.1842 58.3726C43.1674 58.3615 43.1514 58.3503 43.1354 58.3375C42.6785 58.0307 42.2598 57.6808 41.8907 57.2973C40.205 55.5445 39.7265 53.4793 40.543 51.4812C41.5624 48.9846 44.4784 47.1095 47.4768 47.0224C47.6413 47.0176 47.8043 47.0176 47.9665 47.02C52.1976 47.0759 56.5517 49.5366 59.3271 53.4425C60.9729 55.7586 62.1409 58.5748 62.8216 61.8455C63.7468 59.7987 64.914 58.0754 66.3129 56.6981C69.1483 53.9067 73.0438 52.6156 76.4767 53.3275C78.8471 53.8188 80.9011 55.7258 81.3621 57.8621C81.7312 59.5742 81.0338 61.2184 79.4479 62.372C78.1633 63.3092 76.5926 63.6207 75.3686 63.7877C74.2949 63.9339 73.2132 64.0058 72.1666 64.0753C70.929 64.1576 69.7602 64.2351 68.5954 64.4253C66.3249 64.7984 64.5856 65.5693 63.4176 66.7189V76.7086C64.7726 76.1438 66.2314 75.8482 67.7166 75.8482C72.6355 75.8482 76.9625 79.1062 78.3846 83.7335C78.82 83.6592 79.2642 83.6217 79.7124 83.6217C83.8811 83.6217 87.3484 86.8749 87.6081 91.0285C87.6256 91.3153 87.525 91.5965 87.3276 91.8058L87.3284 91.8042ZM89.9042 47.0048V63.3411C89.9042 63.9123 89.444 64.3749 88.8744 64.3805L88.8975 66.6766C88.8975 66.6766 88.9047 66.6758 88.9079 66.6758C89.4823 66.6758 89.9481 67.1416 89.9481 67.716V72.6701C89.9481 73.2445 89.4823 73.7103 88.9079 73.7103V75.8482C89.4823 75.8482 89.9481 76.314 89.9481 76.8884V81.8425C89.9481 82.4169 89.4823 82.8827 88.9079 82.8827C88.3335 82.8827 87.8677 82.4169 87.8677 81.8425V79.8572C87.3588 79.1869 86.6302 78.4902 85.5996 78.0045C83.6486 77.0865 81.8423 77.4948 81.331 77.629V63.3419C81.6274 63.0567 83.3698 61.3207 83.3394 58.546C83.3083 55.7554 81.5075 54.0529 81.2063 53.7765C81.2103 53.3003 81.2151 52.8242 81.2191 52.348C80.6719 52.3176 80.2364 51.8679 80.2364 51.3134V47.0064H74.1782C73.8012 47.0064 73.4536 46.8019 73.2699 46.4728C73.0861 46.1436 73.0949 45.7401 73.293 45.4198L84.1815 27.7749C84.3709 27.4681 84.7064 27.2811 85.0667 27.2811C85.427 27.2811 85.7626 27.4681 85.9519 27.7749L96.8468 45.4198C97.0449 45.7409 97.0537 46.1436 96.8699 46.4735C96.6862 46.8027 96.3387 47.0072 95.9616 47.0072H89.9058L89.9042 47.0048Z" fill="white"/>
<path d="M115.251 108.184C115.251 108.184 115.249 108.184 115.248 108.184H102.227V117.921H117.679V108.184H115.255C115.255 108.184 115.253 108.184 115.251 108.184Z" fill="#B9C638"/>
<path d="M117.68 2.08203H117.635C117.651 2.13556 117.667 2.18989 117.68 2.24501V2.08203Z" fill="#B9C638"/>
<path d="M115.541 4.87296H102.227V11.8172H117.679V3.2168C117.442 4.15393 116.51 4.87296 115.541 4.87296H115.541Z" fill="#B9C638"/>
<path d="M100.609 13.8984L96.5645 22.8703C96.5645 22.8703 97.3626 30.6893 98.0097 39.8273C98.1407 41.8726 98.2725 43.9186 98.4044 45.9638C98.6512 50.3076 98.8214 54.6265 98.8214 58.2808C98.8214 71.5884 96.5645 97.1338 96.5645 97.1338L100.609 106.103H113.34L107.913 97.6986C107.78 97.4925 107.725 97.2464 107.755 97.0036C107.787 96.7487 110.979 71.3703 110.979 58.2816C110.979 46.7028 108.48 28.1647 107.884 23.9121H102.227C101.653 23.9121 101.187 23.4463 101.187 22.8719C101.187 22.2975 101.653 21.8317 102.227 21.8317H108.221L113.341 13.9008H100.61L100.609 13.8984Z" fill="#E8E8E8"/>
<path d="M9.17045 108.184C9.23117 108.382 9.26552 108.587 9.26552 108.795V116.139C9.26552 116.896 8.88524 117.53 8.31641 117.921H102.225V108.184H9.17045Z" fill="#CDE53C"/>
<path d="M91.724 4.87305H8.88888V10.3968C8.88888 10.952 8.68356 11.441 8.34961 11.8172H102.225V4.87305H91.7232H91.724Z" fill="#CDE53C"/>
<path d="M94.0941 44.9232L92.4004 42.1797C92.4867 43.0897 92.569 44.0052 92.6473 44.9232H94.0941Z" fill="#EF3F3F"/>
<path d="M87.8235 63.3396V45.9632C87.8235 45.3887 88.2892 44.923 88.8637 44.923H92.6473C92.569 44.005 92.4868 43.0894 92.4005 42.1795L86.6706 32.8984C85.1814 35.2121 83.6907 37.5282 82.1999 39.8418C81.7014 40.6176 80.765 40.8653 79.9461 40.433C79.6425 40.2725 79.4148 39.996 79.2782 39.6773L76.041 44.9222H81.2755C81.85 44.9222 82.3157 45.3879 82.3157 45.9624V51.3103C82.3157 51.8847 81.85 52.3505 81.2755 52.3505C81.2556 52.3505 81.2372 52.3457 81.218 52.3449C81.214 52.8211 81.2092 53.2972 81.2052 53.7734C81.5064 54.0506 83.308 55.7531 83.3383 58.5429C83.3695 61.3176 81.6271 63.0536 81.3299 63.3388V77.6259C81.842 77.4917 83.6475 77.0834 85.5985 78.0014C86.6299 78.4871 87.3577 79.1838 87.8666 79.8541V76.8853C87.8666 76.3109 88.3324 75.8451 88.9068 75.8451V73.7072C88.3324 73.7072 87.8666 73.2414 87.8666 72.667V67.7129C87.8666 67.1417 88.3268 66.6791 88.8964 66.6735L88.8732 64.3774C88.8732 64.3774 88.8669 64.3782 88.8629 64.3782C88.2884 64.3782 87.8227 63.9125 87.8227 63.338L87.8235 63.3396Z" fill="#FF5652"/>
<path d="M79.9452 40.4331C80.7649 40.8661 81.7005 40.6177 82.199 39.8419C83.6898 37.5282 85.1806 35.2122 86.6697 32.8985L85.0647 30.2988L79.2773 39.6773C79.414 39.9961 79.6417 40.2717 79.9452 40.4331Z" fill="white"/>
<path d="M85.3541 90.0505C84.6974 87.5387 82.4029 85.7004 79.7122 85.7004C79.1074 85.7004 78.5154 85.7931 77.9521 85.9752C77.6709 86.0663 77.3633 86.0336 77.1069 85.8842C76.8512 85.7348 76.6715 85.4831 76.6116 85.1931C75.7543 80.9828 72.013 77.9277 67.7156 77.9277C66.0179 77.9277 64.3625 78.3991 62.9261 79.2915C61.3386 80.2837 60.1115 81.7106 59.3781 83.4171C59.2423 83.7335 58.9594 83.962 58.6215 84.0275C58.2836 84.093 57.9352 83.9883 57.6908 83.7463C55.4746 81.5556 51.8818 81.5644 49.6824 83.7662C48.5903 84.8616 48.0015 86.3204 48.0246 87.8727C48.0302 88.2442 47.8377 88.5901 47.5197 88.781C47.2009 88.972 46.8055 88.9792 46.4803 88.7986C45.6423 88.3345 44.6915 88.0892 43.7304 88.0892C42.0559 88.0892 40.4996 88.8258 39.4395 90.0513H85.3541V90.0505Z" fill="#E06C2B"/>
<path d="M64.3504 63.5651C65.4713 63.0147 66.7775 62.6152 68.2603 62.3716C69.5242 62.1654 70.7977 62.0808 72.0304 61.9993C73.0411 61.9322 74.0868 61.8626 75.0887 61.726C76.0706 61.5918 77.3145 61.3537 78.2236 60.6898C79.1528 60.0132 79.5251 59.2094 79.3285 58.3011C79.0425 56.9765 77.6045 55.687 76.0546 55.3658C75.5648 55.2644 75.0615 55.2148 74.5526 55.2148C72.1926 55.2148 69.7024 56.2822 67.7722 58.182C66.3685 59.5642 65.2228 61.3681 64.3496 63.5659L64.3504 63.5651Z" fill="#CDE53C"/>
<path d="M50.2011 49.4043C50.4272 49.7878 50.5055 50.2631 50.404 50.7121C50.2019 51.5957 49.2112 52.0719 48.3763 51.8634C48.3148 51.8482 48.2533 51.8346 48.1918 51.8218H48.1854C47.9984 51.8082 47.8139 51.8106 47.6269 51.8266H47.6222C47.4176 51.8682 47.2203 51.9257 47.0246 51.9984C46.88 52.0663 46.7393 52.1454 46.6027 52.2333C46.5724 52.2532 46.5372 52.282 46.5021 52.31C46.4645 52.3451 46.4382 52.3675 46.4206 52.3827C46.4406 52.3651 46.4693 52.3387 46.5021 52.31C46.5284 52.286 46.5596 52.2572 46.5963 52.2245C46.522 52.2924 46.4406 52.3563 46.3655 52.4266C46.284 52.5057 46.2073 52.5848 46.1306 52.6727C46.1306 52.6727 46.1306 52.6751 46.1282 52.6751C46.0379 52.8045 45.9588 52.9427 45.8885 53.0857C45.8318 53.2527 45.7878 53.4221 45.7527 53.5954V53.5994C45.7391 53.8055 45.7415 54.0101 45.7615 54.217V54.2234C45.803 54.4231 45.8581 54.6212 45.9284 54.8146C46.0115 54.9839 46.1082 55.1461 46.2137 55.3067C46.2448 55.3443 46.2776 55.3794 46.3103 55.4146C46.4158 55.5264 46.53 55.6279 46.6491 55.7269C47.273 56.239 47.2299 57.1794 46.8352 57.8105C46.967 57.8553 47.1013 57.9 47.2443 57.9455C48.4906 58.3458 49.8 58.6694 51.0655 58.9817C52.6018 59.3612 54.1901 59.7543 55.7312 60.2944C57.8251 61.0294 59.5684 61.9729 60.9489 63.1161C60.3577 59.7623 59.2464 56.9229 57.6302 54.6484C55.7368 51.984 53.0228 50.1034 50.2011 49.4051V49.4043Z" fill="#CDE53C"/>
<path d="M46.6497 55.7252C46.5306 55.6261 46.4172 55.5255 46.3109 55.4128C46.2782 55.3777 46.2454 55.3425 46.2143 55.305C46.1088 55.1444 46.0121 54.9822 45.9291 54.8128C45.8588 54.6195 45.8036 54.4222 45.7621 54.2216V54.2152C45.7421 54.0091 45.7405 53.8046 45.7533 53.5977V53.5937C45.7885 53.4203 45.8324 53.2509 45.8891 53.084C45.9594 52.941 46.0385 52.8028 46.1288 52.6733C46.1312 52.6733 46.1312 52.6709 46.1312 52.6709C46.2079 52.5831 46.2854 52.504 46.3661 52.4249C46.4412 52.3546 46.5219 52.2906 46.597 52.2227C46.5594 52.2555 46.529 52.2843 46.5027 52.3082C46.5378 52.2795 46.573 52.2507 46.6033 52.2315C46.74 52.1436 46.8806 52.0646 47.0252 51.9966C47.2209 51.9239 47.4182 51.8672 47.6228 51.8249H47.6276C47.8145 51.8097 47.9991 51.8073 48.186 51.8201H48.1924C48.2539 51.8337 48.3154 51.8464 48.377 51.8616C49.2118 52.0701 50.2025 51.594 50.4046 50.7104C50.5061 50.2614 50.4278 49.7852 50.2017 49.4026C49.4499 49.2164 48.6901 49.1094 47.9367 49.099C47.8033 49.0974 47.6715 49.0966 47.5373 49.1006C45.9179 49.1477 44.2985 49.9131 43.2822 51.018C42.6175 52.063 42.3475 53.33 42.4937 54.5652C42.6855 54.9998 42.9834 55.4296 43.3901 55.8522C43.6673 56.1406 43.9861 56.4035 44.336 56.6344C44.3544 56.6464 44.372 56.6591 44.3895 56.6719C44.8769 56.9923 45.4433 57.2775 46.1176 57.5435C46.3413 57.6322 46.5802 57.7193 46.8366 57.8064C47.2313 57.1752 47.2744 56.2357 46.6505 55.7228L46.6497 55.7252Z" fill="white"/>
<path d="M43.281 51.0195C42.9303 51.4006 42.6506 51.8216 42.4677 52.2674C42.1505 53.044 42.1601 53.8134 42.4925 54.5667C42.3462 53.3308 42.6163 52.0645 43.281 51.0195Z" fill="#CDE53C"/>
<path d="M40.857 77.896C40.857 77.3215 41.3228 76.8558 41.8972 76.8558H44.7669L40.9002 70.5898C39.8552 71.9943 38.8094 73.4004 37.7644 74.8049C37.4944 75.1676 37.2132 75.4225 36.7801 75.5607C36.3559 75.6989 35.8925 75.5983 35.5107 75.3961C35.3549 75.3138 35.2127 75.1868 35.0904 75.039L33.9688 76.8558H36.8377C37.4121 76.8558 37.8779 77.3215 37.8779 77.896V83.1552C38.2206 82.7062 38.6712 82.2788 39.272 81.9585C39.8336 81.6581 40.3865 81.5238 40.8578 81.4695C40.8578 81.4679 40.8578 81.4655 40.8578 81.4639V77.896H40.857Z" fill="#FFD140"/>
<path d="M46.5014 52.3086C46.4687 52.3374 46.4399 52.3637 46.4199 52.3813C46.4375 52.3661 46.4639 52.3437 46.5014 52.3086Z" fill="white"/>
<path d="M35.5109 75.3963C35.8928 75.5984 36.3569 75.6991 36.7804 75.5609C37.2134 75.4227 37.4946 75.1678 37.7646 74.8051C38.8104 73.4006 39.8554 71.9945 40.9004 70.59L39.3697 68.1094L35.0898 75.0392C35.2121 75.1862 35.3543 75.3132 35.5101 75.3963H35.5109Z" fill="white"/>
<path d="M79.7127 83.6189C79.2645 83.6189 78.8211 83.6564 78.3849 83.7307C76.962 79.1034 72.6358 75.8454 67.7169 75.8454C66.2317 75.8454 64.7729 76.141 63.4179 76.7058V66.7161C64.5859 65.5673 66.3252 64.7955 68.5957 64.4224C69.7605 64.2323 70.9293 64.1548 72.1669 64.0725C73.2126 64.003 74.2952 63.9311 75.3689 63.7849C76.5929 63.6179 78.1628 63.3064 79.4482 62.3692C81.0333 61.2148 81.7315 59.5714 81.3624 57.8593C80.9014 55.723 78.8466 53.816 76.477 53.3247C73.0441 52.6128 69.1486 53.9039 66.3132 56.6953C64.9135 58.0726 63.7471 59.7967 62.8219 61.8427C62.1412 58.572 60.9732 55.755 59.3274 53.4397C56.552 49.5338 52.1979 47.0731 47.9668 47.0172C47.8046 47.0148 47.6417 47.0148 47.4771 47.0196C44.4787 47.1067 41.5627 48.9825 40.5433 51.4784C39.7268 53.4765 40.2053 55.5417 41.891 57.2945C42.2609 57.678 42.6796 58.0279 43.1357 58.3347C43.1517 58.3467 43.1677 58.3586 43.1845 58.3698C43.8076 58.7869 44.5179 59.1496 45.352 59.4787C45.7338 59.6297 46.1461 59.7759 46.611 59.9237C47.9237 60.3448 49.2675 60.6771 50.5673 60.9983C52.0565 61.3666 53.596 61.7469 55.0436 62.2542C57.9829 63.2856 60.0968 64.7444 61.3383 66.5915V77.8491C60.0001 78.7838 58.8936 79.9814 58.0803 81.3763C55.0596 79.3103 50.8837 79.6179 48.2113 82.2927C47.0856 83.4223 46.3514 84.8324 46.0718 86.3664C45.3176 86.1283 44.5275 86.0052 43.7317 86.0052C40.6415 86.0052 37.8493 87.838 36.6174 90.6741C36.4776 90.9961 36.5095 91.366 36.7021 91.6592C36.8946 91.9524 37.2214 92.129 37.5721 92.129H86.5706C86.8582 92.129 87.1322 92.0099 87.3288 91.8014C87.5253 91.5921 87.6267 91.3109 87.6092 91.024C87.3503 86.8713 83.8822 83.6173 79.7135 83.6173L79.7127 83.6189ZM43.7317 88.088C44.6928 88.088 45.6436 88.3333 46.4816 88.7975C46.806 88.978 47.2022 88.9708 47.521 88.7799C47.839 88.5889 48.0315 88.243 48.0259 87.8715C48.0028 86.3192 48.5916 84.8604 49.6837 83.7651C51.8839 81.5632 55.4758 81.5553 57.6921 83.7451C57.9365 83.9872 58.2849 84.0918 58.6228 84.0263C58.9599 83.9608 59.2436 83.7323 59.3794 83.4159C60.1128 81.7094 61.3399 80.2826 62.9274 79.2903C64.3638 78.3987 66.0192 77.9266 67.7169 77.9266C72.0143 77.9266 75.7556 80.9824 76.6129 85.1919C76.672 85.4819 76.8517 85.7336 77.1082 85.883C77.3638 86.0324 77.6714 86.066 77.9534 85.9741C78.5167 85.7919 79.1087 85.6992 79.7135 85.6992C82.4042 85.6992 84.6987 87.5376 85.3554 90.0494H39.4399C40.5001 88.8238 42.0564 88.0872 43.7309 88.0872L43.7317 88.088ZM55.7315 60.292C54.1904 59.7512 52.6021 59.3589 51.0658 58.9794C49.8003 58.6662 48.4909 58.3435 47.2446 57.9432C47.1016 57.8977 46.9674 57.8529 46.8355 57.8082C46.5791 57.7211 46.341 57.634 46.1165 57.5453C45.4422 57.2801 44.8758 56.9941 44.3885 56.6737C44.3709 56.6609 44.3533 56.6482 44.3349 56.6362C43.985 56.4053 43.667 56.1424 43.389 55.854C42.9824 55.4314 42.6844 55.0016 42.4926 54.567C42.1603 53.8136 42.1507 53.0442 42.4679 52.2677C42.65 51.8211 42.9304 51.4001 43.2812 51.0198C44.2982 49.9149 45.9168 49.1495 47.5362 49.1024C47.6696 49.0984 47.8014 49.0984 47.9357 49.1008C48.6898 49.1104 49.4488 49.2182 50.2006 49.4044C53.0216 50.1034 55.7363 51.9841 57.6297 54.6477C59.246 56.9222 60.3572 59.7616 60.9484 63.1154C59.5687 61.9722 57.8247 61.0278 55.7307 60.2936L55.7315 60.292ZM76.0544 55.3635C77.6043 55.6847 79.0424 56.9741 79.3284 58.2987C79.5241 59.2079 79.1526 60.0116 78.2235 60.6875C77.3143 61.3506 76.0704 61.5895 75.0885 61.7237C74.0867 61.8603 73.0409 61.9298 72.0303 61.9969C70.7983 62.0784 69.5248 62.1631 68.2602 62.3692C66.7774 62.6129 65.4711 63.0124 64.3502 63.5628C65.2235 61.365 66.3691 59.561 67.7728 58.1789C69.703 56.2791 72.1924 55.2117 74.5532 55.2117C75.0622 55.2117 75.5655 55.2612 76.0552 55.3627L76.0544 55.3635Z" fill="#4F2510"/>
<path d="M87.8672 67.714V72.6681C87.8672 73.2425 88.333 73.7083 88.9074 73.7083C89.4818 73.7083 89.9476 73.2425 89.9476 72.6681V67.714C89.9476 67.1396 89.4818 66.6738 88.9074 66.6738C88.9042 66.6738 88.9002 66.6746 88.897 66.6746C88.3274 66.6802 87.8672 67.1428 87.8672 67.714Z" fill="#4F2510"/>
<path d="M87.8672 76.8879V81.8419C87.8672 82.4164 88.333 82.8821 88.9074 82.8821C89.4818 82.8821 89.9476 82.4164 89.9476 81.8419V76.8879C89.9476 76.3134 89.4818 75.8477 88.9074 75.8477C88.333 75.8477 87.8672 76.3134 87.8672 76.8879Z" fill="#4F2510"/>
<path d="M96.8687 46.4698C97.0524 46.1406 97.0436 45.7372 96.8455 45.416L85.9506 27.7711C85.7613 27.4643 85.4257 27.2773 85.0654 27.2773C84.7051 27.2773 84.3696 27.4643 84.1802 27.7711L73.2918 45.416C73.0936 45.7372 73.0848 46.1398 73.2686 46.469C73.4523 46.7981 73.7999 47.0027 74.177 47.0027H80.2352V51.3096C80.2352 51.8641 80.6706 52.3139 81.2178 52.3442C81.237 52.345 81.2554 52.3498 81.2754 52.3498C81.8498 52.3498 82.3156 51.884 82.3156 51.3096V45.9617C82.3156 45.3872 81.8498 44.9215 81.2754 44.9215H76.0408L79.2781 39.6766L85.0654 30.2981L86.6705 32.8977L92.4003 42.1788L94.094 44.9223H88.8635C88.2891 44.9223 87.8233 45.388 87.8233 45.9625V63.3389C87.8233 63.9134 88.2891 64.3791 88.8635 64.3791C88.8667 64.3791 88.8707 64.3783 88.8739 64.3783C89.4435 64.3727 89.9037 63.9102 89.9037 63.3389V47.0027H95.9595C96.3366 47.0027 96.6841 46.7981 96.8679 46.469L96.8687 46.4698Z" fill="#4F2510"/>
<path d="M37.8773 85.6752V77.8954C37.8773 77.3209 37.4116 76.8552 36.8371 76.8552H33.9682L35.0899 75.0384L39.3697 68.1086L40.9004 70.5892L44.7672 76.8552H41.8975C41.3231 76.8552 40.8573 77.3209 40.8573 77.8954V81.4633C40.8573 81.4633 40.8573 81.4673 40.8573 81.4689C40.8605 82.0409 41.3247 82.5035 41.8975 82.5035C42.4703 82.5035 42.9377 82.0378 42.9377 81.4633V78.9356H46.6319C47.009 78.9356 47.3565 78.7318 47.5403 78.4019C47.724 78.0727 47.7152 77.6693 47.5171 77.3489L40.2557 65.5816C40.0664 65.2748 39.7316 65.0879 39.3705 65.0879C39.0102 65.0879 38.6747 65.2748 38.4853 65.5816L31.2175 77.3489C31.0194 77.6701 31.0106 78.0727 31.1944 78.4027C31.3781 78.7326 31.7257 78.9363 32.1027 78.9363H35.7969V85.676C35.7969 86.2505 36.2627 86.7162 36.8371 86.7162C37.4116 86.7162 37.8773 86.2505 37.8773 85.676V85.6752Z" fill="#4F2510"/>
<path d="M5.82227 2.08203V11.8193H8.34925C8.68319 11.443 8.88852 10.954 8.88852 10.3988V4.87425H115.54C116.509 4.87425 117.442 4.15443 117.679 3.21809V2.24501C117.666 2.18989 117.65 2.13636 117.634 2.08203H5.82227Z" fill="white"/>
<path d="M118.719 0H4.78238C4.20796 0 3.74219 0.46577 3.74219 1.04019V12.8586C3.74219 13.433 4.20796 13.8988 4.78238 13.8988H7.68725L13.632 23.1079C13.203 26.1294 10.4451 46.0185 10.4451 58.2803C10.4451 70.5421 13.2389 93.6652 13.6384 96.8857L7.68645 106.102H4.78238C4.20796 106.102 3.74219 106.568 3.74219 107.142V118.96C3.74219 119.534 4.20796 120 4.78238 120H118.719C119.294 120 119.76 119.534 119.76 118.96V107.142C119.76 106.568 119.294 106.102 118.719 106.102H115.817L109.866 96.8857C110.265 93.658 113.059 70.618 113.059 58.2795C113.059 45.941 110.301 26.1286 109.872 23.1071L115.817 13.898H118.719C119.294 13.898 119.76 13.4322 119.76 12.8578V1.04019C119.76 0.46577 119.294 0 118.719 0ZM108.22 21.8297H102.227C101.652 21.8297 101.186 22.2954 101.186 22.8698C101.186 23.4443 101.652 23.91 102.227 23.91H107.884C108.479 28.1627 110.978 46.7008 110.978 58.2795C110.978 71.369 107.786 96.7467 107.754 97.0015C107.724 97.2444 107.78 97.4905 107.912 97.6966L113.339 106.101H10.1639L15.2866 98.1679H24.8888C25.4632 98.1679 25.929 97.7022 25.929 97.1277C25.929 96.5533 25.4632 96.0876 24.8888 96.0876H15.6357C15.0661 91.4307 12.5247 69.9893 12.5247 58.2795C12.5247 45.2012 15.7132 23.2405 15.7459 23.02C15.7827 22.7708 15.7276 22.5167 15.591 22.305L10.1631 13.898H113.34L108.22 21.8289V21.8297ZM117.679 117.92H5.82257V108.182H115.248C115.248 108.182 115.251 108.182 115.251 108.182C115.252 108.182 115.254 108.182 115.255 108.182H117.679V117.92ZM117.634 2.08038H117.679V11.8176H5.82257V2.08118H117.634V2.08038Z" fill="#4F2510"/>
<path d="M9.26561 116.139V108.795C9.26561 108.587 9.23205 108.382 9.17053 108.184H5.82227V117.921H8.31649C8.88532 117.53 9.26561 116.896 9.26561 116.139Z" fill="white"/>
</svg>
