<svg width="700" height="400" viewBox="0 0 700 400" fill="none" xmlns="http://www.w3.org/2000/svg">
<mask id="mask0_280_9785" style="mask-type:alpha" maskUnits="userSpaceOnUse" x="0" y="0" width="700" height="400">
<rect width="700" height="400" rx="20" fill="white"/>
</mask>
<g mask="url(#mask0_280_9785)">
<path d="M63.1028 321.53C76.5985 368.246 152.893 372.648 189.353 369.01C272.613 347.18 352.247 353.18 380 357C402.203 360.056 488.5 344.766 538 315.5C606.5 275 555 254.5 618 208C680.415 161.932 627.964 109.056 610.006 86.8621C592.955 64.8506 539.262 24.3203 460.9 38.2913C362.947 55.755 317.236 30.6509 284.041 30.6509C250.845 30.6509 199.148 18.0989 118.609 103.234C38.0704 188.37 46.2332 263.136 63.1028 321.53Z" fill="#FEFCEB"/>
<path d="M487.995 202.89C487.995 202.89 487.966 202.842 487.938 202.832C462.976 185.857 438.138 182.303 408.256 185.761C398.111 186.774 376.627 191.006 366.185 193.614C335.625 201.046 326.349 209.997 306.938 224.25C290.411 236.325 272.824 246.747 256.67 259.414C310.329 280.517 321.764 310.59 324.037 313.198C323.302 317.63 322.585 322.053 321.869 326.515C321.506 328.005 364.953 325.903 370.245 325.932H371.009C375.987 324.432 384.049 323.467 388.902 324.938C391.644 325.779 397.213 327.441 401.378 326.247C401.397 326.228 401.426 326.218 401.455 326.218C410.807 323.267 449.716 306.052 457.865 302.355C459.9 301.438 463.071 300.616 464.399 298.801C467.791 294.187 464.896 287.118 461.82 282.275C458.524 281.176 455.945 276.18 453.404 273.677C452.592 272.894 443.765 265.614 443.965 265.28C448.15 258.507 446.115 260.637 448.15 258.545C486.046 218.633 516.243 231.243 519.721 230.679C513.645 223.199 500.051 210.112 487.986 202.899L487.995 202.89ZM401.522 276.658C401.417 277.89 400.318 278.826 399.076 278.702C393.01 278.157 421.659 280.727 336.695 273.113C335.463 272.989 334.546 271.91 334.651 270.668L337.584 238.169C337.689 236.936 338.787 236.029 340.029 236.134C346.105 236.678 317.427 234.109 402.391 241.722C403.642 241.827 404.559 242.916 404.435 244.149L401.522 276.648V276.658Z" fill="#4A27A5" stroke="black" stroke-width="2" stroke-linejoin="round"/>
<path d="M204.449 152.75C205.681 151.489 207.152 150.123 208.91 150.228C212.769 150.62 215.205 156.428 217.67 158.903C219.8 161.033 222.695 162.284 224.758 164.434C230.375 170.261 220.593 177.579 218.597 182.861C217.517 185.708 217.794 189.376 220.211 191.22C223.927 194.048 229.64 190.886 233.843 192.94C239.546 195.72 238.18 202.741 235.028 208.912C229.735 219.258 221.873 229.107 210.199 228.754C204.601 228.582 198.975 225.238 197.007 220.003C195.039 214.759 197.618 207.976 202.901 206.132C200.198 210.135 194.399 211.673 190.071 209.533C185.744 207.393 183.442 201.853 184.98 197.277C187.693 189.224 199.185 187.093 202.347 179.203C201.21 182.03 192.469 177.531 191.218 176.69C186.651 173.624 187.951 169.678 191.829 165.714C197.771 159.629 198.621 158.75 204.449 152.779V152.75Z" fill="#FFEBF1"/>
<path d="M416.886 224.468C412.037 224.032 390.937 222.141 370.782 220.334C352.786 218.721 335.544 217.175 331.297 216.794C322.19 318.301 321.966 320.804 320.68 335.185C320.536 336.797 320.378 338.559 320.193 340.626L359.904 344.204C363.581 342.09 367.519 339.957 371.316 337.998C369.787 338.19 368.281 338.375 366.777 338.56C365.181 338.763 363.027 339.013 361.26 337.934M416.886 224.468L361.782 337.08M416.886 224.468L416.877 224.561C416.813 225.281 416.717 226.344 416.595 227.699C416.352 230.409 416.004 234.291 415.586 238.956C414.749 248.285 413.633 260.743 412.515 273.216L409.437 307.565L408.418 318.931L408.13 322.14L408.08 322.696C407.931 322.755 407.78 322.815 407.627 322.875C405.544 323.699 403.144 324.649 401.244 325.252C401.17 325.267 401.093 325.291 401.017 325.325C397.44 326.314 394.006 325.465 389.215 323.992L389.212 323.991C386.711 323.231 382.799 322.971 378.386 323.457C373.954 323.945 368.93 325.195 364.196 327.528L364.196 327.528C363.128 328.054 361.888 328.823 360.892 329.833C359.896 330.842 359.074 332.166 359.024 333.779M416.886 224.468L360.024 333.813M361.26 337.934L361.782 337.08M361.26 337.934C361.261 337.934 361.261 337.934 361.262 337.934L361.782 337.08M361.26 337.934C359.856 337.078 358.964 335.441 359.024 333.779M361.782 337.08C360.683 336.411 359.976 335.112 360.024 333.813M359.024 333.779C359.024 333.781 359.024 333.782 359.024 333.783L360.024 333.813M359.024 333.779C359.024 333.778 359.024 333.777 359.024 333.776L360.024 333.813M401.398 326.257C397.462 327.384 393.736 326.429 388.922 324.948C384.269 323.534 373.866 323.878 364.638 328.425L401.398 326.257ZM401.398 326.257C401.417 326.237 401.445 326.228 401.474 326.228L401.398 326.257ZM402.522 276.71L402.518 276.752C402.368 278.514 400.811 279.866 399.02 279.711C399.011 279.71 399.001 279.709 398.991 279.708L398.987 279.708L398.987 279.707L397.383 279.564C393.167 279.187 379.088 277.926 336.606 274.119L336.595 274.118L336.595 274.118C334.83 273.94 333.503 272.39 333.655 270.593L333.655 270.588L336.587 238.093C336.588 238.092 336.588 238.091 336.588 238.091C336.741 236.305 338.319 235.011 340.084 235.145C340.084 235.145 340.084 235.144 340.084 235.144L340.09 235.145L340.09 235.145C340.09 235.145 340.09 235.145 340.09 235.145C340.094 235.145 340.098 235.146 340.102 235.146C340.103 235.146 340.103 235.146 340.103 235.146L402.522 276.71ZM402.522 276.71V276.702M402.522 276.71V276.702M340.887 235.216L340.478 235.18L340.161 235.151L341.059 235.232C340.68 235.543 340.543 235.881 340.525 236.188C341.308 236.258 340.908 236.222 340.497 236.185C340.479 236.184 340.461 236.182 340.443 236.181C340.426 236.476 340.298 236.802 339.948 237.108M340.887 235.216L340.029 236.143L339.948 237.108M340.887 235.216L341.033 235.229L341.058 235.232L341.059 235.232L341.059 235.232L341.06 235.232L341.062 235.232L341.064 235.232C341.064 235.232 341.064 235.232 341.064 235.232L341.716 235.291L402.475 240.735C402.476 240.736 402.477 240.736 402.478 240.736C404.27 240.888 405.609 242.456 405.431 244.253C405.431 244.255 405.431 244.257 405.43 244.259L402.522 276.702M340.887 235.216L402.522 276.702M339.948 237.108L339.945 237.14L339.942 237.113C339.944 237.112 339.946 237.11 339.948 237.108ZM399.164 277.715L399.166 277.715L399.176 277.716L399.164 277.715ZM399.164 277.715L399.123 277.712L398.808 277.683L398.399 277.647L398.253 277.633L398.231 277.632L398.228 277.631L398.228 277.631L398.227 277.631L398.224 277.631L398.223 277.631L398.218 277.63C398.218 277.63 398.218 277.631 398.217 277.631L399.164 277.715ZM399.013 279.71L399.016 279.71L399.017 279.71L399.013 279.71Z" fill="#87AB99" stroke="black" stroke-width="2"/>
<path d="M274.003 38.7227L308.003 12.7227L314.503 17.2227L301.503 58.7227L291.503 59.7227L289.003 48.7227L275.503 50.2227L274.003 38.7227Z" fill="white"/>
<path d="M275.003 39.2227L308.171 14.2183C309.805 15.3743 311.477 16.4537 313.187 17.4855L300.503 58.2227C300.245 58.9678 300.719 59.2227 301.503 59.2227C301.98 59.2227 302.34 58.7004 302.503 58.2227L320.084 4.52208C320.456 3.4426 319.176 2.54462 318.288 3.25154L274.003 37.7227C273.506 38.1144 273.601 38.726 274.003 39.2227C274.394 39.7195 274.506 39.6144 275.003 39.2227Z" fill="black"/>
<path d="M242.075 80.4066L240.972 81.8266L211.31 120.038L210.633 120.911L209.832 120.15C206.645 117.124 199.787 113.252 193.598 110.092C190.528 108.525 187.663 107.152 185.565 106.172C184.517 105.682 183.66 105.29 183.067 105.021C182.945 104.965 182.835 104.916 182.736 104.871C179.179 108.061 176.477 109.909 174.396 110.832C172.224 111.796 170.534 111.828 169.286 111.04C168.097 110.289 167.631 108.98 167.407 108.059C167.305 107.636 167.241 107.236 167.195 106.946C167.188 106.908 167.183 106.872 167.177 106.838C167.159 106.727 167.146 106.65 167.135 106.597C167.072 106.484 167.04 106.378 167.024 106.303C166.992 106.157 166.999 106.035 167.005 105.971C167.018 105.842 167.051 105.731 167.07 105.67C167.114 105.535 167.179 105.385 167.245 105.241C167.384 104.943 167.595 104.537 167.859 104.052C168.391 103.076 169.176 101.71 170.131 100.089C172.042 96.8432 174.65 92.5411 177.314 88.2101C179.978 83.8784 182.7 79.5128 184.84 76.1392C185.91 74.4529 186.836 73.0114 187.537 71.9449C187.887 71.4121 188.184 70.9687 188.415 70.6335C188.63 70.324 188.829 70.0466 188.967 69.8955C188.968 69.8951 188.968 69.8947 188.969 69.8943L189.705 70.5714C202.334 56.7578 200.423 77.0387 200.423 77.0387L242.075 80.4066ZM242.075 80.4066L240.287 80.2189L201.484 76.1447L242.075 80.4066Z" fill="#FCF1B0" stroke="black" stroke-width="2"/>
<path d="M287.004 137.725L271.715 102.964L271.005 101.35L269.985 102.788L242.31 141.764L241.664 142.673L242.638 143.216C246.506 145.376 252.258 150.721 257.121 155.631C259.534 158.067 261.698 160.364 263.259 162.053C264.039 162.897 264.668 163.589 265.102 164.069C265.192 164.169 265.274 164.26 265.347 164.341C263.396 168.699 262.461 171.835 262.216 174.097C261.96 176.459 262.443 178.078 263.573 179.026C264.649 179.929 266.037 179.973 266.981 179.905C267.411 179.874 267.809 179.814 268.098 179.77C268.138 179.764 268.175 179.758 268.211 179.753C268.319 179.737 268.395 179.727 268.448 179.72C268.578 179.748 268.691 179.746 268.768 179.738C268.917 179.723 269.031 179.678 269.09 179.653C269.209 179.602 269.304 179.537 269.355 179.5C269.47 179.417 269.593 179.31 269.709 179.203C269.95 178.98 270.272 178.656 270.653 178.256C271.42 177.453 272.481 176.289 273.734 174.886C276.242 172.078 279.545 168.285 282.859 164.429C286.174 160.573 289.504 156.651 292.067 153.585C293.348 152.053 294.44 150.732 295.244 149.739C295.645 149.243 295.978 148.825 296.227 148.502C296.458 148.202 296.662 147.927 296.763 147.75L296.764 147.75C297.949 145.679 298.714 143.95 299.122 142.508C299.527 141.075 299.601 139.849 299.305 138.834C298.997 137.777 298.318 137.053 297.451 136.615C296.618 136.194 295.64 136.049 294.68 136.041C292.764 136.024 290.596 136.554 288.961 137.058C288.183 137.297 287.505 137.538 287.004 137.725Z" fill="#FCF1B0" stroke="black" stroke-width="2"/>
<path d="M363.502 90.2227L371.502 83.2227L379.002 85.7227L387.502 87.2227H398.502L407.502 86.2227L410.002 88.2227L413.002 99.7227L417.002 108.723L423.002 117.723L429.002 122.723L430.002 125.223L427.002 129.723L420.002 140.723L419.502 145.223L424.502 142.723L429.002 141.723L432.502 144.223L435.002 148.223L435.502 153.223L432.502 159.723L427.002 163.223L420.002 164.723L409.502 162.723L408.002 172.223L406.718 184.723C389.819 187.503 379.261 189.823 368.002 192.223L371.002 174.223L359.002 170.223L350.502 164.723L346.002 157.723L343.502 150.223L344.002 138.723L345.002 127.223L349.002 112.223L354.002 101.723L363.502 90.2227Z" fill="#FFD7B1"/>
<path d="M500.376 105.191C497.443 96.4408 487.785 90.6517 478.891 91.9222C477.009 86.0853 470.924 81.9394 464.8 82.3215C458.696 82.7227 453.146 87.6234 452.038 93.6322C450.423 93.2978 448.799 93.3552 447.261 93.7277C441.94 80.0288 433.944 70.237 417.131 64.1613C411.82 62.2507 406.164 63.7314 401.493 60.3783C395.551 56.089 391.997 50.9877 384.727 48.2365C373.273 43.8994 361.361 46.068 356.202 58.3722C353.546 64.744 356.403 77.6119 369.653 83.6111C369.557 83.6684 369.471 83.7353 369.376 83.7926C351.722 96.4217 342.914 116.349 342.436 144.731C342.188 157.809 347.289 166.082 360.472 171.795C363.539 173.122 366.577 174.135 369.586 174.852C366.968 191.827 366.042 192.983 366.185 193.604C366.978 193.403 367.771 193.222 368.602 193.04C370.006 187.146 370.942 181.147 371.84 175.329C380.371 176.867 389.676 176.342 402.63 171.126C403.222 170.878 403.499 170.209 403.27 169.626C403.021 169.034 402.372 168.757 401.77 168.986C386.542 175.129 374.467 175.339 361.38 169.693C349.028 164.353 344.519 156.892 344.739 144.769C345.149 120.734 351.817 98.0457 372.175 84.6811C382.712 88.7697 393.965 88.7697 405.218 87.1839C407.74 86.8305 409.231 87.7762 409.813 90.1454C412.775 102.411 416.806 114.897 427.477 122.454C428.776 123.371 429.168 124.593 428.489 125.721C424.898 131.596 420.369 135.875 418.736 142.639C418.583 143.46 418.621 143.833 418.507 144.177C417.8 145.237 419.128 146.527 420.169 145.677C422.127 145.237 425.471 142.696 427.897 143.069C432.769 143.795 435.454 149.202 434.527 153.453C433.581 157.771 429.569 161.697 424.525 163.206C418.163 165.117 413.463 162.337 407.578 160.035C406.986 159.787 406.327 160.083 406.078 160.675C405.849 161.258 406.136 161.926 406.718 162.156C407.282 162.385 407.817 162.614 408.371 162.843C407.559 163.751 405.878 176.896 405.973 185.904C405.973 185.952 405.973 185.981 405.992 186.029C406.737 185.923 407.502 185.828 408.266 185.751C408.237 182.312 408.39 178.759 408.724 175.138C412.173 177.364 417.714 176.361 420.589 175.644C427.859 173.839 432.683 171.279 437.527 166.025C442.523 160.608 446.077 155.029 448.312 148.161C452.544 155.067 460.177 156.959 464.791 154.408C466.501 153.482 467.848 151.982 469.558 151.007C473.331 148.867 478.031 149.66 482.235 148.552C490.24 146.412 494.921 136.229 491.319 128.758C499.277 124.297 503.318 113.856 500.404 105.201L500.376 105.191ZM369.806 58.1525C366.691 58.697 364.37 62.3844 365.268 65.4318C365.488 66.1579 364.953 66.8934 364.169 66.8934C363.663 66.8934 363.205 66.5686 363.071 66.0719C361.8 61.7444 364.943 56.6622 369.404 55.8884C370.035 55.7929 370.637 56.1941 370.751 56.8246C370.856 57.4551 370.446 58.0474 369.806 58.1525ZM487.689 112.146C487.594 112.729 487.107 113.12 486.562 113.12C485.836 113.12 485.32 112.48 485.416 111.792C486.027 107.943 483.658 103.787 480.028 102.325C479.435 102.077 479.158 101.408 479.388 100.826C479.617 100.233 480.305 99.9563 480.897 100.186C485.54 102.048 488.453 107.207 487.689 112.146Z" fill="black"/>
<circle cx="398" cy="114" r="3" fill="black"/>
<circle cx="369" cy="100" r="3" fill="black"/>
<path d="M416.798 155.478C416.177 155.478 415.661 155.975 415.652 156.596C415.642 157.226 416.139 157.752 416.769 157.771C419.54 157.847 421.976 157.102 424.306 155.612C424.841 155.268 424.994 154.561 424.66 154.026C424.316 153.491 423.609 153.338 423.074 153.673C421.049 154.972 419.119 155.526 416.826 155.469H416.798V155.478Z" fill="black"/>
<path d="M387.871 102.173C388.158 101.609 387.938 100.921 387.374 100.625C386.811 100.329 386.123 100.558 385.827 101.122C382.875 106.844 378.499 111.009 372.452 113.856C369.491 115.251 366.195 115.967 364.6 119.578C363.062 123.055 364.839 126.351 366.558 129.628C366.845 130.191 367.542 130.411 368.106 130.115C368.669 129.828 368.889 129.131 368.593 128.567C367.227 125.95 365.546 123.103 366.702 120.495C367.877 117.83 370.59 117.257 373.427 115.929C379.942 112.853 384.671 108.353 387.861 102.173H387.871Z" fill="black"/>
<path d="M402.993 101.838C402.42 101.571 401.732 101.81 401.465 102.383C401.197 102.956 401.436 103.634 402.009 103.911C408.238 106.854 412.365 110.656 415.412 116.235C415.718 116.798 416.415 116.989 416.969 116.693C417.523 116.387 417.734 115.69 417.428 115.136C414.142 109.108 409.69 105.01 402.993 101.838Z" fill="black"/>
<path d="M370.494 92.9252C376.188 91.0433 381.098 91.9986 385.951 95.944C386.438 96.3452 387.164 96.2783 387.565 95.7816C387.967 95.2848 387.89 94.5684 387.403 94.1671C381.967 89.7441 376.207 88.6264 369.787 90.7472C369.185 90.9478 368.861 91.5974 369.061 92.1992C369.262 92.801 369.911 93.1354 370.513 92.9252H370.494Z" fill="black"/>
<path d="M376.598 140.213C376.188 142.601 375.863 145.027 374.067 146.603C372.51 147.97 370.513 147.673 369.176 146.068C368.774 145.572 368.048 145.514 367.561 145.916C367.074 146.317 366.998 147.043 367.408 147.53C369.567 150.148 373.045 150.558 375.576 148.333C377.907 146.288 378.347 143.594 378.853 140.614C378.958 139.993 378.547 139.401 377.917 139.286C377.305 139.181 376.703 139.601 376.589 140.222L376.598 140.213Z" fill="black"/>
<path d="M247.002 326.223C247.002 326.223 273.502 268.723 273.502 268.223C273.502 267.723 279.527 271.132 284.502 274.223C290.456 278.014 294.141 280.477 298.002 283.723C303.831 288.681 306.92 291.744 310.502 295.723C312.468 297.755 313.695 299.257 316.002 302.223L322.002 311.223L320.483 326.223H247.002Z" fill="#FFD7B1"/>
<path d="M248.55 325.406C249.391 323.419 274.019 267.477 274.124 267.324C269.185 264.707 263.434 262.07 257.96 259.902C252.056 264.917 262.049 275.741 265.679 281.014C259.985 293.929 251.263 313.074 246.047 325.454C239.485 325.588 262.784 325.12 214.055 326.104C213.415 326.104 212.908 326.62 212.908 327.26C212.908 327.9 213.424 328.387 214.055 328.387H214.074C308.276 326.495 246.334 328.024 320.398 327.193L320.599 324.9C238.988 325.311 262.44 325.149 248.56 325.397L248.55 325.406Z" fill="black"/>
<path d="M451.503 270.223L445.503 262.723L457.503 249.223L468.503 241.223L479.503 235.723L491.503 230.723L502.003 229.723L507.503 234.223L520.503 252.723L527.003 267.723L530.503 284.723L529.503 298.223L527.503 307.723L521.003 319.723L513.003 327.223L492.503 339.223L380.003 394.723L376.503 395.223L372.503 393.223L372.003 389.223L374.003 385.723L366.503 385.223L363.503 381.723L364.503 376.723L367.503 373.223L363.003 374.223L357.503 373.223L355.003 370.223L356.003 365.723L361.003 360.223L357.503 360.723L351.503 359.723L348.503 355.723L350.503 351.223L371.003 339.223L372.503 337.223H362.503L360.003 335.223L360.503 331.723L365.503 327.723L373.003 325.223L383.503 324.223L399.503 327.223L462.003 300.723L465.503 297.723L466.003 292.723L463.503 285.723L457.503 276.723L451.503 270.223Z" fill="#FFD7B1"/>
<path d="M514.573 241.952C517.343 238.914 519.655 234.061 520.304 230.383C520.199 230.364 520.094 230.354 519.98 230.335C520.362 229.59 519.894 228.855 519.225 228.702C514.993 227.756 503.386 226.122 487.175 231.415C472.052 236.344 456.787 246.699 447.339 258.44C443.126 263.675 440.575 269.56 439.945 275.234C437.805 269.77 435.971 264.745 434.576 259.777L437.165 226.438C437.213 225.798 436.754 225.263 436.124 225.205L417.954 223.591C408.038 334.138 409.213 321.06 409.117 322.111C407.121 322.904 403.261 324.442 401.121 325.129C397.558 326.104 394.855 325.569 389.247 323.84C384.28 322.34 373.704 322.684 364.123 327.393C362.575 328.158 358.974 330.307 358.869 333.765C358.811 335.475 359.719 337.166 361.171 338.055C363.397 339.421 366.033 338.809 370.523 338.246C366.091 340.557 354.809 346.633 350.72 349.661C348.867 350.989 347.653 353.387 347.682 355.651C347.768 358.861 350.844 362.071 357.56 361.412C357.799 361.383 358.028 361.354 358.267 361.326C355.133 364.086 353.404 367.067 353.825 369.34C354.837 374.566 359.633 375.521 364.887 374.795C362.996 376.897 362.174 378.999 362.231 380.498C362.317 382.247 363.072 383.737 364.419 384.826C366.119 386.192 368.756 386.861 371.832 386.832C368.317 391.847 372.166 396.356 379.236 396.213C379.704 396.203 375.051 398.334 484.185 345.009C507.073 332.418 512.041 330.489 517.887 324.785C539.534 303.845 533.067 265.729 514.573 241.961V241.952ZM440.203 282.103C440.432 282.676 441.12 283.029 441.788 282.676C447.148 285.752 454.771 285.121 460.541 282.408C463.455 286.86 466.626 293.824 463.483 298.114C462.394 299.594 459.366 300.406 457.408 301.295C457.188 301.4 430.602 313.093 430.449 313.159L434.108 265.987C435.818 271.04 437.891 276.275 440.212 282.093L440.203 282.103ZM516.283 323.123C510.79 328.473 506.462 330.116 483.124 342.965L378.93 393.911C373.189 394.111 370.485 390.51 375.424 386.307C375.93 386.259 374.813 386.631 389.925 379.696C390.499 379.428 390.747 378.75 390.489 378.177C390.222 377.604 389.534 377.355 388.97 377.613C385.13 379.39 375.004 384.033 374.679 384.253C374.631 384.253 374.583 384.253 374.536 384.253C370.905 384.864 367.581 384.396 365.861 383.02C362.566 380.374 366.053 376.133 369.597 373.754C369.644 373.725 369.673 373.678 369.721 373.639L382.55 367.717C383.124 367.449 383.372 366.771 383.114 366.198C382.847 365.615 382.159 365.376 381.595 365.634C378.892 366.885 368.718 371.566 368.355 371.767C363.311 373.009 357.044 373.897 356.079 368.911C355.793 367.354 358.095 363.475 363.951 360.084C364.075 360.017 364.171 359.921 364.257 359.826L376.417 354.228C376.991 353.96 377.249 353.282 376.981 352.709C376.714 352.126 376.035 351.878 375.462 352.145C375.309 352.222 361.553 358.546 362.403 358.154C359.318 358.937 355.095 359.864 352.229 358.546C350.854 357.887 350.004 356.778 349.975 355.603C349.946 354.094 350.806 352.413 352.067 351.515C356.242 348.41 368.488 341.866 372.644 339.726C375.242 338.427 374.507 335.504 371.421 335.819C365.174 336.631 363.674 336.908 362.365 336.106C360.464 334.94 360.388 331.797 365.135 329.457C374.077 325.053 384.155 324.699 388.569 326.037C398.428 329.075 399.736 327.909 404.656 326.323C428.892 317.067 449.832 306.692 459.92 302.766C461.888 302.002 464.123 301.132 465.327 299.499C466.836 297.445 467.429 294.512 466.903 291.656C465.021 281.501 456.729 274.145 450.348 267.009C449.125 265.624 447.95 262.901 447.664 261.889C455.22 251.103 471.107 239.086 487.882 233.621C490.384 232.809 496.766 230.947 499.508 231.109C501.275 231.224 502.173 231.386 503.367 232.38C505.402 234.061 509.767 239.716 511.391 241.675C516.225 247.531 520.18 254.093 523.142 261.201C531.577 281.482 532.943 307.036 516.273 323.152L516.283 323.123Z" fill="black"/>
<mask id="path-19-inside-1_280_9785" fill="white">
<path d="M301.607 57.4933L292.99 59.0027C292.551 59.0791 292.121 58.7925 292.025 58.3149L290.058 47.9499C289.962 47.4914 289.542 47.2048 289.093 47.2812L276.97 49.3542C276.483 49.4497 276.034 49.0963 275.996 48.6091L275.212 38.4542C275.155 37.69 274.19 37.4034 273.712 38.0148L240.182 81.2324C236.752 85.6459 254.282 63.0723 196.887 137.003C195.865 136.258 211.446 147.635 229.855 161.086L243.124 142.362L270.789 103.395L302.41 58.8021C302.839 58.2098 302.314 57.3787 301.588 57.5029L301.607 57.4933ZM212.411 139.076C211.905 138.713 211.781 137.996 212.153 137.49C214.599 134.07 271.057 55.4646 272.002 54.2227C272.948 53.019 274.62 54.5286 273.712 55.7227C272.748 56.9551 214.608 137.987 214.016 138.818C213.605 139.362 212.86 139.42 212.411 139.076ZM288.002 64.7227C287.057 65.9551 228.431 147.645 227.839 148.485C227.447 148.982 226.769 149.125 226.225 148.743C225.718 148.38 225.594 147.664 225.967 147.138C228.422 143.738 285.557 64.4646 286.502 63.2227C286.904 62.7164 287.515 62.8406 288.002 63.2227C288.509 63.6048 288.385 64.2164 288.002 64.7227Z"/>
</mask>
<path d="M301.607 57.4933L292.99 59.0027C292.551 59.0791 292.121 58.7925 292.025 58.3149L290.058 47.9499C289.962 47.4914 289.542 47.2048 289.093 47.2812L276.97 49.3542C276.483 49.4497 276.034 49.0963 275.996 48.6091L275.212 38.4542C275.155 37.69 274.19 37.4034 273.712 38.0148L240.182 81.2324C236.752 85.6459 254.282 63.0723 196.887 137.003C195.865 136.258 211.446 147.635 229.855 161.086L243.124 142.362L270.789 103.395L302.41 58.8021C302.839 58.2098 302.314 57.3787 301.588 57.5029L301.607 57.4933ZM212.411 139.076C211.905 138.713 211.781 137.996 212.153 137.49C214.599 134.07 271.057 55.4646 272.002 54.2227C272.948 53.019 274.62 54.5286 273.712 55.7227C272.748 56.9551 214.608 137.987 214.016 138.818C213.605 139.362 212.86 139.42 212.411 139.076ZM288.002 64.7227C287.057 65.9551 228.431 147.645 227.839 148.485C227.447 148.982 226.769 149.125 226.225 148.743C225.718 148.38 225.594 147.664 225.967 147.138C228.422 143.738 285.557 64.4646 286.502 63.2227C286.904 62.7164 287.515 62.8406 288.002 63.2227C288.509 63.6048 288.385 64.2164 288.002 64.7227Z" fill="#FADF4F"/>
<path d="M301.607 57.4933L302.502 59.282L301.262 55.5233L301.607 57.4933ZM292.99 59.0027L293.333 60.9731L293.335 60.9727L292.99 59.0027ZM292.025 58.3149L290.061 58.6879L290.062 58.6975L290.064 58.7071L292.025 58.3149ZM290.058 47.9499L292.022 47.5768L292.019 47.5594L292.016 47.542L290.058 47.9499ZM289.093 47.2812L288.757 45.3095L288.756 45.3098L289.093 47.2812ZM276.97 49.3542L276.633 47.3828L276.609 47.3869L276.585 47.3916L276.97 49.3542ZM275.996 48.6091L274.002 48.7629L274.002 48.7654L275.996 48.6091ZM275.212 38.4542L273.218 38.6038L273.218 38.6081L275.212 38.4542ZM273.712 38.0148L272.136 36.7835L272.132 36.7888L273.712 38.0148ZM240.182 81.2324L241.761 82.4596L241.762 82.4584L240.182 81.2324ZM196.887 137.003L195.709 138.619L197.277 139.762L198.467 138.229L196.887 137.003ZM229.855 161.086L228.675 162.701L230.313 163.898L231.487 162.242L229.855 161.086ZM243.124 142.362L241.493 141.204L241.492 141.206L243.124 142.362ZM270.789 103.395L272.42 104.553L272.421 104.552L270.789 103.395ZM302.41 58.8021L300.791 57.6273L300.784 57.6362L300.778 57.6452L302.41 58.8021ZM301.588 57.5029L300.693 55.7142L301.925 59.4742L301.588 57.5029ZM212.411 139.076L213.627 137.488L213.602 137.469L213.576 137.45L212.411 139.076ZM212.153 137.49L213.764 138.675L213.772 138.664L213.78 138.653L212.153 137.49ZM272.002 54.2227L270.43 52.9871L270.42 52.999L270.411 53.011L272.002 54.2227ZM273.712 55.7227L275.287 56.9557L275.296 56.9443L275.305 56.9329L273.712 55.7227ZM214.016 138.818L215.613 140.022L215.629 140.001L215.645 139.978L214.016 138.818ZM288.002 64.7227L289.589 65.9404L289.594 65.934L289.599 65.9275L288.002 64.7227ZM227.839 148.485L229.41 149.724L229.443 149.681L229.474 149.637L227.839 148.485ZM226.225 148.743L225.059 150.369L225.067 150.375L225.076 150.38L226.225 148.743ZM225.967 147.138L224.345 145.968L224.34 145.975L224.335 145.982L225.967 147.138ZM286.502 63.2227L284.935 61.9806L284.923 61.9957L284.911 62.011L286.502 63.2227ZM288.002 63.2227L286.768 64.7964L286.783 64.8079L286.798 64.8191L288.002 63.2227ZM301.262 55.5233L292.645 57.0327L293.335 60.9727L301.952 59.4633L301.262 55.5233ZM292.648 57.0323C293.311 56.917 293.876 57.3702 293.987 57.9226L290.064 58.7071C290.366 60.2149 291.791 61.2413 293.333 60.9731L292.648 57.0323ZM293.99 57.9418L292.022 47.5768L288.093 48.323L290.061 58.6879L293.99 57.9418ZM292.016 47.542C291.705 46.0496 290.286 45.0493 288.757 45.3095L289.428 49.2528C288.797 49.3603 288.219 48.9331 288.1 48.3578L292.016 47.542ZM288.756 45.3098L276.633 47.3828L277.307 51.3256L289.43 49.2526L288.756 45.3098ZM276.585 47.3916C277.302 47.251 277.937 47.7793 277.989 48.4527L274.002 48.7654C274.131 50.4132 275.663 51.6485 277.355 51.3168L276.585 47.3916ZM277.99 48.4552L277.206 38.3004L273.218 38.6081L274.002 48.7629L277.99 48.4552ZM277.207 38.3047C277.008 35.661 273.704 34.7767 272.136 36.7835L275.288 39.2461C274.676 40.0301 273.302 39.719 273.218 38.6038L277.207 38.3047ZM272.132 36.7888L238.601 80.0065L241.762 82.4584L275.293 39.2408L272.132 36.7888ZM238.602 80.0053C238.388 80.2811 238.256 80.4512 238.182 80.546C238.145 80.5938 238.123 80.6213 238.114 80.6335C238.111 80.6367 238.111 80.6375 238.111 80.6371C238.111 80.6369 238.112 80.6359 238.112 80.6354C238.113 80.6345 238.115 80.6318 238.116 80.6302C238.119 80.6272 238.127 80.617 238.133 80.6098C238.161 80.5764 240.899 80.2856 241.357 82.9683C241.326 83.0146 241.287 83.0683 241.281 83.0764C241.278 83.0797 241.274 83.0849 241.273 83.0865C241.272 83.0875 241.271 83.0893 241.271 83.0898C241.271 83.0901 241.27 83.0908 241.27 83.0908C241.27 83.0908 241.271 83.0897 241.273 83.0869C241.31 83.0385 241.488 82.8098 241.621 82.6386C241.687 82.5531 241.741 82.4841 241.759 82.4605C241.761 82.4576 241.763 82.456 241.763 82.4554C241.764 82.4549 241.763 82.4558 241.762 82.4573C241.761 82.4583 241.758 82.4618 241.756 82.4641C241.751 82.4709 241.521 82.7138 241.262 82.9103C238.723 82.5845 238.59 80.0207 238.596 80.0124C238.598 80.0098 238.601 80.006 238.602 80.0049C238.603 80.0033 238.604 80.0023 238.603 80.0029C238.603 80.0036 238.601 80.0054 238.599 80.0088C238.588 80.0222 238.566 80.0507 238.529 80.0989C238.38 80.291 237.996 80.785 237.191 81.8225C233.971 85.9719 224.005 98.811 195.308 135.776L198.467 138.229C227.164 101.264 237.131 88.4246 240.351 84.275C241.156 83.2376 241.54 82.743 241.69 82.5504C241.727 82.5024 241.75 82.4725 241.761 82.4576C241.764 82.4539 241.767 82.4506 241.769 82.4478C241.77 82.4467 241.772 82.4445 241.773 82.442C241.775 82.4405 241.778 82.4364 241.78 82.4336C241.786 82.4251 241.653 79.8612 239.114 79.5354C238.855 79.7319 238.625 79.9749 238.62 79.9819C238.618 79.9845 238.615 79.9883 238.613 79.9897C238.612 79.992 238.61 79.9941 238.609 79.9952C238.607 79.9978 238.605 80.0009 238.602 80.0042C238.582 80.0298 238.527 80.1007 238.461 80.1855C238.33 80.3547 238.149 80.5879 238.108 80.6405C238.106 80.6439 238.103 80.6477 238.1 80.6511C238.099 80.6526 238.097 80.6557 238.094 80.6593C238.092 80.6614 238.088 80.6669 238.085 80.6705C238.079 80.6788 238.04 80.7326 238.009 80.7791C238.467 83.4618 241.205 83.1709 241.233 83.1373C241.239 83.1301 241.248 83.1195 241.25 83.1161C241.254 83.1112 241.257 83.107 241.258 83.1058C241.261 83.1021 241.264 83.098 241.267 83.0943C241.279 83.0791 241.303 83.0491 241.339 83.0018C241.414 82.9062 241.546 82.7355 241.761 82.4596L238.602 80.0053ZM198.066 135.387C198.05 135.375 198.037 135.366 198.029 135.36C198.024 135.356 198.02 135.354 198.017 135.351C198.016 135.35 198.013 135.348 198.01 135.346C198.008 135.344 198.002 135.34 197.998 135.338C197.986 135.329 195.393 135.587 195.248 138.179C195.423 138.38 195.632 138.562 195.641 138.569C195.645 138.572 195.649 138.575 195.651 138.577C195.654 138.579 195.657 138.581 195.658 138.582C195.662 138.584 195.666 138.587 195.67 138.59C195.678 138.596 195.691 138.605 195.706 138.617C195.769 138.663 195.894 138.754 196.076 138.887C196.44 139.153 197.037 139.589 197.839 140.175C199.444 141.347 201.87 143.119 204.905 145.336C210.973 149.768 219.471 155.975 228.675 162.701L231.035 159.471C221.83 152.745 213.333 146.538 207.264 142.106C204.23 139.89 201.803 138.117 200.198 136.945C199.396 136.359 198.799 135.923 198.435 135.657C198.253 135.524 198.13 135.434 198.068 135.388C198.052 135.377 198.041 135.369 198.034 135.363C198.03 135.361 198.028 135.359 198.027 135.359C198.027 135.358 198.028 135.359 198.03 135.361C198.031 135.362 198.036 135.365 198.039 135.367C198.047 135.374 198.257 135.556 198.432 135.758C198.287 138.349 195.693 138.607 195.682 138.599C195.678 138.596 195.673 138.592 195.671 138.591C195.669 138.59 195.668 138.589 195.668 138.589C195.669 138.59 195.671 138.591 195.675 138.594C195.682 138.599 195.693 138.607 195.709 138.619L198.066 135.387ZM231.487 162.242L244.756 143.518L241.492 141.206L228.223 159.929L231.487 162.242ZM244.755 143.52L272.42 104.553L269.158 102.238L241.493 141.204L244.755 143.52ZM272.421 104.552L304.041 59.9589L300.778 57.6452L269.158 102.238L272.421 104.552ZM304.028 59.9769C305.543 57.8897 303.691 55.1141 301.251 55.5315L301.925 59.4742C300.937 59.6433 300.136 58.5299 300.791 57.6273L304.028 59.9769ZM302.483 59.2915L302.502 59.282L300.712 55.7047L300.693 55.7142L302.483 59.2915ZM213.576 137.45C213.953 137.72 214.068 138.262 213.764 138.675L210.542 136.305C209.493 137.73 209.856 139.705 211.246 140.701L213.576 137.45ZM213.78 138.653C215.001 136.946 229.725 116.442 244.264 96.2065C251.534 86.0896 258.756 76.0409 264.22 68.444C266.952 64.6454 269.244 61.4602 270.882 59.186C271.702 58.0488 272.357 57.1401 272.822 56.4966C273.055 56.1747 273.239 55.9201 273.372 55.7369C273.439 55.6452 273.492 55.5726 273.531 55.519C273.551 55.4921 273.566 55.4712 273.578 55.4555C273.591 55.4383 273.595 55.4328 273.594 55.4344L270.411 53.011C269.442 54.2844 212.955 132.93 210.526 136.327L213.78 138.653ZM273.575 55.4584C273.484 55.5737 273.235 55.768 272.862 55.7803C272.544 55.7908 272.33 55.6625 272.223 55.5676C272.114 55.4708 272.015 55.322 271.984 55.1139C271.946 54.8672 272.022 54.6418 272.12 54.5126L275.305 56.9329C276.504 55.3552 275.937 53.5185 274.882 52.5795C274.353 52.1083 273.6 51.7538 272.73 51.7825C271.806 51.8129 270.993 52.2699 270.43 52.9871L273.575 55.4584ZM272.138 54.4898C271.136 55.7689 212.955 136.86 212.387 137.657L215.645 139.978C215.938 139.567 230.618 119.106 245.349 98.5871C252.714 88.3293 260.09 78.0593 265.685 70.2768C268.483 66.3855 270.835 63.1166 272.517 60.7824C273.358 59.6151 274.032 58.6825 274.509 58.0229C274.748 57.693 274.937 57.4328 275.073 57.2463C275.142 57.1529 275.195 57.0799 275.234 57.0266C275.28 56.9654 275.292 56.9492 275.287 56.9557L272.138 54.4898ZM212.419 137.613C212.556 137.432 212.76 137.325 212.962 137.298C213.143 137.273 213.39 137.306 213.627 137.488L211.195 140.663C212.519 141.678 214.528 141.459 215.613 140.022L212.419 137.613ZM286.416 63.5051C285.44 64.7765 226.789 146.503 226.204 147.333L229.474 149.637C229.474 149.637 229.474 149.637 229.475 149.635C229.477 149.634 229.478 149.632 229.479 149.63C229.483 149.625 229.487 149.619 229.492 149.611C229.503 149.596 229.518 149.576 229.536 149.55C229.573 149.499 229.623 149.428 229.687 149.339C229.815 149.16 229.997 148.907 230.228 148.585C230.689 147.94 231.35 147.019 232.181 145.861C233.842 143.545 236.184 140.28 238.981 136.382C244.576 128.586 251.989 118.258 259.413 107.917C266.837 97.5767 274.272 87.224 279.91 79.3796C282.729 75.4573 285.099 72.1625 286.793 69.81C287.64 68.6336 288.318 67.6936 288.798 67.0288C289.039 66.6962 289.229 66.4336 289.366 66.2452C289.435 66.1508 289.489 66.0765 289.529 66.0219C289.573 65.961 289.59 65.9396 289.589 65.9404L286.416 63.5051ZM226.269 147.247C226.363 147.127 226.524 147.012 226.744 146.974C226.979 146.933 227.211 146.992 227.373 147.106L225.076 150.38C226.571 151.43 228.425 150.973 229.41 149.724L226.269 147.247ZM227.39 147.118C227.787 147.402 227.856 147.932 227.598 148.295L224.335 145.982C223.332 147.396 223.65 149.358 225.059 150.369L227.39 147.118ZM227.588 148.309C228.816 146.608 243.715 125.938 258.423 105.541C265.777 95.3414 273.084 85.2099 278.612 77.5506C281.376 73.7209 283.694 70.5097 285.351 68.2172C286.18 67.0709 286.843 66.1549 287.313 65.5064C287.548 65.182 287.734 64.9255 287.869 64.7409C287.936 64.6485 287.99 64.5753 288.03 64.5211C288.049 64.494 288.065 64.4728 288.077 64.4568C288.09 64.4394 288.094 64.4334 288.094 64.4344L284.911 62.011C283.945 63.28 226.779 142.597 224.345 145.968L227.588 148.309ZM288.07 64.4649C287.987 64.5697 287.847 64.6959 287.645 64.785C287.446 64.8732 287.253 64.895 287.103 64.8861C286.836 64.8704 286.731 64.767 286.768 64.7964L289.237 61.649C288.787 61.2964 288.133 60.9398 287.338 60.893C286.438 60.8401 285.55 61.2041 284.935 61.9806L288.07 64.4649ZM286.798 64.8191C286.681 64.7308 286.543 64.5824 286.446 64.3684C286.351 64.1576 286.33 63.9579 286.339 63.8087C286.354 63.5485 286.452 63.4565 286.406 63.5179L289.599 65.9275C289.935 65.4826 290.286 64.8317 290.332 64.0436C290.385 63.1412 290.017 62.2377 289.207 61.6263L286.798 64.8191Z" fill="black" mask="url(#path-19-inside-1_280_9785)"/>
<path d="M549.553 167.434C554.289 157.458 549.961 153.91 541.325 161.277C534.324 152.593 529.396 155.262 532.357 166.31C530.974 166.483 529.68 166.725 528.517 167.037C525.065 167.961 523.108 169.4 523.005 171.086C522.839 173.768 527.212 175.612 529.744 176.431C524.886 186.818 530.011 190.071 539.413 181.201C546.925 191.875 553.102 190.137 549.765 177.906C560.773 176.157 560.788 170.382 549.553 167.434ZM548.807 157.973C549.327 157.973 549.762 158.102 550.094 158.363C551.555 159.516 550.974 163.014 548.931 167.276C547.671 166.97 546.316 166.71 544.881 166.506C543.87 164.767 542.797 163.164 541.706 161.76C543.445 160.275 546.536 157.973 548.807 157.973ZM541.892 177.731C540.516 177.693 539.148 177.598 537.749 177.444C536.365 175.064 535.158 172.525 534.226 170.086C535.064 168.907 535.916 167.805 536.914 166.626C539.486 166.586 542.005 166.74 544.505 167.086C545.325 168.516 546.028 169.888 546.684 171.318C545.254 173.593 543.626 175.754 541.892 177.731ZM546.987 172.002C547.799 173.842 548.476 175.658 548.983 177.378C547.077 177.64 544.945 177.773 542.691 177.747C544.28 175.897 545.737 173.939 546.985 172.002H546.987ZM541.36 178.328C540.749 179.003 540.133 179.646 539.514 180.248C539.052 179.568 538.591 178.853 538.142 178.106C539.584 178.252 540.447 178.292 541.36 178.328ZM536.988 177.353C534.688 177.064 532.528 176.623 530.62 176.059C531.466 174.348 532.54 172.523 533.807 170.685C534.718 173.013 535.771 175.207 536.986 177.355L536.988 177.353ZM533.972 169.382C533.658 168.519 533.376 167.67 533.137 166.843C534.087 166.742 535.078 166.675 536.098 166.641C535.307 167.597 534.653 168.445 533.972 169.382ZM537.456 165.995C538.704 164.569 539.98 163.278 541.242 162.163C542.223 163.427 543.188 164.856 544.107 166.402C541.89 166.122 539.64 165.985 537.456 165.995ZM545.276 167.196C546.455 167.381 547.585 167.601 548.645 167.858C548.183 168.778 547.654 169.728 547.068 170.694C546.579 169.649 546.068 168.607 545.276 167.196ZM532.273 162.995C531.917 160.571 531.853 156.731 534.264 156.731C536.519 156.731 539.431 159.906 540.858 161.678C539.448 162.925 538.02 164.387 536.632 166.004C535.363 166.031 534.138 166.111 532.968 166.236C532.662 165.105 532.421 164.014 532.271 162.995H532.273ZM528.204 175.217C520.254 171.981 523.232 168.05 532.521 166.911C532.807 167.909 533.147 168.938 533.54 169.985C532.111 172.013 530.923 174.006 530.009 175.867C529.376 175.663 528.772 175.447 528.204 175.217ZM535.215 183.817C532.519 185.63 530.355 186.183 529.278 185.333C527.84 184.199 528.379 180.79 530.348 176.618C532.44 177.245 534.829 177.722 537.373 178.02C537.924 178.961 538.488 179.853 539.057 180.688C537.756 181.921 536.459 182.98 535.217 183.817H535.215ZM547.878 187.637C545.872 187.637 542.808 184.94 539.868 180.758C540.636 180.011 541.404 179.205 542.161 178.351C544.515 178.408 546.837 178.317 549.153 177.994C550.034 181.195 551.108 187.637 547.878 187.637ZM549.593 177.287C549.04 175.397 548.292 173.397 547.38 171.375C548.096 170.223 548.728 169.095 549.267 168.012C554.189 169.287 557.501 171.268 557.381 173.24C557.268 175.091 554.148 176.574 549.593 177.287Z" fill="black"/>
<path d="M531.699 163.332C532.559 163.332 533.256 162.627 533.256 161.758C533.256 160.888 532.559 160.184 531.699 160.184C530.839 160.184 530.143 160.888 530.143 161.758C530.143 162.627 530.839 163.332 531.699 163.332Z" fill="#FADF4F"/>
<path d="M545.267 188.141C546.201 188.141 546.957 187.376 546.957 186.432C546.957 185.488 546.201 184.723 545.267 184.723C544.334 184.723 543.577 185.488 543.577 186.432C543.577 187.376 544.334 188.141 545.267 188.141Z" fill="#FADF4F"/>
<path d="M550.139 166.375C551.173 166.375 552.011 165.527 552.011 164.482C552.011 163.436 551.173 162.588 550.139 162.588C549.105 162.588 548.267 163.436 548.267 164.482C548.267 165.527 549.105 166.375 550.139 166.375Z" fill="#87AB99"/>
<path d="M533.907 186.202C534.811 186.202 535.544 185.461 535.544 184.546C535.544 183.632 534.811 182.891 533.907 182.891C533.003 182.891 532.27 183.632 532.27 184.546C532.27 185.461 533.003 186.202 533.907 186.202Z" fill="#87AB99"/>
<path d="M141.081 253.365C148.764 237.179 141.743 231.423 127.731 243.375C116.372 229.286 108.378 233.616 113.182 251.542C110.937 251.822 108.838 252.214 106.95 252.72C101.35 254.219 98.1752 256.554 98.0074 259.289C97.739 263.641 104.834 266.633 108.942 267.962C101.061 284.814 109.375 290.091 124.629 275.701C136.817 293.018 146.839 290.199 141.426 270.356C159.284 267.518 159.308 258.148 141.081 253.365ZM139.87 238.014C140.715 238.014 141.419 238.224 141.959 238.647C144.329 240.519 143.387 246.194 140.071 253.109C138.028 252.612 135.829 252.189 133.501 251.859C131.86 249.037 130.119 246.437 128.35 244.158C131.171 241.749 136.185 238.014 139.87 238.014ZM128.652 270.072C126.419 270.01 124.199 269.856 121.929 269.606C119.684 265.745 117.726 261.624 116.213 257.667C117.574 255.755 118.955 253.966 120.575 252.054C124.748 251.989 128.835 252.239 132.891 252.8C134.221 255.12 135.362 257.346 136.426 259.666C134.105 263.357 131.464 266.864 128.652 270.072ZM136.917 260.776C138.235 263.761 139.333 266.707 140.157 269.498C137.064 269.924 133.605 270.14 129.948 270.096C132.525 267.096 134.889 263.919 136.914 260.776H136.917ZM127.789 271.04C126.797 272.135 125.797 273.178 124.793 274.155C124.043 273.051 123.296 271.891 122.567 270.679C124.906 270.917 126.306 270.982 127.789 271.04ZM120.694 269.458C116.964 268.989 113.459 268.274 110.363 267.358C111.736 264.582 113.477 261.621 115.533 258.639C117.013 262.417 118.721 265.976 120.691 269.461L120.694 269.458ZM115.802 256.526C115.292 255.126 114.835 253.747 114.447 252.405C115.988 252.242 117.595 252.134 119.251 252.078C117.967 253.63 116.906 255.005 115.802 256.526ZM121.453 251.03C123.479 248.717 125.55 246.622 127.596 244.812C129.189 246.863 130.753 249.182 132.245 251.69C128.649 251.236 124.998 251.014 121.453 251.03ZM134.142 252.979C136.054 253.278 137.887 253.636 139.608 254.052C138.857 255.545 138 257.087 137.049 258.654C136.256 256.958 135.426 255.268 134.142 252.979ZM113.044 246.163C112.468 242.231 112.364 236 116.274 236C119.935 236 124.659 241.151 126.974 244.026C124.687 246.049 122.369 248.421 120.118 251.045C118.059 251.088 116.07 251.218 114.173 251.422C113.676 249.586 113.285 247.816 113.041 246.163H113.044ZM106.444 265.991C93.5451 260.742 98.3765 254.364 113.447 252.516C113.911 254.136 114.463 255.804 115.1 257.504C112.782 260.794 110.854 264.027 109.372 267.046C108.344 266.716 107.365 266.365 106.444 265.991ZM117.818 279.944C113.444 282.887 109.933 283.784 108.186 282.406C105.852 280.564 106.728 275.034 109.921 268.264C113.316 269.282 117.193 270.056 121.319 270.541C122.213 272.067 123.128 273.514 124.052 274.868C121.942 276.869 119.837 278.587 117.821 279.944H117.818ZM138.363 286.144C135.109 286.144 130.137 281.767 125.367 274.982C126.614 273.77 127.859 272.462 129.088 271.077C132.907 271.17 136.673 271.022 140.431 270.497C141.862 275.691 143.603 286.144 138.363 286.144ZM141.145 269.35C140.248 266.284 139.034 263.04 137.555 259.758C138.717 257.889 139.742 256.06 140.617 254.302C148.602 256.372 153.977 259.585 153.781 262.784C153.598 265.788 148.535 268.194 141.145 269.35Z" fill="black"/>
<path d="M112.114 246.709C113.509 246.709 114.64 245.565 114.64 244.155C114.64 242.745 113.509 241.601 112.114 241.601C110.72 241.601 109.589 242.745 109.589 244.155C109.589 245.565 110.72 246.709 112.114 246.709Z" fill="#FADF4F"/>
<path d="M134.128 286.961C135.642 286.961 136.87 285.72 136.87 284.188C136.87 282.657 135.642 281.416 134.128 281.416C132.613 281.416 131.386 282.657 131.386 284.188C131.386 285.72 132.613 286.961 134.128 286.961Z" fill="#FADF4F"/>
<path d="M142.032 251.647C143.71 251.647 145.07 250.271 145.07 248.575C145.07 246.878 143.71 245.503 142.032 245.503C140.354 245.503 138.994 246.878 138.994 248.575C138.994 250.271 140.354 251.647 142.032 251.647Z" fill="#87AB99"/>
<path d="M115.696 283.815C117.163 283.815 118.352 282.612 118.352 281.128C118.352 279.645 117.163 278.442 115.696 278.442C114.228 278.442 113.039 279.645 113.039 281.128C113.039 282.612 114.228 283.815 115.696 283.815Z" fill="#87AB99"/>
</g>
</svg>
