<svg width="91" height="75" viewBox="0 0 91 75" fill="none" xmlns="http://www.w3.org/2000/svg">
<path d="M8.94662 56.1957C7.97538 56.6572 7.00599 57.1242 6.04032 57.5978C5.77476 57.7278 5.5027 57.8643 5.30864 58.0871C5.1155 58.31 5.01893 58.6452 5.15636 58.907C5.33092 59.2394 5.76826 59.3081 6.14246 59.3397C8.29944 59.5263 10.4564 59.8485 12.5159 60.5162C13.6385 60.8801 14.788 61.3927 15.4593 62.363C16.1297 63.3333 16.0935 64.8719 15.1056 65.5163C14.7314 65.7605 14.2764 65.8496 13.8827 66.0613C13.489 66.274 13.1389 66.6974 13.2467 67.131C13.3785 67.6593 14.0452 67.8116 14.5875 67.8562C18.4241 68.1738 22.2887 68.1608 26.1226 67.8153C28.313 67.6185 30.5647 67.3186 32.6752 67.9351C33.3689 68.1375 34.0829 68.482 34.4153 69.1227C34.9427 70.1404 34.2918 71.3475 33.6595 72.3039C33.2946 72.4274 33.2537 73.0755 33.5258 73.3485C33.7978 73.6214 34.2138 73.6762 34.5973 73.7059C36.9075 73.8842 39.2455 73.692 41.4954 73.1377C42.2011 72.964 43.0516 72.5518 43.007 71.8266C42.9782 71.3605 42.5715 71.0169 42.384 70.5889C42.0757 69.8832 42.4397 69.0122 43.0702 68.5693C43.7006 68.1264 44.5233 68.0465 45.2866 68.145C46.0507 68.2434 46.7824 68.5025 47.5308 68.6835C49.7509 69.223 52.1354 69.067 54.2664 68.2434C54.9359 67.9843 55.6081 67.6389 56.0241 67.053C56.4401 66.4671 56.5134 65.5878 56.0213 65.065C55.3918 64.3965 54.258 64.6175 53.4586 64.1644C52.5152 63.6295 52.3369 62.2376 52.8782 61.2989C53.4196 60.3602 54.4762 59.8272 55.5311 59.5793C57.494 59.1178 59.6686 59.7594 61.6816 59.6424C63.3781 59.544 64.9807 58.8634 66.6409 58.504C69.277 57.9339 72.0106 58.1809 74.7071 58.2273C77.4045 58.2737 80.217 58.0853 82.5643 56.7565C83.2644 56.36 83.9441 55.8215 84.2032 55.0601C84.6257 53.8187 83.7463 52.4574 82.6145 51.7972C81.4826 51.1361 80.1418 50.9653 78.879 50.6134C78.4342 50.4899 77.9467 50.2995 77.7647 49.8752C77.5809 49.4443 77.8047 48.9262 78.1659 48.6272C78.5271 48.3282 78.995 48.1992 79.4472 48.0775C81.2217 47.6003 83.0379 47.2317 84.8485 46.9215C85.7139 46.7739 86.6155 46.6105 87.3165 46.0831C88.0176 45.5557 88.4382 44.5426 88.0167 43.7738C87.675 43.1508 86.9247 42.888 86.2292 42.7413C85.0166 42.4859 83.7621 42.4265 82.53 42.5649C72.1778 43.7274 61.2619 44.1694 50.8819 45.0561C45.9551 45.4767 41.0088 45.9503 36.2148 47.162C33.2667 47.9076 30.3957 48.9271 27.5303 49.9457C21.9665 51.9226 16.4027 53.9004 10.839 55.8772" fill="#B3DFF6"/>
<path d="M65.3296 47.8834C66.9861 48.0784 68.6417 48.2725 70.2982 48.4674C69.2796 49.1053 69.301 50.9503 70.5666 51.383C70.8943 51.4954 71.1748 51.7229 71.3103 52.0414C71.6641 52.8705 70.9296 53.2095 70.3279 53.3775C67.755 54.0934 65.0817 54.4481 62.4113 54.4277C61.1178 54.4175 59.752 54.3367 58.6099 54.9421C57.5012 55.5299 56.7834 56.6784 55.7008 57.3117C53.9254 58.3498 51.4787 57.84 49.8612 59.1093C48.9522 59.8234 48.4174 61.0305 47.3366 61.44C46.6615 61.6962 45.8806 61.5876 45.226 61.8931C44.407 62.2747 44.0041 63.1819 43.5231 63.9479C43.0421 64.713 42.2111 65.4614 41.342 65.2154C40.2574 64.908 39.9612 63.2868 38.8656 63.0212C37.7179 62.7436 36.8989 64.129 35.807 64.5765C34.1793 65.2451 32.1346 63.7344 30.6453 64.6712C29.0621 63.7074 27.0732 64.2646 25.3471 64.9387C23.7946 65.545 21.3228 66.2349 19.5651 65.9303C19.138 65.8561 18.9643 65.3398 19.268 65.0306C19.4156 64.8792 19.606 64.7576 19.7982 64.6805C20.2587 64.4958 21.7527 64.4475 22.1631 64.1689C23.1065 63.5292 22.931 61.9785 22.1139 61.1846C21.2968 60.3907 20.1046 60.1521 18.9829 59.9487L13.8695 59.0221C13.5566 58.9654 13.2687 58.8001 13.083 58.5411C12.6698 57.9645 13.0672 57.4101 13.4674 57.0034C15.084 55.3599 17.2493 54.3423 19.4778 53.7499C21.7063 53.1575 24.0174 52.9606 26.3137 52.7489C30.4791 52.3663 34.6389 51.929 38.7922 51.4378C40.5796 51.2261 42.3921 50.9986 44.0514 50.3013C46.7702 49.1592 48.8148 46.8834 51.1194 45.043C53.424 43.2027 56.4269 41.7161 59.2487 42.5731" fill="#81C9F0"/>
<path d="M43.1341 23.4755C38.0439 21.4643 32.7792 19.3854 31.2471 18.6908C31.1366 18.6416 30.9862 18.6555 30.7977 18.7335C29.6351 19.2145 27.078 20.0669 24.9312 20.7707C24.4734 20.9212 24.0342 21.0641 23.6313 21.196C23.0138 21.3975 22.4177 21.5916 22.0063 21.729C22.0416 21.767 22.0741 21.8079 22.1103 21.8441C22.1103 21.8441 22.2366 21.9778 22.4102 22.1385C22.582 22.3019 22.8086 22.482 22.9683 22.6417C22.7436 22.6213 22.4548 22.4941 22.244 22.3483C22.0314 22.2062 21.8921 22.0586 21.8921 22.0586C21.8216 21.988 21.7556 21.9128 21.6916 21.8348C21.6303 21.8562 21.5792 21.8748 21.5411 21.8878L21.1855 22.2378L21.3666 22.3873C21.3666 22.3873 21.7909 22.7383 21.8308 23.1682C21.4019 23.21 20.9766 22.859 20.9766 22.859L20.7101 22.6389C20.6637 22.6547 20.6145 22.6649 20.5643 22.6649H20.0592C16.4825 24.6176 11.5371 27.3252 9.4043 28.5054C9.41358 28.5945 9.43865 28.6818 9.47765 28.7635C10.8574 29.3225 13.2809 30.303 15.9217 31.3681C16.6301 31.6531 17.3544 31.9456 18.0814 32.2381C18.2421 32.3022 18.4027 32.3672 18.5633 32.4312C19.1966 32.6857 19.8289 32.9401 20.4501 33.1889C20.5485 33.2288 20.7017 33.2353 20.8652 33.2428C21.0824 33.253 21.3294 33.2641 21.5653 33.3588C21.9636 33.5176 22.3081 33.7321 22.6414 33.9392C22.9339 34.1212 23.2106 34.2929 23.4883 34.4034C26.155 35.4657 27.3621 35.9327 27.8997 36.1333C28.0149 36.1342 28.13 36.1435 28.2331 36.1444C28.3993 36.1463 28.5664 36.1472 28.7335 36.1491C29.5859 35.9179 31.7281 35.2261 37.0783 33.2586C37.2482 33.1954 37.4265 33.0821 37.614 32.9605L37.3355 32.5575C37.3355 32.5575 36.7765 31.7488 36.718 31.1285C37.2788 31.4006 37.8387 32.2093 37.8387 32.2093L38.1396 32.6448C38.2259 32.6002 38.3132 32.5584 38.407 32.5241C38.6744 32.4247 38.9381 32.3959 39.1934 32.3681C39.4052 32.3449 39.6048 32.3226 39.771 32.2604C40.1693 32.1127 40.5686 31.9633 40.9679 31.8138C45.3106 30.1879 49.6775 28.5147 52.0239 27.6112C52.1678 27.4757 52.2532 27.3095 52.2885 27.1247C50.3052 26.3085 46.5558 24.8275 43.1341 23.4755ZM30.7568 20.0595C30.7475 20.066 30.7429 20.0697 30.7392 20.0715L30.7373 20.0734C30.7234 20.0845 30.7104 20.0966 30.6974 20.1087C30.6881 20.1189 30.6779 20.1291 30.6686 20.1393C30.6667 20.1412 30.6602 20.1495 30.6575 20.1523C30.6398 20.1774 30.6231 20.2034 30.6092 20.2313C30.6082 20.234 30.598 20.2554 30.5971 20.2582C30.5925 20.2693 30.5887 20.2805 30.585 20.2916C30.5525 20.3937 30.4495 20.4587 30.3436 20.429C30.2443 20.4021 30.1737 20.2888 30.2062 20.1876C30.2684 19.9926 30.3891 19.8348 30.559 19.7206C30.6472 19.6602 30.7763 19.7039 30.8274 19.7911C30.884 19.8868 30.845 20.001 30.7568 20.0595ZM31.4439 20.7419C31.1904 20.7419 31.1914 20.3492 31.4439 20.3492C31.6965 20.3492 31.6974 20.7419 31.4439 20.7419Z" fill="#D1ECFA"/>
<path d="M56.3066 11.8813L52.0428 10.6575L51.4086 10.7754C51.3102 10.794 51.208 10.7791 51.1189 10.7346L49.5172 9.93232L46.3565 9.02515C46.3212 9.01493 46.2877 9.00008 46.2562 8.98244L45.3657 8.47731L44.1995 8.3956C44.1679 8.39282 44.1363 8.38725 44.1057 8.37889L40.3275 7.29436C40.1548 7.24422 39.9728 7.24887 39.802 7.30644L38.1343 7.87191L33.6969 9.37706C33.7823 9.42999 33.8835 9.5117 33.9346 9.61941C33.7247 9.70019 33.448 9.58969 33.448 9.58969L33.2753 9.52006L32.487 9.78747C32.7043 9.86733 33.2725 10.0883 33.5836 10.3242C33.0942 10.3186 32.2985 10.0456 32.2985 10.0456L32.0144 9.94811L26.2129 11.9157C26.2844 12.0057 26.3661 12.1079 26.4302 12.2109L33.7312 14.2714C33.7516 14.2769 33.7721 14.2844 33.7925 14.2936L34.5149 14.6131L35.2039 14.6929C35.228 14.6957 35.2521 14.7003 35.2763 14.7068L41.88 16.5704L48.4057 14.5295L49.104 14.12C49.169 14.0819 49.2414 14.0596 49.3166 14.0569L50.0158 14.0262L51.7002 13.4997L52.0205 13.3995C52.0335 13.3957 52.0465 13.393 52.0595 13.3892L53.1199 13.1664L53.4532 12.9649C53.4848 12.9463 53.5191 12.9306 53.5535 12.9203L56.5359 11.9872C56.4663 11.9426 56.3892 11.9045 56.3066 11.8813ZM40.4009 8.35382C40.6543 8.35382 40.6543 8.74752 40.4009 8.74752C40.1474 8.74752 40.1483 8.35382 40.4009 8.35382ZM39.5039 8.67788C39.568 8.55902 39.7267 8.54603 39.8159 8.63331C39.8781 8.69552 39.9412 8.75773 40.0025 8.81901C40.0666 8.88308 40.0889 8.98336 40.0462 9.06322C39.9821 9.18114 39.8233 9.19414 39.7351 9.10779C39.6729 9.04558 39.6107 8.98429 39.5485 8.92301C39.4835 8.85894 39.4603 8.75866 39.5039 8.67788ZM38.9858 8.55995C39.0081 8.50888 39.0294 8.45782 39.0517 8.40675C39.0935 8.30925 39.2374 8.28789 39.32 8.33618C39.4203 8.39467 39.4324 8.50796 39.3906 8.60545C39.3693 8.65652 39.347 8.70759 39.3256 8.75866C39.2838 8.85615 39.139 8.87751 39.0563 8.82923C38.957 8.77073 38.944 8.65745 38.9858 8.55995Z" fill="#B3DFF6"/>
<path d="M28.3592 53.2076C28.3452 52.8474 28.4669 52.5103 28.5848 52.1844C28.6777 51.9281 28.7659 51.6858 28.7584 51.4991C28.7557 51.4369 28.6572 51.2939 28.5848 51.189C28.4418 50.981 28.2635 50.7219 28.2505 50.3942C28.2004 49.084 28.1493 47.7785 28.1001 46.5231C27.9534 42.8025 27.8225 39.5266 27.7556 37.8729C27.6535 37.6584 27.5792 37.4309 27.53 37.3269C27.4734 37.2081 27.3879 37.0549 27.3257 36.898C26.6785 36.6528 25.4659 36.1793 23.1492 35.2563C22.7963 35.1161 22.4714 34.9146 22.1575 34.7196C21.8446 34.5246 21.5484 34.3408 21.2253 34.2108C21.1324 34.1746 20.9829 34.1672 20.8241 34.1597C20.8102 34.1597 20.7972 34.1588 20.7842 34.1579V34.5209C20.7842 34.5209 20.7842 35.4262 20.4778 35.9258C20.1723 35.4262 20.1723 34.5209 20.1723 34.5209V34.0632C20.151 34.0567 20.1296 34.0492 20.1092 34.0409C19.488 33.792 18.8557 33.5376 18.2215 33.2832C17.8928 33.1513 17.5641 33.0186 17.2363 32.8876C16.6792 32.6629 16.1239 32.4392 15.5798 32.2191C12.8248 31.1086 10.3076 30.09 8.96308 29.5449C8.79501 29.6099 8.63809 29.7018 8.4951 29.8161C8.46724 31.5181 8.51181 35.0372 8.54431 37.5619C8.57867 40.276 8.60002 42.068 8.57866 42.6957C8.96493 43.2603 8.96493 43.4683 8.96493 43.5509C8.96493 43.6484 8.96493 43.8657 8.49603 44.4126C8.66688 47.4869 9.08193 54.5048 9.32149 56.8456C9.4942 57.1381 9.72354 57.3814 10.0021 57.568C10.6874 57.8456 11.718 58.2607 12.8611 58.7147C15.4396 59.7371 18.591 60.9562 19.6477 61.2329V60.076C19.6477 60.076 19.6477 58.3953 19.9532 57.4668C20.2596 58.3953 20.2596 60.076 20.2596 60.076V61.2626C20.3794 61.2951 20.4824 61.3759 20.5437 61.4883L20.683 61.7473C21.6403 62.037 26.1298 63.3945 28.3313 64.0473C28.4641 63.8978 28.5857 63.74 28.7324 63.5988C28.6934 62.2627 28.6117 59.9237 28.4882 56.606C28.4474 55.5178 28.4037 54.3739 28.3592 53.2076ZM9.40877 31.8978C9.43756 31.7808 9.46727 31.6648 9.49605 31.5478C9.52205 31.4447 9.63719 31.3834 9.73747 31.4113C9.84147 31.4391 9.90089 31.5496 9.87489 31.6527C9.84611 31.7697 9.81733 31.8857 9.78761 32.0018C9.76161 32.1058 9.64648 32.1671 9.54619 32.1392C9.4422 32.1114 9.38277 32.0009 9.40877 31.8978ZM9.93154 32.9006C9.93154 33.0102 9.84147 33.0919 9.73469 33.0966C9.62883 33.1021 9.53784 33.0028 9.53784 32.9006V32.8672C9.53784 32.7576 9.62791 32.6759 9.73469 32.6713C9.84054 32.6666 9.93154 32.7651 9.93154 32.8672V32.9006ZM10.6753 31.8338C10.7579 31.9702 10.8396 32.1067 10.9214 32.2432C11.0513 32.4614 10.7115 32.6592 10.5815 32.4419L10.3364 32.0325C10.2055 31.8143 10.5462 31.6165 10.6753 31.8338ZM10.1767 56.3043C10.0885 56.2532 10.0467 56.1232 10.1061 56.035L10.3679 55.6422C10.4264 55.5531 10.5407 55.515 10.6372 55.5717C10.7245 55.6227 10.7663 55.7518 10.7078 55.8409C10.6196 55.9719 10.5323 56.1028 10.445 56.2337C10.3865 56.3219 10.2723 56.3609 10.1767 56.3043ZM10.9687 56.8335C10.8926 56.9106 10.7672 56.9078 10.6901 56.8335L10.6233 56.7695C10.5462 56.6961 10.549 56.5661 10.6233 56.4918C10.6976 56.4176 10.8248 56.4185 10.9019 56.4918L10.9687 56.5559C11.0448 56.6293 11.0421 56.7602 10.9687 56.8335ZM11.3893 56.3637C11.1358 56.3637 11.1368 55.9709 11.3893 55.9709C11.6419 55.9709 11.6428 56.3637 11.3893 56.3637Z" fill="#81C9F0"/>
<path d="M80.7143 21.9103L78.5945 21.5212C78.5285 21.5091 78.4663 21.4831 78.4125 21.4451L76.6938 20.2305L74.0799 19.1386C74.053 19.1275 74.028 19.1135 74.0038 19.0977L72.6992 18.2333L71.5748 18.0754C71.5358 18.0699 71.4977 18.0587 71.4615 18.0439L71.3946 18.016L71.3408 18.0736C71.3408 18.0736 71.3083 18.1089 71.2526 18.1618C71.1124 18.2983 70.8273 18.5545 70.5822 18.6548C70.6843 18.3558 71.0037 17.99 71.0938 17.8906L65.0416 15.3613L60.4807 17.2045C60.4612 17.2119 60.4408 17.2193 60.4203 17.224L58.5363 17.6975L57.9198 18.0634L58.1083 18.2918C58.1083 18.2918 58.6849 18.9882 58.7675 19.5685C58.2132 19.3782 57.6366 18.6808 57.6366 18.6808L57.3868 18.3791L57.0173 18.5982C56.9978 18.6093 56.9773 18.6205 56.956 18.6288L56.5446 18.795C56.5976 18.8814 56.7471 19.1451 56.7424 19.3661C56.4926 19.2667 56.2716 18.9343 56.2716 18.9343L56.2559 18.9111L55.1676 19.3512L53.2047 20.4237C53.1703 20.4432 53.1323 20.4571 53.0942 20.4673L51.3541 20.8917L50.122 21.3894C50.1034 21.4534 50.0978 21.5221 50.1099 21.5964L51.3114 22.134C51.356 22.1545 51.3978 22.1814 51.434 22.2157L52.1777 22.9001L53.1815 22.9985C53.2307 23.0031 53.279 23.0161 53.3245 23.0356L57.2002 24.7729L59.2838 25.2084C59.3469 25.2223 59.4064 25.2483 59.4584 25.2855L61.2783 26.6003L64.8123 28.1834L67.8384 27.2475C67.8662 27.2382 67.895 27.2326 67.9238 27.2298L70.7651 26.915L73.3408 25.59L73.5275 25.4944C73.5516 25.4823 73.5767 25.4721 73.6018 25.4647L76.2471 24.6457L78.1497 23.5955C78.2212 23.5565 78.302 23.537 78.3837 23.5389L79.7096 23.5751L82.0468 22.8527C82.1396 22.7682 82.199 22.6522 82.1972 22.5305L80.7143 21.9103ZM64.3675 16.1979C64.3629 16.0921 64.4613 16.0011 64.5644 16.0011H64.8262C64.9367 16.0011 65.0184 16.0912 65.0231 16.1979C65.0277 16.3047 64.9293 16.3948 64.8262 16.3948H64.5644C64.4539 16.3948 64.3722 16.3047 64.3675 16.1979ZM65.166 16.8832C65.1503 16.963 65.1354 17.0429 65.1206 17.1237C65.0992 17.2314 64.9757 17.2825 64.8782 17.2611C64.7686 17.236 64.7213 17.119 64.7408 17.0188C64.7566 16.9389 64.7714 16.859 64.7872 16.7792C64.8076 16.6706 64.9321 16.6195 65.0286 16.6418C65.1382 16.6668 65.1855 16.7829 65.166 16.8832ZM65.7733 16.7523C65.7027 16.8228 65.5635 16.834 65.4957 16.7523C65.4595 16.7086 65.4223 16.665 65.3861 16.6213C65.3183 16.5396 65.3053 16.4236 65.3861 16.3428C65.4567 16.2731 65.596 16.2611 65.6647 16.3428L65.7733 16.4737C65.842 16.5563 65.8541 16.6715 65.7733 16.7523Z" fill="#D1ECFA"/>
<path d="M64.2553 33.0327L64.3184 28.9667L60.8597 27.417C60.8309 27.404 60.8039 27.3882 60.7789 27.3706L58.9998 26.0864L56.9635 25.6602C56.931 25.6537 56.8995 25.6435 56.8698 25.6296L53.0164 23.9034L51.9346 23.7976C51.8353 23.7883 51.7415 23.7465 51.6681 23.6787L50.8659 22.9405L49.565 22.3574C49.3719 22.5942 49.2372 22.8523 49.1602 23.1188V24.2071C49.2502 24.5181 49.4174 24.8152 49.6606 25.0752C50.0636 25.2359 50.449 25.39 50.8129 25.5367C54.2857 26.9323 54.2922 26.9537 54.3804 27.2174C54.4073 27.2972 54.4881 27.5396 55.0155 38.4823C55.0155 38.5027 55.0155 38.5222 55.0145 38.5427L54.9904 38.8324C55.139 38.98 55.2783 39.1833 55.2783 39.422C55.281 39.5668 55.4185 43.1937 55.567 47.0926L57.5624 47.9097L58.2718 47.8391V47.2105C58.2718 47.2105 58.2718 45.9087 58.5773 45.1891C58.8828 45.9087 58.8828 47.2105 58.8828 47.2105V48.1808L59.2904 48.6172L63.609 50.3861C63.765 50.3062 63.8727 50.1976 63.9907 50.0704L64.2293 34.6957C64.2293 34.6577 64.2349 34.6196 64.2451 34.5834L64.4391 33.8666L64.2674 33.1488C64.2581 33.1117 64.2544 33.0736 64.2553 33.0346V33.0327ZM62.0185 29.3595C62.272 29.3595 62.272 29.7532 62.0185 29.7532C61.765 29.7532 61.765 29.3595 62.0185 29.3595ZM61.9303 30.3363C62.1048 30.249 62.2794 30.1617 62.4549 30.0744C62.6805 29.9612 62.8801 30.301 62.6536 30.4143C62.479 30.5016 62.3045 30.5889 62.129 30.6761C61.9033 30.7894 61.7037 30.4496 61.9303 30.3363ZM62.9693 31.1943C62.9693 31.3048 62.8792 31.3865 62.7724 31.3911C62.6666 31.3957 62.5756 31.2973 62.5756 31.1943V31.0308C62.5756 30.9203 62.6657 30.8386 62.7724 30.834C62.8783 30.8293 62.9693 30.9278 62.9693 31.0308V31.1943Z" fill="#81C9F0"/>
<path d="M82.5723 22.6875C82.5723 22.6875 82.5723 22.6895 82.5723 22.6916L82.5773 22.6895L82.5723 22.6875Z" fill="#81C9F0"/>
<path d="M83.4612 28.8458V24.3805C83.3581 24.0174 83.1789 23.6841 82.7964 23.5801L79.9411 24.4631L79.9077 24.4733C79.8603 24.4882 79.8102 24.4956 79.7601 24.4938L78.6941 24.464L78.4833 24.4585L76.6495 25.4715C76.6263 25.4836 76.6021 25.4947 76.5771 25.5031C76.5724 25.5049 76.5678 25.5059 76.5631 25.5077L75.2446 25.9163L74.1694 26.2487L73.9112 26.3285L72.2315 27.1921V27.4186C72.2315 27.4186 72.2315 27.973 72.0783 28.2784C71.926 27.973 71.926 27.4186 71.926 27.4186V27.349L71.2046 27.7204V28.4372C71.2046 28.4372 71.2046 29.5171 70.8991 30.1142C70.5927 29.5171 70.5927 28.4372 70.5927 28.4372V27.8569L68.0671 28.1364L65.235 29.012L65.1738 32.9898L65.3595 33.7651C65.3771 33.8394 65.3762 33.9174 65.3558 33.9917L65.1459 34.7661L64.9082 50.0989C65.028 50.2521 65.1645 50.3673 65.3335 50.4221L68.0309 49.4898C68.0531 49.4824 68.0764 49.4768 68.0996 49.4722L69.406 49.2382L70.6744 48.5826C70.6948 48.5724 70.7143 48.5631 70.7357 48.5557L71.7673 48.2001C71.7914 48.1917 71.8165 48.1852 71.8415 48.1815L73.1721 47.9596L74.3477 47.3161C74.3699 47.3031 74.3941 47.2929 74.4182 47.2846L76.4758 46.5742L77.3858 46.2595L78.5455 45.8593V45.6039C78.5455 45.6039 78.5455 44.745 78.6978 44.2705C78.851 44.745 78.851 45.6039 78.851 45.6039V45.7543L79.0172 45.6968L79.7684 45.1527V43.992C79.7684 43.992 79.7684 43.732 79.7898 43.3662V43.3643C79.8195 42.8369 79.8938 42.0894 80.0748 41.5834C80.3803 42.4404 80.3803 43.992 80.3803 43.992V44.8147L81.2021 44.7404L81.7815 44.6884L81.9941 44.6689L83.2235 44.2446C83.3656 44.1953 83.4612 44.0616 83.4612 43.9112V38.1367L83.2198 37.3743C83.1956 37.2973 83.1919 37.2156 83.2096 37.1366L83.4612 36.0057V30.4382L83.1993 30.0779C83.1065 29.9507 83.0861 29.7845 83.1446 29.6378L83.4612 28.8458ZM66.9677 31.2999C66.8693 31.3575 66.7606 31.3147 66.6984 31.2293C66.6111 31.1086 66.5238 30.9888 66.4366 30.8691C66.3734 30.7827 66.4217 30.649 66.5071 30.5998C66.6046 30.5422 66.7133 30.584 66.7755 30.6703C66.8628 30.7901 66.951 30.9108 67.0383 31.0306C67.1005 31.117 67.0522 31.2497 66.9677 31.2999ZM67.5239 31.6871C67.5239 31.7976 67.4338 31.8784 67.327 31.8839C67.2212 31.8886 67.1302 31.7902 67.1302 31.6871V31.6546C67.1302 31.5441 67.2202 31.4624 67.327 31.4577C67.4329 31.4531 67.5239 31.5515 67.5239 31.6546V31.6871ZM67.5564 30.999C67.3029 30.999 67.3029 30.6053 67.5564 30.6053C67.8099 30.6053 67.8089 30.999 67.5564 30.999ZM81.8957 42.9752C81.7889 43.004 81.6877 42.9381 81.6533 42.8378C81.6459 42.8155 81.6385 42.7942 81.6311 42.7728C81.5976 42.6716 81.671 42.5574 81.7685 42.5305C81.8753 42.5008 81.9765 42.5676 82.0108 42.6679C82.0183 42.6893 82.0257 42.7115 82.0331 42.7329C82.0665 42.8341 81.9932 42.9483 81.8957 42.9752ZM82.7369 43.0384C82.6497 43.1767 82.5624 43.3151 82.4751 43.4544C82.3405 43.6679 82.0006 43.4702 82.1352 43.2557C82.2225 43.1173 82.3098 42.978 82.3971 42.8397C82.5317 42.6261 82.8716 42.8239 82.7369 43.0384Z" fill="#B3DFF6"/>
<path d="M54.25 39.4009C54.2287 39.3851 54.2092 39.3675 54.1906 39.3489L53.5899 39.4344C53.5899 39.4344 52.4264 39.6006 51.7616 39.5411C52.3828 39.2979 53.5462 39.1317 53.5462 39.1317L54.0588 39.0583C54.0569 39.0351 54.0569 39.0119 54.0588 38.9887L54.0996 38.4947C53.9436 35.2532 53.7143 30.7266 53.5852 28.6123C53.3744 28.4638 53.1488 28.3458 52.9083 28.2539C51.4635 28.8101 48.8627 29.8101 45.8858 30.9392V31.5623C45.8858 31.5623 45.8858 32.6979 45.7326 33.3255C45.5794 32.6979 45.5794 31.5623 45.5794 31.5623V31.0553C44.1978 31.579 42.7427 32.1287 41.2896 32.6719C40.8903 32.8214 40.4901 32.9708 40.0918 33.1194C39.8188 33.2216 39.5402 33.2522 39.2933 33.2791C39.0843 33.3023 38.8875 33.3237 38.7259 33.384C38.5384 33.4537 38.3471 33.5781 38.1447 33.709C37.9116 33.8604 37.6711 34.0164 37.3944 34.1185C32.2875 35.9969 30.0423 36.7398 29.0079 37.0183C28.8993 37.2644 28.7906 37.5104 28.6829 37.7565C28.6783 37.7667 28.6746 37.7779 28.6699 37.789C28.7358 39.4279 28.8686 42.7297 29.0163 46.4856C29.0655 47.741 29.1165 49.0465 29.1676 50.3576C29.1704 50.4198 29.2688 50.5628 29.3403 50.6677C29.4833 50.8757 29.6616 51.1348 29.6746 51.4626C29.6885 51.8284 29.5604 52.1831 29.4471 52.496C29.3552 52.7504 29.2688 52.99 29.2753 53.172C29.3199 54.3382 29.3635 55.4822 29.4035 56.5704C29.5316 60.0013 29.6142 62.3904 29.6514 63.7117C29.6997 63.7405 29.7489 63.7665 29.8009 63.7851C29.9587 63.8408 30.1221 63.8807 30.2865 63.9151C33.4314 62.7916 41.6332 59.8593 42.9489 59.3597L43.4596 58.6512C43.5534 58.5212 43.7038 58.4553 43.8533 58.4628V56.7932C43.8533 56.7932 43.8533 54.3001 44.1588 52.9231C44.4642 54.3011 44.4642 56.7932 44.4642 56.7932V58.5983C44.7614 58.4748 45.1857 58.2984 45.6769 58.0941V57.94C45.6769 57.94 45.6769 57.2194 45.8301 56.822C45.9833 57.2204 45.9833 57.94 45.9833 57.94V57.9669C47.7605 57.2287 50.1431 56.2445 50.4041 56.1572C50.8711 56.0021 51.2462 55.8619 51.327 55.822C51.4682 55.7431 53.4617 54.4942 54.8982 53.5926C54.8127 51.3678 54.3995 40.5764 54.3642 39.5049C54.3327 39.4696 54.2788 39.4232 54.2482 39.4009H54.25ZM29.5232 38.8169C29.4796 38.6312 29.4369 38.4455 29.3932 38.2598C29.3357 38.0128 29.7145 37.9088 29.7721 38.1548C29.8157 38.3405 29.8584 38.5263 29.9021 38.712C29.9597 38.9589 29.5808 39.0629 29.5232 38.8169ZM30.2995 38.6015C30.046 38.6015 30.046 38.2078 30.2995 38.2078C30.553 38.2078 30.553 38.6015 30.2995 38.6015ZM30.6681 37.9868C30.5948 38.0601 30.4629 38.0638 30.3905 37.9868C30.3868 37.9821 30.3524 37.9506 30.3515 37.9478C30.3338 37.9348 30.3153 37.9227 30.2967 37.9125C30.2884 37.9079 30.2791 37.9032 30.2698 37.8986C30.2865 37.9041 30.2828 37.9032 30.2605 37.8949C30.2345 37.8865 30.2094 37.8791 30.1825 37.8735C30.0748 37.8512 30.0228 37.7296 30.0451 37.6321C30.0701 37.5244 30.1862 37.4742 30.2865 37.4947C30.4313 37.5244 30.566 37.6014 30.6681 37.7091C30.7415 37.7862 30.7452 37.9106 30.6681 37.9868ZM52.912 52.7644C52.8127 52.8219 52.7068 52.7783 52.6428 52.6938C52.6103 52.6501 52.5768 52.6065 52.5443 52.5629C52.4803 52.4774 52.5313 52.3428 52.6149 52.2936C52.7142 52.236 52.8201 52.2797 52.8842 52.3642C52.9167 52.4078 52.9501 52.4514 52.9826 52.4951C53.0467 52.5805 52.9956 52.7151 52.912 52.7644ZM53.4766 53.3568C53.3271 53.4775 53.1507 53.4775 53.0002 53.3568C52.9167 53.2899 52.9315 53.1478 53.0002 53.0791C53.0689 53.0104 53.1609 53.0113 53.2379 53.0531C53.315 53.0104 53.4069 53.0104 53.4766 53.0791C53.5462 53.1488 53.5592 53.2908 53.4766 53.3568ZM53.757 52.8247C53.6697 52.6715 53.5824 52.5192 53.4951 52.366C53.3689 52.1459 53.7087 51.9482 53.835 52.1673C53.9223 52.3205 54.0095 52.4728 54.0968 52.626C54.2231 52.8461 53.8833 53.0438 53.757 52.8247Z" fill="#B3DFF6"/>
<path d="M56.438 12.9805L53.8809 13.7799L53.5289 13.9926C53.4844 14.0195 53.4361 14.039 53.385 14.0492L52.2745 14.2823L52.0359 14.3566L50.2336 14.9211C50.1955 14.9322 50.1556 14.9397 50.1166 14.9415L49.4713 14.9694L48.8259 15.3482C48.7962 15.3659 48.7637 15.3798 48.7303 15.3909L46.409 16.1161V16.3343C46.409 16.3343 46.409 16.8515 46.2567 17.1375C46.1035 16.8515 46.1035 16.3343 46.1035 16.3343V16.2118L45.4479 16.417V16.8617C45.4479 16.8617 45.4479 17.4894 45.2947 17.8367C45.1424 17.4894 45.1424 16.8617 45.1424 16.8617V16.5126L42.9539 17.1969C42.7115 17.3826 42.5138 17.6222 42.3457 17.8868V21.7542C42.5184 22.0624 42.7765 22.289 43.0737 22.4654C43.2065 22.5174 43.3392 22.5703 43.4711 22.6223C44.1926 22.9074 44.9029 23.1878 45.5946 23.4608C46.331 23.7524 47.0459 24.0356 47.7303 24.3067C47.9522 24.1721 48.1147 23.9622 48.2447 23.731V21.4682C48.2447 21.2815 48.3579 21.1125 48.5316 21.0429L50.3859 20.2936V20.1534C50.3859 20.1534 50.3859 19.6176 50.5381 19.3223C50.6913 19.6176 50.6913 20.1534 50.6913 20.1534V20.1701L51.0414 20.029C51.0628 20.0206 51.0841 20.0132 51.1064 20.0085L51.177 19.9909C51.1863 19.899 51.2187 19.7346 51.3246 19.6278C51.4082 19.7105 51.4453 19.8293 51.462 19.9212L52.8177 19.5898L54.7435 18.5377C54.7592 18.5303 54.7843 18.5182 54.7992 18.5108L56.4854 17.8293C56.711 17.5888 56.8522 17.3074 56.945 17.0047V13.5692C56.8224 13.337 56.6497 13.1383 56.438 12.9805ZM45.5139 22.7087C45.4071 22.7133 45.317 22.6149 45.317 22.5118V22.4246C45.317 22.3141 45.4071 22.2324 45.5139 22.2277C45.6197 22.2231 45.7107 22.3215 45.7107 22.4246V22.5118C45.7107 22.6223 45.6197 22.7041 45.5139 22.7087ZM54.9162 14.961C54.8744 15.0028 54.8326 15.0437 54.7908 15.0854C54.737 15.1393 54.658 15.1634 54.5856 15.1393C54.437 15.091 54.4101 14.909 54.5067 14.8125L54.6376 14.6815C54.7128 14.6063 54.84 14.6063 54.9162 14.6815C54.9904 14.7567 54.9904 14.8849 54.9162 14.9601V14.961ZM55.2133 15.936C54.9598 15.936 54.9607 15.5423 55.2133 15.5423C55.4659 15.5423 55.4668 15.936 55.2133 15.936ZM55.9078 15.052C55.8521 15.1477 55.7333 15.1699 55.6386 15.1226C55.6098 15.1077 55.5801 15.0938 55.5513 15.0789C55.4556 15.0316 55.4296 14.897 55.4807 14.8097C55.5364 14.714 55.6553 14.6918 55.75 14.7391C55.7788 14.754 55.8085 14.7688 55.8373 14.7827C55.9329 14.831 55.9589 14.9647 55.9078 15.052Z" fill="#81C9F0"/>
<path opacity="0.4" d="M76.2477 24.6453L73.6023 25.4643C73.5772 25.4717 73.5522 25.4819 73.528 25.494L73.3414 25.5897C72.9273 25.2842 72.5001 24.9945 72.0832 24.6955C71.5382 24.3046 70.9653 23.8282 70.8668 23.1653C70.7786 22.5766 71.0925 22.013 71.2949 21.453C71.6747 20.3982 71.6459 19.2097 71.2531 18.1614C71.3088 18.1085 71.3413 18.0732 71.3413 18.0732L71.3952 18.0156L71.462 18.0435C71.4982 18.0583 71.5363 18.0695 71.5753 18.0751L72.6998 18.2329L74.0043 19.0974C74.0285 19.1131 74.0536 19.1271 74.0805 19.1382L76.6943 20.2302L78.413 21.4447C78.4669 21.4828 78.5291 21.5088 78.595 21.5208L80.7148 21.9099L82.1977 22.5301C82.1996 22.6518 82.1401 22.7678 82.0473 22.8523L79.7102 23.5747L78.3842 23.5385C78.3025 23.5367 78.2217 23.5562 78.1502 23.5952L76.2477 24.6453Z" fill="white"/>
<path opacity="0.4" d="M83.1451 29.6378C83.0866 29.7845 83.107 29.9507 83.1999 30.0779L83.4617 30.4382V36.0057L83.2101 37.1366C83.1925 37.2156 83.1962 37.2973 83.2203 37.3743L83.4617 38.1367V43.9112C83.4617 44.0616 83.3661 44.1953 83.224 44.2445L81.9947 44.6689L81.782 44.6884L81.2026 44.7404C81.1413 44.4117 81.1339 44.0663 81.1553 43.7348C81.2026 43.0068 81.3642 42.2798 81.288 41.5537C81.1775 40.4868 80.5554 39.5248 79.7708 38.7941C78.9853 38.0624 78.04 37.5294 77.1069 37.0011C76.4588 36.6352 75.8032 36.2601 75.2786 35.7318C74.7549 35.2034 74.3705 34.4922 74.3974 33.7484C74.4429 32.5042 75.5701 31.5645 75.8951 30.3621C76.2127 29.1866 75.7048 27.9172 74.9127 26.9915C74.6843 26.7241 74.4346 26.479 74.1699 26.2487L75.2452 25.9163L76.5637 25.5077C76.5683 25.5059 76.573 25.5049 76.5776 25.5031C76.6027 25.4947 76.6268 25.4836 76.65 25.4715L78.4839 24.4585L78.6947 24.464L79.7606 24.4938C79.8107 24.4956 79.8609 24.4882 79.9082 24.4733L79.9417 24.4631L82.7969 23.5801C83.1795 23.6841 83.3587 24.0174 83.4617 24.3805V28.8458L83.1451 29.6378Z" fill="white"/>
<path opacity="0.4" d="M17.4508 42.6744C17.7786 43.9604 16.9345 45.2473 15.9921 46.1805C15.0496 47.1146 13.9252 47.9568 13.446 49.1936C12.511 51.6096 14.4368 54.333 13.8407 56.854C13.6772 57.5485 13.3262 58.1743 12.8611 58.7147C11.718 58.2607 10.6874 57.8456 10.0021 57.568C9.72354 57.3814 9.4942 57.1381 9.32149 56.8456C9.08193 54.5048 8.66688 47.4869 8.49603 44.4126C8.96493 43.8657 8.96493 43.6484 8.96493 43.5509C8.96493 43.4683 8.96493 43.2603 8.57866 42.6957C8.60002 42.068 8.57867 40.276 8.54431 37.5619C8.51181 35.0372 8.46724 31.518 8.4951 29.8161C8.63809 29.7018 8.79501 29.6099 8.96308 29.5449C10.3076 30.09 12.8248 31.1086 15.5798 32.2191C16.1239 32.4392 16.6792 32.6629 17.2363 32.8876C16.4173 33.6091 15.7497 34.5033 15.3096 35.5042C14.7385 36.8023 14.5621 38.3697 15.2595 39.6037C15.8844 40.7077 17.1388 41.445 17.4508 42.6744Z" fill="white"/>
<path opacity="0.4" d="M24.0454 24.8653C24.3026 26.3639 25.1494 27.9592 24.4344 29.3009C23.6777 30.7206 21.7454 30.8283 20.1966 31.2619C19.4454 31.4727 18.7314 31.8051 18.0814 32.2369C17.3544 31.9444 16.6301 31.6519 15.9217 31.3669C13.2809 30.3018 10.8574 29.3213 9.47765 28.7623C9.43865 28.6806 9.41358 28.5933 9.4043 28.5042C11.5371 27.324 16.4825 24.6164 20.0592 22.6637H20.5643C20.6145 22.6637 20.6637 22.6535 20.7101 22.6377L20.9766 22.8578C20.9766 22.8578 21.4019 23.2088 21.8308 23.167C21.7909 22.7371 21.3666 22.3861 21.3666 22.3861L21.1855 22.2366L21.5411 21.8866C21.5792 21.8736 21.6303 21.855 21.6916 21.8336C21.7556 21.9116 21.8216 21.9868 21.8921 22.0574C21.8921 22.0574 22.0314 22.205 22.244 22.3471C22.4548 22.4929 22.7436 22.6201 22.9683 22.6405C22.8086 22.4808 22.582 22.3007 22.4102 22.1373C22.2366 21.9766 22.1103 21.8429 22.1103 21.8429C22.0741 21.8067 22.0416 21.7658 22.0063 21.7278C22.4177 21.5904 23.0138 21.3963 23.6313 21.1948C24.0342 21.0629 24.4734 20.92 24.9312 20.7695C24.1392 21.959 23.803 23.4539 24.0454 24.8653Z" fill="white"/>
<path opacity="0.4" d="M45.7747 11.366C45.6475 10.7615 45.1805 10.2397 44.5927 10.0465C43.887 9.81533 43.1228 10.0437 42.3809 10.0948C40.7031 10.21 38.9964 9.31392 38.1348 7.87191L39.8024 7.30644C39.9733 7.24887 40.1552 7.24422 40.328 7.29436L44.1062 8.37889C44.1368 8.38725 44.1684 8.39282 44.1999 8.3956L45.3662 8.47731L46.2566 8.98243C46.2882 9.00008 46.3216 9.01493 46.3569 9.02515L49.5176 9.93232L51.1194 10.7346C51.2085 10.7791 51.3106 10.794 51.4091 10.7754L52.0432 10.6575L56.3071 11.8813C56.3897 11.9045 56.4668 11.9426 56.5364 11.9872L53.554 12.9203C53.5196 12.9306 53.4853 12.9463 53.4537 12.9649L53.1203 13.1664L52.06 13.3892C52.047 13.393 52.034 13.3957 52.021 13.3995L51.7006 13.4997C51.2531 12.7513 50.4629 12.2054 49.5956 12.1144C48.6402 12.015 47.7321 12.4226 46.8091 12.7309C46.2724 12.9101 45.7394 12.4681 45.7998 11.9055C45.8193 11.7253 45.8119 11.5433 45.7738 11.366H45.7747Z" fill="white"/>
<path opacity="0.4" d="M56.9441 13.5692V17.0047C56.8513 17.3074 56.7101 17.5888 56.4845 17.8293L54.7983 18.5108C54.7825 18.5182 54.7574 18.5303 54.7426 18.5377L52.8168 19.5898L51.4611 19.9212C51.4444 19.8293 51.4073 19.7105 51.3237 19.6278C51.2179 19.7346 51.1854 19.899 51.1761 19.9909L51.1055 20.0085C51.0832 20.0141 51.0619 20.0206 51.0405 20.029L50.6905 20.1701V20.1534C50.6905 20.1534 50.6905 19.6176 50.5373 19.3223C50.385 19.6176 50.385 20.1534 50.385 20.1534V20.2936L48.5307 21.0429C48.3571 21.1125 48.2438 21.2815 48.2438 21.4682V23.731C48.1138 23.9622 47.9513 24.1721 47.7294 24.3067C47.045 24.0356 46.3301 23.7524 45.5938 23.4608C45.5938 23.3485 45.6021 23.2352 45.6197 23.1237C45.7423 22.3196 46.305 21.5963 47.0543 21.2778C47.6179 21.0392 48.254 21.0234 48.8315 20.8191C49.41 20.6158 49.9708 20.106 49.9003 19.4969C49.878 19.3001 49.7907 19.1143 49.7721 18.9175C49.7016 18.1905 50.4983 17.7373 51.047 17.2545C51.8502 16.5488 52.2485 15.4011 52.035 14.3566L52.2736 14.2823L53.3841 14.0492C53.4352 14.039 53.4835 14.0195 53.5281 13.9926L53.88 13.7799L56.4371 12.9805C56.6488 13.1383 56.8216 13.337 56.9441 13.5692Z" fill="white"/>
<path d="M50.4868 49.8667C50.4868 49.8667 50.4506 49.6605 50.3837 49.2845C50.3178 48.9084 50.2286 48.3624 50.1293 47.6837C49.9296 46.3252 49.6966 44.4301 49.5564 42.2963C49.4867 41.2295 49.4459 40.2053 49.4245 39.2693C49.4069 38.3334 49.4032 37.4856 49.4152 36.7716C49.4189 36.415 49.4273 36.091 49.4347 35.8068C49.4412 35.5227 49.4496 35.2766 49.4589 35.0761C49.4756 34.6749 49.4858 34.4512 49.4858 34.4512C49.4858 34.4512 49.5034 34.6712 49.5369 35.0668C49.5666 35.4623 49.6102 36.0343 49.6632 36.7391C49.7142 37.4429 49.7746 38.2795 49.8414 39.2062C49.9083 40.1319 49.9789 41.1468 50.0485 42.2091C50.1878 44.3335 50.2964 46.2454 50.3735 47.6289C50.4106 48.3216 50.4403 48.8806 50.4608 49.2668C50.4784 49.654 50.4877 49.8667 50.4877 49.8667H50.4868Z" fill="white"/>
<path d="M47.7866 52.6532C47.7866 52.6532 47.4681 51.9197 47.2945 50.9447C47.1217 49.9688 47.1598 49.1211 47.1598 49.1211C47.1598 49.1211 47.6074 49.8704 47.7801 50.8454C47.9528 51.8213 47.7866 52.6532 47.7866 52.6532Z" fill="white"/>
<path d="M69.1974 42.2496C69.1974 42.2496 69.0117 40.1353 69.0117 37.4435C69.0117 34.7517 69.1974 32.5 69.1974 32.5C69.1974 32.5 69.5066 34.7164 69.5066 37.4091C69.5066 40.1019 69.1974 42.2496 69.1974 42.2496Z" fill="white"/>
<path d="M71.7033 44.85C71.7033 44.85 71.5176 44.5074 71.5176 44.0719C71.5176 43.6364 71.7033 43.2715 71.7033 43.2715C71.7033 43.2715 72.0125 43.6308 72.0125 44.0663C72.0125 44.5018 71.7033 44.85 71.7033 44.85Z" fill="white"/>
<path d="M62.047 38.1639C62.047 38.1639 61.8613 37.4592 61.8613 36.5622C61.8613 35.6652 62.047 34.9141 62.047 34.9141C62.047 34.9141 62.3562 35.6532 62.3562 36.5501C62.3562 37.4471 62.047 38.1639 62.047 38.1639Z" fill="white"/>
<path d="M38.2244 14.1719C38.2244 14.1719 38.0341 14.1478 37.7342 14.0651C37.4352 13.9834 37.0266 13.8395 36.606 13.6036C36.1854 13.3687 35.839 13.0892 35.6032 12.8692C35.3673 12.6491 35.2383 12.4922 35.2383 12.4922C35.2383 12.4922 35.4407 12.5498 35.7397 12.6621C36.0387 12.7754 36.4352 12.9397 36.8381 13.1663C37.2411 13.3929 37.5819 13.6417 37.8298 13.8367C38.0759 14.0308 38.2244 14.1719 38.2244 14.1719Z" fill="white"/>
<path d="M25.6803 51.4414C25.6803 51.4414 25.866 53.3542 25.866 55.7897C25.866 58.2253 25.6803 60.2625 25.6803 60.2625C25.6803 60.2625 25.3711 58.2568 25.3711 55.8213C25.3711 53.3858 25.6803 51.4414 25.6803 51.4414Z" fill="white"/>
<path d="M25.6803 46.9844C25.6803 46.9844 25.866 47.4069 25.866 47.9454C25.866 48.484 25.6803 48.9343 25.6803 48.9343C25.6803 48.9343 25.3711 48.4914 25.3711 47.9528C25.3711 47.4143 25.6803 46.9844 25.6803 46.9844Z" fill="white"/>
<path d="M11.0705 44.7566C11.0705 44.7566 10.8848 43.5885 10.8848 42.1019C10.8848 40.6153 11.0705 39.3711 11.0705 39.3711C11.0705 39.3711 11.3797 40.5958 11.3797 42.0824C11.3797 43.569 11.0705 44.7566 11.0705 44.7566Z" fill="white"/>
<path d="M29.2736 22.4297C29.2736 22.4297 28.8557 22.945 28.189 23.4065C27.5223 23.868 26.8594 24.101 26.8594 24.101C26.8594 24.101 27.2317 23.4669 27.8984 23.0054C28.5651 22.5439 29.2736 22.4297 29.2736 22.4297Z" fill="white"/>
<path d="M66.7504 18.1686C66.7504 18.1686 66.4078 18.3543 65.9723 18.3543C65.5368 18.3543 65.1719 18.1686 65.1719 18.1686C65.1719 18.1686 65.5312 17.8594 65.9667 17.8594C66.4022 17.8594 66.7504 18.1686 66.7504 18.1686Z" fill="white"/>
<path d="M57.3127 33.4274C57.3127 33.4274 57.127 33.0244 57.127 32.5118C57.127 31.9993 57.3127 31.5703 57.3127 31.5703C57.3127 31.5703 57.6219 31.9928 57.6219 32.5053C57.6219 33.0179 57.3127 33.4274 57.3127 33.4274Z" fill="white"/>
<path d="M57.1569 40.4844C57.1569 40.4844 57.3426 41.7527 57.3426 43.3684C57.3426 44.984 57.1569 46.3341 57.1569 46.3341C57.1569 46.3341 56.8477 45.0045 56.8477 43.3888C56.8477 41.7732 57.1569 40.4844 57.1569 40.4844Z" fill="white"/>
<path d="M33.5041 46.5271C33.5041 46.5271 33.3184 45.4705 33.3184 44.1241C33.3184 42.7777 33.5041 41.6523 33.5041 41.6523C33.5041 41.6523 33.8133 42.761 33.8133 44.1065C33.8133 45.4519 33.5041 46.5262 33.5041 46.5262V46.5271Z" fill="white"/>
<path d="M65.8223 52.8826C65.8223 52.8826 66.0488 52.838 66.4147 52.7767C66.7805 52.7163 67.2847 52.6365 67.8493 52.5631C68.1297 52.526 68.4082 52.4963 68.6469 52.4684C68.8818 52.4406 69.0731 52.3904 69.2031 52.305C69.3368 52.2187 69.4148 52.1035 69.4463 52.019C69.464 51.9763 69.4686 51.9401 69.4733 51.915C69.4751 51.89 69.477 51.877 69.477 51.877C69.477 51.877 69.4835 51.889 69.4946 51.9132C69.5039 51.9382 69.5188 51.9763 69.5234 52.0302C69.5355 52.136 69.5076 52.3134 69.373 52.4861C69.2393 52.6625 68.9997 52.7962 68.7434 52.8761C68.489 52.955 68.2207 53.0144 67.9282 53.0534C67.3451 53.1295 66.8121 53.0878 66.4323 53.0246C66.0525 52.9624 65.8223 52.8835 65.8223 52.8835V52.8826Z" fill="white"/>
<path d="M76.3984 56.4513C76.3984 56.4513 76.4523 56.4299 76.5526 56.3993C76.6529 56.3687 76.8014 56.3334 76.989 56.3083C77.3641 56.2535 77.8878 56.2721 78.4356 56.3232C78.7096 56.3473 78.9668 56.3659 79.2007 56.3705C79.4338 56.3733 79.6455 56.3631 79.821 56.3371C79.9965 56.3111 80.1395 56.2758 80.2361 56.2424C80.2862 56.2284 80.3224 56.2117 80.3484 56.2034C80.3744 56.1941 80.3883 56.1895 80.3883 56.1895C80.3883 56.1895 80.3791 56.2006 80.3605 56.2219C80.341 56.2424 80.315 56.2758 80.2741 56.3111C80.1961 56.3863 80.0708 56.4838 79.8953 56.5748C79.7198 56.6667 79.4942 56.7429 79.2379 56.7884C78.9816 56.8329 78.6975 56.8441 78.4087 56.8199C77.8339 56.767 77.3585 56.6277 76.9983 56.5581C76.8191 56.5209 76.6696 56.494 76.5646 56.4782C76.4579 56.4624 76.3994 56.4532 76.3994 56.4532L76.3984 56.4513Z" fill="white"/>
<path d="M60.2793 58.3391C60.2793 58.3391 60.6396 58.0401 61.166 57.8869C61.6916 57.7337 62.1837 57.7829 62.1837 57.7829C62.1837 57.7829 61.8374 58.2063 61.3118 58.3605C60.7863 58.5137 60.2802 58.3391 60.2802 58.3391H60.2793Z" fill="white"/>
<path d="M47.247 67.1062C47.247 67.1062 47.3046 67.0904 47.4077 67.0617C47.5107 67.0338 47.6602 66.9948 47.8459 66.9447C48.2155 66.8462 48.7206 66.707 49.2824 66.5482C49.5637 66.4683 49.8339 66.3913 50.0809 66.3207C50.327 66.2473 50.5526 66.1823 50.742 66.1229C51.1236 66.0059 51.3632 65.9316 51.3632 65.9316C51.3632 65.9316 51.3177 65.9762 51.2304 66.0514C51.1441 66.1276 51.015 66.2306 50.8479 66.3467C50.5155 66.5788 50.0205 66.8537 49.4309 67.0208C48.8413 67.1879 48.2842 67.2121 47.8868 67.1889C47.6871 67.1777 47.5274 67.1573 47.4169 67.1378C47.3064 67.1192 47.2461 67.1053 47.2461 67.1053L47.247 67.1062Z" fill="white"/>
<path d="M38.0078 71.2031C38.0078 71.2031 38.0793 71.1521 38.187 71.0889C38.2957 71.0248 38.4377 70.9478 38.6021 70.8893C38.7664 70.8317 38.9298 70.802 39.058 70.7797C39.1861 70.7584 39.2771 70.75 39.2771 70.75C39.2771 70.75 39.2604 70.8586 39.1852 70.9924C39.1118 71.1261 38.9726 71.2839 38.772 71.3545C38.5714 71.426 38.3662 71.3907 38.2279 71.3331C38.0877 71.2765 38.0087 71.2031 38.0087 71.2031H38.0078Z" fill="white"/>
<path d="M49.9975 1.05078C49.9957 1.83539 49.9223 2.64043 49.5806 3.34797C49.3225 3.88373 47.743 5.29417 47.8684 3.90973C47.9538 2.97191 49.3485 1.64968 49.9966 1.05171L49.9975 1.05078Z" fill="white"/>
<path d="M20.4863 18.0361C20.7927 18.1801 20.8818 18.6174 20.7156 18.9127C20.5494 19.2079 20.1957 19.3602 19.8567 19.3658C19.5178 19.3714 19.1891 19.2525 18.8799 19.1151C18.1352 18.7836 17.4444 18.3323 16.8418 17.7836C17.9876 17.8346 19.4491 17.5487 20.4872 18.0371L20.4863 18.0361Z" fill="white"/>
<path d="M24.8125 8.60235C24.1291 8.5875 23.4549 8.29965 22.9721 7.81589C22.4893 7.33212 22.2014 6.65801 22.1875 5.97461C22.8245 6.20953 23.5794 6.58651 24.169 6.92264C24.4717 7.09535 24.78 7.2922 24.9545 7.59397C25.1291 7.89574 25.0845 8.38508 24.8125 8.60328V8.60235Z" fill="white"/>
<path d="M31.4032 9.57158C30.8248 9.37752 30.3902 8.87797 30.1349 8.32364C29.8795 7.7693 29.7802 7.15833 29.6836 6.55664C30.7263 7.16204 31.2361 8.37842 31.4023 9.57251L31.4032 9.57158Z" fill="white"/>
<path d="M40.139 3.14958C40.0267 3.378 39.7147 3.44857 39.476 3.36036C39.2374 3.27215 39.0638 3.06508 38.9273 2.85059C38.3952 2.01491 38.281 0.927603 38.6274 0C38.7425 0.384412 39.191 0.713112 39.4853 0.986101C39.7797 1.25909 40.0972 1.51815 40.3061 1.86171C40.5151 2.20433 40.3164 2.79024 40.139 3.15051V3.14958Z" fill="white"/>
<path d="M45.0865 2.41602C45.0865 2.41602 45.2722 2.59708 45.2722 2.82828C45.2722 3.05949 45.0865 3.25169 45.0865 3.25169C45.0865 3.25169 44.7773 3.06135 44.7773 2.83107C44.7773 2.60079 45.0865 2.41602 45.0865 2.41602Z" fill="white"/>
<path d="M31.4247 2.55449C31.4247 2.55449 30.8332 2.24622 30.2436 1.68167C29.654 1.11712 29.2891 0.511719 29.2891 0.511719C29.2891 0.511719 29.9882 0.752208 30.5788 1.31676C31.1684 1.8813 31.4247 2.55449 31.4247 2.55449Z" fill="white"/>
<path d="M19.6321 12.5755C19.6321 12.5755 19.5615 12.5672 19.4715 12.5523C19.3795 12.5374 19.2718 12.5217 19.1669 12.4799C19.0629 12.4381 18.9701 12.374 18.8902 12.322C18.8113 12.27 18.75 12.2292 18.75 12.2292C18.75 12.2292 18.7621 12.2097 18.7871 12.179C18.8122 12.1484 18.8512 12.1103 18.9051 12.075C19.01 12.0035 19.1846 11.9534 19.347 12.0184C19.5095 12.0825 19.6005 12.2375 19.6265 12.3601C19.6405 12.4223 19.6423 12.4762 19.6395 12.5152C19.6367 12.5542 19.6321 12.5764 19.6321 12.5764V12.5755Z" fill="white"/>
<path d="M14.2007 21.6272C14.2007 21.6272 13.8478 21.8315 13.3863 21.8547C12.9249 21.8779 12.5293 21.7126 12.5293 21.7126C12.5293 21.7126 12.8933 21.3839 13.3557 21.3607C13.8172 21.3375 14.2016 21.6272 14.2016 21.6272H14.2007Z" fill="white"/>
<path d="M58.5371 11.6577C58.5371 11.6577 58.7442 11.1674 59.1806 10.7059C59.6161 10.2445 60.1156 9.98633 60.1156 9.98633C60.1156 9.98633 59.9819 10.5787 59.5455 11.0402C59.11 11.5017 58.5371 11.6577 58.5371 11.6577Z" fill="white"/>
<path d="M53.7271 6.73438C53.7271 6.73438 53.7011 6.79009 53.6547 6.8913C53.6073 6.99065 53.5395 7.1355 53.455 7.31471C53.287 7.67219 53.0604 8.16524 52.8125 8.71772C52.689 8.99442 52.5711 9.25998 52.4634 9.50326C52.3584 9.74839 52.26 9.97031 52.182 10.1597C52.0232 10.5404 51.923 10.78 51.923 10.78C51.923 10.78 51.9192 10.7141 51.9183 10.5961C51.9164 10.4773 51.922 10.3074 51.9424 10.0984C51.9824 9.68153 52.0957 9.10863 52.3538 8.53016C52.6128 7.95261 52.961 7.49299 53.2405 7.19121C53.3807 7.03986 53.5015 6.92565 53.5897 6.84951C53.6769 6.77337 53.7271 6.73438 53.7271 6.73438Z" fill="white"/>
<path d="M34.9677 5.62305C34.9677 5.62305 35.1098 5.75583 35.3243 5.98239C35.5388 6.20895 35.8275 6.52558 36.1247 6.89792C36.4218 7.27026 36.6753 7.63146 36.8573 7.89888C37.0393 8.16722 37.1461 8.34364 37.1461 8.34364C37.1461 8.34364 36.952 8.25543 36.6781 8.06973C36.4042 7.88495 36.0513 7.59896 35.7449 7.21641C35.4385 6.83385 35.2407 6.43087 35.1246 6.1291C35.0077 5.8264 34.9668 5.62305 34.9668 5.62305H34.9677Z" fill="white"/>
<path d="M21.8935 14.8789C21.8935 14.8789 22.134 14.9476 22.5156 15.0795C22.8972 15.2113 23.4209 15.4054 23.9911 15.6552C24.5621 15.9049 25.0728 16.1649 25.4442 16.3618C25.8147 16.5586 26.0431 16.6942 26.0431 16.6942C26.0431 16.6942 25.7748 16.6756 25.3597 16.5948C24.9447 16.514 24.3838 16.3673 23.8063 16.1148C23.2287 15.8622 22.7478 15.5521 22.4144 15.306C22.0811 15.06 21.8926 14.8789 21.8926 14.8789H21.8935Z" fill="white"/>
<path d="M26.9237 19.145V19.1431C26.9237 19.1431 26.9237 18.9769 27.0769 18.885C27.1531 18.9305 27.1911 18.9955 27.2106 19.0484C28.5384 18.5999 29.7548 18.1728 30.4484 17.8859C30.8802 17.7076 31.2767 17.6974 31.6267 17.8552C32.3594 18.1867 33.9713 18.845 36.0141 19.664C36.0215 19.4839 36.0493 19.0874 36.1645 18.8413C36.3177 19.1682 36.3177 19.7587 36.3177 19.7587V19.7856C37.8572 20.4013 39.6205 21.1004 41.4302 21.8154V17.6305C41.2584 17.4792 41.0179 17.3585 40.8721 17.2684C40.8424 17.2498 40.8108 17.2331 40.7802 17.2155L35.9676 15.857V15.8905C35.9676 15.8905 35.9676 16.0752 35.8144 16.1774C35.6612 16.0752 35.6612 15.8905 35.6612 15.8905V15.7707L35.0632 15.6017L34.3418 15.5181C34.2953 15.5125 34.2508 15.5005 34.2081 15.4819L33.4513 15.1467L25.504 12.9043C25.3044 12.9368 25.1344 13.0018 25.0527 13.1671V19.4217C25.1539 19.5127 25.2635 19.5916 25.3842 19.6584C25.894 19.4904 26.414 19.3177 26.9228 19.1468L26.9237 19.145ZM27.492 14.9526C27.7455 14.9526 27.7455 15.3463 27.492 15.3463C27.2385 15.3463 27.2385 14.9526 27.492 14.9526ZM26.7714 16.1764C26.518 16.1764 26.518 15.7827 26.7714 15.7827C27.0249 15.7827 27.0249 16.1764 26.7714 16.1764ZM26.1586 15.1569C26.2292 15.0241 26.2988 14.8923 26.3694 14.7595C26.4195 14.6657 26.5495 14.6369 26.6387 14.6889C26.7334 14.7437 26.7584 14.8644 26.7092 14.9582C26.6387 15.091 26.569 15.2228 26.4985 15.3556C26.4483 15.4494 26.3183 15.4782 26.2292 15.4262C26.1345 15.3714 26.1085 15.2507 26.1586 15.1569Z" fill="#6197B4"/>
<path d="M66.7747 30.6672C66.7125 30.5818 66.6039 30.5391 66.5055 30.5967C66.421 30.6459 66.3717 30.7796 66.4349 30.8659C66.5222 30.9857 66.6094 31.1064 66.6967 31.2262C66.7589 31.3116 66.8676 31.3543 66.966 31.2968C67.0505 31.2476 67.0997 31.1139 67.0366 31.0275C66.9493 30.9077 66.862 30.787 66.7747 30.6672Z" fill="#2E365B"/>
<path d="M67.5554 30.6055C67.3019 30.6055 67.3019 30.9992 67.5554 30.9992C67.8088 30.9992 67.8088 30.6055 67.5554 30.6055Z" fill="#2E365B"/>
<path d="M67.3258 31.4552C67.219 31.4599 67.1289 31.5416 67.1289 31.6521V31.6846C67.1289 31.7877 67.219 31.8861 67.3258 31.8814C67.4325 31.8768 67.5226 31.7951 67.5226 31.6846V31.6521C67.5226 31.549 67.4325 31.4506 67.3258 31.4552Z" fill="#2E365B"/>
<path d="M82.3966 42.8379C82.3094 42.9763 82.2221 43.1146 82.1348 43.2539C81.9992 43.4684 82.34 43.6662 82.4746 43.4526C82.5619 43.3142 82.6492 43.1759 82.7365 43.0366C82.8721 42.8221 82.5313 42.6243 82.3966 42.8379Z" fill="#2E365B"/>
<path d="M82.0085 42.6657C81.9742 42.5654 81.873 42.4995 81.7671 42.5283C81.6687 42.5552 81.5953 42.6694 81.6297 42.7697C81.6371 42.792 81.6445 42.8133 81.652 42.8347C81.6863 42.935 81.7875 43.0009 81.8934 42.9721C81.9918 42.9452 82.0652 42.831 82.0308 42.7307C82.0234 42.7093 82.016 42.6871 82.0085 42.6657Z" fill="#2E365B"/>
<path d="M65.0209 16.1968C65.0163 16.0901 64.9346 16 64.8241 16H64.5622C64.4592 16 64.3607 16.0901 64.3654 16.1968C64.37 16.3036 64.4517 16.3937 64.5622 16.3937H64.8241C64.9272 16.3937 65.0256 16.3036 65.0209 16.1968Z" fill="#2E365B"/>
<path d="M65.6635 16.3404C65.5957 16.2587 65.4555 16.2698 65.3859 16.3404C65.3051 16.4212 65.3181 16.5363 65.3859 16.618C65.4221 16.6617 65.4583 16.7053 65.4955 16.7489C65.5632 16.8306 65.7035 16.8195 65.7731 16.7489C65.8539 16.6682 65.8409 16.553 65.7731 16.4713C65.7369 16.4277 65.7007 16.384 65.6635 16.3404Z" fill="#2E365B"/>
<path d="M65.0275 16.6398C64.931 16.6176 64.8065 16.6696 64.7861 16.7773C64.7713 16.8571 64.7555 16.937 64.7406 17.0168C64.7211 17.1171 64.7685 17.2341 64.878 17.2582C64.9746 17.2805 65.099 17.2285 65.1195 17.1208C65.1343 17.041 65.1501 16.9611 65.1649 16.8813C65.1844 16.781 65.1371 16.664 65.0275 16.6398Z" fill="#2E365B"/>
<path d="M53.83 52.1661C53.7047 51.946 53.3648 52.1447 53.4902 52.3648C53.5775 52.518 53.6648 52.6703 53.752 52.8235C53.8774 53.0435 54.2172 52.8458 54.0919 52.6248C54.0046 52.4716 53.9173 52.3193 53.83 52.1661Z" fill="#2E365B"/>
<path d="M53.2344 53.0492C53.1573 53.0074 53.0654 53.0074 52.9967 53.0752C52.928 53.1439 52.9131 53.286 52.9967 53.3528C53.1462 53.4735 53.3226 53.4735 53.473 53.3528C53.5557 53.286 53.5427 53.1439 53.473 53.0752C53.4034 53.0056 53.3115 53.0065 53.2344 53.0492Z" fill="#2E365B"/>
<path d="M52.9788 52.4933C52.9463 52.4496 52.9129 52.406 52.8804 52.3624C52.8163 52.2779 52.7105 52.2342 52.6111 52.2918C52.5276 52.341 52.4765 52.4756 52.5406 52.5611C52.5731 52.6047 52.6065 52.6483 52.639 52.692C52.7031 52.7765 52.8089 52.8201 52.9083 52.7626C52.9918 52.7133 53.0429 52.5787 52.9788 52.4933Z" fill="#2E365B"/>
<path d="M29.7676 38.1522C29.71 37.9062 29.3312 38.0102 29.3887 38.2571C29.4324 38.4428 29.4751 38.6286 29.5187 38.8143C29.5763 39.0603 29.9551 38.9563 29.8976 38.7093C29.8539 38.5236 29.8112 38.3379 29.7676 38.1522Z" fill="#2E365B"/>
<path d="M30.2817 37.4928C30.1814 37.4724 30.0644 37.5216 30.0402 37.6302C30.018 37.7287 30.0699 37.8494 30.1777 37.8716C30.2046 37.8772 30.2297 37.8837 30.2557 37.893C30.2779 37.9014 30.2807 37.9023 30.2649 37.8967C30.2742 37.9014 30.2826 37.906 30.2919 37.9106C30.3104 37.9209 30.3299 37.9329 30.3467 37.9459C30.3485 37.9487 30.3819 37.9812 30.3856 37.9849C30.459 38.062 30.5899 38.0583 30.6633 37.9849C30.7366 37.9116 30.7366 37.7844 30.6633 37.7073C30.5611 37.6005 30.4265 37.5225 30.2817 37.4928Z" fill="#2E365B"/>
<path d="M30.2956 38.207C30.0421 38.207 30.0421 38.6007 30.2956 38.6007C30.5491 38.6007 30.5491 38.207 30.2956 38.207Z" fill="#2E365B"/>
<path d="M9.78532 31.9996C9.8141 31.8835 9.84382 31.7665 9.8726 31.6505C9.8986 31.5474 9.83917 31.4369 9.73518 31.4091C9.63397 31.3812 9.51883 31.4425 9.49376 31.5465C9.46497 31.6626 9.43526 31.7795 9.40648 31.8956C9.38048 31.9987 9.4399 32.1092 9.5439 32.137C9.64511 32.1649 9.76025 32.1036 9.78532 31.9996Z" fill="#2E365B"/>
<path d="M10.5789 32.4387C10.7089 32.656 11.0488 32.4582 10.9188 32.24C10.8371 32.1035 10.7554 31.967 10.6736 31.8305C10.5437 31.6132 10.2038 31.811 10.3338 32.0292C10.4155 32.1657 10.4972 32.3022 10.5789 32.4387Z" fill="#2E365B"/>
<path d="M9.73201 32.6681C9.62522 32.6728 9.53516 32.7545 9.53516 32.865V32.8975C9.53516 33.0005 9.62522 33.099 9.73201 33.0943C9.83879 33.0897 9.92885 33.008 9.92885 32.8975V32.865C9.92885 32.7619 9.83879 32.6635 9.73201 32.6681Z" fill="#2E365B"/>
<path d="M10.6327 55.5695C10.5361 55.5128 10.4228 55.5518 10.3634 55.6401C10.2761 55.771 10.1888 55.9019 10.1016 56.0338C10.0431 56.122 10.0839 56.251 10.1721 56.303C10.2687 56.3597 10.382 56.3207 10.4414 56.2325C10.5287 56.1015 10.616 55.9706 10.7032 55.8388C10.7617 55.7506 10.7209 55.6215 10.6327 55.5695Z" fill="#2E365B"/>
<path d="M10.8988 56.4877C10.8218 56.4144 10.6974 56.4116 10.6212 56.4877C10.5469 56.562 10.5441 56.692 10.6212 56.7653C10.6435 56.7867 10.6658 56.808 10.6881 56.8294C10.7651 56.9028 10.8896 56.9055 10.9657 56.8294C11.04 56.7551 11.0428 56.6251 10.9657 56.5518C10.9434 56.5304 10.9211 56.5091 10.8988 56.4877Z" fill="#2E365B"/>
<path d="M11.3874 55.9668C11.1339 55.9668 11.1339 56.3605 11.3874 56.3605C11.6409 56.3605 11.6409 55.9668 11.3874 55.9668Z" fill="#2E365B"/>
<path d="M30.3406 20.4264C30.4465 20.4552 30.5505 20.3902 30.5821 20.289C30.5858 20.2778 30.5895 20.2667 30.5932 20.2546C30.5951 20.2528 30.6043 20.2305 30.6062 20.2277C30.6201 20.2008 30.6359 20.1738 30.6545 20.1497C30.6573 20.146 30.6638 20.1386 30.6656 20.1367C30.6749 20.1265 30.6851 20.1163 30.6944 20.1061C30.7074 20.094 30.7204 20.0819 30.7334 20.0708C30.7343 20.0708 30.7343 20.0699 30.7353 20.0689C30.739 20.0671 30.7436 20.0634 30.7529 20.0569C30.8411 19.9974 30.8792 19.8832 30.8235 19.7876C30.7724 19.7003 30.6433 19.6576 30.5542 19.717C30.3852 19.8312 30.2636 19.9891 30.2014 20.1841C30.1689 20.2853 30.2394 20.3986 30.3388 20.4255L30.3406 20.4264Z" fill="#2E365B"/>
<path d="M31.4421 20.7394C31.6956 20.7394 31.6956 20.3457 31.4421 20.3457C31.1886 20.3457 31.1886 20.7394 31.4421 20.7394Z" fill="#2E365B"/>
<path d="M62.4527 30.0713C62.2781 30.1586 62.1036 30.2459 61.9281 30.3332C61.7015 30.4465 61.9002 30.7854 62.1268 30.673C62.3013 30.5857 62.4759 30.4985 62.6514 30.4112C62.878 30.2979 62.6792 29.959 62.4527 30.0713Z" fill="#2E365B"/>
<path d="M62.7711 30.8341C62.6643 30.8388 62.5742 30.9205 62.5742 31.031V31.1944C62.5742 31.2975 62.6643 31.3959 62.7711 31.3913C62.8778 31.3866 62.9679 31.3049 62.9679 31.1944V31.031C62.9679 30.9279 62.8778 30.8295 62.7711 30.8341Z" fill="#2E365B"/>
<path d="M62.0163 29.7511C62.2698 29.7511 62.2698 29.3574 62.0163 29.3574C61.7628 29.3574 61.7628 29.7511 62.0163 29.7511Z" fill="#2E365B"/>
<path d="M54.6365 14.6795C54.5929 14.7231 54.5493 14.7667 54.5056 14.8104C54.4304 14.8856 54.4304 15.0137 54.5056 15.088C54.5808 15.1632 54.708 15.1632 54.7833 15.088C54.8269 15.0444 54.8705 15.0007 54.9142 14.9571C54.9894 14.8819 54.9894 14.7537 54.9142 14.6795C54.839 14.6042 54.7118 14.6042 54.6365 14.6795Z" fill="#2E365B"/>
<path d="M55.2116 15.5391C54.9581 15.5391 54.9581 15.9328 55.2116 15.9328C55.4651 15.9328 55.4651 15.5391 55.2116 15.5391Z" fill="#2E365B"/>
<path d="M55.8353 14.7805C55.8066 14.7657 55.7768 14.7518 55.7481 14.7369C55.6533 14.6895 55.5354 14.7118 55.4788 14.8075C55.4277 14.8947 55.4537 15.0285 55.5494 15.0767C55.5781 15.0916 55.6078 15.1055 55.6366 15.1204C55.7313 15.1677 55.8493 15.1455 55.9059 15.0498C55.957 14.9625 55.931 14.8288 55.8353 14.7805Z" fill="#2E365B"/>
<path d="M39.0558 8.82865C39.1385 8.87694 39.2824 8.85651 39.3251 8.75809C39.3474 8.70702 39.3688 8.65595 39.391 8.60488C39.4328 8.50738 39.4198 8.3941 39.3205 8.3356C39.2378 8.28732 39.0939 8.30775 39.0512 8.40617C39.0289 8.45724 39.0076 8.50831 38.9853 8.55938C38.9435 8.65688 38.9565 8.77016 39.0558 8.82865Z" fill="#2E365B"/>
<path d="M39.7347 9.10613C39.8099 9.18041 39.9371 9.18134 40.0123 9.10613C40.0875 9.03092 40.0875 8.90278 40.0123 8.8285C39.9464 8.7635 39.8804 8.69758 39.8145 8.63258C39.7393 8.55737 39.6121 8.55737 39.5369 8.63258C39.4617 8.70779 39.4617 8.83593 39.5369 8.91021C39.6028 8.97521 39.6687 9.04113 39.7347 9.10613Z" fill="#2E365B"/>
<path d="M40.3991 8.74526C40.6526 8.74526 40.6526 8.35156 40.3991 8.35156C40.1456 8.35156 40.1456 8.74526 40.3991 8.74526Z" fill="#2E365B"/>
<path d="M26.2245 15.4231C26.3136 15.4751 26.4436 15.4463 26.4938 15.3525C26.5644 15.2197 26.634 15.0879 26.7046 14.9551C26.7547 14.8613 26.7287 14.7415 26.634 14.6858C26.5449 14.6338 26.4149 14.6626 26.3647 14.7564C26.2942 14.8892 26.2245 15.021 26.1539 15.1538C26.1038 15.2476 26.1298 15.3674 26.2245 15.4231Z" fill="#2E365B"/>
<path d="M27.4889 15.3429C27.7424 15.3429 27.7424 14.9492 27.4889 14.9492C27.2355 14.9492 27.2355 15.3429 27.4889 15.3429Z" fill="#2E365B"/>
<path d="M26.7663 16.173C27.0198 16.173 27.0198 15.7793 26.7663 15.7793C26.5128 15.7793 26.5128 16.173 26.7663 16.173Z" fill="#2E365B"/>
<path d="M45.5113 22.2248C45.4045 22.2294 45.3145 22.3111 45.3145 22.4216V22.5089C45.3145 22.612 45.4045 22.7104 45.5113 22.7057C45.6181 22.7011 45.7082 22.6194 45.7082 22.5089V22.4216C45.7082 22.3186 45.6181 22.2201 45.5113 22.2248Z" fill="#2E365B"/>
<path d="M89.4543 43.1807C89.302 43.0396 89.1368 42.917 88.9603 42.8112C88.7821 42.7044 88.5973 42.6208 88.4125 42.5531C87.6641 42.2819 86.9129 42.2559 86.2212 42.2216C85.5573 42.1919 84.924 42.151 84.3771 41.9551V38.0636C84.3771 38.0172 84.3697 37.9698 84.3557 37.9253L84.131 37.2121L84.3669 36.1527C84.3743 36.1202 84.378 36.0868 84.378 36.0533V30.2853C84.378 30.1887 84.3474 30.094 84.2907 30.0151L84.0902 29.7393L84.3455 29.1005C84.3669 29.0466 84.378 28.9881 84.378 28.9306V22.7484C84.378 22.5636 84.2666 22.3965 84.0958 22.325L81.0205 21.0399C80.9898 21.0269 80.9582 21.0176 80.9267 21.0121L78.8579 20.6323L77.181 19.4475C77.1531 19.428 77.1243 19.4122 77.0928 19.3992L74.4725 18.3045L73.1177 17.4066C73.0611 17.3685 72.9961 17.3444 72.9283 17.3351L71.7593 17.1707L65.2206 14.438C65.1091 14.3916 64.9838 14.3907 64.8714 14.4362L60.1647 16.3378L58.2464 16.8197C58.2036 16.8309 58.1619 16.8476 58.1238 16.8699L57.861 17.0259V12.7249C57.861 11.9273 57.3253 11.216 56.5583 10.996L52.1895 9.74246C52.1208 9.72296 52.0493 9.71925 51.9788 9.73225L51.3901 9.84181L49.8877 9.0897C49.8627 9.0767 49.8357 9.06649 49.8088 9.05906L46.6592 8.15467L45.726 7.62448C45.6666 7.59013 45.5998 7.57063 45.531 7.56598L44.3091 7.48056L40.5783 6.40996C40.2245 6.30875 39.8531 6.31711 39.5039 6.43503L25.3522 11.2355C24.6224 11.4835 24.1312 12.1678 24.1312 12.9394V20.064C23.8573 20.1532 23.5936 20.2395 23.3438 20.3212C21.7866 20.8291 21.2286 21.013 21.0902 21.077C21.042 21.0993 20.9983 21.13 20.9602 21.1671L20.3734 21.7456H19.9389C19.8618 21.7456 19.7866 21.7651 19.7188 21.8013C16.9917 23.2907 8.07594 28.1636 7.84195 28.3298C7.54668 28.5406 7.50861 28.5684 7.62281 37.5706C7.65438 40.0683 7.6841 42.4286 7.6516 42.7852C7.64139 42.8948 7.67203 43.0053 7.7361 43.0944C7.84195 43.2411 7.95244 43.4175 8.01187 43.5289C7.9413 43.6348 7.80852 43.801 7.6841 43.9375C7.60146 44.0285 7.55782 44.1492 7.56525 44.2718C7.58567 44.6376 7.94037 51.0408 8.23472 54.9165C6.86606 54.8273 5.48626 54.9415 4.15104 55.2554C3.77591 55.3464 3.40264 55.4457 3.0368 55.5683C2.67188 55.6899 2.30697 55.8181 1.94113 55.9889C1.57807 56.1588 1.21502 56.3687 0.888175 56.6565C0.725682 56.8004 0.573403 56.9648 0.44248 57.1496L0.349627 57.2926C0.320842 57.3427 0.294843 57.3938 0.267916 57.4448C0.209419 57.5451 0.174134 57.6556 0.131422 57.7624C-0.0162147 58.1997 -0.0319997 58.6668 0.0469255 59.0986C0.131422 59.5303 0.298558 59.937 0.53719 60.2964C0.599402 60.3836 0.657899 60.4746 0.728468 60.5564L0.831535 60.6808L0.943887 60.7978C1.01631 60.8776 1.10081 60.9463 1.18159 61.0188C1.26423 61.0875 1.3478 61.1497 1.43229 61.2128C1.77678 61.4542 2.15191 61.6409 2.53632 61.7783C3.30886 62.0494 4.11018 62.1423 4.89479 62.1367C5.67754 62.1302 6.43801 62.0318 7.17805 61.9362C7.17805 61.9362 7.26347 61.925 7.42597 61.9037C7.58846 61.8823 7.82616 61.8507 8.13165 61.8164C8.43714 61.782 8.80669 61.7439 9.23289 61.73C9.65909 61.7152 10.1429 61.7254 10.6591 61.8062C10.9163 61.847 11.1819 61.9064 11.4465 61.9947C11.7074 62.0829 11.9823 62.2017 12.2163 62.3503C12.4521 62.5016 12.6675 62.6994 12.791 62.9167C12.9127 63.1349 12.9322 63.3568 12.8356 63.5824C12.739 63.809 12.5106 64.0346 12.2274 64.1943C12.0853 64.2751 11.9303 64.341 11.7696 64.3884C11.6034 64.4367 11.4205 64.4729 11.232 64.4989C10.8532 64.5528 10.4391 64.5685 9.998 64.6131C9.77608 64.6354 9.5523 64.6642 9.31553 64.7143C9.07875 64.7663 8.84476 64.8387 8.61634 64.9409C8.38793 65.043 8.16415 65.173 7.95894 65.3457C7.75374 65.5166 7.56617 65.7385 7.44547 66.0068C7.3814 66.1387 7.34333 66.2826 7.3164 66.4293C7.2969 66.577 7.28854 66.7264 7.30897 66.8713C7.33961 67.1638 7.44918 67.4303 7.58939 67.6661C7.73517 67.8992 7.91345 68.1062 8.12329 68.2771C8.33593 68.4507 8.56435 68.5826 8.80019 68.6875C9.27374 68.8992 9.76401 69.0014 10.2394 69.0812C11.1837 69.2242 12.1308 69.343 13.0854 69.4192C13.5617 69.4647 14.039 69.4888 14.5144 69.5204C14.9907 69.5418 15.4652 69.5678 15.9387 69.5789C17.832 69.6374 19.6928 69.6049 21.4579 69.5594C23.2231 69.5037 24.8963 69.4517 26.4154 69.4034C24.8963 69.3319 23.2212 69.2948 21.457 69.2558C19.6928 69.214 17.8385 69.1703 15.9638 69.0478C15.4949 69.0208 15.0251 68.98 14.5552 68.9438C14.0863 68.8974 13.6146 68.8602 13.1467 68.8017C12.2088 68.7005 11.2738 68.5575 10.3601 68.3978C9.91072 68.3124 9.47802 68.2065 9.10382 68.0282C8.91626 67.94 8.74262 67.8323 8.59963 67.7098C8.45292 67.5863 8.33128 67.4358 8.23657 67.2789C8.0518 66.9577 8.01001 66.6122 8.15301 66.3346C8.283 66.0495 8.59313 65.823 8.93762 65.6754C9.62937 65.3717 10.4753 65.4414 11.3434 65.3309C11.5616 65.303 11.7808 65.264 12.0018 65.2027C12.2283 65.1396 12.4438 65.0514 12.6462 64.94C13.0464 64.7162 13.4187 64.3968 13.6313 63.9334C13.7363 63.7041 13.7855 63.4404 13.7697 63.1869C13.7539 62.9334 13.6759 62.691 13.5636 62.4905C13.337 62.0866 13.0204 61.8136 12.7028 61.6028C12.376 61.392 12.0566 61.2555 11.7362 61.1432C11.4168 61.0336 11.1048 60.9621 10.8067 60.9129C10.2097 60.8163 9.67208 60.8043 9.20782 60.8173C8.74262 60.8303 8.34986 60.8702 8.03323 60.9046C7.7166 60.9398 7.47425 60.9714 7.31083 60.9918C7.14741 61.0132 7.06291 61.0243 7.06291 61.0243C6.32473 61.1209 5.6014 61.2119 4.89107 61.2175C4.18632 61.223 3.48435 61.1367 2.84738 60.912C2.52982 60.7987 2.23269 60.6483 1.9662 60.4616C1.83342 60.3651 1.71085 60.2667 1.60314 60.1534L1.52143 60.0689L1.44715 59.9779C1.39422 59.9194 1.35337 59.8516 1.30694 59.7875C1.13238 59.5257 1.0126 59.2286 0.953172 58.9286C0.898389 58.6287 0.913246 58.326 1.00424 58.0558C1.17881 57.5145 1.71271 57.1041 2.33483 56.8181C2.64589 56.6723 2.9848 56.5516 3.32743 56.4383C3.6682 56.3241 4.0164 56.2313 4.36645 56.1468C5.65526 55.8431 6.99234 55.741 8.31271 55.8413C8.39164 56.793 8.46314 57.4885 8.51792 57.7364C8.55042 57.8831 8.65256 58.0048 8.79184 58.0614C9.15954 58.2118 17.8246 61.7504 19.5452 62.1469C19.5786 62.1544 19.6139 62.159 19.6482 62.159H19.8655L19.9649 62.3438C20.0224 62.4506 20.1199 62.5304 20.236 62.5657C20.2583 62.5722 20.9185 62.7718 21.8739 63.0606C21.8609 63.081 21.8479 63.1015 21.8321 63.121C21.7541 63.2203 21.6381 63.3122 21.5099 63.38C21.3864 63.4441 21.2267 63.4942 21.0568 63.5277C20.885 63.562 20.6975 63.5824 20.4969 63.6029C20.2982 63.6224 20.0791 63.6456 19.8646 63.6809C19.6501 63.7161 19.4375 63.7607 19.2276 63.8155C19.0178 63.8694 18.8098 63.9344 18.6055 64.0077C18.3994 64.0829 18.2062 64.1591 17.9936 64.2631C17.9936 64.2631 17.9694 64.2761 17.923 64.2993C17.8766 64.3243 17.807 64.3624 17.7169 64.4218C17.6277 64.4813 17.5172 64.5639 17.4003 64.6855C17.2814 64.81 17.1616 64.9827 17.0873 65.2009C17.0502 65.3104 17.0233 65.4339 17.0205 65.5714C17.0177 65.7078 17.0391 65.8601 17.0994 66.0059C17.157 66.147 17.2517 66.2835 17.3668 66.3894C17.482 66.4971 17.6129 66.5742 17.742 66.6299C18.001 66.7385 18.2564 66.7757 18.5043 66.7952C18.5665 66.7998 18.6287 66.8026 18.6891 66.8044C18.7457 66.8063 18.8033 66.8082 18.8618 66.81C18.9778 66.8137 19.0958 66.8165 19.2146 66.8202C20.171 66.8453 21.2286 66.8657 22.2611 66.8546C23.2936 66.8434 24.2992 66.7794 25.1229 66.6382C24.2918 66.55 23.3066 66.4414 22.2871 66.3244C21.2685 66.2074 20.2118 66.1006 19.2592 66.018C19.1403 66.0078 19.0224 65.9976 18.9073 65.9883C18.8497 65.9836 18.7921 65.979 18.7355 65.9743C18.6826 65.9697 18.6315 65.9651 18.5823 65.9586C18.3864 65.9353 18.2118 65.8936 18.0948 65.8369C17.9769 65.7766 17.9444 65.7264 17.9249 65.6763C17.9109 65.6354 17.9119 65.5695 17.9397 65.498C17.9676 65.4256 18.0094 65.3652 18.0586 65.316C18.1106 65.2631 18.1681 65.2204 18.2211 65.186C18.2731 65.1517 18.3204 65.1266 18.352 65.1099C18.3845 65.0932 18.4021 65.0839 18.4021 65.0839C18.5544 65.0087 18.7392 64.9344 18.9147 64.8712C19.093 64.8072 19.2731 64.7515 19.457 64.7041C19.6399 64.6568 19.8256 64.6178 20.0122 64.5871C20.1988 64.5565 20.3846 64.537 20.5888 64.5165C20.9946 64.472 21.4598 64.4339 21.9352 64.1934C22.1655 64.0708 22.3772 63.9093 22.5517 63.6902C22.6353 63.5852 22.7087 63.4636 22.7635 63.3299C25.0699 64.0263 28.2436 64.9808 29.0895 65.2222C29.1304 65.2343 29.1731 65.2399 29.2158 65.2399C29.2678 65.2399 29.3198 65.2306 29.37 65.2129C29.9029 65.0226 42.4316 60.5517 43.4121 60.1599C43.4929 60.1274 43.5635 60.0726 43.6136 60.002L43.9544 59.5294L44.0166 59.5684C44.142 59.6455 44.297 59.6585 44.4335 59.6009C46.7985 58.6157 50.417 57.1161 50.6937 57.0242C50.8302 56.9787 51.5219 56.7466 51.7374 56.6389C51.8692 56.573 54.2203 55.0984 55.6103 54.2247C55.7495 54.1374 55.8313 53.9824 55.8248 53.8189C55.7858 52.792 55.7384 51.57 55.6892 50.2775C55.7867 50.3193 55.9018 50.3611 56.0346 50.3973C56.2834 50.4623 56.5945 50.5013 56.939 50.4641C57.1136 50.4465 57.289 50.401 57.4395 50.3731C57.5927 50.3434 57.7255 50.3369 57.8359 50.3694C57.8907 50.3843 57.9307 50.4075 57.9604 50.4335C57.9892 50.4576 58.0096 50.4911 58.0244 50.5329C58.0542 50.6183 58.0458 50.7353 58.0049 50.8207C57.9214 51.0083 57.6967 51.1373 57.5035 51.1921C57.3039 51.2506 57.1182 51.2627 56.991 51.2738C56.8619 51.2831 56.7904 51.2887 56.7904 51.2887C56.7904 51.2887 56.8601 51.3156 56.9882 51.3555C57.1163 51.3927 57.303 51.4502 57.5574 51.4493C57.6846 51.4465 57.8285 51.4261 57.978 51.3639C58.1266 51.3026 58.2835 51.1977 58.3986 51.0213C58.5091 50.8439 58.563 50.6155 58.4989 50.3731C58.4674 50.2534 58.3968 50.1299 58.2956 50.0379C58.1953 49.946 58.0737 49.8885 57.9539 49.8578C57.7134 49.7956 57.485 49.8374 57.3104 49.8866C57.1303 49.9386 56.9919 49.9934 56.8517 50.0287C56.5713 50.1039 56.3002 50.1327 56.0662 50.1364C55.9204 50.1373 55.7922 50.1289 55.6808 50.1178C55.6558 49.4548 55.6298 48.7751 55.6038 48.0945L57.3188 48.7965C57.3875 48.8253 57.4627 48.8355 57.5379 48.8281L58.1776 48.7649L58.6883 49.3118C58.7338 49.3601 58.7886 49.3982 58.8499 49.4233L64.2586 51.6387C64.3143 51.662 64.3737 51.6731 64.4322 51.6731C64.4824 51.6731 64.5335 51.6647 64.5817 51.648L66.1835 51.0946C66.7666 50.8996 67.3785 50.7557 67.9839 50.6824C68.2875 50.6461 68.5902 50.6294 68.8827 50.6406C69.1724 50.6526 69.464 50.6926 69.6887 50.7845C69.9264 50.8783 70.1529 51.0259 70.3377 51.2116C70.5206 51.3983 70.6618 51.6192 70.736 51.8439C70.8038 52.0705 70.8001 52.2906 70.723 52.4921C70.6785 52.5951 70.6218 52.6908 70.5494 52.7799C70.4723 52.8663 70.3832 52.948 70.2773 53.0195C70.2773 53.0195 70.2532 53.0362 70.204 53.0659C70.1566 53.0965 70.0805 53.1383 69.9765 53.1866C69.7694 53.2832 69.4361 53.3964 68.9858 53.4689C68.5317 53.5385 67.9542 53.5933 67.3125 53.6286C66.6691 53.6657 65.9495 53.6824 65.1806 53.7168C64.4127 53.7521 63.5919 53.8059 62.76 53.9499C61.9308 54.0938 61.0932 54.325 60.3226 54.6908C59.9381 54.8728 59.5723 55.0901 59.239 55.3389C58.9056 55.5859 58.6066 55.8756 58.3476 56.156C58.0857 56.4318 57.8294 56.6927 57.5221 56.8506C57.2185 57.0094 56.8619 57.0781 56.5453 56.9648C56.8378 57.1329 57.2333 57.1254 57.5862 56.9982C57.9474 56.8719 58.2603 56.6231 58.5556 56.3761C58.8499 56.1226 59.1452 55.8923 59.4776 55.6908C59.8072 55.4894 60.1619 55.3185 60.5324 55.1774C61.2724 54.8951 62.0691 54.728 62.8602 54.6351C63.6523 54.5423 64.4434 54.5237 65.202 54.5181C65.9606 54.5125 66.6867 54.5181 67.3497 54.4958C68.0164 54.4754 68.6069 54.4318 69.1232 54.3603C69.6432 54.285 70.0675 54.1504 70.3544 54.0195C70.4983 53.9545 70.6079 53.8941 70.6803 53.8477C70.7537 53.8031 70.7908 53.7771 70.7908 53.7771C70.9542 53.6667 71.1084 53.5302 71.2458 53.3732C71.3804 53.2126 71.4919 53.0269 71.5726 52.831C71.7333 52.4261 71.7324 51.9628 71.6089 51.5691C71.4807 51.1754 71.2569 50.8402 70.9858 50.5635C70.7175 50.2942 70.3962 50.0816 70.0387 49.9367L71.0638 49.4065L72.0267 49.0741L73.3963 48.8466C73.4474 48.8383 73.4966 48.8216 73.5411 48.7965L74.751 48.1335L79.3779 46.5355C79.4206 46.5207 79.4605 46.5002 79.4977 46.4733L80.5441 45.7147L82.1291 45.5708C82.1663 45.5671 82.2025 45.5596 82.2378 45.5476L83.5201 45.1047C84.0317 44.9282 84.3752 44.4454 84.3752 43.905V42.9105C84.9909 43.0777 85.6055 43.1065 86.1766 43.1343C86.8674 43.165 87.5285 43.2021 88.094 43.411C88.2351 43.463 88.3689 43.5243 88.4886 43.5958C88.6103 43.6682 88.7254 43.7536 88.8276 43.8493C89.0337 44.0396 89.1915 44.2708 89.2621 44.5104C89.3345 44.749 89.3225 44.9914 89.2287 45.2319C89.1358 45.4714 88.9631 45.6999 88.7486 45.8818C88.5369 46.0638 88.2741 46.2003 87.9854 46.3053C87.6966 46.4092 87.3818 46.4789 87.055 46.5337C86.392 46.6377 85.7049 46.7092 85.0187 46.7704C83.6436 46.8939 82.2378 46.9775 80.831 47.2449C80.831 47.2449 80.8106 47.2486 80.7716 47.2561C80.7317 47.2635 80.6732 47.2737 80.5961 47.2914C80.442 47.3266 80.2136 47.3703 79.922 47.4501C79.8486 47.4696 79.7716 47.4891 79.6908 47.5105C79.61 47.5346 79.5255 47.5606 79.4373 47.5876C79.3491 47.6154 79.2572 47.6433 79.1615 47.673C79.0668 47.7073 78.9684 47.7426 78.8663 47.7788C78.6685 47.8475 78.4271 47.9367 78.1754 48.0927C78.0492 48.1725 77.9173 48.2719 77.7938 48.413C77.6712 48.5523 77.5635 48.7464 77.5227 48.9618C77.5023 49.0723 77.4985 49.1856 77.5097 49.297C77.5236 49.4075 77.5515 49.5133 77.5914 49.6118C77.6722 49.8077 77.7938 49.9739 77.9414 50.1132C78.0872 50.2515 78.2757 50.3639 78.4503 50.4326C78.6295 50.505 78.8096 50.5477 78.9833 50.5774C79.3352 50.6331 79.6388 50.6471 79.9656 50.6851C80.2897 50.7195 80.6212 50.7604 80.9555 50.8133C81.624 50.921 82.312 51.0816 82.9629 51.3732C83.2898 51.5208 83.5981 51.6972 83.8803 51.9201C84.1635 52.142 84.4235 52.4057 84.6408 52.7028C84.859 52.999 85.0261 53.3342 85.1274 53.6861C85.1812 53.8616 85.2054 54.0427 85.223 54.2247C85.2276 54.4067 85.2248 54.5896 85.1886 54.7697C85.0614 55.4959 84.5628 56.169 83.9073 56.6389C83.2536 57.1171 82.4402 57.3808 81.5971 57.5331C80.7521 57.6853 79.8691 57.7336 78.9925 57.8107C75.4883 58.1004 72.0945 58.404 69.2755 58.6993C72.1093 58.6324 75.5143 58.5006 79.026 58.34C79.9016 58.2954 80.793 58.2777 81.6974 58.145C82.1486 58.0781 82.6017 57.9806 83.0428 57.8293C83.4839 57.6835 83.9175 57.4727 84.3065 57.2062C84.5015 57.0725 84.6854 56.923 84.8599 56.7605C85.0299 56.5943 85.1933 56.4197 85.3344 56.2257C85.6176 55.8403 85.8368 55.3928 85.9296 54.9127C85.9816 54.6741 85.9927 54.429 85.99 54.1885C85.9742 53.948 85.9445 53.7094 85.8804 53.4819C85.7588 53.026 85.5545 52.6053 85.2954 52.2386C85.0364 51.8709 84.7299 51.5496 84.3929 51.2766C84.2257 51.1392 84.0475 51.0166 83.8655 50.9052C83.7754 50.8486 83.6826 50.8012 83.5925 50.7492C83.5006 50.7009 83.4077 50.6564 83.3158 50.6109C82.5702 50.2636 81.8106 50.0807 81.1003 49.9572C80.7447 49.8959 80.3983 49.8504 80.065 49.8114C79.7344 49.7705 79.3965 49.7464 79.1365 49.7018C78.8728 49.6563 78.6713 49.5737 78.5589 49.4613C78.4976 49.4028 78.4521 49.3351 78.4289 49.2766C78.4066 49.2171 78.4048 49.1735 78.4113 49.1363C78.4224 49.0936 78.4391 49.0556 78.4809 49.0073C78.5227 48.9599 78.5849 48.9098 78.6583 48.8643C78.8087 48.7714 78.986 48.7018 79.181 48.6368C79.2748 48.6034 79.3649 48.5718 79.4522 48.5412C79.5404 48.5142 79.6258 48.4882 79.7075 48.4632C79.7892 48.439 79.8672 48.4149 79.9415 48.3926C80.0167 48.3731 80.0891 48.3545 80.1569 48.3378C80.701 48.1985 81.0093 48.1475 81.0093 48.1475C82.3371 47.893 83.7132 47.8095 85.106 47.6851C85.8043 47.6228 86.5006 47.5513 87.211 47.4399C87.5685 47.3805 87.9371 47.3006 88.302 47.1697C88.6651 47.0388 89.0318 46.8531 89.3485 46.582C89.6614 46.3145 89.9279 45.9766 90.0885 45.5671C90.1683 45.3628 90.2185 45.1418 90.2296 44.9143C90.2398 44.6878 90.2101 44.4584 90.1451 44.2448C90.0151 43.8159 89.7598 43.4584 89.4571 43.178L89.4543 43.1807ZM82.5702 22.6834L82.5748 22.6853L82.5702 22.6871C82.5702 22.6871 82.5702 22.6853 82.5702 22.6834ZM56.9436 13.5652V17.0008C56.8499 17.3035 56.7096 17.5848 56.484 17.8253L54.7978 18.5069C54.7811 18.5134 54.7653 18.5208 54.7495 18.5301L52.8163 19.5868L51.4607 19.9182C51.443 19.8263 51.4059 19.7084 51.3232 19.6248C51.2164 19.7316 51.1849 19.896 51.1756 19.9879L51.1032 20.0055C51.0818 20.0111 51.0605 20.0176 51.04 20.026L50.69 20.1671V20.1504C50.69 20.1504 50.69 19.6146 50.5368 19.3193C50.3836 19.6155 50.3836 20.1504 50.3836 20.1504V20.2906L48.5293 21.0399C48.3556 21.1095 48.2424 21.2785 48.2424 21.4652V23.728C48.1124 23.9592 47.9499 24.1691 47.728 24.3037C46.402 23.7781 44.9591 23.208 43.4697 22.6193C43.3369 22.5673 43.2041 22.5144 43.0723 22.4624C42.7752 22.286 42.517 22.0594 42.3443 21.7512V17.8829C42.5124 17.6192 42.7102 17.3796 42.9516 17.1939L45.1401 16.5096V16.8587C45.1401 16.8587 45.1401 17.4864 45.2933 17.8337C45.4466 17.4864 45.4466 16.8587 45.4466 16.8587V16.414L46.1021 16.2088V16.3313C46.1021 16.3313 46.1021 16.8485 46.2553 17.1345C46.4085 16.8485 46.4085 16.3313 46.4085 16.3313V16.1131L48.7298 15.387C48.7633 15.3768 48.7948 15.3619 48.8255 15.3443L49.4708 14.9655L50.1161 14.9376C50.1561 14.9357 50.1951 14.9292 50.2331 14.9172L52.274 14.2793L53.3855 14.0462C53.4366 14.036 53.4848 14.0165 53.5285 13.9896L53.8813 13.776L56.4376 12.9765C56.6493 13.1344 56.822 13.3331 56.9455 13.5652H56.9436ZM32.0135 9.94488L32.2976 10.0424C32.2976 10.0424 33.0934 10.3154 33.5827 10.3209C33.2716 10.0851 32.7034 9.8641 32.4861 9.78425L33.2754 9.51683L33.4481 9.58554C33.4481 9.58554 33.7248 9.69696 33.9346 9.61618C33.8835 9.50754 33.7814 9.42676 33.6969 9.37383L39.8011 7.30321C39.9719 7.24564 40.1539 7.241 40.3276 7.29114L44.1048 8.37566C44.1355 8.38495 44.167 8.39052 44.1995 8.39238L45.3658 8.47409L46.2553 8.98014C46.2869 8.99778 46.3203 9.01264 46.3556 9.02192L49.5163 9.9291L51.118 10.7313C51.2072 10.7759 51.3093 10.7908 51.4077 10.7722L52.0419 10.6543L56.3057 11.8781C56.3884 11.9022 56.4645 11.9394 56.5351 11.9839L53.5526 12.9162C53.5173 12.9273 53.4839 12.9422 53.4523 12.9617L53.119 13.1632L52.0623 13.3851C52.0475 13.3879 52.0336 13.3916 52.0196 13.3962L50.0149 14.023L49.3148 14.0536C49.2396 14.0573 49.1672 14.0787 49.1022 14.1168L48.4039 14.5272L41.8782 16.5681L35.2745 14.7045C35.2513 14.698 35.2271 14.6934 35.2021 14.6906L34.5131 14.6108L33.7907 14.2904C33.7712 14.2811 33.7508 14.2746 33.7294 14.2681L26.4284 12.2077C26.3652 12.1046 26.2835 12.0034 26.2111 11.9134L32.0135 9.94488ZM25.0504 13.1622C25.1321 12.997 25.3021 12.932 25.5017 12.8995L33.449 15.1419L34.2057 15.4771C34.2485 15.4956 34.293 15.5077 34.3395 15.5133L35.0609 15.5969L35.6589 15.7658V15.8856C35.6589 15.8856 35.6589 16.0704 35.8121 16.1725C35.9653 16.0704 35.9653 15.8856 35.9653 15.8856V15.8522L40.7779 17.2106C40.8085 17.2292 40.8392 17.245 40.8698 17.2636C41.0147 17.3536 41.2561 17.4743 41.4279 17.6257V21.8106C39.6191 21.0956 37.8558 20.3964 36.3154 19.7808V19.7539C36.3154 19.7539 36.3154 19.1633 36.1622 18.8365C36.047 19.0826 36.0182 19.479 36.0117 19.6592C33.969 18.8411 32.357 18.1828 31.6244 17.8504C31.2744 17.6916 30.8779 17.7018 30.4461 17.881C29.7525 18.168 28.5361 18.5951 27.2083 19.0436C27.1888 18.9906 27.1508 18.9256 27.0746 18.8801C26.9214 18.9721 26.9214 19.1383 26.9214 19.1383V19.1401C26.4126 19.311 25.8926 19.4837 25.3828 19.6518C25.2631 19.5858 25.1526 19.506 25.0514 19.415V13.1604L25.0504 13.1622ZM20.0568 22.6611H20.5619C20.612 22.6611 20.6603 22.6509 20.7077 22.6351L20.9742 22.8552C20.9742 22.8552 21.3994 23.2062 21.8284 23.1635C21.7885 22.7335 21.3632 22.3835 21.3632 22.3835L21.1822 22.234L21.5378 21.8839C21.5759 21.87 21.6269 21.8524 21.6882 21.831C21.7523 21.9081 21.8182 21.9833 21.8888 22.0548C21.8888 22.0548 22.0281 22.2015 22.2407 22.3445C22.4505 22.4903 22.7393 22.6166 22.964 22.6379C22.8043 22.4782 22.5777 22.2971 22.406 22.1337C22.2323 21.9731 22.1061 21.8403 22.1061 21.8403C22.0698 21.8032 22.0364 21.7632 22.0021 21.7252C22.4134 21.5877 23.0095 21.3937 23.627 21.1922C25.9186 20.4447 29.382 19.3138 30.7934 18.7297C30.981 18.6517 31.1323 18.6378 31.2419 18.6879C32.7749 19.3825 38.0387 21.4615 43.1299 23.4727C46.5515 24.8246 50.3009 26.3047 52.2833 27.1218C52.249 27.3066 52.1635 27.4737 52.0196 27.6093C49.6732 28.5127 45.3054 30.1859 40.9636 31.8109C40.5643 31.9604 40.1651 32.1099 39.7667 32.2575C39.6005 32.3197 39.4009 32.3411 39.1882 32.3652C38.9329 32.3931 38.6701 32.4228 38.4018 32.5212C38.308 32.5556 38.2207 32.5973 38.1344 32.6419L37.8335 32.2064C37.8335 32.2064 37.2736 31.3977 36.7128 31.1247C36.7704 31.7459 37.3303 32.5546 37.3303 32.5546L37.6088 32.9576C37.4213 33.0792 37.243 33.1925 37.0731 33.2557C31.7229 35.2232 29.5807 35.915 28.7283 36.1462L28.2279 36.1415C28.1257 36.1415 28.0106 36.1313 27.8945 36.1295C27.3578 35.9298 26.1498 35.4628 23.484 34.4005C23.2064 34.2901 22.9297 34.1183 22.6372 33.9363C22.3038 33.7292 21.9593 33.5147 21.561 33.3559C21.3252 33.2612 21.0782 33.2501 20.8609 33.2399C20.6984 33.2325 20.5443 33.225 20.4458 33.186C19.8246 32.9372 19.1923 32.6828 18.5591 32.4283C17.6714 32.0718 16.7819 31.7134 15.9183 31.3652C13.2776 30.3011 10.8541 29.3206 9.47431 28.7606C9.43531 28.6789 9.41024 28.5917 9.40095 28.5016C11.5338 27.3214 16.4792 24.6148 20.0559 22.6611H20.0568ZM28.4851 56.6017C28.6086 59.9194 28.6903 62.2584 28.7293 63.5945C28.5835 63.7356 28.4618 63.8935 28.3281 64.043C26.1266 63.3893 21.6371 62.0318 20.6798 61.743L20.5405 61.484C20.4802 61.3716 20.3762 61.2918 20.2564 61.2593V60.0726C20.2564 60.0726 20.2564 58.3919 19.9509 57.4634C19.6454 58.3919 19.6454 60.0726 19.6454 60.0726V61.2295C18.1208 60.8312 12.2311 58.4681 9.99986 57.5646C9.7213 57.378 9.49195 57.1347 9.31924 56.8422C9.08061 54.5014 8.66556 47.4836 8.49378 44.4092C8.96269 43.8623 8.96269 43.645 8.96269 43.5475C8.96269 43.4658 8.96269 43.2569 8.57735 42.6923C8.59777 42.0646 8.57735 40.2726 8.54206 37.5585C8.51049 35.0338 8.46499 31.5147 8.49378 29.8127C8.63677 29.6994 8.79277 29.6075 8.96083 29.5425C10.3053 30.0875 12.8235 31.1061 15.5775 32.2166C16.442 32.5648 17.3325 32.9233 18.2192 33.2807C18.8534 33.5352 19.4857 33.7896 20.1069 34.0384C20.1283 34.0468 20.1487 34.0542 20.1701 34.0607V34.5185C20.1701 34.5185 20.1701 35.4229 20.4755 35.9233C20.781 35.4238 20.781 34.5185 20.781 34.5185V34.1554C20.794 34.1554 20.808 34.1563 20.821 34.1573C20.9797 34.1647 21.1302 34.1712 21.2221 34.2083C21.5452 34.3374 21.8414 34.5213 22.1553 34.7163C22.4691 34.9112 22.7932 35.1127 23.1469 35.2539C25.4636 36.1768 26.6763 36.6495 27.3235 36.8946C27.3848 37.0524 27.4711 37.2047 27.5268 37.3236C27.576 37.4276 27.6503 37.6551 27.7534 37.8695C27.8202 39.5233 27.9512 42.7991 28.0979 46.5197C28.1471 47.7751 28.1981 49.0806 28.2492 50.3908C28.2622 50.7186 28.4405 50.9776 28.5835 51.1856C28.6559 51.2905 28.7543 51.4335 28.7562 51.4948C28.7636 51.6815 28.6754 51.9238 28.5826 52.181C28.4646 52.5069 28.343 52.843 28.3569 53.2042C28.4015 54.3705 28.4451 55.5135 28.4851 56.6027V56.6017ZM51.3251 55.8181C51.2443 55.858 50.8692 55.9982 50.4021 56.1533C50.1412 56.2405 47.7586 57.2248 45.9814 57.963V57.936C45.9814 57.936 45.9814 57.2155 45.8282 56.8181C45.675 57.2164 45.675 57.936 45.675 57.936V58.0902C45.1847 58.2935 44.7594 58.4709 44.4623 58.5944V56.7893C44.4623 56.7893 44.4623 54.2962 44.1568 52.9192C43.8513 54.2971 43.8513 56.7893 43.8513 56.7893V58.4588C43.7009 58.4514 43.5505 58.5173 43.4576 58.6473L42.9469 59.3558C41.6312 59.8562 33.4295 62.7885 30.2846 63.9111C30.1202 63.8768 29.9568 63.8369 29.7989 63.7811C29.7469 63.7626 29.6977 63.7366 29.6494 63.7078C29.6123 62.3865 29.5297 59.9974 29.4015 56.5665C29.3607 55.4782 29.318 54.3343 29.2734 53.168C29.266 52.986 29.3532 52.7465 29.4452 52.4921C29.5584 52.1791 29.6866 51.8244 29.6727 51.4586C29.6597 51.1308 29.4814 50.8718 29.3384 50.6638C29.266 50.5589 29.1675 50.4159 29.1657 50.3537C29.1146 49.0426 29.0635 47.737 29.0143 46.4817C28.8667 42.7258 28.7348 39.4248 28.668 37.785C28.6726 37.7739 28.6763 37.7628 28.681 37.7525C28.7896 37.5065 28.8983 37.2604 29.006 37.0144C30.0404 36.7349 32.2855 35.9921 37.3925 34.1146C37.6692 34.0124 37.9097 33.8564 38.1427 33.7051C38.3451 33.5732 38.5364 33.4497 38.724 33.3801C38.8855 33.3207 39.0824 33.2984 39.2913 33.2752C39.5374 33.2482 39.8169 33.2176 40.0899 33.1155C40.4882 32.9669 40.8884 32.8174 41.2877 32.6679C42.7399 32.1238 44.1958 31.575 45.5775 31.0513V31.5583C45.5775 31.5583 45.5775 32.6939 45.7307 33.3216C45.8839 32.6939 45.8839 31.5583 45.8839 31.5583V30.9353C48.8598 29.8062 51.4616 28.8061 52.9064 28.25C53.1469 28.3419 53.3725 28.4598 53.5833 28.6084C53.7123 30.7226 53.9417 35.2492 54.0977 38.4907L54.0568 38.9847C54.055 39.0079 54.055 39.0311 54.0568 39.0544L53.5443 39.1277C53.5443 39.1277 52.3808 39.2939 51.7596 39.5372C52.4245 39.5966 53.5879 39.4304 53.5879 39.4304L54.1887 39.345C54.2073 39.3635 54.2267 39.3812 54.2481 39.397C54.2787 39.4193 54.3326 39.4657 54.3642 39.501C54.3995 40.5716 54.8126 51.3639 54.8981 53.5887C53.4626 54.4903 51.469 55.7391 51.3269 55.8181H51.3251ZM64.2437 34.5788C64.2335 34.616 64.2289 34.6531 64.228 34.6912L63.9893 50.0658C63.8714 50.193 63.7637 50.3026 63.6077 50.3815L59.2891 48.6127L58.8815 48.1762V47.2059C58.8815 47.2059 58.8815 45.9041 58.576 45.1845C58.2705 45.9041 58.2705 47.2059 58.2705 47.2059V47.8345L57.5611 47.9051L55.5657 47.088C55.4171 43.19 55.2797 39.5623 55.2769 39.4174C55.2769 39.1778 55.1376 38.9754 54.9891 38.8278L55.0132 38.5381C55.0151 38.5177 55.0151 38.4982 55.0141 38.4777C54.4867 27.535 54.406 27.2926 54.379 27.2128C54.2908 26.9491 54.2843 26.9277 50.8116 25.5321C50.4476 25.3864 50.0623 25.2313 49.6593 25.0707C49.416 24.8107 49.2489 24.5145 49.1588 24.2025V23.1142C49.2359 22.8478 49.3696 22.5896 49.5637 22.3529L50.8645 22.936L51.6668 23.6742C51.7401 23.7419 51.8339 23.7837 51.9333 23.793L53.015 23.8989L56.8684 25.625C56.8981 25.6389 56.9297 25.6491 56.9622 25.6556L58.9985 26.0818L60.7775 27.366C60.8026 27.3846 60.8305 27.4003 60.8583 27.4124L64.3171 28.9621L64.254 33.0282C64.254 33.0662 64.2577 33.1043 64.266 33.1424L64.4378 33.8601L64.2437 34.577V34.5788ZM61.2762 26.5962L59.4562 25.2824C59.4042 25.2443 59.3448 25.2183 59.2817 25.2053L57.199 24.7698L53.3224 23.0335C53.2769 23.013 53.2286 23 53.1794 22.9954L52.1756 22.8979L51.4319 22.2126C51.3957 22.1792 51.3539 22.1514 51.3084 22.1319L50.1078 21.5942C50.0957 21.52 50.1004 21.4512 50.1199 21.3881L51.352 20.8904L53.0921 20.4651C53.1311 20.4559 53.1682 20.441 53.2035 20.4224L55.1655 19.35L56.2537 18.9099L56.2695 18.9331C56.2695 18.9331 56.4914 19.2655 56.7412 19.3639C56.7449 19.1429 56.5964 18.8792 56.5434 18.7929L56.9538 18.6267C56.9752 18.6183 56.9956 18.6081 57.0161 18.596L57.3856 18.3769L57.6354 18.6796C57.6354 18.6796 58.212 19.3769 58.7654 19.5663C58.6828 18.986 58.1062 18.2896 58.1062 18.2896L57.9177 18.0612L58.5342 17.6953L60.4182 17.2218C60.4386 17.2162 60.4591 17.2097 60.4786 17.2023L65.0395 15.3591L71.0917 17.8885C71.0016 17.9878 70.6822 18.3537 70.58 18.6527C70.9217 18.5134 71.3387 18.0714 71.3387 18.0714L71.3925 18.0138L71.4594 18.0417C71.4956 18.0565 71.5336 18.0667 71.5726 18.0723L72.6971 18.2302L74.0017 19.0946C74.0258 19.1104 74.0518 19.1243 74.0778 19.1355L76.6916 20.2274L78.4104 21.441C78.4642 21.4791 78.5264 21.5051 78.5923 21.5172L80.7122 21.9062L82.196 22.5265C82.1978 22.6481 82.1375 22.7642 82.0456 22.8487L79.7084 23.572L78.3825 23.5358C78.3008 23.5339 78.22 23.5534 78.1485 23.5924L76.2469 24.6426L73.6015 25.4606C73.5755 25.469 73.5513 25.4783 73.5272 25.4913L70.7648 26.9119L67.9235 27.2258C67.8947 27.2286 67.866 27.2351 67.8381 27.2434L64.812 28.1794L61.278 26.5962H61.2762ZM83.4597 28.8424L83.1431 29.6344C83.0846 29.7811 83.105 29.9473 83.1979 30.0745L83.4597 30.4348V36.0032L83.2081 37.1341C83.1904 37.2131 83.1941 37.2948 83.2183 37.3718L83.4588 38.1351V43.9096C83.4588 44.0601 83.3631 44.1938 83.222 44.2421L81.9926 44.6664L80.3788 44.8131V43.9895C80.3788 43.9895 80.3788 42.4379 80.0734 41.5809C79.7679 42.4379 79.7679 43.9895 79.7679 43.9895V45.1502L79.0167 45.6943L78.8505 45.7518V45.6014C78.8505 45.6014 78.8505 44.7425 78.6973 44.2681C78.5441 44.7425 78.5441 45.6014 78.5441 45.6014V45.8568L74.4167 47.2821C74.3926 47.2904 74.3685 47.3006 74.3462 47.3136L73.1707 47.958L71.8401 48.179C71.815 48.1827 71.7899 48.1892 71.7658 48.1976L70.7342 48.5542C70.7128 48.5616 70.6924 48.5699 70.6729 48.5802L69.4045 49.2366L68.0981 49.4706C68.0749 49.4753 68.0517 49.4808 68.0294 49.4883L65.332 50.4196C65.163 50.3648 65.0265 50.2506 64.9077 50.0964L65.1454 34.7636L65.3552 33.9892C65.3756 33.9149 65.3766 33.8369 65.3589 33.7626L65.1732 32.9873L65.2345 29.0095L68.0665 28.1339L70.5921 27.8544V28.4347C70.5921 28.4347 70.5921 29.5146 70.8976 30.1117C71.2031 29.5146 71.2031 28.4347 71.2031 28.4347V27.7179L71.9236 27.3474V27.4171C71.9236 27.4171 71.9236 27.9714 72.0768 28.2769C72.23 27.9705 72.23 27.4171 72.23 27.4171V27.1905L73.9098 26.327L76.5616 25.5071C76.5914 25.4978 76.6201 25.4857 76.648 25.4709L78.4818 24.4578L79.7586 24.4931C79.8087 24.495 79.8589 24.4875 79.9071 24.4727L82.7949 23.5794C83.1784 23.6834 83.3566 24.0168 83.4597 24.3798V28.8451V28.8424Z" fill="#2E365B"/>
<path d="M53.3059 60.8642C53.6429 60.6525 54.0515 60.5448 54.4684 60.4742C54.8862 60.4037 55.3208 60.36 55.7368 60.3071C56.1546 60.256 56.5622 60.2059 56.9615 60.1576C63.3452 59.3739 67.3165 58.8242 67.3165 58.8242C67.3165 58.8242 63.2625 59.1186 56.7842 59.6478C56.3793 59.6813 55.9652 59.7147 55.5418 59.75C55.1174 59.7871 54.6922 59.8112 54.2261 59.8818C53.7664 59.9552 53.265 60.0749 52.8045 60.3897C52.5751 60.5513 52.3755 60.7537 52.2214 60.997C52.0663 61.2384 51.953 61.5253 51.9317 61.8447C51.9057 62.1632 51.9976 62.5077 52.1814 62.777C52.3643 63.0528 52.6234 63.2477 52.8862 63.3833C53.1508 63.5189 53.4266 63.6024 53.7052 63.6535C53.9884 63.7055 54.2576 63.7185 54.5232 63.7259C55.0562 63.738 55.5715 63.6999 56.0664 63.7027C56.3143 63.7046 56.5567 63.7157 56.7907 63.7473C57.02 63.7779 57.2382 63.8327 57.4508 63.9154C57.8724 64.0797 58.2485 64.3601 58.4314 64.7009C58.5187 64.8727 58.5642 65.0565 58.5549 65.2469C58.5465 65.4372 58.488 65.6378 58.384 65.8263C58.2828 66.0157 58.1389 66.194 57.9699 66.3416C57.8055 66.4883 57.5957 66.6183 57.3756 66.726C56.929 66.9414 56.4044 67.0761 55.8501 67.2014C53.6457 67.7093 51.3012 67.9433 48.8991 67.9953C48.2983 68.0102 47.7003 68.0093 47.107 68.0046C46.8052 68.0009 46.5044 67.9972 46.2054 67.9935C45.8934 67.9935 45.5647 68.0083 45.2239 68.0733C45.054 68.1058 44.8804 68.1532 44.7105 68.2191C44.5387 68.2869 44.379 68.3649 44.2063 68.4865C43.8831 68.7261 43.6445 69.0381 43.5034 69.4095C43.4347 69.5952 43.391 69.7985 43.3901 70.013C43.3882 70.2266 43.4337 70.4569 43.5396 70.6611C43.5925 70.7614 43.6547 70.8617 43.7281 70.9397C43.7643 70.9806 43.7996 71.0233 43.8386 71.0604L43.963 71.1625C44.0048 71.1978 44.0484 71.2248 44.0921 71.2508C44.1357 71.2768 44.1803 71.3037 44.2248 71.3269C44.3112 71.3631 44.4031 71.4095 44.4858 71.4327C44.8265 71.5451 45.132 71.5785 45.3976 71.6231C45.6622 71.6658 45.8925 71.7187 46.0494 71.8004C46.2017 71.8877 46.2825 71.9787 46.3298 72.1236C46.3735 72.2694 46.3688 72.4616 46.3085 72.6417C46.2788 72.7318 46.2388 72.819 46.1887 72.897C46.1367 72.975 46.0828 73.0382 46.0048 73.1115C45.8553 73.249 45.6706 73.3622 45.4616 73.4514C45.0457 73.6315 44.5452 73.7216 44.0466 73.7986C43.0512 73.9472 42.0465 73.9862 41.0623 74.041C40.0789 74.0948 39.1263 74.1468 38.2052 74.197C37.285 74.249 36.3964 74.2991 35.544 74.3465C35.1178 74.3706 34.7 74.3948 34.2914 74.4189C33.8819 74.443 33.4957 74.4672 33.1372 74.4403C32.7816 74.4161 32.4418 74.3353 32.1799 74.1849C31.9153 74.0326 31.6971 73.7959 31.5894 73.5405C31.5355 73.4133 31.5105 73.2824 31.5151 73.157C31.5197 73.0326 31.5532 72.9128 31.6154 72.7884C31.7389 72.5396 31.958 72.3009 32.1344 72.0047C32.1781 71.9304 32.2189 71.8524 32.2542 71.7698C32.2867 71.6862 32.3155 71.5999 32.3359 71.5145C32.374 71.3408 32.3842 71.1653 32.3656 70.9991C32.3331 70.6639 32.1994 70.3733 32.0406 70.1291C31.7166 69.6416 31.256 69.3287 30.8094 69.1829C30.3684 69.0353 29.9598 69.0056 29.6172 69.0056C29.2727 69.0074 28.7258 69.1699 28.4964 69.1978C28.2671 69.2266 28.0953 69.2544 27.9793 69.2721C27.8641 69.2906 27.8047 69.2999 27.8047 69.2999C27.8047 69.2999 27.865 69.2943 27.9839 69.2832C28.1027 69.273 28.2792 69.2563 28.5122 69.2414C28.7453 69.2275 29.2959 69.0826 29.6385 69.1021C29.9793 69.1235 30.3795 69.1792 30.7908 69.3501C31.2022 69.5181 31.6052 69.8431 31.8661 70.3074C31.9961 70.5376 32.0815 70.8078 32.0843 71.0892C32.0917 71.3724 31.9905 71.6519 31.8113 71.8961C31.6386 72.1459 31.4009 72.3752 31.2393 72.6993C31.1595 72.8599 31.1121 73.0493 31.113 73.2406C31.113 73.4319 31.1595 73.6241 31.2393 73.8005C31.4 74.1543 31.6832 74.4551 32.0425 74.6538C32.4028 74.8488 32.8113 74.9398 33.2199 74.9732C33.6303 75.0094 34.0407 74.9937 34.452 74.9872C34.8652 74.9797 35.2868 74.9714 35.7176 74.963C36.5793 74.9454 37.4763 74.9259 38.4057 74.9064C39.3352 74.8841 40.2962 74.8618 41.287 74.8377C42.2759 74.8117 43.3112 74.795 44.3836 74.6427C44.9129 74.5638 45.4811 74.469 46.0448 74.1942C46.3243 74.0521 46.5972 73.8701 46.8275 73.6055C47.0624 73.3353 47.2138 73.0113 47.2834 72.6603C47.3466 72.3111 47.3271 71.9109 47.1284 71.546C47.0309 71.364 46.886 71.2062 46.7309 71.0836C46.652 71.0261 46.5685 70.9713 46.4858 70.9267C46.4032 70.8877 46.3178 70.8422 46.236 70.8171C45.9055 70.6973 45.5981 70.6546 45.3279 70.6064C45.0596 70.5599 44.8154 70.5061 44.6603 70.4216C44.6269 70.3984 44.5851 70.3807 44.5619 70.3547C44.5489 70.3427 44.5313 70.3334 44.5201 70.3194C44.5099 70.3055 44.4988 70.2916 44.4867 70.2795C44.4449 70.2275 44.4226 70.1764 44.4096 70.1114C44.3827 69.9842 44.4263 69.7967 44.5238 69.6295C44.573 69.546 44.6371 69.4689 44.7067 69.4039C44.7411 69.3696 44.7792 69.3426 44.8154 69.3157L44.872 69.2795L44.9426 69.2423C45.1367 69.1476 45.3642 69.0891 45.6186 69.0622C45.873 69.0344 46.1478 69.0334 46.4394 69.039C46.7384 69.0436 47.0383 69.0492 47.3401 69.0538C47.9445 69.0613 48.5546 69.0539 49.1693 69.039C51.6243 68.9731 54.0385 68.6991 56.3115 68.1253C56.8798 67.9805 57.4768 67.8087 58.0349 67.4846C58.1732 67.4029 58.3088 67.3129 58.4379 67.2135C58.5697 67.1095 58.6923 66.9953 58.8046 66.8737C59.0275 66.6267 59.2123 66.3435 59.3358 66.0241C59.4583 65.7065 59.5187 65.349 59.4732 64.9934C59.4295 64.6405 59.2912 64.3007 59.086 64.0324C58.8836 63.7603 58.6329 63.5486 58.3682 63.3833C58.1036 63.2171 57.8223 63.0982 57.5344 63.0138C57.2484 62.9283 56.9467 62.8847 56.669 62.867C56.3877 62.8485 56.1138 62.8503 55.8482 62.8605C55.3171 62.881 54.8185 62.9274 54.344 62.9172C54.1035 62.9125 53.8844 62.8977 53.6727 62.8494C53.4609 62.8048 53.2613 62.7315 53.0942 62.6321C52.758 62.4353 52.59 62.1159 52.655 61.763C52.7153 61.4083 52.9772 61.0638 53.2985 60.8651L53.3059 60.8642Z" fill="#2E365B"/>
<path d="M39.9061 63.9847C40.2905 63.8297 40.609 63.6969 40.8244 63.6022C41.0408 63.5056 41.1606 63.4517 41.1606 63.4517C41.1606 63.4517 41.0306 63.4777 40.7975 63.5242C40.5617 63.5734 40.2339 63.6402 39.8105 63.7396C39.6991 63.7721 39.5774 63.8102 39.453 63.903C39.3917 63.9494 39.3277 64.0154 39.2859 64.1064C39.2441 64.1964 39.2302 64.3041 39.2534 64.4072C39.3017 64.6115 39.4521 64.7517 39.622 64.826C39.7882 64.8975 39.9507 64.9077 40.0881 64.9198C40.6517 64.969 41.2757 64.9662 41.9183 64.89C42.5608 64.8139 43.1597 64.67 43.6843 64.4954C43.7502 64.4731 43.8152 64.4508 43.8784 64.4286C43.9452 64.4044 44.0205 64.3756 44.0984 64.3274C44.1755 64.28 44.2563 64.2076 44.3055 64.1101C44.3557 64.0135 44.3677 63.9067 44.3566 63.8157C44.3315 63.6319 44.2396 63.4972 44.1272 63.3988C44.0706 63.3496 44.0028 63.3097 43.936 63.2846C43.8728 63.2605 43.8087 63.2456 43.7484 63.2382C43.5033 63.2103 43.3129 63.2642 43.1551 63.2995C42.9991 63.3385 42.8728 63.3654 42.7688 63.3728C42.6657 63.3812 42.5877 63.3728 42.5357 63.3607C42.4847 63.3487 42.4587 63.3385 42.4587 63.3385C42.4587 63.3385 42.4809 63.3561 42.5302 63.383C42.5794 63.4081 42.6602 63.4397 42.7734 63.4555C42.8858 63.4722 43.0297 63.4712 43.1931 63.462C43.3547 63.4555 43.5432 63.4443 43.7159 63.4991C43.7586 63.513 43.7995 63.5316 43.8366 63.5539C43.87 63.5743 43.9007 63.604 43.9267 63.6365C43.9787 63.7015 44.0112 63.7916 44.0019 63.8594C43.9898 63.9262 43.9647 63.9522 43.883 63.9875C43.805 64.0191 43.6611 64.0469 43.5348 64.0785C43.0149 64.1983 42.4382 64.3023 41.8263 64.3729C41.2154 64.4443 40.6267 64.4759 40.0863 64.4768C39.9516 64.4778 39.8411 64.4741 39.7585 64.4453C39.6824 64.4221 39.6174 64.3608 39.6016 64.3097C39.583 64.2586 39.5979 64.1955 39.6647 64.1333C39.7288 64.072 39.8198 64.0219 39.9098 63.9829L39.9061 63.9847Z" fill="#2E365B"/>
<path d="M77.3286 53.8288C77.3954 53.8111 77.4743 53.8018 77.5514 53.7888C77.6276 53.7758 77.7 53.7638 77.7696 53.7526C78.3267 53.656 78.6731 53.5651 78.6731 53.5651C78.6731 53.5651 78.3184 53.5251 77.752 53.4908C77.6814 53.4871 77.6071 53.4824 77.5301 53.4787C77.4548 53.475 77.3713 53.4685 77.2701 53.475C77.1716 53.4833 77.0454 53.5019 76.92 53.5976C76.8606 53.644 76.8058 53.7108 76.7733 53.7888C76.7408 53.8659 76.7287 53.9476 76.7334 54.0237C76.7427 54.177 76.8021 54.3134 76.9061 54.4277C77.0147 54.5428 77.1401 54.6031 77.2645 54.6431C77.388 54.6821 77.5068 54.6979 77.6164 54.7081C77.725 54.7174 77.8355 54.7239 77.947 54.7248C78.3927 54.7294 78.8077 54.6654 79.1708 54.579C79.3528 54.5363 79.5218 54.4871 79.6777 54.4369C79.8328 54.384 79.974 54.345 80.1234 54.2689C80.2702 54.1946 80.3955 54.0627 80.4354 53.9207C80.4568 53.8492 80.4605 53.7758 80.4438 53.7099C80.4271 53.6403 80.3909 53.5901 80.3547 53.553C80.2804 53.4787 80.194 53.4592 80.1374 53.4611C80.1086 53.4611 80.0872 53.4676 80.0742 53.4713C80.0603 53.4759 80.0538 53.4787 80.0538 53.4787C80.0538 53.4787 80.0854 53.4713 80.1374 53.4833C80.1884 53.4945 80.2553 53.5353 80.2943 53.6087C80.3379 53.6802 80.3361 53.7851 80.2785 53.8659C80.2228 53.9504 80.1281 54.0061 80.0092 54.033C79.8922 54.06 79.7372 54.072 79.5784 54.0925C79.4187 54.111 79.2497 54.1305 79.0724 54.1472C78.7177 54.1807 78.3323 54.2057 77.933 54.2002C77.7353 54.1955 77.5245 54.1909 77.3926 54.1575C77.3276 54.1426 77.2682 54.111 77.2413 54.0887C77.2079 54.0618 77.1809 54.0145 77.1735 53.9801C77.1679 53.9439 77.1633 53.9309 77.1846 53.9012C77.2041 53.8733 77.2617 53.8455 77.3286 53.8288Z" fill="#2E365B"/>
</svg>
